<svg width="50" height="50" viewBox="0 0 50 50" fill="none" xmlns="http://www.w3.org/2000/svg">
<path d="M0.1 25C0.1 11.2905 11.2897 0.1 25 0.1C38.7095 0.1 49.9 11.2897 49.9 25C49.9 38.7094 38.7103 49.9 25 49.9C11.2905 49.9 0.1 38.7103 0.1 25ZM2.82969 25C2.82969 37.2249 12.7751 47.1703 25 47.1703C37.2249 47.1703 47.1703 37.2249 47.1703 25C47.1703 12.7751 37.2249 2.82969 25 2.82969C12.7751 2.82969 2.82969 12.7751 2.82969 25Z" fill="#E94E0F" stroke="white" stroke-width="0.2"/>
<path d="M13.9351 37.4296C13.9351 38.1833 13.324 38.7944 12.5702 38.7944C11.8165 38.7944 11.2054 38.1833 11.2054 37.4296C11.2054 36.6758 11.8165 36.0647 12.5702 36.0647C13.324 36.0647 13.9351 36.6758 13.9351 37.4296Z" fill="#E94E0F" stroke="white" stroke-width="0.2"/>
<path d="M38.7946 12.5704C38.7946 13.3242 38.1835 13.9353 37.4297 13.9353C36.676 13.9353 36.0649 13.3242 36.0649 12.5704C36.0649 11.8167 36.676 11.2056 37.4297 11.2056C38.1835 11.2056 38.7946 11.8167 38.7946 12.5704Z" fill="#E94E0F" stroke="white" stroke-width="0.2"/>
<path d="M13.5351 11.6052L13.5351 11.6052C14.0682 12.1383 14.0682 13.0024 13.5351 13.5354C13.0021 14.0684 12.138 14.0684 11.605 13.5354C11.072 13.0024 11.072 12.1383 11.605 11.6052C12.138 11.0722 13.0022 11.0722 13.5351 11.6052Z" fill="#E94E0F" stroke="white" stroke-width="0.2"/>
<path d="M36.4647 36.4646L36.4647 36.4646C36.9977 35.9316 37.8619 35.9316 38.3949 36.4646C38.9279 36.9976 38.9279 37.8618 38.3949 38.3948C37.8619 38.9278 36.9978 38.9278 36.4647 38.3948C35.9317 37.8618 35.9317 36.9976 36.4647 36.4646Z" fill="#E94E0F" stroke="white" stroke-width="0.2"/>
<path d="M26.3648 10.3516C26.3648 11.1053 25.7538 11.7164 25 11.7164C24.2462 11.7164 23.6352 11.1053 23.6352 10.3516V7.42188C23.6352 6.66812 24.2462 6.05703 25 6.05703C25.7538 6.05703 26.3648 6.66812 26.3648 7.42188V10.3516Z" fill="#E94E0F" stroke="white" stroke-width="0.2"/>
<path d="M23.6352 39.6484C23.6352 38.8947 24.2462 38.2836 25 38.2836C25.7538 38.2836 26.3648 38.8947 26.3648 39.6484V42.5781C26.3648 43.3319 25.7538 43.943 25 43.943C24.2462 43.943 23.6352 43.3319 23.6352 42.5781V39.6484Z" fill="#E94E0F" stroke="white" stroke-width="0.2"/>
<path d="M10.3516 23.6352C11.1053 23.6352 11.7164 24.2462 11.7164 25C11.7164 25.7538 11.1053 26.3648 10.3516 26.3648H7.42188C6.66812 26.3648 6.05703 25.7538 6.05703 25C6.05703 24.2462 6.66812 23.6352 7.42188 23.6352H10.3516Z" fill="#E94E0F" stroke="white" stroke-width="0.2"/>
<path d="M39.6484 26.3648C38.8947 26.3648 38.2836 25.7538 38.2836 25C38.2836 24.2462 38.8947 23.6352 39.6484 23.6352H42.5781C43.3319 23.6352 43.943 24.2462 43.943 25C43.943 25.7538 43.3319 26.3648 42.5781 26.3648H39.6484Z" fill="#E94E0F" stroke="white" stroke-width="0.2"/>
<path d="M26.3648 24.3933V24.4347L26.3941 24.464L34.7542 32.824C35.2872 33.357 35.2872 34.2212 34.7542 34.7542C34.2212 35.2872 33.357 35.2871 32.824 34.7542L24.035 25.9651C24.035 25.9651 24.035 25.9651 24.035 25.9651C23.779 25.7091 23.6352 25.3619 23.6352 25V16.2109C23.6352 15.4572 24.2462 14.8461 25 14.8461C25.7538 14.8461 26.3648 15.4572 26.3648 16.2109V24.3933Z" fill="#E94E0F" stroke="white" stroke-width="0.2"/>
</svg>
