<svg width="103" height="32" viewBox="0 0 103 32" fill="none" xmlns="http://www.w3.org/2000/svg">
<path d="M16.515 26.725C16.515 26.725 17.0643 27.232 16.9587 27.5278C16.7263 28.2039 15.6699 28.4997 14.9727 28.3307C13.8741 28.0349 12.8811 26.7672 12.8811 25.6475C12.9022 23.9784 14.5924 22.6262 16.008 21.76C17.4658 20.8515 19.3039 20.598 21.0152 20.6403C22.8744 20.6614 24.8815 21.0206 26.4238 22.0347C27.2901 22.6051 28.0084 23.4925 28.3464 24.4855C28.5366 25.0348 28.3464 26.2602 28.3464 26.2602C28.3464 26.2602 29.8887 24.1474 30.438 22.9643C31.093 21.5699 32.0649 20.0909 31.8747 18.5486C31.7902 17.8514 31.3254 17.1542 30.755 16.7528C28.9169 15.4218 26.4027 15.1894 24.1421 15.1049C21.7969 15.0204 19.4095 15.5274 17.1911 16.3514C15.6911 16.9007 14.2121 17.7035 13.0501 18.8022C11.7402 20.0487 10.4937 21.5487 10.05 23.3023C9.75424 24.4432 9.81762 25.7531 10.3669 26.7884C10.8529 27.718 11.8459 28.3941 12.8177 28.7955C13.7685 29.1758 14.9305 29.3448 15.9023 29.0279C16.5573 28.8166 17.4446 28.394 17.4658 27.6968C17.5503 26.6827 16.515 26.725 16.515 26.725Z" fill="#0285C6"/>
<path d="M16.1347 27.6758C16.1347 27.6758 15.353 27.5279 15.1629 27.2321C14.8671 26.8096 14.8882 26.218 15.184 25.7954C15.6488 25.0982 16.6629 24.8236 17.508 24.8025C18.9236 24.7391 20.6772 25.056 21.5645 26.1757C22.304 27.1054 22.4519 28.6688 21.9237 29.7252C21.3744 30.7815 19.9799 31.2041 18.8391 31.5421C17.0432 32.0703 15.0995 32.1126 13.2403 31.8168C11.3388 31.521 9.47959 30.7815 7.83164 29.7674C6.01468 28.6688 4.34561 27.211 3.09908 25.4997C1.74692 23.6616 0.753932 21.5066 0.289127 19.267C-0.133423 17.2599 -0.0700403 15.1049 0.331382 13.0767C0.796187 10.7949 1.70467 8.61879 3.01457 6.67507C4.00757 5.19614 5.3386 3.92849 6.79639 2.89324C8.1063 1.96363 9.60635 1.30868 11.1064 0.801622C12.3318 0.379072 13.6206 0.104415 14.9305 0.0199052C16.5362 -0.0646048 18.1841 0.125542 19.7475 0.484709C21.0575 0.780494 22.3674 1.22417 23.5716 1.858C24.9872 2.59746 27.438 4.66795 27.438 4.66795C27.438 4.66795 22.4519 4.18202 20.0222 4.6257C17.1489 5.13276 14.3178 6.168 11.8459 7.66806C9.98665 8.78781 8.35983 10.3301 7.0288 12.0414C5.95129 13.4147 5.10619 14.9782 4.57801 16.6261C4.02869 18.2952 3.75403 20.091 3.85967 21.8446C3.92305 23.0277 4.23997 24.232 4.76816 25.3095C5.29634 26.3659 6.05693 27.3377 6.94429 28.1195C8.1063 29.1336 9.43733 29.9153 10.8951 30.4435C12.0571 30.866 13.3459 31.0139 14.5713 30.9928C15.6277 30.9717 16.7686 30.9294 17.6982 30.4435C18.4799 30.0421 19.3461 29.4294 19.5997 28.5843C19.8109 27.8871 19.6842 26.9997 19.2194 26.4504C18.7546 25.9011 17.9095 25.7743 17.1911 25.7743C16.6629 25.7743 16.0714 25.9222 15.6911 26.2814C15.4798 26.4927 15.3742 26.7462 15.4375 27.0208C15.522 27.2955 16.1559 27.6758 16.1347 27.6758Z" fill="#2A2559"/>
<path d="M15.9657 27.3166C15.9657 27.3166 15.8178 26.8729 15.9446 26.7039C16.1559 26.4504 16.5996 26.3659 16.9165 26.4926C17.3601 26.6617 17.7616 27.1687 17.7616 27.6546C17.7616 28.2673 17.2334 28.8589 16.6841 29.1336C15.5009 29.7463 13.9375 29.5773 12.6698 29.1336C11.5923 28.7744 10.536 28.0349 9.98665 27.042C9.16268 25.6053 8.97253 23.7461 9.35283 22.1404C9.73312 20.4924 10.9585 19.1191 12.1205 17.936C13.3882 16.6472 14.9094 15.5486 16.5784 14.8514C18.4799 14.0485 20.6138 13.8373 22.6843 13.6894C24.459 13.5626 26.2759 13.6049 28.0295 13.9218C29.1282 14.1331 30.2479 14.4288 31.1987 14.9993C31.5789 15.2317 32.1705 15.8866 32.1705 15.8866C32.1705 15.8866 31.917 12.5062 31.3888 10.9005C30.9451 9.50613 30.4803 8.00608 29.4239 7.01309C28.6845 6.29475 27.6281 5.95671 26.614 5.72431C24.7125 5.32289 22.6843 5.4074 20.7617 5.76657C18.5222 6.16799 16.346 7.05534 14.3389 8.13284C12.4586 9.14696 10.6839 10.4146 9.16268 11.9147C7.91616 13.1401 6.75415 14.5345 6.03581 16.119C5.31748 17.7247 4.93718 19.5417 4.95831 21.2953C4.95831 22.7108 5.25409 24.1686 5.88792 25.4363C6.47949 26.6194 7.4091 27.6335 8.42322 28.4786C9.31057 29.2181 10.3458 29.7885 11.4233 30.1688C12.4374 30.528 13.5572 30.7181 14.6347 30.6547C15.9023 30.5914 17.339 30.4857 18.3109 29.6618C18.8813 29.1758 19.2827 28.373 19.2194 27.6335C19.1771 27.1265 18.8179 26.5983 18.3743 26.3236C17.8883 26.0278 17.2334 25.8377 16.6841 25.9856C16.177 26.1123 15.7545 26.387 15.6911 26.8095C15.6066 27.042 15.9869 27.3166 15.9657 27.3166Z" fill="#025198"/>
<path fill-rule="evenodd" clip-rule="evenodd" d="M51.4811 11.3231C50.2557 11.64 49.6641 11.9569 49.0092 12.7175C48.1852 13.6682 47.8471 14.7246 47.9105 16.288C47.9528 17.3866 48.0162 17.6613 48.4176 18.4641C48.8824 19.4149 49.474 20.0276 50.3402 20.4079C50.4881 20.4713 50.6782 20.5558 50.7627 20.598C50.8473 20.6403 51.0374 20.6825 51.1853 20.6825C51.3332 20.6825 51.4811 20.7248 51.5022 20.767C51.5233 20.8093 51.967 20.8516 52.4741 20.8516C53.0023 20.8516 53.4248 20.8093 53.4459 20.767C53.4671 20.7248 53.6572 20.6825 53.8474 20.6825C54.0375 20.6825 54.2065 20.6403 54.2488 20.598C54.2699 20.5558 54.3544 20.5135 54.4389 20.5135C54.7136 20.5135 55.5376 20.0276 55.9601 19.605C56.4672 19.1191 56.7629 18.6332 57.0376 17.8303C57.3756 16.8796 57.3123 14.3654 56.932 13.9217C56.8897 13.8795 56.8686 13.7738 56.8475 13.7105C56.8475 13.4569 55.9601 12.4006 55.4953 12.1048C54.4178 11.3653 52.622 11.0273 51.4811 11.3231ZM96.1446 11.3231C94.9615 11.6188 94.3488 11.9358 93.6938 12.6752C92.891 13.5626 92.574 14.5344 92.5529 16.0345C92.5529 17.5134 92.9332 18.5909 93.8206 19.5205C94.2009 19.9431 95.0248 20.4924 95.2572 20.4924C95.3206 20.4924 95.4051 20.5346 95.4474 20.5769C95.4685 20.6192 95.6375 20.6614 95.8065 20.6614C95.9756 20.6614 96.1235 20.7037 96.1657 20.7459C96.1868 20.7882 96.6305 20.8304 97.1376 20.8304C97.6658 20.8304 98.0883 20.7882 98.1095 20.7459C98.1306 20.7037 98.3207 20.6614 98.5109 20.6614C98.701 20.6614 98.87 20.6192 98.9123 20.5769C98.9334 20.5346 99.0391 20.4924 99.1447 20.4924C99.6306 20.4924 100.898 19.4783 101.321 18.7388C101.638 18.1684 101.891 17.3866 101.891 16.9852C101.891 16.7951 101.934 16.5838 101.997 16.5415C102.187 16.3514 101.849 14.0274 101.617 13.9006C101.574 13.8795 101.532 13.795 101.532 13.7105C101.532 13.4358 100.75 12.4851 100.243 12.1259C99.6518 11.7033 99.1024 11.5132 98.1728 11.3231C97.3277 11.154 96.8418 11.154 96.1446 11.3231ZM39.3328 11.4709C39.3116 11.5343 39.2905 13.6259 39.3116 16.0979L39.3328 20.6192L40.7906 20.6614V18.1261L41.53 17.2599C41.9314 16.7951 42.2906 16.3937 42.3117 16.3937C42.3329 16.3937 42.5864 16.6683 42.8399 17.0275C43.0935 17.3866 43.3681 17.7247 43.4315 17.8092C43.4949 17.8726 43.9808 18.5487 44.5301 19.2881L45.5231 20.6403H46.3048C46.9809 20.6403 47.0866 20.6191 47.0443 20.4924C47.0232 20.4079 46.664 19.9008 46.2626 19.3515C45.8612 18.8022 45.3118 18.0839 45.0794 17.7458C44.8259 17.4078 44.34 16.7528 44.0019 16.288C43.6639 15.8232 43.3681 15.4218 43.3681 15.3795C43.3681 15.3373 43.7273 14.8936 44.1921 14.3443C44.6358 13.8161 45.3541 12.971 45.7555 12.4639C46.1569 11.9569 46.5372 11.5555 46.5795 11.5555C46.6217 11.5555 46.664 11.4921 46.664 11.4287C46.664 11.3231 46.5161 11.3019 45.8823 11.3019H45.1006L44.6569 11.8724C44.4034 12.1893 44.1287 12.5273 44.0019 12.6541C43.8963 12.7809 43.4738 13.2668 43.0935 13.7316C42.7132 14.2175 42.185 14.8513 41.9103 15.1471C41.6568 15.4429 41.361 15.8232 41.2554 15.9711C40.8539 16.5415 40.8328 16.4359 40.8328 13.8372C40.8328 11.7033 40.8117 11.4076 40.6849 11.3442C40.3891 11.3019 39.375 11.3442 39.3328 11.4709ZM60.1645 11.4709C60.1433 11.5343 60.1011 11.7033 60.08 11.8512C60.0588 11.9991 59.9743 12.2738 59.9321 12.4639C59.8898 12.6541 59.8053 12.9921 59.7631 13.2034C59.7208 13.4147 59.6363 13.7527 59.594 13.964C59.5518 14.1753 59.4673 14.4922 59.425 14.7035C59.3828 14.8936 59.256 15.4429 59.1504 15.9077C59.0447 16.3725 58.8968 17.0275 58.8334 17.3655C58.7489 17.7036 58.6644 18.1472 58.6222 18.3374C58.5165 18.8656 58.1785 20.26 58.1151 20.4924C58.0517 20.6825 58.0729 20.6825 58.7701 20.6825C59.4461 20.6825 59.4884 20.6614 59.5307 20.4924C59.6574 19.9008 59.6785 19.7318 59.7631 19.4149C59.8053 19.2247 59.8898 18.8656 59.9321 18.612C59.9743 18.3585 60.0588 17.9993 60.1011 17.8092C60.1433 17.619 60.2912 16.943 60.418 16.3091C60.6504 15.126 60.7772 14.7668 60.9039 14.8936C60.9462 14.9359 61.073 15.2316 61.1997 15.5486C61.5166 16.3514 61.9603 17.4289 62.0448 17.6402C62.0871 17.7458 62.2138 17.9993 62.3195 18.2317C62.4251 18.4641 62.5096 18.6754 62.5096 18.6965C62.5096 18.7177 62.5941 18.929 62.6786 19.1402C62.8477 19.5416 63.0801 20.0276 63.3125 20.5769C63.5449 21.1051 63.6716 20.9783 64.0942 19.8797C64.2632 19.4571 64.4111 19.098 64.4534 19.0346C64.4956 18.9923 64.5379 18.9078 64.5379 18.8444C64.5379 18.7811 64.6435 18.4853 64.7914 18.1684C64.9393 17.8726 65.0872 17.4712 65.1506 17.3021C65.2139 17.1331 65.2985 16.9641 65.3407 16.9007C65.383 16.8373 65.4252 16.7739 65.4252 16.7106C65.4252 16.6472 65.5097 16.4148 65.5942 16.2246C65.6787 16.0134 65.8478 15.6119 65.9745 15.3373C66.0802 15.0626 66.2069 14.8302 66.2492 14.8302C66.3337 14.8302 66.4182 15.0626 66.5239 15.5908C66.5661 15.8443 66.6506 16.1824 66.6929 16.3514C66.7351 16.5204 66.9253 17.4078 67.1365 18.2951C67.3478 19.2036 67.538 20.1121 67.6014 20.3022L67.707 20.6825H68.3408C68.7 20.6825 68.9958 20.6614 69.0169 20.6403C69.038 20.6191 68.8901 19.9008 68.6789 19.0768C68.4676 18.2317 68.2563 17.3866 68.2141 17.2176C68.1718 17.0275 68.0873 16.7317 68.045 16.5627C68.0028 16.3725 67.9183 16.0556 67.8549 15.8232C67.7915 15.6119 67.7281 15.2739 67.6647 15.0626C67.6225 14.8725 67.538 14.5556 67.4957 14.3443C67.4535 14.1541 67.3689 13.8584 67.3267 13.6893C67.2422 13.3935 67.1788 13.0978 66.9887 12.2949C66.7985 11.4709 66.7563 11.4287 66.4605 11.4076C66.1436 11.3864 66.1647 11.3442 65.6365 12.7597C65.5309 13.0555 65.4041 13.3724 65.3618 13.4781C65.3196 13.5837 65.2351 13.795 65.1928 13.964C65.1294 14.133 65.0449 14.3654 65.0027 14.4922C64.9182 14.7035 64.8125 14.9359 64.6646 15.3373C64.6224 15.4429 64.5167 15.7598 64.4111 16.0556C64.2421 16.5838 64.0097 17.1965 63.8618 17.5557C63.8195 17.6613 63.7561 17.8092 63.735 17.8937C63.6294 18.2529 63.4181 17.936 62.9744 16.7528C62.8688 16.4993 62.742 16.1824 62.5308 15.7176C62.4251 15.4852 62.3406 15.2528 62.3406 15.1894C62.3406 15.126 62.2984 15.0415 62.2561 14.9992C62.2138 14.957 61.8969 14.1753 61.5378 13.2668C61.1786 12.3583 60.8617 11.5766 60.7983 11.5132C60.756 11.4498 60.587 11.4076 60.4603 11.4076C60.3124 11.3442 60.1856 11.4076 60.1645 11.4709ZM70.6015 11.4076C70.5169 11.4498 70.4958 12.4639 70.4958 16.0556V20.6614L71.9536 20.6192V11.3864L71.3409 11.3653C70.9818 11.3653 70.6648 11.3864 70.6015 11.4076ZM74.8058 11.4076C74.7636 11.4498 74.7424 13.5414 74.7424 16.0556V20.6614H76.0735V17.3866C76.0735 15.5908 76.1157 14.1119 76.158 14.1119C76.2002 14.1119 76.3693 14.2598 76.5383 14.4499C77.5101 15.5274 77.2566 15.2528 79.7708 18.1895C82.0314 20.8304 82.0526 20.8516 82.2427 20.8304C82.4117 20.8093 82.4117 20.7459 82.4117 16.0979V11.4076H81.0807L80.9962 17.7881L80.7638 17.5768C80.637 17.45 80.2145 17.0064 79.8342 16.5627C79.4539 16.119 79.0525 15.6753 78.9468 15.5908C78.8412 15.4852 78.5665 15.1683 78.3341 14.8936C78.0806 14.5978 77.8059 14.302 77.7003 14.1964C77.5947 14.0908 77.0242 13.4569 76.4115 12.7597C75.8199 12.0836 75.2706 11.4921 75.2284 11.4498C75.1227 11.3442 74.8903 11.3442 74.8058 11.4076ZM84.9048 11.4076C84.8625 11.4498 84.8414 13.5414 84.8414 16.0767V20.6825L86.2992 20.6403L86.3414 16.2458L90.2923 16.2035L90.3557 15.1894H86.3626V13.9217C86.3626 12.8442 86.3837 12.633 86.5105 12.5907C86.595 12.5696 87.7992 12.5273 89.2148 12.5273H91.7923L91.7501 11.4287L88.3697 11.4076C86.4893 11.3653 84.947 11.3864 84.9048 11.4076ZM53.7206 12.5273C54.3544 12.7809 54.5023 12.8865 54.8192 13.1823C55.5164 13.9217 55.7277 14.6401 55.6643 16.1824C55.6221 17.4289 55.453 17.9782 54.9249 18.612C54.2699 19.3938 53.6361 19.6895 52.5163 19.6895C51.5233 19.6895 50.9529 19.4783 50.4036 18.8867C49.7697 18.1684 49.474 17.3866 49.4317 16.2458C49.3472 14.0485 50.1712 12.6963 51.7346 12.4217C52.1783 12.316 53.4248 12.4006 53.7206 12.5273ZM98.4052 12.5273C99.3137 12.8654 99.8842 13.4358 100.159 14.3443C100.433 15.2105 100.433 16.7317 100.159 17.5557C99.694 18.9712 98.701 19.6895 97.1798 19.6895C96.1868 19.6895 95.6164 19.4783 95.0671 18.8867C94.8558 18.6332 94.6023 18.3163 94.5389 18.1684C93.7572 16.457 93.9473 14.302 94.9614 13.1611C95.2572 12.8231 95.8911 12.5062 96.4404 12.4006C96.8207 12.316 98.0672 12.4217 98.4052 12.5273Z" fill="#1D2C4E"/>
</svg>
