<svg width="507" height="468" viewBox="0 0 507 468" fill="none" xmlns="http://www.w3.org/2000/svg">
<path d="M68.8978 103.265H89.7965V388.49H68.8978V103.265Z" fill="#917F50"/>
<path d="M154.153 103.265H175.052V388.49H154.153V103.265Z" fill="#917F50"/>
<path fill-rule="evenodd" clip-rule="evenodd" d="M161.057 208.65L77.9317 114.867L82.4902 110.827L174.596 214.741H80.211V208.65H161.057Z" fill="#917F50"/>
<path fill-rule="evenodd" clip-rule="evenodd" d="M161.057 307.498L77.9317 213.716L82.4902 209.675L174.596 313.59H80.211V307.498H161.057Z" fill="#917F50"/>
<path fill-rule="evenodd" clip-rule="evenodd" d="M168.089 386.032L78.2878 312.906L82.1342 308.182L171.935 381.309L168.089 386.032Z" fill="#917F50"/>
<rect width="277.443" height="60.3764" transform="matrix(-1 0 0 1 382.317 326.891)" fill="#0C3F54"/>
<rect width="221.882" height="60.3764" transform="matrix(-1 0 0 1 382.317 326.891)" fill="#135F7F"/>
<rect width="228.173" height="60.3764" transform="matrix(-1 0 0 1 382.317 266.514)" fill="#167197"/>
<rect width="182.479" height="60.3764" transform="matrix(-1 0 0 1 382.317 266.514)" fill="#197EA9"/>
<rect width="143.026" height="60.3764" transform="matrix(0.786518 -0.617567 -0.617567 -0.786518 221.525 224.03)" fill="#6EC0E3"/>
<rect width="114.384" height="60.3764" transform="matrix(0.786518 -0.617567 -0.617567 -0.786518 221.525 224.03)" fill="#99D2EB"/>
<path fill-rule="evenodd" clip-rule="evenodd" d="M430.827 314.704L408.022 279.318L403.72 282.09L426.526 317.476C427.292 318.664 428.875 319.006 430.063 318.241C431.251 317.476 431.593 315.892 430.827 314.704Z" fill="#F1D386"/>
<path fill-rule="evenodd" clip-rule="evenodd" d="M479.777 227.198C479.889 228.606 478.837 229.839 477.429 229.95L435.461 233.27L435.057 228.169L477.025 224.849C478.434 224.738 479.666 225.789 479.777 227.198Z" fill="#F1D386"/>
<path fill-rule="evenodd" clip-rule="evenodd" d="M466.395 275.235L428.951 255.992L426.612 260.543L464.056 279.786C465.313 280.432 466.855 279.937 467.501 278.68C468.147 277.423 467.652 275.881 466.395 275.235Z" fill="#F1D386"/>
<path fill-rule="evenodd" clip-rule="evenodd" d="M51.3763 442.869H507V437.943H51.3763V442.869Z" fill="#1F9ED3"/>
<path fill-rule="evenodd" clip-rule="evenodd" d="M180.863 455.239L485.884 455.239L485.884 451.582L180.863 451.582L180.863 455.239Z" fill="#99D2EB"/>
<path fill-rule="evenodd" clip-rule="evenodd" d="M0.0269735 467.611L391.512 467.611L391.512 465.286L0.0269733 465.286L0.0269735 467.611Z" fill="#99D2EB"/>
<path d="M376.345 141.51L354.793 137.469C352.772 137.133 352.772 134.27 354.793 133.933L376.345 129.892C377.018 129.724 377.692 129.219 377.692 128.545L381.733 106.993C382.07 104.972 384.932 104.972 385.269 106.993L389.31 128.545C389.478 129.219 389.984 129.892 390.657 129.892L412.209 133.933C414.23 134.27 414.23 137.133 412.209 137.469L390.657 141.51C389.984 141.679 389.31 142.184 389.31 142.857L385.269 164.41C384.932 166.43 382.07 166.43 381.733 164.41L377.692 142.857C377.524 142.184 377.018 141.679 376.345 141.51Z" fill="#EAF6FB"/>
<path d="M93.3665 55.6751C92.8632 52.2057 95.2676 48.9853 98.7369 48.482L205.65 32.9718C209.12 32.4685 212.34 34.873 212.843 38.3423L222.87 107.458C223.688 113.096 219.781 118.329 214.143 119.147L115.082 133.518C109.444 134.336 104.211 130.429 103.393 124.791L93.3665 55.6751Z" fill="#197EA9"/>
<path fill-rule="evenodd" clip-rule="evenodd" d="M176.405 77.8664L139.896 83.1628L143.351 106.979L179.86 101.683L176.405 77.8664ZM138.997 82.4915L142.68 107.878L180.759 102.354L177.076 76.9672L138.997 82.4915Z" fill="#EAF6FB"/>
<path fill-rule="evenodd" clip-rule="evenodd" d="M158.401 89.4182L148.201 90.8979L150.388 105.969L160.587 104.489L158.401 89.4182ZM147.302 90.2266L149.716 106.868L161.486 105.161L159.072 88.5191L147.302 90.2266Z" fill="#EAF6FB"/>
<path fill-rule="evenodd" clip-rule="evenodd" d="M154.847 56.0088C154.577 55.8054 154.193 55.8611 153.992 56.1329L134.824 82.0345C134.502 82.4693 134.865 83.0765 135.401 82.9988L180.306 76.4842C180.842 76.4065 181.017 75.7213 180.585 75.3958L154.847 56.0088ZM155.325 55.3751C154.702 54.9064 153.818 55.0348 153.354 55.6609L134.186 81.5625C133.445 82.5642 134.281 83.9629 135.515 83.784L180.42 77.2694C181.654 77.0905 182.058 75.5118 181.063 74.762L155.325 55.3751Z" fill="#EAF6FB"/>
<path d="M114.185 49.9661C113.336 44.1112 107.902 40.0541 102.047 40.9035C96.1921 41.7529 92.1351 47.1868 92.9845 53.0418L103.237 123.711C102.387 117.856 106.444 112.423 112.299 111.573C118.154 110.724 123.588 114.781 124.438 120.636L114.185 49.9661Z" fill="#135F7F"/>
<path d="M191.261 38.7844C190.411 32.9295 194.468 27.4956 200.323 26.6462C206.178 25.7968 211.612 29.8538 212.462 35.7088L222.714 106.378C221.864 100.523 216.43 96.4664 210.575 97.3158C204.72 98.1652 200.663 103.599 201.513 109.454L191.261 38.7844Z" fill="#135F7F"/>
<path fill-rule="evenodd" clip-rule="evenodd" d="M220.48 394.135C219.68 387.269 220.447 356.124 230.602 332.289C236.812 317.71 235.967 291.611 234.729 273.956C234.209 266.533 239.576 260.012 246.977 259.239C252.037 258.711 256.86 261.117 258.692 265.863C261.329 272.698 264.333 283.175 264.285 294.023C264.21 310.944 268.842 322.03 271.168 325.457L306.836 351.499L322.323 362.693L315.805 402.518C315.134 404.52 315.073 406.78 315.012 409.025C314.874 414.115 314.738 419.131 307.508 420.885C305.852 421.287 304.297 421.624 302.827 421.943C293.375 423.996 287.453 425.282 280.898 437.943H197.787C198.003 436.62 198.581 435.365 199.404 434.28L216.515 411.699C219.018 408.396 220.46 404.401 220.523 400.257C220.56 397.856 220.562 395.494 220.48 394.135Z" fill="#FBFAF1"/>
<path d="M382.423 294.96C379.472 287.577 371.094 283.985 363.712 286.937L338.143 297.16L348.832 323.893L374.401 313.671C381.783 310.719 385.375 302.342 382.423 294.96Z" fill="#FBFAF1"/>
<path d="M257.107 276.633C259.74 271.624 260.585 271.536 260.679 272.118L297.069 423.698L285.862 426.397C272.895 424.842 244.366 420.966 233.987 417.908C223.608 414.85 225.201 400.038 227.295 393.014C236.135 356.307 254.474 281.642 257.107 276.633Z" fill="#F7E5B6"/>
<path d="M349.206 302.471L378.003 310.017C368.098 317.915 352.129 316.926 345.383 315.445L349.206 302.471Z" fill="#F7E5B6"/>
<path d="M233.564 273.337C233.021 265.747 238.601 259.091 246.207 258.451L246.395 260.68C240.031 261.215 235.338 266.786 235.795 273.178C236.428 282.022 236.985 293.133 236.592 303.897C236.2 314.63 234.861 325.144 231.63 332.727C226.611 344.509 223.898 358.137 222.543 369.705C221.187 381.289 221.205 390.695 221.591 394.005L221.595 394.036L221.596 394.068C221.681 395.475 221.678 397.878 221.641 400.275C221.574 404.668 220.046 408.891 217.406 412.374L200.295 434.956C199.606 435.864 199.128 436.886 198.923 437.943L196.656 437.943C196.88 436.351 197.559 434.862 198.512 433.605L215.623 411.023C217.99 407.901 219.345 404.135 219.404 400.241C219.441 397.853 219.443 395.549 219.366 394.233C218.955 390.652 218.96 381.075 220.322 369.445C221.689 357.766 224.437 343.904 229.572 331.85C232.635 324.661 233.967 314.49 234.356 303.815C234.745 293.171 234.195 282.152 233.564 273.337Z" fill="#135F7F"/>
<path d="M343.602 250.88C343.239 252.217 342.4 253.375 341.242 254.136C340.083 254.896 338.687 255.206 337.316 255.008L301.728 249.184C301.083 249.09 300.465 248.86 299.915 248.509C299.366 248.158 298.898 247.694 298.542 247.148C298.185 246.602 297.95 245.986 297.85 245.342C297.75 244.698 297.789 244.04 297.964 243.411L299.316 238.1L344.933 245.565L343.602 250.88Z" fill="#1F9ED3"/>
<path d="M290.474 233.365L355.217 243.96C357.139 244.242 358.978 244.929 360.614 245.976C362.249 247.023 363.644 248.406 364.704 250.033C365.764 251.66 366.466 253.494 366.764 255.413C367.061 257.332 366.947 259.292 366.429 261.164L327.364 414.465C326.287 418.453 323.787 421.908 320.337 424.179C316.886 426.45 312.724 427.379 308.635 426.791L243.858 416.19C241.936 415.908 240.097 415.221 238.461 414.174C236.826 413.127 235.431 411.744 234.371 410.117C233.311 408.49 232.609 406.656 232.311 404.737C232.014 402.818 232.128 400.857 232.646 398.986L271.763 245.672C272.846 241.692 275.345 238.246 278.791 235.979C282.237 233.713 286.391 232.783 290.474 233.365Z" fill="#0C3F54"/>
<path d="M343.602 250.88C343.239 252.217 342.4 253.375 341.242 254.136C340.083 254.896 338.687 255.206 337.316 255.008L301.728 249.184C301.083 249.09 300.465 248.86 299.915 248.509C299.366 248.158 298.898 247.694 298.542 247.148C298.185 246.602 297.95 245.986 297.85 245.342C297.75 244.698 297.789 244.04 297.964 243.411L299.316 238.1L344.933 245.565L343.602 250.88Z" fill="white"/>
<path d="M285.676 235.861L350.42 246.456C351.941 246.677 353.398 247.22 354.693 248.049C355.988 248.877 357.091 249.972 357.93 251.261C358.769 252.549 359.324 254.001 359.557 255.521C359.791 257.04 359.698 258.592 359.285 260.073L320.228 413.368C319.377 416.523 317.399 419.257 314.668 421.052C311.937 422.847 308.643 423.579 305.41 423.109L240.666 412.514C239.142 412.296 237.682 411.756 236.383 410.929C235.084 410.101 233.977 409.007 233.135 407.717C232.294 406.428 231.737 404.974 231.502 403.452C231.267 401.93 231.36 400.376 231.773 398.893L270.851 245.601C271.704 242.445 273.683 239.712 276.415 237.917C279.147 236.122 282.442 235.391 285.676 235.861Z" fill="#99D2EB"/>
<path d="M286.451 232.82L351.194 243.415C353.116 243.697 354.955 244.384 356.591 245.431C358.226 246.478 359.621 247.861 360.681 249.488C361.741 251.115 362.443 252.949 362.741 254.868C363.038 256.787 362.924 258.748 362.406 260.619L323.355 413.88C322.273 417.864 319.771 421.315 316.32 423.582C312.87 425.848 308.709 426.774 304.623 426.184L239.879 415.589C237.958 415.308 236.118 414.621 234.482 413.575C232.846 412.528 231.452 411.145 230.392 409.517C229.332 407.89 228.631 406.056 228.335 404.137C228.039 402.217 228.155 400.257 228.675 398.386L267.732 245.09C268.818 241.114 271.321 237.672 274.769 235.412C278.216 233.152 282.371 232.23 286.451 232.82ZM231.773 398.893C231.36 400.374 231.268 401.927 231.501 403.447C231.735 404.967 232.291 406.42 233.13 407.708C233.97 408.997 235.074 410.092 236.37 410.92C237.666 411.748 239.124 412.29 240.646 412.511L305.389 423.106C308.623 423.576 311.917 422.844 314.648 421.049C317.378 419.254 319.356 416.52 320.208 413.365L359.285 260.073C359.698 258.592 359.791 257.04 359.557 255.521C359.324 254.001 358.769 252.549 357.93 251.261C357.091 249.972 355.988 248.877 354.693 248.049C353.398 247.22 351.941 246.677 350.42 246.456L285.676 235.861C282.442 235.391 279.147 236.122 276.415 237.917C273.683 239.712 271.704 242.445 270.851 245.601L231.773 398.893Z" fill="#135F7F"/>
<path d="M340.937 244.989C340.352 247.156 338.993 249.033 337.117 250.265C335.242 251.497 332.98 251.999 330.759 251.676L301.396 246.871C300.352 246.718 299.352 246.345 298.463 245.776C297.574 245.208 296.816 244.456 296.24 243.572C295.664 242.687 295.282 241.69 295.121 240.647C294.96 239.604 295.023 238.539 295.305 237.522L340.937 244.989Z" fill="#135F7F"/>
<path fill-rule="evenodd" clip-rule="evenodd" d="M317.767 341.678L313.041 344.947L308.327 348.161L312.451 349.136L302.988 388.937L309.337 390.438L318.8 350.637L323.25 351.689L320.475 346.704L317.767 341.678Z" fill="#87CBE8"/>
<path fill-rule="evenodd" clip-rule="evenodd" d="M293.663 262.216L281.725 270.781L269.818 279.208L280.404 281.518L257.971 383.688L274.268 387.244L296.702 285.074L308.124 287.566L300.809 274.945L293.663 262.216Z" fill="#87CBE8"/>
<path fill-rule="evenodd" clip-rule="evenodd" d="M303.868 292.499L285.107 305.772L266.386 318.833L283.644 322.117L270.254 380.896L296.822 385.952L310.212 327.173L328.832 330.716L316.216 311.692L303.868 292.499Z" fill="#6EC0E3"/>
<path fill-rule="evenodd" clip-rule="evenodd" d="M313.839 370.127L281.043 364.76L272.94 344.954L305.736 350.321L313.839 370.127Z" fill="#007DB0"/>
<path fill-rule="evenodd" clip-rule="evenodd" d="M258.947 361.144L255.148 384.359L277.244 387.975L281.043 364.76L272.94 344.954L258.947 361.144Z" fill="#135F7F"/>
<path fill-rule="evenodd" clip-rule="evenodd" d="M316.236 394.356C316.254 394.249 316.181 394.148 316.074 394.13L246.654 382.77C246.547 382.752 246.446 382.825 246.429 382.932C246.411 383.039 246.484 383.14 246.591 383.157L316.011 394.518C316.118 394.536 316.219 394.463 316.236 394.356Z" fill="#197EA9"/>
<path fill-rule="evenodd" clip-rule="evenodd" d="M313.839 370.127L281.043 364.76L277.244 387.975L310.04 393.342L313.839 370.127Z" fill="#FBFAF1"/>
<path fill-rule="evenodd" clip-rule="evenodd" d="M296.371 373.16L291.935 372.434L290.113 383.564L294.55 384.29L296.371 373.16Z" fill="#FBFAF1"/>
<path fill-rule="evenodd" clip-rule="evenodd" d="M296.647 373.206C296.672 373.053 296.569 372.91 296.416 372.885L291.98 372.159C291.827 372.134 291.684 372.237 291.659 372.389L289.837 383.519C289.812 383.671 289.916 383.815 290.068 383.84L294.505 384.566C294.657 384.591 294.801 384.487 294.826 384.335L296.647 373.206ZM296.05 373.391L294.319 383.969L290.434 383.333L292.165 372.756L296.05 373.391Z" fill="#1F9ED3"/>
<path fill-rule="evenodd" clip-rule="evenodd" d="M289.586 372.05L285.237 371.338L283.415 382.468L287.765 383.179L289.586 372.05Z" fill="#FBFAF1"/>
<path fill-rule="evenodd" clip-rule="evenodd" d="M289.862 372.095C289.887 371.943 289.784 371.799 289.631 371.774L285.282 371.062C285.129 371.037 284.986 371.141 284.961 371.293L283.139 382.422C283.114 382.575 283.218 382.719 283.37 382.744L287.72 383.455C287.872 383.48 288.016 383.377 288.041 383.225L289.862 372.095ZM289.265 372.281L287.534 382.858L283.736 382.237L285.467 371.659L289.265 372.281Z" fill="#1F9ED3"/>
<path fill-rule="evenodd" clip-rule="evenodd" d="M308.898 375.211L300.46 373.83L297.6 391.306L306.038 392.687L308.898 375.211Z" fill="#F4DC9F"/>
<path d="M331.967 380.112C330.82 387.122 335.326 393.694 342.031 394.792C348.736 395.889 355.102 391.096 356.249 384.086C357.396 377.076 352.891 370.504 346.185 369.406C339.48 368.309 333.115 373.102 331.967 380.112Z" fill="#FBFAF1"/>
<path fill-rule="evenodd" clip-rule="evenodd" d="M336.943 371.756C342.619 377.254 349.567 376.33 354.08 374.411C352.257 371.815 349.488 369.947 346.185 369.406C342.811 368.854 339.523 369.793 336.943 371.756Z" fill="#F7E5B6"/>
<path d="M334.386 358.409C333.189 365.724 338.148 372.624 345.463 373.821C352.778 375.018 359.678 370.059 360.875 362.744C362.072 355.429 357.113 348.529 349.798 347.332C342.483 346.135 335.583 351.094 334.386 358.409Z" fill="#FBFAF1"/>
<path fill-rule="evenodd" clip-rule="evenodd" d="M340.244 349.371C346.142 355.383 353.513 354.231 358.087 352.163C356.087 349.675 353.197 347.888 349.798 347.332C346.333 346.765 342.961 347.579 340.244 349.371Z" fill="#F7E5B6"/>
<path d="M338.27 334.679C337.023 342.299 341.942 349.446 349.256 350.643C356.571 351.84 363.512 346.634 364.759 339.014C366.006 331.395 361.087 324.247 353.772 323.05C346.457 321.853 339.517 327.06 338.27 334.679Z" fill="#FBFAF1"/>
<path d="M357.308 289.288L360.808 288.03C362.805 287.313 365.031 288.097 366.138 289.907L378.094 309.465C373.054 312.568 366.449 313.451 361.242 313.472C357.039 313.489 352.687 311.831 350.886 308.033C348.629 303.276 349.661 298.098 351.355 294.295C352.455 291.824 354.763 290.202 357.308 289.288Z" fill="#FBFAF1"/>
<path d="M114.147 367.412L105.483 365.788C104.671 365.653 104.671 364.502 105.483 364.367L114.147 362.742C114.418 362.674 114.688 362.471 114.688 362.201L116.313 353.537C116.448 352.725 117.599 352.725 117.734 353.537L119.358 362.201C119.426 362.471 119.629 362.742 119.9 362.742L128.563 364.367C129.376 364.502 129.376 365.653 128.563 365.788L119.9 367.412C119.629 367.48 119.358 367.683 119.358 367.954L117.734 376.617C117.599 377.429 116.448 377.429 116.313 376.617L114.688 367.954C114.621 367.683 114.418 367.48 114.147 367.412Z" fill="#1F9ED3"/>
<path fill-rule="evenodd" clip-rule="evenodd" d="M414.81 254.724C414.81 254.979 414.603 255.186 414.347 255.186H349.089C349.01 255.186 348.932 255.207 348.863 255.245L318.272 272.333C317.91 272.536 317.485 272.197 317.602 271.799L322.303 255.779C322.39 255.483 322.168 255.186 321.859 255.186H294.996C294.741 255.186 294.533 254.979 294.533 254.724V174.429C294.533 174.173 294.741 173.966 294.996 173.966H414.347C414.603 173.966 414.81 174.173 414.81 174.429V254.724Z" fill="#1F9ED3"/>
<g clip-path="url(#clip0_2419_13951)">
<path d="M320.085 228.679H324.964C326.94 228.679 327.927 227.834 327.927 226.166C327.927 224.541 326.939 223.739 324.964 223.76H320.085V228.679ZM324.926 214.11H320.085V218.446H324.926C325.264 218.446 325.711 218.531 326.545 217.813C326.938 217.454 327.156 216.948 327.156 216.272C327.156 214.941 326.231 214.224 325.474 214.161L324.926 214.11ZM314.329 233.916V208.885H324.964C325.195 208.885 325.468 208.904 325.825 208.926C326.463 209.006 327.094 209.125 327.717 209.285C328.566 209.482 329.386 209.79 330.156 210.199C330.927 210.672 331.581 211.314 332.07 212.077C332.655 212.988 332.955 214.055 332.931 215.138C332.91 217.947 331.71 219.488 330.639 220.164C329.884 220.712 329.442 220.86 329.295 220.86C329.665 220.967 330.023 221.109 330.366 221.284C330.872 221.56 331.364 221.863 331.838 222.191C333.163 223.058 333.997 224.641 333.997 226.604C333.997 231.483 330.633 233.918 323.906 233.91L314.329 233.916Z" fill="white"/>
<path d="M359.875 215.588H354.115V233.916H359.875V215.588Z" fill="white"/>
<path d="M338.12 195.549V211.744H343.879V201.334H380.296V211.744H386.056V195.549H338.12Z" fill="white"/>
<path d="M370.637 215.588H364.877V233.916H370.637V215.588Z" fill="white"/>
<path d="M386.193 215.588L383.165 220.085L380.161 215.588H373.916L380.076 224.709L373.916 233.916H380.161L383.165 229.418L386.193 233.916H392.438L386.36 224.709L392.438 215.588H386.193Z" fill="white"/>
<path d="M353.717 208.451C353.715 208.02 353.801 207.594 353.97 207.198C354.139 206.802 354.387 206.445 354.698 206.149C354.993 205.838 355.349 205.591 355.744 205.424C356.138 205.258 356.562 205.174 356.99 205.179C357.421 205.174 357.848 205.257 358.246 205.424C358.643 205.591 359.003 205.838 359.302 206.149C359.608 206.45 359.851 206.81 360.018 207.207C360.184 207.605 360.269 208.031 360.269 208.462C360.269 208.893 360.184 209.319 360.018 209.716C359.851 210.113 359.608 210.473 359.302 210.775C359.003 211.086 358.643 211.333 358.246 211.5C357.848 211.666 357.421 211.75 356.99 211.745C356.562 211.75 356.138 211.666 355.744 211.499C355.349 211.332 354.993 211.086 354.698 210.775C354.385 210.476 354.136 210.115 353.967 209.715C353.798 209.316 353.713 208.885 353.717 208.451Z" fill="white"/>
<path d="M364.479 208.451C364.477 208.02 364.563 207.594 364.732 207.198C364.901 206.802 365.148 206.445 365.46 206.149C365.755 205.838 366.111 205.591 366.505 205.424C366.9 205.258 367.324 205.174 367.752 205.179C368.182 205.174 368.609 205.258 369.007 205.424C369.404 205.591 369.763 205.838 370.062 206.149C370.368 206.45 370.611 206.81 370.778 207.207C370.944 207.605 371.029 208.031 371.029 208.462C371.029 208.893 370.944 209.319 370.778 209.716C370.611 210.113 370.368 210.473 370.062 210.775C369.763 211.086 369.403 211.333 369.006 211.5C368.608 211.666 368.181 211.75 367.75 211.745C367.322 211.75 366.898 211.666 366.503 211.499C366.109 211.332 365.753 211.086 365.458 210.775C365.144 210.476 364.896 210.115 364.727 209.715C364.558 209.316 364.473 208.885 364.477 208.451" fill="white"/>
<path d="M343.879 218.523V215.588H338.12V233.918H343.879V226.361C343.879 223.758 344.886 219.784 350.691 220.866V215.503C344.411 214.661 343.879 218.523 343.879 218.523Z" fill="white"/>
</g>
<path d="M179.079 179.07L168.293 177.048C167.281 176.879 167.281 175.447 168.293 175.278L179.079 173.256C179.416 173.171 179.753 172.918 179.753 172.581L181.776 161.795C181.944 160.784 183.377 160.784 183.545 161.795L185.568 172.581C185.652 172.918 185.905 173.256 186.242 173.256L197.029 175.278C198.04 175.447 198.04 176.879 197.029 177.048L186.242 179.07C185.905 179.154 185.568 179.407 185.568 179.744L183.545 190.531C183.377 191.542 181.944 191.542 181.776 190.531L179.753 179.744C179.669 179.407 179.416 179.154 179.079 179.07Z" fill="#1F9ED3"/>
<path d="M251.97 46.3052C263.472 35.0381 298.779 19.3576 298.779 19.3576L269.759 78.7619C271.111 79.6005 273.98 81.7911 274.637 83.8447C275.294 85.8984 273.747 87.0621 272.891 87.3873C273.591 88.2259 274.991 90.2316 274.991 91.546V95.3021C275.898 96.374 277.168 99.6555 274.991 104.207C272.814 108.758 243.311 98.4288 235.415 95.3021C227.519 92.1754 242.75 55.336 251.97 46.3052Z" fill="#F7E5B6"/>
<path d="M365.758 0.403564H304.058L298.483 19.3595L263.916 47.4957C263.916 47.4957 248.761 61.7017 245.221 73.4454C243.533 79.0448 249.651 117.328 250.706 120.914C252.343 126.479 260.77 119.755 263.916 114.883C269.694 105.935 260.019 87.8807 265.913 76.9351C269.539 70.2013 286.32 55.8681 295.179 66.8344C299.473 72.1496 300.347 75.5882 298.483 80.3158C295.622 87.5702 286.047 88.4069 283.265 97.6543C281.426 103.77 281.212 108.577 285.337 113.453C291.267 120.461 299.387 108.275 307.351 103.093C318.141 96.0729 323.408 91.0758 331.179 80.3158C341.957 65.3916 343.829 40.1738 343.829 40.1738L365.758 0.403564Z" fill="#F7E5B6"/>
<path d="M266.218 75.0685C267.46 72.196 272.946 68.5665 275.534 67.1108L270.612 78.8693C272.41 80.286 275.91 83.4748 275.534 84.8959C275.157 86.3169 273.824 87.2174 273.205 87.4901L264.665 82.2497C264.665 81.0528 264.975 77.941 266.218 75.0685Z" fill="#D6C59A"/>
<path d="M270.155 84.6798C268.783 83.6669 265.935 83.1142 264.683 82.9644C265.145 90.0573 266.226 104.357 266.847 104.815C267.623 105.386 272.483 105.386 274.076 104.815C275.669 104.243 276.69 102.528 276.935 99.056C277.131 96.2788 275.329 94.8221 274.403 94.4409C274.539 93.4607 274.77 91.1491 274.607 89.7441C274.403 87.988 271.871 85.9459 270.155 84.6798Z" fill="#D6C59A"/>
<path fill-rule="evenodd" clip-rule="evenodd" d="M304.126 0.418669C304.484 0.527295 304.686 0.905306 304.577 1.26298L298.875 20.0389L298.602 20.1667C292.792 22.8849 283.482 27.4684 274.443 32.3799C265.387 37.3011 256.664 42.5195 251.986 46.5085C249.121 48.9514 246.398 52.8903 243.968 57.5372C241.545 62.1727 239.439 67.462 237.788 72.557C236.137 77.6527 234.946 82.5354 234.348 86.3536C234.048 88.2649 233.899 89.8906 233.91 91.1343C233.915 91.7566 233.96 92.2653 234.039 92.6575C234.121 93.0623 234.227 93.2817 234.307 93.3819C234.805 94.0019 235.608 94.6173 236.636 95.2067C237.655 95.7916 238.855 96.3282 240.106 96.806C242.226 97.6151 244.457 98.2415 246.136 98.6434C245.432 93.1909 244.864 87.6335 244.566 82.9925C244.409 80.5467 244.327 78.3477 244.34 76.5489C244.354 74.7709 244.461 73.3206 244.709 72.4101C245.095 70.9959 246.095 69.1244 247.406 67.0664C248.728 64.9909 250.406 62.6663 252.197 60.3303C255.781 55.6576 259.845 50.9075 262.496 47.9582C262.746 47.6802 263.174 47.6574 263.452 47.9073C263.73 48.1572 263.753 48.5851 263.503 48.8631C260.87 51.7931 256.829 56.5158 253.271 61.1541C251.492 63.4736 249.841 65.764 248.548 67.7937C247.244 69.8409 246.343 71.5646 246.015 72.7663C245.818 73.4908 245.708 74.784 245.694 76.5592C245.681 78.3137 245.761 80.4777 245.917 82.9058C246.228 87.7608 246.84 93.641 247.594 99.3526C248.348 105.065 249.243 110.596 250.121 114.753C250.561 116.834 250.992 118.554 251.394 119.776C251.596 120.389 251.783 120.853 251.95 121.168C252.033 121.326 252.102 121.426 252.151 121.485C252.161 121.496 252.168 121.504 252.174 121.511C253.294 121.892 254.705 121.681 256.591 120.691C258.498 119.69 260.776 117.952 263.54 115.484C264.102 114.983 264.545 114.183 264.862 113.07C265.178 111.961 265.353 110.596 265.42 109.027C265.554 105.888 265.25 102.049 264.853 98.0464C264.755 97.06 264.652 96.0635 264.549 95.0665C264.235 92.0386 263.92 89.0061 263.761 86.2362C263.551 82.5742 263.601 79.2525 264.337 76.9411C265.08 74.6058 266.72 72.4655 268.8 70.5982C270.884 68.7268 273.448 67.0966 276.102 65.7881C278.758 64.4791 281.525 63.4826 284.027 62.8879C286.511 62.2974 288.802 62.087 290.477 62.4112C293.806 63.0556 296.186 65.3123 297.691 68.2951C299.19 71.2684 299.846 75.0027 299.745 78.75C299.691 80.7399 299.051 82.2113 298.017 83.4432C297.009 84.6442 295.635 85.6039 294.173 86.599C294.074 86.6663 293.974 86.7339 293.874 86.8019C290.989 88.762 287.583 91.0766 284.791 95.915C281.925 100.882 282.083 105.474 283.424 108.958C284.098 110.708 285.072 112.181 286.117 113.281C287.17 114.39 288.259 115.085 289.147 115.338C289.386 115.406 289.777 115.398 290.357 115.233C290.924 115.071 291.601 114.78 292.368 114.374C293.901 113.562 295.714 112.331 297.604 110.901C301.38 108.045 305.382 104.457 307.913 102.025C308.183 101.766 308.611 101.774 308.87 102.044C309.129 102.313 309.121 102.742 308.851 103.001C306.296 105.457 302.252 109.083 298.421 111.981C296.508 113.428 294.628 114.709 293.002 115.57C292.189 116.001 291.42 116.337 290.728 116.534C290.05 116.728 289.369 116.809 288.775 116.64C287.582 116.299 286.293 115.433 285.135 114.213C283.969 112.985 282.899 111.361 282.161 109.445C280.679 105.597 280.539 100.576 283.619 95.2385C286.567 90.1285 290.192 87.6661 293.092 85.6965C293.199 85.6237 293.306 85.5516 293.411 85.48C294.897 84.4686 296.111 83.6076 296.98 82.5729C297.822 81.5691 298.346 80.3898 298.392 78.7134C298.488 75.1282 297.856 71.6291 296.482 68.9047C295.113 66.19 293.034 64.2849 290.22 63.7402C288.823 63.47 286.754 63.6311 284.34 64.2049C281.943 64.7745 279.272 65.735 276.701 67.0023C276.447 67.1273 276.195 67.2551 275.944 67.3858C275.936 67.4544 275.918 67.523 275.888 67.5892L270.912 78.55C271.466 78.9117 272.154 79.4229 272.83 80.043C273.739 80.8769 274.671 81.9471 275.209 83.1564C275.79 84.4659 275.573 85.5821 275.014 86.4142C274.676 86.9166 274.227 87.2993 273.795 87.5692C274.573 88.5788 274.962 89.7134 275.123 90.7657C275.322 92.068 275.176 93.2785 274.962 94.0541C275.077 94.1226 275.185 94.1923 275.286 94.2632C276.678 95.2472 277.284 97.1341 277.323 98.9584C277.362 100.803 276.832 102.808 275.682 104.181C274.523 105.567 272.738 106.022 271.041 106.088C269.539 106.146 267.998 105.906 266.774 105.634C266.815 106.845 266.819 108.003 266.773 109.085C266.703 110.709 266.52 112.191 266.164 113.441C265.809 114.686 265.267 115.757 264.442 116.494C261.656 118.981 259.278 120.809 257.221 121.889C255.168 122.967 253.322 123.358 251.674 122.77C251.427 122.682 251.245 122.51 251.117 122.358C250.983 122.199 250.863 122.007 250.754 121.801C250.535 121.389 250.32 120.842 250.108 120.199C249.683 118.908 249.24 117.131 248.797 115.033C247.938 110.963 247.066 105.616 246.325 100.078C244.561 99.6753 242.03 98.9894 239.624 98.0707C238.332 97.5775 237.063 97.0122 235.962 96.3809C234.869 95.754 233.901 95.0386 233.252 94.2297C232.974 93.8834 232.812 93.4175 232.712 92.9248C232.611 92.4196 232.562 91.8187 232.556 91.1459C232.545 89.7995 232.704 88.0932 233.01 86.1438C233.622 82.2408 234.832 77.2878 236.5 72.1397C238.169 66.9909 240.302 61.6282 242.769 56.91C245.23 52.2031 248.049 48.0865 251.107 45.4784C255.907 41.3858 264.749 36.1073 273.797 31.1905C282.723 26.3402 291.909 21.8106 297.755 19.0685L303.282 0.869613C303.391 0.511938 303.769 0.310043 304.126 0.418669ZM266.712 104.231C267.934 104.522 269.504 104.793 270.988 104.735C272.532 104.675 273.846 104.266 274.644 103.313C275.53 102.253 276.004 100.598 275.97 98.9872C275.935 97.3567 275.39 95.9946 274.504 95.3686C273.709 94.8064 272.099 94.2576 270.3 93.8011C268.595 93.3683 266.829 93.044 265.684 92.8717C265.752 93.5449 265.822 94.2224 265.893 94.9014C265.997 95.9044 266.101 96.9109 266.2 97.9129C266.414 100.072 266.604 102.21 266.712 104.231ZM265.549 91.5184C265.618 91.506 265.691 91.5044 265.765 91.5153C266.942 91.6882 268.817 92.0281 270.633 92.489C271.701 92.76 272.792 93.0831 273.716 93.4548C273.851 92.8409 273.932 91.9376 273.785 90.9698C273.612 89.8354 273.131 88.65 272.094 87.7195C270.04 85.8757 266.788 84.3024 265.013 83.58C265.026 84.4008 265.061 85.2627 265.112 86.1586C265.211 87.8651 265.368 89.6694 265.549 91.5184ZM265.014 82.1259C266.63 82.7353 270.378 84.4385 272.828 86.5615C273.191 86.3801 273.613 86.0723 273.89 85.6596C274.198 85.2012 274.358 84.5766 273.972 83.7062C273.54 82.7357 272.757 81.8127 271.915 81.0407C271.078 80.2729 270.226 79.6935 269.714 79.4027L269.177 79.0973L273.999 68.4753C272.433 69.4181 270.969 70.4697 269.704 71.6056C267.728 73.3798 266.271 75.3269 265.627 77.3515C265.231 78.5938 265.049 80.2206 265.014 82.1259Z" fill="#135F7F"/>
<defs>
<clipPath id="clip0_2419_13951">
<rect width="78.5849" height="38.3691" fill="white" transform="translate(314.329 195.549)"/>
</clipPath>
</defs>
</svg>
