<svg width="604" height="575" viewBox="0 0 604 575" fill="none" xmlns="http://www.w3.org/2000/svg">
<path fill-rule="evenodd" clip-rule="evenodd" d="M458.033 518.852L401.356 518.852L401.356 517.645L458.033 517.645L458.033 518.852Z" fill="#197EA9"/>
<path fill-rule="evenodd" clip-rule="evenodd" d="M577.796 402.299H354.3V401.092H577.796V402.299Z" fill="#197EA9"/>
<path fill-rule="evenodd" clip-rule="evenodd" d="M489.788 407.132L348.7 407.132L348.7 405.926L489.788 405.926L489.788 407.132Z" fill="#197EA9"/>
<path fill-rule="evenodd" clip-rule="evenodd" d="M489.782 407.242L42.7901 407.242L42.7901 406.036L489.782 406.036L489.782 407.242Z" fill="#197EA9"/>
<path fill-rule="evenodd" clip-rule="evenodd" d="M317.71 401.31L113.992 401.31L113.992 400.104L317.71 400.103L317.71 401.31Z" fill="#197EA9"/>
<path fill-rule="evenodd" clip-rule="evenodd" d="M245.396 508.805L104.309 508.805L104.309 507.599L245.396 507.599L245.396 508.805Z" fill="#197EA9"/>
<path fill-rule="evenodd" clip-rule="evenodd" d="M234.543 502.777L93.4556 502.777L93.4556 501.571L234.543 501.571L234.543 502.777Z" fill="#197EA9"/>
<path fill-rule="evenodd" clip-rule="evenodd" d="M277.553 471.833L182.69 471.833L182.69 470.627L277.553 470.627L277.553 471.833Z" fill="#197EA9"/>
<path fill-rule="evenodd" clip-rule="evenodd" d="M271.524 465.001L176.661 465.001L176.661 463.795L271.524 463.795L271.524 465.001Z" fill="#197EA9"/>
<path fill-rule="evenodd" clip-rule="evenodd" d="M302.073 456.562L207.21 456.562L207.21 455.355L302.073 455.355L302.073 456.562Z" fill="#197EA9"/>
<path fill-rule="evenodd" clip-rule="evenodd" d="M303.278 434.861L208.416 434.861L208.416 433.654L303.278 433.654L303.278 434.861Z" fill="#197EA9"/>
<path fill-rule="evenodd" clip-rule="evenodd" d="M327.396 427.225L232.534 427.225L232.534 426.019L327.396 426.019L327.396 427.225Z" fill="#197EA9"/>
<path fill-rule="evenodd" clip-rule="evenodd" d="M525.562 412.356L409.396 412.356L409.396 411.15L525.562 411.15L525.562 412.356Z" fill="#197EA9"/>
<path fill-rule="evenodd" clip-rule="evenodd" d="M478.533 522.469L419.445 522.469L419.445 521.262L478.533 521.262L478.533 522.469Z" fill="#197EA9"/>
<path d="M25.9785 35.6337C25.9785 30.3069 30.2976 25.9888 35.6255 25.9888H263.561C268.889 25.9888 273.208 30.3069 273.208 35.6337V209.141C273.208 214.467 268.889 218.785 263.561 218.785H35.6255C30.2976 218.785 25.9785 214.467 25.9785 209.141V35.6337Z" fill="#BAE8FF"/>
<path opacity="0.2" fill-rule="evenodd" clip-rule="evenodd" d="M263.561 26.9775H35.6255C30.8438 26.9775 26.9674 30.853 26.9674 35.6337V209.141C26.9674 213.921 30.8438 217.797 35.6255 217.797H263.561C268.343 217.797 272.219 213.921 272.219 209.141V35.6337C272.219 30.853 268.343 26.9775 263.561 26.9775ZM35.6255 25.9888C30.2976 25.9888 25.9785 30.3069 25.9785 35.6337V209.141C25.9785 214.467 30.2976 218.785 35.6255 218.785H263.561C268.889 218.785 273.208 214.467 273.208 209.141V35.6337C273.208 30.3069 268.889 25.9888 263.561 25.9888H35.6255Z" fill="#197EA9"/>
<path fill-rule="evenodd" clip-rule="evenodd" d="M75.9597 69.4917C86.0117 69.4917 94.2023 77.7013 94.2023 87.7768C94.2023 97.8523 86.0117 106.062 75.9597 106.062C65.8145 106.062 57.624 97.8523 57.624 87.7768C57.624 77.7013 65.8145 69.4917 75.9597 69.4917Z" fill="#F9EDCF"/>
<path d="M66.9344 89.1235C66.4539 88.6068 66.55 87.7801 67.0305 87.2634C67.511 86.8501 68.2798 86.8501 68.7603 87.3668L73.181 92.7403L83.752 81.2698C84.2325 80.7532 85.0013 80.7532 85.4818 81.2698C85.8662 81.7865 85.9623 82.6132 85.4818 83.0266L73.9498 95.4271C73.9498 95.5304 73.9498 95.5304 73.8537 95.5304C73.3732 96.0471 72.6044 95.9438 72.22 95.4271L66.9344 89.1235Z" fill="#1F9ED3"/>
<path fill-rule="evenodd" clip-rule="evenodd" d="M246.333 59.4837L196.559 137.855L160.576 103.287L115.568 167.771L91.4376 148.27L56.9957 190.112L56.6853 189.856L91.3804 147.707L115.485 167.187L160.516 102.671L196.483 137.225L245.994 59.2683L246.333 59.4837Z" fill="white"/>
<path d="M91.4089 147.988L56.8404 189.984L42.7718 205.858V213.292H246.163V59.376L196.521 137.54L160.546 102.979L115.526 167.479L91.4089 147.988Z" fill="url(#paint0_linear_160_8511)"/>
<path d="M94.6249 148.189C94.6249 149.965 93.1852 151.404 91.4092 151.404C89.6332 151.404 88.1935 149.965 88.1935 148.189C88.1935 146.414 89.6332 144.974 91.4092 144.974C93.1852 144.974 94.6249 146.414 94.6249 148.189Z" fill="#197EA9"/>
<path d="M119.144 167.881C119.144 169.657 117.704 171.096 115.928 171.096C114.152 171.096 112.713 169.657 112.713 167.881C112.713 166.106 114.152 164.666 115.928 164.666C117.704 164.666 119.144 166.106 119.144 167.881Z" fill="#197EA9"/>
<path d="M163.359 103.18C163.359 104.955 161.92 106.395 160.144 106.395C158.368 106.395 156.928 104.955 156.928 103.18C156.928 101.404 158.368 99.9648 160.144 99.9648C161.92 99.9648 163.359 101.404 163.359 103.18Z" fill="#197EA9"/>
<path d="M199.134 138.143C199.134 139.918 197.694 141.358 195.918 141.358C194.142 141.358 192.703 139.918 192.703 138.143C192.703 136.367 194.142 134.928 195.918 134.928C197.694 134.928 199.134 136.367 199.134 138.143Z" fill="#197EA9"/>
<path d="M248.575 58.974C248.575 60.7496 247.135 62.189 245.359 62.189C243.584 62.189 242.144 60.7496 242.144 58.974C242.144 57.1984 243.584 55.759 245.359 55.759C247.135 55.759 248.575 57.1984 248.575 58.974Z" fill="#197EA9"/>
<path d="M251.926 164.371C251.926 163.833 252.362 163.396 252.901 163.396H381.007C381.545 163.396 381.982 163.833 381.982 164.371V350.163H251.926V164.371Z" fill="#99D2EB"/>
<path opacity="0.5" d="M268.911 183.131C268.911 182.996 269.02 182.887 269.155 182.887H292.314C292.448 182.887 292.557 182.996 292.557 183.131V350.741H268.911V183.131Z" fill="#1F9ED3"/>
<path opacity="0.5" d="M304.002 183.131C304.002 182.996 304.111 182.887 304.246 182.887H327.405C327.539 182.887 327.648 182.996 327.648 183.131V350.741H304.002V183.131Z" fill="#1F9ED3"/>
<path d="M338.84 183.131C338.84 182.996 338.949 182.887 339.084 182.887H362.243C362.378 182.887 362.487 182.996 362.487 183.131V350.741H338.84V183.131Z" fill="#62C4EE"/>
<path opacity="0.5" fill-rule="evenodd" clip-rule="evenodd" d="M220.263 351.381V236.721H220.507V351.381H220.263Z" fill="#135F7F"/>
<path d="M433.422 441.166C433.422 441.166 409.034 477.258 408.994 495.003C408.994 506.804 412.002 516.849 427.575 517.2C443.149 517.551 463.445 517.421 463.445 517.421C463.445 517.421 485.396 512.408 475.007 485.399C465.832 461.548 451.763 441.286 451.763 441.286L433.422 441.166Z" fill="#C1A96B"/>
<path d="M428.651 492.547V474.493H435.776C437.14 474.493 438.303 474.736 439.268 475.224C440.237 475.706 440.975 476.391 441.481 477.278C441.992 478.16 442.248 479.197 442.248 480.39C442.248 481.589 441.989 482.621 441.472 483.484C440.955 484.342 440.205 485.001 439.223 485.459C438.248 485.918 437.066 486.147 435.679 486.147H430.909V483.079H435.062C435.79 483.079 436.396 482.979 436.878 482.779C437.36 482.579 437.719 482.28 437.954 481.88C438.195 481.48 438.315 480.984 438.315 480.39C438.315 479.791 438.195 479.285 437.954 478.874C437.719 478.462 437.357 478.151 436.869 477.939C436.387 477.722 435.779 477.613 435.044 477.613H432.469V492.547H428.651ZM438.403 484.331L442.892 492.547H438.677L434.286 484.331H438.403Z" fill="#F1D386"/>
<path d="M444.875 497.625V479.006H448.579V481.281H448.746C448.911 480.916 449.149 480.546 449.461 480.17C449.778 479.788 450.189 479.47 450.695 479.218C451.206 478.959 451.841 478.83 452.6 478.83C453.587 478.83 454.498 479.088 455.333 479.606C456.168 480.117 456.835 480.89 457.335 481.924C457.834 482.953 458.084 484.243 458.084 485.794C458.084 487.305 457.84 488.58 457.352 489.62C456.87 490.654 456.212 491.439 455.377 491.974C454.548 492.503 453.62 492.767 452.591 492.767C451.862 492.767 451.242 492.647 450.73 492.406C450.225 492.165 449.81 491.862 449.487 491.498C449.164 491.128 448.917 490.754 448.746 490.378H448.632V497.625H444.875ZM448.552 485.776C448.552 486.582 448.664 487.284 448.887 487.883C449.111 488.483 449.434 488.95 449.857 489.285C450.281 489.614 450.795 489.779 451.4 489.779C452.012 489.779 452.529 489.611 452.952 489.276C453.376 488.935 453.696 488.465 453.913 487.866C454.137 487.26 454.248 486.564 454.248 485.776C454.248 484.995 454.14 484.307 453.922 483.714C453.705 483.12 453.384 482.656 452.961 482.321C452.538 481.986 452.018 481.818 451.4 481.818C450.789 481.818 450.272 481.98 449.849 482.303C449.431 482.626 449.111 483.085 448.887 483.678C448.664 484.272 448.552 484.971 448.552 485.776Z" fill="#F1D386"/>
<path d="M461.72 417.877C461.459 416.112 459.313 415.34 457.528 415.37C451.271 415.47 445.886 420.804 439.629 420.483C435.698 420.293 432.278 417.887 428.668 416.323C427.808 415.904 426.875 415.655 425.92 415.591C425.442 415.564 424.964 415.652 424.526 415.847C424.088 416.042 423.703 416.339 423.403 416.714C422.521 417.957 423.073 419.671 423.654 421.085C426.552 428.002 431.356 434.87 434.835 441.527L452.935 442.269C452.881 434.675 455.429 427.291 460.155 421.345C460.978 420.323 461.91 419.17 461.72 417.877Z" fill="#C1A96B"/>
<path d="M435.307 462.631C435.272 461.604 435.336 460.577 435.497 459.563C435.698 457.678 436.029 455.081 436.5 452.224C436.971 449.367 437.503 446.79 437.914 444.946C438.088 443.92 438.356 442.913 438.716 441.938C438.65 442.951 438.503 443.957 438.275 444.946C437.924 446.951 437.493 449.467 437.021 452.234C436.55 455.001 436.179 457.508 435.858 459.543C435.76 460.586 435.575 461.618 435.307 462.631Z" fill="#1F9ED3"/>
<path d="M448.173 452.966C447.642 451.312 447.28 449.609 447.09 447.883C446.726 446.185 446.532 444.456 446.508 442.72C447.033 444.374 447.385 446.077 447.561 447.803C447.938 449.499 448.142 451.229 448.173 452.966Z" fill="#1F9ED3"/>
<path d="M433.522 428.173C435.189 429.735 436.679 431.477 437.964 433.366C439.384 435.159 440.607 437.098 441.614 439.151C441.484 439.231 439.779 436.705 437.543 433.677C435.307 430.649 433.422 428.273 433.522 428.173Z" fill="#1F9ED3"/>
<path d="M439.117 423.2C439.414 423.961 439.633 424.751 439.769 425.556C440.17 427.21 440.631 429.135 441.153 431.271C441.674 433.406 442.216 435.281 442.647 436.955C442.91 437.73 443.094 438.53 443.198 439.341C442.81 438.62 442.508 437.856 442.296 437.065C441.815 435.632 441.213 433.637 440.641 431.401C440.07 429.165 439.639 427.12 439.408 425.626C439.215 424.832 439.117 424.017 439.117 423.2Z" fill="#1F9ED3"/>
<path opacity="0.3" d="M432.94 443.131L432.278 443.592C433.946 444.259 435.727 444.599 437.523 444.595C437.331 448.378 436.923 452.147 436.299 455.884C437.884 452.201 439.291 448.448 440.521 444.625C444.336 445.137 448.218 444.643 451.782 443.191C445.507 442.83 439.217 442.81 432.94 443.131Z" fill="#917F50"/>
<path d="M452.318 438.646L432.133 438.526C430.809 438.518 429.73 439.585 429.722 440.908L429.719 441.329C429.711 442.652 430.778 443.732 432.102 443.739L452.287 443.859C453.611 443.867 454.69 442.801 454.698 441.477L454.701 441.056C454.708 439.733 453.642 438.654 452.318 438.646Z" fill="#135F7F"/>
<path d="M423.254 123.233L422.454 90.6572C422.47 91.2163 422.575 91.7692 422.766 92.295C422.976 92.8823 423.278 93.4324 423.662 93.9246C426.6 97.7017 434.811 100.116 448.137 101.131L448.937 133.707C435.611 132.691 427.4 130.277 424.461 126.5C424.074 126.01 423.772 125.46 423.566 124.871C423.367 124.347 423.262 123.793 423.254 123.233Z" fill="#0F7099"/>
<path d="M423.822 118.587C423.826 119.389 423.738 120.189 423.558 120.971C423.381 121.717 423.288 122.481 423.279 123.247L422.454 90.6571C422.462 89.8916 422.558 89.1295 422.742 88.3861C422.911 87.6023 422.999 86.8033 423.006 86.0015L423.822 118.587Z" fill="#135F7F"/>
<path d="M423.031 86.016L423.822 118.587C423.81 117.949 423.684 117.319 423.45 116.725C423.221 116.163 422.916 115.635 422.543 115.155C419.483 111.241 411.144 109.01 397.173 108.379L396.373 75.8029C410.344 76.4341 418.683 78.6658 421.738 82.588C422.115 83.0649 422.421 83.5936 422.646 84.1579C422.884 84.7495 423.014 85.3787 423.031 86.016Z" fill="#197EA9"/>
<path d="M397.391 72.5185L395.839 72.5559L400.196 198.999L401.748 198.962L397.391 72.5185Z" fill="#263238"/>
<path fill-rule="evenodd" clip-rule="evenodd" d="M537.621 255.827H385.781L334.631 172.64H486.471L537.621 255.827Z" fill="#135F7F"/>
<path fill-rule="evenodd" clip-rule="evenodd" d="M486.642 172.534C486.605 172.475 486.54 172.439 486.471 172.439H334.631C334.558 172.439 334.491 172.478 334.456 172.541C334.42 172.605 334.422 172.683 334.46 172.745L385.61 255.932C385.647 255.991 385.711 256.028 385.781 256.028H537.621C537.693 256.028 537.761 255.988 537.796 255.925C537.832 255.861 537.83 255.784 537.792 255.722L486.642 172.534ZM486.358 172.84L537.261 255.626H385.894L334.991 172.84H486.358Z" fill="#0C3F54"/>
<path fill-rule="evenodd" clip-rule="evenodd" d="M283.181 255.827V400.701H385.68V255.827L334.43 172.64L283.181 255.827Z" fill="#197EA9"/>
<path fill-rule="evenodd" clip-rule="evenodd" d="M537.621 255.827H385.68V400.701H537.621V255.827Z" fill="#C7E7F4"/>
<path fill-rule="evenodd" clip-rule="evenodd" d="M460.846 282.752H440.346V334.192H460.846V282.752Z" fill="#FBFAF1"/>
<path fill-rule="evenodd" clip-rule="evenodd" d="M461.851 282.752C461.851 282.197 461.401 281.748 460.846 281.748H440.346C439.791 281.748 439.342 282.197 439.342 282.752V334.192C439.342 334.747 439.791 335.196 440.346 335.196H460.846C461.401 335.196 461.851 334.747 461.851 334.192V282.752ZM459.842 283.757V333.187H441.351V283.757H459.842Z" fill="#1F9ED3"/>
<path fill-rule="evenodd" clip-rule="evenodd" d="M429.494 282.752H409.396V334.192H429.494V282.752Z" fill="#FBFAF1"/>
<path fill-rule="evenodd" clip-rule="evenodd" d="M430.499 282.752C430.499 282.197 430.049 281.748 429.494 281.748H409.396C408.841 281.748 408.391 282.197 408.391 282.752V334.192C408.391 334.747 408.841 335.196 409.396 335.196H429.494C430.049 335.196 430.499 334.747 430.499 334.192V282.752ZM428.489 283.757V333.187H410.401V283.757H428.489Z" fill="#1F9ED3"/>
<path fill-rule="evenodd" clip-rule="evenodd" d="M518.729 282.752H479.739V363.126H518.729V282.752Z" fill="#F4DC9F"/>
<path fill-rule="evenodd" clip-rule="evenodd" d="M351.412 384.079H274.739V400.196V401.957H274.981C277.134 409.73 293.368 415.771 313.076 415.771C332.783 415.771 349.017 409.73 351.17 401.957H351.412V400.196V384.079Z" fill="#C1A96B"/>
<path opacity="0.5" fill-rule="evenodd" clip-rule="evenodd" d="M347.619 406.959V388.142H344.91V408.877C345.92 408.267 346.826 407.626 347.619 406.959ZM338.407 411.887V388.142H335.698V412.771C336.634 412.493 337.538 412.198 338.407 411.887ZM329.196 414.331V388.142H326.486V414.791C327.407 414.652 328.31 414.498 329.196 414.331ZM319.984 415.519V388.142H317.275V415.679C318.188 415.638 319.091 415.585 319.984 415.519ZM310.773 415.743V388.142H308.063V415.639C308.957 415.687 309.861 415.721 310.773 415.743ZM301.561 415.056V388.142H298.852V414.664C299.739 414.808 300.642 414.939 301.561 415.056ZM292.349 413.301V388.142H289.64V412.523C290.514 412.798 291.418 413.057 292.349 413.301ZM283.138 409.926V388.142H280.428V408.365C281.254 408.908 282.159 409.429 283.138 409.926Z" fill="#F1D386"/>
<path d="M351.412 385.298C351.412 393.9 334.248 400.873 313.075 400.873C291.903 400.873 274.739 393.9 274.739 385.298C274.739 376.697 291.903 369.723 313.075 369.723C334.248 369.723 351.412 376.697 351.412 385.298Z" fill="#F1D386"/>
<path d="M343.284 384.215C343.284 390.423 329.759 395.456 313.076 395.456C296.392 395.456 282.867 390.423 282.867 384.215C282.867 378.007 296.392 372.974 313.076 372.974C329.759 372.974 343.284 378.007 343.284 384.215Z" fill="#F7E5B6"/>
<path fill-rule="evenodd" clip-rule="evenodd" d="M354.849 360.025H278.176V377.902H278.419C280.571 385.675 296.805 391.716 316.513 391.716C336.22 391.716 352.455 385.675 354.607 377.902H354.849V376.168C354.849 376.159 354.849 376.15 354.849 376.141C354.849 376.133 354.849 376.124 354.849 376.115V360.025Z" fill="#C1A96B"/>
<path opacity="0.5" fill-rule="evenodd" clip-rule="evenodd" d="M351.057 382.904V364.088H348.347V384.822C349.357 384.212 350.264 383.572 351.057 382.904ZM341.845 387.832V364.088H339.136V388.717C340.072 388.438 340.976 388.143 341.845 387.832ZM332.634 390.277V364.088H329.924V390.737C330.845 390.597 331.748 390.444 332.634 390.277ZM323.422 391.464V364.088H320.712V391.624C321.626 391.584 322.529 391.53 323.422 391.464ZM314.21 391.689V364.088H311.501V391.585C312.395 391.632 313.298 391.667 314.21 391.689ZM304.999 391.002V364.088H302.289V390.609C303.177 390.753 304.08 390.884 304.999 391.002ZM295.787 389.246V364.088H293.078V388.469C293.952 388.743 294.856 389.003 295.787 389.246ZM286.576 385.871V364.088H283.866V384.31C284.692 384.854 285.597 385.375 286.576 385.871Z" fill="#F1D386"/>
<path d="M354.849 361.244C354.849 369.845 337.685 376.819 316.513 376.819C295.34 376.819 278.176 369.845 278.176 361.244C278.176 352.642 295.34 345.669 316.513 345.669C337.685 345.669 354.849 352.642 354.849 361.244Z" fill="#F1D386"/>
<path d="M346.721 360.16C346.721 366.368 333.197 371.401 316.513 371.401C299.829 371.401 286.304 366.368 286.304 360.16C286.304 353.952 299.829 348.919 316.513 348.919C333.197 348.919 346.721 353.952 346.721 360.16Z" fill="#F7E5B6"/>
<path fill-rule="evenodd" clip-rule="evenodd" d="M359.67 334.603H282.997V350.691C282.997 350.7 282.997 350.71 282.997 350.719C282.997 350.729 282.997 350.739 282.997 350.748V352.48H283.239C285.391 360.253 301.626 366.294 321.333 366.294C341.041 366.294 357.275 360.253 359.427 352.48H359.67V334.603Z" fill="#C1A96B"/>
<path opacity="0.5" fill-rule="evenodd" clip-rule="evenodd" d="M355.877 357.483V338.666H353.167V359.401C354.177 358.791 355.084 358.15 355.877 357.483ZM346.665 362.41V338.666H343.956V363.295C344.892 363.017 345.796 362.721 346.665 362.41ZM337.453 364.855V338.666H334.744V365.315C335.664 365.175 336.568 365.022 337.453 364.855ZM328.242 366.042V338.666H325.532V366.202C326.446 366.162 327.349 366.108 328.242 366.042ZM319.03 366.267V338.666H316.321V366.163C317.215 366.21 318.118 366.245 319.03 366.267ZM309.819 365.58V338.666H307.109V365.187C307.996 365.331 308.9 365.462 309.819 365.58ZM300.607 363.824V338.666H297.898V363.046C298.771 363.321 299.675 363.581 300.607 363.824ZM291.395 360.449V338.666H288.686V358.888C289.511 359.432 290.417 359.953 291.395 360.449Z" fill="#F1D386"/>
<path d="M359.67 335.822C359.67 344.424 342.506 351.397 321.333 351.397C300.16 351.397 282.997 344.424 282.997 335.822C282.997 327.22 300.16 320.247 321.333 320.247C342.506 320.247 359.67 327.22 359.67 335.822Z" fill="#F1D386"/>
<path d="M351.542 334.738C351.542 340.947 338.017 345.979 321.333 345.979C304.65 345.979 291.125 340.947 291.125 334.738C291.125 328.53 304.65 323.497 321.333 323.497C338.017 323.497 351.542 328.53 351.542 334.738Z" fill="#F7E5B6"/>
<path fill-rule="evenodd" clip-rule="evenodd" d="M360.657 309.566H283.984V325.67C283.984 325.674 283.984 325.678 283.984 325.683C283.984 325.687 283.984 325.691 283.984 325.695V327.443H284.227C286.379 335.216 302.613 341.258 322.321 341.258C342.028 341.258 358.263 335.216 360.415 327.443H360.657V309.566Z" fill="#C1A96B"/>
<path opacity="0.5" fill-rule="evenodd" clip-rule="evenodd" d="M356.864 332.446V313.629H354.155V334.364C355.165 333.754 356.072 333.113 356.864 332.446ZM347.653 337.373V313.629H344.944V338.258C345.88 337.98 346.784 337.684 347.653 337.373ZM338.441 339.818V313.629H335.732V340.278C336.652 340.139 337.556 339.985 338.441 339.818ZM329.23 341.006V313.629H326.52V341.165C327.433 341.125 328.337 341.072 329.23 341.006ZM320.018 341.23V313.629H317.309V341.126C318.203 341.173 319.106 341.208 320.018 341.23ZM310.806 340.543V313.629H308.097V340.151C308.984 340.295 309.888 340.426 310.806 340.543ZM301.595 338.788V313.629H298.886V338.01C299.759 338.284 300.663 338.544 301.595 338.788ZM292.383 335.412V313.629H289.674V333.851C290.499 334.395 291.405 334.916 292.383 335.412Z" fill="#F1D386"/>
<path d="M360.657 310.785C360.657 319.387 343.494 326.36 322.321 326.36C301.148 326.36 283.984 319.387 283.984 310.785C283.984 302.183 301.148 295.21 322.321 295.21C343.494 295.21 360.657 302.183 360.657 310.785Z" fill="#F1D386"/>
<path d="M352.529 309.702C352.529 315.91 339.005 320.943 322.321 320.943C305.637 320.943 292.112 315.91 292.112 309.702C292.112 303.493 305.637 298.46 322.321 298.46C339.005 298.46 352.529 303.493 352.529 309.702Z" fill="#F7E5B6"/>
<path fill-rule="evenodd" clip-rule="evenodd" d="M301.587 404H224.494V421.975H224.738C226.902 429.79 243.225 435.865 263.041 435.865C282.856 435.865 299.179 429.79 301.343 421.975H301.587V420.227C301.587 420.219 301.587 420.212 301.587 420.205C301.587 420.197 301.587 420.19 301.587 420.182V404Z" fill="#C1A96B"/>
<path opacity="0.5" fill-rule="evenodd" clip-rule="evenodd" d="M297.773 427.004V408.085H295.049V428.933C296.065 428.319 296.976 427.675 297.773 427.004ZM288.511 431.959V408.085H285.787V432.849C286.728 432.569 287.637 432.272 288.511 431.959ZM279.249 434.417V408.085H276.525V434.88C277.451 434.739 278.359 434.585 279.249 434.417ZM269.987 435.611V408.085H267.263V435.772C268.181 435.731 269.09 435.678 269.987 435.611ZM260.725 435.837V408.085H258.001V435.732C258.9 435.78 259.808 435.815 260.725 435.837ZM251.463 435.146V408.085H248.739V434.752C249.631 434.896 250.54 435.028 251.463 435.146ZM242.202 433.381V408.085H239.477V432.599C240.356 432.875 241.265 433.136 242.202 433.381ZM232.939 429.988V408.085H230.215V428.418C231.045 428.964 231.955 429.489 232.939 429.988Z" fill="#F1D386"/>
<path d="M301.587 405.225C301.587 413.874 284.329 420.885 263.04 420.885C241.752 420.885 224.494 413.874 224.494 405.225C224.494 396.576 241.752 389.565 263.04 389.565C284.329 389.565 301.587 396.576 301.587 405.225Z" fill="#F1D386"/>
<path d="M293.415 404.136C293.415 410.378 279.816 415.438 263.041 415.438C246.266 415.438 232.667 410.378 232.667 404.136C232.667 397.893 246.266 392.833 263.041 392.833C279.816 392.833 293.415 397.893 293.415 404.136Z" fill="#F7E5B6"/>
<path fill-rule="evenodd" clip-rule="evenodd" d="M305.043 379.813H227.95V395.983C227.95 395.995 227.95 396.006 227.95 396.018C227.95 396.03 227.95 396.042 227.95 396.053V397.788H228.194C230.358 405.604 246.681 411.678 266.496 411.678C286.312 411.678 302.635 405.604 304.799 397.788H305.043V379.813Z" fill="#C1A96B"/>
<path opacity="0.5" fill-rule="evenodd" clip-rule="evenodd" d="M301.229 402.818V383.898H298.505V404.746C299.521 404.133 300.432 403.489 301.229 402.818ZM291.967 407.773V383.898H289.243V408.662C290.184 408.382 291.093 408.085 291.967 407.773ZM282.705 410.23V383.898H279.981V410.693C280.907 410.553 281.815 410.398 282.705 410.23ZM273.443 411.425V383.898H270.719V411.585C271.637 411.545 272.545 411.491 273.443 411.425ZM264.181 411.65V383.898H261.457V411.546C262.356 411.593 263.264 411.628 264.181 411.65ZM254.919 410.96V383.898H252.195V410.565C253.087 410.71 253.996 410.842 254.919 410.96ZM245.657 409.195V383.898H242.933V408.412C243.812 408.689 244.721 408.95 245.657 409.195ZM236.395 405.801V383.898H233.671V404.231C234.501 404.778 235.411 405.302 236.395 405.801Z" fill="#F1D386"/>
<path d="M305.043 381.039C305.043 389.688 287.785 396.699 266.496 396.699C245.208 396.699 227.95 389.688 227.95 381.039C227.95 372.39 245.208 365.378 266.496 365.378C287.785 365.378 305.043 372.39 305.043 381.039Z" fill="#F1D386"/>
<path d="M296.871 379.949C296.871 386.192 283.272 391.252 266.497 391.252C249.722 391.252 236.123 386.192 236.123 379.949C236.123 373.707 249.722 368.647 266.497 368.647C283.272 368.647 296.871 373.707 296.871 379.949Z" fill="#F7E5B6"/>
<path fill-rule="evenodd" clip-rule="evenodd" d="M303.691 354.252H226.599V372.227H226.842C229.007 380.043 245.33 386.117 265.145 386.117C284.96 386.117 301.283 380.043 303.448 372.227H303.691V370.488C303.691 370.478 303.691 370.468 303.691 370.457C303.691 370.447 303.691 370.436 303.691 370.426V354.252Z" fill="#C1A96B"/>
<path opacity="0.5" fill-rule="evenodd" clip-rule="evenodd" d="M299.877 377.257V358.338H297.153V379.186C298.169 378.572 299.08 377.928 299.877 377.257ZM290.615 382.212V358.338H287.891V383.102C288.832 382.822 289.741 382.525 290.615 382.212ZM281.353 384.67V358.338H278.629V385.133C279.554 384.992 280.463 384.838 281.353 384.67ZM272.091 385.864V358.338H269.367V386.025C270.285 385.984 271.194 385.93 272.091 385.864ZM262.829 386.09V358.338H260.105V385.985C261.004 386.032 261.912 386.068 262.829 386.09ZM253.567 385.399V358.338H250.843V385.004C251.735 385.149 252.644 385.281 253.567 385.399ZM244.305 383.634V358.338H241.581V382.852C242.46 383.128 243.369 383.389 244.305 383.634ZM235.043 380.24V358.338H232.319V378.67C233.149 379.217 234.059 379.741 235.043 380.24Z" fill="#F1D386"/>
<path d="M303.691 355.478C303.691 364.127 286.433 371.138 265.145 371.138C243.856 371.138 226.599 364.127 226.599 355.478C226.599 346.829 243.856 339.818 265.145 339.818C286.433 339.818 303.691 346.829 303.691 355.478Z" fill="#F1D386"/>
<path d="M295.519 354.388C295.519 360.631 281.92 365.691 265.145 365.691C248.37 365.691 234.771 360.631 234.771 354.388C234.771 348.146 248.37 343.086 265.145 343.086C281.92 343.086 295.519 348.146 295.519 354.388Z" fill="#F7E5B6"/>
<path fill-rule="evenodd" clip-rule="evenodd" d="M262.307 441.401H172.642V460.224C172.641 460.232 172.641 460.241 172.641 460.249C172.641 460.257 172.641 460.265 172.642 460.274V462.308H172.925C175.442 471.398 194.427 478.463 217.474 478.463C240.521 478.463 259.506 471.398 262.023 462.308H262.307V441.401Z" fill="#C1A96B"/>
<path opacity="0.5" fill-rule="evenodd" clip-rule="evenodd" d="M257.871 468.158V446.152H254.703V470.401C255.884 469.687 256.944 468.938 257.871 468.158ZM247.099 473.92V446.152H243.931V474.955C245.025 474.629 246.083 474.284 247.099 473.92ZM236.326 476.779V446.152H233.158V477.317C234.234 477.154 235.291 476.974 236.326 476.779ZM225.554 478.168V446.152H222.385V478.355C223.453 478.308 224.51 478.245 225.554 478.168ZM214.781 478.431V446.152H211.612V478.309C212.658 478.364 213.714 478.405 214.781 478.431ZM204.009 477.627V446.152H200.84V477.168C201.878 477.337 202.935 477.49 204.009 477.627ZM193.236 475.574V446.152H190.068V474.664C191.09 474.985 192.147 475.289 193.236 475.574ZM182.464 471.627V446.152H179.295V469.801C180.26 470.437 181.319 471.046 182.464 471.627Z" fill="#F1D386"/>
<path d="M262.307 442.826C262.307 452.886 242.235 461.041 217.474 461.041C192.714 461.041 172.641 452.886 172.641 442.826C172.641 432.767 192.714 424.612 217.474 424.612C242.235 424.612 262.307 432.767 262.307 442.826Z" fill="#F1D386"/>
<path d="M252.802 441.56C252.802 448.82 236.985 454.705 217.474 454.705C197.963 454.705 182.147 448.82 182.147 441.56C182.147 434.299 197.963 428.414 217.474 428.414C236.985 428.414 252.802 434.299 252.802 441.56Z" fill="#F7E5B6"/>
<path fill-rule="evenodd" clip-rule="evenodd" d="M266.327 413.27H176.661V432.089C176.661 432.099 176.661 432.108 176.661 432.118C176.661 432.128 176.661 432.137 176.661 432.147V434.177H176.945C179.462 443.267 198.447 450.332 221.494 450.332C244.541 450.332 263.526 443.267 266.043 434.177H266.327V413.27Z" fill="#C1A96B"/>
<path opacity="0.5" fill-rule="evenodd" clip-rule="evenodd" d="M261.891 440.027V418.022H258.722V442.27C259.904 441.557 260.964 440.807 261.891 440.027ZM251.118 445.79V418.022H247.95V446.824C249.045 446.499 250.102 446.153 251.118 445.79ZM240.346 448.648V418.022H237.177V449.187C238.254 449.023 239.31 448.844 240.346 448.648ZM229.573 450.037V418.022H226.405V450.224C227.473 450.177 228.529 450.114 229.573 450.037ZM218.8 450.3V418.022H215.632V450.178C216.677 450.233 217.734 450.274 218.8 450.3ZM208.028 449.496V418.022H204.86V449.037C205.897 449.206 206.954 449.359 208.028 449.496ZM197.256 447.443V418.022H194.087V446.533C195.109 446.855 196.166 447.158 197.256 447.443ZM186.483 443.496V418.022H183.315V441.67C184.28 442.306 185.339 442.915 186.483 443.496Z" fill="#F1D386"/>
<path d="M266.327 414.696C266.327 424.755 246.255 432.91 221.494 432.91C196.734 432.91 176.661 424.755 176.661 414.696C176.661 404.636 196.734 396.481 221.494 396.481C246.255 396.481 266.327 404.636 266.327 414.696Z" fill="#F1D386"/>
<path d="M256.821 413.429C256.821 420.689 241.005 426.574 221.494 426.574C201.983 426.574 186.166 420.689 186.166 413.429C186.166 406.168 201.983 400.283 221.494 400.283C241.005 400.283 256.821 406.168 256.821 413.429Z" fill="#F7E5B6"/>
<path d="M144.906 261.855C138.154 255.746 147.72 235.599 153.348 226.289H171.436L174.651 248.392L165.406 264.065C156.885 264.708 148.189 262.86 144.906 261.855Z" fill="#FBFAF1"/>
<path fill-rule="evenodd" clip-rule="evenodd" d="M153.152 225.943H171.735L175.012 248.463L165.613 264.397L165.432 264.41C156.856 265.057 148.116 263.199 144.805 262.186L144.731 262.163C144.731 262.163 146.469 263.735 144.674 262.112C142.88 260.488 142.203 257.963 142.239 255.026C142.275 252.083 143.025 248.664 144.155 245.166C146.417 238.169 150.229 230.78 153.051 226.11L153.152 225.943ZM153.543 226.635C150.749 231.284 147.027 238.531 144.814 245.379C143.693 248.846 142.966 252.19 142.931 255.034C142.898 257.746 143.495 259.946 144.916 261.385C145.023 261.494 145.155 261.569 145.302 261.612C148.734 262.616 157.035 264.316 165.2 263.733L174.291 248.321L171.136 226.635H153.543Z" fill="#99D2EB"/>
<path d="M271.122 180.878C274.659 184.575 271.256 204.655 269.112 214.233L260.671 212.827C257.616 208.326 257.254 203.048 257.455 200.971L256.45 194.14L257.455 182.887C260.537 180.677 267.585 177.181 271.122 180.878Z" fill="#FBFAF1"/>
<path d="M256.679 249.452C261.695 249.757 267.14 225.813 269.235 213.802L260.747 212.178L248.161 239.433C248.91 242.645 251.662 249.146 256.679 249.452Z" fill="#FBFAF1"/>
<path d="M190.859 186.495L193.666 171.5L214.55 170.152L212.081 189.824C203.146 193.392 193.751 189.623 190.859 186.495Z" fill="#FBFAF1"/>
<path d="M227.536 147.364C227.762 142.354 225.363 136.336 224.219 133.978L205.604 137.465L200.452 143L192.137 154.736L198.327 173.693L213.31 172.873C217.768 173.447 218.87 173.87 223.751 173.343C228.536 172.826 230.637 162.193 229.676 157.92C236.539 154.867 230.029 150.091 227.536 147.364Z" fill="#FBFAF1"/>
<path fill-rule="evenodd" clip-rule="evenodd" d="M201.937 153.798C202.536 154.102 203.084 154.513 203.51 154.913C203.633 155.028 203.639 155.221 203.524 155.344C203.408 155.467 203.215 155.473 203.092 155.358C202.701 154.991 202.2 154.615 201.661 154.343C201.12 154.069 200.561 153.909 200.046 153.941C199.543 153.973 199.059 154.189 198.644 154.714C198.22 155.249 197.859 156.119 197.655 157.47C197.63 157.636 197.475 157.751 197.308 157.726C197.141 157.701 197.027 157.545 197.052 157.379C197.264 155.972 197.651 154.986 198.165 154.336C198.687 153.675 199.331 153.375 200.007 153.332C200.67 153.29 201.34 153.496 201.937 153.798Z" fill="#197EA9"/>
<path fill-rule="evenodd" clip-rule="evenodd" d="M198.997 153.907C199.164 153.928 199.283 154.08 199.262 154.247C199.169 155.008 199.195 156.099 199.542 156.926C199.714 157.336 199.956 157.661 200.282 157.861C200.603 158.058 201.039 158.155 201.643 158.05C201.809 158.021 201.967 158.132 201.996 158.297C202.025 158.463 201.914 158.622 201.748 158.651C201.026 158.777 200.433 158.67 199.962 158.381C199.497 158.094 199.184 157.65 198.98 157.163C198.574 156.198 198.557 154.986 198.657 154.173C198.677 154.006 198.829 153.887 198.997 153.907Z" fill="#197EA9"/>
<path d="M149.328 228.9C153.697 211.419 168.847 189.959 177.264 185.9L185.194 182.664L185.194 205.811C175.142 223.73 176.46 230.508 173.622 234.121L170.234 234.121C163.488 234.121 156.83 232.577 150.772 229.608L149.328 228.9Z" fill="#135F7F"/>
<path d="M174.545 191.227C181.457 183.06 187.526 181.412 190.279 181.471C213.09 181.444 224.286 187.726 226.71 191.227C242.919 212.296 228.533 258.703 220.859 284.971L213.315 280.781C195.4 270.833 174.784 271.274 157.365 282.067L160.784 267.079L167.416 239.35C169.114 224.801 165.905 201.435 174.545 191.227Z" fill="#197EA9"/>
<path fill-rule="evenodd" clip-rule="evenodd" d="M233.754 227.241C232.24 246.149 226.117 267.033 221.656 282.25C221.383 283.179 221.117 284.086 220.859 284.971L213.315 280.781C208.176 277.927 202.709 275.935 197.115 274.8C214.537 261.487 228.37 235.769 228.213 218.785L233.754 227.241Z" fill="#166E94"/>
<path d="M219.89 122.073C208.825 116.731 199.262 122.474 195.696 126.927C175.847 137.337 188.344 157.834 197.074 166.781L201.899 162.096C193.604 160.569 194.431 155.023 197.74 152C201.048 148.977 204.829 153.492 208.506 155.1C211.447 156.385 208.725 148.093 206.996 143.786C210.701 143.492 211.704 140.26 211.499 138.424C217.162 140.755 218.173 138.031 219.497 136.361C224.523 140.047 233.721 128.751 219.89 122.073Z" fill="#0C3F54"/>
<path d="M224.498 149.106C224.455 149.9 223.898 150.526 223.253 150.505C222.609 150.483 222.122 149.822 222.165 149.028C222.209 148.235 222.766 147.608 223.41 147.63C224.055 147.651 224.542 148.312 224.498 149.106Z" fill="#197EA9"/>
<path d="M185.369 131.707C190.192 127.079 196.167 127.14 198.535 127.92L190.106 148.589L193.552 161.72L202.187 162.108C203.419 166.777 202.432 172.886 200.225 173.031C196.852 173.252 195.717 173.575 193.496 173.101C193.32 171.087 190.937 167.509 188.28 164.265C184.931 160.175 181.067 156.282 179.381 151.272C176.682 143.25 179.205 137.621 185.369 131.707Z" fill="#0C3F54"/>
<path d="M229.019 160.988C227.826 161.984 224.626 162.516 223.616 161.86C223.573 163.111 224.164 165.51 226.738 165.873C227.189 165.936 227.602 165.696 227.868 165.308C228.43 164.487 228.779 163.495 228.881 162.431L229.019 160.988Z" fill="#99D2EB"/>
<path d="M488.826 119.9C488.975 119.606 489.395 119.606 489.543 119.9L492.298 125.345C492.337 125.421 492.399 125.484 492.475 125.522L497.922 128.276C498.216 128.425 498.216 128.845 497.922 128.993L492.475 131.747C492.399 131.786 492.337 131.848 492.298 131.924L489.543 137.37C489.395 137.664 488.975 137.664 488.826 137.37L486.072 131.924C486.033 131.848 485.971 131.786 485.894 131.747L480.448 128.993C480.154 128.845 480.154 128.425 480.448 128.276L485.894 125.522C485.971 125.484 486.033 125.421 486.072 125.345L488.826 119.9Z" fill="#99D2EB"/>
<path d="M556.757 202.685C556.906 202.391 557.326 202.391 557.474 202.685L559.554 206.796C559.592 206.872 559.654 206.934 559.731 206.973L563.843 209.052C564.137 209.201 564.137 209.621 563.843 209.769L559.731 211.848C559.654 211.887 559.592 211.949 559.554 212.026L557.474 216.136C557.326 216.43 556.906 216.43 556.757 216.136L554.677 212.026C554.639 211.949 554.577 211.887 554.5 211.848L550.389 209.769C550.094 209.621 550.094 209.201 550.389 209.052L554.5 206.973C554.577 206.934 554.639 206.872 554.677 206.796L556.757 202.685Z" fill="#197EA9"/>
<path d="M321.812 111.461C321.961 111.167 322.381 111.167 322.529 111.461L325.756 117.84C325.795 117.916 325.857 117.978 325.934 118.017L332.314 121.243C332.608 121.392 332.608 121.812 332.314 121.961L325.934 125.187C325.857 125.226 325.795 125.288 325.756 125.364L322.529 131.743C322.381 132.037 321.961 132.037 321.812 131.743L318.585 125.364C318.546 125.288 318.484 125.226 318.408 125.187L312.027 121.961C311.733 121.812 311.733 121.392 312.027 121.243L318.408 118.017C318.484 117.978 318.546 117.916 318.585 117.84L321.812 111.461Z" fill="#EAF6FB"/>
<path d="M252.833 250.602C244.633 249.638 236.888 237.877 233.74 232.92L248.411 221.065C252.431 227.629 260.631 243.369 259.666 246.584C258.701 249.799 253.971 250.602 252.833 250.602Z" fill="#FBFAF1"/>
<path d="M212.838 205.392C210.891 199.985 213.898 194.972 217.197 191.576C219.798 188.898 223.807 188.129 227.182 189.725C241.368 196.435 249.174 216.595 251.024 225.486C248.21 235.733 241.578 236.537 235.749 237.542C229.519 229.705 215.732 213.429 212.838 205.392Z" fill="#197EA9"/>
<path fill-rule="evenodd" clip-rule="evenodd" d="M213.579 196.118C215.483 191.968 219.07 189.259 221.768 188.283L222.037 189.027C219.524 189.936 216.107 192.504 214.298 196.447C212.504 200.359 212.272 205.668 216.176 212.133L236.059 237.094L235.44 237.587L215.526 212.585L215.513 212.564C211.473 205.888 211.663 200.295 213.579 196.118Z" fill="#135F7F"/>
<path d="M270.181 174.073C270.102 174.314 269.937 174.519 269.718 174.647C269.498 174.775 269.24 174.819 268.99 174.769L262.524 173.366C262.407 173.343 262.296 173.295 262.199 173.225C262.101 173.156 262.02 173.066 261.96 172.963C261.9 172.86 261.862 172.745 261.85 172.626C261.838 172.507 261.851 172.387 261.889 172.273L262.187 171.313L270.475 173.112L270.181 174.073Z" fill="#1F9ED3"/>
<path d="M260.61 170.363L272.375 172.916C272.724 172.986 273.055 173.129 273.344 173.336C273.634 173.544 273.877 173.81 274.056 174.118C274.235 174.426 274.346 174.769 274.382 175.123C274.419 175.478 274.379 175.836 274.267 176.174L265.662 203.887C265.427 204.607 264.936 205.217 264.282 205.6C263.629 205.984 262.857 206.114 262.113 205.968L250.343 203.413C249.993 203.343 249.663 203.2 249.373 202.993C249.083 202.786 248.841 202.519 248.662 202.211C248.483 201.903 248.371 201.56 248.335 201.206C248.299 200.852 248.338 200.494 248.451 200.156L257.065 172.44C257.301 171.721 257.792 171.114 258.445 170.731C259.097 170.348 259.868 170.217 260.61 170.363Z" fill="#0C3F54"/>
<g opacity="0.4">
<path opacity="0.4" d="M270.181 174.073C270.102 174.314 269.937 174.519 269.718 174.647C269.499 174.775 269.24 174.819 268.99 174.769L262.524 173.366C262.407 173.343 262.296 173.295 262.199 173.225C262.101 173.156 262.02 173.066 261.96 172.963C261.9 172.86 261.862 172.745 261.85 172.626C261.838 172.507 261.851 172.387 261.889 172.273L262.187 171.313L270.475 173.112L270.181 174.073Z" fill="white"/>
</g>
<path d="M259.708 170.775L271.472 173.328C271.749 173.383 272.01 173.496 272.24 173.66C272.469 173.824 272.661 174.035 272.803 174.279C272.944 174.523 273.032 174.794 273.061 175.075C273.089 175.355 273.058 175.639 272.968 175.906L264.365 203.619C264.179 204.189 263.791 204.671 263.273 204.974C262.756 205.277 262.145 205.38 261.557 205.263L249.793 202.71C249.516 202.656 249.253 202.543 249.023 202.379C248.793 202.215 248.6 202.004 248.458 201.76C248.316 201.516 248.228 201.244 248.199 200.963C248.17 200.682 248.202 200.398 248.292 200.13L256.899 172.419C257.085 171.849 257.474 171.367 257.991 171.064C258.509 170.761 259.119 170.658 259.708 170.775Z" fill="#99D2EB"/>
<path d="M259.878 170.225L271.642 172.778C271.992 172.848 272.322 172.991 272.612 173.199C272.902 173.406 273.144 173.672 273.323 173.98C273.502 174.289 273.614 174.631 273.65 174.985C273.686 175.34 273.647 175.698 273.534 176.036L264.932 203.742C264.696 204.462 264.205 205.07 263.552 205.453C262.898 205.836 262.127 205.966 261.383 205.819L249.619 203.266C249.27 203.196 248.939 203.053 248.649 202.846C248.359 202.638 248.117 202.372 247.938 202.064C247.759 201.756 247.648 201.413 247.612 201.059C247.576 200.704 247.615 200.346 247.728 200.008L256.332 172.296C256.568 171.577 257.06 170.97 257.713 170.589C258.366 170.208 259.136 170.078 259.878 170.225ZM248.291 200.13C248.202 200.398 248.17 200.681 248.199 200.962C248.227 201.243 248.315 201.514 248.457 201.758C248.598 202.002 248.791 202.213 249.02 202.377C249.25 202.541 249.512 202.654 249.789 202.709L261.553 205.262C262.141 205.379 262.752 205.276 263.269 204.973C263.786 204.67 264.175 204.188 264.36 203.618L272.968 175.906C273.057 175.639 273.089 175.355 273.06 175.075C273.032 174.794 272.944 174.523 272.803 174.279C272.661 174.035 272.469 173.824 272.24 173.66C272.01 173.496 271.748 173.383 271.472 173.328L259.707 170.775C259.119 170.658 258.508 170.761 257.991 171.064C257.473 171.367 257.085 171.849 256.899 172.419L248.291 200.13Z" fill="#135F7F"/>
<path d="M269.748 172.969C269.62 173.36 269.354 173.691 268.998 173.899C268.643 174.108 268.224 174.178 267.82 174.098L262.485 172.94C262.295 172.902 262.115 172.825 261.957 172.712C261.8 172.599 261.668 172.454 261.571 172.287C261.474 172.119 261.413 171.933 261.394 171.74C261.374 171.548 261.396 171.353 261.457 171.169L269.748 172.969Z" fill="#135F7F"/>
<path d="M267.057 194.3C269.308 197.355 269.47 201.468 269.269 203.143L269.269 206.359L264.445 206.358L264.445 200.53C264.444 197.917 261.63 196.711 261.228 194.3C260.826 191.888 264.243 190.481 267.057 194.3Z" fill="#FBFAF1"/>
<path d="M164.804 350.266C153.549 301.56 155.425 283.891 157.769 281.145C177.706 268.124 206.272 273.576 218.063 279.336L246.103 301.409C250.256 304.678 251.894 310.21 250.191 315.212L225.001 391.257C217.018 399.363 208.081 394.07 205.803 391.257C198.568 359.911 210.158 327.293 216.857 314.902L188.161 306.285L192.74 352.276L167.765 426.184C164.871 413.646 154.621 405.992 148.926 407.734C148.283 385.551 160.382 360.715 164.804 350.266Z" fill="#917F50"/>
<path opacity="0.4" fill-rule="evenodd" clip-rule="evenodd" d="M203.551 373.258C202.837 348.478 211.223 325.51 216.649 315.29C216.85 315.158 217.053 315.029 217.259 314.902L234.342 319.724C228.179 334.325 213.44 365.658 203.793 374.178C203.712 373.878 203.631 373.572 203.551 373.258Z" fill="#605436"/>
<path opacity="0.6" fill-rule="evenodd" clip-rule="evenodd" d="M179.442 291.024C178.707 284.508 179.31 277.632 179.916 273.184L181.509 273.401C180.91 277.794 180.327 284.52 181.039 290.844C181.758 297.219 183.763 302.917 188.091 305.603L187.243 306.968C182.245 303.867 180.17 297.489 179.442 291.024Z" fill="#605436"/>
<path fill-rule="evenodd" clip-rule="evenodd" d="M214.385 465.884H112.006V489.756H112.33C115.204 500.134 136.881 508.201 163.196 508.201C189.51 508.201 211.188 500.134 214.062 489.756H214.385V487.424C214.385 487.418 214.385 487.411 214.385 487.405C214.385 487.398 214.385 487.391 214.385 487.385V465.884Z" fill="#C1A96B"/>
<path opacity="0.5" fill-rule="evenodd" clip-rule="evenodd" d="M209.32 496.435V471.31H205.703V498.996C207.051 498.182 208.262 497.326 209.32 496.435ZM197.021 503.015V471.31H193.403V504.196C194.653 503.824 195.86 503.43 197.021 503.015ZM184.721 506.279V471.31H181.103V506.893C182.332 506.707 183.538 506.502 184.721 506.279ZM172.421 507.865V471.31H168.803V508.078C170.022 508.024 171.229 507.953 172.421 507.865ZM160.121 508.165V471.31H156.503V508.025C157.696 508.089 158.903 508.135 160.121 508.165ZM147.821 507.247V471.31H144.203V506.723C145.388 506.915 146.594 507.09 147.821 507.247ZM135.521 504.903V471.31H131.903V503.864C133.07 504.231 134.277 504.578 135.521 504.903ZM123.221 500.396V471.31H119.603V498.312C120.705 499.038 121.914 499.733 123.221 500.396Z" fill="#F1D386"/>
<path d="M214.385 467.512C214.385 478.998 191.467 488.309 163.196 488.309C134.924 488.309 112.006 478.998 112.006 467.512C112.006 456.026 134.924 446.715 163.196 446.715C191.467 446.715 214.385 456.026 214.385 467.512Z" fill="#F1D386"/>
<path d="M203.532 466.065C203.532 474.355 185.473 481.075 163.196 481.075C140.918 481.075 122.859 474.355 122.859 466.065C122.859 457.776 140.918 451.055 163.196 451.055C185.473 451.055 203.532 457.776 203.532 466.065Z" fill="#F7E5B6"/>
<path d="M252.329 399.162C253.101 399.081 253.297 401.987 253.143 403.001C252.989 404.014 250.226 407.643 244.794 409.404C239.363 411.166 230.746 410.877 227.444 411.028C224.142 411.18 221.164 413.183 216.558 414.338C212.52 415.325 206.874 414.833 204.744 413.127C204.348 412.72 204.043 412.235 203.849 411.702C203.655 411.17 203.576 410.602 203.617 410.036C203.392 407.892 203.574 407.352 203.834 407.347L252.329 399.162Z" fill="#135F7F"/>
<path d="M202.99 400.902C202.864 403.069 203.322 406.656 203.894 408.75C204.452 409.462 205.146 410.055 205.937 410.493C206.728 410.932 207.599 411.207 208.499 411.302C212.267 411.959 216.145 411.553 219.695 410.128C222.425 409.134 225.278 408.514 228.175 408.285C232.035 408.281 235.89 408.007 239.712 407.466C242.578 406.982 245.349 406.048 247.922 404.697C249.026 404.229 250.011 403.518 250.802 402.616C251.594 401.715 252.172 400.647 252.493 399.492C252.476 397.91 251.979 396.371 251.07 395.077C250.16 393.783 248.879 392.795 247.396 392.243C244.564 391.372 239.699 393.135 236.754 393.467C234.129 393.735 226.773 392.993 225.298 390.252C219.162 397.698 209.823 394.271 205.401 390.252C205.62 393.059 203.516 398.137 202.99 400.902Z" fill="#197EA9"/>
<path d="M149.681 407.332C147.404 409.549 144.744 411.335 141.83 412.603C139.824 413.72 137.761 414.809 137.045 417.072C137.045 417.33 138.077 418.848 138.019 419.106C137.89 420.229 137.89 421.363 138.019 422.486C138.191 426.439 140.082 429.447 140.283 433.4C140.324 434.959 140.496 436.511 140.799 438.041C140.978 439.946 140.978 441.864 140.799 443.77C140.799 445.718 140.799 447.666 140.799 449.499C140.899 450.327 140.899 451.164 140.799 451.991C140.569 452.793 152.861 460.327 157.847 463.249L158.735 463.707C161.803 464.802 165.173 464.689 168.162 463.392C178.62 460.241 178.219 456.345 178.219 456.345C178.273 454.77 177.893 453.209 177.12 451.835C176.347 450.46 175.21 449.325 173.835 448.554C173.236 448.146 172.603 447.792 171.944 447.494C169.465 446.346 166.689 446.005 164.007 446.52C163.598 444.911 163.472 443.244 163.634 441.593C163.577 439.086 163.692 436.578 163.978 434.087C164.601 431.308 165.823 428.697 167.56 426.439C167.56 421.06 163.634 407.332 149.681 407.332Z" fill="#197EA9"/>
<path d="M135.67 419.249C133.32 420.108 135.298 426.697 136.644 432.913C137.991 439.129 138.678 441.306 137.819 446.434C136.959 451.561 136.472 453.853 138.507 455.801C144.455 459.487 150.584 462.872 156.873 465.942C154.768 459.691 153.675 453.144 153.635 446.548C153.492 435.09 152.89 427.757 147.905 422.457C146.327 420.895 144.366 419.775 142.218 419.212C140.07 418.649 137.811 418.662 135.67 419.249Z" fill="#135F7F"/>
<path d="M178.133 456.374C177.732 458.551 171.371 462.647 164.208 462.103C157.045 461.559 156.5 459.897 155.956 451.046C155.411 442.194 155.383 430.02 152.059 424.548C148.735 419.077 144.151 415.668 137.045 417.1C136.214 417.444 133.893 419.564 134.581 421.712C134.581 421.712 134.581 420.051 137.59 419.392C140.598 418.733 143.033 419.077 146.902 423.059C151.429 427.699 151.887 437.869 151.887 446.606C151.887 455.343 152.03 465.455 158.878 466.658C162.219 467.106 165.615 466.869 168.861 465.963C172.107 465.057 175.135 463.5 177.76 461.387C178.273 459.768 178.4 458.051 178.133 456.374Z" fill="#135F7F"/>
<path d="M455.825 529.354C451.597 523.801 468.563 510.539 477.719 501.905L485.779 499.413C494.992 498.639 493.507 507.367 491.798 513.425C461.056 538.795 458.999 533.524 455.825 529.354Z" fill="#197EA9"/>
<path d="M549.904 510.601C552.798 508.833 556.201 502.095 557.541 498.947L558.948 480.059C560.288 478.384 563.812 474.875 567.188 474.232C571.409 473.428 576.384 479.999 575.629 483.676C574.021 491.512 574.825 491.512 575.629 496.335C578.687 514.677 569.198 520.045 569.198 520.849C546.487 529.891 546.286 512.811 549.904 510.601Z" fill="#197EA9"/>
<path d="M477.135 502.156L469.777 481.803L487.88 474.031L490.237 502.063C489.387 507.296 484.483 512.024 483.085 512.948C474.259 518.782 470.573 518.454 468.996 516.399C468.069 515.191 468.591 513.511 469.506 512.295L477.135 502.156Z" fill="#FBFAF1"/>
<path d="M555.934 482.671L544.277 465.19L558.546 454.942L567.791 476.04C570.136 483.475 573.901 499.871 570.203 505.98C565.581 513.615 552.718 512.409 555.934 505.98C558.506 500.836 557.005 488.297 555.934 482.671Z" fill="#FBFAF1"/>
<path d="M452.831 425.204C447.686 403.985 447.203 358.895 447.605 339.002L508.502 334.18C522.992 349.739 526.051 399.199 532.218 419.778C549.301 429.423 558.01 447.976 560.154 455.545C559.993 469.208 548.832 468.405 542.669 467.601L512.321 427.816L480.968 374.568L477.149 431.433C487.279 446.704 489.945 469.141 490.012 478.451C481.491 489.543 471.187 486.958 467.1 484.279L452.831 425.204Z" fill="#0C3F54"/>
<path d="M446.521 235.134L464.488 228.689C465.157 227.484 469.311 226.077 478.958 227.684C486.969 229.019 500.569 237.374 509.517 243.775C512.418 245.85 513.41 249.644 512.175 252.99C508.033 264.211 502.538 281.402 502.674 288.568C502.834 297.088 508.368 324.267 511.115 336.792C481.209 359.94 454.439 349.25 444.792 341.012C447.846 336.511 444.859 301.495 442.983 284.549L426.301 283.143L435.897 246.722C437.313 241.345 441.287 237.011 446.521 235.134Z" fill="#197EA9"/>
<path opacity="0.5" fill-rule="evenodd" clip-rule="evenodd" d="M505.073 275.411C503.6 280.748 502.616 285.524 502.674 288.568C502.835 297.087 508.368 324.267 511.115 336.792C493.391 350.511 476.768 352.344 464.159 349.847C474.337 334.393 490.59 307.587 490.849 298.331C491.132 288.208 495.096 264.429 497.043 253.806C499.665 256.1 502.424 264.337 505.073 275.411Z" fill="#135F7F"/>
<path d="M457.654 232.105L462.478 228.89L480.566 227.684L489.409 231.703C486.729 235.253 479.521 242.955 471.321 243.759C463.121 244.563 458.793 236.324 457.654 232.105Z" fill="#FBFAF1"/>
<path d="M468.909 168.408C459.101 165.675 451.625 174.503 449.816 178.455L478.757 216.231C479.896 217.236 485.228 217.98 491.017 208.395C497.448 197.745 497.569 185.166 492.424 176.647C487.279 168.127 474.604 166.868 468.909 168.408Z" fill="#917F50"/>
<path d="M522.164 216.152C511.136 207.975 512.758 198.603 512.213 191.609C511.379 180.913 501.453 164.211 487.29 174.868C486.468 182.674 491.702 185.587 494.421 186.068C501.086 193.085 495.048 202.949 498.851 218.047C502.654 233.146 506.681 233.402 509.908 232.807C512.49 232.331 512.773 230.37 512.592 229.45C513.307 230.232 515.325 231.591 517.679 230.764C520.033 229.937 519.605 227.648 519.097 226.607C522.79 230.193 533.192 224.329 522.164 216.152Z" fill="#917F50"/>
<path fill-rule="evenodd" clip-rule="evenodd" d="M493.78 179.51C492.885 177.067 491.559 175.074 489.835 173.894L490.743 172.567C492.838 174 494.326 176.327 495.29 178.957C496.256 181.596 496.721 184.605 496.721 187.497L495.113 187.497C495.113 184.764 494.672 181.946 493.78 179.51Z" fill="#1F9ED3"/>
<path d="M461.316 215.936L481.244 214.435L482.132 229.427L478.892 232.418C473.636 237.272 465.305 236.377 461.2 230.518Lnan nanL461.2 230.518L461.316 215.936Z" fill="#FBFAF1"/>
<path fill-rule="evenodd" clip-rule="evenodd" d="M461.242 225.254L461.278 220.773L461.359 220.351L481.209 216.185L481.398 217.02L481.569 219.919C470.963 234.431 464.4 229.038 461.242 225.254Z" fill="#EFEDD8"/>
<path d="M463.544 224.258C448.559 220.206 447.853 197.471 449.373 186.61C455.867 177.893 486.193 174.478 486.193 196.137C486.193 203.132 486.408 210.755 484.403 214.593C477.79 225.667 467.741 225.65 463.544 224.258Z" fill="#FBFAF1"/>
<path d="M492.962 199.245C489.649 195.005 486.457 197.667 485.419 199.409C486.107 202.81 484.995 210.502 484.353 213.923C490.112 213.354 495.948 203.067 492.962 199.245Z" fill="#FBFAF1"/>
<path fill-rule="evenodd" clip-rule="evenodd" d="M458.344 210.555L460.73 202.82L461.305 202.997L458.919 210.732C458.802 211.111 458.792 211.524 458.896 211.856C458.997 212.181 459.199 212.41 459.51 212.495C459.845 212.588 460.15 212.553 460.406 212.315C460.559 212.173 460.765 212.13 460.935 212.137C461.105 212.145 461.303 212.207 461.443 212.355C461.554 212.471 461.697 212.568 461.879 212.614C462.06 212.658 462.299 212.657 462.61 212.542C462.766 212.485 462.939 212.565 462.996 212.721C463.054 212.876 462.974 213.049 462.818 213.107C462.41 213.257 462.047 213.275 461.735 213.197C461.423 213.12 461.182 212.954 461.006 212.768C461.006 212.768 460.998 212.761 460.979 212.753C460.96 212.745 460.935 212.74 460.907 212.738C460.88 212.737 460.856 212.74 460.838 212.746C460.822 212.751 460.816 212.756 460.816 212.756C460.816 212.756 460.816 212.756 460.816 212.755C460.366 213.175 459.825 213.206 459.35 213.076C458.799 212.924 458.47 212.51 458.321 212.036C458.176 211.569 458.197 211.03 458.344 210.555Z" fill="#044C6A"/>
<path d="M454.778 203.692C454.463 204.46 453.585 204.829 452.816 204.514C452.047 204.199 451.679 203.321 451.994 202.552C452.308 201.784 453.187 201.416 453.956 201.73C454.725 202.045 455.093 202.923 454.778 203.692Z" fill="#198AB9"/>
<path d="M470.857 203.692C470.542 204.46 469.664 204.829 468.895 204.514C468.126 204.199 467.758 203.321 468.072 202.552C468.387 201.784 469.265 201.416 470.034 201.73C470.803 202.045 471.171 202.923 470.857 203.692Z" fill="#198AB9"/>
<path fill-rule="evenodd" clip-rule="evenodd" d="M469.298 218.073C467.717 218.234 466.254 217.905 465.379 217.547L465.607 216.991C466.402 217.316 467.766 217.624 469.238 217.474C470.702 217.325 472.262 216.725 473.488 215.243L473.951 215.627C472.605 217.253 470.887 217.911 469.298 218.073Z" fill="#044C6A"/>
<path fill-rule="evenodd" clip-rule="evenodd" d="M489.315 200.786C488.566 200.662 487.783 200.981 487.285 201.333L486.938 200.842C487.508 200.438 488.451 200.033 489.413 200.192C490.411 200.357 491.33 201.11 491.855 202.822L491.279 202.999C490.802 201.439 490.027 200.904 489.315 200.786Z" fill="#044C6A"/>
<path fill-rule="evenodd" clip-rule="evenodd" d="M489.296 202.986C489.558 201.929 489.559 201.236 489.5 200.944L490.09 200.825C490.174 201.242 490.152 202.035 489.88 203.131C489.605 204.237 489.071 205.673 488.107 207.384L487.583 207.089C488.523 205.42 489.035 204.034 489.296 202.986Z" fill="#044C6A"/>
<path d="M450.62 188.1C454.043 181.567 460.066 181.871 463.483 183.478C470.115 180.665 479.159 182.675 479.762 192.32C480.269 200.42 484.586 205.38 486.596 206.586C485.189 197.142 488.605 188.1 485.189 180.665C481.126 171.824 468.708 172.427 463.483 173.633C435.346 172.628 449.012 204.93 449.012 199.955C449.012 196.137 448.41 192.32 450.62 188.1Z" fill="#917F50"/>
<path d="M487.048 298.28C482.17 297.938 478.377 292.043 477.09 289.138L473.68 291.482L476.752 310.97L486.052 315.33C491.006 313.081 488.78 303.026 487.048 298.28Z" fill="#EFEDD8"/>
<path d="M494.836 268.069C489.851 252.959 496.108 244.627 499.458 242.149C519.444 237.153 525.064 280.339 526.297 301.525C526.598 306.708 525.175 311.915 521.355 315.431C519.17 317.443 516.59 319.384 513.929 320.714C508.462 323.447 490.414 319.576 481.37 317.298C489.007 309.462 488.002 300.621 484.787 297.205H505.085C504.148 293.789 499.82 283.179 494.836 268.069Z" fill="#197EA9"/>
<path fill-rule="evenodd" clip-rule="evenodd" d="M467.851 332.647C482.116 324.876 485.14 302.333 474.559 282.03C463.978 261.727 443.766 251.288 429.222 258.524L429.22 258.52L413.892 266.505L417.302 273.049C413.896 283.326 415.204 296.854 421.801 309.512C428.397 322.17 438.737 330.994 449.113 334.091L452.524 340.635L467.44 332.865C467.459 332.856 467.478 332.846 467.496 332.836C467.515 332.827 467.533 332.817 467.552 332.807L467.852 332.651L467.851 332.647Z" fill="#C1A96B"/>
<path opacity="0.5" fill-rule="evenodd" clip-rule="evenodd" d="M439.286 256.23L422.588 264.928L424.052 267.737L444.939 256.857C443.039 256.447 441.147 256.234 439.286 256.23ZM454.402 260.5L427.566 274.48L429.03 277.289L457.544 262.435C456.51 261.734 455.461 261.089 454.402 260.5ZM463.952 267.67L432.544 284.031L434.008 286.84L466.249 270.045C465.501 269.22 464.734 268.428 463.952 267.67ZM471.032 276.126L437.521 293.582L438.986 296.392L472.748 278.804C472.196 277.888 471.623 276.995 471.032 276.126ZM476.25 285.553L442.499 303.134L443.963 305.943L477.452 288.499C477.082 287.515 476.681 286.532 476.25 285.553ZM479.669 295.916L447.477 312.685L448.941 315.495L480.287 299.166C480.118 298.089 479.912 297.004 479.669 295.916ZM480.868 307.436L452.454 322.237L453.918 325.046L480.632 311.131C480.764 309.923 480.843 308.69 480.868 307.436ZM478.093 321.025L457.432 331.788L458.896 334.597L475.233 326.087C476.349 324.545 477.304 322.849 478.093 321.025Z" fill="#F1D386"/>
<path d="M459.587 289.829C470.255 310.299 467.093 333.046 452.524 340.635C437.955 348.224 417.497 337.782 406.829 317.311C396.161 296.841 399.323 274.094 413.892 266.505C428.461 258.916 448.919 269.358 459.587 289.829Z" fill="#F1D386"/>
<path d="M453.17 293.171C461.787 309.705 459.276 328.055 447.561 334.157C435.847 340.259 419.366 331.803 410.75 315.269C402.133 298.735 404.644 280.385 416.358 274.283C428.072 268.181 444.554 276.637 453.17 293.171Z" fill="#F7E5B6"/>
<path d="M469.839 291.572C469.949 289.933 471.367 288.694 473.006 288.805L479.253 289.225C480.892 289.336 482.131 290.753 482.021 292.392C481.911 294.03 480.493 295.269 478.854 295.159L472.606 294.738C470.968 294.628 469.728 293.21 469.839 291.572Z" fill="#FBFAF1"/>
<path d="M470.964 297.296C471.075 295.658 472.493 294.419 474.132 294.529L480.379 294.95C482.018 295.06 483.257 296.478 483.147 298.116C483.036 299.755 481.618 300.994 479.979 300.883L473.732 300.463C472.093 300.353 470.854 298.935 470.964 297.296Z" fill="#FBFAF1"/>
<path d="M474.272 304.071C474.382 302.432 475.8 301.194 477.439 301.304L480.692 301.523C482.331 301.633 483.57 303.051 483.46 304.689C483.349 306.328 481.931 307.567 480.292 307.457L477.04 307.238C475.401 307.127 474.162 305.71 474.272 304.071Z" fill="#FBFAF1"/>
<path d="M472.843 286.028C472.953 284.39 474.371 283.151 476.01 283.261L479.263 283.48C480.902 283.59 482.141 285.008 482.031 286.647C481.92 288.285 480.502 289.524 478.863 289.414L475.61 289.195C473.972 289.084 472.732 287.667 472.843 286.028Z" fill="#FBFAF1"/>
<g opacity="0.6">
<path d="M423.124 317.866L414.828 301.83L421.156 298.558C422.367 297.931 423.513 297.613 424.593 297.604C425.676 297.586 426.646 297.856 427.503 298.412C428.362 298.96 429.066 299.764 429.614 300.823C430.165 301.888 430.41 302.923 430.347 303.928C430.282 304.928 429.919 305.857 429.257 306.715C428.601 307.57 427.657 308.316 426.425 308.954L422.188 311.145L420.778 308.42L424.467 306.512C425.114 306.177 425.606 305.811 425.943 305.412C426.279 305.013 426.46 304.582 426.485 304.119C426.515 303.653 426.394 303.157 426.121 302.63C425.846 302.097 425.507 301.704 425.103 301.449C424.706 301.191 424.241 301.081 423.711 301.117C423.183 301.145 422.592 301.328 421.94 301.666L419.653 302.848L426.515 316.113L423.124 317.866ZM428.01 306.089L435.772 311.325L432.029 313.261L424.353 307.981L428.01 306.089Z" fill="#C1A96B"/>
<path d="M439.868 314.924L431.312 298.387L434.602 296.686L435.647 298.706L435.796 298.629C435.774 298.23 435.816 297.792 435.92 297.314C436.026 296.829 436.246 296.358 436.578 295.902C436.914 295.437 437.418 295.031 438.092 294.682C438.969 294.229 439.897 294.04 440.876 294.116C441.853 294.187 442.8 294.567 443.72 295.256C444.636 295.94 445.451 296.971 446.164 298.349C446.858 299.691 447.227 300.935 447.272 302.084C447.319 303.224 447.095 304.223 446.599 305.081C446.106 305.932 445.402 306.593 444.489 307.066C443.841 307.401 443.235 307.579 442.67 307.599C442.11 307.618 441.603 307.539 441.149 307.364C440.691 307.184 440.3 306.966 439.976 306.71L439.874 306.762L443.204 313.199L439.868 314.924ZM437.689 302.712C438.059 303.427 438.481 303.999 438.955 304.429C439.429 304.859 439.931 305.125 440.461 305.229C440.988 305.326 441.52 305.236 442.058 304.958C442.601 304.677 442.984 304.291 443.206 303.799C443.425 303.302 443.493 302.737 443.411 302.105C443.331 301.465 443.111 300.795 442.749 300.095C442.389 299.401 441.977 298.84 441.511 298.413C441.045 297.986 440.547 297.72 440.017 297.617C439.487 297.514 438.948 297.604 438.4 297.888C437.857 298.169 437.472 298.55 437.244 299.031C437.022 299.51 436.948 300.064 437.023 300.694C437.097 301.324 437.319 301.996 437.689 302.712Z" fill="#C1A96B"/>
</g>
<path fill-rule="evenodd" clip-rule="evenodd" d="M538.626 82.1C538.626 82.2713 538.487 82.4102 538.315 82.4102H494.588C494.535 82.4102 494.483 82.4238 494.437 82.4496L473.939 93.9044C473.697 94.0399 473.412 93.8129 473.49 93.5463L476.64 82.8077C476.699 82.6091 476.55 82.4102 476.343 82.4102H458.343C458.172 82.4102 458.033 82.2713 458.033 82.1V28.2764C458.033 28.105 458.172 27.9662 458.343 27.9662H538.315C538.487 27.9662 538.626 28.105 538.626 28.2764V82.1Z" fill="#99D2EB"/>
<g clip-path="url(#clip0_160_8511)">
<path d="M475.154 64.6416H478.423C479.747 64.6416 480.409 64.0748 480.409 62.9571C480.409 61.8675 479.747 61.3298 478.423 61.3439H475.154V64.6416ZM478.398 54.8753H475.154V57.7819H478.398C478.624 57.7819 478.924 57.8387 479.483 57.3578C479.746 57.1174 479.892 56.7778 479.892 56.3246C479.892 55.4328 479.273 54.9519 478.765 54.9096L478.398 54.8753ZM471.297 68.152V51.3728H478.423C478.578 51.3728 478.761 51.386 479 51.4005C479.428 51.454 479.851 51.5343 480.268 51.641C480.837 51.7736 481.386 51.9797 481.902 52.254C482.419 52.5712 482.857 53.0016 483.185 53.5131C483.577 54.1238 483.778 54.8384 483.762 55.5649C483.747 57.4476 482.944 58.4809 482.226 58.934C481.72 59.3013 481.424 59.4004 481.325 59.4004C481.573 59.4718 481.813 59.567 482.043 59.6844C482.382 59.8694 482.712 60.0723 483.029 60.2922C483.917 60.8735 484.476 61.9344 484.476 63.2504C484.476 66.5208 482.222 68.1534 477.714 68.1481L471.297 68.152Z" fill="white"/>
<path d="M501.816 55.8662H497.957V68.1521H501.816V55.8662Z" fill="white"/>
<path d="M487.238 42.4336V53.2899H491.098V46.3113H515.499V53.2899H519.358V42.4336H487.238Z" fill="#3AACE2"/>
<path d="M509.027 55.8662H505.168V68.1521H509.027V55.8662Z" fill="white"/>
<path d="M519.45 55.8662L517.421 58.8812L515.408 55.8662H511.224L515.352 61.9808L511.224 68.1521H515.408L517.421 65.1371L519.45 68.1521H523.635L519.562 61.9808L523.635 55.8662H519.45Z" fill="white"/>
<path d="M497.69 51.0823C497.688 50.7936 497.746 50.5077 497.859 50.2423C497.972 49.9769 498.138 49.7375 498.347 49.5391C498.545 49.3306 498.783 49.1653 499.048 49.0534C499.312 48.9416 499.596 48.8857 499.883 48.8891C500.172 48.8855 500.458 48.9414 500.724 49.0532C500.991 49.165 501.231 49.3304 501.432 49.5391C501.637 49.7412 501.8 49.9824 501.911 50.2486C502.023 50.5149 502.08 50.8007 502.08 51.0895C502.08 51.3783 502.023 51.6642 501.911 51.9304C501.8 52.1966 501.637 52.4378 501.432 52.64C501.231 52.8487 500.991 53.014 500.724 53.1258C500.458 53.2376 500.172 53.2935 499.883 53.29C499.596 53.2934 499.312 53.2374 499.048 53.1256C498.783 53.0137 498.545 52.8484 498.347 52.64C498.137 52.4394 497.97 52.1977 497.857 51.9297C497.744 51.6618 497.687 51.3733 497.69 51.0823Z" fill="#3AACE2"/>
<path d="M504.901 51.0823C504.899 50.7936 504.957 50.5077 505.07 50.2423C505.183 49.9769 505.349 49.7375 505.558 49.5391C505.756 49.3306 505.994 49.1653 506.259 49.0534C506.523 48.9416 506.807 48.8857 507.094 48.8891C507.382 48.8857 507.668 48.9417 507.935 49.0535C508.201 49.1653 508.441 49.3305 508.642 49.5391C508.847 49.7412 509.01 49.9824 509.121 50.2486C509.233 50.5149 509.29 50.8007 509.29 51.0895C509.29 51.3783 509.233 51.6642 509.121 51.9304C509.01 52.1966 508.847 52.4378 508.642 52.64C508.441 52.8487 508.2 53.014 507.934 53.1258C507.668 53.2376 507.381 53.2935 507.093 53.29C506.806 53.2934 506.522 53.2374 506.257 53.1256C505.993 53.0137 505.755 52.8484 505.557 52.64C505.347 52.4394 505.18 52.1977 505.067 51.9297C504.954 51.6618 504.897 51.3733 504.899 51.0823" fill="#3AACE2"/>
<path d="M491.098 57.8335V55.8663H487.238V68.1534H491.098V63.088C491.098 61.3426 491.772 58.6791 495.662 59.4044V55.8094C491.454 55.2453 491.098 57.8335 491.098 57.8335Z" fill="white"/>
</g>
<path fill-rule="evenodd" clip-rule="evenodd" d="M203.353 306.026C190.934 303.698 184.125 308.633 182.339 311.162L181.127 310.307C183.298 307.233 190.728 302.15 203.626 304.568L203.353 306.026Z" fill="#746540"/>
<path fill-rule="evenodd" clip-rule="evenodd" d="M254.553 233.558C253.17 230.748 251.639 227.76 250.651 225.866L251.265 225.546C252.254 227.443 253.789 230.436 255.175 233.253C256.555 236.059 257.804 238.719 258.209 239.933L257.552 240.152C257.165 238.993 255.942 236.38 254.553 233.558Z" fill="#1F9ED3"/>
<defs>
<linearGradient id="paint0_linear_160_8511" x1="144.468" y1="59.376" x2="144.468" y2="213.292" gradientUnits="userSpaceOnUse">
<stop stop-color="white"/>
<stop offset="1" stop-color="#F3F3F3" stop-opacity="0"/>
</linearGradient>
<clipPath id="clip0_160_8511">
<rect width="52.6566" height="25.7197" fill="white" transform="translate(471.297 42.4336)"/>
</clipPath>
</defs>
</svg>
