<svg width="48" height="49" viewBox="0 0 48 49" fill="none" xmlns="http://www.w3.org/2000/svg">
<path d="M13.7507 27.5827C15.8261 27.5827 17.5085 25.9002 17.5085 23.8249C17.5085 21.7495 15.8261 20.0671 13.7507 20.0671C11.6753 20.0671 9.99292 21.7495 9.99292 23.8249C9.99292 25.9002 11.6753 27.5827 13.7507 27.5827Z" fill="#1F9ED3"/>
<path d="M40.5703 23.6765C40.5907 21.6613 40.0676 19.4147 38.9449 17.316C37.5672 14.7405 35.5587 12.8027 32.9627 11.4773C30.7407 10.3644 28.2611 9.86746 25.7818 10.0382C24.2116 10.1526 22.6723 10.5333 21.2298 11.164C20.0405 11.6812 18.9326 12.3686 17.9409 13.2045C17.664 13.4382 17.3738 13.6267 16.9943 13.5769C16.5663 13.5205 16.2756 13.2769 16.1551 12.8658C16.032 12.4458 16.1485 12.0805 16.4863 11.7991C17.2575 11.1426 18.0878 10.5589 18.9667 10.0556C20.5955 9.13415 22.375 8.5092 24.2223 8.20979C25.6091 7.97676 27.0212 7.93399 28.4196 8.08268C31.5894 8.43023 34.4196 9.60223 36.8676 11.6542C39.6741 14.0071 41.4617 16.9787 42.2303 20.5689C42.5302 21.9485 42.6391 23.3628 42.5538 24.772C42.3636 27.7405 41.4267 30.4556 39.7045 32.8853C37.5894 35.868 34.7787 37.904 31.2743 38.9609C29.3902 39.5337 27.4138 39.7402 25.452 39.5693C23.0282 39.3633 20.6842 38.603 18.6009 37.3471C17.7051 36.8067 16.8655 36.1781 16.0947 35.4707C15.7067 35.1178 15.6756 34.5231 16.012 34.108C16.3351 33.708 16.932 33.616 17.3485 33.924C17.6778 34.1676 17.9778 34.4502 18.3014 34.7027C20.0231 36.0445 21.9534 36.952 24.0978 37.3516C27.9258 38.0627 31.4827 37.3547 34.6823 35.1205C37.4143 33.2111 39.2 30.6031 40.0911 27.3889C40.3951 26.2929 40.5423 25.1738 40.5703 23.6765Z" fill="#1F9ED3"/>
<path d="M35.9058 22.8956C35.912 22.6351 35.844 22.5805 35.5915 22.5773C30.5044 22.5098 25.4173 22.4357 20.3302 22.3551C19.8635 22.3485 19.8635 22.3485 19.7524 21.8805C18.6933 17.4929 13.8489 15.1507 9.74798 17.0427C6.68221 18.4578 5.02221 21.7178 5.71821 25.0738C6.50532 28.8693 10.0889 31.3445 13.8782 30.6902C16.9551 30.1569 18.94 28.3009 19.7622 25.2596C19.8151 25.0645 19.9009 25.0222 20.088 25.0262C21.2044 25.0516 22.3213 25.0636 23.4378 25.0805C24.5635 25.0969 25.6889 25.1191 26.8155 25.1249C27.0169 25.1249 27.0667 25.1809 27.0613 25.3796C27.0364 26.3364 27.0244 27.2938 27.0169 28.2507C27.0133 28.6573 27.2151 28.8676 27.5795 28.8653C27.9173 28.8627 28.1129 28.6431 28.1209 28.2533C28.136 27.3053 28.1555 26.3569 28.1582 25.4089C28.1582 25.2 28.2138 25.1422 28.4249 25.1489C29.9227 25.1806 31.4204 25.2027 32.9182 25.2151C33.1404 25.2151 33.1751 25.2911 33.1693 25.4876C33.148 26.1787 33.1409 26.8698 33.1351 27.5613C33.1302 28.1805 33.4564 28.6942 33.9675 28.8898C34.8987 29.2453 35.8111 28.6071 35.8302 27.5742C35.8564 26.0151 35.8667 24.4556 35.9058 22.8956ZM12.7244 27.1013C12.2619 27.0954 11.805 26.9983 11.3801 26.8156C10.9551 26.6329 10.5702 26.3683 10.2476 26.0368C9.92499 25.7053 9.67087 25.3134 9.4998 24.8836C9.32873 24.4538 9.24407 23.9945 9.25065 23.532C9.26621 21.6333 10.88 20.0507 12.7844 20.0653C14.724 20.0822 16.3129 21.6987 16.2787 23.6209C16.2435 25.5889 14.6715 27.128 12.7244 27.1013Z" fill="black"/>
<path d="M42.4671 21.1058C41.724 17.936 40.1871 15.2205 37.8249 12.9791C34.6764 9.99158 30.9106 8.52847 26.7213 8.4458C25.5786 8.46269 24.5755 8.5498 23.5809 8.73336C21.4669 9.11815 19.4501 9.91767 17.6466 11.0858C17.0453 11.4774 16.4689 11.9061 15.9209 12.3694C15.4098 12.7978 15.2222 13.3391 15.3809 13.9894C15.4683 14.3562 15.6883 14.6778 15.9985 14.8922C16.3087 15.1067 16.6872 15.1989 17.0613 15.1511C17.4058 15.1111 17.6955 14.9574 17.9618 14.7476C18.196 14.5631 18.4213 14.3662 18.6626 14.1907C21.3333 12.2462 24.3164 11.3862 27.6142 11.6334C28.6703 11.707 29.7123 11.9189 30.7133 12.2636C34.5093 13.5889 37.212 16.0956 38.7875 19.7987C39.4134 21.2497 39.7497 22.809 39.7778 24.3889C39.7849 24.8294 39.7671 25.2694 39.7382 25.7098C39.7016 26.3832 39.6081 27.0522 39.4586 27.7098C38.5698 31.4329 36.5098 34.3049 33.2075 36.2649C31.0715 37.5325 28.7615 38.131 26.2773 38.0605C25.4322 38.0363 24.5908 37.9385 23.7626 37.768C21.6262 37.3271 19.7378 36.3769 18.0698 34.9778C17.8791 34.8182 17.6906 34.6551 17.492 34.5076C16.9893 34.1356 16.4418 34.084 15.8849 34.352C15.3178 34.6249 15.0253 35.1049 15.0013 35.7298C14.9818 36.2374 15.2053 36.6427 15.5835 36.9782C18.5474 39.6099 22.008 41.0135 25.9653 41.1889C27.3155 41.2488 28.6677 41.1266 29.9853 40.8258C33.8182 39.9618 36.9778 38.0196 39.4111 34.9222C41.7418 31.9582 42.8911 28.58 42.9138 24.8174C42.9213 23.5654 42.7555 22.328 42.4671 21.1058ZM41.7666 25.7191C41.556 29.1205 40.336 32.1191 38.1324 34.7151C35.8978 37.3489 33.0658 38.9818 29.7115 39.7374C28.676 39.9711 27.6226 40.0729 26.2635 40.08C22.676 40.0156 19.2573 38.7356 16.3409 36.148C16.1884 36.0147 16.0778 35.8707 16.1378 35.6511C16.2222 35.3436 16.5529 35.2129 16.808 35.4022C17.0302 35.5667 17.2382 35.7511 17.4524 35.9271C19.2609 37.4165 21.304 38.4209 23.604 38.8827C24.8023 39.1286 26.026 39.2288 27.2484 39.1809C29.9724 39.0667 32.4444 38.2027 34.6835 36.6556C37.7693 34.5249 39.6862 31.6027 40.5471 27.9694C40.7506 27.1094 40.8395 26.236 40.8818 25.3534C40.9222 24.6365 40.9044 23.9175 40.8284 23.2036C40.7083 22.11 40.4545 21.0354 40.0729 20.0036C38.52 15.8572 35.6809 12.9782 31.5555 11.3667C30.4889 10.9498 29.3724 10.7045 28.2338 10.5667C27.3309 10.451 26.4186 10.4278 25.5111 10.4974C22.5133 10.7418 19.8298 11.7827 17.4884 13.6845C17.384 13.7694 17.2822 13.8596 17.1711 13.9356C16.9511 14.0858 16.6849 14.0689 16.5578 13.8911C16.4306 13.7134 16.3591 13.4654 16.6378 13.2334C17.409 12.5827 18.2394 12.0057 19.1182 11.5098C20.6786 10.6434 22.3781 10.0555 24.1404 9.77247C25.2487 9.58606 26.375 9.52968 27.4964 9.60447C31.2689 9.87113 34.5186 11.3129 37.2297 13.9631C39.5013 16.1876 40.8969 18.8778 41.5111 21.9889C41.7564 23.2161 41.8423 24.4699 41.7666 25.7191Z" fill="black"/>
</svg>
