<svg width="48" height="49" viewBox="0 0 48 49" fill="none" xmlns="http://www.w3.org/2000/svg">
<path d="M18.8018 40.4964L23.1111 42.9182L25.9285 44.1538H27.3125L29.3751 43.504L31.0689 40.9413L34.6311 33.6262L34.8409 32.8827L34.6978 31.996L33.9831 31.424L32.9822 31.2493H32.3245L32.2387 30.3378L31.9814 29.5084L31.5418 29.0511H30.5231L29.408 29.2227L29.5796 28.2502L29.4654 27.3351L28.7787 26.8493L28.0925 26.7062L27.0058 26.9062L28.0067 24.5329L29.5796 21.5591L30.0658 20.5298L30.0369 19.8724L29.6654 19.1827L29.036 18.5853L28.3382 18.7471L27.4414 20.6062L20.1258 35.2231L19.4471 34.592L17.9676 33.3022L16.4005 31.9822L14.4489 30.4262L12.5502 30.1387L10.7365 30.6755L10.6129 32.3631L13.3667 33.8835L14.5676 34.7124L16.5405 37.4289L18.8018 40.4964Z" fill="#1F9ED3"/>
<path d="M31.1987 17.2471C32.5419 17.2471 33.6307 16.1583 33.6307 14.8151C33.6307 13.472 32.5419 12.3831 31.1987 12.3831C29.8556 12.3831 28.7667 13.472 28.7667 14.8151C28.7667 16.1583 29.8556 17.2471 31.1987 17.2471Z" fill="#1F9ED3"/>
<path d="M27.4613 13.4662C27.3115 15.2182 28.6475 16.6618 30.2533 16.8058C30.6741 16.8454 31.0984 16.7983 31.5002 16.6672C31.902 16.5362 32.2725 16.324 32.589 16.0439C32.9054 15.7637 33.1609 15.4216 33.3397 15.0387C33.5185 14.6558 33.6168 14.2402 33.6284 13.8178C33.692 12.2458 32.5049 10.8253 30.8818 10.6556C29.0049 10.4596 27.6 11.8671 27.4613 13.4662ZM28.3751 13.7525C28.3751 12.5302 29.3351 11.5525 30.5342 11.5591C31.748 11.5658 32.6769 12.5018 32.7075 13.6422C32.7453 15.0502 31.5964 15.9249 30.5444 15.8885C29.3942 15.9173 28.3733 14.9387 28.3751 13.7525Z" fill="#0A1F27"/>
<path d="M31.5515 4.63734C25.9999 4.05557 21.8399 8.22001 21.435 12.9498C21.1999 15.6787 22.187 18.1542 23.8666 19.9489C24.019 19.4996 24.3346 19.1111 24.5604 18.6996C24.7173 18.4138 24.8555 18.1187 25.0048 17.8302C25.0884 17.6702 25.1599 17.5013 25.2635 17.3542C24.5315 16.3118 24.138 15.0693 24.1364 13.7956C24.1426 10.1809 26.9759 7.28934 30.5222 7.3089C34.1124 7.3289 36.8595 10.0969 36.9502 13.4707C37.0622 17.6351 33.6653 20.2218 30.5528 20.1133C30.2955 20.1197 30.0381 20.109 29.7822 20.0813V20.084C29.7657 20.3187 29.6679 20.5107 29.5555 20.7138C29.4355 20.9311 29.343 21.1609 29.2373 21.3853C29.0373 21.8116 28.8537 22.2449 28.6515 22.6698C28.9948 22.7431 29.3423 22.7957 29.6919 22.8271C35.0697 23.3098 39.5364 19.1667 39.6746 13.9893C39.8626 9.34046 36.3515 5.13912 31.5515 4.63734Z" fill="#0A1F27"/>
<path d="M17.632 16.208C18.1871 16.0147 18.7395 15.8129 19.2982 15.6302C19.7448 15.4849 20.1462 15.8524 20.0604 16.3133C20.0463 16.4043 20.0082 16.4898 19.9499 16.561C19.8916 16.6322 19.8152 16.6865 19.7288 16.7182C19.4915 16.8111 19.2493 16.892 19.0084 16.976C18.1397 17.2809 17.2702 17.584 16.4 17.8853C16.2404 17.9409 16.0826 17.9773 15.9164 17.9076C15.6942 17.8142 15.5164 17.5711 15.532 17.336C15.5484 17.0929 15.6653 16.8991 15.9048 16.8133C16.4791 16.608 17.0564 16.4111 17.6324 16.2107L17.632 16.208Z" fill="#0A1F27"/>
<path d="M21.5613 18.5889C21.6333 18.7667 21.5871 18.9351 21.5075 19.0991C21.0358 20.0719 20.564 21.0445 20.092 22.0169C19.9311 22.3471 19.6031 22.4742 19.292 22.3325C18.9889 22.1934 18.8653 21.8436 19.0204 21.5147C19.3084 20.9031 19.6067 20.296 19.9004 19.6871C20.0884 19.2978 20.2724 18.9062 20.4653 18.5196C20.5158 18.4125 20.5973 18.3231 20.6992 18.2629C20.8011 18.2027 20.9187 18.1745 21.0369 18.182C21.155 18.1895 21.2682 18.2323 21.3617 18.3048C21.4552 18.3774 21.5247 18.4763 21.5613 18.5889Z" fill="#0A1F27"/>
<path d="M19.611 12.9671C19.7066 13.2694 19.6502 13.4742 19.4777 13.6422C19.2817 13.8338 19.0484 13.8618 18.8044 13.7476C18.423 13.5698 18.0462 13.3814 17.667 13.1974C17.0488 12.8978 16.4284 12.6027 15.8133 12.2965C15.3777 12.0791 15.3386 11.5187 15.7333 11.2556C15.8158 11.1983 15.9124 11.1649 16.0127 11.1588C16.1129 11.1528 16.2129 11.1744 16.3017 11.2214C17.3112 11.7055 18.3186 12.1923 19.3239 12.6818C19.4764 12.7538 19.5866 12.868 19.611 12.9671Z" fill="#0A1F27"/>
<path d="M34.0671 30.4365C33.5782 29.7342 32.8791 29.4329 32.0226 29.5369C31.8835 29.5542 31.8613 29.5285 31.8537 29.3956C31.7791 28.1018 30.6951 27.1009 29.3884 27.3102C29.2519 27.332 29.2448 27.2747 29.2395 27.1689C29.1835 26.1222 28.4839 25.2827 27.5062 25.0845C27.3164 25.0462 27.1222 25.0618 26.8839 25.0356C26.9242 24.987 26.9611 24.9356 26.9942 24.8818C27.7847 23.3043 28.5742 21.7262 29.3626 20.1476C30.0164 18.8329 29.3999 17.3356 28.0239 16.916C26.9297 16.5822 25.8071 17.1382 25.3128 18.1294C23.3783 22.0257 21.4351 25.9177 19.4831 29.8054C19.1764 30.4196 18.8728 31.036 18.5622 31.6627C18.5128 31.6236 18.4768 31.5991 18.4457 31.5694C17.8559 31.0009 17.2159 30.4907 16.5982 29.9547C15.4777 28.9818 14.1777 28.4671 12.7017 28.3742C11.9017 28.3245 11.1088 28.364 10.3382 28.5965C9.69861 28.7907 9.18261 29.14 8.91283 29.7902C8.77239 30.1271 8.58972 30.4471 8.42661 30.7747C8.20439 31.2169 8.30261 31.5 8.74839 31.7227C10.0343 32.3645 11.3202 33.0061 12.6062 33.6476C12.6906 33.6885 12.7637 33.7496 12.8191 33.8254C14.3719 35.8879 15.9245 37.9498 17.4768 40.0111C17.5538 40.1193 17.6554 40.2075 17.7733 40.2685C19.7257 41.2405 21.6742 42.2196 23.6302 43.1831C24.6446 43.6938 25.8089 43.8221 26.9102 43.5445C28.0511 43.268 28.9831 42.652 29.6919 41.7089C30.1391 41.1138 30.4142 40.4245 30.7351 39.7618C30.7888 39.6516 30.8555 39.5489 30.9097 39.4396C32.0208 37.2147 33.1368 34.9951 34.2404 32.7667C34.6373 31.9667 34.5777 31.1667 34.0671 30.4365ZM33.2226 32.1422C33.1755 32.2605 33.1146 32.3729 33.0577 32.4871C31.7422 35.1242 30.4265 37.7612 29.1106 40.3982C28.6462 41.3316 27.9248 41.9671 26.9693 42.3018C26.0164 42.6076 25.1026 42.5791 24.2275 42.152C22.2991 41.208 20.3826 40.2409 18.4608 39.2809C18.3983 39.2461 18.3452 39.1965 18.3062 39.1365C16.7521 37.0695 15.1982 35.0033 13.6444 32.9378C13.5615 32.8271 13.4533 32.738 13.3288 32.6778C12.1706 32.1031 11.0146 31.5222 9.85461 30.9529C9.7315 30.8925 9.70394 30.8458 9.77772 30.7245C9.86803 30.5781 9.94494 30.4238 10.0075 30.2636C10.1079 29.9969 10.3186 29.8711 10.5622 29.78C11.0191 29.6098 11.4955 29.5578 11.9795 29.5485C12.8385 29.5237 13.6937 29.6726 14.4937 29.9862C14.8715 30.1351 15.1848 30.3822 15.5031 30.6218C16.4364 31.324 17.3031 32.1054 18.1555 32.9022C18.2648 33.004 18.3675 33.1165 18.5066 33.1769C18.8155 33.3102 19.1288 33.1769 19.3008 32.8325C19.7017 32.0342 20.101 31.2351 20.4986 30.4351C22.4728 26.4837 24.4468 22.5323 26.4204 18.5809C26.6688 18.0831 27.2928 17.856 27.7915 18.0827C28.3391 18.332 28.6075 18.9307 28.3693 19.4605C28.1026 20.0525 27.8008 20.6276 27.5106 21.208C26.6813 22.8667 25.8518 24.5246 25.0222 26.1818C24.8199 26.5867 24.9684 26.9751 25.3648 27.0889C25.6315 27.1658 25.8866 27.056 26.0484 26.7822C26.2035 26.5196 26.4084 26.3205 26.7111 26.2427C27.1266 26.136 27.4933 26.2338 27.7888 26.5422C28.0773 26.8436 28.1519 27.2089 28.0208 27.6027C27.9173 27.9138 27.7364 28.1916 27.6008 28.4889C27.4039 28.9205 27.7168 29.3778 28.1875 29.3436C28.4133 29.328 28.5568 29.1942 28.6666 29.0062C28.9444 28.5316 29.4088 28.3396 29.9231 28.4822C30.5182 28.6467 30.8528 29.3049 30.6177 29.8787C30.5004 30.1658 30.3448 30.4369 30.2177 30.7191C30.0528 31.0787 30.2177 31.4422 30.5844 31.5547C30.8546 31.6369 31.1177 31.5182 31.2804 31.2436C31.4737 30.9111 31.7524 30.704 32.1426 30.6738C32.3253 30.6575 32.5091 30.6887 32.6763 30.7642C32.8434 30.8397 32.9883 30.9571 33.0969 31.1049C33.2055 31.2528 33.2741 31.4261 33.2961 31.6082C33.3181 31.7903 33.2928 31.975 33.2226 32.1445V32.1422Z" fill="#0A1F27"/>
</svg>
