<svg width="48" height="49" viewBox="0 0 48 49" fill="none" xmlns="http://www.w3.org/2000/svg">
<path d="M23.5924 33.4275C23.2274 33.435 22.8718 33.3118 22.5897 33.08C22.5344 33.035 22.4814 32.987 22.4311 32.9364C21.7564 32.263 21.0823 31.5892 20.4089 30.9151C20.2832 30.7959 20.1978 30.6406 20.1644 30.4707C20.1432 30.3636 20.1469 30.253 20.1752 30.1476C20.2036 30.0421 20.2559 29.9446 20.328 29.8627C20.5444 29.6022 21.0329 29.4244 21.416 29.7924C21.5809 29.9507 21.7417 30.1133 21.9049 30.2755C22.4059 30.7775 22.9065 31.2797 23.4066 31.7822C23.54 31.9155 23.5484 31.9155 23.6586 31.7698C24.9733 30.0047 26.2886 28.2397 27.6044 26.4747C27.7223 26.303 27.8999 26.1813 28.1026 26.1333C28.5311 26.0378 28.9724 26.3729 28.9986 26.812C29.0105 27.0122 28.9483 27.2098 28.824 27.3671C28.4894 27.8142 28.1555 28.2621 27.8222 28.7107C26.8011 30.0778 25.7798 31.4446 24.7582 32.8111C24.5296 33.1283 24.1851 33.3425 23.7995 33.4071C23.7186 33.4218 23.6355 33.4235 23.5924 33.4275Z" fill="#1F9ED3"/>
<path d="M37.0556 22.6609C37.0563 22.4692 37.0446 22.2777 37.0204 22.0876C36.9806 21.7405 36.8708 21.4051 36.6976 21.1016C36.5244 20.7982 36.2915 20.5331 36.0129 20.3222C35.5516 19.9618 35.0173 19.8205 34.4404 19.8182C34.1773 19.8182 33.9142 19.8293 33.6516 19.8182C33.1338 19.7991 32.8173 19.4373 32.8476 18.9209C32.9418 17.3098 32.8476 15.712 32.492 14.1351C32.232 12.9911 31.8204 11.908 31.1787 10.9187C30.2009 9.41112 28.8489 8.43335 27.0898 8.04312C25.7179 7.73861 24.2947 7.75031 22.928 8.07735C21.6658 8.3729 20.5724 8.97023 19.6711 9.91157C18.8676 10.7525 18.3018 11.7378 17.9071 12.8249C17.3369 14.3965 17.0911 16.0249 17.0627 17.6916C17.0551 18.1036 17.0676 18.5156 17.0884 18.9276C17.1156 19.4773 16.7613 19.828 16.2116 19.8196C16.1333 19.8196 16.0551 19.8138 15.9773 19.8107C15.2071 19.7773 14.5209 19.9929 13.9218 20.4858C13.3227 20.9787 13.0138 21.6009 13.0102 22.3751C13.0058 23.3916 13 24.4076 13 25.424C13 29.4818 13.0012 33.5399 13.0036 37.5982C13 37.7332 13.0049 37.8683 13.0182 38.0027C13.1902 39.3511 14.2973 40.3285 15.6582 40.3365C16.0991 40.3391 16.5397 40.3403 16.98 40.34H25.0822C28.2378 40.34 31.3933 40.352 34.5489 40.3329C35.5711 40.3271 36.3356 39.8311 36.7996 38.9107C37.0084 38.4956 37.06 38.0458 37.06 37.5853C37.0559 32.6099 37.0544 27.6351 37.0556 22.6609ZM18.7333 16.324C18.7893 15.6129 19.0342 14.6329 19.2182 13.9453C19.4138 13.2151 19.9173 12.3165 20.3347 11.6787C21.04 10.6027 22.6213 10.3396 23.8964 10.1436C24.6333 10.0302 25.3511 10.3596 26.0836 10.5138C27.2013 10.7493 28.0516 11.3627 28.6613 12.3218C29.128 13.0569 29.4049 13.8658 29.5947 14.7093C29.8502 15.8462 29.92 16.9991 29.9013 18.1605C29.8991 18.2813 29.8907 18.4022 29.8964 18.5227C29.9022 18.6431 29.8493 18.6733 29.744 18.664C29.6947 18.6596 29.6444 18.664 29.5947 18.664H20.5747C20.3476 18.664 20.12 18.6689 19.8929 18.6689C19.6116 18.6689 18.5542 18.8849 18.5409 18.6293C18.5084 18.0045 18.6862 16.948 18.7333 16.324ZM24.3907 37.4062C22.9754 37.4062 21.592 36.9866 20.4153 36.2003C19.2385 35.414 18.3214 34.2965 17.7798 32.989C17.2382 31.6815 17.0965 30.2427 17.3726 28.8547C17.6487 27.4667 18.3302 26.1917 19.3309 25.1909C20.3316 24.1902 21.6066 23.5087 22.9947 23.2326C24.3827 22.9565 25.8215 23.0982 27.129 23.6398C28.4365 24.1814 29.554 25.0985 30.3403 26.2753C31.1266 27.452 31.5462 28.8354 31.5462 30.2507C31.5462 32.1485 30.7923 33.9685 29.4504 35.3104C28.1085 36.6523 26.2884 37.4062 24.3907 37.4062Z" fill="#1F9ED3"/>
<path d="M37.5213 21.6253C37.5227 21.3837 37.5079 21.1423 37.4769 20.9027C37.3269 19.8064 36.8139 18.921 35.9378 18.2467C35.2351 17.7053 34.4218 17.4911 33.5466 17.4778C33.344 17.4747 33.3431 17.4747 33.3458 17.2676C33.3622 16.0293 33.2973 14.7964 33.0764 13.5751C32.8542 12.3458 32.5018 11.1596 31.9258 10.0458C31.2955 8.82801 30.4635 7.77912 29.3378 6.98134C28.0618 6.07645 26.6218 5.64801 25.0773 5.52845C24.1058 5.45347 23.1286 5.50833 22.1715 5.69156C20.1226 6.08089 18.4533 7.08356 17.1906 8.75112C16.3329 9.88356 15.7835 11.1613 15.42 12.5258C15.0196 14.0457 14.8315 15.6138 14.8609 17.1853C14.8653 17.4729 14.8609 17.4804 14.5738 17.4964C13.7844 17.5409 13.0804 17.8182 12.4435 18.2769C11.4155 19.0164 10.8355 20.0053 10.8129 21.2849C10.7929 22.436 10.7924 23.5871 10.7902 24.7387C10.7866 26.4729 10.7866 28.2071 10.7902 29.9413C10.7929 32.1656 10.797 34.3901 10.8026 36.6147C10.7987 36.8066 10.807 36.9985 10.8275 37.1893C11.0978 39.2302 12.8124 40.6876 14.7715 40.6707C15.2338 40.6671 15.6955 40.6738 16.1578 40.6738H33.6858C33.8919 40.677 34.0978 40.6608 34.3009 40.6253C35.3293 40.4298 36.1729 39.9347 36.7898 39.0804C37.3204 38.3458 37.5258 37.5142 37.5249 36.6133C37.5189 31.6178 37.5178 26.6218 37.5213 21.6253ZM35.932 37.9133C35.468 38.8356 34.7031 39.3316 33.6813 39.3378C30.5258 39.3564 27.3702 39.3444 24.2146 39.3444H16.1129C15.6723 39.3444 15.2317 39.3433 14.7911 39.3409C13.4302 39.3329 12.3231 38.3556 12.1511 37.0071C12.1378 36.8727 12.1329 36.7377 12.1364 36.6027C12.1346 32.5434 12.1335 28.4853 12.1329 24.4284C12.1329 23.412 12.1386 22.396 12.1431 21.3796C12.1466 20.6053 12.4582 19.9813 13.0546 19.4902C13.6511 18.9991 14.34 18.7818 15.1102 18.8151C15.188 18.8182 15.2662 18.8227 15.3444 18.824C15.8942 18.8324 16.2484 18.4818 16.2213 17.932C16.2004 17.52 16.188 17.108 16.1955 16.696C16.2253 15.0302 16.4711 13.4009 17.04 11.8293C17.4346 10.7422 18.0009 9.75689 18.804 8.91601C19.7035 7.97467 20.7986 7.37734 22.0609 7.08178C23.4276 6.75475 24.8508 6.74305 26.2226 7.04756C27.9822 7.43778 29.3338 8.41556 30.3115 9.92312C30.9533 10.9124 31.3649 11.9956 31.6249 13.1396C31.9831 14.7164 32.076 16.3142 31.9804 17.9253C31.9502 18.4418 32.2666 18.8036 32.7844 18.8227C33.0471 18.832 33.3102 18.82 33.5733 18.8227C34.1511 18.8227 34.6844 18.9662 35.1458 19.3267C35.4244 19.5375 35.6573 19.8026 35.8305 20.1061C36.0037 20.4095 36.1135 20.7449 36.1533 21.092C36.1774 21.2822 36.1892 21.4737 36.1884 21.6653C36.1884 26.6404 36.1884 31.6153 36.1884 36.5898C36.1924 37.0484 36.1409 37.4982 35.932 37.9133Z" fill="black"/>
<path d="M28.6071 10.9338C27.9084 9.79023 26.9235 9.02268 25.6187 8.69157C24.6747 8.45157 23.7195 8.44846 22.7644 8.61779C21.0142 8.9289 19.772 9.92223 18.9702 11.4858C18.4524 12.4956 18.184 13.5818 18.0235 14.6982C17.9357 15.3604 17.8851 16.0269 17.872 16.6947C17.8591 17.1209 17.8818 17.5471 17.9031 17.9729C17.9209 18.3187 18.1204 18.5173 18.4649 18.5578C18.5285 18.5639 18.5925 18.5659 18.6564 18.564C19.0044 18.564 19.3529 18.5582 19.7009 18.5582C21.0935 18.5582 22.4861 18.5582 23.8787 18.5582C25.6129 18.5582 27.3471 18.5582 29.0813 18.5582C29.1807 18.5592 29.28 18.5537 29.3787 18.5418C29.6453 18.5053 29.8169 18.3458 29.8675 18.0813C29.8936 17.9562 29.9094 17.8291 29.9147 17.7013C29.9591 16.3342 29.9147 14.9738 29.6231 13.6302C29.4222 12.6778 29.1164 11.768 28.6071 10.9338ZM29.0364 17.164C29.0342 17.2849 29.0258 17.4058 29.0315 17.5262C29.0373 17.6467 28.9844 17.6769 28.8791 17.6676C28.8298 17.6631 28.7795 17.6676 28.7302 17.6676H19.7107C19.4835 17.6676 19.256 17.6725 19.0289 17.6725C18.7475 17.6725 18.7893 17.6947 18.7755 17.4391C18.7418 16.8133 18.7787 16.1898 18.8275 15.5658C18.8803 14.8574 18.9978 14.1554 19.1787 13.4685C19.3742 12.7387 19.6342 12.0342 20.052 11.3973C20.7573 10.3213 21.7409 9.67868 23.0169 9.48268C23.7538 9.36934 24.4871 9.36357 25.2195 9.51779C26.3373 9.75334 27.1875 10.3667 27.7973 11.3258C28.264 12.0609 28.5409 12.8698 28.7307 13.7133C28.9853 14.8498 29.0551 16.0027 29.0364 17.164Z" fill="black"/>
<path d="M24.2516 21.5698C22.214 21.5749 20.2619 22.3893 18.8248 23.8337C17.3876 25.2781 16.5831 27.2342 16.5882 29.2718C16.5933 31.3094 17.4077 33.2614 18.8521 34.6986C20.2965 36.1358 22.2527 36.9403 24.2902 36.9351C28.468 36.9156 31.9289 33.5373 31.932 29.256C31.9351 25.0036 28.4991 21.5769 24.2516 21.5698ZM30.4738 32.2058C29.9484 33.3162 29.135 34.2654 28.1182 34.9547C27.4315 35.4222 26.6672 35.764 25.8609 35.964C25.4977 36.0503 25.1272 36.1023 24.7542 36.1191C24.5889 36.1293 24.4231 36.1427 24.2569 36.1378C23.7049 36.1325 23.1538 36.0987 22.6196 35.9569C21.2382 35.5902 20.0533 34.8933 19.0973 33.8182C18.3382 32.964 17.8418 31.9733 17.5467 30.8769C17.4578 30.5418 17.4213 30.1956 17.3929 29.8498C17.3633 29.4503 17.3633 29.0492 17.3929 28.6498C17.4487 27.9084 17.6329 27.1823 17.9373 26.504C18.4265 25.3809 19.2056 24.4081 20.1947 23.6853C20.8471 23.2013 21.5769 22.8618 22.3524 22.6187C22.7764 22.4853 23.212 22.4285 23.652 22.3902C23.9231 22.3667 24.1947 22.3667 24.4658 22.3698C25.4311 22.3818 26.3418 22.6138 27.212 23.0289C28.2875 23.5395 29.212 24.3205 29.8951 25.2956C30.3802 25.9887 30.7377 26.763 30.9507 27.5818C31.0306 27.9077 31.0834 28.2396 31.1084 28.5742C31.1329 28.8675 31.1414 29.1618 31.1338 29.456C31.1184 30.41 30.8931 31.3488 30.4738 32.2058Z" fill="black"/>
<path d="M29.4555 26.06C29.4311 25.9532 29.3858 25.8523 29.3222 25.7631C29.2831 25.7076 29.2458 25.6507 29.2031 25.5982C29.0066 25.3547 28.7693 25.1693 28.4578 25.0991C28.0342 25.004 28.0698 24.9764 27.5929 25.0889C27.2664 25.1626 26.9776 25.3521 26.78 25.6222C25.8271 26.8922 24.877 28.1642 23.9298 29.4382L23.1978 30.42C23.1689 30.411 23.144 30.3925 23.1271 30.3676C22.6675 29.9093 22.2115 29.4471 21.7471 28.9942C21.5582 28.8098 21.3533 28.6413 21.0831 28.5822C20.9911 28.5622 20.9 28.5378 20.8084 28.5182C20.6941 28.4916 20.5752 28.4916 20.4609 28.5182C20.3982 28.532 20.3369 28.5516 20.2738 28.5627C19.9938 28.6044 19.7635 28.7467 19.5595 28.9289C19.3867 29.077 19.2557 29.2678 19.1795 29.4822C19.1319 29.6331 19.0942 29.7869 19.0666 29.9427C19.0501 30.0282 19.0522 30.1163 19.0729 30.2009C19.1022 30.3258 19.1298 30.4507 19.1595 30.5751C19.1763 30.653 19.2064 30.7274 19.2484 30.7951C19.3402 30.9469 19.4479 31.0885 19.5698 31.2173C20.2053 31.8514 20.84 32.4865 21.4738 33.1227C21.6332 33.2834 21.8061 33.4302 21.9906 33.5613C22.1734 33.6952 22.3808 33.7915 22.6009 33.8449C22.7075 33.8693 22.8133 33.8969 22.92 33.92C23.1036 33.965 23.2941 33.9746 23.4813 33.9485C23.6146 33.9271 23.7458 33.8907 23.8782 33.8596C24.3849 33.7498 24.7818 33.468 25.0871 33.0596C26.4364 31.2605 27.7837 29.4579 29.1289 27.652C29.4769 27.1849 29.404 27.2804 29.5382 26.7378C29.5647 26.623 29.5633 26.5035 29.5342 26.3893C29.5084 26.2778 29.4804 26.1698 29.4555 26.06ZM28.5778 27.0689C28.2409 27.5187 27.9062 27.9698 27.5698 28.42L24.4889 32.5445C24.2589 32.8632 23.9125 33.0785 23.5249 33.1436C23.4558 33.1539 23.3862 33.1607 23.3164 33.164C22.9503 33.1706 22.5939 33.0464 22.3111 32.8138C22.2555 32.7683 22.2023 32.7201 22.1515 32.6693C21.4724 31.9935 20.7942 31.316 20.1169 30.6369C19.9904 30.5168 19.9046 30.3601 19.8715 30.1889C19.85 30.0812 19.8536 29.97 19.882 29.8639C19.9105 29.7579 19.963 29.6598 20.0355 29.5773C20.2533 29.3156 20.7444 29.1369 21.1293 29.5067C21.2955 29.6662 21.4573 29.8298 21.6182 29.9929C22.1219 30.4966 22.6256 31.0016 23.1293 31.508C23.2649 31.644 23.2715 31.644 23.3826 31.4956C24.7056 29.721 26.0287 27.9465 27.352 26.172C27.4704 25.9992 27.649 25.8769 27.8529 25.8289C28.2835 25.7325 28.7275 26.0693 28.7538 26.5111C28.7654 26.7123 28.7027 26.9108 28.5778 27.0689Z" fill="black"/>
</svg>
