<svg width="48" height="49" viewBox="0 0 48 49" fill="none" xmlns="http://www.w3.org/2000/svg">
<path d="M10.6262 13.9693C10.6262 12.849 10.6262 11.7284 10.6262 10.6076C10.6254 10.4515 10.6739 10.2991 10.7647 10.1722C10.8555 10.0453 10.984 9.95017 11.1319 9.90045C11.2758 9.84847 11.4324 9.84281 11.5797 9.88426C11.727 9.9257 11.8576 10.0122 11.9533 10.1316C12.0839 10.2884 12.1244 10.4716 12.1239 10.6724C12.1213 11.7213 12.1239 12.7698 12.1239 13.8187V13.9849C12.1968 13.9693 12.2239 13.9173 12.2608 13.8804C12.7804 13.3636 13.2973 12.8449 13.8164 12.3284C14.0386 12.1062 14.3053 12.032 14.6057 12.14C14.9004 12.2453 15.0617 12.4653 15.0995 12.7693C15.1135 12.8771 15.102 12.9867 15.066 13.0892C15.0301 13.1918 14.9706 13.2845 14.8924 13.36C14.7102 13.5467 14.5248 13.7298 14.3404 13.9142C13.5505 14.7033 12.7616 15.4919 11.9737 16.28C11.5888 16.6649 11.1679 16.6649 10.7826 16.28C9.82024 15.3191 8.85846 14.3581 7.89728 13.3969C7.67061 13.1716 7.59639 12.9102 7.69372 12.6107C7.79372 12.3022 8.01861 12.1289 8.34127 12.0964C8.58972 12.072 8.79016 12.1756 8.9635 12.3493C9.46661 12.8556 9.97594 13.3609 10.4813 13.868C10.5173 13.9099 10.5501 13.9545 10.5795 14.0013L10.6262 13.9693Z" fill="black"/>
<path d="M36.8115 12.7889C36.8115 13.9092 36.8115 15.0298 36.8115 16.1507C36.812 16.3067 36.7634 16.459 36.6726 16.5859C36.5817 16.7128 36.4532 16.808 36.3053 16.8578C36.1614 16.9098 36.0049 16.9154 35.8577 16.8739C35.7104 16.8324 35.5799 16.7458 35.4844 16.6262C35.3533 16.4693 35.3129 16.2867 35.3138 16.0858C35.3164 15.0369 35.3138 13.988 35.3138 12.9395V12.7733C35.2409 12.7889 35.2138 12.8409 35.1769 12.8778C34.6578 13.3942 34.1409 13.9133 33.6213 14.4298C33.3991 14.652 33.1324 14.7262 32.8315 14.6182C32.5373 14.5129 32.376 14.2929 32.3382 13.9884C32.324 13.8807 32.3354 13.7712 32.3713 13.6687C32.4072 13.5662 32.4666 13.4735 32.5449 13.3982C32.7271 13.2115 32.9129 13.0284 33.0973 12.844C33.8858 12.0553 34.6745 11.2665 35.4635 10.4778C35.8484 10.0933 36.2689 10.0929 36.6546 10.4778C37.6164 11.4387 38.5782 12.3995 39.54 13.3604C39.7662 13.5862 39.8409 13.8493 39.7435 14.1471C39.6431 14.4555 39.4186 14.6289 39.096 14.6609C38.8475 14.6858 38.6466 14.5822 38.4737 14.4084C37.9689 13.9009 37.4609 13.3964 36.9555 12.8898C36.9196 12.8486 36.8868 12.8047 36.8573 12.7587L36.8115 12.7889Z" fill="black"/>
<path d="M27.4221 17.66C27.3626 17.643 27.301 17.6342 27.239 17.6338C26.9946 17.6338 26.7413 17.7391 26.5493 18.0005C26.3568 18.2538 26.2701 18.6467 26.2701 19.0747C26.2701 19.6525 26.4177 20.008 26.5928 20.2005C26.6707 20.2821 26.7641 20.3473 26.8675 20.3924C26.9709 20.4375 27.0822 20.4616 27.195 20.4631C27.8501 20.4631 28.1381 19.7556 28.1381 19.0409C28.1381 18.4369 27.9719 17.8 27.4221 17.66Z" fill="#1F9ED3"/>
<path d="M21.7555 16.3529H20.4275V18.0502H21.7204C21.9426 18.0413 22.659 18.0231 22.659 17.188C22.659 16.3885 22.083 16.3618 21.7555 16.3529Z" fill="#1F9ED3"/>
<path d="M24.6484 10.7155C19.9539 10.7155 16.1484 14.7424 16.1484 19.7155C16.1484 24.6887 19.9534 28.7155 24.6484 28.7155C29.3434 28.7155 33.1484 24.6863 33.1484 19.7155C33.1484 14.7448 29.343 10.7155 24.6484 10.7155ZM22.9362 22.299L21.642 19.8829H20.6161V22.299H18.9795V15.53H21.919C22.6035 15.5401 23.454 15.5497 24.0536 16.2208C24.3594 16.5751 24.5714 17.1125 24.5714 17.7256C24.5714 19.0871 23.6749 19.4231 23.2308 19.5952L24.738 22.299H22.9362ZM27.9555 22.2759C27.427 22.2759 27.1532 22.0962 26.7797 21.8608V23.8857H25.3667V17.2836H26.6159V17.7453C26.6587 17.6895 26.7042 17.6361 26.7523 17.5852C26.989 17.3498 27.4173 17.1537 27.9467 17.1537C29.1133 17.1537 30.0149 18.0669 30.0149 19.7055C30.0149 20.7108 29.5866 22.2759 27.9555 22.2759Z" fill="#1F9ED3"/>
<path d="M23.8444 9.8689C18.52 9.82446 14.5937 14.1125 14.5555 18.9156C14.5111 24.2116 18.756 28.2516 23.7715 28.2489C28.7777 28.2529 32.8702 24.1925 32.9351 19.2049C33.0017 13.9898 28.876 9.90935 23.8444 9.8689ZM32 19.3169C31.9856 20.4141 31.7355 21.4955 31.2666 22.4876C30.8394 23.4111 30.2491 24.2501 29.524 24.964C28.5306 25.9418 27.3529 26.6031 26.0293 27.0182C25.6053 27.1516 25.1689 27.2165 24.7293 27.2662C24.4115 27.3022 24.0924 27.3067 23.7742 27.3142C23.1356 27.3198 22.4983 27.2542 21.8742 27.1187C21.4542 27.0185 21.0436 26.8821 20.6471 26.7111C20.1208 26.4928 19.6164 26.2249 19.1409 25.9111C18.6337 25.5769 18.1853 25.1742 17.7631 24.74C16.7449 23.6911 16.1004 22.4351 15.7129 21.0373C15.645 20.7681 15.5961 20.4944 15.5666 20.2182C15.5121 19.7962 15.4865 19.3709 15.4902 18.9453C15.4873 18.3447 15.5512 17.7456 15.6809 17.1591C16.0039 15.8249 16.6508 14.5909 17.5642 13.5661C18.4775 12.5413 19.6294 11.7574 20.9177 11.2836C21.476 11.073 22.0582 10.9325 22.6511 10.8653C23.1935 10.8052 23.7398 10.7887 24.2849 10.816C24.7754 10.8328 25.2629 10.9004 25.7395 11.0178C26.7569 11.2845 27.7075 11.7093 28.5591 12.3267C29.6329 13.1053 30.4951 14.0756 31.0924 15.2693C31.3921 15.8555 31.6266 16.4729 31.7915 17.1102C31.8659 17.4273 31.9185 17.7491 31.9489 18.0733C31.991 18.4865 32.0081 18.9017 32 19.3169Z" fill="black"/>
<path d="M30.2151 18.1165C30.1706 17.9155 30.1151 17.7171 30.0489 17.5222C29.9489 17.2591 29.7889 17.0333 29.6227 16.8111C29.3489 16.4445 28.9844 16.1942 28.5747 16.004C28.5215 15.98 28.4661 15.9612 28.4093 15.948C28.2235 15.9013 28.0373 15.8547 27.8498 15.8147C27.6307 15.7672 27.405 15.759 27.1831 15.7902C26.9515 15.8222 26.728 15.888 26.5013 15.9418C26.4589 15.9538 26.414 15.9538 26.3715 15.9418C26.2361 15.904 26.0956 15.8875 25.9551 15.8929C25.7253 15.8978 25.4951 15.8929 25.2653 15.8929C25.1182 15.8929 24.9702 15.8796 24.8275 15.9311C24.7831 15.9467 24.7667 15.9222 24.7515 15.8867C24.6822 15.7245 24.5764 15.5849 24.4822 15.4378C24.26 15.0911 23.936 14.8649 23.5933 14.6587C23.5015 14.605 23.4036 14.5623 23.3018 14.5316C22.7624 14.3605 22.1996 14.2748 21.6338 14.2778C20.7413 14.2853 19.8493 14.2742 18.9573 14.2831C18.7151 14.2858 18.4764 14.3347 18.2747 14.496C18.1697 14.5741 18.0875 14.6787 18.0364 14.7991C17.9704 14.9614 17.9341 15.1342 17.9293 15.3093C17.9293 17.2445 17.9293 19.1797 17.9293 21.1151C17.9299 21.2622 17.947 21.4088 17.9804 21.552C18.0081 21.6824 18.0642 21.805 18.1449 21.9111C18.2243 22.0198 18.3319 22.1048 18.456 22.1569C18.6109 22.2223 18.7768 22.258 18.9449 22.2622C19.3533 22.2622 19.7618 22.2591 20.1698 22.2622C20.3167 22.2588 20.4631 22.2423 20.6071 22.2129C20.7636 22.1869 20.9083 22.1135 21.0218 22.0027C21.1311 21.908 21.21 21.783 21.2484 21.6436C21.2955 21.4462 21.3413 21.2507 21.3271 21.0458C21.3287 21.0339 21.331 21.0222 21.3342 21.0107C21.3787 21.0916 21.4142 21.1533 21.4493 21.2147C21.5884 21.4547 21.7049 21.708 21.8751 21.9293C21.951 22.0321 22.0546 22.1112 22.1738 22.1573C22.3369 22.221 22.5098 22.2562 22.6849 22.2613C23.1138 22.2591 23.5427 22.2613 23.9738 22.2613C24.052 22.2613 24.0533 22.2613 24.0538 22.3409C24.0538 22.4956 24.0427 22.652 24.0569 22.804C24.0791 23.0453 24.112 23.2845 24.2733 23.4867C24.3515 23.5914 24.4554 23.6741 24.5751 23.7267C24.7335 23.793 24.9026 23.8302 25.0742 23.8365C25.3969 23.8391 25.7195 23.8365 26.0422 23.8365C26.2166 23.8376 26.3906 23.8193 26.5609 23.7818C26.7126 23.7508 26.8522 23.6769 26.9631 23.5689C27.0615 23.4826 27.135 23.3715 27.176 23.2471C27.2449 23.0204 27.2733 22.7833 27.26 22.5467C27.2569 22.5022 27.26 22.4578 27.26 22.4133C27.26 22.3422 27.26 22.3405 27.3351 22.344C27.5098 22.3559 27.6854 22.3451 27.8573 22.312C28.0587 22.2702 28.2573 22.2231 28.4569 22.1689C28.603 22.1294 28.742 22.0673 28.8689 21.9849C29.1915 21.7782 29.4911 21.5467 29.6964 21.2129C29.7124 21.1867 29.7324 21.1622 29.7502 21.1373C29.883 20.954 29.9879 20.7519 30.0613 20.5378C30.1548 20.244 30.23 19.9448 30.2867 19.6418C30.3254 19.4429 30.3434 19.2404 30.3404 19.0378C30.3382 18.7266 30.2961 18.4169 30.2151 18.1165ZM24.1564 21.3325C23.6627 21.3325 23.1684 21.3302 22.6742 21.3325C22.6431 21.3355 22.6118 21.3285 22.585 21.3125C22.5581 21.2965 22.537 21.2724 22.5249 21.2436C22.1551 20.5716 21.7809 19.9018 21.4111 19.2298C21.4001 19.202 21.3803 19.1786 21.3548 19.1631C21.3293 19.1475 21.2995 19.1407 21.2698 19.1436C21.0089 19.1485 20.748 19.1436 20.4871 19.1436C20.3898 19.1436 20.3893 19.1436 20.3893 19.2458C20.3893 19.8944 20.3893 20.5428 20.3893 21.1911C20.388 21.2151 20.388 21.2391 20.3893 21.2631C20.396 21.3187 20.3715 21.3316 20.3191 21.3316C19.856 21.3292 19.3927 21.3292 18.9293 21.3316C18.8773 21.3316 18.852 21.3187 18.8595 21.2627C18.8609 21.2423 18.8609 21.2218 18.8595 21.2013C18.8595 19.2458 18.8595 17.2902 18.8595 15.3347C18.8595 15.1987 18.8382 15.2129 18.9778 15.2133C19.952 15.2133 20.9267 15.2133 21.9009 15.2173C22.2341 15.2127 22.5659 15.2625 22.8831 15.3649C23.5151 15.5809 23.8875 16.0316 24.0435 16.6702C24.1474 17.0683 24.1322 17.4882 24 17.8778C23.86 18.2822 23.5764 18.5591 23.1951 18.7413C23.084 18.7942 22.9698 18.8396 22.8484 18.892L24.2595 21.3333L24.1564 21.3325ZM29.1111 20.3942C28.9641 20.7134 28.7262 20.9821 28.4271 21.1667C28.1776 21.3123 27.8973 21.3968 27.6089 21.4133C27.2162 21.4485 26.8232 21.3502 26.4933 21.1342C26.4449 21.1027 26.3942 21.0751 26.3355 21.0405C26.3245 21.08 26.3212 21.1214 26.3258 21.1622C26.3258 21.7009 26.3258 22.2396 26.3258 22.7782C26.3258 22.8022 26.3258 22.8262 26.3258 22.8502C26.3258 22.8836 26.316 22.9027 26.2813 22.9013C26.2644 22.9013 26.2471 22.9013 26.2302 22.9013H25.0751C24.9787 22.9013 24.9862 22.9089 24.9862 22.8125V20.4347C24.9862 19.2714 24.9862 18.1083 24.9862 16.9453C24.9862 16.8027 24.9715 16.824 25.1035 16.8236C25.4327 16.8236 25.7621 16.8236 26.0915 16.8236C26.1644 16.8236 26.1653 16.8236 26.1662 16.8947C26.1662 17.004 26.1662 17.1133 26.1662 17.2191C26.1795 17.2302 26.1902 17.2289 26.1969 17.2191C26.4062 16.9569 26.6889 16.8191 27.0075 16.7498C27.4388 16.6478 27.892 16.6989 28.2898 16.8942C28.7409 17.1165 29.0329 17.4791 29.2129 17.9396C29.3432 18.287 29.4075 18.6557 29.4027 19.0267C29.4124 19.4989 29.3126 19.967 29.1111 20.3942Z" fill="black"/>
<path d="M20.3889 17.1965C20.3889 16.9409 20.3889 16.6853 20.3889 16.4298C20.3889 16.3502 20.3889 16.3489 20.4778 16.3493H21.9245C22.0441 16.3499 22.1634 16.3637 22.28 16.3907C22.5618 16.4556 22.7462 16.6129 22.8196 16.8702C22.8775 17.0668 22.8789 17.2756 22.8236 17.4729C22.7427 17.7618 22.5253 17.9298 22.2151 18.004C22.0954 18.0331 21.9726 18.048 21.8493 18.0485H20.4836C20.3907 18.0485 20.3893 18.0485 20.3893 17.9618C20.3885 17.7076 20.3889 17.452 20.3889 17.1965Z" fill="black"/>
<path d="M26.2666 19.0898C26.2586 18.8336 26.295 18.578 26.3741 18.3342C26.4245 18.1807 26.5068 18.0395 26.6155 17.92C26.9964 17.5035 27.6168 17.5644 27.9088 18.0471C28.0043 18.2101 28.0669 18.3902 28.0928 18.5773C28.151 18.9542 28.1488 19.3289 28.0417 19.6978C27.9974 19.86 27.9229 20.0124 27.8221 20.1471C27.4452 20.6404 26.7697 20.5129 26.5004 20.0907C26.3908 19.9082 26.3202 19.7049 26.2932 19.4938C26.2726 19.3601 26.2637 19.225 26.2666 19.0898Z" fill="black"/>
<path d="M27.5751 22.1996C27.5508 22.115 27.5491 22.0255 27.5702 21.94C27.6066 22.0253 27.5911 22.1124 27.5751 22.1996Z" fill="black"/>
<path d="M24.6831 38.4242C20.5714 38.4242 16.4599 38.4233 12.3484 38.4215C11.904 38.4215 11.4596 38.4509 11.0151 38.3878C10.7578 38.3588 10.5106 38.2707 10.2929 38.1304C10.1031 38.002 9.99912 37.8415 10 37.5851C10.008 35.0052 10.008 32.4251 10 29.8447C10 29.578 10.1049 29.4153 10.3053 29.286C10.6022 29.0953 10.9338 29.0193 11.2778 29.0064C11.5276 28.9953 11.7787 29.002 12.0289 29.002C13.4132 29.002 14.7976 29.002 16.1822 29.002C16.2876 29.002 16.3791 29.0118 16.4711 29.0864C17.7729 30.1438 19.2582 30.81 20.8622 31.2198C22.2726 31.5817 23.728 31.7375 25.1831 31.6824C27.1187 31.6082 28.9907 31.234 30.7622 30.4073C31.5178 30.0544 32.2329 29.6331 32.8778 29.0949C32.9517 29.0313 33.047 28.9981 33.1444 29.002C34.7516 29.0046 36.3587 29.002 37.9658 29.0051C38.3157 28.9996 38.6614 29.0821 38.9711 29.2451C39.2267 29.3824 39.3524 29.5749 39.3516 29.8909C39.3418 32.4497 39.3418 35.0085 39.3516 37.5673C39.3516 37.8486 39.2404 38.0251 39.0209 38.1567C38.6996 38.3491 38.3462 38.4171 37.9804 38.4211C37.3822 38.4278 36.784 38.426 36.1858 38.426L24.6831 38.4242Z" fill="#1F9ED3"/>
<path d="M40.0982 36.5675C40.0982 34.0084 40.0946 31.4493 40.1013 28.8902C40.1013 28.3155 39.8791 27.8591 39.4582 27.4867C39.2863 27.3383 39.0947 27.2144 38.8889 27.1187C38.4162 26.8969 37.8998 26.784 37.3777 26.7884C35.6506 26.7818 33.9231 26.7858 32.196 26.7858C31.9301 26.782 31.6723 26.877 31.4724 27.0524C30.8862 27.5569 30.228 27.9467 29.5297 28.2729C27.9231 29.024 26.2209 29.3729 24.46 29.4595C22.9743 29.5349 21.486 29.3804 20.0475 29.0013C18.5871 28.6173 17.24 28.0044 16.0706 27.0329C15.8582 26.8551 15.6133 26.7858 15.3404 26.7858C13.72 26.7875 12.0994 26.7875 10.4786 26.7858C10.2228 26.7815 9.96703 26.794 9.71286 26.8231C9.1613 26.8951 8.64619 27.0658 8.20175 27.4098C7.71286 27.7893 7.45375 28.2795 7.45508 28.9133C7.4616 31.5293 7.4616 34.1453 7.45508 36.7613C7.45508 37.3542 7.68708 37.8213 8.12486 38.196C8.60708 38.6075 9.18442 38.7893 9.80486 38.8529C10.2369 38.8973 10.6711 38.8809 11.1044 38.8809C15.3337 38.8847 19.5631 38.8855 23.7924 38.8831V38.8764H37.3129C37.576 38.8791 37.8388 38.8556 38.0973 38.8062C38.6582 38.6933 39.1702 38.4795 39.5813 38.0671C39.9226 37.724 40.1089 37.3147 40.0986 36.8227C40.0969 36.7382 40.0982 36.6529 40.0982 36.5675ZM38.5262 37.2169C38.2524 37.4133 37.9377 37.4933 37.6089 37.528C37.5173 37.5369 37.4244 37.5355 37.332 37.5355H23.7937V37.5404H11.2573C10.8875 37.5404 10.5182 37.5373 10.1484 37.536C9.83491 37.5383 9.52479 37.4711 9.24042 37.3391C9.11682 37.2833 9.00584 37.203 8.91419 37.1031C8.87342 37.0633 8.84148 37.0153 8.82042 36.9623C8.79937 36.9093 8.78967 36.8525 8.79197 36.7955C8.79464 36.76 8.79197 36.7244 8.79197 36.6889C8.79197 34.1231 8.79597 31.5573 8.78619 28.9915C8.78619 28.6995 8.90664 28.5235 9.1373 28.3884C9.37223 28.253 9.63356 28.1698 9.90353 28.1444C10.0379 28.1314 10.1729 28.1255 10.308 28.1267C11.9 28.1267 13.492 28.1267 15.084 28.1231C15.2177 28.1183 15.3486 28.1622 15.4524 28.2467C16.748 29.2627 18.2186 29.9138 19.8057 30.3169C20.9972 30.6216 22.2205 30.7848 23.4502 30.8031C25.5835 30.8324 27.6515 30.5111 29.628 29.6875C30.5373 29.3089 31.3933 28.8373 32.1613 28.2151C32.238 28.1528 32.3351 28.1212 32.4338 28.1262C34.0613 28.128 35.6887 28.128 37.316 28.1262C37.6294 28.1198 37.941 28.1754 38.2329 28.2898C38.3396 28.3322 38.4405 28.3879 38.5333 28.4555C38.6096 28.5071 38.6714 28.5773 38.7129 28.6594C38.7544 28.7415 38.7743 28.8329 38.7706 28.9249C38.7653 31.5323 38.7653 34.1407 38.7706 36.7502C38.7741 36.8426 38.7534 36.9342 38.7105 37.0161C38.6676 37.0979 38.6041 37.1671 38.5262 37.2169Z" fill="black"/>
</svg>
