<svg width="82" height="32" viewBox="0 0 82 32" fill="none" xmlns="http://www.w3.org/2000/svg">
<g clip-path="url(#clip0_1744_10319)">
<path fill-rule="evenodd" clip-rule="evenodd" d="M28.4344 22.8653L33.5162 31.368H39.2583L31.5351 19.447L37.9376 11.9784L32.6261 11.5188L31.1619 12.9838L25.8504 19.5619L25.7355 25.4793L28.4344 22.8653ZM9.97332 15.7127C6.09736 17.149 6.01123 25.2208 9.1407 27.289C12.787 29.7019 15.7442 26.3698 16.06 22.7217C16.2036 20.8258 15.8303 18.0682 14.3374 16.6032C13.1889 15.4829 11.4663 15.1956 9.97332 15.7127ZM20.826 12.122H24.702L24.7594 23.9856C24.8168 30.4488 21.5438 32.8904 15.3422 30.6499C15.3422 30.6499 11.6673 32.1723 8.42293 30.9658C3.0253 28.9263 1.73331 20.3375 4.97764 15.5403C7.30321 12.122 11.1792 11.4326 14.4235 12.6678C16.2897 13.4147 18.9024 15.1956 19.5914 19.7055C19.5914 19.7055 20.5676 23.6983 18.2707 27.9497C18.2707 27.9497 20.826 28.6678 20.826 25.3931C20.826 22.1472 20.826 12.122 20.826 12.122Z" fill="url(#paint0_radial_1744_10319)"/>
<path fill-rule="evenodd" clip-rule="evenodd" d="M10.8346 4.79718C7.24579 5.86002 4.6044 9.53686 4.6044 9.53686C5.55186 11.1742 6.29834 13.185 6.38447 15.4255C13.7919 8.58892 18.9885 8.73255 28.5205 11.1742C36.6169 13.2424 41.0097 11.7487 43.7659 8.76127C43.7659 8.76127 37.708 11.9498 33.6597 10.2837C33.6597 10.2837 33.6023 10.255 33.4588 10.1975C31.2193 10.4273 27.5156 8.21549 27.5156 8.21549C22.7209 5.57277 15.6006 3.41837 10.8346 4.79718Z" fill="#A1A1A1"/>
<path fill-rule="evenodd" clip-rule="evenodd" d="M4.60441 9.16343C4.60441 9.16343 7.2458 5.48659 10.8347 4.45248C15.6006 3.04494 22.7209 5.19934 27.5156 7.87079C27.5156 7.87079 31.2193 10.0826 33.4588 9.82411C32.6549 9.50813 29.7838 8.21549 26.9701 5.80257C23.6684 2.93004 17.2659 -0.976604 10.0595 0.22986C2.85305 1.43632 0.699738 4.3663 0.699738 4.3663C0.699738 4.3663 2.93918 6.176 4.60441 9.16343Z" fill="url(#paint1_linear_1744_10319)"/>
<path fill-rule="evenodd" clip-rule="evenodd" d="M10.8346 4.45242C7.24579 5.48653 4.6044 9.16337 4.6044 9.16337C5.55186 10.8294 6.29834 12.8115 6.38447 15.0808C13.7919 8.21544 18.9885 8.35907 28.5205 10.8007C36.6169 12.8689 41.0097 11.4039 43.7659 8.41652C43.7659 8.41652 37.708 11.5763 33.6597 9.91023C33.6597 9.91023 33.6023 9.88151 33.4588 9.82406C31.2193 10.0826 27.5156 7.87074 27.5156 7.87074C22.7209 5.19928 15.6006 3.04488 10.8346 4.45242Z" fill="url(#paint2_linear_1744_10319)"/>
<path fill-rule="evenodd" clip-rule="evenodd" d="M42.5601 11.7487H43.2779V31.9713H42.5601V11.7487Z" fill="#810000"/>
<path d="M42.5601 11.72H43.3353V32H42.5314V11.72H42.5601ZM43.2491 11.7774H42.5888V31.9139H43.2491V11.7774Z" fill="#810000"/>
<path d="M47.0103 30.2765V25.3645H47.8429V27.6051H47.8716L49.5942 25.3645H50.6565L48.7329 27.8061L50.8001 30.2765H49.7091L47.8716 28.0647H47.8429V30.2765H47.0103ZM51.9485 29.5297H54.2167V30.2765H51.1159V25.3645H54.1018V26.1114H51.9485V27.404H53.786V28.1509H51.9485V29.5297ZM56.6571 30.3627C56.4274 30.3627 56.2264 30.3627 56.0254 30.3053C55.8245 30.2478 55.6522 30.1616 55.5087 30.0754C55.3651 29.9893 55.2503 29.8744 55.1354 29.7307C55.0493 29.5871 54.9631 29.4435 54.9057 29.2711C54.8483 29.1275 54.7909 28.9839 54.7909 28.8115C54.7622 28.6392 54.7622 28.4668 54.7622 28.2658V25.3645H55.5948V28.1796C55.5948 28.5243 55.6235 28.8115 55.7096 28.9839C55.7958 29.2137 55.9106 29.3573 56.0829 29.4722C56.2551 29.5584 56.4561 29.6158 56.6858 29.6158C56.9155 29.6158 57.1165 29.5584 57.26 29.4722C57.4323 29.3573 57.5758 29.2137 57.662 28.9839C57.7194 28.8115 57.7768 28.5243 57.7768 28.1796V25.3645H58.6094V28.2658C58.6094 28.4668 58.6094 28.6392 58.5807 28.8115C58.552 28.9839 58.5233 29.1275 58.4659 29.2711C58.4084 29.4435 58.3223 29.5871 58.2075 29.7307C58.1213 29.8744 57.9778 29.9893 57.8342 30.0754C57.6907 30.1616 57.5184 30.2478 57.3174 30.3053C57.1165 30.3627 56.9155 30.3627 56.6571 30.3627ZM61.9686 29.0413H60.2459L59.7866 30.2765H58.8965L60.734 25.3645H61.4805L63.318 30.2765H62.428L61.9686 29.0413ZM61.1073 26.5422C60.935 27.0593 60.7914 27.4902 60.6766 27.8349L60.5043 28.2658H61.7102L61.5666 27.8349C61.4231 27.4902 61.2795 27.0593 61.1073 26.5422ZM66.0168 27.6625C66.3613 28.1509 66.6197 28.6105 66.8207 28.9839H66.8494C66.8207 28.3519 66.792 27.8923 66.792 27.6051V25.3645H67.6533V30.2765H66.7633L65.2703 28.0072C65.0119 27.6338 64.7248 27.1742 64.4377 26.6571C64.4664 27.2604 64.4664 27.72 64.4664 28.0647V30.2765H63.6338V25.3645H64.5238L66.0168 27.6625ZM71.2422 28.4094H70.2373V27.6338H72.1035V30.1329C72.0174 30.1616 71.9312 30.1903 71.8451 30.2191C71.7303 30.2478 71.6154 30.2765 71.4719 30.3053C71.357 30.3053 71.2135 30.334 71.0699 30.3627C70.9263 30.3627 70.7828 30.3627 70.668 30.3627C70.2373 30.3627 69.8928 30.3053 69.5769 30.1903C69.2611 30.0754 69.0027 29.9031 68.8018 29.702C68.6008 29.4722 68.4572 29.2137 68.3424 28.9264C68.2562 28.6105 68.1988 28.2945 68.1988 27.921C68.1988 27.6912 68.2275 27.4327 68.285 27.2029C68.3424 26.9731 68.3998 26.7433 68.5146 26.571C68.6295 26.3699 68.7443 26.1975 68.8879 26.0252C69.0601 25.8528 69.2037 25.7379 69.4047 25.623C69.6057 25.5081 69.8066 25.4219 70.0363 25.3645C70.266 25.307 70.4957 25.2783 70.7828 25.2783C71.0125 25.2783 71.2135 25.2783 71.4144 25.307C71.6441 25.3645 71.8164 25.3932 71.9312 25.4507V26.1975C71.759 26.1401 71.5867 26.1114 71.3857 26.0826C71.2135 26.0539 71.0412 26.0252 70.8402 26.0252C70.6105 26.0252 70.3521 26.0539 70.1512 26.1401C69.9215 26.2263 69.7492 26.3412 69.5769 26.5135C69.4334 26.6571 69.2898 26.8582 69.2037 27.088C69.1176 27.3178 69.0601 27.5763 69.0601 27.8636C69.0601 28.4381 69.2037 28.8977 69.4908 29.185C69.7779 29.4722 70.1799 29.6158 70.6967 29.6158C70.7828 29.6158 70.8976 29.6158 70.9838 29.5871C71.0986 29.5871 71.1847 29.5584 71.2422 29.5584V28.4094ZM75.4339 29.0413H73.6826L73.2519 30.2765H72.3332L74.1707 25.3645H74.9459L76.7546 30.2765H75.8646L75.4339 29.0413ZM74.5439 26.5422C74.3716 27.0593 74.2281 27.4902 74.1132 27.8349L73.941 28.2658H75.1468L75.0033 27.8349C74.8597 27.4902 74.7162 27.0593 74.5726 26.5422H74.5439ZM79.4535 27.6625C79.798 28.1509 80.0564 28.6105 80.2574 28.9839H80.2861C80.2574 28.3519 80.2574 27.8923 80.2574 27.6051V25.3645H81.09V30.2765H80.1999L78.707 28.0072C78.4486 27.6338 78.1615 27.1742 77.9031 26.6571H77.8744C77.9031 27.2604 77.9031 27.72 77.9031 28.0647V30.2765H77.0705V25.3645H77.9605L79.4535 27.6625Z" fill="#616161"/>
<path d="M47.929 18.7577H48.7616V22.4058C48.7616 22.5494 48.7616 22.6931 48.7329 22.808C48.7042 22.9229 48.6755 23.0378 48.6181 23.1239C48.5606 23.2388 48.5032 23.325 48.4171 23.4112C48.331 23.4974 48.2161 23.5548 48.13 23.6123C48.0151 23.6697 47.9003 23.6984 47.7567 23.7272C47.6419 23.7559 47.4983 23.7559 47.3835 23.7559C47.24 23.7559 47.0964 23.7559 46.9528 23.7272C46.838 23.6984 46.7232 23.6697 46.637 23.641V22.8654C46.7232 22.9229 46.838 22.9516 46.9528 22.9803C47.0677 22.9803 47.1825 23.009 47.2974 23.009C47.5271 23.009 47.6706 22.9516 47.7567 22.8367C47.8716 22.7505 47.929 22.5782 47.929 22.3771V18.7577ZM52.1208 22.4345H50.3981L49.9388 23.6697H49.0487L50.8862 18.7577H51.6327L53.4702 23.6697H52.5802L52.1208 22.4345ZM51.2595 19.9354C51.0872 20.4525 50.9436 20.8834 50.8288 21.2281L50.6565 21.6589H51.8624L51.7188 21.2281C51.5753 20.8834 51.4317 20.4525 51.2595 19.9354ZM56.0255 22.2622C56.0255 22.1473 55.9967 22.0324 55.9393 21.9462C55.8819 21.8887 55.8245 21.8313 55.7096 21.7738C55.6235 21.7164 55.5087 21.6877 55.3938 21.6589C55.279 21.6302 55.1354 21.6015 54.9919 21.5728C54.8196 21.5153 54.6473 21.4579 54.5038 21.4004C54.3315 21.343 54.188 21.2855 54.0731 21.1706C53.9296 21.0557 53.8434 20.9408 53.7573 20.7972C53.6999 20.6248 53.6712 20.4238 53.6712 20.194C53.6712 19.9354 53.6999 19.7056 53.786 19.5045C53.8721 19.3322 53.987 19.1598 54.1305 19.0449C54.2741 18.9013 54.4464 18.8151 54.6473 18.7577C54.8483 18.7002 55.0493 18.6715 55.3077 18.6715C55.5661 18.6715 55.7958 18.6715 56.0542 18.729C56.2839 18.7864 56.5135 18.8439 56.6858 18.93V19.7056C56.4561 19.6194 56.2264 19.5333 55.9967 19.4758C55.7671 19.4471 55.5661 19.4184 55.3938 19.4184C55.1067 19.4184 54.9057 19.4758 54.7335 19.5907C54.5899 19.6769 54.5038 19.8492 54.5038 20.079C54.5038 20.194 54.5325 20.3089 54.5899 20.3663C54.6473 20.4525 54.7048 20.5387 54.7909 20.5674C54.877 20.6248 54.9632 20.6823 55.078 20.711C55.1928 20.7397 55.3077 20.7685 55.4225 20.7972C55.6235 20.8259 55.7958 20.8834 55.9967 20.9408C56.169 20.9983 56.3126 21.0844 56.4561 21.1993C56.5997 21.2855 56.7145 21.4291 56.7719 21.6015C56.8581 21.7451 56.8868 21.9749 56.8868 22.2334C56.8868 22.492 56.8581 22.7218 56.7719 22.9229C56.6858 23.0952 56.5422 23.2676 56.37 23.3825C56.1977 23.5261 55.9967 23.6123 55.7671 23.6697C55.5087 23.7272 55.2503 23.7559 54.9632 23.7559C54.7335 23.7559 54.4751 23.7559 54.2454 23.6984C53.987 23.641 53.786 23.5548 53.6425 23.4686V22.6931C53.8721 22.808 54.0731 22.8941 54.3028 22.9229C54.5038 22.9803 54.7335 23.009 54.9632 23.009C55.1067 23.009 55.2216 23.009 55.3651 22.9803C55.4799 22.9516 55.5948 22.9229 55.7096 22.8654C55.7958 22.808 55.8819 22.7218 55.9393 22.6356C55.9967 22.5207 56.0255 22.4058 56.0255 22.2622ZM60.1311 22.4345H58.3797L57.9491 23.6697H57.059L58.8678 18.7577H59.643L61.4518 23.6697H60.5905L60.1311 22.4345ZM59.2411 19.9354C59.0975 20.4525 58.954 20.8834 58.8104 21.2281L58.6668 21.6589H59.8727L59.7004 21.2281C59.5856 20.8834 59.442 20.4525 59.2698 19.9354H59.2411Z" fill="#616161"/>
<path d="M50.4269 14.6786C50.4269 14.3914 50.3694 14.1328 50.312 13.903C50.2546 13.6732 50.1397 13.5009 50.0249 13.3285C49.9101 13.1849 49.7665 13.07 49.5942 13.0126C49.422 12.9264 49.2497 12.8977 49.0487 12.8977C48.8478 12.8977 48.6755 12.9264 48.5032 13.0126C48.331 13.07 48.1874 13.1849 48.0726 13.3285C47.9577 13.5009 47.8429 13.6732 47.7855 13.903C47.6993 14.1328 47.6706 14.3914 47.6706 14.6786C47.6706 14.9946 47.6993 15.2531 47.7855 15.4829C47.8429 15.7127 47.9577 15.8851 48.0726 16.0287C48.1874 16.1723 48.331 16.2872 48.5032 16.3734C48.6755 16.4596 48.8478 16.4883 49.0487 16.4883C49.2497 16.4883 49.422 16.4596 49.5942 16.3734C49.7665 16.2872 49.9101 16.1723 50.0249 16.0287C50.1397 15.8851 50.2546 15.7127 50.312 15.4829C50.3694 15.2531 50.4269 14.9946 50.4269 14.6786ZM51.2882 14.6786C51.2882 15.0521 51.2308 15.3968 51.1446 15.7127C51.0298 16.0287 50.8862 16.316 50.6853 16.517C50.513 16.7468 50.2833 16.9192 49.9962 17.0628C49.7091 17.1777 49.3933 17.2352 49.0487 17.2352C48.7042 17.2352 48.3884 17.1777 48.1013 17.0628C47.8142 16.9192 47.5845 16.7468 47.3835 16.517C47.2112 16.316 47.0677 16.0287 46.9528 15.7127C46.8667 15.3968 46.8093 15.0521 46.8093 14.6786C46.8093 14.3052 46.8667 13.9605 46.9528 13.6445C47.0677 13.3573 47.2112 13.07 47.3835 12.8402C47.5845 12.6104 47.8142 12.438 48.1013 12.3231C48.3884 12.2082 48.7042 12.1221 49.0487 12.1221C49.3933 12.1221 49.7091 12.2082 49.9962 12.3231C50.2833 12.438 50.513 12.6104 50.6853 12.8402C50.8862 13.07 51.0298 13.3573 51.1446 13.6445C51.2308 13.9605 51.2882 14.3052 51.2882 14.6786ZM53.5563 17.149H52.695V12.9838H51.2308V12.237H55.0206V12.9838H53.5563V17.149ZM58.552 14.6786C58.552 14.3914 58.5233 14.1328 58.4659 13.903C58.3797 13.6732 58.2936 13.5009 58.1788 13.3285C58.0639 13.1849 57.9204 13.07 57.7481 13.0126C57.5758 12.9264 57.4036 12.8977 57.2026 12.8977C57.0016 12.8977 56.8007 12.9264 56.6571 13.0126C56.4848 13.07 56.3413 13.1849 56.2264 13.3285C56.0829 13.5009 55.9968 13.6732 55.9393 13.903C55.8532 14.1328 55.8245 14.3914 55.8245 14.6786C55.8245 14.9946 55.8532 15.2531 55.9393 15.4829C55.9968 15.7127 56.0829 15.8851 56.2264 16.0287C56.3413 16.1723 56.4848 16.2872 56.6571 16.3734C56.8007 16.4596 57.0016 16.4883 57.2026 16.4883C57.4036 16.4883 57.5758 16.4596 57.7481 16.3734C57.9204 16.2872 58.0639 16.1723 58.1788 16.0287C58.2936 15.8851 58.3797 15.7127 58.4659 15.4829C58.5233 15.2531 58.552 14.9946 58.552 14.6786ZM59.442 14.6786C59.442 15.0521 59.3846 15.3968 59.2985 15.7127C59.1837 16.0287 59.0401 16.316 58.8391 16.517C58.6669 16.7468 58.4372 16.9192 58.1501 17.0628C57.863 17.1777 57.5471 17.2352 57.2026 17.2352C56.8294 17.2352 56.5135 17.1777 56.2551 17.0628C55.968 16.9192 55.7384 16.7468 55.5374 16.517C55.3651 16.316 55.1928 16.0287 55.1067 15.7127C55.0206 15.3968 54.9632 15.0521 54.9632 14.6786C54.9632 14.3052 55.0206 13.9605 55.1067 13.6445C55.1928 13.3573 55.3651 13.07 55.5374 12.8402C55.7384 12.6104 55.968 12.438 56.2551 12.3231C56.5135 12.2082 56.8294 12.1221 57.2026 12.1221C57.5471 12.1221 57.863 12.2082 58.1501 12.3231C58.4372 12.438 58.6669 12.6104 58.8391 12.8402C59.0401 13.07 59.1837 13.3573 59.2985 13.6445C59.3846 13.9605 59.442 14.3052 59.442 14.6786ZM63.3754 13.702C63.3754 14.0467 63.2893 14.3339 63.117 14.5924C62.9448 14.8223 62.6577 14.9946 62.2844 15.1095V15.1382L63.6625 17.149H62.6577L61.3944 15.2531H60.8202V17.149H59.9876V12.237H61.3657C61.6241 12.237 61.825 12.237 62.026 12.2657C62.227 12.2944 62.3993 12.3519 62.5428 12.4093C62.8012 12.5242 63.0022 12.6679 63.1457 12.8977C63.318 13.0987 63.3754 13.386 63.3754 13.702ZM61.2508 14.5063C61.4231 14.5063 61.5954 14.4775 61.7389 14.4775C61.8538 14.4488 61.9686 14.4201 62.0547 14.3914C62.227 14.3052 62.3418 14.219 62.428 14.1041C62.4854 13.9892 62.5141 13.8456 62.5141 13.702C62.5141 13.5583 62.4854 13.4434 62.428 13.3285C62.3993 13.2424 62.3131 13.1562 62.1696 13.0987C62.0834 13.07 61.9973 13.0413 61.8825 13.0126C61.7676 12.9838 61.5954 12.9838 61.4231 12.9838H60.8202V14.5063H61.2508ZM64.0645 17.149V12.237H64.8971V17.149H64.0645ZM67.5385 17.149H66.7059V12.9838H65.2129V12.237H69.0315V12.9838H67.5385V17.149ZM71.5867 15.9138H69.8354L69.4047 17.149H68.5147L70.3234 12.237H71.0986L72.9074 17.149H72.0174L71.5867 15.9138ZM70.6967 13.4147C70.5531 13.9318 70.4096 14.3626 70.266 14.7073L70.1225 15.1382H71.2996L71.1561 14.7073C71.0412 14.3626 70.8977 13.9318 70.7254 13.4147H70.6967ZM75.4914 15.7415C75.4914 15.6266 75.4627 15.5117 75.4053 15.4255C75.3478 15.368 75.2617 15.2819 75.1756 15.2531C75.0607 15.1957 74.9459 15.167 74.831 15.1382C74.7162 15.1095 74.6014 15.0521 74.4578 15.0233C74.2855 14.9946 74.1133 14.9372 73.941 14.8797C73.7687 14.8223 73.6252 14.7361 73.5103 14.6499C73.3955 14.535 73.2807 14.4201 73.2232 14.2477C73.1371 14.1041 73.1084 13.903 73.1084 13.6732C73.1084 13.4147 73.1658 13.1849 73.2519 12.9838C73.3094 12.8115 73.4529 12.6391 73.5965 12.5242C73.74 12.3806 73.9123 12.2944 74.0846 12.237C74.2855 12.1795 74.5152 12.1221 74.7449 12.1221C75.0033 12.1221 75.2617 12.1508 75.4914 12.2082C75.7498 12.2657 75.9508 12.3231 76.123 12.4093V13.1849C75.8933 13.07 75.6637 13.0126 75.4627 12.9551C75.233 12.9264 75.032 12.8977 74.831 12.8977C74.5439 12.8977 74.343 12.9551 74.1994 13.07C74.0558 13.1562 73.9697 13.3285 73.9697 13.5583C73.9697 13.6732 73.9984 13.7594 74.0558 13.8456C74.0846 13.9318 74.1707 13.9892 74.2281 14.0467C74.3142 14.1041 74.4291 14.1616 74.5439 14.1903C74.6301 14.219 74.7449 14.2477 74.8885 14.2765C75.0894 14.3052 75.2617 14.3626 75.434 14.4201C75.6062 14.4775 75.7785 14.5637 75.8933 14.6499C76.0369 14.7648 76.1517 14.9084 76.2379 15.0808C76.324 15.2244 76.3527 15.4542 76.3527 15.7127C76.3527 15.9713 76.2953 16.2011 76.2092 16.4021C76.123 16.5745 75.9795 16.7468 75.8359 16.8617C75.6637 17.0054 75.4627 17.0915 75.2043 17.149C74.9746 17.2065 74.7162 17.2352 74.4291 17.2352C74.1707 17.2352 73.941 17.2065 73.6826 17.1777C73.4529 17.1203 73.2519 17.0341 73.0797 16.9479V16.1723C73.3094 16.2872 73.5391 16.3734 73.74 16.4021C73.9697 16.4596 74.1707 16.4883 74.4004 16.4883C74.5439 16.4883 74.6875 16.4596 74.8023 16.4596C74.9459 16.4309 75.0607 16.3734 75.1469 16.316C75.2617 16.2585 75.3191 16.2011 75.4053 16.0862C75.4627 16 75.4914 15.8851 75.4914 15.7415Z" fill="#616161"/>
</g>
<defs>
<radialGradient id="paint0_radial_1744_10319" cx="0" cy="0" r="1" gradientUnits="userSpaceOnUse" gradientTransform="translate(18.0004 24.2952) scale(40.5376 40.5581)">
<stop stop-color="#CA0000"/>
<stop offset="0.278431" stop-color="#A50000"/>
<stop offset="1" stop-color="#810000"/>
</radialGradient>
<linearGradient id="paint1_linear_1744_10319" x1="6.61543" y1="13.2281" x2="27.549" y2="-3.35301" gradientUnits="userSpaceOnUse">
<stop stop-color="#CD131E"/>
<stop offset="0.419608" stop-color="#F79475"/>
<stop offset="0.760784" stop-color="#B41318"/>
<stop offset="0.988235" stop-color="#F99578"/>
<stop offset="1" stop-color="#FEFEFE"/>
</linearGradient>
<linearGradient id="paint2_linear_1744_10319" x1="15.2249" y1="19.8121" x2="33.1702" y2="-0.731031" gradientUnits="userSpaceOnUse">
<stop stop-color="#CACBCD"/>
<stop offset="0.0117647" stop-color="#CACBCD"/>
<stop offset="0.34902" stop-color="white"/>
<stop offset="0.639216" stop-color="#BFC0C4"/>
<stop offset="0.94902" stop-color="#FEFEFE"/>
<stop offset="1" stop-color="#FEFEFE"/>
</linearGradient>
<clipPath id="clip0_1744_10319">
<rect width="80.3902" height="32" fill="white" transform="translate(0.699738)"/>
</clipPath>
</defs>
</svg>
