<svg width="48" height="49" viewBox="0 0 48 49" fill="none" xmlns="http://www.w3.org/2000/svg">
<g clip-path="url(#clip0_3015_15697)">
<path fill-rule="evenodd" clip-rule="evenodd" d="M25.0003 2.89999C25.0003 2.34771 24.5526 1.89999 24.0003 1.89999C23.448 1.89999 23.0003 2.34771 23.0003 2.89999V5.1215C22.0349 5.18427 21.0337 5.39549 20.2169 5.90424C19.3552 6.44094 18.7439 7.28524 18.6052 8.45296C18.495 9.38091 18.5971 10.2003 18.9245 10.907C19.2531 11.6162 19.7714 12.1316 20.3596 12.5104C21.475 13.2285 22.9662 13.5212 24.1864 13.7607L24.1975 13.7629L24.3065 13.7843C24.9118 13.9029 25.4663 14.0117 25.9714 14.1482C26.5087 14.2934 26.9221 14.4532 27.2215 14.6418C27.5063 14.8212 27.6552 15.005 27.7315 15.2079C27.8113 15.4203 27.8559 15.7726 27.7115 16.3624C27.6026 16.807 27.299 17.158 26.7267 17.4288C26.1324 17.7102 25.3165 17.8652 24.3824 17.8948C22.49 17.9546 20.5014 17.4937 19.6666 17.0537C19.178 16.7962 18.5732 16.9836 18.3157 17.4722C18.0582 17.9608 18.2455 18.5656 18.7341 18.8231C19.6829 19.3231 21.3167 19.7334 23.0003 19.8598V22.1C23.0003 22.6523 23.448 23.1 24.0003 23.1C24.5526 23.1 25.0003 22.6523 25.0003 22.1V19.863C25.9021 19.7907 26.8051 19.6045 27.5824 19.2366C28.5415 18.7826 29.3651 18.0183 29.6541 16.838C29.863 15.9847 29.8653 15.2004 29.6036 14.5042C29.3383 13.7985 28.8464 13.3016 28.2874 12.9495C27.7429 12.6065 27.1095 12.384 26.4932 12.2175C25.9171 12.0618 25.2965 11.9402 24.7106 11.8254L24.5827 11.8003C23.2637 11.5414 22.1776 11.3022 21.4423 10.8288C21.1035 10.6106 20.877 10.3636 20.7392 10.0663C20.6002 9.76624 20.5145 9.33473 20.5912 8.68885C20.6536 8.16375 20.8931 7.83928 21.2743 7.60187C21.6991 7.33725 22.331 7.16888 23.1335 7.11707C24.7357 7.01363 26.6396 7.3966 27.8335 7.79817C28.357 7.97424 28.9241 7.69261 29.1001 7.16914C29.2762 6.64567 28.9946 6.07858 28.4711 5.90252C27.5702 5.59953 26.3112 5.29971 25.0003 5.16867V2.89999Z" fill="#262626"/>
<path d="M17.1212 35.5961H29.6529C30.2051 35.5961 30.6591 35.1404 30.6108 34.5902C30.0684 28.4169 24.3403 31.2883 20.8115 29.875C16.3187 28.0757 14.0486 26.8858 11.5 27.835C9.26028 28.6692 7.19622 30.8938 5.76119 32.4836C5.50846 32.7635 5.43488 33.1619 5.57036 33.5139L9.20318 42.9525C9.35178 43.3386 9.7204 43.5936 10.1341 43.597C12.4291 43.6164 20.0655 43.7366 26.4095 44.4831C26.5045 44.4943 26.599 44.4922 26.6933 44.4758C34.2067 43.1691 43.1646 38.8006 45.6601 36.9205C45.7714 36.8366 45.861 36.7312 45.906 36.5993C46.481 34.9168 44.411 31.4235 39.8782 33.1667C35.1627 34.98 36.3518 34.8893 32.9075 36.34C29.7689 37.6619 26.186 37.1393 25.006 36.5216C24.816 36.4221 24.617 36.3287 24.4036 36.3079L17.1212 35.5961Z" fill="#1F9ED3"/>
<path d="M15.746 35.0723H28.9218C29.4741 35.0723 29.9276 34.6164 29.8829 34.0659C29.3455 27.4527 23.3199 30.5156 19.612 29.0147C14.9053 27.1095 11.1134 25.8496 8.44342 26.8547C6.08331 27.7431 3.90938 30.1211 2.405 31.8062C2.15593 32.0852 2.0836 32.4795 2.21669 32.829L6.05033 42.8959C6.19801 43.2837 6.56393 43.5402 6.97891 43.543C9.53179 43.5604 18.7103 43.6786 25.4825 44.4828C25.5785 44.4942 25.6734 44.492 25.7686 44.4753C33.6503 43.0913 43.0514 38.4547 45.6532 36.4675C45.7637 36.3831 45.852 36.2777 45.8975 36.1463C46.5135 34.3694 44.3458 30.6503 39.5866 32.5C34.6467 34.42 35.8924 34.324 32.2841 35.86C28.9842 37.2647 25.2156 36.7023 23.9931 36.0452C23.8029 35.943 23.6033 35.8485 23.3885 35.8273L15.746 35.0723Z" stroke="#262626" stroke-width="1.5" stroke-linejoin="round"/>
</g>
<defs>
<clipPath id="clip0_3015_15697">
<rect width="48" height="48" fill="white" transform="translate(0 0.5)"/>
</clipPath>
</defs>
</svg>
