<svg width="48" height="49" viewBox="0 0 48 49" fill="none" xmlns="http://www.w3.org/2000/svg">
<path d="M12 20.1877V9.19853C12 8.8011 12.1379 8.41995 12.3834 8.13892C12.6289 7.85789 12.9619 7.70001 13.3091 7.70001H39.4909C39.8381 7.70001 40.1711 7.85789 40.4166 8.13892C40.6621 8.41995 40.8 8.8011 40.8 9.19853V20.1877C40.8 35.925 29.1317 41.1389 26.8019 42.0231C24.4721 42.9073 24.6605 42.6026 24.4 42.5C22.0702 41.6158 12 35.925 12 20.1877Z" fill="#1F9ED3"/>
<path fill-rule="evenodd" clip-rule="evenodd" d="M9.00001 8.80001C8.81436 8.80001 8.63631 8.87376 8.50504 9.00504C8.37376 9.13631 8.30001 9.31436 8.30001 9.50001V20.5C8.30001 35.6818 21.1642 40.7267 23.7912 41.5976L23.7998 41.6005L23.7998 41.6005C23.9295 41.6452 24.0705 41.6452 24.2002 41.6005L24.2088 41.5976L24.2088 41.5976C26.8358 40.7267 39.7 35.6818 39.7 20.5V9.50001C39.7 9.31436 39.6263 9.13631 39.495 9.00504C39.3637 8.87376 39.1857 8.80001 39 8.80001H9.00001ZM7.37367 7.87367C7.805 7.44233 8.39001 7.20001 9.00001 7.20001H39C39.61 7.20001 40.195 7.44233 40.6264 7.87367C41.0577 8.305 41.3 8.89002 41.3 9.50001V20.5C41.3 36.8164 27.4374 42.2121 24.7161 43.1151C24.2519 43.2737 23.7481 43.2737 23.2839 43.1151C20.5627 42.2121 6.70001 36.8164 6.70001 20.5V9.50001C6.70001 8.89001 6.94233 8.305 7.37367 7.87367Z" fill="#262626"/>
<path fill-rule="evenodd" clip-rule="evenodd" d="M30.9836 19.1528C31.2858 19.4752 31.2695 19.9814 30.9471 20.2836L22.4138 28.2836C22.106 28.5721 21.6272 28.5721 21.3195 28.2836L17.0528 24.2836C16.7305 23.9814 16.7142 23.4752 17.0164 23.1528C17.3185 22.8305 17.8248 22.8142 18.1471 23.1164L21.8666 26.6034L29.8528 19.1164C30.1752 18.8142 30.6814 18.8305 30.9836 19.1528Z" fill="#262626"/>
</svg>
