<svg width="16" height="16" viewBox="0 0 16 16" fill="none" xmlns="http://www.w3.org/2000/svg">
<path fill-rule="evenodd" clip-rule="evenodd" d="M4.00001 1.59998C4.44183 1.59998 4.80001 1.95815 4.80001 2.39998V3.19998H5.60001C6.04183 3.19998 6.40001 3.55815 6.40001 3.99998C6.40001 4.4418 6.04183 4.79998 5.60001 4.79998H4.80001V5.59998C4.80001 6.0418 4.44183 6.39998 4.00001 6.39998C3.55818 6.39998 3.20001 6.0418 3.20001 5.59998V4.79998H2.40001C1.95818 4.79998 1.60001 4.4418 1.60001 3.99998C1.60001 3.55815 1.95818 3.19998 2.40001 3.19998H3.20001V2.39998C3.20001 1.95815 3.55818 1.59998 4.00001 1.59998ZM4.00001 9.59998C4.44183 9.59998 4.80001 9.95815 4.80001 10.4V11.2H5.60001C6.04183 11.2 6.40001 11.5581 6.40001 12C6.40001 12.4418 6.04183 12.8 5.60001 12.8H4.80001V13.6C4.80001 14.0418 4.44183 14.4 4.00001 14.4C3.55818 14.4 3.20001 14.0418 3.20001 13.6V12.8H2.40001C1.95818 12.8 1.60001 12.4418 1.60001 12C1.60001 11.5581 1.95818 11.2 2.40001 11.2H3.20001V10.4C3.20001 9.95815 3.55818 9.59998 4.00001 9.59998Z" fill="#E3E3E3"/>
<path fill-rule="evenodd" clip-rule="evenodd" d="M9.59996 1.59998C9.96295 1.59998 10.2804 1.84436 10.3733 2.19526L11.3167 5.75912L13.9997 7.30703C14.2474 7.4499 14.4 7.71407 14.4 7.99998C14.4 8.28588 14.2474 8.55005 13.9997 8.69292L11.3167 10.2408L10.3733 13.8047C10.2804 14.1556 9.96295 14.4 9.59996 14.4C9.23698 14.4 8.91949 14.1556 8.8266 13.8047L7.88322 10.2408L5.20022 8.69292C4.95258 8.55005 4.80001 8.28588 4.80001 7.99998C4.80001 7.71407 4.95258 7.4499 5.20022 7.30703L7.88323 5.75912L8.8266 2.19526C8.91949 1.84436 9.23698 1.59998 9.59996 1.59998Z" fill="#E3E3E3"/>
</svg>
