<svg width="16" height="16" viewBox="0 0 16 16" fill="none" xmlns="http://www.w3.org/2000/svg">
<path d="M1.60001 8.39998C1.60001 7.73723 2.13726 7.19998 2.80001 7.19998C3.46275 7.19998 4.00001 7.73723 4.00001 8.39998V13.2C4.00001 13.8627 3.46275 14.4 2.80001 14.4C2.13726 14.4 1.60001 13.8627 1.60001 13.2V8.39998Z" fill="#E3E3E3"/>
<path d="M4.80001 8.26664V12.6111C4.80001 13.2172 5.14241 13.7712 5.68446 14.0422L5.72434 14.0621C6.16868 14.2843 6.65864 14.4 7.15542 14.4H11.4883C12.251 14.4 12.9077 13.8616 13.0572 13.1138L14.0172 8.31376C14.2153 7.3237 13.458 6.39998 12.4483 6.39998H9.60001V3.19998C9.60001 2.31632 8.88366 1.59998 8.00001 1.59998C7.55818 1.59998 7.20001 1.95815 7.20001 2.39998V2.93331C7.20001 3.62569 6.97544 4.2994 6.56001 4.85331L5.44001 6.34664C5.02458 6.90055 4.80001 7.57426 4.80001 8.26664Z" fill="#E3E3E3"/>
</svg>
