<svg width="16" height="16" viewBox="0 0 16 16" fill="none" xmlns="http://www.w3.org/2000/svg">
<path d="M15 13H14.5V6.5C14.5 6.23478 14.3946 5.98043 14.2071 5.79289C14.0196 5.60536 13.7652 5.5 13.5 5.5H9.5V2.5C9.5 2.23478 9.39464 1.98043 9.20711 1.79289C9.01957 1.60536 8.76522 1.5 8.5 1.5H2.5C2.23478 1.5 1.98043 1.60536 1.79289 1.79289C1.60536 1.98043 1.5 2.23478 1.5 2.5V13H1C0.867392 13 0.740215 13.0527 0.646447 13.1464C0.552678 13.2402 0.5 13.3674 0.5 13.5C0.5 13.6326 0.552678 13.7598 0.646447 13.8536C0.740215 13.9473 0.867392 14 1 14H15C15.1326 14 15.2598 13.9473 15.3536 13.8536C15.4473 13.7598 15.5 13.6326 15.5 13.5C15.5 13.3674 15.4473 13.2402 15.3536 13.1464C15.2598 13.0527 15.1326 13 15 13ZM7.5 8.5C7.5 8.63261 7.44732 8.75979 7.35355 8.85355C7.25979 8.94732 7.13261 9 7 9H5C4.86739 9 4.74021 8.94732 4.64645 8.85355C4.55268 8.75979 4.5 8.63261 4.5 8.5C4.5 8.36739 4.55268 8.24021 4.64645 8.14645C4.74021 8.05268 4.86739 8 5 8H7C7.13261 8 7.25979 8.05268 7.35355 8.14645C7.44732 8.24021 7.5 8.36739 7.5 8.5ZM4 4H6C6.13261 4 6.25979 4.05268 6.35355 4.14645C6.44732 4.24021 6.5 4.36739 6.5 4.5C6.5 4.63261 6.44732 4.75979 6.35355 4.85355C6.25979 4.94732 6.13261 5 6 5H4C3.86739 5 3.74021 4.94732 3.64645 4.85355C3.55268 4.75979 3.5 4.63261 3.5 4.5C3.5 4.36739 3.55268 4.24021 3.64645 4.14645C3.74021 4.05268 3.86739 4 4 4ZM4 10.5H6C6.13261 10.5 6.25979 10.5527 6.35355 10.6464C6.44732 10.7402 6.5 10.8674 6.5 11C6.5 11.1326 6.44732 11.2598 6.35355 11.3536C6.25979 11.4473 6.13261 11.5 6 11.5H4C3.86739 11.5 3.74021 11.4473 3.64645 11.3536C3.55268 11.2598 3.5 11.1326 3.5 11C3.5 10.8674 3.55268 10.7402 3.64645 10.6464C3.74021 10.5527 3.86739 10.5 4 10.5ZM9.5 6.5H13.5V13H9.5V6.5Z" fill="#E3E3E3"/>
<path d="M12 10.5H11C10.8674 10.5 10.7402 10.5527 10.6464 10.6464C10.5527 10.7402 10.5 10.8674 10.5 11C10.5 11.1326 10.5527 11.2598 10.6464 11.3536C10.7402 11.4473 10.8674 11.5 11 11.5H12C12.1326 11.5 12.2598 11.4473 12.3536 11.3536C12.4473 11.2598 12.5 11.1326 12.5 11C12.5 10.8674 12.4473 10.7402 12.3536 10.6464C12.2598 10.5527 12.1326 10.5 12 10.5Z" fill="#E3E3E3"/>
<path d="M11 9H12C12.1326 9 12.2598 8.94732 12.3536 8.85355C12.4473 8.75979 12.5 8.63261 12.5 8.5C12.5 8.36739 12.4473 8.24021 12.3536 8.14645C12.2598 8.05268 12.1326 8 12 8H11C10.8674 8 10.7402 8.05268 10.6464 8.14645C10.5527 8.24021 10.5 8.36739 10.5 8.5C10.5 8.63261 10.5527 8.75979 10.6464 8.85355C10.7402 8.94732 10.8674 9 11 9Z" fill="#E3E3E3"/>
</svg>
