<svg width="121" height="120" viewBox="0 0 121 120" fill="none" xmlns="http://www.w3.org/2000/svg">
<circle cx="60.5" cy="60" r="60" fill="#EAF6FB"/>
<path d="M63.9125 40.527C63.8144 40.4275 63.7661 40.4559 63.6843 40.537C62.5882 41.6368 61.491 42.7355 60.3925 43.833C60.3627 43.8621 60.3364 43.8941 60.2773 43.9588C60.4196 43.9588 60.5198 43.9524 60.6165 43.9588C60.7375 43.9644 60.8526 44.0126 60.9414 44.0949C61.0303 44.1771 61.0873 44.2881 61.1022 44.4083C61.1143 44.4935 61.12 44.5796 61.1193 44.6657C61.1193 45.812 61.1193 46.9583 61.1193 48.1039C61.1193 48.2219 61.1456 48.2625 61.2701 48.2575C61.5225 48.2475 61.7757 48.2461 62.0274 48.2575C62.1639 48.2639 62.186 48.2148 62.1845 48.0918C62.1781 47.4696 62.1845 46.8474 62.1845 46.2244C62.1845 45.7807 62.3979 45.5631 62.8366 45.5624C63.4837 45.5624 64.1309 45.5624 64.778 45.5624C65.2046 45.5624 65.4258 45.7828 65.4265 46.2095C65.4265 46.8445 65.4265 47.4788 65.4265 48.1139C65.4265 48.2262 65.4514 48.2618 65.5687 48.2561C65.8205 48.2468 66.0743 48.2454 66.3261 48.2561C66.4626 48.2625 66.5024 48.2276 66.501 48.0854C66.4925 47.4511 66.4967 46.8161 66.4967 46.1811C66.4967 45.6328 66.4967 45.0845 66.4967 44.5363C66.4967 44.1636 66.7101 43.9595 67.082 43.9503C67.1531 43.9503 67.2242 43.9503 67.3259 43.9503C67.2775 43.8941 67.2548 43.8607 67.2242 43.8323C66.1172 42.7324 65.0133 41.6307 63.9125 40.527Z" fill="#1F9ED3"/>
<path d="M79.9238 48.5569C79.9477 48.501 79.9587 48.4405 79.9558 48.3798C79.9558 45.9189 79.9558 43.4577 79.9558 40.9963V34.7933V34.7556C79.9558 34.6226 79.9253 34.5878 79.7901 34.5885C77.132 34.5928 74.4741 34.5928 71.8165 34.5885C71.6778 34.5885 71.638 34.6162 71.6387 34.762V34.7926H71.6735C71.6496 34.8484 71.6386 34.909 71.6415 34.9697C71.6415 37.4349 71.6415 39.9 71.6415 42.3652V48.559V48.596C71.6415 48.729 71.6721 48.7631 71.8079 48.7631C74.4656 48.7588 77.1232 48.7588 79.7809 48.7631C79.9231 48.7631 79.9594 48.7354 79.9587 48.5889V48.559L79.9238 48.5569ZM73.3013 41.7302V41.2424C73.3013 40.8769 73.4748 40.6621 73.8325 40.6244C74.0573 40.5968 74.285 40.6009 74.5087 40.6365C74.6294 40.6521 74.7406 40.7099 74.8226 40.7998C74.9047 40.8896 74.9522 41.0056 74.9567 41.1272C74.9681 41.5304 74.9688 41.9343 74.9567 42.3361C74.9531 42.4655 74.9 42.5886 74.8083 42.68C74.7166 42.7715 74.5934 42.8242 74.4639 42.8274C74.2428 42.8374 74.0209 42.8374 73.7997 42.8274C73.6657 42.8205 73.5393 42.7625 73.4467 42.6653C73.3541 42.5681 73.3023 42.439 73.302 42.3048C73.2977 42.1128 73.302 41.9208 73.302 41.7288L73.3013 41.7302ZM74.9567 46.7734C74.9497 46.8999 74.8969 47.0194 74.8081 47.1098C74.7194 47.2002 74.6009 47.2553 74.4746 47.2648C74.2536 47.2836 74.0314 47.2836 73.8104 47.2648C73.6712 47.2576 73.5403 47.1965 73.4454 47.0944C73.3504 46.9923 73.299 46.8573 73.302 46.7179C73.302 46.3538 73.302 45.989 73.302 45.625C73.302 45.3306 73.4726 45.1101 73.7635 45.066C74.0212 45.0227 74.2846 45.0254 74.5414 45.0738C74.6558 45.0965 74.7592 45.1569 74.8352 45.2454C74.9111 45.3338 74.9552 45.4452 74.9603 45.5617C74.963 45.581 74.9647 45.6005 74.9653 45.62C74.9653 45.8027 74.9653 45.9848 74.9653 46.1668H74.9589C74.9589 46.3695 74.9681 46.5722 74.9567 46.7734ZM74.9631 37.8447C74.9567 38.164 74.7747 38.3617 74.4469 38.4001C74.217 38.4304 73.9839 38.4273 73.7549 38.3908C73.63 38.3712 73.516 38.3079 73.4332 38.2122C73.3504 38.1166 73.3042 37.9947 73.3027 37.8682C73.2984 37.6762 73.3027 37.4842 73.3027 37.2922V36.8036C73.3027 36.4381 73.4776 36.2234 73.8353 36.1864C74.0604 36.1591 74.2883 36.1632 74.5123 36.1985C74.633 36.2148 74.744 36.2733 74.8257 36.3637C74.9074 36.454 74.9546 36.5703 74.9589 36.692C74.9695 37.0753 74.9709 37.4578 74.9631 37.844V37.8447ZM76.6221 36.7567C76.6293 36.4445 76.8113 36.2404 77.1199 36.1949C77.3443 36.1615 77.5725 36.1615 77.7969 36.1949C78.1119 36.2418 78.2904 36.4523 78.2947 36.7702C78.2982 36.948 78.2947 37.1258 78.2947 37.3021C78.2947 37.465 78.2947 37.6278 78.2947 37.7899C78.2947 38.1419 78.1133 38.3588 77.767 38.4022C77.5519 38.4301 77.3339 38.4284 77.1192 38.3972C76.8092 38.3489 76.6285 38.149 76.6214 37.8354C76.6138 37.4756 76.6141 37.1158 76.6221 36.756V36.7567ZM76.6221 41.1933C76.6293 40.8818 76.8113 40.6785 77.1199 40.6322C77.3441 40.5988 77.572 40.5988 77.7962 40.6322C78.1112 40.6785 78.2897 40.8897 78.294 41.2075C78.2975 41.3846 78.294 41.5631 78.294 41.7387C78.294 41.9144 78.294 42.0836 78.294 42.2557C78.2869 42.6042 78.07 42.8246 77.7251 42.8353C77.5473 42.8405 77.37 42.8405 77.1932 42.8353C76.8511 42.826 76.6307 42.6141 76.6243 42.2714C76.6136 41.9115 76.6143 41.5524 76.6221 41.1926V41.1933ZM78.2947 46.7101C78.2962 46.7831 78.2831 46.8556 78.2563 46.9234C78.2294 46.9913 78.1892 47.0531 78.1382 47.1052C78.0871 47.1573 78.0262 47.1987 77.9589 47.227C77.8916 47.2552 77.8194 47.2698 77.7464 47.2698C77.5595 47.2797 77.3722 47.2797 77.1853 47.2698C76.8397 47.2527 76.6285 47.0273 76.6214 46.6788C76.6179 46.506 76.6214 46.3339 76.6214 46.1611C76.6214 45.9883 76.6214 45.8262 76.6214 45.6591C76.6278 45.2822 76.8568 45.0525 77.2316 45.0475C77.3937 45.0475 77.5565 45.0433 77.7187 45.0475C78.0543 45.0582 78.2876 45.2822 78.2954 45.6164C78.3032 45.9805 78.3039 46.3467 78.2947 46.7094V46.7101Z" fill="#1F9ED3"/>
<path d="M55.1181 65.7416C55.2586 65.767 55.3977 65.7997 55.5348 65.8397C56.7166 66.1298 57.3894 67.301 57.0338 68.453C56.9293 68.7915 56.7181 69.0731 56.536 69.3718C56.5005 69.4308 56.4763 69.4699 56.5403 69.5311C56.7536 69.7373 56.967 69.9521 57.176 70.1626C57.1952 70.1818 57.2166 70.1981 57.2372 70.2159L57.3332 70.1562C57.4982 70.0538 57.6617 69.9471 57.831 69.8497C58.094 69.6928 58.3892 69.5977 58.6943 69.5714C58.9994 69.5451 59.3065 69.5883 59.5925 69.6978C59.8785 69.8074 60.1359 69.9803 60.3454 70.2037C60.5549 70.4271 60.711 70.695 60.802 70.9874C60.8731 71.205 60.9172 71.4298 60.9719 71.6516C60.9911 71.7291 61.016 71.7768 61.1142 71.7739C61.395 71.7647 61.6774 71.7654 61.9582 71.7739C62.0493 71.7739 62.0784 71.7362 62.0948 71.663C62.1325 71.4959 62.1716 71.3288 62.21 71.1652C62.2687 70.9032 62.3789 70.6554 62.5341 70.4361C62.6892 70.2169 62.8863 70.0307 63.114 69.8882C63.3416 69.7456 63.5952 69.6497 63.8602 69.6059C64.1252 69.562 64.3962 69.5712 64.6576 69.6328C65.0573 69.7245 65.3929 69.9421 65.7286 70.159C65.8125 70.213 65.8573 70.2123 65.927 70.1384C66.1154 69.9378 66.3117 69.743 66.5108 69.5531C66.5819 69.4877 66.5819 69.4436 66.5286 69.3675C66.4169 69.2018 66.3152 69.029 66.2128 68.8562C65.6539 67.9147 65.9796 66.6518 66.9239 66.0914C67.2603 65.8895 67.635 65.8241 68.0098 65.7359C68.1044 65.7138 68.152 65.679 68.1463 65.5666C68.1357 65.3028 68.1371 65.0383 68.1463 64.7745C68.1499 64.6692 68.1165 64.6202 68.0155 64.6002C67.8534 64.5675 67.6926 64.5291 67.5305 64.4907C67.2604 64.4287 67.0056 64.3124 66.7818 64.1489C66.558 63.9854 66.3698 63.7781 66.2286 63.5396C66.0874 63.3011 65.9961 63.0364 65.9604 62.7615C65.9247 62.4866 65.9453 62.2074 66.0208 61.9407C66.1225 61.5809 66.3401 61.2836 66.53 60.9729C66.5847 60.884 66.5755 60.8413 66.5051 60.7745C66.3095 60.5889 66.1161 60.399 65.9362 60.2006C65.8587 60.1167 65.8046 60.1295 65.7229 60.1835C65.5657 60.2881 65.4057 60.389 65.2422 60.4836C64.8824 60.6973 64.4652 60.7939 64.0482 60.7603C63.6311 60.7267 63.2348 60.5644 62.914 60.2959C62.5072 59.9588 62.2797 59.5222 62.1773 59.0116C62.1481 58.8694 62.1474 58.6802 62.0564 58.5914C61.9654 58.5025 61.7719 58.5636 61.6297 58.5636C61.4242 58.5636 61.1582 58.479 61.0295 58.5949C60.9008 58.7108 60.9136 58.9761 60.8653 59.1759C60.5858 60.345 59.3556 61.0369 58.2278 60.6607C57.9028 60.5526 57.6283 60.3521 57.3424 60.1736C57.2656 60.1259 57.223 60.1224 57.1575 60.1906C56.9634 60.3947 56.7622 60.5917 56.5616 60.7894C56.5118 60.8378 56.4827 60.8726 56.5318 60.9458C56.6462 61.1165 56.7529 61.2936 56.8574 61.4714C57.1301 61.9369 57.2068 62.4916 57.0707 63.0136C56.9346 63.5357 56.5967 63.9823 56.1314 64.2554C55.8036 64.4495 55.4381 64.5142 55.0768 64.5974C54.9723 64.6216 54.9268 64.6586 54.9346 64.7773C54.9481 65.0239 54.9481 65.271 54.9346 65.5176C54.9175 65.669 54.9737 65.7224 55.1181 65.7416ZM61.5714 62.1092C63.2347 62.1256 64.5929 63.4994 64.5879 65.2018C64.583 66.8452 63.2013 68.2397 61.5181 68.2155C59.9792 68.2447 58.424 66.9775 58.4717 65.0433C58.5086 63.4184 59.8996 62.0929 61.5714 62.1092Z" fill="#1F9ED3"/>
<path d="M42.2953 78.4242C48.6261 78.4161 54.9567 78.414 61.287 78.4178C67.6358 78.4178 73.9851 78.4194 80.3348 78.4227C80.5581 78.4227 80.6378 78.3872 80.6378 78.1383C80.6306 69.878 80.6285 61.6175 80.6313 53.3568C80.6313 52.7879 80.386 52.5454 79.8228 52.5454H42.749C42.2001 52.5454 41.959 52.7893 41.959 53.3404C41.959 61.5893 41.9564 69.8403 41.9512 78.0935C41.9512 78.3779 42.0329 78.4242 42.2953 78.4242ZM43.1522 53.9193C43.1522 53.6498 43.2319 53.6021 43.4801 53.6028C55.3537 53.6085 67.2269 53.6085 79.0996 53.6028C79.3713 53.6028 79.4381 53.664 79.4381 53.9392C79.4296 61.6296 79.4296 69.3208 79.4381 77.0126C79.4381 77.3091 79.3563 77.3596 79.0826 77.3589C73.1505 77.3509 67.2186 77.3487 61.287 77.3525C55.3554 77.3563 49.4235 77.3587 43.4914 77.3596C43.2184 77.3596 43.1529 77.2978 43.1529 77.0226C43.161 69.3212 43.1608 61.6201 43.1522 53.9193Z" fill="#1F9ED3"/>
<path d="M81.986 79.7761C81.9243 79.7024 81.8463 79.6441 81.7582 79.6058C81.67 79.5675 81.5742 79.5504 81.4782 79.5556C68.5725 79.5613 55.667 79.563 42.7618 79.5606C42.7049 79.5606 42.648 79.5606 42.5911 79.5606C42.5494 79.5563 42.5072 79.5625 42.4684 79.5786C42.4297 79.5948 42.3956 79.6203 42.3693 79.653C41.587 80.4993 40.8048 81.3419 39.9941 82.213H84.2395C83.4693 81.3839 82.722 80.586 81.986 79.7761Z" fill="#1F9ED3"/>
<path d="M68.4224 64.2702C68.4267 64.1513 68.3887 64.0346 68.3151 63.941C68.2416 63.8474 68.1372 63.7829 68.0206 63.759C67.7056 63.6765 67.3884 63.5997 67.072 63.5236C66.2997 63.3387 65.9925 62.607 66.4036 61.9264C66.5721 61.647 66.7463 61.371 66.9127 61.0902C67.0549 60.8498 67.0364 60.6414 66.8459 60.4502C66.4149 60.0121 65.9809 59.5769 65.5438 59.1446C65.3348 58.9383 65.1228 58.9206 64.8718 59.0734C64.5817 59.2462 64.2951 59.429 64.0036 59.5968C63.3636 59.973 62.6332 59.6679 62.4576 58.9469C62.3787 58.6247 62.304 58.3019 62.2208 57.9812C62.1461 57.6918 61.9726 57.5609 61.6754 57.5609C61.0833 57.5609 60.4907 57.5609 59.8976 57.5609C59.5783 57.5609 59.3998 57.7031 59.3244 58.016C59.2533 58.3047 59.1822 58.5934 59.1168 58.8829C58.9298 59.6843 58.2165 59.9886 57.509 59.5677C57.238 59.407 56.9707 59.2406 56.6997 59.0798C56.4288 58.9191 56.2247 58.9419 56.0021 59.1623C55.5793 59.5786 55.1583 60 54.7392 60.4267C54.5301 60.64 54.5074 60.8576 54.661 61.1108C54.8267 61.3853 54.9959 61.6576 55.1623 61.9321C55.5662 62.5984 55.2562 63.3415 54.501 63.5229C54.1732 63.6018 53.8446 63.6793 53.5182 63.7646C53.4137 63.7888 53.3203 63.8475 53.2532 63.9312C53.1861 64.0149 53.1492 64.1189 53.1484 64.2262C53.1432 64.8699 53.1432 65.5133 53.1484 66.1561C53.1484 66.4014 53.2864 66.5614 53.5275 66.6233C53.8482 66.7065 54.1675 66.7847 54.4924 66.8622C55.2626 67.0471 55.5684 67.7867 55.1566 68.4622C54.9931 68.7315 54.8288 69.0003 54.6638 69.2686C54.6002 69.3554 54.5651 69.4598 54.5636 69.5673C54.5623 69.6401 54.5767 69.7123 54.6057 69.7791C54.6348 69.8458 54.6779 69.9055 54.7321 69.9542C55.1588 70.3808 55.5854 70.8075 56.0121 71.2342C56.2254 71.4475 56.4388 71.4688 56.6948 71.3145C56.9749 71.1474 57.2594 70.986 57.5317 70.8061C58.1717 70.3794 58.9639 70.7534 59.1189 71.4802C59.19 71.8045 59.2683 72.1266 59.3543 72.4466C59.3781 72.5603 59.4421 72.6617 59.5346 72.732C59.6271 72.8022 59.7418 72.8368 59.8578 72.8292C60.4741 72.8292 61.0887 72.8292 61.7017 72.8292C61.974 72.8292 62.1518 72.687 62.2215 72.4196C62.3026 72.1038 62.3979 71.7902 62.4512 71.4702C62.482 71.3035 62.5536 71.1469 62.6597 71.0146C62.7658 70.8823 62.9031 70.7783 63.0592 70.712C63.2153 70.6457 63.3854 70.6192 63.5543 70.6347C63.7232 70.6502 63.8856 70.7074 64.027 70.8011C64.3065 70.9803 64.5959 71.1495 64.8804 71.3195C65.1321 71.4688 65.3476 71.4432 65.5509 71.2413C65.9748 70.8193 66.3969 70.3965 66.8174 69.9726C67.0428 69.7458 67.0656 69.5339 66.8992 69.2615C66.7328 68.9892 66.5621 68.7154 66.3964 68.4409C66.0004 67.7831 66.314 67.0443 67.0635 66.8651C67.392 66.7869 67.7198 66.7086 68.0462 66.6233C68.1568 66.5992 68.2554 66.537 68.3249 66.4476C68.3943 66.3582 68.43 66.2472 68.426 66.1341C68.4274 65.5121 68.4262 64.8908 68.4224 64.2702ZM67.2612 65.7636C66.8885 65.8503 66.5109 65.9165 66.1746 66.1191C65.2338 66.6823 64.9074 67.9431 65.4635 68.8846C65.5659 69.0567 65.6676 69.2295 65.7792 69.3959C65.8304 69.4713 65.8304 69.5161 65.7621 69.5808C65.5623 69.7714 65.3668 69.9655 65.1776 70.1668C65.1065 70.2379 65.0631 70.2414 64.9799 70.1874C64.6436 69.9698 64.3079 69.7522 63.9083 69.6605C63.6469 69.5991 63.3759 69.59 63.111 69.634C62.8461 69.6779 62.5925 69.7739 62.3649 69.9164C62.1373 70.0589 61.9402 70.245 61.785 70.4641C61.6298 70.6832 61.5196 70.9309 61.4606 71.1929C61.4229 71.3607 61.3838 71.5271 61.3454 71.695C61.3291 71.7661 61.3006 71.808 61.2089 71.8052C60.928 71.7974 60.6464 71.7966 60.3648 71.8052C60.2645 71.8052 60.2389 71.7611 60.2226 71.6829C60.1685 71.461 60.1223 71.2363 60.0526 71.0194C59.9618 70.7269 59.8059 70.4589 59.5965 70.2354C59.3871 70.012 59.1297 69.8389 58.8437 69.7294C58.5577 69.6199 58.2506 69.5766 57.9455 69.603C57.6404 69.6294 57.3453 69.7246 57.0823 69.8816C56.9138 69.9798 56.7509 70.0857 56.5845 70.1888L56.4885 70.2486C56.4686 70.2308 56.4466 70.2144 56.4274 70.1952C56.214 69.9819 56.0078 69.7686 55.7916 69.5638C55.7276 69.5019 55.7525 69.4628 55.7874 69.4045C55.9666 69.1058 56.1778 68.8242 56.2852 68.4857C56.6407 67.3337 55.9687 66.1618 54.7861 65.8724C54.6491 65.832 54.51 65.7993 54.3694 65.7742C54.2272 65.755 54.1689 65.7031 54.1788 65.5467C54.1924 65.2999 54.1924 65.0525 54.1788 64.8057C54.1732 64.6877 54.2187 64.6507 54.3211 64.6265C54.6816 64.5426 55.0471 64.4786 55.3749 64.2838C55.6064 64.1487 55.8089 63.9693 55.9708 63.7558C56.1327 63.5423 56.2508 63.299 56.3184 63.0397C56.386 62.7804 56.4017 62.5103 56.3647 62.245C56.3276 61.9796 56.2385 61.7242 56.1024 61.4934C55.9986 61.3156 55.8891 61.1378 55.7767 60.9686C55.7276 60.8974 55.7568 60.8605 55.8066 60.8114C56.0078 60.6144 56.2091 60.4174 56.4025 60.2134C56.4679 60.1422 56.5106 60.1479 56.5881 60.1963C56.8725 60.3748 57.1477 60.5746 57.4727 60.6834C58.6005 61.0596 59.8308 60.3677 60.1109 59.1986C60.1586 58.9981 60.1479 58.7314 60.2745 58.6176C60.4011 58.5038 60.6692 58.587 60.8747 58.5863C61.0219 58.5863 61.2117 58.5216 61.3056 58.6134C61.3995 58.7051 61.3966 58.8886 61.4258 59.0336C61.5289 59.5449 61.7557 59.9815 62.1625 60.3179C62.4832 60.5866 62.8795 60.7491 63.2966 60.7828C63.7136 60.8166 64.1309 60.72 64.4907 60.5063C64.6542 60.4118 64.8149 60.3108 64.9721 60.2062C65.0532 60.1522 65.1072 60.1387 65.1854 60.2233C65.3682 60.4217 65.5609 60.6109 65.7543 60.7972C65.8254 60.864 65.8347 60.906 65.7799 60.9949C65.5893 61.3063 65.3717 61.6029 65.27 61.9634C65.1946 62.2301 65.1742 62.5093 65.21 62.7841C65.2458 63.059 65.3371 63.3236 65.4784 63.5621C65.6196 63.8005 65.8079 64.0078 66.0317 64.1712C66.2556 64.3346 66.5103 64.4508 66.7804 64.5127C66.9419 64.5497 67.1026 64.5895 67.2654 64.6222C67.3657 64.6429 67.3991 64.6934 67.3956 64.7965C67.387 65.061 67.3856 65.3255 67.3956 65.5894C67.402 65.7038 67.3557 65.7387 67.2612 65.76V65.7636Z" fill="#262626"/>
<path d="M60.8215 62.1376C59.1504 62.1212 57.7637 63.4468 57.7217 65.0716C57.6748 67.0059 59.23 68.2716 60.7689 68.2439C62.4513 68.2681 63.833 66.8729 63.838 65.2295C63.8423 63.5278 62.4855 62.1532 60.8215 62.1376ZM60.7845 67.2178C60.3835 67.2179 59.9915 67.099 59.6582 66.8762C59.3248 66.6533 59.0652 66.3365 58.912 65.9659C58.7589 65.5953 58.7193 65.1876 58.7981 64.7945C58.8769 64.4013 59.0706 64.0404 59.3548 63.7574C59.6389 63.4745 60.0006 63.2823 60.3941 63.2051C60.7876 63.128 61.1951 63.1694 61.5651 63.3241C61.935 63.4787 62.2507 63.7398 62.4722 64.074C62.6936 64.4083 62.8109 64.8008 62.809 65.2018C62.807 65.7373 62.5927 66.2502 62.2133 66.628C61.8338 67.0059 61.32 67.218 60.7845 67.2178Z" fill="#262626"/>
<path d="M77.8007 36.837C77.8007 36.9998 77.8007 37.1627 77.8007 37.3248C77.8007 37.6804 77.6194 37.8937 77.2731 37.9371C77.0579 37.9649 76.84 37.9632 76.6253 37.9321C76.3152 37.8837 76.1339 37.6839 76.1275 37.3703C76.119 37.011 76.119 36.6516 76.1275 36.2923C76.1339 35.9801 76.3159 35.776 76.6253 35.7305C76.8497 35.6974 77.0778 35.6974 77.3023 35.7305C77.6173 35.7774 77.7958 35.9879 77.8 36.3058C77.8043 36.4828 77.8014 36.6599 77.8007 36.837Z" fill="#262626"/>
<path d="M76.1241 45.6981C76.1241 45.531 76.1241 45.3632 76.1241 45.1961C76.1305 44.8192 76.3595 44.5895 76.7335 44.5845C76.8964 44.5845 77.0592 44.5803 77.2214 44.5845C77.557 44.5952 77.7903 44.8192 77.7981 45.1534C77.8066 45.5175 77.8066 45.8818 77.7981 46.2464C77.7996 46.3194 77.7865 46.3919 77.7597 46.4597C77.7328 46.5276 77.6926 46.5893 77.6416 46.6415C77.5905 46.6936 77.5296 46.735 77.4623 46.7633C77.395 46.7915 77.3228 46.8061 77.2498 46.806C77.0629 46.816 76.8756 46.816 76.6887 46.806C76.3431 46.789 76.1312 46.5636 76.1248 46.2151C76.1213 46.043 76.1241 45.8709 76.1241 45.6981Z" fill="#262626"/>
<path d="M77.8006 41.2744C77.8006 41.4472 77.8006 41.6193 77.8006 41.7914C77.7942 42.1398 77.5774 42.3602 77.2318 42.3709C77.0545 42.3761 76.8774 42.3761 76.7006 42.3709C76.3585 42.3617 76.1381 42.1498 76.1317 41.807C76.1224 41.4479 76.1231 41.0888 76.1317 40.729C76.1388 40.4175 76.3208 40.2141 76.6294 40.1679C76.8536 40.1345 77.0815 40.1345 77.3057 40.1679C77.6207 40.2141 77.7992 40.4253 77.8035 40.7432C77.8042 40.9202 77.8014 41.0973 77.8006 41.2744Z" fill="#262626"/>
<path d="M72.8013 36.8278C72.8013 36.665 72.8013 36.5028 72.8013 36.34C72.8013 35.9752 72.9762 35.7597 73.3339 35.7228C73.559 35.6955 73.7868 35.6996 74.0109 35.7348C74.1315 35.7512 74.2426 35.8097 74.3243 35.9C74.406 35.9903 74.4532 36.1066 74.4574 36.2284C74.4695 36.6116 74.4702 36.9964 74.4631 37.3804C74.456 37.6996 74.2747 37.8973 73.9461 37.9357C73.7165 37.9661 73.4837 37.963 73.2549 37.9265C73.13 37.9068 73.016 37.8436 72.9332 37.7479C72.8504 37.6522 72.8042 37.5303 72.8027 37.4038C72.7984 37.2118 72.8027 37.0198 72.8027 36.8278H72.8013Z" fill="#262626"/>
<path d="M72.8023 41.2665V40.7787C72.8023 40.4132 72.9751 40.1984 73.3335 40.1607C73.5584 40.1335 73.786 40.1376 74.0097 40.1728C74.1304 40.1884 74.2416 40.2462 74.3237 40.3361C74.4057 40.4259 74.4532 40.5419 74.4578 40.6635C74.4691 41.0667 74.4698 41.4706 74.4578 41.8724C74.4541 42.0018 74.401 42.1249 74.3093 42.2164C74.2177 42.3078 74.0944 42.3605 73.9649 42.3638C73.7438 42.3737 73.5212 42.3737 73.3008 42.3638C73.1667 42.3569 73.0404 42.2988 72.9478 42.2016C72.8552 42.1044 72.8034 41.9754 72.803 41.8411C72.798 41.6491 72.803 41.4571 72.803 41.2651L72.8023 41.2665Z" fill="#262626"/>
<path d="M74.4615 45.7067C74.4615 45.9086 74.4708 46.1113 74.4615 46.3125C74.4543 46.4389 74.4014 46.5583 74.3127 46.6485C74.224 46.7388 74.1056 46.7938 73.9794 46.8032C73.7584 46.822 73.5362 46.822 73.3152 46.8032C73.176 46.796 73.0451 46.7349 72.9501 46.6328C72.8552 46.5308 72.8038 46.3957 72.8068 46.2564C72.8068 45.8923 72.8068 45.5275 72.8068 45.1634C72.8068 44.869 72.9781 44.6485 73.269 44.6045C73.5267 44.5612 73.7901 44.5638 74.0469 44.6123C74.1613 44.6349 74.2647 44.6953 74.3407 44.7838C74.4166 44.8722 74.4607 44.9836 74.4658 45.1001C74.4658 45.1193 74.4708 45.1392 74.4708 45.1584V45.7067H74.4615Z" fill="#262626"/>
<path d="M80.5664 48.1573V48.1288C80.5692 43.5303 80.5692 38.9318 80.5664 34.3333H79.4585V38.3496C79.4585 41.6089 79.4585 44.8679 79.4585 48.1267C79.4585 48.2732 79.4193 48.3016 79.2807 48.3009C76.6225 48.2966 73.9647 48.2966 71.307 48.3009C71.1719 48.3009 71.1413 48.2668 71.1413 48.1338C71.1446 43.5926 71.1446 39.0515 71.1413 34.5103C71.1384 34.4496 71.1493 34.3891 71.1733 34.3333H70.0284C70.0313 37.1123 70.0313 39.8908 70.0284 42.6689C70.0284 44.4979 70.0284 46.3271 70.0284 48.1565C70.0288 48.177 70.0271 48.1975 70.0234 48.2177C70.0234 48.5733 70.0234 48.9288 70.0234 49.2844C70.0234 49.3263 70.0234 49.3711 70.0234 49.4159H80.5969C80.5905 48.9928 80.5678 48.5754 80.5664 48.1573Z" fill="#262626"/>
<path d="M80.5765 48.0932V48.0847C80.5732 45.3094 80.5732 42.5337 80.5765 39.7575C80.5765 37.9286 80.5765 36.0993 80.5765 34.2699C80.5762 34.2494 80.5777 34.229 80.5808 34.2087C80.5808 33.8532 80.5808 33.4976 80.5808 33.1421C80.5808 33.1008 80.5808 33.056 80.5808 33.0112H70.0293V34.1867C70.0403 34.2201 70.0452 34.2553 70.0435 34.2905C70.0402 38.889 70.0402 43.489 70.0435 48.0903H71.1536V44.0768C71.1536 40.818 71.1521 37.559 71.1493 34.2998C71.1493 34.1533 71.1884 34.1248 71.3278 34.1255C73.985 34.1298 76.6426 34.1298 79.3008 34.1255C79.4366 34.1255 79.4672 34.1597 79.4672 34.2927C79.4638 38.8338 79.4638 43.375 79.4672 47.9161C79.4699 47.9767 79.4592 48.0372 79.4359 48.0932H80.5765Z" fill="#262626"/>
<path d="M55.9681 45.2089C55.0161 44.6329 54.0609 44.0621 53.1023 43.4965C52.6379 43.2234 52.1778 43.4887 52.17 44.0263C52.165 44.3271 52.1579 44.6293 52.1736 44.9287C52.1835 45.1036 52.1231 45.1328 51.9602 45.1321C49.3528 45.1269 46.7454 45.1254 44.138 45.1278C43.4237 45.1199 42.7106 45.189 42.0111 45.334C39.4006 45.9029 37.3128 47.2818 35.7995 49.4862C34.6824 51.1139 34.0986 52.9266 34.0929 54.9113C34.0886 56.3619 34.0929 57.8133 34.0929 59.264C34.0929 60.8995 34.0964 62.5408 34.0879 64.1785C34.0879 64.3634 34.1405 64.401 34.309 64.3918C34.556 64.3754 34.8038 64.3754 35.0507 64.3918C35.2314 64.4046 35.2641 64.347 35.2641 64.1735C35.2584 61.0707 35.2555 57.9681 35.2555 54.8658C35.2567 54.3315 35.3153 53.7989 35.4305 53.2771C35.8536 51.3145 36.8242 49.6718 38.361 48.3776C39.8663 47.0829 41.776 46.3536 43.7611 46.3154C44.3222 46.2997 44.884 46.309 45.4458 46.3082C47.6189 46.3082 49.7923 46.3068 51.9659 46.304C52.1352 46.304 52.1793 46.3481 52.1714 46.513C52.1572 46.8274 52.1572 47.1424 52.1714 47.456C52.1928 47.9538 52.6642 48.2119 53.0845 47.9616C54.0459 47.3894 55.0055 46.8127 55.9631 46.2314C56.0542 46.181 56.1303 46.1072 56.1834 46.0176C56.2365 45.9279 56.2648 45.8258 56.2653 45.7216C56.2658 45.6174 56.2385 45.515 56.1863 45.4249C56.1341 45.3348 56.0587 45.2602 55.9681 45.2089Z" fill="#262626"/>
<path d="M68.4156 44.0371C66.8587 42.4835 65.3028 40.929 63.7478 39.3736C63.3958 39.0216 63.1363 39.0223 62.7857 39.3736L59.4243 42.7272C58.9791 43.1709 58.5347 43.6149 58.091 44.0591C57.9039 44.2454 57.8264 44.4588 57.9331 44.7112C58.0398 44.9636 58.2417 45.0426 58.502 45.0376C58.7786 45.0333 59.0567 45.0468 59.3333 45.0326C59.4755 45.0255 59.5018 45.0732 59.5011 45.2061C59.4954 46.3396 59.5011 47.4732 59.5011 48.6067C59.5011 49.1713 59.6689 49.337 60.2399 49.337H63.2707C64.3184 49.337 65.3656 49.337 66.4124 49.337C66.839 49.337 67.0389 49.1336 67.0396 48.7012C67.0396 47.5428 67.0396 46.3852 67.036 45.2268C67.036 45.081 67.0581 45.0248 67.2209 45.0333C67.5153 45.0483 67.8118 45.0412 68.1077 45.0333C68.2383 45.0375 68.3657 44.9924 68.4646 44.9069C68.5634 44.8213 68.6264 44.7017 68.641 44.5718C68.6723 44.3492 68.5656 44.1871 68.4156 44.0371ZM63.7976 48.1537C63.7976 48.2333 63.7734 48.2589 63.6938 48.2575C63.4094 48.254 63.1285 48.2525 62.8454 48.2575C62.753 48.2575 62.7331 48.2262 62.7345 48.1409C62.7395 47.914 62.7345 47.6865 62.7345 47.4589C62.7345 47.2314 62.7345 47.0038 62.7345 46.777C62.7345 46.6831 62.7566 46.649 62.8561 46.6511C63.1263 46.6582 63.3973 46.6561 63.6675 46.6511C63.7557 46.6511 63.7998 46.6632 63.7983 46.7692C63.7934 47.2314 63.7948 47.6922 63.7976 48.1537ZM66.539 43.9539C66.1656 43.9631 65.9566 44.1672 65.9537 44.5398C65.9494 45.0881 65.9537 45.6364 65.9537 46.1846C65.9537 46.8196 65.9487 47.4547 65.9573 48.089C65.9573 48.2312 65.9189 48.266 65.7823 48.2596C65.5306 48.2483 65.2767 48.2497 65.025 48.2596C64.9084 48.2646 64.8828 48.2291 64.8828 48.1174C64.8885 47.4831 64.8828 46.8481 64.8828 46.2131C64.8828 45.7864 64.6623 45.5667 64.2342 45.566C63.5871 45.566 62.94 45.566 62.2929 45.566C61.8549 45.566 61.6415 45.7843 61.6408 46.228C61.6408 46.8509 61.6373 47.4732 61.6408 48.0954C61.6408 48.2184 61.6202 48.2675 61.4837 48.2611C61.2319 48.249 60.9788 48.2504 60.7263 48.2611C60.6019 48.266 60.5756 48.2255 60.5756 48.1075C60.5798 46.9616 60.5798 45.8156 60.5756 44.6692C60.5763 44.5831 60.5706 44.4971 60.5585 44.4118C60.5436 44.2917 60.4866 44.1807 60.3977 44.0984C60.3089 44.0162 60.1938 43.968 60.0728 43.9624C59.9761 43.9546 59.8773 43.9624 59.7336 43.9624C59.7926 43.8977 59.819 43.8657 59.8488 43.8365C60.9458 42.7381 62.0431 41.6394 63.1406 40.5405C63.2223 40.4588 63.2707 40.431 63.3688 40.5306C64.4673 41.6361 65.569 42.739 66.6741 43.8394C66.7032 43.8678 66.7274 43.9012 66.7758 43.9574C66.6819 43.9539 66.6101 43.9524 66.539 43.9539Z" fill="#262626"/>
<path d="M85.0056 82.3041C83.9795 81.2062 82.9633 80.0997 81.9365 79.0024C81.8642 78.9312 81.8074 78.8458 81.7697 78.7515C81.732 78.6573 81.7143 78.5563 81.7175 78.4549C81.7232 70.1185 81.7104 61.7821 81.736 53.4458C81.736 52.2419 80.9189 51.3985 79.7029 51.4006C67.3637 51.4215 55.0245 51.4232 42.6853 51.4056C41.4544 51.4056 40.7724 52.4054 40.7745 53.3014C40.7949 61.6925 40.7999 70.0856 40.7895 78.4805C40.7951 78.5634 40.7835 78.6465 40.7552 78.7246C40.7269 78.8027 40.6826 78.8741 40.6252 78.9342C39.5976 80.0307 38.59 81.1457 37.5546 82.2344C37.4371 82.3499 37.3504 82.493 37.3024 82.6506C37.2545 82.8083 37.2468 82.9754 37.2801 83.1368C37.3084 83.3231 37.3493 83.5072 37.4024 83.6879C37.7153 84.7304 38.2515 85.1258 39.3402 85.1258H61.1991C68.5704 85.1258 75.9423 85.1279 83.3146 85.1322C83.8778 85.1322 84.2668 84.9025 84.5726 84.4652C84.8784 84.0278 85.0419 83.5478 85.1927 83.0501C85.2823 82.75 85.2126 82.5253 85.0056 82.3041ZM41.918 53.3327C41.918 52.7816 42.1598 52.5377 42.708 52.5377H79.7818C80.3457 52.5377 80.5911 52.7823 80.5911 53.3491C80.5911 61.6094 80.5932 69.8696 80.5975 78.1299C80.5975 78.3795 80.5178 78.4143 80.2945 78.4143C73.9453 78.4082 67.5958 78.4065 61.246 78.4094C54.9157 78.4094 48.5854 78.4112 42.2551 78.415C41.992 78.415 41.9102 78.3695 41.9109 78.0844C41.9204 69.8345 41.9227 61.584 41.918 53.3327ZM41.5027 79.6495C41.5291 79.6163 41.5635 79.5902 41.6026 79.5738C41.6418 79.5574 41.6845 79.5511 41.7267 79.5557C41.7829 79.5592 41.8405 79.5557 41.8967 79.5557C54.8029 79.5557 67.7086 79.554 80.6138 79.5507C80.7103 79.546 80.8065 79.5639 80.8948 79.603C80.9831 79.6422 81.061 79.7015 81.1223 79.7761C81.8583 80.5861 82.6078 81.3839 83.3751 82.211H39.1276C39.9383 81.3384 40.7226 80.4958 41.5027 79.6495ZM82.9641 83.9944L39.7356 84.0044C39.6033 84.0044 39.4711 83.9965 39.3388 83.9944C38.804 83.988 38.7159 83.9233 38.5566 83.375H83.8067C83.5756 83.993 83.5756 83.9937 82.9641 83.9944Z" fill="#262626"/>
<path d="M79.3965 53.9293C79.3965 53.6548 79.3303 53.5929 79.0587 53.5929C67.185 53.601 55.3119 53.601 43.4391 53.5929C43.191 53.5929 43.1113 53.6405 43.1113 53.9101C43.1199 61.6104 43.1199 69.3111 43.1113 77.0119C43.1113 77.2871 43.1768 77.349 43.4491 77.349C49.3812 77.34 55.313 77.3376 61.2447 77.3419C67.1763 77.3461 73.1084 77.3483 79.0409 77.3483C79.3161 77.3483 79.3965 77.2985 79.3965 77.002C79.3875 69.3115 79.3875 61.6206 79.3965 53.9293ZM78.2644 75.9161C78.2644 76.1621 78.2125 76.2226 77.9608 76.2226C66.8262 76.2155 55.6914 76.2155 44.5563 76.2226C44.2861 76.2226 44.2441 76.1401 44.2441 75.8962C44.2503 68.9439 44.2503 61.9909 44.2441 55.0372C44.2441 54.7925 44.2953 54.7293 44.5478 54.73C50.12 54.7385 55.6921 54.7406 61.2639 54.7364C66.8176 54.7364 72.3709 54.7345 77.9238 54.7307C78.1826 54.7307 78.2672 54.7698 78.2665 55.0564C78.257 62.0101 78.2563 68.9633 78.2644 75.9161Z" fill="#262626"/>
</svg>
