<svg width="120" height="120" viewBox="0 0 120 120" fill="none" xmlns="http://www.w3.org/2000/svg">
<circle cx="60" cy="60" r="60" fill="#EAF6FB"/>
<path d="M78.6234 66.949H42.563C40.9976 66.949 39.7285 68.218 39.7285 69.7835V80.8242C39.7285 82.3896 40.9976 83.6587 42.563 83.6587H78.6234C80.1889 83.6587 81.4579 82.3896 81.4579 80.8242V69.7835C81.4579 68.218 80.1889 66.949 78.6234 66.949Z" fill="#1F9ED3"/>
<path d="M53.7259 52.0526C53.7294 51.9346 53.6924 51.8798 53.5794 51.8571C53.3973 51.8208 53.2167 51.776 53.0361 51.7348C52.7331 51.6653 52.4475 51.5349 52.1965 51.3516C51.9455 51.1682 51.7344 50.9358 51.5761 50.6683C51.4177 50.4009 51.3154 50.104 51.2753 49.7958C51.2352 49.4876 51.2582 49.1744 51.3429 48.8754C51.4567 48.4715 51.6985 48.1387 51.9118 47.7902C51.973 47.69 51.9623 47.643 51.8834 47.5677C51.6644 47.3593 51.4475 47.1474 51.2434 46.9241C51.1566 46.8295 51.0962 46.8452 51.0052 46.9056C50.8288 47.0229 50.6496 47.136 50.4661 47.2413C50.0624 47.4805 49.5943 47.5885 49.1266 47.5503C48.6588 47.5121 48.2145 47.3296 47.8549 47.0279C47.3991 46.651 47.1438 46.1611 47.0293 45.5879C46.9966 45.4251 46.9959 45.2167 46.8942 45.1165C46.7925 45.0162 46.5764 45.0859 46.4114 45.0866C46.1803 45.0866 45.8823 44.9906 45.738 45.1207C45.5936 45.2509 45.6078 45.5474 45.5545 45.7721C45.2402 47.0834 43.8613 47.8592 42.5963 47.4375C42.2322 47.3159 41.925 47.0912 41.6007 46.8914C41.514 46.8373 41.4663 46.8331 41.3931 46.9106C41.1755 47.1389 40.95 47.36 40.7246 47.5812C40.6692 47.6359 40.6364 47.675 40.6912 47.7568C40.8199 47.9488 40.9401 48.1465 41.0567 48.3463C41.3625 48.8682 41.4485 49.4902 41.2958 50.0754C41.1431 50.6607 40.7642 51.1614 40.2425 51.4674C39.8748 51.6857 39.4652 51.7582 39.0606 51.8514C38.9426 51.8791 38.8914 51.9225 38.8978 52.0526C38.9127 52.3293 38.9127 52.6066 38.8978 52.8832C38.8864 53.0574 38.9497 53.1172 39.1111 53.1385C39.2687 53.1669 39.4246 53.2037 39.5783 53.2487C40.9038 53.5737 41.6576 54.8843 41.2594 56.1785C41.142 56.5582 40.9038 56.8747 40.704 57.2089C40.6649 57.275 40.6372 57.3184 40.709 57.3874C40.9508 57.6192 41.1847 57.8596 41.4201 58.0985C41.4414 58.1198 41.4663 58.1383 41.4912 58.1582L41.5986 58.0914C41.7842 57.9762 41.9669 57.8574 42.1554 57.7472C42.4505 57.57 42.782 57.4622 43.1248 57.432C43.4677 57.4019 43.813 57.45 44.1345 57.5729C44.456 57.6958 44.7453 57.8902 44.9806 58.1415C45.2159 58.3927 45.391 58.6941 45.4926 59.023C45.5708 59.2662 45.622 59.5207 45.6839 59.7668C45.7052 59.8542 45.7337 59.909 45.846 59.904C46.1611 59.8941 46.4775 59.8948 46.7925 59.904C46.8949 59.904 46.9276 59.8621 46.9461 59.7803C46.9881 59.5925 47.0322 59.4055 47.0748 59.2178C47.1409 58.9241 47.2645 58.6463 47.4385 58.4006C47.6125 58.155 47.8335 57.9462 48.0886 57.7864C48.3438 57.6266 48.6281 57.5189 48.9251 57.4696C49.2221 57.4202 49.5259 57.4303 49.819 57.499C50.2677 57.6021 50.6439 57.8461 51.0208 58.09C51.1147 58.1504 51.163 58.1497 51.2427 58.0665C51.4546 57.8418 51.6729 57.623 51.8976 57.4101C51.9751 57.339 51.9744 57.2871 51.9175 57.2025C51.7924 57.0162 51.6779 56.8221 51.562 56.6294C50.9362 55.5733 51.3017 54.1597 52.3563 53.5289C52.7339 53.3028 53.1577 53.2288 53.5744 53.1314C53.6811 53.1065 53.733 53.0674 53.728 52.9415C53.7145 52.6457 53.7159 52.3485 53.7259 52.0526ZM46.2926 55.9154C44.5668 55.9474 42.8231 54.5273 42.8793 52.3598C42.9241 50.538 44.4807 49.0517 46.3545 49.0695C48.2283 49.0873 49.7401 50.6276 49.7344 52.5333C49.7287 54.3822 48.1792 55.9424 46.2926 55.9154Z" fill="#1F9ED3"/>
<path d="M78.6495 36.3242C77.7577 36.3356 76.866 36.337 75.9743 36.3242C75.7517 36.3207 75.6848 36.3648 75.6856 36.6037C75.6941 40.648 75.6962 44.6921 75.692 48.736C75.692 52.7879 75.6898 56.8412 75.6856 60.896C75.6856 61.1356 75.7524 61.1747 75.97 61.1719C76.861 61.1584 77.7535 61.1569 78.6445 61.1719C78.8649 61.1754 78.8962 61.1079 78.8962 60.9088C78.8905 55.766 78.8891 50.6223 78.8919 45.4777C78.8919 42.5081 78.8934 39.5387 78.8962 36.5696C78.8998 36.3676 78.8443 36.32 78.6495 36.3242Z" fill="#1F9ED3"/>
<path d="M61.039 41.9455C60.1395 41.9533 59.2399 41.9569 58.3411 41.9455C58.1206 41.942 58.0566 41.9825 58.0566 42.2214C58.0666 45.3333 58.063 48.4458 58.063 51.5576C58.063 54.6694 58.063 57.7976 58.0588 60.918C58.0588 61.1043 58.0851 61.1733 58.2963 61.1697C59.2115 61.1562 60.1267 61.1597 61.0419 61.1697C61.2097 61.1697 61.2694 61.1455 61.2694 60.9564C61.2633 54.6924 61.2633 48.4285 61.2694 42.1645C61.2666 41.969 61.209 41.9441 61.039 41.9455Z" fill="#1F9ED3"/>
<path d="M70.0711 53.1797C70.0711 50.5765 70.0711 47.9732 70.0711 45.3695C70.0711 45.1982 70.0405 45.1427 69.8577 45.1448C68.9333 45.1562 68.0089 45.1548 67.0844 45.1448C66.9137 45.1448 66.8789 45.1939 66.8789 45.3582C66.8832 50.5573 66.8832 55.756 66.8789 60.9543C66.8789 61.1491 66.95 61.1676 67.1093 61.1676C68.0167 61.1612 68.9248 61.1569 69.8321 61.1676C70.0362 61.1676 70.0746 61.1121 70.0739 60.918C70.0687 58.339 70.0678 55.7596 70.0711 53.1797Z" fill="#1F9ED3"/>
<path d="M54.1743 51.4837C54.1796 51.3503 54.1371 51.2194 54.0547 51.1144C53.9722 51.0093 53.8551 50.9371 53.7242 50.9105C53.3687 50.8181 53.0131 50.7313 52.6575 50.646C51.7921 50.4384 51.4487 49.6184 51.908 48.8554C52.0972 48.5418 52.292 48.2325 52.4769 47.9175C52.6369 47.648 52.6191 47.4147 52.4058 47.1971C51.9223 46.705 51.4359 46.217 50.9466 45.7329C50.7127 45.5018 50.4744 45.4819 50.1935 45.6497C49.8679 45.8439 49.5464 46.0451 49.22 46.2371C48.5039 46.6581 47.6833 46.3125 47.4863 45.5082C47.3982 45.147 47.3143 44.785 47.2211 44.4252C47.1372 44.1009 46.9431 43.9544 46.6088 43.9537C45.9451 43.9537 45.2814 43.9537 44.6177 43.9537C44.2622 43.9537 44.0588 44.1144 43.9777 44.4643C43.9002 44.7886 43.8213 45.1121 43.7452 45.4364C43.5319 46.3352 42.7354 46.6766 41.9418 46.2044C41.6389 46.0238 41.3388 45.8375 41.0351 45.6568C40.7315 45.4762 40.5018 45.5025 40.2529 45.75C39.7788 46.2212 39.3048 46.6953 38.8307 47.1722C38.5967 47.409 38.5711 47.6551 38.7432 47.9395C38.9288 48.2474 39.1194 48.5525 39.3057 48.8597C39.758 49.6078 39.411 50.4405 38.564 50.6439C38.1964 50.7328 37.828 50.8195 37.4625 50.9148C37.3452 50.9418 37.2405 51.0077 37.1653 51.1016C37.0901 51.1956 37.0487 51.3121 37.0479 51.4325C37.0413 52.1536 37.0413 52.8751 37.0479 53.5971C37.0479 53.8716 37.2015 54.0508 37.4746 54.1205C37.8344 54.2136 38.1957 54.3011 38.5569 54.3879C39.4202 54.5962 39.7658 55.4211 39.3015 56.1827C39.1156 56.4856 38.9307 56.7862 38.7468 57.0844C38.6755 57.1817 38.6362 57.2987 38.6344 57.4193C38.6329 57.5009 38.6489 57.5819 38.6814 57.6567C38.714 57.7316 38.7622 57.7986 38.8229 57.8531C39.3015 58.331 39.7772 58.8117 40.2565 59.2888C40.494 59.5256 40.7329 59.552 41.0223 59.3792C41.3367 59.1914 41.6552 59.0108 41.9603 58.8103C42.6785 58.3367 43.5667 58.7512 43.7381 59.5662C43.8156 59.9296 43.9045 60.2908 44.0012 60.6499C44.0773 60.9344 44.2771 61.0766 44.5658 61.0766C45.2556 61.0766 45.9449 61.0766 46.6337 61.0766C46.9388 61.0766 47.1386 60.9187 47.2161 60.6172C47.3071 60.2616 47.4145 59.9118 47.4743 59.5505C47.5923 58.8437 48.4577 58.2983 49.2414 58.801C49.555 59.0016 49.8757 59.1914 50.1957 59.382C50.4801 59.5491 50.7191 59.5242 50.9473 59.2938C51.4214 58.8198 51.8955 58.3457 52.3695 57.8716C52.6213 57.617 52.6469 57.3795 52.4606 57.0716C52.2743 56.7637 52.083 56.46 51.8974 56.1521C51.4522 55.414 51.8042 54.5877 52.6447 54.385C53.0131 54.2968 53.3807 54.2101 53.7463 54.1141C53.8705 54.0872 53.9813 54.0174 54.0592 53.9171C54.1372 53.8167 54.1775 53.6921 54.1729 53.5651C54.1781 52.8734 54.1786 52.1796 54.1743 51.4837ZM52.8723 53.1548C52.4556 53.2522 52.0318 53.3262 51.6542 53.5523C50.5989 54.1838 50.2319 55.5968 50.8599 56.6528C50.9743 56.8462 51.0888 57.0396 51.2154 57.2259C51.2723 57.3105 51.2723 57.3603 51.1955 57.4336C50.9713 57.6469 50.753 57.8657 50.5406 58.0899C50.4623 58.1731 50.4126 58.1738 50.3187 58.1134C49.9418 57.8695 49.5649 57.6256 49.1169 57.5224C48.8238 57.4532 48.5198 57.4428 48.2227 57.4919C47.9255 57.541 47.641 57.6486 47.3857 57.8085C47.1305 57.9684 46.9095 58.1774 46.7356 58.4233C46.5617 58.6692 46.4384 58.9472 46.3727 59.2412C46.3301 59.4289 46.286 59.616 46.244 59.8037C46.2248 59.8862 46.1928 59.9303 46.0904 59.9274C45.7754 59.9189 45.459 59.9182 45.1439 59.9274C45.0309 59.9274 45.0017 59.8769 44.9818 59.7902C44.9199 59.5413 44.8687 59.2924 44.7905 59.0456C44.6886 58.7177 44.5137 58.4172 44.2789 58.1667C44.044 57.9162 43.7554 57.7222 43.4347 57.5994C43.1141 57.4766 42.7697 57.4281 42.4276 57.4576C42.0855 57.4872 41.7545 57.594 41.4597 57.7699C41.2712 57.8801 41.0885 57.9989 40.9029 58.1141L40.7955 58.1809C40.772 58.1617 40.7479 58.1432 40.7244 58.1219C40.4876 57.8851 40.2536 57.6448 40.0133 57.4108C39.9422 57.3397 39.9685 57.2984 40.0083 57.2323C40.2095 56.8981 40.4463 56.5816 40.563 56.2019C40.9619 54.9105 40.2074 53.5971 38.8826 53.2721C38.7289 53.2274 38.5729 53.1906 38.4154 53.1619C38.2533 53.1406 38.19 53.0808 38.2021 52.9066C38.217 52.6302 38.217 52.3532 38.2021 52.0768C38.1957 51.9438 38.2469 51.9025 38.3642 51.8748C38.7688 51.7816 39.1791 51.7091 39.5468 51.4908C40.0686 51.1848 40.4474 50.6841 40.6001 50.0989C40.7528 49.5136 40.6668 48.8916 40.361 48.3697C40.2437 48.1706 40.1242 47.9722 39.9955 47.7802C39.9407 47.6984 39.9735 47.6593 40.0289 47.6046C40.2543 47.3834 40.4798 47.1623 40.6974 46.934C40.7685 46.8572 40.8183 46.8629 40.905 46.9148C41.2257 47.1146 41.5329 47.3415 41.897 47.4609C43.1621 47.8833 44.5409 47.1054 44.8545 45.7962C44.9086 45.5715 44.8972 45.2721 45.0387 45.1448C45.1802 45.0176 45.481 45.11 45.7121 45.11C45.8771 45.11 46.0897 45.0389 46.1943 45.1406C46.2988 45.2423 46.2967 45.4485 46.3294 45.6113C46.4446 46.1845 46.6999 46.6744 47.1557 47.0513C47.5152 47.3531 47.9595 47.5357 48.4273 47.5739C48.8951 47.6121 49.3632 47.504 49.7669 47.2647C49.9496 47.1587 50.1295 47.0456 50.3059 46.9283C50.3962 46.8679 50.4574 46.8529 50.5441 46.9475C50.7489 47.1701 50.9658 47.382 51.1841 47.5911C51.2631 47.6657 51.2737 47.7127 51.2126 47.8129C50.9992 48.1621 50.7553 48.4942 50.6437 48.8981C50.5589 49.1971 50.5357 49.5102 50.5757 49.8184C50.6157 50.1267 50.718 50.4235 50.8763 50.691C51.0346 50.9584 51.2456 51.1909 51.4966 51.3743C51.7476 51.5576 52.0332 51.688 52.3361 51.7575C52.5175 51.7987 52.6981 51.8435 52.8801 51.8798C52.9932 51.9025 53.0302 51.9573 53.0266 52.0753C53.0167 52.3719 53.0152 52.6684 53.0266 52.9642C53.0316 53.0908 52.9783 53.1299 52.8723 53.1548Z" fill="#262626"/>
<path d="M45.6502 49.0922C43.7764 49.0737 42.2198 50.5599 42.175 52.3818C42.1217 54.5507 43.8653 55.9715 45.5884 55.9374C47.4749 55.9637 49.0244 54.3999 49.0294 52.5575C49.038 50.651 47.5162 49.11 45.6502 49.0922ZM45.6104 54.7882C45.3096 54.7903 45.0113 54.7325 44.733 54.6183C44.4547 54.504 44.202 54.3355 43.9894 54.1226C43.7768 53.9097 43.6087 53.6567 43.4949 53.3782C43.3811 53.0997 43.3238 52.8014 43.3263 52.5006C43.3263 51.2611 44.3532 50.2456 45.6083 50.2463C45.9099 50.241 46.2095 50.2958 46.4897 50.4075C46.7699 50.5193 47.025 50.6857 47.2402 50.8971C47.4554 51.1085 47.6263 51.3606 47.743 51.6388C47.8597 51.917 47.9197 52.2156 47.9197 52.5173C47.9197 52.8189 47.8597 53.1176 47.743 53.3957C47.6263 53.6739 47.4554 53.9261 47.2402 54.1375C47.025 54.3489 46.7699 54.5153 46.4897 54.627C46.2095 54.7388 45.9099 54.7936 45.6083 54.7882H45.6104Z" fill="#262626"/>
<path d="M79.8899 34.4896C79.8899 34.2869 79.8309 34.2428 79.6382 34.2435C77.6717 34.2506 75.7055 34.2506 73.7395 34.2435C73.5113 34.2435 73.4551 34.2954 73.4551 34.528C73.4631 39.1056 73.465 43.6828 73.4608 48.2595C73.4608 52.8528 73.4589 57.4461 73.4551 62.0394C73.4551 62.2642 73.5191 62.3097 73.7317 62.309C75.6982 62.3004 77.6656 62.3004 79.6339 62.309C79.8416 62.309 79.897 62.2635 79.897 62.0501C79.8866 52.8611 79.8842 43.6743 79.8899 34.4896ZM78.2757 45.0005C78.2757 50.1433 78.2771 55.287 78.28 60.4316C78.28 60.6307 78.2487 60.6983 78.0282 60.6947C77.1374 60.6791 76.2459 60.6791 75.3537 60.6947C75.1333 60.6947 75.0693 60.6592 75.0693 60.4195C75.0788 56.3676 75.0809 52.3143 75.0757 48.2595C75.0757 44.2157 75.0736 40.1714 75.0693 36.1266C75.0693 35.8883 75.1354 35.8421 75.3587 35.8478C76.2497 35.8613 77.1415 35.8599 78.0332 35.8478C78.2295 35.8478 78.2835 35.8912 78.2828 36.0924C78.2743 39.0616 78.2719 42.0309 78.2757 45.0005Z" fill="#262626"/>
<path d="M62.2555 51.0791C62.2555 47.425 62.2569 43.7708 62.2598 40.1166C62.2598 39.9168 62.2285 39.8478 62.0052 39.8493C60.0226 39.8599 58.0401 39.8571 56.0582 39.8493C55.8811 39.8493 55.8164 39.8791 55.8164 40.0775C55.8226 47.4105 55.8226 54.743 55.8164 62.075C55.8164 62.2727 55.879 62.3047 56.0568 62.304C58.0384 62.2983 60.0207 62.2983 62.0038 62.304C62.2256 62.304 62.2598 62.2386 62.2598 62.0374C62.2541 58.3865 62.2527 54.7338 62.2555 51.0791ZM60.6463 60.4743C60.6463 60.6649 60.5865 60.6877 60.4194 60.6877C59.5042 60.6798 58.5883 60.6756 57.6731 60.6877C57.4598 60.6877 57.4356 60.6222 57.4356 60.4352C57.4418 57.3158 57.4432 54.1959 57.4399 51.0756C57.4399 47.963 57.4434 44.8512 57.4335 41.7394C57.4335 41.4998 57.5003 41.4599 57.7179 41.4635C58.6175 41.477 59.517 41.4734 60.4159 41.4635C60.583 41.4635 60.6434 41.487 60.6434 41.6768C60.6411 47.9446 60.642 54.2104 60.6463 60.4743Z" fill="#262626"/>
<path d="M71.0641 52.6756C71.0641 49.5467 71.0641 46.4178 71.0641 43.2889C71.0641 43.1161 71.0406 43.0464 70.8387 43.0471C68.8476 43.0561 66.8564 43.0561 64.8653 43.0471C64.6918 43.0471 64.6406 43.082 64.6406 43.2654C64.6463 49.5389 64.6463 55.812 64.6406 62.085C64.6406 62.2727 64.6982 62.3019 64.8675 62.2983C66.842 62.2926 68.8165 62.2926 70.791 62.2983C71.0044 62.2983 71.0648 62.2542 71.0641 62.0309C71.0594 58.9168 71.0594 55.7983 71.0641 52.6756ZM69.2152 60.6877C68.3078 60.6749 67.3997 60.6791 66.4924 60.6877C66.3309 60.6877 66.262 60.6713 66.262 60.4743C66.2681 55.2752 66.2681 50.0765 66.262 44.8782C66.262 44.7154 66.2968 44.6649 66.4675 44.6649C67.3919 44.6741 68.3164 44.6756 69.2408 44.6649C69.4271 44.6649 69.4584 44.7175 69.4584 44.8896C69.4527 47.4932 69.4513 50.0966 69.4541 52.6997C69.4541 55.2792 69.4558 57.8586 69.4591 60.4381C69.4584 60.635 69.4172 60.6933 69.2124 60.6905L69.2152 60.6877Z" fill="#262626"/>
<path d="M48.7575 79.5378H42.5879V68.6315H48.7575V70.1383H44.3706V73.1072H48.4794V74.6005H44.3692V78.0245H48.7561L48.7575 79.5378Z" fill="#262626"/>
<path d="M57.4043 76.576C57.4043 77.5459 57.0537 78.3068 56.3525 78.8586C55.6514 79.4105 54.684 79.6866 53.4505 79.6871C52.2179 79.6871 51.2084 79.4956 50.4219 79.1125V77.4265C50.93 77.664 51.4611 77.849 52.0069 77.9783C52.5187 78.1066 53.0438 78.1742 53.5714 78.1795C54.2778 78.1795 54.7992 78.0454 55.1358 77.777C55.2991 77.6493 55.4299 77.4847 55.5174 77.2967C55.6049 77.1087 55.6467 76.9027 55.6393 76.6954C55.642 76.4994 55.602 76.3051 55.522 76.1261C55.4421 75.947 55.3241 75.7875 55.1764 75.6586C54.8682 75.3742 54.2318 75.0386 53.267 74.6517C52.2715 74.2487 51.5703 73.7887 51.1636 73.2714C50.7568 72.7542 50.5527 72.1325 50.5513 71.4062C50.5513 70.496 50.8746 69.7799 51.5213 69.2579C52.1679 68.736 53.0357 68.4752 54.1246 68.4757C55.2008 68.4824 56.2634 68.7162 57.2429 69.1619L56.674 70.6162C55.704 70.2084 54.8386 70.0046 54.0777 70.0046C53.5007 70.0046 53.0632 70.1302 52.765 70.3815C52.6191 70.5021 52.5028 70.6545 52.4252 70.8271C52.3475 70.9998 52.3105 71.1879 52.317 71.377C52.3095 71.6313 52.3715 71.8828 52.4962 72.1045C52.6472 72.3362 52.8488 72.5307 53.0857 72.6734C53.3597 72.8516 53.852 73.0887 54.5627 73.3845C55.3634 73.7164 55.9503 74.0271 56.3234 74.3168C56.6699 74.5738 56.951 74.9088 57.144 75.2946C57.3257 75.6968 57.4146 76.1347 57.4043 76.576Z" fill="#262626"/>
<path d="M69.1984 74.0693C69.1984 75.8451 68.7547 77.2252 67.8672 78.2094C66.9798 79.1935 65.7235 79.6861 64.0983 79.687C62.4519 79.687 61.1873 79.1983 60.3046 78.2207C59.4218 77.2432 58.9805 75.8544 58.9805 74.0543C58.9805 72.2529 59.4244 70.8705 60.3124 69.9071C61.2003 68.9438 62.4666 68.4622 64.1111 68.4622C65.7325 68.4622 66.9857 68.9519 67.8708 69.9313C68.7559 70.9107 69.1984 72.2901 69.1984 74.0693ZM60.8734 74.0693C60.8734 75.4123 61.1444 76.4316 61.6862 77.127C62.2281 77.8225 63.0314 78.1695 64.0962 78.1681C65.1548 78.1681 65.9541 77.8249 66.4941 77.1384C67.034 76.452 67.304 75.4299 67.304 74.0721C67.304 72.7343 67.0366 71.7198 66.5019 71.0286C65.9671 70.3374 65.1702 69.9908 64.1111 69.9889C63.0416 69.9889 62.2357 70.3345 61.6934 71.0257C61.151 71.7169 60.8777 72.7314 60.8734 74.0693Z" fill="#262626"/>
<path d="M78.7604 71.9289C78.7604 73.0667 78.3873 73.9394 77.6411 74.5472C76.8949 75.155 75.8332 75.4584 74.456 75.4574H73.3218V79.5378H71.5391V68.6315H74.68C76.0425 68.6315 77.0632 68.91 77.7421 69.467C78.421 70.0241 78.7604 70.8447 78.7604 71.9289ZM73.3218 73.9577H74.2697C75.1842 73.9577 75.8555 73.7986 76.2836 73.4805C76.7117 73.1624 76.925 72.6647 76.9236 71.9872C76.9236 71.3605 76.7321 70.893 76.349 70.5849C75.966 70.2767 75.3693 70.1227 74.5591 70.1227H73.3218V73.9577Z" fill="#262626"/>
<path d="M77.7854 84.2169H41.7235C40.595 84.2155 39.513 83.7666 38.715 82.9686C37.917 82.1706 37.4681 81.0887 37.4668 79.9601V68.9201C37.4681 67.7915 37.917 66.7095 38.715 65.9114C39.513 65.1133 40.5949 64.6642 41.7235 64.6627H77.784C78.9131 64.6635 79.9957 65.1122 80.7943 65.9104C81.5929 66.7086 82.0422 67.791 82.0435 68.9201V79.9601C82.0422 81.0889 81.5931 82.1711 80.7948 82.9691C79.9965 83.7672 78.9142 84.2159 77.7854 84.2169ZM41.7235 66.0849C40.9719 66.0859 40.2514 66.3849 39.72 66.9164C39.1886 67.448 38.8898 68.1686 38.889 68.9201V79.9601C38.8898 80.7117 39.1886 81.4322 39.7201 81.9636C40.2515 82.495 40.972 82.7939 41.7235 82.7946H77.784C78.5359 82.7944 79.2571 82.4958 79.789 81.9644C80.321 81.4329 80.6203 80.7121 80.6213 79.9601V68.9201C80.6203 68.1685 80.3213 67.4479 79.7898 66.9164C79.2583 66.3849 78.5377 66.0859 77.7861 66.0849H41.7235Z" fill="#262626"/>
</svg>
