<svg width="120" height="120" viewBox="0 0 120 120" fill="none" xmlns="http://www.w3.org/2000/svg">
<circle cx="60" cy="60" r="60" fill="#EAF6FB"/>
<path d="M46.9938 82.1055C47.0059 81.8068 46.9362 81.7123 46.6155 81.7144C44.1864 81.7293 41.7572 81.7229 39.3288 81.7229C36.8598 81.7229 34.3915 81.7229 31.9233 81.7165C31.6658 81.7165 31.5898 81.7798 31.5983 82.0401C31.6182 82.6467 31.6161 83.2547 31.5983 83.8612C31.5912 84.1101 31.6466 84.2019 31.9169 84.1926C32.537 84.1706 33.1578 84.1855 33.7778 84.1855C38.0554 84.1855 42.3325 84.1879 46.6091 84.1926C46.9185 84.1926 47.0081 84.1179 46.9938 83.8079C46.9675 83.2411 46.9704 82.6723 46.9938 82.1055Z" fill="#1F9ED3"/>
<path d="M66.1046 73.511C66.1174 73.2124 66.0477 73.1178 65.7263 73.1199C63.2978 73.1348 60.8686 73.1277 58.4395 73.1277C55.9712 73.1277 53.503 73.132 51.034 73.122C50.7773 73.122 50.7005 73.1853 50.7097 73.4456C50.7296 74.0522 50.7275 74.6602 50.7097 75.2668C50.7026 75.5156 50.7581 75.6074 51.0283 75.5981C51.6477 75.5761 52.2685 75.591 52.8893 75.591C57.1659 75.591 61.4428 75.5934 65.7198 75.5981C66.0299 75.5981 66.1195 75.5235 66.1046 75.2127C66.079 74.6445 66.0811 74.0756 66.1046 73.511Z" fill="#1F9ED3"/>
<path d="M77.1377 64.9066C77.1505 64.6079 77.0808 64.5134 76.7594 64.5148C74.3309 64.5304 71.9018 64.5233 69.4733 64.5233C67.0043 64.5233 64.5361 64.5276 62.0678 64.5176C61.8104 64.5176 61.7343 64.5809 61.7428 64.8412C61.7627 65.4478 61.7606 66.0558 61.7428 66.6623C61.7357 66.9112 61.7912 67.003 62.0614 66.993C62.6808 66.9717 63.3023 66.9866 63.9224 66.9866C68.1999 66.9866 72.477 66.989 76.7537 66.9937C77.063 66.9937 77.1526 66.9226 77.1384 66.6083C77.1092 66.0444 77.1121 65.4755 77.1377 64.9066Z" fill="#1F9ED3"/>
<path d="M88.1651 56.3313C88.1779 56.0326 88.1082 55.938 87.7868 55.9395C85.3584 55.9551 82.9292 55.948 80.5 55.948C78.0318 55.948 75.5635 55.9523 73.0945 55.9423C72.8378 55.9423 72.761 56.0056 72.7703 56.2659C72.7902 56.8724 72.788 57.4804 72.7703 58.087C72.7632 58.3359 72.8186 58.4276 73.0888 58.4177C73.7082 58.3964 74.329 58.4113 74.9498 58.4113C79.2264 58.4113 83.5033 58.4137 87.7804 58.4184C88.0904 58.4184 88.18 58.3473 88.1651 58.033C88.1395 57.4669 88.1416 56.8973 88.1651 56.3313Z" fill="#1F9ED3"/>
<path d="M72.326 42.4739C73.1267 43.057 73.9251 43.643 74.7211 44.2318C74.809 44.2993 74.9175 44.3344 75.0283 44.3313C78.37 44.3204 81.7122 44.3119 85.0549 44.3057C85.1511 44.3087 85.2457 44.281 85.3251 44.2268C86.2259 43.6176 87.1266 43.0117 88.0274 42.4092C88.0741 42.3823 88.1119 42.3423 88.1361 42.2942C88.1602 42.246 88.1696 42.1918 88.1632 42.1383C88.1525 41.5495 88.1504 40.9599 88.1447 40.3704C88.1404 39.9274 88.0025 39.7909 87.5481 39.7951L80.1419 39.862L72.7129 39.9295C72.3203 39.9331 72.1717 40.0824 72.1739 40.4728C72.1774 41.0474 72.1881 41.6213 72.1859 42.1959C72.1825 42.2505 72.1937 42.305 72.2184 42.3538C72.243 42.4027 72.2801 42.4441 72.326 42.4739Z" fill="#1F9ED3"/>
<path d="M88.1747 43.6736L87.972 43.8094C87.2211 44.3195 86.4706 44.8301 85.7206 45.3411C85.6134 45.4194 85.4836 45.4603 85.3509 45.4578C84.2842 45.4485 83.2175 45.4492 82.1509 45.4386C82.1183 45.437 82.0858 45.4401 82.0542 45.4478C82.0436 45.4459 82.0329 45.4447 82.0222 45.4443C81.8629 45.4407 81.7057 45.472 81.5471 45.4691C81.5142 45.4686 81.4813 45.4731 81.4497 45.4827L80.8915 45.4791C80.8479 45.479 80.8046 45.4864 80.7635 45.5011C80.7418 45.4963 80.7195 45.4946 80.6973 45.4962C80.3923 45.5047 80.0872 45.5033 79.7821 45.5061C79.6783 45.5006 79.5741 45.5083 79.4721 45.5289C79.0454 45.5218 78.6245 45.499 78.1999 45.4969H78.1665C78.0702 45.4756 77.9712 45.4687 77.8728 45.4763C77.1795 45.4763 76.4854 45.4763 75.7914 45.4713C75.3455 45.4713 74.8669 45.553 74.4623 45.4172C74.0577 45.2814 73.7306 44.9194 73.3686 44.657C72.9917 44.3833 72.6141 44.1109 72.2031 43.8144C72.2031 43.9154 72.2031 43.9723 72.2031 44.0277C72.2235 46.3251 72.2444 48.6229 72.2657 50.9212C72.27 51.3692 72.3944 51.4901 72.841 51.4901C77.788 51.446 82.7347 51.4012 87.6812 51.3557C88.1078 51.3522 88.2415 51.217 88.2373 50.7925L88.1754 43.899C88.1761 43.8343 88.1754 43.7703 88.1747 43.6736Z" fill="#1F9ED3"/>
<path d="M41.4305 69.8687C41.3146 69.8203 41.2307 69.8545 41.1333 69.9028C39.5442 70.7021 37.9579 70.6962 36.3745 69.885C36.3354 69.8615 36.2912 69.8478 36.2457 69.8449C36.2001 69.8421 36.1545 69.8502 36.1128 69.8687C33.8036 70.8197 32.3133 72.497 31.6421 74.9005C31.3917 75.7979 31.4024 76.7181 31.4024 77.6383C31.4024 77.8082 31.433 77.8587 31.6157 77.858C33.9961 77.8509 36.3762 77.8493 38.756 77.853H44.868C45.2442 77.853 45.6211 77.853 45.9973 77.853C46.0748 77.853 46.1359 77.863 46.1359 77.745C46.1359 76.9528 46.1686 76.1549 46.0022 75.3762C45.4405 72.7487 43.918 70.9062 41.4305 69.8687Z" fill="#1F9ED3"/>
<path d="M38.879 68.8405C40.9007 68.8405 42.8229 67.2654 42.8392 64.8967C42.8382 63.8536 42.4255 62.853 41.6909 62.1125C40.9563 61.372 39.9591 60.9513 38.916 60.9419C37.8729 60.9326 36.8683 61.3352 36.1205 62.0625C35.3727 62.7897 34.9422 63.7827 34.9224 64.8256C34.8869 67.0251 36.6298 68.7922 38.879 68.8405Z" fill="#1F9ED3"/>
<path d="M46.8689 74.8551C46.8689 74.8466 46.8689 74.838 46.8639 74.8302C46.7927 74.6316 46.7398 74.4269 46.706 74.2187C46.682 74.0364 46.6399 73.857 46.5802 73.6832C46.5306 73.5679 46.49 73.4491 46.4586 73.3276C46.4479 73.3082 46.4387 73.288 46.4308 73.2672C46.0219 72.1713 45.3896 71.1724 44.5741 70.3339C43.884 69.6135 43.0732 69.0193 42.1784 68.5781C41.9999 68.4907 42.0006 68.4444 42.1286 68.3065C43.1242 67.2398 43.5729 65.9598 43.521 64.512C43.5055 63.8866 43.3602 63.2713 43.0943 62.7051C43.0706 62.6587 43.0539 62.6091 43.0445 62.5579C42.8077 62.1831 42.6619 61.7515 42.3512 61.4272C42.3112 61.4109 42.2764 61.3838 42.2509 61.349C41.745 60.7562 41.1094 60.2878 40.3935 59.9801C38.3071 59.0805 35.9611 59.5961 34.4202 61.2985C34.3925 61.3304 34.3612 61.3591 34.327 61.3838C34.1848 61.5815 34.0426 61.7735 33.9003 61.9726C33.7908 62.1326 33.7176 62.3403 33.5938 62.4917C33.5934 62.5332 33.5829 62.5739 33.5633 62.6105C33.2381 63.3022 33.0761 64.0593 33.0897 64.8235C33.1202 66.1653 33.5803 67.3408 34.4991 68.3264C34.5986 68.4338 34.637 68.4779 34.4685 68.5632C32.4575 69.5822 31.0203 71.1303 30.1969 73.2352C30.1862 73.2632 30.1733 73.2903 30.1585 73.3163C30.1564 73.3518 30.1482 73.3866 30.1343 73.4194C29.9835 73.7749 29.8008 74.1305 29.7524 74.5152C29.7626 74.5444 29.7669 74.5753 29.7652 74.6062C29.7652 74.6219 29.7652 74.6368 29.7652 74.6524C29.7793 74.6891 29.7793 74.7296 29.7652 74.7662C29.7162 75.0009 29.6812 75.2384 29.6607 75.4773C29.5761 76.3079 29.65 77.142 29.6123 77.9726C29.5917 78.4178 29.8918 78.6837 30.3156 78.6787C34.3964 78.6674 38.4778 78.665 42.5595 78.6716H46.3583C46.7693 78.6716 46.9983 78.4441 47.0047 78.0416C47.0047 77.8283 47.0047 77.6149 47.0047 77.4016C47.0047 76.5511 47.0445 75.6956 46.8689 74.8551ZM34.258 64.7075C34.2674 63.6325 34.7035 62.6053 35.4704 61.8518C36.2372 61.0983 37.2719 60.6803 38.3469 60.6898C39.4219 60.6992 40.4492 61.1353 41.2026 61.9021C41.9561 62.6689 42.3741 63.7036 42.3647 64.7787C42.3483 67.2028 40.3807 68.8192 38.3114 68.8156C36.001 68.7644 34.2168 66.9561 34.258 64.7075ZM45.8491 77.4073C45.8491 77.5275 45.7866 77.5182 45.7069 77.5175C45.3215 77.5175 44.9361 77.5175 44.5506 77.5175H38.2929C35.8556 77.5175 33.4194 77.5194 30.9841 77.5232C30.7963 77.5232 30.765 77.4713 30.765 77.2978C30.765 76.3555 30.7537 75.4133 31.0104 74.4953C31.6973 72.0348 33.2226 70.3182 35.5864 69.3454C35.6289 69.326 35.6755 69.3173 35.7221 69.3201C35.7687 69.323 35.814 69.3373 35.8538 69.3618C37.4737 70.1938 39.0976 70.1997 40.7256 69.3795C40.8251 69.3298 40.9112 69.2949 41.0299 69.3447C43.5764 70.4064 45.1338 72.2923 45.709 74.9831C45.8847 75.7795 45.8491 76.5959 45.8491 77.4073Z" fill="#262626"/>
<path d="M88.9196 40.0575C88.9183 39.8859 88.9053 39.7146 88.8805 39.5448C88.7816 38.8615 88.1822 38.2911 87.4945 38.2812C86.4435 38.2655 85.3911 38.2812 84.3393 38.2983C84.1623 38.2983 84.0961 38.2613 84.0805 38.0735C83.9802 36.8526 83.0252 35.9068 81.8099 35.8883C80.4225 35.8677 79.0366 35.884 77.6478 35.9253C76.36 35.963 75.3992 37.0759 75.4014 38.2307C75.4014 38.4071 75.3004 38.3729 75.2008 38.3729C74.1712 38.385 73.1386 38.3765 72.1125 38.4163C71.2748 38.4483 70.6512 39.1459 70.6583 39.9807C70.6896 43.5245 70.722 47.0679 70.7557 50.6111C70.7514 50.7601 70.7633 50.9092 70.7912 51.0556C70.9683 51.8129 71.6033 52.2951 72.4097 52.2887C74.9015 52.2673 77.3932 52.2448 79.8849 52.2211C82.3767 52.1974 84.861 52.1751 87.3381 52.1543C87.57 52.1595 87.8008 52.1192 88.0172 52.0355C88.6629 51.7646 89.0234 51.19 89.017 50.4398C88.9853 46.9795 88.9528 43.5188 88.9196 40.0575ZM76.5918 38.1447C76.6949 37.5679 77.1671 37.1171 77.7566 37.1071C79.0764 37.0844 80.3962 37.0725 81.716 37.0716C82.3816 37.0716 82.8787 37.5537 82.9576 38.2094C82.9783 38.3793 82.8773 38.3466 82.7848 38.3473L79.7868 38.3743V38.3345C78.7912 38.3431 77.7886 38.3487 76.7895 38.3644C76.6124 38.3701 76.5576 38.3374 76.5918 38.1447ZM71.7996 40.0782C71.7996 39.6878 71.9418 39.5384 72.3386 39.5349L79.7669 39.4638L87.1731 39.3969C87.624 39.3927 87.7655 39.5292 87.7697 39.9729C87.7761 40.5617 87.7775 41.1512 87.7889 41.74C87.7953 41.7935 87.7858 41.8477 87.7617 41.8959C87.7375 41.944 87.6998 41.9841 87.6531 42.011C86.7476 42.6126 85.8469 43.2184 84.9509 43.8286C84.8716 43.8832 84.7769 43.9109 84.6807 43.9075C81.3389 43.9146 77.9967 43.9234 74.654 43.9338C74.5431 43.9367 74.4346 43.9013 74.3468 43.8335C73.5522 43.2471 72.7539 42.6626 71.9518 42.0799C71.9052 42.0507 71.8674 42.0094 71.8424 41.9605C71.8174 41.9116 71.806 41.8568 71.8096 41.8019C71.8131 41.2266 71.8039 40.6527 71.7996 40.0782ZM87.3089 50.9582L72.4695 51.0933C72.0222 51.0933 71.9006 50.9745 71.8935 50.5244C71.8731 48.227 71.8522 45.9292 71.8309 43.6309C71.8309 43.574 71.8309 43.5178 71.8309 43.4175L72.9957 44.2602C73.3576 44.5226 73.6855 44.8846 74.0894 45.0204C74.4933 45.1562 74.9726 45.0716 75.4184 45.0751C76.1125 45.0801 76.8065 45.0794 77.5006 45.0794C77.5987 45.0722 77.6974 45.0791 77.7936 45.1H77.827C78.2536 45.1 78.6753 45.1256 79.0992 45.132C79.2012 45.1118 79.3053 45.1044 79.4092 45.11C79.7143 45.11 80.02 45.11 80.3251 45.0993C80.347 45.0982 80.369 45.0998 80.3905 45.1043C80.4316 45.0898 80.4749 45.0826 80.5185 45.083C80.7048 45.083 80.8904 45.083 81.0768 45.083C81.1083 45.0735 81.1412 45.0689 81.1742 45.0695C81.3335 45.073 81.4899 45.041 81.6492 45.0446C81.6606 45.0446 81.6705 45.0446 81.6812 45.0481C81.7129 45.0408 81.7454 45.0377 81.7779 45.0389C82.8446 45.0503 83.9112 45.0488 84.9779 45.0588C85.1105 45.0607 85.2402 45.0198 85.3477 44.9422C86.0972 44.4337 86.8481 43.9288 87.5991 43.4154L87.801 43.2789C87.801 43.3756 87.801 43.4403 87.801 43.5043C87.8214 45.8026 87.8423 48.1005 87.8636 50.3978C87.8693 50.8223 87.7363 50.9575 87.3061 50.961L87.3089 50.9582Z" fill="#262626"/>
<path d="M62.7953 52.9599C61.4067 53.0164 60.0179 53.0801 58.6289 53.1512C57.9569 53.1868 57.6625 53.7791 58.023 54.3459C58.225 54.6631 58.4255 54.9859 58.6488 55.2846C58.7789 55.4595 58.7363 55.5313 58.5685 55.6401C55.9226 57.3838 53.2787 59.1312 50.6367 60.8824C50.8771 61.3091 51.1409 61.7294 51.4104 62.1418C51.8037 61.8787 52.2005 61.6213 52.5944 61.3596C54.8586 59.8601 57.1221 58.3599 59.3848 56.859C59.5612 56.7416 59.6373 56.758 59.7404 56.9358C59.9423 57.2721 60.1592 57.6007 60.3896 57.9178C60.7544 58.4199 61.425 58.3658 61.6902 57.8154C62.297 56.5548 62.8986 55.2921 63.495 54.0273C63.7489 53.4975 63.3813 52.9365 62.7953 52.9599Z" fill="#262626"/>
<path d="M88.2305 54.4675C82.7374 54.4675 77.2435 54.4675 71.749 54.4675C71.0969 54.4675 70.8296 54.7157 70.8246 55.3685C70.8137 56.5703 70.8137 57.7721 70.8246 58.9738C70.8303 59.6138 71.0877 59.8499 71.7206 59.8499H88.2781C88.8776 59.8499 89.1428 59.5854 89.1435 58.9838C89.1435 57.782 89.1435 56.5802 89.1435 55.3785C89.1428 54.7378 88.8705 54.4675 88.2305 54.4675ZM87.2299 58.4071C83.508 58.3971 79.7865 58.395 76.0655 58.4007C74.9177 58.4007 73.7693 58.3929 72.6209 58.4064C72.3592 58.4064 72.2817 58.3353 72.2902 58.0729C72.308 57.4798 72.3101 56.8853 72.2902 56.2951C72.2802 56.0178 72.3613 55.9395 72.6408 55.9438C75.109 55.9545 77.5773 55.9502 80.0449 55.9502C82.4626 55.9502 84.8754 55.9559 87.2904 55.9424C87.6025 55.9424 87.6914 56.0213 87.6765 56.3314C87.6441 56.8848 87.6441 57.4397 87.6765 57.9932C87.7021 58.3708 87.5485 58.4078 87.2271 58.4071H87.2299Z" fill="#262626"/>
<path d="M66.9787 72.5419C66.9738 71.9139 66.7043 71.6658 66.0721 71.6658H49.5508C48.9378 71.6658 48.657 71.9459 48.6562 72.5554C48.6562 73.7443 48.6562 74.9329 48.6562 76.1209C48.6562 76.8036 48.903 77.0453 49.5857 77.0453H66.0664C66.7128 77.0453 66.9738 76.8121 66.9787 76.1835C66.9896 74.9708 66.9896 73.7569 66.9787 72.5419ZM65.1796 75.6046C62.7227 75.5954 60.2659 75.5989 57.809 75.5989C55.3784 75.5989 52.9478 75.5925 50.5179 75.6067C50.2008 75.6067 50.1155 75.5207 50.1283 75.2114C50.1524 74.6183 50.1446 74.0231 50.1283 73.4293C50.1233 73.2089 50.1837 73.1399 50.4127 73.1399C55.3663 73.1461 60.3204 73.1461 65.2749 73.1399C65.4882 73.1399 65.5423 73.1975 65.538 73.4044C65.5252 74.0252 65.5167 74.6468 65.538 75.2668C65.5508 75.5627 65.4427 75.606 65.1796 75.6046Z" fill="#262626"/>
<path d="M78.0545 63.9111C78.0545 63.35 77.7957 63.077 77.2403 63.077C71.6808 63.0736 66.1216 63.0736 60.5626 63.077C60.0072 63.077 59.7491 63.3507 59.7477 63.9104C59.7441 65.0986 59.7477 66.2876 59.7477 67.4759C59.7477 68.2204 59.9937 68.4665 60.7432 68.4665H69.7743C72.2305 68.4665 74.6867 68.4665 77.1429 68.4665C77.7729 68.4665 78.0552 68.1941 78.0567 67.5961C78.0576 66.3692 78.0569 65.1408 78.0545 63.9111ZM76.6124 66.5422C76.6309 66.8892 76.5498 67.0044 76.1708 67.0023C72.5128 66.9859 68.8549 66.9923 65.1962 66.9923C63.9944 66.9923 62.7927 66.9788 61.5916 67.0016C61.2488 67.008 61.1727 66.9027 61.1891 66.582C61.2168 66.0412 61.2168 65.4993 61.1891 64.9585C61.1713 64.6236 61.2453 64.5162 61.6108 64.5198C64.0407 64.539 66.4705 64.5298 68.9004 64.5298C71.3303 64.5298 73.7608 64.539 76.1907 64.5198C76.5562 64.5198 76.6309 64.6229 76.6124 64.9585C76.5843 65.4861 76.5843 66.0147 76.6124 66.5422Z" fill="#262626"/>
<path d="M46.8648 80.2759H30.3827C29.7192 80.2759 29.4988 80.4892 29.498 81.1434C29.498 82.2926 29.498 83.4417 29.498 84.5909C29.498 85.5061 29.626 85.632 30.559 85.632H38.6408C41.3876 85.632 44.1346 85.632 46.8819 85.632C47.5667 85.632 47.7772 85.4186 47.7779 84.7331C47.7779 83.5579 47.7779 82.3824 47.7779 81.2067C47.7779 80.5049 47.5553 80.2759 46.8648 80.2759ZM45.951 84.1948C41.6744 84.1844 37.3973 84.182 33.1197 84.1877C32.4996 84.1877 31.8788 84.1728 31.2588 84.1948C30.9892 84.2041 30.9331 84.1123 30.9402 83.8634C30.9572 83.2569 30.9594 82.6489 30.9402 82.0423C30.9316 81.782 31.0077 81.718 31.2652 81.7187C33.7334 81.7287 36.2024 81.7251 38.6707 81.7251C41.0998 81.7251 43.5283 81.7315 45.9574 81.7166C46.2781 81.7166 46.3478 81.809 46.3357 82.1077C46.3123 82.6766 46.3094 83.2455 46.3357 83.8094C46.3507 84.1201 46.2604 84.1962 45.951 84.1948Z" fill="#262626"/>
</svg>
