<svg width="100" height="100" viewBox="0 0 100 100" fill="none" xmlns="http://www.w3.org/2000/svg">
<path d="M31.5993 44.7842C31.5993 41.6361 31.5975 38.4879 31.5938 35.3398C31.5938 35.0953 31.6567 35.0074 31.9012 34.9435C36.841 33.6592 41.4178 31.5537 45.6975 28.7916C45.891 28.6627 46.1196 28.5965 46.3521 28.6018C50.0039 28.6074 53.6561 28.6074 57.3086 28.6018C57.5295 28.5956 57.7471 28.6566 57.9326 28.7768C62.2336 31.5546 66.8262 33.6787 71.7956 34.9546C71.9956 35.0055 72.053 35.0824 72.053 35.2833C72.0465 41.2842 72.0734 47.2851 72.0326 53.2851C72.0141 55.9111 71.2512 58.3777 70.1169 60.7351C68.441 64.2139 66.0762 67.1777 63.2549 69.7879C60.1899 72.6459 56.6489 74.9463 52.7919 76.5852C52.1012 76.8777 51.5215 76.8722 50.8391 76.5852C45.3641 74.2453 40.7613 70.7518 36.9919 66.1602C35.115 63.8722 33.615 61.362 32.6252 58.5602C31.9546 56.6943 31.6064 54.728 31.5956 52.7453C31.5947 50.0926 31.5993 47.4379 31.5993 44.7842Z" fill="#1E7EAA"/>
<path d="M80.0363 40.1796V27.4657C80.0363 27.3611 80.0363 27.2555 80.0363 27.1509C79.99 26.4046 79.5224 25.9222 78.7882 25.8481C78.1271 25.7805 77.4641 25.725 76.8076 25.6259C74.4065 25.2559 72.0507 24.6352 69.7789 23.7741C66.3419 22.4778 63.1511 20.7268 60.1604 18.6046C59.8057 18.3417 59.3741 18.203 58.9326 18.2102C53.6437 18.2231 48.3548 18.2231 43.066 18.2102C42.7397 18.2044 42.4206 18.3059 42.1576 18.4991C38.9835 20.7491 35.6011 22.6102 31.9335 23.9287C29.4873 24.8074 26.9854 25.4666 24.3891 25.725C24.0761 25.7555 23.7641 25.8 23.4521 25.8379C22.5261 25.9509 22.1271 26.4083 22.1271 27.35C22.1271 35.2512 22.1271 43.1549 22.1271 51.0611C22.1189 53.8373 22.5527 56.5972 23.4123 59.237C24.7752 63.4259 26.9974 67.1296 29.803 70.4852C33.1761 74.5241 37.1604 77.8528 41.6937 80.5241C44.4873 82.1703 47.4169 83.5074 50.5447 84.3907C50.8224 84.4703 51.1058 84.5287 51.403 84.4463C52.2873 84.2018 53.1623 83.9241 54.0215 83.6055C58.1021 82.0926 61.8197 79.9305 65.2576 77.2796C69.8243 73.7611 73.6539 69.5787 76.4493 64.5018C78.7882 60.2583 80.0678 55.7315 80.04 50.8574C80.0197 47.3009 80.0363 43.7407 80.0363 40.1796ZM77.4271 41.4416C77.3993 44.5305 77.4873 48.3713 77.39 52.212C77.3243 54.8046 76.7419 57.3046 75.8067 59.7176C74.3447 63.5 72.1539 66.8296 69.4447 69.8213C65.3197 74.3676 60.4808 77.9435 54.8678 80.4518C53.7112 80.9655 52.523 81.405 51.3104 81.7676C51.1689 81.8168 51.0157 81.8213 50.8715 81.7805C48.8178 81.1963 46.866 80.3611 44.9817 79.3685C39.5576 76.5074 34.8891 72.7148 31.0789 67.9046C28.3335 64.4444 26.2854 60.6287 25.2993 56.2907C24.9242 54.6193 24.7378 52.9111 24.7437 51.1981C24.7437 43.6796 24.7437 36.1608 24.7437 28.6416C24.7437 28.4102 24.7715 28.3102 25.0456 28.2768C28.2141 27.8944 31.265 27.0509 34.2169 25.8537C37.3333 24.5912 40.2968 22.9804 43.0511 21.0518C43.2855 20.884 43.5685 20.7978 43.8567 20.8065C48.69 20.8151 53.5237 20.8151 58.3576 20.8065C58.6228 20.7994 58.883 20.8794 59.0984 21.0342C62.6419 23.4963 66.4437 25.4481 70.5474 26.7991C72.4932 27.4326 74.4879 27.9046 76.5113 28.2102C76.8086 28.2565 77.228 28.1889 77.3771 28.3602C77.5623 28.5741 77.4326 28.9842 77.4326 29.3092C77.4289 33.1009 77.4271 36.8953 77.4271 41.4416Z" fill="#0A1F27"/>
<path d="M74.1391 42.6361V32.5111C74.1391 32.4277 74.1391 32.3435 74.1391 32.2602C74.102 31.6666 73.7298 31.2824 73.1455 31.2231C72.6187 31.1694 72.0909 31.125 71.5715 31.0463C69.6589 30.7514 67.7826 30.2567 65.9733 29.5703C63.2534 28.5335 60.6787 27.1499 58.3131 25.4537C58.0309 25.2436 57.6871 25.1329 57.3354 25.1389C53.1236 25.1494 48.9116 25.1494 44.6992 25.1389C44.4377 25.1335 44.1818 25.2149 43.9715 25.3703C41.4437 27.162 38.7502 28.6444 35.8289 29.6935C33.8844 30.3935 31.8881 30.9185 29.8215 31.124C29.5715 31.149 29.3233 31.1842 29.0752 31.2166C28.3409 31.3092 28.0196 31.6703 28.0196 32.4203C28.0196 38.7166 28.0196 45.0111 28.0196 51.3037C28.0135 53.5145 28.3589 55.7123 29.0428 57.8148C30.1307 61.1481 31.9011 64.0944 34.1354 66.7703C36.807 69.9611 40.0104 72.6658 43.6039 74.7648C45.8261 76.0759 48.1622 77.1407 50.6529 77.8444C50.8779 77.9074 51.1002 77.9537 51.3363 77.8889C52.0409 77.6944 52.7363 77.4731 53.4215 77.2185C56.6715 76.0148 59.6326 74.2926 62.3696 72.1814C66.0066 69.3759 69.0566 66.0481 71.2835 62.0083C73.1474 58.6305 74.1659 55.025 74.1428 51.1435C74.1261 48.3083 74.1391 45.4722 74.1391 42.6361ZM72.0622 43.6416C72.0391 46.1009 72.1094 49.1602 72.0326 52.2185C71.9798 54.2852 71.515 56.2731 70.7715 58.1963C69.6067 61.2083 67.8622 63.8601 65.7011 66.2426C62.4168 69.8629 58.5631 72.7111 54.0928 74.7083C53.1716 75.1173 52.2252 75.4671 51.2594 75.7555C51.1469 75.795 51.025 75.7986 50.9104 75.7657C49.2845 75.2906 47.7127 74.647 46.2205 73.8453C41.9002 71.5676 38.1826 68.5463 35.1483 64.7157C32.9668 61.9629 31.3335 58.9213 30.5483 55.4666C30.2485 54.1348 30.0991 52.7735 30.1029 51.4083C30.1029 45.4206 30.1029 39.433 30.1029 33.4453C30.1029 33.2602 30.1252 33.1805 30.3437 33.1546C32.8533 32.8387 35.3095 32.1894 37.6474 31.224C40.1301 30.2194 42.4908 28.9365 44.6844 27.4C44.8707 27.2663 45.096 27.1979 45.3252 27.2055C49.1752 27.2117 53.0245 27.2117 56.8733 27.2055C57.0849 27.201 57.2921 27.2661 57.4631 27.3907C60.2612 29.3536 63.3301 30.8989 66.5733 31.9777C68.1226 32.4828 69.7111 32.8588 71.3224 33.1018C71.5594 33.1389 71.8937 33.0852 72.0122 33.2213C72.1604 33.3916 72.0566 33.7185 72.0566 33.9768C72.0631 36.999 72.0622 40.0203 72.0622 43.6416Z" fill="#0A1F27"/>
<path d="M51.3641 58.7037C50.4641 58.7037 49.5641 58.6954 48.665 58.7102C48.4363 58.7102 48.3697 58.6611 48.3715 58.4231C48.3835 56.8574 48.378 55.2916 48.3771 53.725C48.3771 52.8602 47.8863 52.3741 47.015 52.3731C45.4604 52.3731 43.9058 52.3676 42.3511 52.3787C42.1095 52.3787 42.0372 52.3333 42.0391 52.0759C42.0521 50.2771 42.0521 48.4781 42.0391 46.6787C42.0391 46.4009 42.1317 46.3639 42.3724 46.3648C43.9271 46.375 45.4835 46.3379 47.0363 46.3833C47.8697 46.4074 48.4095 45.725 48.3909 45.0102C48.3502 43.4565 48.3835 41.9009 48.3724 40.3454C48.3724 40.1092 48.4113 40.0296 48.6724 40.0315C50.4718 40.045 52.2712 40.045 54.0706 40.0315C54.3484 40.0315 54.3863 40.1241 54.3845 40.3648C54.3752 41.9083 54.3789 43.4518 54.3798 44.9944C54.3798 45.8991 54.8484 46.3685 55.7447 46.3694C57.3002 46.3694 58.8548 46.3759 60.4095 46.3629C60.6567 46.3629 60.7197 46.4176 60.7178 46.6685C60.7061 48.4679 60.7061 50.2673 60.7178 52.0667C60.7178 52.3055 60.6743 52.3815 60.415 52.3787C58.8493 52.3648 57.2835 52.3704 55.7169 52.3722C54.8835 52.3722 54.3817 52.8759 54.3808 53.7194C54.3808 55.2861 54.3743 56.8518 54.3854 58.4176C54.3854 58.6491 54.3326 58.7129 54.0965 58.7092C53.1854 58.6963 52.2743 58.7037 51.3641 58.7037Z" fill="#0A1F27"/>
</svg>
