<svg width="100" height="100" viewBox="0 0 100 100" fill="none" xmlns="http://www.w3.org/2000/svg">
<path d="M54.4443 24.6445C54.3165 24.5148 54.2535 24.5519 54.147 24.6574C52.7199 26.0895 51.2912 27.5201 49.8609 28.9491C49.822 28.9871 49.7878 29.0287 49.7109 29.113C49.8961 29.113 50.0267 29.1047 50.1526 29.113C50.3101 29.1203 50.4599 29.183 50.5757 29.2901C50.6914 29.3972 50.7655 29.5417 50.785 29.6982C50.8008 29.8092 50.8082 29.9212 50.8072 30.0334C50.8072 31.5259 50.8072 33.0185 50.8072 34.5102C50.8072 34.6639 50.8415 34.7167 51.0035 34.7102C51.3322 34.6972 51.6619 34.6954 51.9896 34.7102C52.1674 34.7185 52.1961 34.6546 52.1943 34.4945C52.1859 33.6843 52.1943 32.8741 52.1943 32.063C52.1943 31.4852 52.472 31.2019 53.0433 31.2009C53.8859 31.2009 54.7285 31.2009 55.5711 31.2009C56.1267 31.2009 56.4146 31.488 56.4156 32.0435C56.4156 32.8704 56.4156 33.6963 56.4156 34.5232C56.4156 34.6695 56.448 34.7158 56.6007 34.7084C56.9285 34.6963 57.2591 34.6945 57.5869 34.7084C57.7646 34.7167 57.8165 34.6713 57.8146 34.4861C57.8035 33.6602 57.8091 32.8334 57.8091 32.0065C57.8091 31.2926 57.8091 30.5787 57.8091 29.8648C57.8091 29.3796 58.0869 29.1139 58.5711 29.1019C58.6637 29.1019 58.7563 29.1019 58.8887 29.1019C58.8258 29.0287 58.7961 28.9852 58.7563 28.9482C57.3149 27.5161 55.8776 26.0815 54.4443 24.6445Z" fill="#1E7EAA"/>
<path d="M75.2919 35.1C75.323 35.0273 75.3372 34.9485 75.3335 34.8695C75.3335 31.6651 75.3335 28.4605 75.3335 25.2556V17.1787V17.1297C75.3335 16.9565 75.2937 16.9111 75.1178 16.9121C71.6567 16.9176 68.1959 16.9176 64.7354 16.9121C64.5548 16.9121 64.503 16.9482 64.5039 17.138V17.1778H64.5493C64.5181 17.2505 64.5038 17.3293 64.5076 17.4084C64.5076 20.6182 64.5076 23.8281 64.5076 27.038V35.1028V35.151C64.5076 35.3241 64.5474 35.3685 64.7243 35.3685C68.1848 35.363 71.6453 35.363 75.1058 35.3685C75.291 35.3685 75.3382 35.3324 75.3373 35.1417V35.1028L75.2919 35.1ZM66.6687 26.2111V25.576C66.6687 25.1 66.8947 24.8204 67.3604 24.7713C67.6532 24.7354 67.9496 24.7407 68.241 24.7871C68.3981 24.8073 68.5429 24.8826 68.6497 24.9996C68.7565 25.1166 68.8184 25.2677 68.8243 25.426C68.8391 25.951 68.84 26.4769 68.8243 27C68.8196 27.1686 68.7504 27.3289 68.631 27.4479C68.5117 27.5669 68.3512 27.6356 68.1826 27.6398C67.8947 27.6528 67.6058 27.6528 67.3178 27.6398C67.1432 27.6308 66.9787 27.5553 66.8582 27.4287C66.7376 27.3021 66.6701 27.1341 66.6697 26.9593C66.6641 26.7093 66.6697 26.4593 66.6697 26.2093L66.6687 26.2111ZM68.8243 32.7778C68.8151 32.9425 68.7463 33.0982 68.6308 33.2159C68.5153 33.3336 68.361 33.4053 68.1965 33.4176C67.9088 33.4421 67.6194 33.4421 67.3317 33.4176C67.1504 33.4083 66.9799 33.3287 66.8564 33.1958C66.7328 33.0629 66.6658 32.887 66.6697 32.7056C66.6697 32.2315 66.6697 31.7565 66.6697 31.2824C66.6697 30.8991 66.8919 30.6121 67.2706 30.5547C67.6062 30.4983 67.9491 30.5018 68.2835 30.5648C68.4324 30.5944 68.5671 30.673 68.666 30.7882C68.7649 30.9033 68.8223 31.0484 68.8289 31.2C68.8325 31.2252 68.8346 31.2505 68.8354 31.276C68.8354 31.5139 68.8354 31.751 68.8354 31.988H68.8271C68.8271 32.2519 68.8391 32.5158 68.8243 32.7778ZM68.8326 21.1519C68.8243 21.5676 68.5873 21.825 68.1604 21.875C67.8611 21.9145 67.5576 21.9105 67.2595 21.863C67.0967 21.8374 66.9483 21.755 66.8405 21.6304C66.7327 21.5059 66.6725 21.3472 66.6706 21.1824C66.665 20.9324 66.6706 20.6824 66.6706 20.4324V19.7963C66.6706 19.3204 66.8984 19.0408 67.3641 18.9926C67.6572 18.9571 67.9539 18.9624 68.2456 19.0084C68.4027 19.0297 68.5473 19.1059 68.6537 19.2234C68.7601 19.341 68.8215 19.4925 68.8271 19.651C68.841 20.15 68.8428 20.6482 68.8326 21.151V21.1519ZM70.9928 19.7352C71.0021 19.3287 71.2391 19.063 71.641 19.0037C71.9332 18.9602 72.2302 18.9602 72.5224 19.0037C72.9326 19.0648 73.165 19.3389 73.1706 19.7528C73.1752 19.9843 73.1706 20.2158 73.1706 20.4454C73.1706 20.6574 73.1706 20.8695 73.1706 21.0806C73.1706 21.5389 72.9345 21.8213 72.4835 21.8778C72.2034 21.9141 71.9196 21.9119 71.64 21.8713C71.2363 21.8084 71.0011 21.5482 70.9919 21.1398C70.982 20.6713 70.9823 20.2028 70.9928 19.7343V19.7352ZM70.9928 25.5121C71.0021 25.1065 71.2391 24.8417 71.641 24.7815C71.9329 24.738 72.2296 24.738 72.5215 24.7815C72.9317 24.8417 73.1641 25.1167 73.1697 25.5306C73.1743 25.7611 73.1697 25.9935 73.1697 26.2222C73.1697 26.451 73.1697 26.6713 73.1697 26.8954C73.1604 27.3491 72.878 27.6361 72.4289 27.65C72.1974 27.6568 71.9666 27.6568 71.7363 27.65C71.291 27.638 71.0039 27.3621 70.9956 26.9158C70.9817 26.4472 70.9826 25.9797 70.9928 25.5111V25.5121ZM73.1706 32.6954C73.1726 32.7904 73.1555 32.8848 73.1206 32.9731C73.0856 33.0615 73.0333 33.1419 72.9668 33.2098C72.9003 33.2777 72.8209 33.3316 72.7333 33.3684C72.6458 33.4052 72.5517 33.4241 72.4567 33.4241C72.2133 33.4371 71.9695 33.4371 71.7261 33.4241C71.2761 33.4019 71.0011 33.1084 70.9919 32.6547C70.9872 32.4297 70.9919 32.2056 70.9919 31.9806C70.9919 31.7556 70.9919 31.5445 70.9919 31.3269C71.0002 30.8361 71.2984 30.5371 71.7863 30.5306C71.9974 30.5306 72.2095 30.525 72.4206 30.5306C72.8576 30.5445 73.1613 30.8361 73.1715 31.2713C73.1817 31.7454 73.1826 32.2222 73.1706 32.6945V32.6954Z" fill="#1E7EAA"/>
<path d="M42.9927 57.4759C43.1757 57.509 43.3568 57.5516 43.5353 57.6037C45.0742 57.9815 45.9502 59.5065 45.4872 61.0065C45.3511 61.4472 45.0761 61.8139 44.839 62.2028C44.7927 62.2796 44.7613 62.3306 44.8446 62.4102C45.1224 62.6787 45.4002 62.9583 45.6724 63.2324C45.6974 63.2574 45.7252 63.2787 45.752 63.3019L45.877 63.2241C46.0918 63.0907 46.3048 62.9519 46.5252 62.825C46.8676 62.6208 47.252 62.4969 47.6493 62.4627C48.0465 62.4284 48.4464 62.4847 48.8188 62.6273C49.1912 62.7699 49.5264 62.9951 49.7991 63.286C50.0719 63.5768 50.2752 63.9257 50.3937 64.3065C50.4863 64.5898 50.5437 64.8824 50.615 65.1713C50.64 65.2722 50.6724 65.3343 50.8002 65.3306C51.1659 65.3185 51.5335 65.3195 51.8992 65.3306C52.0177 65.3306 52.0557 65.2815 52.077 65.1861C52.1261 64.9685 52.177 64.7509 52.227 64.538C52.3035 64.1967 52.4469 63.8741 52.649 63.5886C52.851 63.3032 53.1077 63.0607 53.4041 62.8751C53.7005 62.6896 54.0307 62.5646 54.3758 62.5075C54.7208 62.4505 55.0737 62.4624 55.414 62.5426C55.9344 62.662 56.3714 62.9454 56.8085 63.2278C56.9177 63.2982 56.9761 63.2972 57.0668 63.2009C57.3122 62.9398 57.5677 62.6861 57.827 62.4389C57.9196 62.3537 57.9196 62.2963 57.8502 62.1972C57.7048 61.9815 57.5724 61.7565 57.439 61.5315C56.7113 60.3056 57.1353 58.6611 58.365 57.9315C58.8029 57.6685 59.2909 57.5833 59.7789 57.4685C59.902 57.4398 59.964 57.3945 59.9566 57.2482C59.9427 56.9046 59.9446 56.5602 59.9566 56.2167C59.9613 56.0796 59.9177 56.0157 59.7863 55.9898C59.5752 55.9472 59.3659 55.8972 59.1548 55.8472C58.803 55.7665 58.4713 55.6151 58.1799 55.4022C57.8885 55.1893 57.6434 54.9194 57.4595 54.6088C57.2757 54.2982 57.1569 53.9535 57.1104 53.5956C57.0639 53.2377 57.0906 52.8741 57.189 52.5269C57.3214 52.0583 57.6048 51.6713 57.852 51.2667C57.9233 51.1509 57.9113 51.0954 57.8196 51.0083C57.565 50.7667 57.3131 50.5195 57.0789 50.2611C56.9779 50.1519 56.9076 50.1685 56.8011 50.2389C56.5964 50.375 56.3881 50.5065 56.1752 50.6296C55.7067 50.9078 55.1635 51.0337 54.6205 50.9899C54.0775 50.9461 53.5615 50.7348 53.1437 50.3852C52.614 49.9463 52.3177 49.3778 52.1844 48.713C52.1465 48.5278 52.1455 48.2815 52.027 48.1657C51.9085 48.05 51.6566 48.1296 51.4714 48.1296C51.2039 48.1296 50.8576 48.0194 50.69 48.1704C50.5224 48.3213 50.539 48.6667 50.4761 48.9269C50.1122 50.4491 48.5103 51.35 47.0418 50.8602C46.6187 50.7194 46.2613 50.4583 45.889 50.2259C45.789 50.1639 45.7335 50.1593 45.6483 50.2482C45.3955 50.5139 45.1335 50.7704 44.8724 51.0278C44.8076 51.0907 44.7696 51.1361 44.8335 51.2315C44.9826 51.4537 45.1214 51.6843 45.2576 51.9157C45.6126 52.5219 45.7125 53.2442 45.5352 53.9239C45.358 54.6037 44.9181 55.1852 44.3122 55.5407C43.8853 55.7935 43.4094 55.8778 42.939 55.9861C42.8029 56.0176 42.7437 56.0657 42.7539 56.2204C42.7714 56.5414 42.7714 56.8632 42.7539 57.1843C42.7316 57.3815 42.8048 57.4509 42.9927 57.4759ZM51.3955 52.7463C53.5613 52.7676 55.3298 54.5565 55.3233 56.7732C55.3168 58.913 53.5177 60.7287 51.3261 60.6972C49.3224 60.7352 47.2974 59.0852 47.3594 56.5667C47.4076 54.4509 49.2187 52.725 51.3955 52.7463Z" fill="#1E7EAA"/>
<path d="M26.2958 73.9898C34.539 73.9793 42.7819 73.9765 51.0245 73.9815C59.2912 73.9815 67.5585 73.9836 75.8264 73.988C76.1171 73.988 76.2208 73.9417 76.2208 73.6176C76.2115 62.862 76.2088 52.1062 76.2125 41.35C76.2125 40.6093 75.893 40.2935 75.1597 40.2935H26.8865C26.1717 40.2935 25.8578 40.6111 25.8578 41.3287C25.8578 52.0694 25.8544 62.813 25.8477 73.5593C25.8477 73.9296 25.9541 73.9898 26.2958 73.9898ZM27.4115 42.0824C27.4115 41.7315 27.5152 41.6694 27.8384 41.6704C43.2989 41.6778 58.7588 41.6778 74.218 41.6704C74.5717 41.6704 74.6588 41.75 74.6588 42.1083C74.6477 52.1219 74.6477 62.1364 74.6588 72.1518C74.6588 72.538 74.5523 72.6037 74.1958 72.6028C66.4717 72.5923 58.748 72.5895 51.0245 72.5944C43.3011 72.5994 35.5773 72.6025 27.8532 72.6037C27.4977 72.6037 27.4125 72.5231 27.4125 72.1648C27.423 62.137 27.4227 52.1096 27.4115 42.0824Z" fill="#1E7EAA"/>
<path d="M77.9757 75.75C77.8954 75.6541 77.7938 75.5782 77.6791 75.5284C77.5643 75.4785 77.4395 75.4562 77.3146 75.463C60.5102 75.4704 43.7062 75.4726 26.9025 75.4695C26.8285 75.4695 26.7544 75.4695 26.6803 75.4695C26.6259 75.4639 26.571 75.4719 26.5206 75.493C26.4701 75.514 26.4257 75.5473 26.3914 75.5898C25.3729 76.6917 24.3544 77.7889 23.2988 78.9232H80.9099C79.9072 77.8436 78.934 76.8047 77.9757 75.75Z" fill="#1E7EAA"/>
<path d="M60.3169 55.5602C60.3225 55.4053 60.273 55.2534 60.1772 55.1316C60.0814 55.0097 59.9456 54.9257 59.7937 54.8945C59.3836 54.7871 58.9706 54.6871 58.5585 54.588C57.553 54.3472 57.153 53.3945 57.6882 52.5084C57.9076 52.1445 58.1345 51.7852 58.3511 51.4195C58.5363 51.1065 58.5123 50.8352 58.2641 50.5861C57.703 50.0158 57.1379 49.4491 56.5687 48.8861C56.2965 48.6176 56.0206 48.5945 55.6937 48.7935C55.316 49.0185 54.9428 49.2565 54.5632 49.475C53.7298 49.9648 52.7789 49.5676 52.5502 48.6287C52.4474 48.2093 52.3502 47.7889 52.2419 47.3713C52.1447 46.9945 51.9187 46.8241 51.5317 46.8241C50.7607 46.8241 49.9891 46.8241 49.2169 46.8241C48.8011 46.8241 48.5687 47.0093 48.4706 47.4167C48.378 47.7926 48.2854 48.1685 48.2002 48.5454C47.9567 49.5889 47.028 49.9852 46.1067 49.4371C45.7539 49.2278 45.4058 49.0111 45.053 48.8019C44.7002 48.5926 44.4345 48.6222 44.1447 48.9093C43.594 49.4513 43.0459 50 42.5002 50.5556C42.228 50.8334 42.1984 51.1167 42.3984 51.4463C42.6141 51.8037 42.8345 52.1584 43.0511 52.5158C43.5771 53.3834 43.1734 54.3509 42.19 54.5871C41.7632 54.6898 41.3354 54.7908 40.9104 54.9019C40.7743 54.9333 40.6527 55.0097 40.5653 55.1188C40.478 55.2278 40.4299 55.3631 40.4289 55.5028C40.4221 56.3411 40.4221 57.1787 40.4289 58.0158C40.4289 58.3352 40.6085 58.5435 40.9224 58.6241C41.34 58.7324 41.7558 58.8343 42.1789 58.9352C43.1817 59.1759 43.5798 60.1389 43.0437 61.0185C42.8308 61.3692 42.6169 61.7192 42.4021 62.0685C42.3192 62.1815 42.2736 62.3174 42.2715 62.4574C42.2698 62.5522 42.2886 62.6463 42.3264 62.7332C42.3643 62.8201 42.4204 62.8978 42.491 62.9611C43.0465 63.5167 43.6021 64.0722 44.1576 64.6278C44.4354 64.9056 44.7132 64.9334 45.0465 64.7324C45.4113 64.5148 45.7817 64.3047 46.1363 64.0704C46.9697 63.5148 48.0011 64.0019 48.203 64.9482C48.2956 65.3704 48.3974 65.7898 48.5095 66.2065C48.5404 66.3546 48.6237 66.4865 48.7442 66.5781C48.8646 66.6696 49.0141 66.7145 49.165 66.7046C49.9675 66.7046 50.7678 66.7046 51.566 66.7046C51.9206 66.7046 52.1521 66.5195 52.2428 66.1713C52.3484 65.7602 52.4724 65.3519 52.5419 64.9352C52.582 64.718 52.6753 64.5142 52.8134 64.3419C52.9516 64.1696 53.1303 64.0342 53.3336 63.9479C53.5368 63.8616 53.7583 63.827 53.9782 63.8473C54.1982 63.8675 54.4096 63.9419 54.5937 64.0639C54.9576 64.2972 55.3345 64.5176 55.7048 64.7389C56.0326 64.9334 56.3132 64.9 56.578 64.6371C57.1298 64.0877 57.6795 63.5371 58.2271 62.9852C58.5206 62.6898 58.5502 62.4139 58.3335 62.0593C58.1169 61.7047 57.8947 61.3482 57.6789 60.9908C57.1632 60.1343 57.5715 59.1722 58.5474 58.9389C58.9752 58.8371 59.4021 58.7352 59.8271 58.6241C59.9711 58.5927 60.0995 58.5117 60.1899 58.3953C60.2803 58.2789 60.3268 58.1344 60.3215 57.9871C60.3234 57.1772 60.3218 56.3682 60.3169 55.5602ZM58.8048 57.5047C58.3197 57.6176 57.828 57.7037 57.39 57.9676C56.165 58.7009 55.74 60.3426 56.4641 61.5685C56.5974 61.7926 56.7298 62.0176 56.8752 62.2343C56.9419 62.3324 56.9419 62.3908 56.853 62.475C56.5928 62.7232 56.3382 62.9759 56.0919 63.238C55.9993 63.3306 55.9428 63.3352 55.8345 63.2648C55.3965 62.9815 54.9595 62.6982 54.4391 62.5787C54.0987 62.4988 53.7459 62.487 53.401 62.5442C53.0561 62.6014 52.7259 62.7264 52.4296 62.9119C52.1332 63.0975 51.8766 63.3399 51.6745 63.6252C51.4724 63.9105 51.3288 64.233 51.2521 64.5741C51.203 64.7926 51.1521 65.0093 51.1021 65.2278C51.0808 65.3204 51.0437 65.375 50.9243 65.3713C50.5585 65.3611 50.1919 65.3602 49.8252 65.3713C49.6947 65.3713 49.6613 65.3139 49.64 65.2121C49.5697 64.9232 49.5095 64.6306 49.4187 64.3482C49.3005 63.9673 49.0974 63.6183 48.8248 63.3273C48.5521 63.0364 48.217 62.8111 47.8446 62.6685C47.4722 62.5258 47.0724 62.4696 46.6751 62.5039C46.2778 62.5382 45.8935 62.6623 45.5511 62.8667C45.3317 62.9945 45.1197 63.1324 44.903 63.2667L44.778 63.3445C44.7521 63.3213 44.7234 63.3 44.6984 63.275C44.4206 62.9972 44.1521 62.7195 43.8706 62.4528C43.7873 62.3722 43.8197 62.3213 43.865 62.2454C44.0984 61.8565 44.3734 61.4898 44.5132 61.0491C44.9761 59.5491 44.1011 58.0232 42.5613 57.6463C42.3829 57.5938 42.2018 57.5511 42.0187 57.5185C41.8335 57.4935 41.7576 57.4259 41.7706 57.2222C41.7882 56.9009 41.7882 56.5788 41.7706 56.2574C41.7632 56.1037 41.8224 56.0556 41.9558 56.0241C42.4252 55.9148 42.9011 55.8315 43.328 55.5778C43.6293 55.402 43.893 55.1684 44.1038 54.8904C44.3146 54.6124 44.4685 54.2955 44.5565 53.9579C44.6445 53.6203 44.665 53.2687 44.6167 52.9231C44.5684 52.5776 44.4524 52.245 44.2752 51.9445C44.14 51.713 43.9974 51.4815 43.8511 51.2611C43.7873 51.1685 43.8252 51.1204 43.89 51.0565C44.1521 50.8 44.4141 50.5435 44.666 50.2778C44.7511 50.1852 44.8067 50.1926 44.9076 50.2556C45.278 50.488 45.6363 50.7482 46.0595 50.8898C47.528 51.3797 49.1298 50.4787 49.4947 48.9565C49.5567 48.6954 49.5428 48.3482 49.7076 48.2C49.8724 48.0519 50.2215 48.1602 50.4891 48.1593C50.6808 48.1593 50.928 48.075 51.0502 48.1945C51.1724 48.3139 51.1687 48.5528 51.2067 48.7417C51.341 49.4074 51.6363 49.9759 52.166 50.4139C52.5836 50.7638 53.0996 50.9754 53.6426 51.0193C54.1857 51.0633 54.729 50.9375 55.1974 50.6593C55.4104 50.5361 55.6197 50.4047 55.8243 50.2685C55.9298 50.1982 56.0002 50.1806 56.1021 50.2908C56.34 50.5491 56.591 50.7954 56.8428 51.038C56.9354 51.125 56.9474 51.1797 56.8761 51.2954C56.628 51.7009 56.3447 52.0871 56.2123 52.5565C56.114 52.9037 56.0874 53.2673 56.134 53.6252C56.1806 53.983 56.2995 54.3276 56.4835 54.6381C56.6674 54.9486 56.9126 55.2184 57.204 55.4312C57.4955 55.644 57.8272 55.7953 58.1789 55.8759C58.3891 55.9241 58.5984 55.9759 58.8104 56.0185C58.941 56.0454 58.9845 56.1111 58.9798 56.2454C58.9687 56.5898 58.9669 56.9343 58.9798 57.2778C58.9882 57.4269 58.928 57.4722 58.8048 57.5V57.5047Z" fill="#010101"/>
<path d="M50.4183 52.7833C48.2424 52.762 46.4368 54.488 46.3822 56.6037C46.3211 59.1222 48.3461 60.7704 50.3498 60.7343C52.5405 60.7657 54.3396 58.9491 54.3461 56.8093C54.3517 54.5935 52.585 52.8037 50.4183 52.7833ZM50.3702 59.3982C49.8481 59.3983 49.3377 59.2435 48.9036 58.9533C48.4696 58.6631 48.1315 58.2506 47.9321 57.7681C47.7327 57.2856 47.6811 56.7547 47.7837 56.2428C47.8863 55.7309 48.1386 55.2609 48.5085 54.8925C48.8785 54.5241 49.3495 54.2738 49.8619 54.1734C50.3742 54.0729 50.9049 54.1268 51.3865 54.3282C51.8682 54.5296 52.2793 54.8695 52.5677 55.3047C52.856 55.74 53.0087 56.2511 53.0063 56.7732C53.0036 57.4704 52.7246 58.1382 52.2305 58.6303C51.7364 59.1223 51.0675 59.3984 50.3702 59.3982Z" fill="#010101"/>
<path d="M72.5269 19.8398C72.5269 20.0518 72.5269 20.2639 72.5269 20.475C72.5269 20.9379 72.2908 21.2157 71.8398 21.2722C71.5597 21.3085 71.2759 21.3063 70.9963 21.2657C70.5926 21.2028 70.3565 20.9426 70.3482 20.5342C70.3371 20.0663 70.3371 19.5984 70.3482 19.1305C70.3565 18.724 70.5935 18.4583 70.9963 18.3991C71.2886 18.356 71.5856 18.356 71.8778 18.3991C72.288 18.4602 72.5204 18.7342 72.526 19.1481C72.5315 19.3787 72.5278 19.6092 72.5269 19.8398Z" fill="#010101"/>
<path d="M70.3452 31.3778C70.3452 31.1602 70.3452 30.9417 70.3452 30.7241C70.3535 30.2333 70.6516 29.9342 71.1387 29.9278C71.3507 29.9278 71.5627 29.9222 71.7739 29.9278C72.2109 29.9417 72.5146 30.2333 72.5248 30.6685C72.5359 31.1426 72.5359 31.617 72.5248 32.0917C72.5268 32.1866 72.5097 32.2811 72.4748 32.3694C72.4398 32.4577 72.3875 32.5382 72.321 32.606C72.2545 32.6739 72.1751 32.7278 72.0876 32.7646C72 32.8014 71.9059 32.8204 71.8109 32.8204C71.5675 32.8333 71.3237 32.8333 71.0803 32.8204C70.6303 32.7981 70.3544 32.5046 70.3461 32.0509C70.3414 31.8268 70.3452 31.6028 70.3452 31.3778Z" fill="#010101"/>
<path d="M72.5275 25.6176C72.5275 25.8426 72.5275 26.0667 72.5275 26.2908C72.5192 26.7445 72.2368 27.0315 71.7868 27.0454C71.5559 27.0522 71.3254 27.0522 71.0951 27.0454C70.6498 27.0333 70.3627 26.7574 70.3544 26.3111C70.3424 25.8435 70.3433 25.3759 70.3544 24.9074C70.3636 24.5019 70.6007 24.237 71.0025 24.1769C71.2944 24.1333 71.5912 24.1333 71.8831 24.1769C72.2933 24.237 72.5257 24.512 72.5312 24.9259C72.5322 25.1565 72.5285 25.387 72.5275 25.6176Z" fill="#010101"/>
<path d="M66.0182 19.8278C66.0182 19.6158 66.0182 19.4046 66.0182 19.1926C66.0182 18.7176 66.246 18.437 66.7117 18.3889C67.0049 18.3534 67.3015 18.3587 67.5932 18.4046C67.7503 18.426 67.8949 18.5021 68.0013 18.6197C68.1077 18.7373 68.1691 18.8887 68.1747 19.0472C68.1904 19.5463 68.1913 20.0472 68.1821 20.5472C68.1728 20.963 67.9367 21.2204 67.5089 21.2704C67.2099 21.3099 66.9068 21.3058 66.6089 21.2583C66.4462 21.2328 66.2978 21.1504 66.19 21.0258C66.0822 20.9012 66.022 20.7425 66.02 20.5778C66.0145 20.3278 66.02 20.0778 66.02 19.8278H66.0182Z" fill="#010101"/>
<path d="M66.0195 25.6074V24.9722C66.0195 24.4963 66.2445 24.2167 66.7112 24.1676C67.004 24.1321 67.3004 24.1374 67.5918 24.1833C67.7489 24.2036 67.8937 24.2789 68.0005 24.3959C68.1073 24.5129 68.1692 24.6639 68.1751 24.8222C68.1899 25.3472 68.1908 25.8731 68.1751 26.3963C68.1704 26.5648 68.1012 26.7251 67.9818 26.8442C67.8625 26.9632 67.702 27.0319 67.5334 27.0361C67.2455 27.0491 66.9556 27.0491 66.6686 27.0361C66.494 27.0271 66.3295 26.9515 66.209 26.8249C66.0884 26.6983 66.0209 26.5304 66.0205 26.3555C66.014 26.1055 66.0205 25.8555 66.0205 25.6055L66.0195 25.6074Z" fill="#010101"/>
<path d="M68.1802 31.3889C68.1802 31.6519 68.1922 31.9158 68.1802 32.1778C68.1708 32.3423 68.1019 32.4978 67.9864 32.6153C67.8709 32.7328 67.7167 32.8044 67.5524 32.8167C67.2646 32.8412 66.9753 32.8412 66.6876 32.8167C66.5063 32.8073 66.3358 32.7278 66.2122 32.5949C66.0887 32.4619 66.0217 32.2861 66.0255 32.1047C66.0255 31.6306 66.0255 31.1556 66.0255 30.6815C66.0255 30.2982 66.2487 30.0111 66.6274 29.9537C66.963 29.8974 67.3059 29.9008 67.6404 29.9639C67.7893 29.9934 67.924 30.0721 68.0228 30.1872C68.1217 30.3024 68.1791 30.4474 68.1857 30.5991C68.1857 30.6241 68.1922 30.65 68.1922 30.675V31.3889H68.1802Z" fill="#010101"/>
<path d="M76.1282 34.5796V34.5426C76.1319 28.555 76.1319 22.5673 76.1282 16.5797H74.6856V21.8093C74.6856 26.0531 74.6856 30.2966 74.6856 34.5398C74.6856 34.7306 74.6346 34.7676 74.4541 34.7667C70.993 34.7611 67.5322 34.7611 64.0717 34.7667C63.8958 34.7667 63.8559 34.7222 63.8559 34.5491C63.8603 28.6361 63.8603 22.7232 63.8559 16.8102C63.8522 16.7312 63.8664 16.6523 63.8976 16.5797H62.4069C62.4106 20.1982 62.4106 23.8161 62.4069 27.4334C62.4069 29.8148 62.4069 32.1966 62.4069 34.5787C62.4074 34.6054 62.4052 34.6321 62.4004 34.6584C62.4004 35.1213 62.4004 35.5843 62.4004 36.0472C62.4004 36.1019 62.4004 36.1602 62.4004 36.2185H76.168C76.1596 35.6676 76.13 35.1241 76.1282 34.5796Z" fill="#010101"/>
<path d="M76.1415 34.4963V34.4852C76.1372 30.8716 76.1372 27.2574 76.1415 23.6426C76.1415 21.2611 76.1415 18.8793 76.1415 16.4972C76.1412 16.4706 76.1431 16.4439 76.1471 16.4176C76.1471 15.9546 76.1471 15.4917 76.1471 15.0287C76.1471 14.975 76.1471 14.9167 76.1471 14.8583H62.4082V16.3889C62.4226 16.4324 62.4288 16.4783 62.4267 16.5241C62.4224 22.5117 62.4224 28.5012 62.4267 34.4926H63.8721V29.2667C63.8721 25.0235 63.8702 20.7799 63.8665 16.5361C63.8665 16.3454 63.9175 16.3083 64.0989 16.3093C67.5588 16.3148 71.0193 16.3148 74.4804 16.3093C74.6573 16.3093 74.6971 16.3537 74.6971 16.5269C74.6928 22.4398 74.6928 28.3528 74.6971 34.2657C74.7006 34.3447 74.6867 34.4234 74.6564 34.4963H76.1415Z" fill="#010101"/>
<path d="M44.0992 30.7407C42.8597 29.9907 41.6159 29.2475 40.3677 28.5111C39.7631 28.1555 39.164 28.5009 39.1538 29.2009C39.1473 29.5926 39.1381 29.9861 39.1584 30.3759C39.1714 30.6037 39.0927 30.6417 38.8807 30.6407C35.4856 30.6339 32.0905 30.6321 28.6955 30.6352C27.7654 30.6249 26.8369 30.7149 25.926 30.9037C22.527 31.6444 19.8084 33.4398 17.8381 36.3102C16.3834 38.4296 15.6233 40.7898 15.6159 43.3741C15.6103 45.263 15.6159 47.1528 15.6159 49.0417C15.6159 51.1713 15.6205 53.3083 15.6094 55.4407C15.6094 55.6815 15.6779 55.7305 15.8973 55.7185C16.2189 55.6972 16.5415 55.6972 16.8631 55.7185C17.0983 55.7352 17.1409 55.6602 17.1409 55.4342C17.1334 51.3941 17.1297 47.3543 17.1297 43.3148C17.1312 42.6191 17.2076 41.9256 17.3575 41.2463C17.9084 38.6907 19.1723 36.5518 21.1733 34.8667C23.1333 33.1808 25.6199 32.2312 28.2047 32.1815C28.9353 32.1611 29.6668 32.1731 30.3983 32.1722C33.2279 32.1722 36.0578 32.1704 38.8881 32.1667C39.1084 32.1667 39.1659 32.2241 39.1557 32.4389C39.1372 32.8481 39.1372 33.2583 39.1557 33.6667C39.1834 34.3148 39.7973 34.6509 40.3446 34.325C41.5964 33.5799 42.8458 32.829 44.0927 32.0722C44.2114 32.0065 44.3104 31.9104 44.3796 31.7937C44.4488 31.677 44.4856 31.544 44.4862 31.4084C44.4869 31.2727 44.4514 31.1394 44.3833 31.022C44.3153 30.9047 44.2172 30.8076 44.0992 30.7407Z" fill="#010101"/>
<path d="M60.3058 29.2148C58.2786 27.192 56.2527 25.1679 54.228 23.1426C53.7696 22.6843 53.4317 22.6852 52.9752 23.1426L48.5983 27.5093C48.0187 28.087 47.44 28.6651 46.8622 29.2435C46.6187 29.4861 46.5178 29.7639 46.6567 30.0926C46.7956 30.4213 47.0585 30.5241 47.3974 30.5176C47.7576 30.512 48.1196 30.5296 48.4798 30.5111C48.665 30.5019 48.6993 30.5639 48.6983 30.737C48.6909 32.213 48.6983 33.6889 48.6983 35.1648C48.6983 35.9 48.9169 36.1157 49.6604 36.1157H53.6067C54.9709 36.1157 56.3345 36.1157 57.6974 36.1157C58.253 36.1157 58.5132 35.8509 58.5141 35.288C58.5141 33.7796 58.5141 32.2722 58.5095 30.7639C58.5095 30.5741 58.5382 30.5009 58.7502 30.512C59.1335 30.5315 59.5196 30.5222 59.9048 30.512C60.0749 30.5175 60.2409 30.4587 60.3695 30.3474C60.4982 30.236 60.5803 30.0802 60.5993 29.9111C60.64 29.6213 60.5011 29.4102 60.3058 29.2148ZM54.2928 34.575C54.2928 34.6787 54.2613 34.712 54.1576 34.7102C53.7872 34.7056 53.4215 34.7037 53.053 34.7102C52.9326 34.7102 52.9067 34.6694 52.9085 34.5583C52.915 34.263 52.9085 33.9667 52.9085 33.6704C52.9085 33.3741 52.9085 33.0778 52.9085 32.7824C52.9085 32.6602 52.9372 32.6157 53.0669 32.6185C53.4187 32.6278 53.7715 32.625 54.1233 32.6185C54.2382 32.6185 54.2956 32.6343 54.2937 32.7722C54.2872 33.3741 54.2891 33.9741 54.2928 34.575ZM57.8622 29.1065C57.3761 29.1185 57.1039 29.3843 57.1002 29.8694C57.0946 30.5833 57.1002 31.2972 57.1002 32.0111C57.1002 32.838 57.0937 33.6648 57.1048 34.4907C57.1048 34.6759 57.0548 34.7213 56.877 34.713C56.5493 34.6982 56.2187 34.7 55.8909 34.713C55.7391 34.7194 55.7058 34.6732 55.7058 34.5278C55.7132 33.7019 55.7058 32.875 55.7058 32.0482C55.7058 31.4926 55.4187 31.2065 54.8613 31.2056C54.0187 31.2056 53.1761 31.2056 52.3335 31.2056C51.7632 31.2056 51.4854 31.4898 51.4845 32.0676C51.4845 32.8787 51.4798 33.6889 51.4845 34.4991C51.4845 34.6593 51.4576 34.7232 51.2798 34.7148C50.952 34.6991 50.6224 34.7009 50.2937 34.7148C50.1317 34.7213 50.0974 34.6685 50.0974 34.5148C50.103 33.0228 50.103 31.5306 50.0974 30.038C50.0984 29.9258 50.091 29.8138 50.0752 29.7028C50.0557 29.5463 49.9816 29.4018 49.8658 29.2947C49.7501 29.1876 49.6003 29.1249 49.4428 29.1176C49.3169 29.1074 49.1882 29.1176 49.0011 29.1176C49.078 29.0333 49.1122 28.9917 49.1511 28.9537C50.5795 27.5235 52.0082 26.0929 53.4372 24.662C53.5437 24.5556 53.6067 24.5194 53.7345 24.6491C55.1647 26.0886 56.5993 27.5247 58.0382 28.9574C58.0761 28.9944 58.1076 29.038 58.1706 29.1111C58.0483 29.1065 57.9548 29.1046 57.8622 29.1065Z" fill="#010101"/>
<path d="M81.9094 79.0417C80.5732 77.6121 79.2501 76.1713 77.9131 74.7426C77.8189 74.6499 77.745 74.5386 77.6959 74.4159C77.6469 74.2932 77.6237 74.1617 77.6279 74.0297C77.6353 63.175 77.6186 52.3204 77.6519 41.4658C77.6519 39.8982 76.5881 38.8 75.0047 38.8028C58.9381 38.83 42.8714 38.8321 26.8047 38.8093C25.2019 38.8093 24.314 40.1111 24.3168 41.2778C24.3433 52.2037 24.3498 63.1321 24.3362 74.063C24.3436 74.1709 24.3284 74.2792 24.2916 74.3809C24.2547 74.4826 24.1971 74.5756 24.1223 74.6537C22.7844 76.0815 21.4723 77.5334 20.1242 78.9509C19.9711 79.1013 19.8582 79.2876 19.7958 79.4929C19.7333 79.6982 19.7234 79.9158 19.7668 80.1259C19.8036 80.3685 19.8568 80.6082 19.926 80.8435C20.3334 82.2009 21.0316 82.7158 22.4492 82.7158H50.9112C60.5094 82.7158 70.1081 82.7185 79.7075 82.7241C80.4408 82.7241 80.9473 82.425 81.3455 81.8556C81.7436 81.2861 81.9566 80.6611 82.1529 80.013C82.2695 79.6222 82.1788 79.3297 81.9094 79.0417ZM25.8056 41.3185C25.8056 40.6009 26.1205 40.2834 26.8343 40.2834H75.1075C75.8418 40.2834 76.1612 40.6019 76.1612 41.3398C76.1612 52.0954 76.164 62.8509 76.1695 73.6065C76.1695 73.9315 76.0658 73.9769 75.7751 73.9769C67.5078 73.9688 59.2402 73.9667 50.9723 73.9704C42.7297 73.9704 34.4871 73.9729 26.2445 73.9778C25.9019 73.9778 25.7955 73.9185 25.7964 73.5472C25.8087 62.8053 25.8118 52.0624 25.8056 41.3185ZM25.2649 75.5852C25.2993 75.5419 25.344 75.508 25.395 75.4866C25.446 75.4652 25.5016 75.4571 25.5566 75.463C25.6297 75.4676 25.7047 75.463 25.7779 75.463C42.5828 75.463 59.3871 75.4608 76.1908 75.4565C76.3164 75.4504 76.4417 75.4737 76.5567 75.5247C76.6717 75.5756 76.7731 75.6528 76.8529 75.75C77.8112 76.8046 78.7871 77.8435 79.7862 78.9204H22.1723C23.2279 77.7843 24.2492 76.6871 25.2649 75.5852ZM79.251 81.2426L22.964 81.2556C22.7918 81.2556 22.6195 81.2454 22.4473 81.2426C21.751 81.2343 21.6362 81.15 21.4288 80.4361H80.3482C80.0473 81.2408 80.0473 81.2417 79.251 81.2426Z" fill="#010101"/>
<path d="M74.6057 42.0954C74.6057 41.738 74.5196 41.6574 74.1659 41.6574C58.7054 41.6679 43.2455 41.6679 27.7862 41.6574C27.4631 41.6574 27.3594 41.7194 27.3594 42.0704C27.3705 52.0969 27.3705 62.1238 27.3594 72.1509C27.3594 72.5093 27.4446 72.5898 27.7992 72.5898C35.5233 72.5781 43.247 72.575 50.9705 72.5806C58.6939 72.5861 66.418 72.5889 74.1427 72.5889C74.501 72.5889 74.6057 72.5241 74.6057 72.138C74.5939 62.1244 74.5939 52.1102 74.6057 42.0954ZM73.1316 70.7241C73.1316 71.0444 73.064 71.1231 72.7362 71.1231C58.2381 71.1139 43.7396 71.1139 29.2409 71.1231C28.889 71.1231 28.8344 71.0157 28.8344 70.6981C28.8424 61.6457 28.8424 52.5923 28.8344 43.538C28.8344 43.2194 28.901 43.137 29.2297 43.138C36.4853 43.1491 43.7405 43.1519 50.9955 43.1463C58.227 43.1463 65.4578 43.1438 72.6881 43.1389C73.0251 43.1389 73.1353 43.1898 73.1344 43.563C73.122 52.6173 73.1211 61.671 73.1316 70.7241Z" fill="#010101"/>
</svg>
