<svg width="20" height="21" viewBox="0 0 20 21" fill="none" xmlns="http://www.w3.org/2000/svg">
<path d="M14.7148 14.3808L11.179 17.9167C11.0244 18.0715 10.8407 18.1942 10.6386 18.278C10.4365 18.3618 10.2199 18.4049 10.0011 18.4049C9.78228 18.4049 9.56564 18.3618 9.36352 18.278C9.16141 18.1942 8.97779 18.0715 8.82315 17.9167L5.28649 14.3808C4.35417 13.4485 3.71927 12.2606 3.46206 10.9674C3.20485 9.67419 3.3369 8.33376 3.84149 7.11561C4.34608 5.89745 5.20057 4.85628 6.29689 4.12376C7.39321 3.39123 8.68213 3.00024 10.0007 3.00024C11.3192 3.00024 12.6081 3.39123 13.7044 4.12376C14.8007 4.85628 15.6552 5.89745 16.1598 7.11561C16.6644 8.33376 16.7965 9.67419 16.5392 10.9674C16.282 12.2606 15.6471 13.4485 14.7148 14.3808V14.3808Z" stroke="#666666" stroke-width="1.5" stroke-linecap="round" stroke-linejoin="round"/>
<path d="M12.5 9.66663C12.5 10.3297 12.2366 10.9656 11.7678 11.4344C11.2989 11.9032 10.663 12.1666 10 12.1666C9.33696 12.1666 8.70107 11.9032 8.23223 11.4344C7.76339 10.9656 7.5 10.3297 7.5 9.66663C7.5 9.00358 7.76339 8.3677 8.23223 7.89886C8.70107 7.43002 9.33696 7.16663 10 7.16663C10.663 7.16663 11.2989 7.43002 11.7678 7.89886C12.2366 8.3677 12.5 9.00358 12.5 9.66663V9.66663Z" stroke="#666666" stroke-width="1.5" stroke-linecap="round" stroke-linejoin="round"/>
</svg>
