<svg width="217" height="73" viewBox="0 0 217 73" fill="none" xmlns="http://www.w3.org/2000/svg">
<g clip-path="url(#clip0_4101_13037)">
<path d="M199.719 0.500234H17.2903C16.6253 0.500234 15.9683 0.500234 15.3051 0.503834C14.7499 0.507434 14.1992 0.517892 13.6387 0.526694C12.421 0.540917 11.2062 0.647251 10.0048 0.844772C8.80505 1.04659 7.64293 1.42708 6.55769 1.97337C5.47378 2.52428 4.48337 3.24014 3.62241 4.09496C2.75693 4.94738 2.03549 5.93266 1.48582 7.01292C0.934632 8.09103 0.552438 9.24632 0.352436 10.4389C0.150533 11.63 0.0418868 12.8348 0.0274732 14.0425C0.0106447 14.5944 0.00886757 15.1481 0 15.7V57.3057C0.00886757 57.8646 0.0106447 58.4061 0.0274732 58.9651C0.0418913 60.1728 0.150537 61.3775 0.352436 62.5686C0.551886 63.7618 0.934102 64.9178 1.48582 65.9963C2.03524 67.0731 2.75678 68.0544 3.62241 68.902C4.48011 69.7607 5.47115 70.477 6.55769 71.0237C7.64292 71.5714 8.80492 71.9542 10.0048 72.1591C11.2064 72.3551 12.4211 72.4615 13.6387 72.4774C14.1992 72.4896 14.7499 72.4966 15.3051 72.4966C15.9683 72.5002 16.6253 72.5002 17.2903 72.5002H199.719C200.371 72.5002 201.033 72.5002 201.685 72.4966C202.238 72.4966 202.804 72.4896 203.357 72.4774C204.572 72.4623 205.785 72.3559 206.984 72.1591C208.188 71.9528 209.354 71.5701 210.444 71.0237C211.53 70.4767 212.52 69.7604 213.377 68.902C214.24 68.051 214.963 67.0705 215.52 65.9963C216.067 64.917 216.446 63.7611 216.642 62.5686C216.844 61.3774 216.957 60.1729 216.979 58.9651C216.986 58.4061 216.986 57.8646 216.986 57.3057C217 56.6518 217 56.0014 217 55.3369V17.6653C217 17.0061 217 16.3522 216.986 15.7C216.986 15.1481 216.986 14.5944 216.979 14.0424C216.957 12.8346 216.844 11.6301 216.642 10.4388C216.445 9.24694 216.067 8.09174 215.52 7.01285C214.4 4.84759 212.625 3.08508 210.444 1.97321C209.354 1.42826 208.187 1.04787 206.984 0.84461C205.785 0.646219 204.572 0.539848 203.357 0.526442C202.804 0.517658 202.238 0.50711 201.685 0.5036C201.033 0.5 200.371 0.5 199.719 0.5V0.500234Z" fill="#A6A6A6"/>
<path d="M15.3138 70.925C14.7613 70.925 14.2221 70.9179 13.674 70.9057C12.5384 70.891 11.4054 70.7929 10.2845 70.6121C9.23919 70.4334 8.22661 70.101 7.28011 69.6259C6.34229 69.1547 5.48692 68.5368 4.74677 67.796C3.99591 67.0639 3.37079 66.2148 2.89617 65.2823C2.41632 64.3438 2.08424 63.3378 1.91149 62.2994C1.72493 61.1836 1.624 60.0553 1.60956 58.9244C1.59806 58.5447 1.58301 57.2808 1.58301 57.2808V15.6998C1.58301 15.6998 1.59904 14.4552 1.60965 14.0896C1.62348 12.9604 1.72382 11.8339 1.90982 10.7199C2.08289 9.6786 2.41523 8.6697 2.89534 7.72809C3.36821 6.79625 3.98986 5.9465 4.7362 5.21178C5.4817 4.47007 6.3398 3.84904 7.27922 3.37133C8.22354 2.89772 9.23421 2.56767 10.2774 2.39224C11.402 2.20966 12.5389 2.11094 13.6784 2.09693L15.3147 2.07495H201.676L203.332 2.09781C204.461 2.11113 205.588 2.20896 206.702 2.39047C207.756 2.56811 208.777 2.90046 209.732 3.3766C211.614 4.33933 213.145 5.86245 214.111 7.73248C214.584 8.66759 214.911 9.66826 215.082 10.7005C215.27 11.8237 215.376 12.9591 215.397 14.0975C215.402 14.6073 215.402 15.1548 215.402 15.6998C215.417 16.3748 215.417 17.0172 215.417 17.665V55.3366C215.417 55.9905 215.417 56.6286 215.402 57.272C215.402 57.8573 215.402 58.3935 215.395 58.9454C215.374 60.0635 215.271 61.1786 215.085 62.2817C214.916 63.3276 214.586 64.3415 214.106 65.2877C213.628 66.2101 213.007 67.0518 212.265 67.782C211.524 68.5268 210.667 69.1483 209.727 69.6225C208.774 70.1013 207.755 70.4349 206.702 70.6121C205.581 70.7938 204.448 70.892 203.312 70.9057C202.781 70.9179 202.225 70.925 201.685 70.925L199.719 70.9286L15.3138 70.925Z" fill="black"/>
<path d="M51.3346 38.2719C51.3545 36.7387 51.7641 35.2355 52.5252 33.902C53.2863 32.5685 54.3743 31.4481 55.6879 30.645C54.8534 29.46 53.7525 28.4847 52.4727 27.7967C51.1928 27.1087 49.7693 26.7269 48.3151 26.6816C45.2131 26.3579 42.2058 28.5274 40.6251 28.5274C39.0138 28.5274 36.58 26.7138 33.9592 26.7674C32.264 26.8218 30.6119 27.312 29.1639 28.1902C27.7159 29.0683 26.5213 30.3045 25.6965 31.7782C22.1239 37.9288 24.7888 46.9683 28.211 51.94C29.9233 54.3745 31.9244 57.0939 34.5428 56.9975C37.1051 56.8918 38.062 55.3728 41.1549 55.3728C44.2191 55.3728 45.1169 56.9975 47.7885 56.9362C50.5379 56.8918 52.2702 54.4908 53.9223 52.0333C55.1526 50.2986 56.0992 48.3814 56.7273 46.3527C55.1299 45.6809 53.7668 44.5564 52.8078 43.1194C51.8489 41.6824 51.3365 39.9965 51.3346 38.2719Z" fill="white"/>
<path d="M46.2883 23.4119C47.7874 21.6224 48.5259 19.3223 48.3471 17C46.0568 17.2392 43.9412 18.3277 42.4218 20.0485C41.679 20.8892 41.11 21.8672 40.7475 22.9267C40.385 23.9861 40.236 25.1063 40.3091 26.223C41.4547 26.2347 42.588 25.9878 43.6237 25.5009C44.6594 25.014 45.5704 24.2997 46.2883 23.4119Z" fill="white"/>
<path d="M76.1425 16.9623C76.7598 16.9183 77.3793 17.0109 77.9562 17.2333C78.5331 17.4558 79.0531 17.8025 79.4787 18.2486C79.9042 18.6947 80.2247 19.2289 80.4171 19.8129C80.6095 20.3968 80.6689 21.0158 80.591 21.6252C80.591 24.6233 78.9586 26.3466 76.1425 26.3466H72.7275V16.9623H76.1425ZM74.1959 25.0195H75.9785C76.4196 25.0456 76.861 24.9738 77.2707 24.8093C77.6803 24.6448 78.0478 24.3917 78.3465 24.0684C78.6452 23.7451 78.8674 23.3597 78.9971 22.9404C79.1268 22.5211 79.1607 22.0783 79.0963 21.6444C79.1561 21.2121 79.1187 20.7721 78.987 20.3559C78.8553 19.9396 78.6325 19.5574 78.3345 19.2367C78.0366 18.916 77.6708 18.6646 77.2635 18.5007C76.8561 18.3368 76.4173 18.2643 75.9785 18.2885H74.1959V25.0195Z" fill="white"/>
<path d="M82.2493 22.8027C82.2045 22.3373 82.2581 21.8677 82.4068 21.4241C82.5555 20.9805 82.7959 20.5726 83.1127 20.2266C83.4295 19.8806 83.8157 19.6042 84.2464 19.4151C84.6771 19.2259 85.143 19.1282 85.614 19.1282C86.085 19.1282 86.5508 19.2259 86.9815 19.4151C87.4123 19.6042 87.7984 19.8806 88.1152 20.2266C88.432 20.5726 88.6725 20.9805 88.8212 21.4241C88.9698 21.8677 89.0235 22.3373 88.9786 22.8027C89.0243 23.2686 88.9713 23.7388 88.823 24.1831C88.6747 24.6275 88.4344 25.0361 88.1176 25.3828C87.8007 25.7294 87.4142 26.0064 86.9831 26.196C86.5519 26.3856 86.0855 26.4835 85.614 26.4835C85.1424 26.4835 84.676 26.3856 84.2449 26.196C83.8137 26.0064 83.4273 25.7294 83.1104 25.3828C82.7935 25.0361 82.5532 24.6275 82.4049 24.1831C82.2566 23.7388 82.2036 23.2686 82.2493 22.8027ZM87.5303 22.8027C87.5303 21.2676 86.8356 20.3699 85.6163 20.3699C84.3924 20.3699 83.7038 21.2676 83.7038 22.8027C83.7038 24.3501 84.3924 25.2409 85.6163 25.2409C86.8356 25.2409 87.5303 24.344 87.5303 22.8027H87.5303Z" fill="white"/>
<path d="M97.9246 26.3466H96.4639L94.9893 21.1307H94.8779L93.4095 26.3466H91.9627L89.9961 19.2646H91.4243L92.7024 24.6686H92.8076L94.2745 19.2646H95.6253L97.0921 24.6686H97.2035L98.4754 19.2646H99.8835L97.9246 26.3466Z" fill="white"/>
<path d="M101.537 19.2639H102.893V20.3889H102.998C103.176 19.9849 103.477 19.6461 103.859 19.42C104.241 19.1938 104.684 19.0915 105.127 19.1272C105.474 19.1013 105.823 19.1533 106.147 19.2792C106.471 19.4052 106.762 19.602 107 19.8549C107.237 20.1079 107.414 20.4106 107.517 20.7406C107.62 21.0706 107.647 21.4194 107.596 21.7612V26.3458H106.188V22.1122C106.188 20.9741 105.69 20.4081 104.649 20.4081C104.413 20.3973 104.178 20.4371 103.959 20.5249C103.74 20.6127 103.543 20.7464 103.381 20.9169C103.22 21.0873 103.097 21.2905 103.022 21.5125C102.946 21.7344 102.92 21.9699 102.945 22.2028V26.3459H101.537L101.537 19.2639Z" fill="white"/>
<path d="M109.84 16.5H111.248V26.3465H109.84V16.5Z" fill="white"/>
<path d="M113.205 22.8026C113.161 22.3371 113.214 21.8676 113.363 21.4239C113.512 20.9803 113.752 20.5724 114.069 20.2264C114.386 19.8804 114.772 19.604 115.203 19.4148C115.633 19.2256 116.099 19.1279 116.57 19.1279C117.041 19.1279 117.507 19.2256 117.938 19.4148C118.369 19.604 118.755 19.8804 119.072 20.2264C119.389 20.5724 119.629 20.9803 119.778 21.4239C119.927 21.8676 119.98 22.3371 119.935 22.8026C119.981 23.2685 119.928 23.7387 119.78 24.183C119.631 24.6274 119.391 25.036 119.074 25.3826C118.757 25.7293 118.371 26.0063 117.94 26.1959C117.508 26.3854 117.042 26.4833 116.57 26.4833C116.099 26.4833 115.632 26.3854 115.201 26.1959C114.77 26.0063 114.384 25.7293 114.067 25.3826C113.75 25.036 113.509 24.6274 113.361 24.183C113.213 23.7387 113.16 23.2685 113.205 22.8026ZM118.486 22.8026C118.486 21.2675 117.792 20.3698 116.572 20.3698C115.348 20.3698 114.66 21.2675 114.66 22.8026C114.66 24.35 115.348 25.2408 116.572 25.2408C117.792 25.2408 118.486 24.3438 118.486 22.8026H118.486Z" fill="white"/>
<path d="M121.418 24.3438C121.418 23.069 122.374 22.3341 124.072 22.2296L126.004 22.1191V21.5078C126.004 20.7598 125.506 20.3374 124.544 20.3374C123.758 20.3374 123.213 20.6239 123.057 21.1246H121.693C121.837 19.9082 122.99 19.1279 124.609 19.1279C126.397 19.1279 127.406 20.0118 127.406 21.5078V26.3466H126.051V25.3513H125.939C125.713 25.7083 125.396 25.9994 125.019 26.1947C124.643 26.3901 124.221 26.4827 123.796 26.4632C123.497 26.4942 123.194 26.4625 122.908 26.3701C122.621 26.2778 122.357 26.127 122.133 25.9273C121.909 25.7276 121.73 25.4835 121.607 25.2108C121.483 24.938 121.419 24.6427 121.418 24.3438ZM126.004 23.7386V23.1466L124.262 23.2571C123.279 23.3224 122.834 23.6542 122.834 24.2785C122.834 24.9159 123.391 25.2868 124.157 25.2868C124.381 25.3093 124.608 25.2868 124.823 25.2206C125.039 25.1545 125.239 25.0459 125.411 24.9015C125.584 24.757 125.725 24.5796 125.827 24.3799C125.929 24.1801 125.989 23.962 126.004 23.7386Z" fill="white"/>
<path d="M129.257 22.8025C129.257 20.5647 130.416 19.1471 132.218 19.1471C132.664 19.1267 133.107 19.2327 133.494 19.4527C133.882 19.6728 134.198 19.9977 134.406 20.3896H134.512V16.5H135.92V26.3465H134.57V25.2276H134.459C134.235 25.6169 133.907 25.9378 133.512 26.1556C133.117 26.3734 132.67 26.4798 132.218 26.4632C130.403 26.4633 129.257 25.0457 129.257 22.8025ZM130.711 22.8025C130.711 24.3046 131.425 25.2085 132.618 25.2085C133.804 25.2085 134.538 24.2916 134.538 22.8087C134.538 21.3327 133.797 20.4027 132.618 20.4027C131.432 20.4027 130.711 21.3127 130.711 22.8025H130.711Z" fill="white"/>
<path d="M141.745 22.8027C141.701 22.3373 141.754 21.8677 141.903 21.4241C142.052 20.9805 142.292 20.5726 142.609 20.2266C142.926 19.8806 143.312 19.6042 143.742 19.4151C144.173 19.2259 144.639 19.1282 145.11 19.1282C145.581 19.1282 146.047 19.2259 146.478 19.4151C146.908 19.6042 147.294 19.8806 147.611 20.2266C147.928 20.5726 148.169 20.9805 148.317 21.4241C148.466 21.8677 148.52 22.3373 148.475 22.8027C148.52 23.2686 148.467 23.7388 148.319 24.1831C148.171 24.6275 147.931 25.0361 147.614 25.3828C147.297 25.7294 146.91 26.0064 146.479 26.196C146.048 26.3856 145.582 26.4835 145.11 26.4835C144.638 26.4835 144.172 26.3856 143.741 26.196C143.31 26.0064 142.923 25.7294 142.606 25.3828C142.29 25.0361 142.049 24.6275 141.901 24.1831C141.753 23.7388 141.7 23.2686 141.745 22.8027ZM147.026 22.8027C147.026 21.2676 146.332 20.3699 145.112 20.3699C143.888 20.3699 143.2 21.2676 143.2 22.8027C143.2 24.3501 143.889 25.2409 145.112 25.2409C146.332 25.2409 147.026 24.344 147.026 22.8027Z" fill="white"/>
<path d="M150.363 19.2639H151.719V20.3889H151.824C152.002 19.9849 152.304 19.6461 152.685 19.42C153.067 19.1938 153.51 19.0915 153.953 19.1272C154.3 19.1013 154.649 19.1533 154.973 19.2792C155.297 19.4052 155.589 19.602 155.826 19.8549C156.063 20.1079 156.24 20.4106 156.343 20.7406C156.446 21.0706 156.474 21.4194 156.423 21.7612V26.3458H155.015V22.1122C155.015 20.9741 154.516 20.4081 153.475 20.4081C153.239 20.3973 153.004 20.4371 152.785 20.5249C152.566 20.6127 152.369 20.7464 152.208 20.9169C152.046 21.0873 151.923 21.2905 151.848 21.5125C151.772 21.7344 151.746 21.9699 151.771 22.2028V26.3459H150.363V19.2639Z" fill="white"/>
<path d="M164.379 17.5012V19.2967H165.925V20.4739H164.379V24.1155C164.379 24.8573 164.687 25.1822 165.388 25.1822C165.567 25.1816 165.747 25.1708 165.925 25.1499V26.3141C165.672 26.359 165.416 26.3829 165.159 26.3855C163.593 26.3855 162.97 25.8387 162.97 24.4733V20.4739H161.837V19.2966H162.97V17.5012H164.379Z" fill="white"/>
<path d="M167.849 16.5H169.244V20.4027H169.356C169.543 19.9948 169.852 19.6542 170.242 19.4272C170.631 19.2002 171.081 19.0978 171.531 19.134C171.877 19.1154 172.222 19.1726 172.542 19.3017C172.863 19.4307 173.151 19.6283 173.385 19.8805C173.62 20.1327 173.796 20.4332 173.9 20.7605C174.004 21.0878 174.034 21.434 173.988 21.7742V26.3465H172.579V22.119C172.579 20.9878 172.048 20.4149 171.053 20.4149C170.811 20.3952 170.568 20.4283 170.34 20.5117C170.112 20.5952 169.905 20.727 169.734 20.898C169.563 21.069 169.432 21.2751 169.349 21.5018C169.267 21.7285 169.235 21.9703 169.257 22.2104V26.3465H167.849L167.849 16.5Z" fill="white"/>
<path d="M182.198 24.4345C182.007 25.0818 181.592 25.6416 181.027 26.0162C180.462 26.3907 179.782 26.5561 179.106 26.4834C178.636 26.4957 178.169 26.4063 177.738 26.2215C177.306 26.0366 176.92 25.7607 176.606 25.413C176.293 25.0652 176.059 24.6538 175.922 24.2074C175.784 23.761 175.746 23.2903 175.811 22.828C175.748 22.3642 175.787 21.8925 175.924 21.4448C176.061 20.9971 176.293 20.5838 176.605 20.233C176.917 19.8821 177.301 19.6019 177.732 19.4113C178.162 19.2206 178.629 19.1241 179.1 19.128C181.086 19.128 182.283 20.4743 182.283 22.6982V23.1859H177.245V23.2642C177.223 23.5241 177.256 23.7857 177.342 24.0322C177.427 24.2787 177.564 24.5047 177.743 24.6958C177.922 24.8868 178.139 25.0386 178.381 25.1414C178.622 25.2443 178.882 25.2959 179.145 25.293C179.482 25.3332 179.823 25.273 180.125 25.1201C180.428 24.9672 180.677 24.7285 180.843 24.4345L182.198 24.4345ZM177.245 22.1522H180.849C180.866 21.9145 180.834 21.6758 180.753 21.4513C180.672 21.2269 180.545 21.0216 180.38 20.8489C180.215 20.6761 180.015 20.5396 179.793 20.4481C179.571 20.3566 179.333 20.3121 179.093 20.3176C178.849 20.3146 178.607 20.3599 178.382 20.4511C178.156 20.5422 177.951 20.6772 177.779 20.8482C177.607 21.0192 177.471 21.2227 177.379 21.4466C177.288 21.6706 177.242 21.9105 177.245 22.1522H177.245Z" fill="white"/>
<path d="M85.4256 47.3348H77.7932L75.9603 52.7069H72.7275L79.9568 32.8315H83.3156L90.5448 52.7069H87.2569L85.4256 47.3348ZM78.5837 44.8559H84.6336L81.6512 36.1374H81.5678L78.5837 44.8559Z" fill="white"/>
<path d="M106.158 45.4617C106.158 49.9648 103.73 52.8579 100.065 52.8579C99.1372 52.9061 98.2141 52.6939 97.4018 52.2455C96.5894 51.7971 95.9207 51.1308 95.4722 50.3227H95.4028V57.5001H92.4062V38.2156H95.3068V40.6257H95.3619C95.8311 39.8215 96.5111 39.1586 97.3296 38.7075C98.1482 38.2564 99.0746 38.034 100.01 38.064C103.715 38.064 106.158 40.9712 106.158 45.4617ZM103.078 45.4617C103.078 42.528 101.55 40.5992 99.2198 40.5992C96.9303 40.5992 95.3903 42.5686 95.3903 45.4617C95.3903 48.3814 96.9303 50.3368 99.2198 50.3368C101.55 50.3368 103.078 48.4221 103.078 45.4617Z" fill="white"/>
<path d="M122.225 45.4617C122.225 49.9648 119.797 52.8579 116.133 52.8579C115.205 52.9061 114.281 52.6939 113.469 52.2455C112.657 51.7971 111.988 51.1308 111.54 50.3227H111.47V57.5001H108.474V38.2156H111.374V40.6257H111.429C111.898 39.8215 112.578 39.1586 113.397 38.7075C114.216 38.2564 115.142 38.034 116.078 38.064C119.783 38.064 122.225 40.9712 122.225 45.4617ZM119.145 45.4617C119.145 42.5279 117.618 40.5992 115.287 40.5992C112.998 40.5992 111.458 42.5686 111.458 45.4617C111.458 48.3814 112.998 50.3368 115.287 50.3368C117.618 50.3368 119.145 48.4221 119.145 45.4617H119.145Z" fill="white"/>
<path d="M132.845 47.169C133.067 49.14 134.996 50.4341 137.632 50.4341C140.158 50.4341 141.975 49.1399 141.975 47.3627C141.975 45.82 140.879 44.8963 138.284 44.2633L135.689 43.6428C132.012 42.7612 130.305 41.0544 130.305 38.2847C130.305 34.8555 133.316 32.5 137.591 32.5C141.822 32.5 144.723 34.8555 144.82 38.2847H141.795C141.614 36.3013 139.962 35.104 137.548 35.104C135.134 35.104 133.483 36.3153 133.483 38.0784C133.483 39.4836 134.538 40.3104 137.118 40.9434L139.325 41.4811C143.433 42.4454 145.14 44.0835 145.14 46.9907C145.14 50.7091 142.156 53.038 137.41 53.038C132.969 53.038 129.971 50.7638 129.777 47.1689L132.845 47.169Z" fill="white"/>
<path d="M151.607 34.7867V38.216H154.383V40.5715H151.607V48.5601C151.607 49.8011 152.163 50.3794 153.383 50.3794C153.713 50.3737 154.042 50.3507 154.369 50.3106V52.652C153.82 52.7537 153.263 52.7998 152.705 52.7895C149.749 52.7895 148.596 51.6876 148.596 48.8773V40.5715H146.474V38.216H148.596V34.7867H151.607Z" fill="white"/>
<path d="M155.991 45.4622C155.991 40.9029 158.696 38.0378 162.915 38.0378C167.148 38.0378 169.84 40.9028 169.84 45.4622C169.84 50.034 167.162 52.8865 162.915 52.8865C158.67 52.8865 155.991 50.034 155.991 45.4622ZM166.787 45.4622C166.787 42.3346 165.343 40.4887 162.915 40.4887C160.487 40.4887 159.044 42.3486 159.044 45.4622C159.044 48.6023 160.487 50.4341 162.915 50.4341C165.343 50.4341 166.787 48.6023 166.787 45.4622H166.787Z" fill="white"/>
<path d="M172.311 38.2154H175.169V40.6818H175.238C175.431 39.9115 175.886 39.2308 176.525 38.754C177.165 38.2772 177.95 38.0335 178.749 38.0638C179.095 38.0626 179.439 38.0998 179.776 38.1748V40.9569C179.34 40.8247 178.885 40.764 178.43 40.7772C177.994 40.7597 177.56 40.8359 177.158 41.0005C176.755 41.1652 176.392 41.4145 176.096 41.7312C175.799 42.0479 175.575 42.4246 175.439 42.8354C175.303 43.2462 175.258 43.6814 175.307 44.1111V52.7062H172.311L172.311 38.2154Z" fill="white"/>
<path d="M193.593 48.4507C193.19 51.0812 190.609 52.8865 187.307 52.8865C183.06 52.8865 180.424 50.0621 180.424 45.5309C180.424 40.9857 183.074 38.0378 187.181 38.0378C191.22 38.0378 193.76 40.7919 193.76 45.1855V46.2046H183.449V46.3843C183.401 46.9176 183.468 47.4549 183.646 47.9604C183.824 48.4659 184.108 48.9281 184.479 49.3163C184.851 49.7045 185.301 50.0099 185.8 50.212C186.3 50.4142 186.837 50.5085 187.376 50.4888C188.084 50.5547 188.795 50.3919 189.402 50.0247C190.01 49.6574 190.481 49.1054 190.747 48.4506L193.593 48.4507ZM183.463 44.1258H190.761C190.788 43.6463 190.715 43.1664 190.546 42.7163C190.378 42.2663 190.117 41.8557 189.781 41.5103C189.444 41.165 189.04 40.8924 188.592 40.7095C188.145 40.5267 187.664 40.4377 187.181 40.448C186.693 40.4451 186.209 40.5382 185.757 40.7218C185.306 40.9055 184.895 41.1761 184.55 41.518C184.204 41.8599 183.93 42.2664 183.744 42.714C183.557 43.1616 183.462 43.6414 183.463 44.1258V44.1258Z" fill="white"/>
</g>
<defs>
<clipPath id="clip0_4101_13037">
<rect width="217" height="72" fill="white" transform="translate(0 0.5)"/>
</clipPath>
</defs>
</svg>
