<svg width="31" height="31" viewBox="0 0 31 31" fill="none" xmlns="http://www.w3.org/2000/svg">
<g clip-path="url(#clip0_4700_13530)">
<path fill-rule="evenodd" clip-rule="evenodd" d="M19.914 12.1326C20.0013 12.2197 20.0705 12.3231 20.1178 12.437C20.1651 12.5509 20.1894 12.673 20.1894 12.7964C20.1894 12.9197 20.1651 13.0418 20.1178 13.1557C20.0705 13.2696 20.0013 13.373 19.914 13.4601L14.289 19.0851C14.2019 19.1724 14.0984 19.2417 13.9845 19.2889C13.8706 19.3362 13.7485 19.3605 13.6252 19.3605C13.5019 19.3605 13.3798 19.3362 13.2659 19.2889C13.152 19.2417 13.0485 19.1724 12.9615 19.0851L10.149 16.2726C10.0618 16.1854 9.99265 16.082 9.94548 15.9681C9.8983 15.8542 9.87402 15.7321 9.87402 15.6089C9.87402 15.4856 9.8983 15.3635 9.94548 15.2496C9.99265 15.1357 10.0618 15.0323 10.149 14.9451C10.2361 14.8579 10.3396 14.7888 10.4535 14.7416C10.5674 14.6944 10.6894 14.6702 10.8127 14.6702C10.936 14.6702 11.058 14.6944 11.1719 14.7416C11.2858 14.7888 11.3893 14.8579 11.4765 14.9451L13.6252 17.0957L18.5865 12.1326C18.6735 12.0453 18.777 11.976 18.8909 11.9288C19.0048 11.8815 19.1269 11.8572 19.2502 11.8572C19.3735 11.8572 19.4956 11.8815 19.6095 11.9288C19.7234 11.976 19.8269 12.0453 19.914 12.1326Z" fill="#1F9ED3"/>
<path d="M19.7623 5.32072L18.0354 3.55072L19.3761 2.24197L20.5423 3.43634L22.2111 3.41572C22.9334 3.40717 23.6502 3.54314 24.3192 3.81563C24.9882 4.08813 25.596 4.49164 26.1068 5.00245C26.6176 5.51326 27.0212 6.12105 27.2937 6.79008C27.5661 7.45911 27.7021 8.17587 27.6936 8.89822L27.6748 10.567L28.8673 11.7332C29.3838 12.2379 29.7942 12.8407 30.0744 13.5063C30.3546 14.1719 30.4989 14.8867 30.4989 15.6088C30.4989 16.331 30.3546 17.0458 30.0744 17.7114C29.7942 18.3769 29.3838 18.9798 28.8673 19.4845L27.6729 20.6507L27.6936 22.3195C27.7021 23.0418 27.5661 23.7586 27.2937 24.4276C27.0212 25.0966 26.6176 25.7044 26.1068 26.2152C25.596 26.726 24.9882 27.1296 24.3192 27.4021C23.6502 27.6745 22.9334 27.8105 22.2111 27.802L20.5423 27.7832L19.3761 28.9757C18.8714 29.4922 18.2685 29.9026 17.603 30.1828C16.9374 30.463 16.2226 30.6073 15.5004 30.6073C14.7783 30.6073 14.0635 30.463 13.3979 30.1828C12.7324 29.9026 12.1295 29.4922 11.6248 28.9757L10.4586 27.7813L8.78982 27.802C8.06747 27.8105 7.35071 27.6745 6.68168 27.4021C6.01266 27.1296 5.40486 26.726 4.89405 26.2152C4.38324 25.7044 3.97973 25.0966 3.70723 24.4276C3.43474 23.7586 3.29877 23.0418 3.30732 22.3195L3.32607 20.6507L2.13357 19.4845C1.61708 18.9798 1.20668 18.3769 0.926487 17.7114C0.646292 17.0458 0.501953 16.331 0.501953 15.6088C0.501953 14.8867 0.646292 14.1719 0.926487 13.5063C1.20668 12.8407 1.61708 12.2379 2.13357 11.7332L3.32794 10.567L3.30732 8.89822C3.29877 8.17587 3.43474 7.45911 3.70723 6.79008C3.97973 6.12105 4.38324 5.51326 4.89405 5.00245C5.40486 4.49164 6.01266 4.08813 6.68168 3.81563C7.35071 3.54314 8.06747 3.40717 8.78982 3.41572L10.4586 3.43447L11.6248 2.24197C12.1295 1.72548 12.7324 1.31508 13.3979 1.03489C14.0635 0.75469 14.7783 0.610352 15.5004 0.610352C16.2226 0.610352 16.9374 0.75469 17.603 1.03489C18.2685 1.31508 18.8714 1.72548 19.3761 2.24197L18.0354 3.55072C17.7054 3.21282 17.3111 2.94431 16.8757 2.761C16.4404 2.57768 15.9728 2.48324 15.5004 2.48324C15.0281 2.48324 14.5605 2.57768 14.1251 2.761C13.6898 2.94431 13.2955 3.21282 12.9654 3.55072L11.2404 5.32072L8.76544 5.29072C8.29328 5.28544 7.82482 5.37458 7.38759 5.55289C6.95035 5.73121 6.55317 5.99511 6.21936 6.32909C5.88556 6.66307 5.62186 7.0604 5.44377 7.49772C5.26569 7.93505 5.17679 8.40355 5.18232 8.87572L5.21232 11.347L3.44232 13.0738C3.10442 13.4039 2.83592 13.7982 2.6526 14.2335C2.46928 14.6689 2.37484 15.1365 2.37484 15.6088C2.37484 16.0812 2.46928 16.5488 2.6526 16.9841C2.83592 17.4195 3.10442 17.8138 3.44232 18.1438L5.21232 19.8688L5.18232 22.3438C5.17704 22.816 5.26618 23.2845 5.4445 23.7217C5.62281 24.1589 5.88671 24.5561 6.22069 24.8899C6.55467 25.2237 6.952 25.4874 7.38932 25.6655C7.82665 25.8436 8.29515 25.9325 8.76732 25.927L11.2386 25.897L12.9654 27.667C13.2955 28.0049 13.6898 28.2734 14.1251 28.4567C14.5605 28.64 15.0281 28.7344 15.5004 28.7344C15.9728 28.7344 16.4404 28.64 16.8757 28.4567C17.3111 28.2734 17.7054 28.0049 18.0354 27.667L19.7604 25.897L22.2354 25.927C22.7076 25.9322 23.1761 25.8431 23.6133 25.6648C24.0505 25.4865 24.4477 25.2226 24.7815 24.8886C25.1153 24.5546 25.379 24.1573 25.5571 23.72C25.7352 23.2826 25.8241 22.8141 25.8186 22.342L25.7886 19.8707L27.5586 18.1438C27.8965 17.8138 28.165 17.4195 28.3483 16.9841C28.5316 16.5488 28.626 16.0812 28.626 15.6088C28.626 15.1365 28.5316 14.6689 28.3483 14.2335C28.165 13.7982 27.8965 13.4039 27.5586 13.0738L25.7886 11.3488L25.8186 8.87384C25.8238 8.40168 25.7347 7.93322 25.5564 7.49598C25.3781 7.05875 25.1142 6.66157 24.7802 6.32776C24.4462 5.99395 24.0489 5.73026 23.6116 5.55217C23.1742 5.37408 22.7057 5.28519 22.2336 5.29072L19.7623 5.32072Z" fill="#1F9ED3"/>
</g>
<defs>
<clipPath id="clip0_4700_13530">
<rect width="30" height="30" fill="white" transform="translate(0.5 0.608887)"/>
</clipPath>
</defs>
</svg>
