<svg width="1248" height="1444" viewBox="0 0 1248 1444" fill="none" xmlns="http://www.w3.org/2000/svg">
<path fill-rule="evenodd" clip-rule="evenodd" d="M340.381 0L0.567618 390.124L109.538 516.736L327.975 265.959L1016.97 1066.49L798.529 1317.27L907.5 1443.88L1247.31 1053.76L340.381 0ZM365.061 652.904C374.127 642.422 384.765 633.97 396.312 628.068C407.861 622.168 420.079 618.939 432.211 618.59C444.355 617.522 456.282 619.345 467.249 623.946C478.216 628.547 487.987 635.828 495.954 645.334C504.197 654.654 510.502 666.046 514.482 678.808C518.461 691.568 520.033 705.434 519.1 719.545C518.514 733.576 515.505 747.639 510.251 760.913C504.996 774.192 497.603 786.41 488.503 796.857C479.403 807.304 468.779 815.772 457.252 821.758C445.727 827.747 433.533 831.138 421.38 831.733C409.156 832.726 397.162 830.825 386.138 826.153C375.112 821.48 365.287 814.131 357.264 804.557C349.082 795.298 342.838 783.968 338.92 771.274C335.002 758.58 333.495 744.795 334.491 730.778C334.895 716.649 337.816 702.448 343.076 689.05C348.334 675.654 355.817 663.35 365.061 652.904ZM599.301 863.916C587.752 869.816 577.114 878.268 568.048 888.75L568.011 888.707C558.767 899.153 551.285 911.458 546.026 924.854C540.766 938.252 537.845 952.453 537.441 966.581C536.445 980.598 537.952 994.383 541.87 1007.08C545.788 1019.77 552.032 1031.1 560.216 1040.36C568.237 1049.93 578.062 1057.28 589.088 1061.96C600.114 1066.63 612.106 1068.53 624.33 1067.54C636.483 1066.94 648.677 1063.55 660.204 1057.56C671.729 1051.58 682.353 1043.11 691.453 1032.66C700.553 1022.21 707.946 1010 713.202 996.719C718.455 983.442 721.464 969.379 722.05 955.348C722.982 941.249 721.413 927.396 717.44 914.642C713.466 901.887 707.172 890.499 698.943 881.181C690.974 871.674 681.204 864.393 670.236 859.792C659.269 855.191 647.342 853.368 635.198 854.436C623.068 854.787 610.848 858.014 599.301 863.916Z" fill="url(#paint0_linear_210_19)" fill-opacity="0.1"/>
<defs>
<linearGradient id="paint0_linear_210_19" x1="1062.25" y1="839.549" x2="825.27" y2="954.942" gradientUnits="userSpaceOnUse">
<stop stop-color="#0C3F54" stop-opacity="0.15"/>
<stop offset="1" stop-color="#1F9ED3" stop-opacity="0.42"/>
</linearGradient>
</defs>
</svg>
