<svg width="31" height="31" viewBox="0 0 31 31" fill="none" xmlns="http://www.w3.org/2000/svg">
<path fill-rule="evenodd" clip-rule="evenodd" d="M15.1853 27.1501C18.4071 27.1501 21.4971 25.8859 23.7753 23.6354C26.0535 21.385 27.3334 18.3327 27.3334 15.1501C27.3334 11.9675 26.0535 8.9153 23.7753 6.66487C21.4971 4.41443 18.4071 3.15015 15.1853 3.15015C11.9634 3.15015 8.87344 4.41443 6.59522 6.66487C4.317 8.9153 3.03711 11.9675 3.03711 15.1501C3.03711 18.3327 4.317 21.385 6.59522 23.6354C8.87344 25.8859 11.9634 27.1501 15.1853 27.1501ZM20.8144 13.2106C21.091 12.9277 21.2441 12.5488 21.2406 12.1555C21.2372 11.7623 21.0775 11.386 20.7959 11.1079C20.5144 10.8298 20.1335 10.6721 19.7353 10.6686C19.3372 10.6652 18.9536 10.8164 18.6672 11.0896L13.6667 16.0291L11.7033 14.0896C11.4169 13.8164 11.0333 13.6652 10.6352 13.6686C10.237 13.6721 9.85615 13.8298 9.57461 14.1079C9.29306 14.386 9.13336 14.7623 9.1299 15.1555C9.12644 15.5488 9.2795 15.9277 9.55611 16.2106L12.5931 19.2106C12.8779 19.4919 13.2641 19.6498 13.6667 19.6498C14.0694 19.6498 14.4556 19.4919 14.7403 19.2106L20.8144 13.2106Z" fill="white"/>
</svg>
