<svg width="30" height="31" viewBox="0 0 30 31" fill="none" xmlns="http://www.w3.org/2000/svg">
<path fill-rule="evenodd" clip-rule="evenodd" d="M19.414 11.6443C19.5013 11.7314 19.5705 11.8349 19.6178 11.9488C19.6651 12.0627 19.6894 12.1848 19.6894 12.3081C19.6894 12.4314 19.6651 12.5535 19.6178 12.6674C19.5705 12.7813 19.5013 12.8847 19.414 12.9718L13.789 18.5968C13.7019 18.6841 13.5984 18.7534 13.4845 18.8007C13.3706 18.8479 13.2485 18.8722 13.1252 18.8722C13.0019 18.8722 12.8798 18.8479 12.7659 18.8007C12.652 18.7534 12.5485 18.6841 12.4615 18.5968L9.64896 15.7843C9.56179 15.6972 9.49265 15.5937 9.44548 15.4798C9.3983 15.3659 9.37402 15.2438 9.37402 15.1206C9.37402 14.9973 9.3983 14.8752 9.44548 14.7614C9.49265 14.6475 9.56179 14.544 9.64896 14.4568C9.73612 14.3697 9.8396 14.3005 9.95349 14.2533C10.0674 14.2062 10.1894 14.1819 10.3127 14.1819C10.436 14.1819 10.558 14.2062 10.6719 14.2533C10.7858 14.3005 10.8893 14.3697 10.9765 14.4568L13.1252 16.6074L18.0865 11.6443C18.1735 11.557 18.277 11.4877 18.3909 11.4405C18.5048 11.3932 18.6269 11.3689 18.7502 11.3689C18.8735 11.3689 18.9956 11.3932 19.1095 11.4405C19.2234 11.4877 19.3269 11.557 19.414 11.6443Z" fill="#1F9ED3"/>
<path d="M19.2623 4.83244L17.5354 3.06244L18.8761 1.75369L20.0423 2.94806L21.7111 2.92744C22.4334 2.91889 23.1502 3.05486 23.8192 3.32735C24.4882 3.59985 25.096 4.00336 25.6068 4.51417C26.1176 5.02498 26.5212 5.63277 26.7937 6.3018C27.0661 6.97083 27.2021 7.68759 27.1936 8.40994L27.1748 10.0787L28.3673 11.2449C28.8838 11.7496 29.2942 12.3525 29.5744 13.018C29.8546 13.6836 29.9989 14.3984 29.9989 15.1206C29.9989 15.8427 29.8546 16.5575 29.5744 17.2231C29.2942 17.8887 28.8838 18.4915 28.3673 18.9962L27.1729 20.1624L27.1936 21.8312C27.2021 22.5535 27.0661 23.2703 26.7937 23.9393C26.5212 24.6083 26.1176 25.2161 25.6068 25.7269C25.096 26.2378 24.4882 26.6413 23.8192 26.9138C23.1502 27.1863 22.4334 27.3222 21.7111 27.3137L20.0423 27.2949L18.8761 28.4874C18.3714 29.0039 17.7685 29.4143 17.103 29.6945C16.4374 29.9747 15.7226 30.1191 15.0004 30.1191C14.2783 30.1191 13.5635 29.9747 12.8979 29.6945C12.2324 29.4143 11.6295 29.0039 11.1248 28.4874L9.95857 27.2931L8.28982 27.3137C7.56747 27.3222 6.85071 27.1863 6.18168 26.9138C5.51266 26.6413 4.90486 26.2378 4.39405 25.7269C3.88324 25.2161 3.47973 24.6083 3.20723 23.9393C2.93474 23.2703 2.79877 22.5535 2.80732 21.8312L2.82607 20.1624L1.63357 18.9962C1.11708 18.4915 0.706683 17.8887 0.426487 17.2231C0.146292 16.5575 0.00195312 15.8427 0.00195312 15.1206C0.00195312 14.3984 0.146292 13.6836 0.426487 13.018C0.706683 12.3525 1.11708 11.7496 1.63357 11.2449L2.82794 10.0787L2.80732 8.40994C2.79877 7.68759 2.93474 6.97083 3.20723 6.3018C3.47973 5.63277 3.88324 5.02498 4.39405 4.51417C4.90486 4.00336 5.51266 3.59985 6.18168 3.32735C6.85071 3.05486 7.56747 2.91889 8.28982 2.92744L9.95857 2.94619L11.1248 1.75369C11.6295 1.2372 12.2324 0.8268 12.8979 0.546604C13.5635 0.266409 14.2783 0.12207 15.0004 0.12207C15.7226 0.12207 16.4374 0.266409 17.103 0.546604C17.7685 0.8268 18.3714 1.2372 18.8761 1.75369L17.5354 3.06244C17.2054 2.72454 16.8111 2.45603 16.3757 2.27272C15.9404 2.0894 15.4728 1.99496 15.0004 1.99496C14.5281 1.99496 14.0605 2.0894 13.6251 2.27272C13.1898 2.45603 12.7955 2.72454 12.4654 3.06244L10.7404 4.83244L8.26544 4.80244C7.79328 4.79716 7.32482 4.88629 6.88759 5.06461C6.45035 5.24293 6.05317 5.50683 5.71936 5.84081C5.38556 6.17479 5.12186 6.57211 4.94377 7.00944C4.76569 7.44677 4.67679 7.91527 4.68232 8.38744L4.71232 10.8587L2.94232 12.5856C2.60442 12.9156 2.33592 13.3099 2.1526 13.7453C1.96928 14.1806 1.87484 14.6482 1.87484 15.1206C1.87484 15.5929 1.96928 16.0605 2.1526 16.4959C2.33592 16.9312 2.60442 17.3255 2.94232 17.6556L4.71232 19.3806L4.68232 21.8556C4.67704 22.3277 4.76618 22.7962 4.9445 23.2334C5.12281 23.6707 5.38671 24.0678 5.72069 24.4016C6.05467 24.7354 6.452 24.9991 6.88932 25.1772C7.32665 25.3553 7.79515 25.4442 8.26732 25.4387L10.7386 25.4087L12.4654 27.1787C12.7955 27.5166 13.1898 27.7851 13.6251 27.9684C14.0605 28.1517 14.5281 28.2462 15.0004 28.2462C15.4728 28.2462 15.9404 28.1517 16.3757 27.9684C16.8111 27.7851 17.2054 27.5166 17.5354 27.1787L19.2604 25.4087L21.7354 25.4387C22.2076 25.444 22.6761 25.3548 23.1133 25.1765C23.5505 24.9982 23.9477 24.7343 24.2815 24.4003C24.6153 24.0663 24.879 23.669 25.0571 23.2317C25.2352 22.7944 25.3241 22.3258 25.3186 21.8537L25.2886 19.3824L27.0586 17.6556C27.3965 17.3255 27.665 16.9312 27.8483 16.4959C28.0316 16.0605 28.126 15.5929 28.126 15.1206C28.126 14.6482 28.0316 14.1806 27.8483 13.7453C27.665 13.3099 27.3965 12.9156 27.0586 12.5856L25.2886 10.8606L25.3186 8.38556C25.3238 7.91339 25.2347 7.44493 25.0564 7.0077C24.8781 6.57047 24.6142 6.17328 24.2802 5.83948C23.9462 5.50567 23.5489 5.24198 23.1116 5.06389C22.6742 4.8858 22.2057 4.79691 21.7336 4.80244L19.2623 4.83244Z" fill="#1F9ED3"/>
</svg>
