<svg width="215" height="72" viewBox="0 0 215 72" fill="none" xmlns="http://www.w3.org/2000/svg">
<g clip-path="url(#clip0_322_67)">
<path fill-rule="evenodd" clip-rule="evenodd" d="M207.003 72H7.99738C3.58969 72 0 67.9421 0 63V9C0 4.0399 3.58969 0 7.99738 0H207.003C211.406 0 215 4.0399 215 9V63C215 67.9421 211.406 72 207.003 72Z" fill="black"/>
<path fill-rule="evenodd" clip-rule="evenodd" d="M207.003 1.4409C210.7 1.4409 213.725 4.8389 213.725 9V63C213.725 67.1611 210.719 70.5591 207.003 70.5591H7.99738C4.30048 70.5591 1.27466 67.1611 1.27466 63V9C1.27466 4.8389 4.28062 1.4409 7.99738 1.4409H207.003ZM207.003 0H7.99738C3.58969 0 0 4.05786 0 9V63C0 67.9601 3.58969 72 7.99738 72H207.003C211.406 72 215 67.9601 215 63V9C215 4.05786 211.406 0 207.003 0Z" fill="#A6A6A6"/>
<path d="M13.72 16.1184C13.2675 16.5974 13 17.3407 13 18.3033V52.6957C13 53.6599 13.2675 54.4016 13.72 54.8806L13.8351 54.9926L33.1011 35.7266V35.4995V35.2725L13.8351 16.0049L13.72 16.1184Z" fill="url(#paint0_linear_322_67)"/>
<path d="M39.5238 42.1521L33.1028 35.7281V35.501V35.274L39.5253 28.8514L39.6699 28.9339L47.279 33.257C49.453 34.4918 49.453 36.5118 47.279 37.7481L39.6699 42.0713L39.5238 42.1521Z" fill="url(#paint1_linear_322_67)"/>
<path d="M39.6698 42.0682L33.1026 35.4995L13.72 54.8806C14.4369 55.6395 15.6187 55.7328 16.9514 54.9755L39.6698 42.0682Z" fill="url(#paint2_linear_322_67)"/>
<path d="M39.6699 28.9308L16.9532 16.0235C15.6204 15.2662 14.4386 15.3611 13.7217 16.1184L33.1028 35.4995L39.6699 28.9308Z" fill="url(#paint3_linear_322_67)"/>
<path opacity="0.2" d="M39.5252 41.9236L16.953 54.7484C15.6903 55.4653 14.5613 55.4187 13.8366 54.7655L13.72 54.8822L13.835 54.9941C14.5597 55.6473 15.6887 55.6955 16.9514 54.977L39.6682 42.0698L39.5252 41.9236Z" fill="black"/>
<path opacity="0.12" d="M13.72 54.6535C13.2675 54.1746 13 53.4312 13 52.4686V52.6957C13 53.6583 13.2675 54.4016 13.72 54.8806L13.8366 54.7639L13.72 54.6535Z" fill="black"/>
<path opacity="0.12" d="M47.2788 37.5181L39.5251 41.9236L39.6698 42.0682L47.2788 37.7451C48.3658 37.1277 48.9086 36.3144 48.9086 35.5011C48.8168 36.2367 48.2632 36.9582 47.2788 37.5181Z" fill="black"/>
<path opacity="0.25" d="M16.9515 16.2506L47.2773 33.481C48.2632 34.0408 48.8153 34.7624 48.9071 35.4995C48.9071 34.6862 48.3643 33.8713 47.2773 33.254L16.9515 16.0236C14.7775 14.7888 13 15.8136 13 18.3033V18.5319C13 16.0422 14.779 15.0159 16.9515 16.2506Z" fill="white"/>
<path fill-rule="evenodd" clip-rule="evenodd" d="M116.356 21.5486C115.415 22.5167 114.246 22.9984 112.847 22.9984C111.449 22.9984 110.279 22.5152 109.34 21.5486C108.399 20.5821 107.93 19.3987 107.93 18C107.93 16.6013 108.399 15.4179 109.34 14.4514C110.279 13.4833 111.449 13 112.847 13C114.238 13 115.405 13.4864 116.35 14.4577C117.294 15.429 117.766 16.6093 117.766 18C117.766 19.4003 117.295 20.5837 116.356 21.5486ZM110.248 20.748C110.956 21.4657 111.822 21.823 112.847 21.823C113.873 21.823 114.739 21.4641 115.447 20.748C116.155 20.0303 116.511 19.1148 116.511 18.0016C116.511 16.8884 116.155 15.9713 115.447 15.2552C114.74 14.5375 113.873 14.1802 112.847 14.1802C111.822 14.1802 110.956 14.5391 110.248 15.2552C109.541 15.9729 109.185 16.8884 109.185 18.0016C109.185 19.1148 109.541 20.0303 110.248 20.748Z" fill="white"/>
<path d="M74.5841 18.3892C74.5841 19.7257 74.1885 20.7895 73.3959 21.5837C72.4963 22.5279 71.3225 23 69.8807 23C68.4995 23 67.3241 22.5215 66.3592 21.5646C65.3927 20.6061 64.9094 19.4195 64.9094 18.0032C64.9094 16.5853 65.3927 15.3987 66.3592 14.4418C67.3241 13.4833 68.4995 13.0048 69.8807 13.0048C70.5665 13.0048 71.222 13.1388 71.844 13.4051C72.4676 13.673 72.9668 14.0287 73.34 14.4737L72.4995 15.3158C71.8664 14.5582 70.994 14.1802 69.8791 14.1802C68.8711 14.1802 68.0003 14.5343 67.2651 15.2424C66.5314 15.9506 66.1646 16.8692 66.1646 18.0016C66.1646 19.134 66.5314 20.0526 67.2667 20.7624C68.0019 21.4705 68.8727 21.8246 69.8807 21.8246C70.9493 21.8246 71.8408 21.4689 72.5538 20.756C73.0163 20.2919 73.2842 19.6459 73.356 18.8182H69.8807V17.6667H74.5171C74.5633 17.9171 74.5841 18.1579 74.5841 18.3892Z" fill="white"/>
<path d="M81.9365 14.3923H77.5793V17.4258H81.5091V18.5758H77.5793V21.6093H81.9365V22.7863H76.3496V13.2169H81.9365V14.3923Z" fill="white"/>
<path d="M85.8903 22.7863H87.12V14.3923H89.793V13.2169H83.2173V14.3923H85.8903V22.7863Z" fill="white"/>
<path d="M94.5522 22.7863V13.2169H95.7818V22.7863H94.5522Z" fill="white"/>
<path d="M100.004 22.7863H101.233V14.3923H103.906V13.2169H97.3305V14.3923H100.004V22.7863Z" fill="white"/>
<path d="M119.492 13.2169V22.7863H120.718V16.8246L120.665 14.9809H120.718L125.584 22.7863H126.868V13.2169H125.638V18.8182L125.691 20.6619H125.638L120.988 13.2169H119.492Z" fill="white"/>
<path fill-rule="evenodd" clip-rule="evenodd" d="M116.356 21.5486C115.415 22.5167 114.246 22.9984 112.847 22.9984C111.449 22.9984 110.279 22.5152 109.34 21.5486C108.399 20.5821 107.93 19.3987 107.93 18C107.93 16.6013 108.399 15.4179 109.34 14.4514C110.279 13.4833 111.449 13 112.847 13C114.238 13 115.405 13.4864 116.35 14.4577C117.294 15.429 117.766 16.6093 117.766 18C117.766 19.4003 117.295 20.5837 116.356 21.5486ZM110.248 20.748C110.956 21.4657 111.822 21.823 112.847 21.823C113.873 21.823 114.739 21.4641 115.447 20.748C116.155 20.0303 116.511 19.1148 116.511 18.0016C116.511 16.8884 116.155 15.9713 115.447 15.2552C114.74 14.5375 113.873 14.1802 112.847 14.1802C111.822 14.1802 110.956 14.5391 110.248 15.2552C109.541 15.9729 109.185 16.8884 109.185 18.0016C109.185 19.1148 109.541 20.0303 110.248 20.748Z" stroke="white" stroke-width="0.2" stroke-miterlimit="10"/>
<path d="M74.5841 18.3892C74.5841 19.7257 74.1885 20.7895 73.3959 21.5837C72.4963 22.5279 71.3225 23 69.8807 23C68.4995 23 67.3241 22.5215 66.3592 21.5646C65.3927 20.6061 64.9094 19.4195 64.9094 18.0032C64.9094 16.5853 65.3927 15.3987 66.3592 14.4418C67.3241 13.4833 68.4995 13.0048 69.8807 13.0048C70.5665 13.0048 71.222 13.1388 71.844 13.4051C72.4676 13.673 72.9668 14.0287 73.34 14.4737L72.4995 15.3158C71.8664 14.5582 70.994 14.1802 69.8791 14.1802C68.8711 14.1802 68.0003 14.5343 67.2651 15.2424C66.5314 15.9506 66.1646 16.8692 66.1646 18.0016C66.1646 19.134 66.5314 20.0526 67.2667 20.7624C68.0019 21.4705 68.8727 21.8246 69.8807 21.8246C70.9493 21.8246 71.8408 21.4689 72.5538 20.756C73.0163 20.2919 73.2842 19.6459 73.356 18.8182H69.8807V17.6667H74.5171C74.5633 17.9171 74.5841 18.1579 74.5841 18.3892Z" stroke="white" stroke-width="0.2" stroke-miterlimit="10"/>
<path d="M81.9365 14.3923H77.5793V17.4258H81.5091V18.5758H77.5793V21.6093H81.9365V22.7863H76.3496V13.2169H81.9365V14.3923Z" stroke="white" stroke-width="0.2" stroke-miterlimit="10"/>
<path d="M85.8903 22.7863H87.12V14.3923H89.793V13.2169H83.2173V14.3923H85.8903V22.7863Z" stroke="white" stroke-width="0.2" stroke-miterlimit="10"/>
<path d="M94.5522 22.7863V13.2169H95.7818V22.7863H94.5522Z" stroke="white" stroke-width="0.2" stroke-miterlimit="10"/>
<path d="M100.004 22.7863H101.233V14.3923H103.906V13.2169H97.3305V14.3923H100.004V22.7863Z" stroke="white" stroke-width="0.2" stroke-miterlimit="10"/>
<path d="M119.492 13.2169V22.7863H120.718V16.8246L120.665 14.9809H120.718L125.584 22.7863H126.868V13.2169H125.638V18.8182L125.691 20.6619H125.638L120.988 13.2169H119.492Z" stroke="white" stroke-width="0.2" stroke-miterlimit="10"/>
<path d="M105.093 39.9077C101.605 39.9077 98.7619 42.5328 98.7619 46.1519C98.7619 49.7474 101.605 52.396 105.093 52.396C108.582 52.396 111.425 49.7474 111.425 46.1519C111.425 42.5328 108.582 39.9077 105.093 39.9077ZM105.093 49.9368C103.182 49.9368 101.532 48.3761 101.532 46.1519C101.532 43.9041 103.182 42.3669 105.093 42.3669C107.005 42.3669 108.653 43.9041 108.653 46.1519C108.653 48.3747 107.005 49.9368 105.093 49.9368ZM91.2795 39.9077C87.7911 39.9077 84.948 42.5328 84.948 46.1519C84.948 49.7474 87.7911 52.396 91.2795 52.396C94.7678 52.396 97.611 49.7474 97.611 46.1519C97.6124 42.5328 94.7678 39.9077 91.2795 39.9077ZM91.2795 49.9368C89.3677 49.9368 87.72 48.3761 87.72 46.1519C87.72 43.9041 89.3692 42.3669 91.2795 42.3669C93.1912 42.3669 94.839 43.9041 94.839 46.1519C94.8405 48.3747 93.1912 49.9368 91.2795 49.9368ZM74.8494 41.8237V44.4723H81.2535C81.0622 45.9625 80.5609 47.0504 79.7956 47.808C78.8642 48.73 77.4063 49.7474 74.8494 49.7474C70.9072 49.7474 67.8253 46.6011 67.8253 42.6987C67.8253 38.7963 70.9072 35.65 74.8494 35.65C76.9762 35.65 78.529 36.4781 79.6755 37.5425L81.5635 35.6735C79.9632 34.1599 77.8364 33 74.8494 33C69.4493 33 64.9094 37.3517 64.9094 42.6973C64.9094 48.0429 69.4493 52.3945 74.8494 52.3945C77.7637 52.3945 79.9632 51.449 81.6836 49.674C83.4515 47.9239 84.0018 45.4633 84.0018 43.4769C84.0018 42.8617 83.9543 42.2935 83.8579 41.8208H74.8494V41.8237ZM142.047 43.8806C141.522 42.4844 139.92 39.9063 136.647 39.9063C133.397 39.9063 130.698 42.4374 130.698 46.1504C130.698 49.6505 133.374 52.3945 136.958 52.3945C139.849 52.3945 141.522 50.6445 142.215 49.627L140.064 48.2073C139.348 49.2482 138.367 49.9339 136.958 49.9339C135.548 49.9339 134.545 49.2952 133.9 48.0414L142.335 44.5883L142.047 43.8806ZM133.445 45.9625C133.374 43.5503 135.333 42.3199 136.742 42.3199C137.841 42.3199 138.772 42.8632 139.084 43.6442L133.445 45.9625ZM126.587 52.0172H129.359V33.6636H126.587V52.0172ZM122.047 41.3025H121.952C121.331 40.5699 120.137 39.9063 118.631 39.9063C115.477 39.9063 112.586 42.6503 112.586 46.1739C112.586 49.674 115.477 52.3945 118.631 52.3945C120.137 52.3945 121.331 51.7324 121.952 50.9748H122.047V51.8733C122.047 54.262 120.757 55.5393 118.677 55.5393C116.981 55.5393 115.929 54.3325 115.499 53.3165L113.086 54.3105C113.779 55.9666 115.619 58 118.677 58C121.927 58 124.675 56.1075 124.675 51.496V40.2851H122.047V41.3025V41.3025ZM118.87 49.9368C116.958 49.9368 115.358 48.3527 115.358 46.1754C115.358 43.976 116.958 42.3669 118.87 42.3669C120.758 42.3669 122.238 43.9746 122.238 46.1754C122.238 48.3512 120.758 49.9368 118.87 49.9368ZM155.03 33.6636H148.399V52.0172H151.165V45.064H155.029C158.096 45.064 161.111 42.8661 161.111 39.3645C161.111 35.8629 158.097 33.6636 155.03 33.6636ZM155.102 42.5093H151.165V36.2182H155.102C157.17 36.2182 158.345 37.914 158.345 39.3645C158.345 40.7857 157.17 42.5093 155.102 42.5093ZM172.205 39.874C170.201 39.874 168.126 40.7475 167.268 42.684L169.725 43.7C170.25 42.684 171.228 42.3537 172.254 42.3537C173.685 42.3537 175.14 43.2038 175.164 44.7145V44.9039C174.663 44.6206 173.589 44.1948 172.278 44.1948C169.63 44.1948 166.934 45.6351 166.934 48.3277C166.934 50.7839 169.105 52.3652 171.538 52.3652C173.399 52.3652 174.424 51.5386 175.067 50.5711H175.162V51.9878H177.833V44.9509C177.833 41.6916 175.377 39.874 172.205 39.874ZM171.87 49.9324C170.964 49.9324 169.698 49.4831 169.698 48.3747C169.698 46.9579 171.274 46.4147 172.632 46.4147C173.848 46.4147 174.421 46.6745 175.161 47.0284C174.947 48.7285 173.469 49.9324 171.87 49.9324ZM187.566 40.2748L184.393 48.2323H184.298L181.007 40.2748H178.026L182.964 51.3962L180.149 57.583H183.035L190.645 40.2748H187.566V40.2748ZM162.639 52.0172H165.406V33.6636H162.639V52.0172Z" fill="white"/>
</g>
<defs>
<linearGradient id="paint0_linear_322_67" x1="31.393" y1="17.9407" x2="5.29484" y2="44.0388" gradientUnits="userSpaceOnUse">
<stop stop-color="#00A0FF"/>
<stop offset="0.0066" stop-color="#00A1FF"/>
<stop offset="0.2601" stop-color="#00BEFF"/>
<stop offset="0.5122" stop-color="#00D2FF"/>
<stop offset="0.7604" stop-color="#00DFFF"/>
<stop offset="1" stop-color="#00E3FF"/>
</linearGradient>
<linearGradient id="paint1_linear_322_67" x1="50.1082" y1="35.5002" x2="12.4798" y2="35.5002" gradientUnits="userSpaceOnUse">
<stop stop-color="#FFE000"/>
<stop offset="0.4087" stop-color="#FFBD00"/>
<stop offset="0.7754" stop-color="#FFA500"/>
<stop offset="1" stop-color="#FF9C00"/>
</linearGradient>
<linearGradient id="paint2_linear_322_67" x1="36.1007" y1="39.0688" x2="0.709447" y2="74.46" gradientUnits="userSpaceOnUse">
<stop stop-color="#FF3A44"/>
<stop offset="1" stop-color="#C31162"/>
</linearGradient>
<linearGradient id="paint3_linear_322_67" x1="8.84056" y1="4.67027" x2="24.6443" y2="20.4739" gradientUnits="userSpaceOnUse">
<stop stop-color="#32A071"/>
<stop offset="0.0685" stop-color="#2DA771"/>
<stop offset="0.4762" stop-color="#15CF74"/>
<stop offset="0.8009" stop-color="#06E775"/>
<stop offset="1" stop-color="#00F076"/>
</linearGradient>
<clipPath id="clip0_322_67">
<rect width="215" height="72" fill="white"/>
</clipPath>
</defs>
</svg>
