<svg width="70" height="70" viewBox="0 0 70 70" fill="none" xmlns="http://www.w3.org/2000/svg">
<g clip-path="url(#clip0_4303_17313)">
<path fill-rule="evenodd" clip-rule="evenodd" d="M36.0012 3.5C36.0012 2.94772 35.5535 2.5 35.0012 2.5C34.4489 2.5 34.0012 2.94772 34.0012 3.5V7.17582C33.8595 7.18072 33.7186 7.18763 33.5786 7.19667C32.2064 7.28527 30.8288 7.58332 29.7259 8.27023C28.5794 8.98434 27.7732 10.0965 27.5884 11.6521C27.4353 12.9408 27.5805 14.0468 28.0148 14.9842C28.4502 15.9241 29.1392 16.6143 29.9399 17.1298C31.4836 18.1236 33.5723 18.5377 35.377 18.892L35.5413 18.9242C36.4187 19.0962 37.2424 19.2577 37.9952 19.4612C38.7969 19.6778 39.4502 19.9252 39.9429 20.2356C40.4211 20.5368 40.7169 20.8766 40.8715 21.2878C41.0296 21.7084 41.0838 22.3211 40.8584 23.2416C40.6584 24.0587 40.0964 24.6652 39.1732 25.1022C38.2279 25.5496 36.9685 25.7813 35.5729 25.8255C32.7572 25.9146 29.7733 25.2346 28.4674 24.5463C27.9788 24.2889 27.374 24.4762 27.1165 24.9648C26.859 25.4534 27.0464 26.0582 27.535 26.3157C28.9285 27.0501 31.4469 27.6639 34.0012 27.8035V31.5C34.0012 32.0523 34.4489 32.5 35.0012 32.5C35.5535 32.5 36.0012 32.0523 36.0012 31.5V27.809C37.4227 27.7331 38.8425 27.4714 40.0289 26.9099C41.3389 26.2898 42.4209 25.27 42.8011 23.7173C43.091 22.5332 43.0836 21.4885 42.7436 20.584C42.4 19.6701 41.7613 19.0172 41.0089 18.5433C40.271 18.0786 39.3977 17.7685 38.5171 17.5304C37.6933 17.3078 36.8035 17.1335 35.9454 16.9653L35.9453 16.9653L35.7622 16.9294C33.8608 16.5562 32.1828 16.1952 31.0226 15.4482C30.4714 15.0933 30.0741 14.6715 29.8295 14.1435C29.5836 13.6127 29.4549 12.8946 29.5744 11.888C29.6829 10.975 30.1173 10.3827 30.7833 9.96786C31.493 9.52584 32.4996 9.2705 33.7075 9.19252C36.1206 9.03672 38.9586 9.61048 40.7373 10.2088C41.2608 10.3848 41.8279 10.1032 42.0039 9.57972C42.18 9.05625 41.8984 8.48917 41.3749 8.31311C39.9907 7.84754 38.0159 7.38862 36.0012 7.22735V3.5Z" fill="#262626"/>
<path d="M24.968 51.1818H43.7023C44.2546 51.1818 44.705 50.7326 44.6739 50.1812C44.1317 40.5694 35.5826 44.9343 30.3497 42.8385C23.7978 40.2145 20.4872 38.4792 16.7705 39.8635C13.4047 41.1171 10.311 44.5238 8.21276 46.8518C7.96024 47.132 7.88634 47.5303 8.02182 47.8823L13.534 62.2036C13.6826 62.5897 14.048 62.8446 14.4617 62.8474C17.365 62.8672 28.997 63.0167 38.5789 64.1497C38.6739 64.161 38.7682 64.1588 38.8625 64.1425C49.9128 62.2372 63.1323 55.7669 66.6656 53.0536C66.7761 52.9687 66.8618 52.8653 66.9127 52.7356C67.8593 50.3197 64.8483 45.0651 58.1553 47.6389C51.2786 50.2833 53.0127 50.1511 47.9898 52.2667C43.2892 54.2465 37.9053 53.3892 36.3352 52.4583C36.1507 52.3489 35.9522 52.2554 35.7388 52.2345L24.968 51.1818Z" fill="#1F9ED3"/>
<path d="M22.9632 50.418H42.6372C43.1895 50.418 43.6395 49.9683 43.6106 49.4168C43.0735 39.1637 34.0937 43.8073 28.6012 41.584C21.7373 38.8056 16.2074 36.9682 12.3137 38.434C8.77358 39.7666 5.52075 43.3972 3.32216 45.8628C3.07326 46.1419 3.00059 46.5362 3.13369 46.8857L8.93614 62.1226C9.08383 62.5104 9.45047 62.7668 9.86544 62.7691C13.0905 62.7869 27.046 62.9338 37.2282 64.1495C37.3242 64.1609 37.4188 64.1587 37.5141 64.1421C49.1011 62.1241 62.9667 55.2621 66.6554 52.3929C66.7651 52.3076 66.8497 52.2043 66.9007 52.0749C67.9067 49.5223 64.7533 43.9373 57.7308 46.6667C50.5267 49.4667 52.3434 49.3267 47.0813 51.5667C42.1446 53.6682 36.4884 52.7507 34.8595 51.7622C34.6749 51.6502 34.4751 51.5552 34.2602 51.534L22.9632 50.418Z" stroke="#262626" stroke-width="1.5" stroke-linejoin="round"/>
</g>
<defs>
<clipPath id="clip0_4303_17313">
<rect width="70" height="70" fill="white"/>
</clipPath>
</defs>
</svg>
