<svg width="635" height="469" viewBox="0 0 635 469" fill="none" xmlns="http://www.w3.org/2000/svg">
<path d="M332.894 468.877C499.366 468.877 634.319 439.715 634.319 403.742C634.319 367.769 499.366 338.607 332.894 338.607C166.421 338.607 31.4688 367.769 31.4688 403.742C31.4688 439.715 166.421 468.877 332.894 468.877Z" fill="#99D2EB"/>
<path d="M223.902 295.766C223.902 295.766 145.35 137.56 102.896 160.33C60.4427 183.099 179.209 254.766 200.595 301.54L223.902 295.766Z" fill="#9BE47C"/>
<path d="M183.538 271.613C183.538 271.613 73.5778 133.453 28.7617 166.122C-16.0545 198.791 127.579 241.597 158.053 282.896L183.538 271.613Z" fill="#CBF1BC"/>
<path d="M169.327 278.02C148.814 249.124 116.701 224.962 93.3671 209.791C78.5286 200.079 63.0986 191.303 47.167 183.513L47.7752 182.235C63.7643 190.054 79.2503 198.863 94.1429 208.61C117.582 223.851 149.855 248.128 170.482 277.209L169.327 278.02Z" fill="white"/>
<path d="M195.015 350.306C177.137 349.962 195.896 367.936 174.519 368.535C147.792 366.199 136.835 353.823 133.027 347.785C131.059 344.638 128.704 341.751 126.019 339.19C117.829 331.459 115.564 333.61 90.1056 338.097C68.4997 341.896 65.9697 323.014 56.802 309.35C56.6345 309.095 56.467 308.848 56.2907 308.601C52.7647 303.541 48.216 299.292 41.305 297.327C33.8092 295.194 26.6275 292.082 19.9459 288.071C19.3993 287.745 18.8616 287.41 18.3239 287.057C5.33038 278.718 -3.42306 267.232 1.29304 255.322C1.40763 255.04 1.52223 254.758 1.65446 254.441C2.64174 252.299 3.92677 250.308 5.47142 248.526C22.9166 227.996 40.5998 235.303 61.0068 238.459C72.2902 240.222 88.3955 225.959 104.201 219.18L104.88 218.898C117.433 213.689 129.765 213.415 139.312 229.838L139.894 230.825C161.217 266.967 171.769 253.974 201.802 260.673C207.382 261.925 212.38 263.318 215.73 266.253C246.707 293.827 225.929 331.794 195.015 350.306Z" fill="#9BE47C"/>
<path d="M197.605 315.044L198.681 313.669C198.064 313.202 135.979 266.552 1.37156 254.537L1.21289 256.3C135.318 268.21 196.997 314.542 197.605 315.044Z" fill="white"/>
<path d="M117.185 257.816C136.032 243.104 139.998 230.701 140.157 230.181L138.482 229.669C138.482 229.793 134.463 242.116 116.101 256.45L117.185 257.816Z" fill="white"/>
<path d="M112.848 276.346C118.427 267.936 118.798 255.313 113.923 239.834C111.59 232.577 108.549 225.568 104.843 218.907L103.327 219.788C103.539 220.15 124.219 256.062 111.384 275.394L112.848 276.346Z" fill="white"/>
<path d="M77.57 270.968C79.8091 269.346 81.0255 268.324 81.0961 268.236L79.9325 266.94C79.6768 267.16 53.9454 289.603 18.4292 286.192L18.2617 287.955C46.8669 290.688 69.2485 277.015 77.57 270.968Z" fill="white"/>
<path d="M57.4011 309.976C66.1281 301.522 69.0459 292.689 69.9539 286.766C70.5893 283.113 70.5475 279.375 69.8304 275.738L68.1291 276.152C68.1291 276.329 72.1488 293.245 56.1758 308.768L57.4011 309.976Z" fill="white"/>
<path d="M26.0452 222.097C20.4741 219.779 19.5573 217.328 20.4741 215.16C21.3908 212.991 23.7886 211.925 29.3597 214.278C39.5148 218.501 42.7676 224.469 42.7676 224.469C42.7676 224.469 36.3501 226.381 26.0452 222.097Z" fill="#EAEAEA"/>
<path d="M568.83 192.937H401.352V371.258H568.83V192.937Z" fill="#1E7EAA"/>
<path d="M265.27 85.7803L160.185 194.982V371.259H401.349V194.982L265.27 85.7803Z" fill="#9BD2EA"/>
<path d="M449.745 90.8308L253.935 80.8168L392.094 194.982L581.84 195.749L449.745 90.8308Z" fill="#146080"/>
<path d="M160.186 194.982H140.132L253.935 80.8168L262.909 88.2303L160.186 194.982Z" fill="#146080"/>
<path d="M155.522 367.935L157.541 351.945C157.634 351.229 157.985 350.573 158.526 350.096C159.067 349.619 159.763 349.355 160.485 349.353H402.487C403.217 349.353 403.922 349.623 404.466 350.111C405.009 350.599 405.353 351.271 405.431 351.997L407 367.979C407.041 368.391 406.995 368.807 406.865 369.2C406.735 369.593 406.524 369.955 406.246 370.261C405.967 370.568 405.628 370.812 405.249 370.98C404.871 371.147 404.461 371.233 404.047 371.232H158.466C158.049 371.231 157.637 371.142 157.257 370.971C156.877 370.8 156.537 370.551 156.259 370.24C155.981 369.929 155.772 369.563 155.645 369.166C155.518 368.769 155.476 368.35 155.522 367.935Z" fill="#146080"/>
<path d="M405.177 349.344H572.559L575.327 371.259H409.919L405.177 349.344Z" fill="#146080"/>
<path d="M475.697 126.4C475.697 126.991 475.221 127.352 474.269 127.352H357.909C357.249 127.331 356.596 127.216 355.97 127.009C353.76 126.29 351.718 125.133 349.966 123.606C348.724 122.504 348.098 121.508 348.098 120.812C348.098 120.115 348.565 119.868 349.517 119.868H465.877C466.819 119.915 467.747 120.124 468.618 120.485C470.52 121.216 472.279 122.272 473.819 123.606C475.062 124.743 475.697 125.739 475.697 126.4Z" fill="#141F2D"/>
<path d="M453.934 155.544L454.207 155.764L453.934 155.544Z" fill="#CCD39C"/>
<path d="M487.007 20.3098L462.889 119.894L461.082 127.378H419.281L417.932 126.285L410.078 119.894L399.623 111.397L398.706 110.656L400.663 102.599L424.649 3.53455L487.007 20.3098Z" fill="#F6E6B5"/>
<path d="M485.474 17.5777L424.174 1.08457C423.612 0.927077 423.025 0.882566 422.447 0.953611C421.868 1.02466 421.309 1.20986 420.802 1.49846C420.295 1.78707 419.851 2.17335 419.495 2.63494C419.138 3.09653 418.877 3.62424 418.726 4.1875L394.74 97.7867L392.783 105.403C393.142 105.953 393.575 106.452 394.07 106.884L398.707 110.657L399.588 111.397L401.625 103.411L425.214 10.5961C425.365 10.0329 425.626 9.50514 425.983 9.04355C426.339 8.58197 426.783 8.19567 427.29 7.90706C427.797 7.61846 428.356 7.43327 428.934 7.36222C429.513 7.29118 430.1 7.33569 430.662 7.49318L479.877 20.7159C481.033 21.0205 482.028 21.7574 482.656 22.7745C483.284 23.7916 483.498 25.0112 483.253 26.1813L461.991 119.886L460.29 127.37H467.165L468.585 120.503L488.859 22.9549C489.082 21.7965 488.856 20.597 488.227 19.5989C487.599 18.6007 486.615 17.8783 485.474 17.5777Z" fill="#F2D386"/>
<path d="M438.833 113.451C452.002 112.349 465.278 104.927 462.942 84.7666C461.399 71.6408 448.838 61.3447 435.615 61.1244C419.492 60.8511 410.933 71.297 411.215 90.4435C411.356 103.613 422.357 114.835 438.833 113.451Z" fill="#F2D386"/>
<path d="M436.911 127.379H419.28L417.932 126.286C418.584 123.333 420.065 121.27 422.339 120.194C422.58 120.08 422.827 119.98 423.08 119.895C424.271 119.491 425.525 119.303 426.782 119.339C427.851 119.361 428.909 119.548 429.92 119.895C431.624 120.448 433.159 121.425 434.381 122.734C435.604 124.043 436.474 125.642 436.911 127.379Z" fill="white"/>
<path d="M446.96 54.9974C451.923 54.5831 456.938 51.7887 456.048 44.19C455.466 39.2447 450.759 35.3749 445.734 35.2867C439.661 35.181 436.452 39.1213 436.549 46.3321C436.611 51.2862 440.754 55.5087 446.96 54.9974Z" fill="#F2D386"/>
<path d="M435.404 127.379H363.886L360.316 119.895L316.443 27.8915L375.417 1.57825L431.834 119.895L435.404 127.379Z" fill="#F6E6B5"/>
<path d="M439.353 119.895L378.529 2.45946C377.972 1.41856 377.04 0.628242 375.922 0.248531C374.804 -0.131181 373.584 -0.0719063 372.508 0.414353L314.531 26.2868C313.996 26.5192 313.513 26.8553 313.109 27.2757C312.705 27.6961 312.389 28.1925 312.178 28.7361C311.967 29.2796 311.866 29.8596 311.881 30.4424C311.896 31.0252 312.027 31.5992 312.265 32.1312L352.683 119.895L355.971 127.035C356.597 127.242 357.25 127.358 357.91 127.379H365.059L361.595 119.895L321.362 32.9599C321.123 32.4274 320.991 31.8526 320.975 31.2688C320.96 30.6851 321.06 30.104 321.271 29.5594C321.482 29.0148 321.799 28.5176 322.203 28.0965C322.608 27.6754 323.092 27.3389 323.628 27.1066L370.172 6.33813C371.261 5.84406 372.498 5.78819 373.628 6.1821C374.757 6.57601 375.691 7.38947 376.237 8.45376L431.322 119.895L435.025 127.379H443.205L439.353 119.895Z" fill="#F2D386"/>
<path d="M396.774 104.239C406.303 95.0716 411.945 80.9232 397.391 66.7749C387.915 57.5543 371.677 57.4926 361.249 65.6819C348.573 75.643 348.538 89.1302 360.817 103.825C369.253 113.936 384.865 115.708 396.774 104.239Z" fill="#F2D386"/>
<path d="M407.177 127.379H388.665C387.308 124.682 387.158 122.143 388.225 119.895C388.91 118.529 389.906 117.342 391.134 116.431C395.056 113.345 401.174 113.363 404.744 116.836C405.688 117.725 406.486 118.757 407.107 119.895C407.733 121.04 408.068 122.323 408.08 123.628C408.092 124.934 407.782 126.222 407.177 127.379Z" fill="#F2D386"/>
<path d="M366.213 53.7451C369.801 50.2896 371.926 44.93 366.443 39.6409C362.916 36.1677 356.746 36.1149 352.832 39.2266C348.054 42.9818 348.037 48.0418 352.664 53.5953C355.847 57.3946 361.726 58.0557 366.213 53.7451Z" fill="#F2D386"/>
<path d="M405.885 54.8835L405.557 55.0537L443.064 127.475L443.393 127.305L405.885 54.8835Z" fill="#141F2D"/>
<path d="M392.095 194.982H383.289L253.935 86.1323L144.936 194.982H140.132L253.935 80.8168L392.095 194.982Z" fill="#1E7EAA"/>
<path d="M450.248 76.8065L448.485 83.7088C448.053 85.3131 447.533 87.3053 445.655 88.3367C444.5 88.9029 443.177 89.0283 441.935 88.6893C440.958 88.5029 440.078 87.9784 439.45 87.2079C438.821 86.4374 438.484 85.47 438.497 84.4757L431.445 86.4679L432.512 82.2366L438.815 80.5617L439.423 78.1552L433.966 76.78L434.936 72.9366L450.248 76.8065ZM446.413 79.927L442.27 78.878L441.468 82.0515C441.353 82.3367 441.303 82.6436 441.32 82.9505C441.337 83.2574 441.421 83.5569 441.566 83.8277C441.712 84.0984 441.915 84.334 442.162 84.5175C442.408 84.7011 442.692 84.8282 442.993 84.89C444.95 85.3748 445.364 84.0085 445.638 83.1887L446.413 79.927Z" fill="#F6E6B5"/>
<path d="M440.533 93.7847C440.636 93.9195 440.731 94.0609 440.815 94.2079C441.296 95.1669 441.397 96.2719 441.098 97.302C440.401 100.088 437.748 101.71 433.975 100.749C431.648 100.158 428.298 98.2364 429.285 94.3489C429.55 93.3389 430.131 92.44 430.943 91.7837L426.271 90.6113L427.152 87.2439L442.349 91.1402L441.6 94.1197L440.533 93.7847ZM438.867 96.1825C438.951 95.8442 438.951 95.4906 438.866 95.1525C438.782 94.8144 438.616 94.5022 438.383 94.2431C437.717 93.5334 436.843 93.0521 435.888 92.868C434.91 92.5358 433.845 92.5702 432.891 92.9649C432.638 93.1082 432.417 93.3006 432.24 93.5307C432.062 93.7608 431.933 94.024 431.859 94.3048C431.445 95.9356 433.023 97.0904 434.804 97.54C436.302 97.9191 437.995 97.9014 438.682 96.6585C438.77 96.5207 438.833 96.3685 438.867 96.2089V96.1825Z" fill="#F6E6B5"/>
<path d="M383.121 273.199H244.943V302.8H383.121V273.199Z" fill="#C3AA6D"/>
<path d="M258.484 303.003C258.167 303.003 257.911 296.427 257.911 288.326C257.911 280.225 258.167 273.64 258.484 273.64C258.801 273.64 259.066 280.216 259.066 288.326C259.066 296.436 258.801 303.003 258.484 303.003Z" fill="#D8BE76"/>
<path d="M250.927 303.003C250.61 303.003 250.354 296.427 250.354 288.326C250.354 280.225 250.61 273.614 250.927 273.614C251.245 273.614 251.5 280.19 251.5 288.3C251.5 296.41 251.245 303.003 250.927 303.003Z" fill="#D8BE76"/>
<path d="M275.092 303.003C274.774 303.003 274.519 296.427 274.519 288.326C274.519 280.225 274.774 273.64 275.092 273.64C275.409 273.64 275.665 280.216 275.665 288.326C275.665 296.436 275.409 303.003 275.092 303.003Z" fill="#D8BE76"/>
<path d="M267.528 303.003C267.211 303.003 266.955 296.427 266.955 288.326C266.955 280.225 267.211 273.64 267.528 273.64C267.845 273.64 268.11 280.216 268.11 288.326C268.11 296.436 267.845 303.003 267.528 303.003Z" fill="#D8BE76"/>
<path d="M291.691 303.003C291.374 303.003 291.118 296.427 291.118 288.326C291.118 280.225 291.374 273.64 291.691 273.64C292.008 273.64 292.273 280.216 292.273 288.326C292.273 296.436 292.044 303.003 291.691 303.003Z" fill="#D8BE76"/>
<path d="M284.108 303.003C283.791 303.003 283.535 296.427 283.535 288.326C283.535 280.225 283.817 273.614 284.108 273.614C284.399 273.614 284.681 280.19 284.681 288.3C284.681 296.41 284.452 303.003 284.108 303.003Z" fill="#D8BE76"/>
<path d="M308.299 303.003C307.981 303.003 307.717 296.427 307.717 288.326C307.717 280.225 307.981 273.64 308.299 273.64C308.616 273.64 308.872 280.216 308.872 288.326C308.872 296.436 308.616 303.003 308.299 303.003Z" fill="#D8BE76"/>
<path d="M300.734 303.003C300.417 303.003 300.161 296.427 300.161 288.326C300.161 280.225 300.417 273.64 300.734 273.64C301.051 273.64 301.316 280.216 301.316 288.326C301.316 296.436 301.051 303.003 300.734 303.003Z" fill="#D8BE76"/>
<path d="M324.897 303.003C324.58 303.003 324.324 296.427 324.324 288.326C324.324 280.225 324.58 273.64 324.897 273.64C325.215 273.64 325.47 280.216 325.47 288.326C325.47 296.436 325.215 303.003 324.897 303.003Z" fill="#D8BE76"/>
<path d="M317.343 303.003C317.025 303.003 316.77 296.427 316.77 288.326C316.77 280.225 317.025 273.64 317.343 273.64C317.66 273.64 317.916 280.216 317.916 288.326C317.916 296.436 317.66 303.003 317.343 303.003Z" fill="#D8BE76"/>
<path d="M341.505 303.003C341.187 303.003 340.923 296.427 340.923 288.326C340.923 280.225 341.187 273.64 341.505 273.64C341.822 273.64 342.078 280.216 342.078 288.326C342.078 296.436 341.822 303.003 341.505 303.003Z" fill="#D8BE76"/>
<path d="M333.941 303.003C333.624 303.003 333.368 296.427 333.368 288.326C333.368 280.225 333.624 273.64 333.941 273.64C334.258 273.64 334.523 280.216 334.523 288.326C334.523 296.436 334.258 303.003 333.941 303.003Z" fill="#D8BE76"/>
<path d="M358.103 303.003C357.786 303.003 357.53 296.427 357.53 288.326C357.53 280.225 357.786 273.64 358.103 273.64C358.421 273.64 358.676 280.216 358.676 288.326C358.676 296.436 358.421 303.003 358.103 303.003Z" fill="#D8BE76"/>
<path d="M350.55 303.003C350.232 303.003 349.968 296.427 349.968 288.326C349.968 280.225 350.232 273.64 350.55 273.64C350.867 273.64 351.123 280.216 351.123 288.326C351.123 296.436 350.867 303.003 350.55 303.003Z" fill="#D8BE76"/>
<path d="M374.712 303.003C374.394 303.003 374.13 296.427 374.13 288.326C374.13 280.225 374.394 273.64 374.712 273.64C375.029 273.64 375.285 280.216 375.285 288.326C375.285 296.436 375.029 303.003 374.712 303.003Z" fill="#D8BE76"/>
<path d="M367.148 303.003C366.831 303.003 366.575 296.427 366.575 288.326C366.575 280.225 366.831 273.64 367.148 273.64C367.466 273.64 367.721 280.216 367.721 288.326C367.721 296.436 367.466 303.003 367.148 303.003Z" fill="#D8BE76"/>
<path d="M383.13 273.199C383.13 273.578 352.047 273.877 313.719 273.877C275.391 273.877 244.3 273.578 244.3 273.199C244.3 272.82 275.373 272.52 313.719 272.52C352.065 272.52 383.13 272.828 383.13 273.199Z" fill="#D8BE76"/>
<path d="M374.077 303.267H235.899V332.869H374.077V303.267Z" fill="#C3AA6D"/>
<path d="M249.439 333.062C249.122 333.062 248.866 326.495 248.866 318.385C248.866 310.275 249.122 303.699 249.439 303.699C249.757 303.699 250.012 310.275 250.012 318.385C250.012 326.495 249.73 333.062 249.439 333.062Z" fill="#D8BE76"/>
<path d="M241.885 333.062C241.567 333.062 241.312 326.495 241.312 318.385C241.312 310.275 241.567 303.699 241.885 303.699C242.202 303.699 242.457 310.275 242.457 318.385C242.457 326.495 242.202 333.062 241.885 333.062Z" fill="#D8BE76"/>
<path d="M266.047 333.062C265.729 333.062 265.465 326.495 265.465 318.385C265.465 310.275 265.729 303.699 266.047 303.699C266.364 303.699 266.62 310.275 266.62 318.385C266.62 326.495 266.364 333.062 266.047 333.062Z" fill="#D8BE76"/>
<path d="M258.484 333.062C258.167 333.062 257.911 326.495 257.911 318.385C257.911 310.275 258.167 303.699 258.484 303.699C258.801 303.699 259.066 310.275 259.066 318.385C259.066 326.495 258.801 333.062 258.484 333.062Z" fill="#D8BE76"/>
<path d="M282.647 333.062C282.33 333.062 282.074 326.495 282.074 318.385C282.074 310.275 282.33 303.699 282.647 303.699C282.965 303.699 283.22 310.275 283.22 318.385C283.22 326.495 282.965 333.062 282.647 333.062Z" fill="#D8BE76"/>
<path d="M275.092 333.062C274.774 333.062 274.519 326.495 274.519 318.385C274.519 310.275 274.774 303.699 275.092 303.699C275.409 303.699 275.665 310.275 275.665 318.385C275.665 326.495 275.409 333.062 275.092 333.062Z" fill="#D8BE76"/>
<path d="M299.253 333.062C298.935 333.062 298.671 326.495 298.671 318.385C298.671 310.275 298.935 303.699 299.253 303.699C299.57 303.699 299.826 310.275 299.826 318.385C299.826 326.495 299.57 333.062 299.253 333.062Z" fill="#D8BE76"/>
<path d="M291.691 333.062C291.374 333.062 291.118 326.495 291.118 318.385C291.118 310.275 291.374 303.699 291.691 303.699C292.008 303.699 292.273 310.275 292.273 318.385C292.273 326.495 292.044 333.062 291.691 333.062Z" fill="#D8BE76"/>
<path d="M315.843 333.062C315.526 333.062 315.271 326.495 315.271 318.385C315.271 310.275 315.526 303.699 315.843 303.699C316.161 303.699 316.416 310.275 316.416 318.385C316.416 326.495 316.17 333.062 315.843 333.062Z" fill="#D8BE76"/>
<path d="M308.299 333.062C307.981 333.062 307.717 326.495 307.717 318.385C307.717 310.275 307.981 303.699 308.299 303.699C308.616 303.699 308.872 310.275 308.872 318.385C308.872 326.495 308.616 333.062 308.299 333.062Z" fill="#D8BE76"/>
<path d="M332.461 333.062C332.143 333.062 331.879 326.495 331.879 318.385C331.879 310.275 332.143 303.699 332.461 303.699C332.778 303.699 333.034 310.275 333.034 318.385C333.034 326.495 332.778 333.062 332.461 333.062Z" fill="#D8BE76"/>
<path d="M324.897 333.062C324.58 333.062 324.324 326.495 324.324 318.385C324.324 310.275 324.58 303.699 324.897 303.699C325.215 303.699 325.47 310.275 325.47 318.385C325.47 326.495 325.215 333.062 324.897 333.062Z" fill="#D8BE76"/>
<path d="M349.06 333.062C348.743 333.062 348.487 326.495 348.487 318.385C348.487 310.275 348.743 303.699 349.06 303.699C349.378 303.699 349.633 310.275 349.633 318.385C349.633 326.495 349.342 333.062 349.06 333.062Z" fill="#D8BE76"/>
<path d="M341.505 333.062C341.187 333.062 340.923 326.495 340.923 318.385C340.923 310.275 341.187 303.699 341.505 303.699C341.822 303.699 342.078 310.275 342.078 318.385C342.078 326.495 341.822 333.062 341.505 333.062Z" fill="#D8BE76"/>
<path d="M365.668 333.062C365.35 333.062 365.086 326.495 365.086 318.385C365.086 310.275 365.35 303.699 365.668 303.699C365.985 303.699 366.241 310.275 366.241 318.385C366.241 326.495 365.985 333.062 365.668 333.062Z" fill="#D8BE76"/>
<path d="M358.103 333.062C357.786 333.062 357.53 326.495 357.53 318.385C357.53 310.275 357.786 303.699 358.103 303.699C358.421 303.699 358.676 310.275 358.676 318.385C358.676 326.495 358.421 333.062 358.103 333.062Z" fill="#D8BE76"/>
<path d="M374.077 303.268C374.077 303.638 343.003 303.947 304.675 303.947C266.347 303.947 235.256 303.638 235.256 303.268C235.256 302.898 266.329 302.589 304.675 302.589C343.021 302.589 374.077 302.889 374.077 303.268Z" fill="#D8BE76"/>
<path d="M385.369 333.063H247.191V362.656H385.369V333.063Z" fill="#C3AA6D"/>
<path d="M260.73 362.866C260.413 362.866 260.157 356.29 260.157 348.189C260.157 340.088 260.413 333.503 260.73 333.503C261.048 333.503 261.303 340.079 261.303 348.189C261.303 356.299 261.048 362.866 260.73 362.866Z" fill="#D8BE76"/>
<path d="M253.177 362.866C252.86 362.866 252.604 356.29 252.604 348.189C252.604 340.088 252.86 333.503 253.177 333.503C253.495 333.503 253.75 340.079 253.75 348.189C253.75 356.299 253.495 362.866 253.177 362.866Z" fill="#D8BE76"/>
<path d="M277.34 362.866C277.022 362.866 276.758 356.29 276.758 348.189C276.758 340.088 277.022 333.503 277.34 333.503C277.657 333.503 277.913 340.079 277.913 348.189C277.913 356.299 277.657 362.866 277.34 362.866Z" fill="#D8BE76"/>
<path d="M269.775 362.866C269.458 362.866 269.202 356.29 269.202 348.189C269.202 340.088 269.458 333.503 269.775 333.503C270.092 333.503 270.357 340.079 270.357 348.189C270.357 356.299 270.092 362.866 269.775 362.866Z" fill="#D8BE76"/>
<path d="M293.938 362.866C293.621 362.866 293.365 356.29 293.365 348.189C293.365 340.088 293.621 333.503 293.938 333.503C294.256 333.503 294.511 340.079 294.511 348.189C294.511 356.299 294.256 362.866 293.938 362.866Z" fill="#D8BE76"/>
<path d="M286.383 362.866C286.065 362.866 285.81 356.29 285.81 348.189C285.81 340.088 286.065 333.503 286.383 333.503C286.7 333.503 286.956 340.079 286.956 348.189C286.956 356.299 286.7 362.866 286.383 362.866Z" fill="#D8BE76"/>
<path d="M310.555 362.866C310.238 362.866 309.974 356.29 309.974 348.189C309.974 340.088 310.238 333.503 310.555 333.503C310.873 333.503 311.128 340.079 311.128 348.189C311.128 356.299 310.864 362.866 310.555 362.866Z" fill="#D8BE76"/>
<path d="M302.983 362.866C302.666 362.866 302.41 356.29 302.41 348.189C302.41 340.088 302.666 333.503 302.983 333.503C303.3 333.503 303.556 340.079 303.556 348.189C303.556 356.299 303.3 362.866 302.983 362.866Z" fill="#D8BE76"/>
<path d="M327.145 362.866C326.828 362.866 326.572 356.29 326.572 348.189C326.572 340.088 326.828 333.503 327.145 333.503C327.463 333.503 327.718 340.079 327.718 348.189C327.718 356.299 327.463 362.866 327.145 362.866Z" fill="#D8BE76"/>
<path d="M319.59 362.866C319.272 362.866 319.008 356.29 319.008 348.189C319.008 340.088 319.272 333.503 319.59 333.503C319.907 333.503 320.163 340.079 320.163 348.189C320.163 356.299 319.907 362.866 319.59 362.866Z" fill="#D8BE76"/>
<path d="M343.753 362.866C343.435 362.866 343.171 356.29 343.171 348.189C343.171 340.088 343.435 333.503 343.753 333.503C344.07 333.503 344.326 340.079 344.326 348.189C344.326 356.299 344.052 362.866 343.753 362.866Z" fill="#D8BE76"/>
<path d="M336.19 362.866C335.873 362.866 335.617 356.29 335.617 348.189C335.617 340.088 335.873 333.503 336.19 333.503C336.508 333.503 336.763 340.079 336.763 348.189C336.763 356.299 336.508 362.866 336.19 362.866Z" fill="#D8BE76"/>
<path d="M360.351 362.866C360.034 362.866 359.778 356.29 359.778 348.189C359.778 340.088 360.034 333.503 360.351 333.503C360.669 333.503 360.924 340.079 360.924 348.189C360.924 356.299 360.669 362.866 360.351 362.866Z" fill="#D8BE76"/>
<path d="M352.796 362.866C352.478 362.866 352.214 356.29 352.214 348.189C352.214 340.088 352.478 333.503 352.796 333.503C353.113 333.503 353.369 340.079 353.369 348.189C353.369 356.299 353.113 362.866 352.796 362.866Z" fill="#D8BE76"/>
<path d="M376.959 362.866C376.633 362.866 376.377 356.29 376.377 348.189C376.377 340.088 376.633 333.503 376.959 333.503C377.285 333.503 377.532 340.079 377.532 348.189C377.532 356.299 377.276 362.866 376.959 362.866Z" fill="#D8BE76"/>
<path d="M369.395 362.866C369.078 362.866 368.822 356.29 368.822 348.189C368.822 340.088 369.078 333.503 369.395 333.503C369.713 333.503 369.968 340.079 369.968 348.189C369.968 356.299 369.713 362.866 369.395 362.866Z" fill="#D8BE76"/>
<path d="M385.369 333.063C385.369 333.442 354.216 333.741 315.8 333.741C277.383 333.741 246.222 333.442 246.222 333.063C246.222 332.684 277.366 332.384 315.8 332.384C354.234 332.384 385.369 332.675 385.369 333.063Z" fill="#D8BE76"/>
<path d="M374.535 362.425H236.357V392.027H374.535V362.425Z" fill="#C3AA6D"/>
<path d="M249.897 392.23C249.58 392.23 249.324 385.654 249.324 377.544C249.324 369.434 249.58 362.867 249.897 362.867C250.215 362.867 250.479 369.434 250.479 377.544C250.479 385.654 250.215 392.23 249.897 392.23Z" fill="#D8BE76"/>
<path d="M242.343 392.23C242.025 392.23 241.77 385.654 241.77 377.544C241.77 369.434 242.025 362.867 242.343 362.867C242.66 362.867 242.915 369.434 242.915 377.544C242.915 385.654 242.677 392.23 242.343 392.23Z" fill="#D8BE76"/>
<path d="M266.479 392.23C266.162 392.23 265.906 385.654 265.906 377.544C265.906 369.434 266.162 362.867 266.479 362.867C266.797 362.867 267.052 369.434 267.052 377.544C267.052 385.654 266.823 392.23 266.479 392.23Z" fill="#D8BE76"/>
<path d="M258.942 392.23C258.625 392.23 258.369 385.654 258.369 377.544C258.369 369.434 258.625 362.867 258.942 362.867C259.259 362.867 259.524 369.434 259.524 377.544C259.524 385.654 259.268 392.23 258.942 392.23Z" fill="#D8BE76"/>
<path d="M283.104 392.23C282.787 392.23 282.531 385.654 282.531 377.544C282.531 369.434 282.787 362.867 283.104 362.867C283.422 362.867 283.686 369.434 283.686 377.544C283.686 385.654 283.422 392.23 283.104 392.23Z" fill="#D8BE76"/>
<path d="M275.55 392.23C275.232 392.23 274.977 385.654 274.977 377.544C274.977 369.434 275.232 362.867 275.55 362.867C275.867 362.867 276.123 369.434 276.123 377.544C276.123 385.654 275.867 392.23 275.55 392.23Z" fill="#D8BE76"/>
<path d="M299.712 392.23C299.394 392.23 299.139 385.654 299.139 377.544C299.139 369.434 299.394 362.867 299.712 362.867C300.029 362.867 300.285 369.434 300.285 377.544C300.285 385.654 300.029 392.23 299.712 392.23Z" fill="#D8BE76"/>
<path d="M292.149 392.23C291.832 392.23 291.576 385.654 291.576 377.544C291.576 369.434 291.832 362.867 292.149 362.867C292.466 362.867 292.731 369.434 292.731 377.544C292.731 385.654 292.466 392.23 292.149 392.23Z" fill="#D8BE76"/>
<path d="M316.311 392.23C315.994 392.23 315.738 385.654 315.738 377.544C315.738 369.434 315.994 362.867 316.311 362.867C316.629 362.867 316.893 369.434 316.893 377.544C316.893 385.654 316.629 392.23 316.311 392.23Z" fill="#D8BE76"/>
<path d="M308.792 392.23C308.474 392.23 308.219 385.654 308.219 377.544C308.219 369.434 308.474 362.867 308.792 362.867C309.109 362.867 309.365 369.434 309.365 377.544C309.365 385.654 309.074 392.23 308.792 392.23Z" fill="#D8BE76"/>
<path d="M332.919 392.23C332.601 392.23 332.346 385.654 332.346 377.544C332.346 369.434 332.601 362.867 332.919 362.867C333.236 362.867 333.492 369.434 333.492 377.544C333.492 385.654 333.236 392.23 332.919 392.23Z" fill="#D8BE76"/>
<path d="M325.355 392.23C325.038 392.23 324.782 385.654 324.782 377.544C324.782 369.434 325.038 362.867 325.355 362.867C325.673 362.867 325.937 369.434 325.937 377.544C325.937 385.654 325.673 392.23 325.355 392.23Z" fill="#D8BE76"/>
<path d="M349.518 392.23C349.201 392.23 348.945 385.654 348.945 377.544C348.945 369.434 349.201 362.867 349.518 362.867C349.836 362.867 350.1 369.434 350.1 377.544C350.1 385.654 349.836 392.23 349.518 392.23Z" fill="#D8BE76"/>
<path d="M341.964 392.23C341.646 392.23 341.391 385.654 341.391 377.544C341.391 369.434 341.646 362.867 341.964 362.867C342.281 362.867 342.537 369.434 342.537 377.544C342.537 385.654 342.29 392.23 341.964 392.23Z" fill="#D8BE76"/>
<path d="M366.091 392.23C365.773 392.23 365.518 385.654 365.518 377.544C365.518 369.434 365.773 362.867 366.091 362.867C366.408 362.867 366.664 369.434 366.664 377.544C366.664 385.654 366.443 392.23 366.091 392.23Z" fill="#D8BE76"/>
<path d="M358.56 392.23C358.243 392.23 357.987 385.654 357.987 377.544C357.987 369.434 358.243 362.867 358.56 362.867C358.878 362.867 359.142 369.434 359.142 377.544C359.142 385.654 358.878 392.23 358.56 392.23Z" fill="#D8BE76"/>
<path d="M374.544 362.425C374.544 362.795 343.461 363.104 305.133 363.104C266.805 363.104 235.723 362.795 235.723 362.425C235.723 362.055 266.787 361.746 305.133 361.746C343.479 361.746 374.544 362.046 374.544 362.425Z" fill="#D8BE76"/>
<path d="M388.383 392.45H250.206V422.042H388.383V392.45Z" fill="#C3AA6D"/>
<path d="M263.745 422.246C263.428 422.246 263.172 415.678 263.172 407.568C263.172 399.458 263.428 392.882 263.745 392.882C264.062 392.882 264.327 399.458 264.327 407.568C264.327 415.678 264.062 422.246 263.745 422.246Z" fill="#D8BE76"/>
<path d="M256.192 422.246C255.875 422.246 255.619 415.678 255.619 407.568C255.619 399.458 255.875 392.882 256.192 392.882C256.509 392.882 256.765 399.458 256.765 407.568C256.765 415.678 256.509 422.246 256.192 422.246Z" fill="#D8BE76"/>
<path d="M280.354 422.246C280.037 422.246 279.781 415.678 279.781 407.568C279.781 399.458 280.037 392.882 280.354 392.882C280.672 392.882 280.927 399.458 280.927 407.568C280.927 415.678 280.672 422.246 280.354 422.246Z" fill="#D8BE76"/>
<path d="M272.791 422.246C272.473 422.246 272.218 415.678 272.218 407.568C272.218 399.458 272.473 392.882 272.791 392.882C273.108 392.882 273.373 399.458 273.373 407.568C273.373 415.678 273.108 422.246 272.791 422.246Z" fill="#D8BE76"/>
<path d="M296.954 422.246C296.636 422.246 296.381 415.678 296.381 407.568C296.381 399.458 296.636 392.882 296.954 392.882C297.271 392.882 297.536 399.458 297.536 407.568C297.536 415.678 297.271 422.246 296.954 422.246Z" fill="#D8BE76"/>
<path d="M289.398 422.246C289.081 422.246 288.825 415.678 288.825 407.568C288.825 399.458 289.081 392.882 289.398 392.882C289.716 392.882 289.971 399.458 289.971 407.568C289.971 415.678 289.716 422.246 289.398 422.246Z" fill="#D8BE76"/>
<path d="M313.561 422.246C313.244 422.246 312.988 415.678 312.988 407.568C312.988 399.458 313.244 392.882 313.561 392.882C313.879 392.882 314.134 399.458 314.134 407.568C314.134 415.678 313.879 422.246 313.561 422.246Z" fill="#D8BE76"/>
<path d="M305.997 422.246C305.679 422.246 305.424 415.678 305.424 407.568C305.424 399.458 305.679 392.882 305.997 392.882C306.314 392.882 306.579 399.458 306.579 407.568C306.579 415.678 306.314 422.246 305.997 422.246Z" fill="#D8BE76"/>
<path d="M330.16 422.246C329.843 422.246 329.587 415.678 329.587 407.568C329.587 399.458 329.843 392.882 330.16 392.882C330.477 392.882 330.733 399.458 330.733 407.568C330.733 415.678 330.477 422.246 330.16 422.246Z" fill="#D8BE76"/>
<path d="M322.603 422.246C322.286 422.246 322.03 415.678 322.03 407.568C322.03 399.458 322.286 392.882 322.603 392.882C322.921 392.882 323.176 399.458 323.176 407.568C323.176 415.678 322.894 422.246 322.603 422.246Z" fill="#D8BE76"/>
<path d="M346.767 422.246C346.45 422.246 346.186 415.678 346.186 407.568C346.186 399.458 346.45 392.882 346.767 392.882C347.085 392.882 347.34 399.458 347.34 407.568C347.34 415.678 347.085 422.246 346.767 422.246Z" fill="#D8BE76"/>
<path d="M339.204 422.246C338.887 422.246 338.631 415.678 338.631 407.568C338.631 399.458 338.887 392.882 339.204 392.882C339.521 392.882 339.786 399.458 339.786 407.568C339.786 415.678 339.521 422.246 339.204 422.246Z" fill="#D8BE76"/>
<path d="M363.366 422.246C363.049 422.246 362.793 415.678 362.793 407.568C362.793 399.458 363.049 392.882 363.366 392.882C363.683 392.882 363.939 399.458 363.939 407.568C363.939 415.678 363.683 422.246 363.366 422.246Z" fill="#D8BE76"/>
<path d="M355.811 422.246C355.494 422.246 355.238 415.678 355.238 407.568C355.238 399.458 355.494 392.882 355.811 392.882C356.129 392.882 356.384 399.458 356.384 407.568C356.384 415.678 356.129 422.246 355.811 422.246Z" fill="#D8BE76"/>
<path d="M379.974 422.246C379.657 422.246 379.393 415.678 379.393 407.568C379.393 399.458 379.657 392.882 379.974 392.882C380.292 392.882 380.547 399.458 380.547 407.568C380.547 415.678 380.292 422.246 379.974 422.246Z" fill="#D8BE76"/>
<path d="M372.41 422.246C372.093 422.246 371.837 415.678 371.837 407.568C371.837 399.458 372.093 392.882 372.41 392.882C372.727 392.882 372.992 399.458 372.992 407.568C372.992 415.678 372.727 422.246 372.41 422.246Z" fill="#D8BE76"/>
<path d="M388.393 392.451C388.393 392.821 357.311 393.12 318.983 393.12C280.654 393.12 249.563 392.821 249.563 392.451C249.563 392.08 280.637 391.772 318.983 391.772C357.329 391.772 388.393 392.071 388.393 392.451Z" fill="#D8BE76"/>
<path d="M247.482 293.448C247.165 293.448 246.9 289.816 246.9 285.338C246.9 280.86 247.165 277.237 247.482 277.237C247.8 277.237 248.055 280.869 248.055 285.338C248.055 289.807 247.8 293.448 247.482 293.448Z" fill="white"/>
<path d="M238.764 325.066C238.447 325.066 238.191 321.17 238.191 316.375C238.191 311.579 238.447 307.674 238.764 307.674C239.082 307.674 239.346 311.57 239.346 316.375C239.346 321.179 239.082 325.066 238.764 325.066Z" fill="white"/>
<path d="M251.169 355.507C250.851 355.507 250.596 352.051 250.596 347.802C250.596 343.553 250.851 340.089 251.169 340.089C251.486 340.089 251.742 343.536 251.742 347.802C251.742 352.069 251.495 355.507 251.169 355.507Z" fill="white"/>
<path d="M238.428 383.573C238.111 383.573 237.855 380.47 237.855 376.653C237.855 372.836 238.111 369.733 238.428 369.733C238.746 369.733 239.001 372.827 239.001 376.653C239.001 380.479 238.746 383.573 238.428 383.573Z" fill="white"/>
<path d="M289.036 305.701C289.036 306.071 278.828 306.379 266.249 306.379C253.67 306.379 243.453 306.071 243.453 305.701C243.453 305.33 253.661 305.022 266.249 305.022C278.837 305.022 289.036 305.348 289.036 305.701Z" fill="white"/>
<path d="M303.785 277.237C303.785 277.616 293.507 277.915 280.866 277.915C268.225 277.915 257.946 277.616 257.946 277.237C257.946 276.858 268.225 276.558 280.866 276.558C293.507 276.558 303.785 276.866 303.785 277.237Z" fill="white"/>
<path d="M325.901 277.633C325.901 278.003 322.525 278.312 318.364 278.312C314.203 278.312 310.818 278.003 310.818 277.633C310.818 277.263 314.195 276.954 318.364 276.954C322.534 276.954 325.901 277.254 325.901 277.633Z" fill="white"/>
<path d="M252.173 420.976C251.944 420.976 251.75 415.908 251.75 409.667C251.75 403.425 251.944 398.348 252.173 398.348C252.402 398.348 252.596 403.408 252.596 409.667C252.596 415.925 252.376 420.976 252.173 420.976Z" fill="white"/>
<path d="M326.956 250.198C355.534 234.829 366.242 199.204 350.874 170.625C335.506 142.047 299.88 131.339 271.302 146.707C242.724 162.076 232.015 197.701 247.384 226.279C262.752 254.857 298.378 265.566 326.956 250.198Z" fill="#F2D386"/>
<path d="M344.922 202.199C346.475 176.965 327.277 155.25 302.042 153.698C276.808 152.146 255.093 171.344 253.541 196.578C251.989 221.812 271.187 243.527 296.421 245.079C321.655 246.631 343.37 227.433 344.922 202.199Z" fill="#F6E6B5"/>
<path d="M275.814 182.279H288.419C291.355 182.323 295.004 182.359 297.578 185.136C299.05 186.871 299.839 189.084 299.8 191.359C299.8 196.992 295.956 198.411 294.052 199.09L300.514 210.267H292.783L287.238 200.28H282.83V210.267H275.778L275.814 182.279ZM282.866 187.516V195.088H288.657C289.645 195.044 292.862 194.964 292.862 191.244C292.862 187.674 290.279 187.551 288.816 187.516H282.866Z" fill="#D7C087"/>
<path d="M309.214 191.632C309.408 191.394 309.611 191.156 309.805 190.962C311.249 189.725 313.105 189.074 315.006 189.138C320.075 189.138 323.997 192.981 323.997 199.883C323.997 204.123 322.137 210.7 315.041 210.7C312.74 210.7 311.515 209.95 309.928 208.937V217.461H303.758V189.658H309.188L309.214 191.632ZM314.08 193.395C313.461 193.398 312.852 193.551 312.306 193.841C311.759 194.131 311.291 194.55 310.942 195.062C310.024 196.515 309.583 198.22 309.682 199.936C309.682 202.581 310.352 204.176 311.145 205.049C311.498 205.42 311.922 205.716 312.391 205.92C312.86 206.125 313.366 206.233 313.878 206.239C316.857 206.239 318.162 203.03 318.162 199.778C318.162 197.045 317.404 194.145 314.909 193.51C314.639 193.437 314.36 193.399 314.08 193.395Z" fill="#D7C087"/>
<path d="M380.537 65.99L384.654 72.8746C385.588 74.4878 386.752 76.4888 386.073 78.7984C385.614 80.1643 384.674 81.317 383.429 82.0424C380.361 83.8759 378.342 82.2363 377.337 81.4253L373.335 88.6008L370.823 84.3784L374.464 78.0932L373.027 75.6866L367.579 78.9483L365.287 75.1137L380.537 65.99ZM379.973 71.5259L375.839 73.9941L377.725 77.1588C378.069 77.6877 379.162 79.4066 381.198 78.199C383.235 76.9913 382.371 75.5544 381.912 74.7699L379.973 71.5259Z" fill="#F6E6B5"/>
<path d="M386.365 87.2615C387.061 87.3449 387.723 87.6039 388.291 88.0141C388.858 88.4244 389.312 88.9723 389.609 89.6063C391.267 92.3743 390.491 95.7769 386.683 98.016C384.364 99.3999 380.168 100.528 377.867 96.6585C377.277 95.644 377.026 94.467 377.153 93.2999L372.499 96.0767L370.498 92.7181L385.669 83.6649L387.432 86.6268L386.365 87.2615ZM386.947 90.4967C386.744 90.1597 386.462 89.8771 386.126 89.6729C385.79 89.4687 385.409 89.349 385.017 89.3243C383.925 89.2933 382.85 89.6013 381.94 90.2058C380.895 90.7218 380.071 91.5985 379.622 92.674C379.535 92.9876 379.513 93.3153 379.555 93.6378C379.597 93.9603 379.704 94.271 379.869 94.5516C380.838 96.1824 383.016 95.8475 384.787 94.7897C386.286 93.9081 387.617 92.5418 387.15 90.9727C387.099 90.8045 387.025 90.6442 386.929 90.4967H386.947Z" fill="#F6E6B5"/>
<path d="M199.997 345.721C200.499 340.432 200.693 335.143 200.878 329.783C201.125 324.027 201.187 318.324 201.187 312.532C201.257 311.627 201.186 310.717 200.975 309.835C200.411 308.697 199.653 309.35 199.027 309.694C195.955 311.341 192.667 312.549 189.26 313.281C180.515 314.965 172.511 312.964 164.868 308.671C162.876 307.551 161.201 305.877 158.953 305.207C157.948 305.462 157.64 306.353 157.19 307.128C155.543 310.202 154.239 313.448 153.303 316.807C150.447 326.266 148.834 335.998 147.185 345.712C147.079 346.329 147.291 346.911 147.185 347.475L147.264 347.546C147.206 347.588 147.157 347.642 147.121 347.704C147.085 347.766 147.063 347.836 147.055 347.907C147.048 347.979 147.055 348.051 147.078 348.119C147.1 348.188 147.137 348.251 147.185 348.304C146.676 351.946 145.94 355.552 144.981 359.102C144.805 359.869 144.206 360.16 143.668 360.504C135.655 365.617 130.524 372.986 126.919 381.59C126.481 382.781 126.318 384.056 126.443 385.319C126.205 389.312 130.11 392.626 133.786 391.56C136.774 392.009 138.581 390.581 140.309 388.21C145.651 380.902 151.249 373.78 156.741 366.578C158.874 363.783 160.408 360.619 162.241 357.648C162.814 356.722 163.405 355.814 164.004 354.898C164.26 354.466 164.798 354.289 165.018 353.831C166.067 352.068 167.16 350.305 168.2 348.542C168.386 348.26 168.571 347.978 168.747 347.66C168.923 347.343 169.02 347.211 169.144 346.982C172.158 341.957 175.076 336.871 178.25 331.661C178.585 336.862 178.761 341.842 179.396 346.788C179.409 347.046 179.409 347.305 179.396 347.563C179.396 348.004 179.484 348.445 179.475 348.868C179.475 349.494 179.475 350.111 179.475 350.737C179.475 351.01 179.475 351.283 179.475 351.565C179.531 352.403 179.658 353.235 179.854 354.051C179.942 354.42 180.091 354.772 180.295 355.092C180.55 358.838 180.797 362.576 181.07 366.313C181.147 367.095 180.961 367.88 180.542 368.543C176.011 376.045 174.089 384.367 173.049 392.953C172.925 393.966 172.908 395.006 172.74 396.02C172.548 396.778 172.573 397.574 172.813 398.318C173.053 399.062 173.499 399.723 174.098 400.225C175.711 403.081 180.268 404.897 184.068 404.227C184.367 404.174 184.641 404.051 184.949 403.989C187.382 403.548 188.581 402.111 189.066 399.643C190.203 393.905 191.781 388.254 193.05 382.542C193.133 381.964 193.266 381.395 193.447 380.841C194.531 376.68 195.404 372.466 196.497 368.305C197.193 365.582 197.907 362.866 198.392 360.09" fill="#0C4055"/>
<path d="M133.759 391.559C129.748 391.321 127.2 389.356 126.416 385.318C124.847 388.844 123.281 392.356 121.717 395.852C121.403 396.045 121.132 396.302 120.923 396.605C120.713 396.909 120.569 397.253 120.501 397.615C119.001 402.406 118.238 407.396 118.235 412.416C118.297 416.727 120.369 419.468 124.212 420.35C125.975 420.755 127.738 420.879 129.122 419.468C130.506 418.058 129.501 416.418 128.99 414.902C128.628 414.311 128.611 413.597 128.302 412.98C128.116 409.215 128.383 405.442 129.096 401.741C129.307 400.665 130.153 399.872 130.744 398.973C131.943 397.21 133.08 395.332 134.367 393.596C135.134 392.467 135.134 391.868 133.759 391.559Z" fill="#FBFAF2"/>
<path d="M128.61 414.805C128.733 415.264 128.83 415.74 128.98 416.189C129.862 418.781 128.566 420.332 125.772 420.086C121.364 419.707 118.764 417.053 118.719 412.478C118.7 406.8 119.716 401.166 121.717 395.853C118.808 395.8 115.793 398.409 116.295 401.345C117.053 405.752 115.969 409.984 115.819 414.294C115.687 418.367 116.577 422.087 119.345 425.234C121.681 427.878 128.813 428.98 131.828 427.111C132.476 426.706 133.023 426.158 133.427 425.509C133.831 424.86 134.081 424.126 134.158 423.366C134.234 422.605 134.136 421.837 133.869 421.12C133.603 420.403 133.176 419.757 132.621 419.231C131.025 417.785 130.082 415.872 129.016 414.056C128.275 414.021 128.513 414.444 128.61 414.805Z" fill="#1E7FAA"/>
<path d="M194.574 427.816L194.195 427.226L194.151 427.155C193.816 426.75 193.49 426.327 193.181 425.895C192.663 425.515 192.233 425.028 191.921 424.467C191.841 424.37 191.771 424.273 191.7 424.167L183.899 416.903C183.564 416.824 183.432 417.027 183.361 417.309C183.608 418.622 184.701 419.416 185.344 420.491C185.794 421.258 186.57 421.998 186.006 422.959C185.441 423.92 184.366 423.841 183.361 423.7C178.795 423.03 173.946 418.411 173.038 413.924C173.033 413.743 172.988 413.567 172.907 413.405C172.826 413.244 172.712 413.102 172.571 412.989C171.161 413.465 170.376 415.034 170.544 417.062C170.773 419.847 171.558 422.122 174.149 423.885C178.292 426.697 182.083 430.055 186.49 432.462C187.494 433.019 188.533 433.508 189.602 433.925C190.459 434.33 191.43 434.423 192.348 434.19C193.267 433.957 194.075 433.411 194.636 432.647C195.94 431.069 195.517 429.641 194.636 428.142C194.598 428.038 194.577 427.928 194.574 427.816Z" fill="#1E7FAA"/>
<path d="M172.608 412.989C172.202 415.634 173.683 417.494 175.252 419.274C177.395 421.766 180.287 423.497 183.495 424.211C184.579 424.475 185.69 424.502 186.43 423.426C187.17 422.351 186.545 421.355 185.901 420.455C185.134 419.38 184.35 418.313 183.565 417.238C183.227 416.403 182.674 415.673 181.961 415.122C181.079 414.514 181.238 413.782 181.538 412.901C182.595 409.78 183.997 406.783 184.729 403.557C180.506 404.562 177.121 402.913 174.054 400.225C173.842 400.339 173.667 400.51 173.549 400.719C173.43 400.928 173.373 401.166 173.384 401.406C173.125 405.267 172.866 409.128 172.608 412.989Z" fill="#FBFAF2"/>
<path d="M251.272 236.67C251.635 235.571 252.204 234.551 252.947 233.664C253.882 232.872 254.766 232.021 255.592 231.116C255.741 230.728 255.838 229.556 256.702 229.697C257.566 229.838 258.862 231.231 257.584 233.478L256.464 235.021C257.192 235.67 258.012 236.208 258.897 236.617C259.779 236.881 270.709 238.829 270.709 238.829C270.975 238.818 271.235 238.901 271.446 239.062C271.657 239.223 271.805 239.452 271.864 239.711C272.12 240.636 270.709 241.121 270.709 241.121C270.848 241.52 270.828 241.958 270.652 242.342C270.476 242.726 270.159 243.028 269.766 243.184C269.66 243.977 268.726 244.665 266.875 244.453C266.875 244.453 266.928 245.441 264.795 245.635C262.661 245.828 252.938 244.074 252.938 244.074L249.412 238.062L251.272 236.67Z" fill="#FCFCF5"/>
<path d="M244.133 238.988L251.273 236.669L252.948 244.056L245.481 249.16C245.481 249.16 239.152 243.73 244.133 238.988Z" fill="#FCFCF5"/>
<path d="M260.309 243.333C261.432 243.445 262.548 243.625 263.65 243.871C264.772 243.99 265.885 244.185 266.982 244.453C265.846 244.557 264.702 244.486 263.588 244.241C262.453 244.116 261.346 243.81 260.309 243.333Z" fill="#EFEFD8"/>
<path d="M260.528 241.377C262.137 241.425 263.735 241.662 265.289 242.082C267.871 242.672 269.969 243.069 269.961 243.166C268.351 243.117 266.753 242.877 265.2 242.452C262.626 241.879 260.52 241.474 260.528 241.377Z" fill="#EFEFD8"/>
<path d="M270.887 241.059C270.438 241.158 269.975 241.173 269.521 241.104C268.427 241.016 267.34 240.854 266.268 240.619C264.741 240.358 263.246 239.935 261.808 239.358C263.337 239.564 264.852 239.859 266.347 240.24C267.59 240.504 268.728 240.707 269.547 240.83C270.001 240.861 270.45 240.937 270.887 241.059Z" fill="#EFEFD8"/>
<path d="M178.768 216.668C178.671 215.214 178.433 213.777 179.87 213.556L194.547 209.149C199.281 208.435 202.71 214.147 203.222 218.907C203.795 224.196 204.288 230.666 203.839 234.651C203.607 236.92 202.74 239.078 201.337 240.876C199.933 242.674 198.05 244.04 195.905 244.815L196.09 249.681C195.482 253.418 194.53 257.614 193.014 259.122C187.821 258.152 181.422 248.2 181.422 248.2L178.768 216.668Z" fill="#FCFCF5"/>
<path d="M195.613 233.064C196.104 232.91 196.609 232.81 197.121 232.764C197.359 232.764 197.579 232.676 197.614 232.535C197.65 232.394 197.561 232.182 197.438 231.962C197.191 231.495 196.944 231.01 196.68 230.499C195.983 229.273 195.408 227.983 194.961 226.646C195.767 227.819 196.466 229.061 197.05 230.358C197.306 230.878 197.544 231.371 197.782 231.838C197.858 231.949 197.91 232.075 197.936 232.206C197.962 232.338 197.96 232.474 197.932 232.605C197.893 232.68 197.84 232.746 197.774 232.799C197.709 232.853 197.634 232.891 197.553 232.914C197.42 232.951 197.284 232.975 197.147 232.984C196.64 233.064 196.126 233.09 195.613 233.064Z" fill="#146080"/>
<path d="M195.88 244.797C192.44 244.38 189.118 243.287 186.104 241.579C186.104 241.579 187.955 246.595 195.95 247.212L195.88 244.797Z" fill="#EFEFD8"/>
<path d="M180.521 227.555C180.415 225.845 178.317 225.518 176.854 226.4C176.052 226.885 175.443 227.837 175.549 229.644C175.831 234.466 180.618 233.17 180.618 233.055C180.618 232.941 180.662 229.538 180.521 227.555Z" fill="#FCFCF5"/>
<path d="M191.489 226.329C191.503 226.603 191.41 226.871 191.229 227.077C191.047 227.283 190.793 227.41 190.519 227.431C190.388 227.446 190.254 227.436 190.127 227.401C189.999 227.365 189.88 227.304 189.776 227.222C189.672 227.141 189.585 227.039 189.521 226.923C189.456 226.808 189.415 226.681 189.4 226.549C189.387 226.277 189.48 226.011 189.659 225.805C189.838 225.6 190.089 225.472 190.36 225.447C190.627 225.415 190.895 225.489 191.107 225.655C191.318 225.82 191.456 226.062 191.489 226.329Z" fill="#4797C0"/>
<path d="M200.974 226.329C200.989 226.602 200.897 226.869 200.717 227.075C200.538 227.281 200.285 227.408 200.013 227.431C199.882 227.448 199.748 227.439 199.62 227.404C199.492 227.368 199.372 227.308 199.268 227.226C199.164 227.144 199.077 227.041 199.013 226.925C198.948 226.809 198.908 226.681 198.894 226.549C198.881 226.277 198.974 226.011 199.153 225.806C199.332 225.6 199.583 225.472 199.855 225.447C200.12 225.418 200.386 225.493 200.595 225.658C200.805 225.823 200.941 226.064 200.974 226.329Z" fill="#4797C0"/>
<path d="M195.208 236.634C194.871 236.988 194.449 237.249 193.982 237.392C193.292 237.61 192.555 237.641 191.849 237.48C191.328 237.355 190.873 237.041 190.571 236.598L190.077 236.704C190.192 236.892 190.328 237.067 190.483 237.224C190.834 237.563 191.274 237.795 191.752 237.894C192.535 238.055 193.348 237.991 194.097 237.709C194.6 237.52 195.036 237.185 195.349 236.748C195.474 236.597 195.546 236.407 195.551 236.211C195.551 236.211 195.437 236.369 195.208 236.634Z" fill="#146080"/>
<path d="M157.78 305.216C158.943 301.849 170.87 288.414 170.87 288.414C170.87 288.414 171.628 280.684 172.007 277.307C172.254 275.024 172.563 265.707 172.889 258.505C173.153 252.237 181.704 246.71 181.704 246.71H193.093L189.038 247.777L198.268 254.071C198.268 254.071 210.741 266.544 208.846 276.276C206.457 288.52 201.238 319.241 201.238 319.241L183.996 316.596C180.584 315.715 177.764 315.309 171.998 313.414L155.699 310.338C156.533 308.691 157.229 306.978 157.78 305.216Z" fill="#1A7FAA"/>
<path d="M176.396 251.708L186.834 247.221L217.175 244.153L247.429 236.484L251.563 246.507L225.532 258.513C221.874 261.422 219.564 261.157 217.828 261.678L186.093 266.852L176.396 251.708Z" fill="#1A7FAA"/>
<g opacity="0.3">
<path d="M200.779 264.365C195.243 270.43 190.483 269.082 182.452 267.424C189.98 265.229 200.779 264.365 200.779 264.365Z" fill="black"/>
</g>
<path d="M206.844 285.514C206.855 285.847 206.834 286.181 206.782 286.51C206.721 287.154 206.615 288.079 206.474 289.225C206.183 291.508 205.707 294.664 205.09 298.128C204.473 301.593 203.82 304.731 203.327 306.988C203.089 308.116 202.877 309.024 202.727 309.632C202.668 309.963 202.577 310.288 202.454 310.602C202.481 310.267 202.531 309.934 202.604 309.606C202.727 308.927 202.904 308.019 203.106 306.961C203.538 304.687 204.147 301.557 204.772 298.093C205.398 294.629 205.892 291.482 206.245 289.207C206.412 288.106 206.553 287.198 206.659 286.51C206.695 286.174 206.757 285.841 206.844 285.514Z" fill="#263238"/>
<path d="M179.809 263.467C179.623 263.33 179.462 263.163 179.333 262.973C178.935 262.493 178.592 261.969 178.31 261.413C177.342 259.572 176.937 257.487 177.147 255.418C177.381 253.354 178.211 251.403 179.536 249.803C179.932 249.323 180.375 248.883 180.858 248.49C181.027 248.333 181.221 248.205 181.431 248.111C181.475 248.172 180.682 248.745 179.747 249.971C178.513 251.555 177.747 253.453 177.535 255.45C177.323 257.447 177.674 259.464 178.548 261.272C179.209 262.691 179.862 263.423 179.809 263.467Z" fill="#263238"/>
<path d="M220.939 261.167C220.828 261.221 220.709 261.257 220.587 261.273L219.582 261.484C218.7 261.66 217.44 261.898 215.862 262.18C212.723 262.736 208.36 263.441 203.52 264.155C198.681 264.869 194.326 265.469 191.179 265.918L187.433 266.403L186.41 266.518C186.29 266.533 186.169 266.533 186.049 266.518C186.049 266.518 186.163 266.473 186.393 266.429L187.406 266.244L191.144 265.627L203.485 263.776L215.826 261.916L219.564 261.334L220.587 261.193C220.703 261.173 220.821 261.164 220.939 261.167Z" fill="#1C7097"/>
<path d="M196.152 204.133C194.159 203.472 192.167 202.308 190.034 202.837C185.803 203.868 181.351 204.186 177.534 206.689C176.057 207.821 174.677 209.074 173.409 210.435C171.69 212.357 171.117 215.143 171.646 218.96C171.207 216.753 171.344 214.47 172.042 212.331C172.271 211.661 172.792 211.061 172.554 210.277C168.719 209.483 165.334 211.388 163.589 215.328C161.78 219.223 161.409 223.632 162.54 227.775C163.414 230.553 163.541 233.512 162.908 236.355C162.275 239.198 160.904 241.823 158.934 243.968C158.743 244.2 158.572 244.448 158.423 244.709C157.594 246.199 157.012 247.776 158.185 249.293C159.357 250.809 160.829 250.492 162.337 249.989C163.791 252.043 164.214 252.202 166.744 251.461C167.033 251.367 167.338 251.331 167.641 251.357C167.944 251.383 168.239 251.469 168.507 251.611C168.961 251.853 169.458 252.003 169.969 252.052C170.481 252.101 170.997 252.049 171.489 251.898C171.98 251.747 172.437 251.501 172.833 251.174C173.229 250.846 173.556 250.443 173.796 249.989C174.236 249.261 174.535 248.456 174.678 247.618C175.659 243.112 175.644 238.445 174.634 233.945C173.682 230.014 172.457 226.144 172.122 223.526C172.21 225.122 173.717 228.436 175.418 229.52C176.132 229 175.974 228.083 176.379 227.422C176.785 226.761 177.402 226.021 178.372 226.091C179.341 226.162 179.676 226.973 179.888 227.854C180.099 228.736 180.073 229.423 180.284 230.181C180.558 231.178 181.122 231.345 181.801 230.543C182.681 229.38 183.26 228.017 183.484 226.576C183.969 224.337 183.555 222.116 183.484 219.885C183.346 218.549 183.662 217.205 184.382 216.071C185.101 214.937 186.183 214.079 187.451 213.635C187.829 213.438 188.243 213.318 188.668 213.283C190.785 213.19 192.871 212.74 194.838 211.952C197.597 210.938 201.009 213.159 202.146 216.456C202.499 217.426 202.666 218.448 202.939 219.436C203.01 220.165 203.345 220.842 203.883 221.34C205.046 221.393 205.09 220.458 205.152 219.735C205.593 213.962 204.641 208.761 199.061 205.552C198.451 205.066 197.796 204.641 197.104 204.283C196.793 204.197 196.474 204.147 196.152 204.133Z" fill="#917F50"/>
<path d="M179.21 232.129C178.613 230.985 178.16 229.771 177.861 228.515L178.293 228.718L179.218 229.159C179.404 229.247 179.527 228.956 179.342 228.868L178.214 228.339L177.676 228.083C177.615 228.036 177.543 228.006 177.466 227.999C177.39 227.991 177.313 228.005 177.244 228.039C177.134 228.138 177.054 228.267 177.015 228.409C176.944 228.595 176.891 228.788 176.838 228.974C176.741 229.354 176.688 229.745 176.68 230.137C176.68 230.331 176.988 230.375 176.997 230.137C176.997 229.82 177.032 229.503 177.103 229.194C177.131 229.032 177.173 228.873 177.226 228.718L177.306 228.498C177.306 228.445 177.367 228.304 177.411 228.286C177.475 228.29 177.535 228.312 177.588 228.348C177.566 228.366 177.551 228.389 177.543 228.416C177.535 228.443 177.535 228.471 177.544 228.498C177.847 229.789 178.309 231.039 178.919 232.218C179.042 232.429 179.324 232.306 179.21 232.129Z" fill="#146080"/>
</svg>
