<svg width="604" height="408" viewBox="0 0 604 408" fill="none" xmlns="http://www.w3.org/2000/svg">
<path d="M438.543 30.1869C569.945 63.0377 530.185 219.328 490.09 283.596H100.4C96.4299 266.012 71.4086 180.482 119.156 125.048C138.023 103.144 166.862 99.7893 228.397 110.149C289.932 120.509 307.14 -2.66386 438.543 30.1869Z" fill="#EAF6FB"/>
<path d="M59.0919 38.6594C38.8197 38.2396 38.0649 55.975 40.2216 64.8952C35.549 61.7469 24.9097 57.3393 19.7339 64.8952C14.558 72.4511 17.5773 85.5339 19.7339 91.1309C13.6235 90.2563 1.18698 91.9704 0.324339 105.823C-0.538306 119.675 8.9508 126.986 13.8032 128.91C9.48997 131.359 2.04969 138.88 6.79423 149.374C11.5388 159.868 21.7108 158.644 26.2037 156.72C23.6876 161.967 22.1061 173.931 35.9084 179.808C49.7107 185.684 62.1472 172.462 66.6401 165.116C69.1562 169.313 76.1292 175.19 83.893 165.116C91.6568 155.041 84.2524 141.678 79.5798 136.256C82.0958 138.005 88.8532 138.145 95.7543 124.713C102.656 111.28 90.7223 100.926 83.893 97.4274C88.5657 96.9027 98.2345 92.705 99.5284 80.1119C100.822 67.5187 86.7685 64.7203 79.5798 64.8952C81.1972 56.3248 79.364 39.0792 59.0919 38.6594Z" fill="#F1D386"/>
<path d="M31.6456 285.678C31.6456 285.678 23.3762 224.091 30.9766 185.564C38.4847 147.506 51.5912 103.618 67.7947 76.439C46.8366 134.654 44.8499 213.132 67.7941 285.678C64.9181 287.536 31.6456 285.678 31.6456 285.678Z" fill="#C1A96B"/>
<path d="M56.6773 103.912C53.8954 94.0578 48.8291 84.7884 43.7855 75.5945C50.0018 83.4464 54.4048 92.1991 56.7678 101.402C57.058 102.225 57.0263 103.105 56.6773 103.912Z" fill="#C1A96B"/>
<path d="M50.7521 123.145C58.2242 115.964 67.3739 110.402 76.4652 104.894C67.0478 108.669 58.7379 114.107 51.9637 120.926C51.2891 121.498 50.8647 122.276 50.7521 123.145Z" fill="#C1A96B"/>
<path d="M47.1449 126.799C44.363 116.944 39.2968 107.675 34.2532 98.4811C40.4694 106.333 44.8724 115.086 47.2354 124.288C47.5256 125.112 47.4939 125.991 47.1449 126.799Z" fill="#C1A96B"/>
<path d="M47.2488 147.604C54.7209 140.423 63.8706 134.861 72.9619 129.353C63.5445 133.128 55.2346 138.566 48.4604 145.385C47.7858 145.957 47.3614 146.734 47.2488 147.604Z" fill="#C1A96B"/>
<path d="M40.5556 156.469C37.7736 146.614 32.7074 137.345 27.6638 128.151C33.8801 136.003 38.2831 144.756 40.646 153.958C40.9363 154.782 40.9046 155.661 40.5556 156.469Z" fill="#C1A96B"/>
<path fill-rule="evenodd" clip-rule="evenodd" d="M111.864 163.975C111.864 160.366 114.09 157.29 117.212 156.104C117.2 155.931 117.193 155.757 117.193 155.581C117.193 151.276 120.602 147.786 124.807 147.786C126.155 147.786 127.419 148.147 128.518 148.775C129.695 143.462 134.337 139.495 139.884 139.495C146.322 139.495 151.54 144.836 151.54 151.426C151.54 151.495 151.539 151.564 151.538 151.632C156.128 152.674 159.561 156.864 159.561 161.876C159.561 163.027 159.38 164.133 159.045 165.168C158.527 166.767 157.017 167.81 155.372 167.81H115.76C113.681 167.81 111.875 166.144 111.864 164.016V163.975Z" fill="#C7E7F4"/>
<path fill-rule="evenodd" clip-rule="evenodd" d="M190.038 70.8899C190.037 70.819 190.035 70.7481 190.035 70.6764C190.035 63.883 195.694 58.3757 202.674 58.3757C208.69 58.3757 213.723 62.4657 215 67.9442C216.191 67.2959 217.562 66.9241 219.023 66.9241C223.584 66.9241 227.281 70.5215 227.281 74.9597C227.281 75.1408 227.272 75.3202 227.26 75.4995C230.646 76.7226 233.057 79.894 233.057 83.6139C233.057 88.3942 229.077 92.269 224.166 92.269H192.453C186.313 92.269 181.337 87.4249 181.337 81.4504C181.337 76.2834 185.06 71.9633 190.038 70.8899Z" fill="#99D2EB"/>
<path fill-rule="evenodd" clip-rule="evenodd" d="M284.13 63.8055C280.24 70.0983 269.72 71.0263 260.511 65.852C251.302 60.6776 246.863 51.3444 250.511 44.9151L250.509 44.9142L254.52 38.1452L257.489 39.8131C262.325 38.474 268.575 39.3281 274.316 42.5539C280.058 45.7798 283.945 50.6221 285.175 55.3695L288.143 57.0373L284.24 63.6244C284.235 63.6326 284.23 63.6408 284.225 63.649C284.22 63.6572 284.215 63.6654 284.21 63.6736L284.132 63.8063L284.13 63.8055Z" fill="#C1A96B"/>
<path opacity="0.5" fill-rule="evenodd" clip-rule="evenodd" d="M249.246 49.417L253.615 42.0432L254.889 42.7592L249.424 51.9826C249.271 51.1164 249.21 50.2577 249.246 49.417ZM250.925 56.3282L257.947 44.4773L259.221 45.1933L251.76 57.7852C251.455 57.3041 251.177 56.8178 250.925 56.3282ZM254.061 60.7815L262.279 46.9116L263.553 47.6275L255.117 61.8654C254.749 61.5111 254.397 61.1494 254.061 60.7815ZM257.843 64.1441L266.611 49.3458L267.885 50.0617L259.051 64.9714C258.637 64.704 258.234 64.4279 257.843 64.1441ZM262.112 66.6844L270.943 51.78L272.218 52.496L263.455 67.2844C263.006 67.0982 262.558 66.8982 262.112 66.6844ZM266.852 68.4304L275.276 54.2141L276.55 54.93L268.347 68.7728C267.851 68.6754 267.352 68.5613 266.852 68.4304ZM272.173 69.1959L279.608 56.6483L280.882 57.3642L273.892 69.1609C273.329 69.1971 272.755 69.2089 272.173 69.1959ZM278.533 68.2066L283.94 59.0824L285.214 59.7983L280.939 67.013C280.201 67.4871 279.395 67.8853 278.533 68.2066Z" fill="#F1D386"/>
<path d="M264.428 59.2402C273.713 64.4571 284.33 63.4708 288.142 57.0372C291.954 50.6037 287.518 41.1591 278.234 35.9422C268.949 30.7252 258.332 31.7115 254.52 38.1451C250.707 44.5787 255.144 54.0233 264.428 59.2402Z" fill="#F1D386"/>
<path d="M266.107 56.4068C273.606 60.6205 282.17 59.8428 285.236 54.6699C288.301 49.497 284.706 41.8876 277.207 37.6739C269.708 33.4603 261.144 34.2379 258.079 39.4109C255.014 44.5838 258.608 52.1931 266.107 56.4068Z" fill="#F7E5B6"/>
<g opacity="0.6">
<path d="M267.45 53.1047L263.595 45.8569L266.535 44.3779C267.098 44.0948 267.63 43.951 268.132 43.9467C268.635 43.9388 269.086 44.0605 269.484 44.3118C269.883 44.5596 270.21 44.9229 270.465 45.4018C270.721 45.8831 270.834 46.3509 270.805 46.8051C270.775 47.2569 270.606 47.6768 270.299 48.0646C269.994 48.4512 269.556 48.7885 268.983 49.0765L267.015 50.0668L266.36 48.8352L268.074 47.9731C268.374 47.8217 268.603 47.6559 268.759 47.4757C268.915 47.2954 268.999 47.1006 269.011 46.8914C269.025 46.6809 268.969 46.4565 268.842 46.2182C268.714 45.9776 268.557 45.7997 268.369 45.6846C268.185 45.5683 267.969 45.5183 267.722 45.5346C267.477 45.5474 267.203 45.63 266.9 45.7826L265.837 46.3171L269.025 52.3121L267.45 53.1047ZM269.72 47.7818L273.326 50.1484L271.587 51.0234L268.021 48.6367L269.72 47.7818Z" fill="#C1A96B"/>
<path d="M275.229 51.775L271.254 44.3007L272.782 43.5319L273.268 44.4449L273.337 44.4102C273.327 44.2297 273.346 44.0317 273.394 43.816C273.444 43.5967 273.546 43.3839 273.7 43.1775C273.856 42.9675 274.091 42.7838 274.404 42.6264C274.811 42.4214 275.242 42.336 275.697 42.3704C276.151 42.4023 276.591 42.5741 277.018 42.8856C277.444 43.1947 277.822 43.6607 278.154 44.2836C278.476 44.8899 278.648 45.4525 278.668 45.9714C278.69 46.4867 278.586 46.9384 278.356 47.3263C278.127 47.7108 277.8 48.0097 277.375 48.2233C277.075 48.3746 276.793 48.455 276.531 48.4644C276.271 48.4727 276.035 48.4372 275.824 48.358C275.611 48.2765 275.43 48.178 275.279 48.0623L275.232 48.0861L276.779 50.9952L275.229 51.775ZM274.217 46.2553C274.388 46.5785 274.584 46.8373 274.805 47.0315C275.025 47.2258 275.258 47.3463 275.504 47.3929C275.749 47.4371 275.996 47.3964 276.246 47.2707C276.499 47.1438 276.676 46.9692 276.779 46.7468C276.881 46.5221 276.913 46.2669 276.875 45.9811C276.838 45.6917 276.735 45.3889 276.567 45.0728C276.4 44.759 276.209 44.5055 275.992 44.3124C275.776 44.1193 275.544 43.9994 275.298 43.9528C275.052 43.9062 274.801 43.9469 274.547 44.0751C274.294 44.202 274.116 44.3742 274.01 44.5919C273.907 44.8083 273.872 45.0588 273.907 45.3435C273.941 45.6281 274.045 45.9321 274.217 46.2553Z" fill="#C1A96B"/>
</g>
<path d="M140.878 351.091L121.869 347.622C120.087 347.333 120.087 344.876 121.869 344.587L140.878 341.119C141.472 340.974 142.066 340.54 142.066 339.962L145.63 321.463C145.927 319.728 148.452 319.728 148.749 321.463L152.313 339.962C152.462 340.54 152.907 341.119 153.501 341.119L172.51 344.587C174.292 344.876 174.292 347.333 172.51 347.622L153.501 351.091C152.907 351.236 152.313 351.669 152.313 352.247L148.749 370.747C148.452 372.481 145.927 372.481 145.63 370.747L142.066 352.247C141.918 351.669 141.472 351.236 140.878 351.091Z" fill="#1F9ED3"/>
<path d="M132.018 87.5066L120.886 85.4753C119.843 85.3061 119.843 83.8673 120.886 83.698L132.018 81.6668C132.365 81.5821 132.713 81.3282 132.713 80.9897L134.8 70.1565C134.974 69.1409 136.453 69.1409 136.627 70.1565L138.714 80.9897C138.801 81.3282 139.062 81.6668 139.409 81.6668L150.541 83.698C151.584 83.8673 151.584 85.3061 150.541 85.4753L139.409 87.5066C139.062 87.5912 138.714 87.8451 138.714 88.1836L136.627 99.0169C136.453 100.032 134.974 100.032 134.8 99.0169L132.713 88.1836C132.626 87.8451 132.365 87.5912 132.018 87.5066Z" fill="#EAF6FB"/>
<path d="M388.791 89.8684H403.361V283.404H388.791V89.8684Z" fill="#917F50"/>
<path d="M448.231 89.8684H462.802V283.404H448.231V89.8684Z" fill="#917F50"/>
<path fill-rule="evenodd" clip-rule="evenodd" d="M453.045 161.376L395.089 97.7412L398.267 94.9996L462.484 165.509H396.678V161.376H453.045Z" fill="#917F50"/>
<path fill-rule="evenodd" clip-rule="evenodd" d="M453.045 228.448L395.089 164.813L398.267 162.072L462.484 232.581H396.678V228.448H453.045Z" fill="#917F50"/>
<path fill-rule="evenodd" clip-rule="evenodd" d="M457.947 281.736L395.337 232.117L398.019 228.912L460.629 278.531L457.947 281.736Z" fill="#917F50"/>
<path fill-rule="evenodd" clip-rule="evenodd" d="M448.268 101.518H403.359V97.063H448.268V101.518Z" fill="#917F50"/>
<path fill-rule="evenodd" clip-rule="evenodd" d="M200.002 297.021L457.876 297.021L457.876 294.012L200.002 294.012L200.002 297.021Z" fill="#99D2EB"/>
<path fill-rule="evenodd" clip-rule="evenodd" d="M395.155 377.985L558.468 377.985L558.468 374.976L395.155 374.976L395.155 377.985Z" fill="#99D2EB"/>
<path fill-rule="evenodd" clip-rule="evenodd" d="M160.273 395.824L305.896 395.824L305.896 392.815L160.273 392.815L160.273 395.824Z" fill="#99D2EB"/>
<path fill-rule="evenodd" clip-rule="evenodd" d="M462.801 386.961L578.334 386.961L578.334 385.58L462.801 385.58L462.801 386.961Z" fill="#99D2EB"/>
<path fill-rule="evenodd" clip-rule="evenodd" d="M141.867 407.508L257.399 407.508L257.399 406.263L141.867 406.263L141.867 407.508Z" fill="#99D2EB"/>
<path fill-rule="evenodd" clip-rule="evenodd" d="M47.1167 307.2L378.09 307.2L378.09 305.287L47.1167 305.287L47.1167 307.2Z" fill="#99D2EB"/>
<path fill-rule="evenodd" clip-rule="evenodd" d="M248.333 323.019L486.712 323.019L486.712 321.642L248.333 321.642L248.333 323.019Z" fill="#99D2EB"/>
<path d="M412.916 176.53H152.218V261.807H412.916V176.53Z" fill="#EEFBFF"/>
<path d="M254.156 261.805H151.443V176.635L203.187 84.5869L254.156 176.531V261.805Z" fill="#DFF0F4"/>
<path d="M291.018 191.789H266.354V239.591H291.018V191.789Z" fill="#F1D386"/>
<path d="M289.691 237.449V193.931H268.875V237.449H289.691Z" fill="#1F9ED3"/>
<path d="M314.317 191.789H289.654V239.591H314.317V191.789Z" fill="#F1D386"/>
<path d="M311.8 237.449V193.931H290.984V237.449H311.8Z" fill="#1F9ED3"/>
<path d="M203.48 191.789H178.817V239.591H203.48V191.789Z" fill="#F1D386"/>
<path d="M202.153 237.449V193.931H181.337V237.449H202.153Z" fill="#1F9ED3"/>
<path d="M226.782 191.789H202.119V239.591H226.782V191.789Z" fill="#F1D386"/>
<path d="M224.264 237.449V193.931H203.448V237.449H224.264Z" fill="#1F9ED3"/>
<path d="M203.257 166.36H186.693V150.378C186.693 146.103 188.438 142.002 191.545 138.979C194.651 135.956 198.864 134.258 203.257 134.258V166.36Z" fill="#F1D386"/>
<path d="M188.388 164.92V149.301C188.388 145.693 189.86 142.233 192.482 139.682C195.103 137.13 198.659 135.697 202.366 135.697V164.92H188.388Z" fill="#1F9ED3"/>
<path d="M218.905 166.36H202.342V134.258C206.735 134.258 210.948 135.956 214.054 138.979C217.16 142.002 218.905 146.103 218.905 150.378V166.36Z" fill="#F1D386"/>
<path d="M203.235 164.92V135.697C205.071 135.696 206.89 136.048 208.586 136.731C210.283 137.414 211.824 138.416 213.123 139.68C214.421 140.943 215.452 142.443 216.154 144.094C216.857 145.745 217.219 147.514 217.219 149.301V164.92H203.235Z" fill="#1F9ED3"/>
<path d="M378.415 191.789H353.751V239.591H378.415V191.789Z" fill="#F1D386"/>
<path d="M377.088 237.449V193.931H356.272V237.449H377.088Z" fill="#1F9ED3"/>
<path d="M401.716 191.789H377.053V239.591H401.716V191.789Z" fill="#F1D386"/>
<path d="M399.199 237.449V193.931H378.383V237.449H399.199Z" fill="#1F9ED3"/>
<path d="M417.049 261.701H147.19V267.826H417.049V261.701Z" fill="#1F9ED3"/>
<path d="M412.916 267.823H151.323V282.789H412.916V267.823Z" fill="#41AED8"/>
<path d="M203.187 77.7456L144.949 176.634H151.443L203.187 88.7721L253.458 176.634H261.422C261.422 176.634 204.136 79.3716 203.187 77.7456Z" fill="#0C3F54"/>
<path d="M423.436 176.634H261.428L203.187 77.7456H365.196L423.436 176.634Z" fill="#1F9ED3"/>
<path d="M366.837 107.267H246.106L241.398 99.2903H362.129L366.837 107.267Z" fill="#0C3F54"/>
<path fill-rule="evenodd" clip-rule="evenodd" d="M344.484 6.08348L313.009 35.7778L320.12 42.9175L320.219 42.8237C324.195 45.0944 333.263 41.2199 341.353 33.5874C349.443 25.955 353.705 17.2549 351.496 13.317L351.596 13.2232L350.901 12.526C350.899 12.524 350.897 12.522 350.896 12.52C350.894 12.5181 350.892 12.5161 350.89 12.5141L344.484 6.08348Z" fill="#C1A96B"/>
<path opacity="0.5" fill-rule="evenodd" clip-rule="evenodd" d="M352.029 16.69L344.544 9.17513L343.432 10.2244L351.68 18.5053C351.852 17.8705 351.969 17.2635 352.029 16.69ZM350.208 22.2253L340.763 12.7426L339.651 13.7918L349.448 23.628C349.721 23.1542 349.975 22.6861 350.208 22.2253ZM347.399 26.7692L336.981 16.3101L335.869 17.3594L346.47 28.0023C346.792 27.5901 347.102 27.1788 347.399 26.7692ZM344.09 30.811L333.2 19.8776L332.087 20.9269L343.041 31.9241C343.4 31.5544 343.749 31.1831 344.09 30.811ZM340.397 34.4682L329.418 23.4452L328.306 24.4944L339.244 35.4759C339.629 35.1487 340.014 34.8127 340.397 34.4682ZM336.342 37.7613L325.636 27.0127L324.524 28.0619L335.074 38.6539C335.496 38.3678 335.919 38.0702 336.342 37.7613ZM331.863 40.6278L321.855 30.5802L320.743 31.6295L330.441 41.3664C330.909 41.1376 331.383 40.8913 331.863 40.6278ZM326.738 42.8474L318.073 34.1478L316.961 35.197L325.005 43.2733C325.56 43.1706 326.139 43.0281 326.738 42.8474Z" fill="#F1D386"/>
<path d="M344.969 6.57029C348.391 10.0056 344.119 19.4378 335.427 27.6377C326.735 35.8375 316.915 39.7 313.493 36.2646C310.072 32.8293 314.344 23.3971 323.036 15.1973C331.728 6.99739 341.548 3.13496 344.969 6.57029Z" fill="#F1D386"/>
<path d="M341.201 9.28522C343.671 11.7646 340.121 19.0126 333.272 25.4739C326.423 31.9353 318.868 35.1633 316.399 32.6839C313.929 30.2045 317.48 22.9566 324.329 16.4952C331.178 10.0338 338.732 6.80581 341.201 9.28522Z" fill="#F7E5B6"/>
<g opacity="0.6">
<path d="M325.757 27.0609L321.55 23.4568L323.738 21.0402C324.157 20.5776 324.571 20.2315 324.981 20.0019C325.391 19.7691 325.777 19.6556 326.139 19.6612C326.502 19.6638 326.822 19.7841 327.1 20.0223C327.379 20.2616 327.54 20.5552 327.583 20.9031C327.624 21.2499 327.547 21.6355 327.352 22.06C327.159 22.4825 326.85 22.929 326.424 23.3996L324.959 25.0176L324.244 24.4052L325.519 22.9965C325.743 22.7493 325.906 22.524 326.007 22.3206C326.109 22.1172 326.149 21.9357 326.128 21.7762C326.109 21.6147 326.03 21.4747 325.892 21.3562C325.752 21.2365 325.598 21.1765 325.428 21.1761C325.26 21.1737 325.076 21.2342 324.877 21.3574C324.678 21.4775 324.466 21.6622 324.24 21.9114L323.45 22.7847L326.93 25.7659L325.757 27.0609ZM326.837 22.1129L330.13 22.2307L328.836 23.6603L325.573 23.5096L326.837 22.1129Z" fill="#C1A96B"/>
<path d="M331.923 22.5714L327.584 18.8547L328.722 17.5986L329.252 18.0526L329.303 17.9958C329.269 17.8672 329.256 17.7125 329.264 17.5318C329.272 17.3478 329.324 17.1449 329.421 16.923C329.518 16.6979 329.682 16.4568 329.915 16.1995C330.219 15.8646 330.559 15.6071 330.936 15.4273C331.311 15.2462 331.696 15.1742 332.091 15.2112C332.484 15.247 332.861 15.4198 333.222 15.7295C333.574 16.031 333.797 16.3684 333.889 16.7415C333.982 17.1115 333.963 17.4914 333.831 17.8813C333.7 18.2681 333.476 18.6359 333.16 18.9848C332.936 19.232 332.718 19.4184 332.505 19.5437C332.293 19.6671 332.096 19.7472 331.911 19.7842C331.726 19.8199 331.563 19.8292 331.423 19.8119L331.388 19.8508L333.076 21.2973L331.923 22.5714ZM330.291 18.9591C330.479 19.1198 330.677 19.2221 330.885 19.266C331.093 19.3099 331.301 19.2935 331.509 19.2168C331.716 19.139 331.912 18.9974 332.098 18.792C332.286 18.5846 332.406 18.3757 332.458 18.1653C332.508 17.9537 332.497 17.7512 332.424 17.5577C332.352 17.3611 332.224 17.1842 332.04 17.027C331.858 16.871 331.665 16.7706 331.46 16.7259C331.254 16.6811 331.048 16.6971 330.84 16.7738C330.632 16.8505 330.433 16.9935 330.243 17.2029C330.056 17.4102 329.935 17.618 329.88 17.8261C329.827 18.0321 329.835 18.2323 329.905 18.4266C329.975 18.6208 330.104 18.7983 330.291 18.9591Z" fill="#C1A96B"/>
</g>
<path fill-rule="evenodd" clip-rule="evenodd" d="M320.659 107.268C321.417 105.46 321.835 103.482 321.835 101.408C321.835 92.8411 314.699 85.896 305.896 85.896C297.093 85.896 289.957 92.8411 289.957 101.408C289.957 103.482 290.375 105.46 291.133 107.268H320.659Z" fill="#C1A96B"/>
<path fill-rule="evenodd" clip-rule="evenodd" d="M322.292 107.268C323.05 105.46 323.468 103.482 323.468 101.408C323.468 92.8411 316.332 85.896 307.529 85.896C298.726 85.896 291.589 92.8411 291.589 101.408C291.589 103.482 292.007 105.46 292.766 107.268H322.292Z" fill="#F1D386"/>
<path fill-rule="evenodd" clip-rule="evenodd" d="M318.032 107.268C319.051 105.542 319.633 103.541 319.633 101.409C319.633 94.902 314.213 89.6274 307.528 89.6274C300.842 89.6274 295.423 94.902 295.423 101.409C295.423 103.541 296.005 105.542 297.023 107.268H318.032Z" fill="#F7E5B6"/>
<g opacity="0.6">
<path d="M301.805 103.804L301.866 96.9971L304.626 97.0218C305.155 97.0265 305.605 97.1225 305.977 97.3097C306.351 97.4948 306.634 97.7555 306.827 98.0918C307.022 98.4259 307.118 98.8179 307.114 99.2677C307.11 99.7197 307.006 100.108 306.803 100.432C306.6 100.753 306.307 100.999 305.925 101.168C305.546 101.338 305.087 101.42 304.549 101.415L302.701 101.399L302.712 100.242L304.321 100.256C304.603 100.259 304.838 100.223 305.025 100.15C305.213 100.076 305.353 99.9643 305.445 99.8145C305.54 99.6646 305.588 99.4778 305.59 99.254C305.592 99.028 305.547 98.8371 305.455 98.6811C305.366 98.5252 305.227 98.4065 305.038 98.3251C304.852 98.2414 304.617 98.1983 304.332 98.1958L303.335 98.1868L303.284 103.817L301.805 103.804ZM305.611 100.74L307.322 103.853L305.689 103.839L304.016 100.726L305.611 100.74Z" fill="#C1A96B"/>
<path d="M308.074 105.774L308.137 98.755L309.571 98.7678L309.564 99.6253L309.629 99.6259C309.694 99.4891 309.787 99.3503 309.909 99.2096C310.033 99.0666 310.194 98.9484 310.391 98.8549C310.59 98.7592 310.836 98.7126 311.13 98.7153C311.512 98.7187 311.865 98.8193 312.186 99.0172C312.508 99.2129 312.764 99.5065 312.954 99.8982C313.144 100.288 313.237 100.775 313.231 101.36C313.226 101.929 313.127 102.409 312.935 102.8C312.745 103.188 312.487 103.482 312.162 103.68C311.839 103.877 311.478 103.973 311.08 103.97C310.797 103.967 310.557 103.92 310.36 103.827C310.165 103.735 310.005 103.619 309.881 103.48C309.757 103.34 309.663 103.198 309.598 103.056L309.554 103.055L309.529 105.787L308.074 105.774ZM309.538 101.32C309.536 101.624 309.577 101.889 309.661 102.116C309.746 102.342 309.869 102.52 310.032 102.648C310.195 102.773 310.394 102.837 310.628 102.839C310.865 102.841 311.066 102.78 311.231 102.655C311.396 102.528 311.522 102.352 311.608 102.126C311.697 101.899 311.743 101.637 311.745 101.34C311.748 101.045 311.708 100.786 311.626 100.561C311.544 100.337 311.421 100.16 311.258 100.033C311.095 99.9049 310.894 99.8399 310.655 99.8378C310.418 99.8357 310.217 99.8948 310.052 100.015C309.89 100.136 309.764 100.307 309.675 100.53C309.587 100.753 309.541 101.017 309.538 101.32Z" fill="#C1A96B"/>
</g>
<path d="M557.884 285.618H396.305C396.305 285.618 403.928 282.228 408.775 282.878C413.622 283.529 418.161 284.83 422.827 284.129C427.494 283.429 431.608 282.177 435.684 282.878C439.759 283.579 441.996 285.306 448.309 282.878C454.621 280.451 465.691 275.371 468.519 275.771C471.348 276.172 481.067 272.593 483.947 270.066C486.827 267.538 490.002 261.583 501.252 256.728C512.501 251.873 520.536 257.666 524.188 262.133C527.839 266.6 534.344 270.741 538.844 270.829C543.344 270.917 548.409 273.657 549.039 275.971C549.669 278.286 556.856 280.388 557.884 285.618Z" fill="#7D8488"/>
<path d="M500.126 285.618C500.126 285.618 495.639 279.712 490.676 281.151C485.714 282.59 486.395 285.893 482.423 284.016C478.45 282.14 477.177 282.165 475.287 283.891C473.397 285.618 471.058 283.266 468.666 285.618H500.126Z" fill="#979DA0"/>
<path d="M562.685 285.618C562.685 285.618 558.198 279.712 553.236 281.151C548.273 282.59 548.954 285.893 544.982 284.016C541.009 282.14 539.736 282.165 537.846 283.891C535.957 285.618 533.617 283.266 531.225 285.618H562.685Z" fill="#979DA0"/>
<path d="M574.506 286.842H582.754V220.495H574.506V286.842Z" fill="#263238"/>
<path opacity="0.2" d="M577.549 286.842H582.754V220.495H577.549V286.842Z" fill="white"/>
<path d="M494.421 286.842H502.67V220.495H494.421V286.842Z" fill="#263238"/>
<path d="M486.712 239.941H591.023V226.321H486.712V239.941Z" fill="#C1A96B"/>
<path opacity="0.2" d="M486.714 239.941H489.496V226.321H486.714V239.941Z" fill="black"/>
<path opacity="0.7" d="M581.475 239.941H589.483L582.996 226.341H574.988L581.475 239.941Z" fill="white"/>
<path opacity="0.7" d="M564.676 239.941H572.684L566.177 226.341H558.189L564.676 239.941Z" fill="white"/>
<path opacity="0.7" d="M547.857 239.941H555.866L549.379 226.341H541.371L547.857 239.941Z" fill="white"/>
<path opacity="0.7" d="M531.06 239.941H539.069L532.582 226.341H524.573L531.06 239.941Z" fill="white"/>
<path opacity="0.7" d="M514.263 239.941H522.272L515.785 226.341H507.776L514.263 239.941Z" fill="white"/>
<path opacity="0.7" d="M497.464 239.941H505.473L498.966 226.341H490.977L497.464 239.941Z" fill="white"/>
<path opacity="0.2" d="M497.486 286.842H502.691V220.495H497.486V286.842Z" fill="white"/>
<path d="M486.712 259.426H591.023V245.806H486.712V259.426Z" fill="#C1A96B"/>
<path opacity="0.2" d="M486.714 259.426H489.496V245.806H486.714V259.426Z" fill="black"/>
<path opacity="0.7" d="M581.475 259.427H589.483L582.996 245.826H574.988L581.475 259.427Z" fill="white"/>
<path opacity="0.7" d="M564.676 259.427H572.684L566.177 245.826H558.189L564.676 259.427Z" fill="white"/>
<path opacity="0.7" d="M547.857 259.427H555.866L549.379 245.826H541.371L547.857 259.427Z" fill="white"/>
<path opacity="0.7" d="M531.06 259.427H539.069L532.582 245.826H524.573L531.06 259.427Z" fill="white"/>
<path opacity="0.7" d="M514.263 259.427H522.272L515.785 245.826H507.776L514.263 259.427Z" fill="white"/>
<path opacity="0.7" d="M497.464 259.427H505.473L498.966 245.826H490.977L497.464 259.427Z" fill="white"/>
<path fill-rule="evenodd" clip-rule="evenodd" d="M556.304 163.975C556.304 160.366 558.529 157.29 561.651 156.104C561.639 155.931 561.632 155.757 561.632 155.581C561.632 151.276 565.041 147.786 569.246 147.786C570.594 147.786 571.858 148.147 572.957 148.775C574.135 143.462 578.776 139.495 584.324 139.495C590.761 139.495 595.979 144.836 595.979 151.426C595.979 151.495 595.978 151.564 595.977 151.632C600.567 152.674 604 156.864 604 161.876C604 163.027 603.819 164.133 603.484 165.168C602.966 166.767 601.457 167.81 599.811 167.81H560.199C558.12 167.81 556.314 166.144 556.304 164.016V163.975Z" fill="#C7E7F4"/>
<path d="M499.624 125.121L481.403 121.796C479.694 121.519 479.694 119.163 481.403 118.886L499.624 115.561C500.193 115.423 500.762 115.007 500.762 114.453L504.179 96.72C504.464 95.0575 506.884 95.0575 507.168 96.72L510.585 114.453C510.727 115.007 511.154 115.561 511.724 115.561L529.945 118.886C531.653 119.163 531.653 121.519 529.945 121.796L511.724 125.121C511.154 125.259 510.585 125.675 510.585 126.229L507.168 143.962C506.884 145.625 504.464 145.625 504.179 143.962L500.762 126.229C500.62 125.675 500.193 125.259 499.624 125.121Z" fill="#99D2EB"/>
<path d="M212.884 377.502C211.605 375.669 193.804 390.029 194.571 392.479C194.825 393.299 196.251 393.551 198.027 393.527C201.55 393.458 206.463 392.297 206.463 392.297L215.675 385.465C215.675 385.465 215.442 384.531 215.087 383.287C214.528 381.34 213.66 378.628 212.884 377.502Z" fill="#FAC941"/>
<path d="M215.087 383.291C207.935 383.691 200.144 391.323 198.028 393.531C201.55 393.462 206.463 392.301 206.463 392.301L215.676 385.47C215.676 385.47 215.442 384.536 215.087 383.291Z" fill="#FBFAF1"/>
<path d="M205.108 392.267L216.361 392.815L218.98 386.413L212.351 385.44L205.108 392.267Z" fill="#FBFAF1"/>
<path d="M261.331 393.561C259.826 394.244 258.19 394.614 256.53 394.648C250.058 402.803 214.478 393.497 214.478 393.497C212.757 389.827 214.366 384.882 214.772 383.746L214.864 383.504L216.716 383.711H216.813C216.813 383.711 205.788 379.952 207.377 366.422C208.392 357.975 217.934 350.091 217.934 350.091L238.024 361.512C238.024 361.512 257.596 371.821 262.159 375.017C272.29 382.14 262.94 392.815 261.331 393.561Z" fill="#1F9ED3"/>
<path d="M252.602 342.455L254.389 347.933L276.981 351.168L276.306 359.882L242.365 358.469L239.812 346.273L252.602 342.455Z" fill="#F7E5B6"/>
<path d="M245.435 321.806C248.587 323.288 250.465 326.504 251.577 329.71C253.252 334.551 253.637 339.708 254.008 344.806C250.453 346.397 246.677 347.472 242.801 347.997C241.42 343.585 240.263 339.031 240.415 334.422C240.568 329.813 242.07 325.14 245.435 321.806Z" fill="#115673"/>
<path d="M283.407 347.632C285.159 347.317 286.946 347.235 288.721 347.39C289.437 347.454 290.244 347.612 290.619 348.205C291.127 349.044 290.416 350.151 289.523 350.61C288.63 351.07 287.564 351.168 286.696 351.672C287.591 351.469 288.527 351.499 289.406 351.761C290.254 352.097 290.929 353.07 290.548 353.885C290.239 354.587 289.386 354.873 288.63 355.051L285.417 355.881C286.275 355.761 287.151 355.865 287.954 356.182C288.726 356.573 289.254 357.551 288.833 358.292C288.498 358.874 287.731 359.077 287.041 359.097C286.361 359.045 285.677 359.091 285.011 359.235C285.352 359.38 285.659 359.592 285.913 359.857C286.167 360.122 286.362 360.435 286.488 360.776C286.602 361.121 286.59 361.494 286.454 361.832C286.318 362.17 286.066 362.451 285.741 362.629C285.27 362.792 284.756 362.792 284.285 362.629C282.29 362.11 280.478 360.653 278.422 360.875C279.224 358.578 279.534 356.148 280.168 353.796C280.803 351.445 281.818 349.109 283.407 347.632Z" fill="#0C3F54"/>
<path d="M238.755 361.789C243.247 354.873 247.628 349.227 249.785 341.368C252.977 329.75 246.932 320.058 241.263 318.304C234.806 316.304 226.036 322.162 223.767 326.208C220.239 332.551 218.057 339.027 215.671 351.988C220.188 356.795 229.188 360.836 238.755 361.789Z" fill="#135F7F"/>
<path d="M279.183 336.186C280.753 333.15 283.468 330.823 286.761 329.69C287.219 329.509 287.715 329.438 288.208 329.483C288.462 329.516 288.702 329.617 288.901 329.774C289.1 329.932 289.25 330.141 289.334 330.377C289.408 330.673 289.392 330.983 289.289 331.271C288.949 332.313 287.989 332.965 287.055 333.474C285.012 334.59 282.793 335.367 280.488 335.776C280.027 335.82 279.583 335.96 279.183 336.186Z" fill="#46A6A4"/>
<path d="M279.021 336.058C281.491 333.915 284.357 332.248 287.467 331.147C284.472 332.585 281.406 334.072 279.148 336.463C279.183 336.221 279.183 335.979 279.021 336.058Z" fill="#2C7482"/>
<path d="M278.351 340.948C279.22 339.356 280.458 337.982 281.967 336.936C283.476 335.89 285.215 335.2 287.045 334.921C287.31 334.851 287.588 334.847 287.854 334.91C288.121 334.973 288.366 335.101 288.568 335.282C288.695 335.456 288.775 335.658 288.799 335.869C288.824 336.081 288.794 336.295 288.71 336.492C288.544 336.877 288.285 337.216 287.954 337.48C285.614 339.53 282.264 339.772 278.351 340.948Z" fill="#46A6A4"/>
<path d="M278.193 341.007C280.563 338.616 283.611 336.969 286.949 336.275C283.583 337.213 280.547 339.031 278.168 341.531C278.126 341.357 278.135 341.176 278.193 341.007Z" fill="#2C7482"/>
<path d="M278.432 342.786C278.1 341.461 277.406 340.247 276.423 339.275C275.44 338.303 274.205 337.608 272.849 337.263C272.262 337.105 271.643 337.105 271.057 337.263C270.76 337.344 270.497 337.518 270.311 337.757C270.162 337.977 270.076 338.231 270.062 338.493C270.045 339.008 270.157 339.519 270.39 339.981C270.623 340.444 270.968 340.844 271.397 341.146C272.234 341.711 273.189 342.089 274.194 342.252C275.59 342.535 277.007 342.714 278.432 342.786Z" fill="#46A6A4"/>
<path d="M278.421 342.81C277.623 341.788 276.68 340.882 275.62 340.118C274.549 339.354 273.257 338.939 271.93 338.933C273.141 339.161 274.287 339.641 275.29 340.34C276.548 341.074 277.608 342.09 278.381 343.304C278.437 343.122 278.508 342.924 278.421 342.81Z" fill="#2C7482"/>
<path d="M278.493 339.407C278.579 336.744 277.351 334.151 275.666 332.086C275.302 331.581 274.822 331.165 274.265 330.871C273.997 330.734 273.693 330.68 273.393 330.715C273.093 330.751 272.812 330.874 272.585 331.068C272.022 331.651 272.189 332.649 272.524 333.425C273.483 335.697 275.432 337.337 278.493 339.407Z" fill="#46A6A4"/>
<path d="M278.478 339.605C277.512 337.242 276.12 335.067 274.366 333.183C275.253 333.883 276.019 334.717 276.635 335.653C277.148 336.3 277.589 336.999 277.95 337.737C278.121 338.231 278.347 338.705 278.625 339.15C278.537 339.287 278.486 339.443 278.478 339.605Z" fill="#2C7482"/>
<path d="M279.335 335.628C279.719 333.352 279.518 331.018 278.751 328.836C278.479 327.97 278.034 327.164 277.442 326.465C276.96 325.936 276.213 325.511 275.584 325.798C274.955 326.084 274.757 327.053 274.873 327.828C275.112 328.999 275.573 330.117 276.234 331.123C277.169 332.686 278.205 334.191 279.335 335.628Z" fill="#46A6A4"/>
<path d="M279.396 335.731C278.772 333.153 277.635 330.727 276.503 328.322C277.898 330.376 278.886 332.666 279.417 335.074C279.482 335.29 279.475 335.52 279.396 335.731Z" fill="#2C7482"/>
<path d="M278.092 344.984C279.554 341.975 282.66 340.311 285.736 339.98C286.245 339.892 286.769 339.932 287.258 340.093C287.52 340.189 287.751 340.35 287.929 340.56C288.107 340.77 288.226 341.021 288.274 341.289C288.406 342.227 287.558 342.909 286.786 343.264C283.883 344.598 280.64 344.643 278.092 344.984Z" fill="#46A6A4"/>
<path d="M278.006 345.043C279.246 344.125 280.556 343.3 281.924 342.573C283.296 341.851 284.817 341.438 286.376 341.363C283.432 342.075 280.705 343.456 278.417 345.394C278.249 345.226 278.168 345.023 278.006 345.043Z" fill="#2C7482"/>
<path d="M280.198 332.55C279.909 330.752 280.228 328.911 281.107 327.304C281.964 325.761 283.351 324.56 285.025 323.911C285.297 323.777 285.611 323.749 285.903 323.832C286.066 323.923 286.199 324.056 286.289 324.216C286.379 324.377 286.421 324.558 286.411 324.741C286.394 325.111 286.29 325.473 286.106 325.798C284.822 328.505 282.462 330.461 280.198 332.55Z" fill="#46A6A4"/>
<path d="M277.66 347.775C277.737 344.03 277.919 340.271 278.731 336.645C279.543 333.02 281.031 329.512 283.447 326.805C279.812 332.891 277.813 338.809 278.782 347.419C278.419 347.567 278.044 347.686 277.66 347.775Z" fill="#2C7482"/>
<path d="M288.37 348.807C287.437 351.108 287.025 353.578 287.162 356.049C287.238 357.358 287.421 358.815 286.599 359.847C285.853 360.786 284.518 361.043 283.305 361.161C280.401 361.441 277.471 361.311 274.605 360.776C273.326 360.534 271.935 360.129 271.25 359.047C270.909 358.425 270.723 357.732 270.707 357.027C270.6 355.693 270.626 354.359 270.656 353.021L270.747 348.679C270.738 348.569 270.767 348.46 270.829 348.367C270.919 348.29 271.034 348.247 271.154 348.244C276.239 347.572 281.472 346.905 288.37 348.807Z" fill="#917F50"/>
<path d="M289.375 349.173C289.354 349.363 289.283 349.545 289.17 349.702C289.056 349.858 288.903 349.984 288.725 350.067C288.453 350.223 288.156 350.336 287.847 350.403C286.587 350.648 285.305 350.767 284.02 350.758L277.93 350.926L273.869 351.03C273.135 351.104 272.393 351.013 271.702 350.763C271.037 350.462 269.783 348.293 269.824 347.671C269.864 347.049 270.133 346.495 270.179 345.893C270.23 345.167 269.971 344.337 270.443 343.774C270.493 343.706 270.555 343.648 270.626 343.601C271.088 343.321 271.633 343.201 272.174 343.26C273.879 343.319 275.549 343.719 277.249 343.882C280.051 344.154 282.873 343.774 285.67 343.448C286.341 343.331 287.029 343.331 287.7 343.448C288.035 343.509 288.348 343.655 288.607 343.87C288.867 344.084 289.065 344.361 289.182 344.673C289.477 345.69 288.548 346.752 288.842 347.765C288.989 348.264 289.395 348.674 289.375 349.173Z" fill="#C1A96B"/>
<path d="M263.834 360.341L261.931 360.618C260.626 360.796 258.748 361.053 256.596 361.304C249.759 362.124 240.197 362.984 237.633 361.798C235.603 360.855 232.243 355.945 229.776 352.013C228.01 349.202 226.731 346.895 226.731 346.895L238.578 339.841L240.902 345.675L243.222 351.504L258.987 352.561L260.784 352.685L263.616 352.877L263.834 360.341Z" fill="#FBFAF1"/>
<path d="M264.799 362.382C265.088 363.019 264.21 363.617 263.499 363.552C262.789 363.488 262.124 363.088 261.413 363.128C260.875 363.157 260.368 363.439 259.825 363.419C258.688 363.379 258.068 362.12 257.794 361.043C257.115 358.069 257.316 354.969 258.373 352.102C258.718 351.178 259.352 350.126 260.363 350.126C260.776 350.187 261.193 350.227 261.611 350.245C262.022 350.13 262.416 349.964 262.784 349.751C263.626 349.405 264.697 349.706 265.352 350.921C265.884 349.84 266.579 348.841 267.413 347.958C268.256 347.068 269.337 346.425 270.534 346.1C270.774 346.015 271.031 345.986 271.284 346.016C271.537 346.046 271.78 346.134 271.991 346.273C272.171 346.466 272.289 346.706 272.329 346.964C272.369 347.221 272.329 347.485 272.214 347.72C271.98 348.187 271.712 348.636 271.412 349.064C271.236 349.328 271.142 349.636 271.142 349.951C271.142 350.266 271.236 350.574 271.412 350.837C274.414 350.862 277.409 350.557 280.34 349.929C280.836 349.794 281.349 349.731 281.863 349.741C282.118 349.747 282.369 349.811 282.595 349.926C282.821 350.042 283.017 350.207 283.167 350.408C283.634 351.119 283.198 352.077 282.609 352.695C280.995 354.394 278.473 354.883 276.092 355.713L282.69 355.57C283.105 355.525 283.525 355.591 283.903 355.762C284.176 355.96 284.376 356.237 284.476 356.554C284.575 356.87 284.568 357.209 284.457 357.521C284.317 357.934 284.094 358.316 283.8 358.643C283.506 358.971 283.148 359.237 282.746 359.428C281.946 359.8 281.089 360.042 280.208 360.144C278.716 360.371 277.209 360.495 276.001 360.663C277.452 360.663 278.965 360.663 280.274 361.285C280.538 361.382 280.776 361.534 280.972 361.73C281.169 361.927 281.318 362.163 281.411 362.421C281.458 362.693 281.429 362.972 281.326 363.228C281.223 363.485 281.051 363.709 280.828 363.878C280.372 364.207 279.855 364.447 279.305 364.585C279.242 364.916 279.092 365.226 278.871 365.486C278.65 365.745 278.364 365.945 278.041 366.067C277.392 366.301 276.702 366.403 276.011 366.368C271.909 366.358 267.941 364.947 264.799 362.382Z" fill="#0C3F54"/>
<path d="M278.939 364.545C276.909 364.333 275.016 364.205 272.909 363.508C274.422 364.975 277.381 365.084 278.939 364.545Z" fill="#1C3040"/>
<path d="M226.219 351.114C224.899 346.955 220.94 334.403 222.508 329.167C223.432 326.079 226.097 323.308 229.386 323.056C232.086 322.849 234.7 324.365 236.355 326.45C238.009 328.534 238.837 331.133 239.4 333.711C239.963 336.29 240.72 341.304 241.359 344.006C236.548 347.943 231.218 349.666 226.219 351.114Z" fill="#135F7F"/>
<path d="M237.284 331.532L240.513 344.417" stroke="#C7E7F4" stroke-linecap="round"/>
<path d="M294.409 389.56C291.07 388.933 287.354 387.974 283.867 388.345C282.751 388.463 281.837 389.012 280.822 389.372C279.771 389.804 278.615 389.93 277.492 389.738C276.844 389.594 276.171 389.592 275.522 389.731C274.872 389.87 274.262 390.148 273.736 390.543C273.39 390.79 273.147 391.151 273.054 391.559C272.96 391.967 273.023 392.394 273.229 392.761C273.802 393.779 275.066 394.243 276.244 394.411C277.827 394.623 279.451 394.574 281.045 394.692C282.639 394.811 284.136 395.033 285.689 395.107C287.597 395.148 289.506 395.072 291.405 394.88C292.96 394.77 294.522 394.788 296.074 394.935C296.907 395.009 297.749 394.934 298.582 395.018C299.218 395.062 299.858 395.039 300.49 394.949C301.896 394.767 303.414 394.49 304.49 393.591C305.048 393.127 306.52 391.956 305.601 391.151C305.093 390.811 304.533 390.551 303.942 390.38C303.386 390.22 302.82 390.1 302.246 390.019C301.126 389.851 299.994 389.762 298.861 389.753C297.206 389.659 295.557 389.777 294.409 389.56Z" fill="#0C3F54"/>
<path d="M298.688 376.904L295.11 376.381C295.11 376.381 295.196 371.52 295.46 366.501C295.724 361.482 296.151 356.365 296.836 355.634C298.252 354.098 301.115 354.379 302.13 355.915C302.255 356.099 302.349 356.301 302.409 356.513C302.911 358.286 298.688 376.904 298.688 376.904Z" fill="#917F50"/>
<path d="M305.287 378.49C304.987 380.846 300.612 388.286 300.612 388.286L289.024 387.263C288.562 384.547 288.28 381.805 288.182 379.053C288.182 377.216 288.364 375.729 289.024 375.502C290.633 374.948 301.434 375.788 304.485 377.477C305.068 377.784 305.332 378.11 305.287 378.49Z" fill="#6394C7"/>
<path d="M294.283 376.02C294.257 375.862 294.269 375.699 294.316 375.546C294.363 375.392 294.446 375.25 294.557 375.131C294.707 375.032 294.883 374.974 295.064 374.963C296.064 374.829 297.079 374.846 298.074 375.013C298.709 375.116 299.434 375.383 299.597 376.001C299.648 376.302 299.615 376.611 299.5 376.895C298.971 378.313 298.269 379.665 297.409 380.921C296.871 381.775 296.039 383.568 295.201 383.435C294.475 383.287 294.303 378.189 294.283 376.02Z" fill="#5174A8"/>
<path d="M286.207 386.66C286.101 386.334 285.994 386.013 285.893 385.672C285.761 385.458 285.781 385.294 285.954 385.178C286.02 385.07 286.091 384.926 286.162 384.828C286.292 384.677 286.471 384.574 286.669 384.536C286.984 384.447 287.131 384.408 287.273 384.077C287.35 383.899 287.355 383.711 287.415 383.528C287.491 383.33 287.594 383.143 287.72 382.97C287.799 382.804 287.915 382.658 288.062 382.543C288.208 382.428 288.379 382.348 288.563 382.308C288.873 382.207 289.203 382.178 289.527 382.224C289.705 382.249 289.873 382.317 290.016 382.423C290.159 382.528 290.272 382.667 290.344 382.827C290.583 383.321 290.852 383.78 291.471 383.667C291.979 383.583 292.486 383.133 292.994 383.444C293.41 383.696 293.359 384.432 293.577 384.823C293.63 384.913 293.703 384.99 293.791 385.049C293.879 385.108 293.979 385.147 294.085 385.163C294.532 385.267 294.933 384.995 295.364 385.025C296.004 385.07 295.917 385.573 296.014 386.013C296.013 386.181 296.04 386.348 296.095 386.507C296.254 386.696 296.455 386.846 296.684 386.947C296.761 386.988 296.846 387.012 296.933 387.019C297.021 387.026 297.109 387.015 297.191 386.986C297.394 386.902 297.526 386.715 297.755 386.665C298.005 386.656 298.255 386.684 298.496 386.749C298.775 386.768 299.052 386.689 299.277 386.527C299.927 386.033 300.064 385.104 301.023 385.075C301.394 385.075 301.749 385.228 302.12 385.208C302.49 385.188 302.627 384.956 302.906 384.828C303.297 384.63 303.922 384.936 304.246 385.168C304.511 385.422 304.676 385.757 304.713 386.117C304.763 386.737 304.622 387.358 304.307 387.9C304.505 388.088 305.053 388.261 304.855 388.661C304.784 388.804 304.586 388.829 304.429 388.853C304.084 388.903 303.724 388.853 303.373 388.903C302.994 388.958 302.609 388.971 302.226 388.942C301.825 388.893 301.404 388.76 301.008 388.671C300.725 388.599 300.43 388.584 300.14 388.626C299.768 388.685 299.39 388.706 299.013 388.69C298.399 388.69 297.846 388.355 297.237 388.285C296.508 388.241 295.778 388.241 295.049 388.285C294.476 388.285 294.034 387.91 293.496 387.742C292.964 387.572 292.407 387.488 291.847 387.495C291.593 387.52 291.338 387.52 291.085 387.495C290.845 387.429 290.598 387.391 290.349 387.381C289.842 387.381 289.415 387.525 288.943 387.549C288.732 387.506 288.523 387.45 288.319 387.381C288.08 387.381 287.811 387.342 287.593 387.342C287.318 387.333 287.043 387.346 286.771 387.381C286.553 387.416 286.365 387.475 286.172 387.347C286.087 387.29 286.015 387.218 285.959 387.134C285.781 386.887 285.933 386.744 286.207 386.66Z" fill="#0C3F54"/>
<path d="M229.563 311.041C231.508 308.652 236.876 308.75 239.056 308.731L241.777 313.801C240.87 314.346 238.674 315.694 237.146 316.73C235.236 318.026 234.368 321.294 233.268 320.843C232.388 320.482 232.053 319.303 231.995 318.758C231.725 318.927 230.964 319.051 230.084 318.195C228.984 317.125 230.084 315.773 229.216 315.716C228.348 315.66 227.132 314.026 229.563 311.041Z" fill="#0C3F54"/>
<path d="M257.594 321.006C257.173 317.986 252.505 315.406 250.64 314.307L245.642 317.317C246.137 318.236 247.319 320.486 248.09 322.136C249.054 324.199 248.088 327.44 249.27 327.598C250.216 327.725 251.123 326.877 251.458 326.438C251.602 326.717 252.191 327.201 253.396 326.901C254.904 326.527 254.666 324.818 255.442 325.2C256.219 325.583 258.12 324.781 257.594 321.006Z" fill="#0C3F54"/>
<path d="M251.266 320.527C249.264 322.404 248.018 324.917 247.754 327.611C247.678 328.485 247.617 329.512 246.85 329.972C246.084 330.431 245.216 330.061 244.485 329.661C242.418 328.486 240.69 326.822 239.46 324.824C238.23 322.826 237.539 320.558 237.45 318.23C238.806 317.445 239.986 316.402 240.917 315.163C241.786 314.02 242.458 312.747 242.907 311.393C242.957 311.27 242.993 311.146 243.033 311.018L243.45 311.616C245.759 314.82 248.377 317.804 251.266 320.527Z" fill="#FBFAF1"/>
<path d="M242.907 311.413C243.084 311.487 243.267 311.566 243.45 311.635C245.759 314.833 248.375 317.81 251.261 320.527C250.12 321.585 249.219 322.864 248.617 324.281C245.069 322.18 242.355 318.974 240.917 315.182" fill="#F7E5B6"/>
<path d="M265.021 314.036C263.854 317.776 261.412 321.767 257.621 323.066C256.391 323.499 255.085 323.69 253.778 323.63C252.472 323.57 251.19 323.259 250.007 322.715C245.323 320.739 240.323 314.688 240.029 308.84C239.853 305.957 240.529 303.086 241.978 300.565C243.447 298.042 245.797 296.114 248.601 295.132C250.942 294.424 253.425 294.282 255.834 294.717C257.999 295.047 260.08 295.775 261.966 296.861C268.361 300.541 266.189 310.321 265.021 314.036Z" fill="#FBFAF1"/>
<path d="M268.244 308.193C267.574 309.652 266.653 310.988 265.519 312.144C265.991 310.732 266.361 306.513 265.346 305.174C258.941 305.407 252.271 302.211 248.84 298.881C247.317 303.584 244.333 307.975 241.653 309.037C240.665 308.401 239.576 307.928 238.43 307.639C237.415 303.979 237.278 299.948 238.638 296.574C239.653 294.07 242.191 292.193 244.637 292.622C245.124 291.678 245.801 290.838 246.627 290.153C248.463 288.668 250.72 287.762 253.098 287.554C255.732 287.284 258.392 287.698 260.807 288.755C263.223 289.812 265.307 291.474 266.846 293.571C268.386 295.667 269.327 298.124 269.573 300.69C269.818 303.257 269.36 305.84 268.244 308.178V308.193Z" fill="#0C3F54"/>
<path d="M236.546 307.086C237.562 305.688 240.003 305.668 241.998 307.042C243.993 308.415 244.784 310.667 243.769 312.065C242.754 313.463 240.308 313.478 238.313 312.105C236.318 310.732 235.531 308.484 236.546 307.086Z" fill="#FBFAF1"/>
<path fill-rule="evenodd" clip-rule="evenodd" d="M239.085 308.958C239.291 308.66 239.666 308.494 239.957 308.437L239.899 308.157C239.566 308.222 239.107 308.415 238.842 308.798C238.566 309.196 238.527 309.758 238.959 310.496L239.214 310.354C238.82 309.682 238.889 309.241 239.085 308.958Z" fill="#044C6A"/>
<path fill-rule="evenodd" clip-rule="evenodd" d="M239.764 309.605C239.301 309.352 239.055 309.127 238.971 309.012L238.732 309.177C238.852 309.341 239.14 309.591 239.62 309.854C240.105 310.119 240.793 310.403 241.722 310.627L241.793 310.35C240.886 310.131 240.223 309.857 239.764 309.605Z" fill="#044C6A"/>
<path fill-rule="evenodd" clip-rule="evenodd" d="M259.271 314.405L258.01 310.427L257.706 310.519L258.967 314.497C259.028 314.691 259.034 314.904 258.979 315.075C258.925 315.242 258.819 315.36 258.654 315.403C258.477 315.451 258.316 315.433 258.181 315.311C258.1 315.237 257.991 315.215 257.901 315.219C257.811 315.223 257.706 315.255 257.632 315.331C257.574 315.391 257.498 315.441 257.402 315.464C257.306 315.487 257.18 315.486 257.015 315.428C256.933 315.398 256.842 315.439 256.811 315.519C256.781 315.599 256.823 315.688 256.905 315.718C257.121 315.795 257.313 315.804 257.478 315.764C257.643 315.725 257.77 315.639 257.863 315.544C257.863 315.544 257.867 315.54 257.878 315.536C257.888 315.532 257.901 315.529 257.916 315.528C257.93 315.528 257.943 315.529 257.952 315.532C257.961 315.535 257.964 315.537 257.964 315.537C257.964 315.537 257.964 315.537 257.964 315.537C258.202 315.753 258.488 315.769 258.739 315.702C259.03 315.624 259.204 315.411 259.283 315.167C259.36 314.927 259.348 314.65 259.271 314.405Z" fill="#044C6A"/>
<path d="M261.156 310.876C261.322 311.271 261.786 311.461 262.193 311.299C262.599 311.137 262.794 310.686 262.628 310.29C262.461 309.895 261.997 309.706 261.59 309.867C261.184 310.029 260.989 310.481 261.156 310.876Z" fill="#198AB9"/>
<path d="M252.656 310.876C252.822 311.271 253.286 311.461 253.693 311.299C254.099 311.137 254.294 310.686 254.128 310.29C253.961 309.895 253.497 309.706 253.09 309.867C252.684 310.029 252.489 310.481 252.656 310.876Z" fill="#198AB9"/>
<path fill-rule="evenodd" clip-rule="evenodd" d="M253.479 318.272C254.315 318.355 255.089 318.186 255.551 318.002L255.431 317.715C255.011 317.883 254.289 318.041 253.511 317.964C252.737 317.888 251.913 317.579 251.265 316.817L251.019 317.014C251.731 317.851 252.64 318.189 253.479 318.272Z" fill="#044C6A"/>
<path fill-rule="evenodd" clip-rule="evenodd" d="M10.446 286.842H591.023V282.79H10.446V286.842Z" fill="#1F9ED3"/>
<path d="M450.377 260.629C450.715 258.548 448.454 243.24 447.282 235.846L452.769 234.203L457.834 260.629L445.734 289.794C444.749 289.703 442.611 289.027 441.935 287.055C441.091 284.591 449.955 263.231 450.377 260.629Z" fill="#FBFAF1"/>
<path d="M445.099 223.903C446.019 218.24 449.563 213.999 451.886 212.385L461.206 233.493L446.918 239.056C446.045 236.306 444.18 229.567 445.099 223.903Z" fill="#8BCDF2"/>
<path d="M455.532 183.43C461.278 177.234 467.808 180.848 470.355 183.43C474.633 184.145 475.092 188.097 474.786 189.983C474.48 191.87 470.355 196.835 470.355 196.835L452.308 186.529C454.111 186.039 454.462 184.671 455.532 183.43Z" fill="#09648A"/>
<path d="M455.313 211.316L474.861 209.993L468.526 218.785L459.408 221.241L455.313 211.316Z" fill="#FBFAF1"/>
<path d="M460.682 212.619L461.24 204.936L467.389 204.048L468.527 212.648C468.527 212.648 463.126 213.855 460.682 212.619Z" fill="#FBFAF1"/>
<path d="M460.975 208.594L461.24 204.94L467.39 204.052L467.784 207.031C466.609 208.274 464.456 209.602 460.975 208.594Z" fill="#F7E5B6"/>
<path d="M454.258 196.469C454.84 197.523 454.612 198.745 453.746 199.198C452.88 199.651 451.705 199.167 451.121 198.114C450.537 197.061 450.767 195.839 451.633 195.385C452.499 194.932 453.674 195.416 454.258 196.469Z" fill="#F7E5B6"/>
<path d="M455.296 202.884C454.959 202.434 454.665 201.954 454.418 201.452C453.767 200.138 453.292 198.749 453.003 197.318C452.943 197.039 452.868 196.764 452.786 196.491C452.421 195.258 452.323 193.965 452.499 192.694C452.675 191.422 453.12 190.2 453.807 189.105C454.494 188.009 455.407 187.065 456.489 186.332C457.571 185.599 458.798 185.092 460.091 184.845C461.385 184.597 462.717 184.614 464.004 184.895C465.29 185.175 466.503 185.713 467.564 186.473C468.626 187.234 469.514 188.201 470.171 189.313C470.828 190.426 471.24 191.659 471.382 192.935C471.638 192.744 471.936 192.614 472.253 192.556C472.57 192.499 472.897 192.514 473.206 192.602C474.383 192.972 474.951 194.432 474.475 195.862C473.999 197.292 472.661 198.153 471.489 197.783C471.331 197.731 471.18 197.658 471.041 197.566C471.068 202.12 467.658 205.993 463.101 206.399C460.943 206.585 458.794 205.967 457.087 204.668C456.965 204.589 456.847 204.503 456.735 204.411C456.189 203.965 455.706 203.451 455.296 202.884Z" fill="#FBFAF1"/>
<path d="M435.809 369.198H441.468V363.909H435.809V369.198Z" fill="#F7E5B6"/>
<path d="M426.379 376.037L442.998 375.725C443.12 375.722 443.241 375.697 443.353 375.649C443.465 375.602 443.566 375.533 443.651 375.447C443.735 375.362 443.802 375.26 443.846 375.15C443.891 375.039 443.913 374.921 443.91 374.802C443.908 374.683 443.882 374.566 443.833 374.457C443.784 374.348 443.713 374.25 443.625 374.168C443.537 374.085 443.433 374.021 443.32 373.977C443.206 373.934 443.084 373.913 442.962 373.916L426.343 374.227C426.097 374.232 425.862 374.332 425.691 374.504C425.52 374.677 425.427 374.909 425.431 375.149C425.434 375.268 425.46 375.385 425.509 375.494C425.558 375.603 425.628 375.702 425.716 375.784C425.804 375.867 425.908 375.931 426.022 375.975C426.136 376.018 426.257 376.039 426.379 376.037Z" fill="#122F5B"/>
<path d="M442.937 368.415L443.649 373.438C443.737 374.057 443.391 374.626 442.922 374.637L426.639 374.942C426.216 374.95 425.794 374.701 425.561 374.215C425.328 373.73 425.263 372.979 425.973 371.962C427.376 369.949 432.073 369.362 434.408 367.648C434.455 367.613 434.513 367.593 434.572 367.591L442.065 367.446C442.488 367.45 442.858 367.856 442.937 368.415Z" fill="#F4A640"/>
<path d="M435.689 370.501C435.748 370.452 435.789 370.385 435.804 370.31C435.82 370.235 435.809 370.158 435.774 370.09C435.44 369.406 434.408 367.747 432.381 368.129C432.317 368.156 432.265 368.204 432.234 368.265C432.203 368.326 432.194 368.395 432.211 368.461C432.233 368.607 432.34 368.71 432.454 368.69C434.269 368.352 435.149 369.816 435.419 370.389C435.478 370.516 435.592 370.562 435.689 370.501Z" fill="white"/>
<path d="M434.011 371.181C434.071 371.132 434.111 371.064 434.127 370.99C434.142 370.915 434.131 370.838 434.096 370.77C433.762 370.086 432.73 368.425 430.703 368.808C430.587 368.83 430.509 368.984 430.533 369.14C430.555 369.285 430.664 369.388 430.776 369.366C432.593 369.031 433.472 370.494 433.743 371.068C433.799 371.196 433.914 371.242 434.011 371.181Z" fill="white"/>
<path d="M432.451 371.816C432.511 371.767 432.551 371.699 432.566 371.624C432.581 371.549 432.57 371.472 432.535 371.404C432.202 370.721 431.169 369.06 429.143 369.444C429.025 369.466 428.949 369.618 428.971 369.775C428.994 369.92 429.101 370.023 429.215 370.003C431.032 369.666 431.902 371.131 432.18 371.703C432.242 371.829 432.354 371.876 432.451 371.816Z" fill="white"/>
<path d="M526.383 355.468L529.179 350.745L523.96 347.818L521.164 352.541L526.383 355.468Z" fill="#F7E5B6"/>
<path d="M527.251 366.531L535.271 352.362C535.39 352.151 535.418 351.904 535.35 351.673C535.281 351.442 535.121 351.247 534.905 351.131C534.689 351.015 534.434 350.988 534.197 351.055C533.96 351.121 533.76 351.277 533.641 351.487L525.622 365.656C525.563 365.76 525.526 365.875 525.512 365.993C525.499 366.111 525.509 366.231 525.543 366.345C525.577 366.459 525.634 366.566 525.71 366.659C525.786 366.752 525.881 366.829 525.988 366.887C526.204 367.002 526.458 367.03 526.695 366.963C526.932 366.896 527.132 366.741 527.251 366.531Z" fill="#122F5B"/>
<path d="M528.732 348.758L533.558 350.666C534.156 350.9 534.488 351.477 534.263 351.876L526.404 365.757C526.201 366.118 525.768 366.35 525.226 366.307C524.685 366.263 523.977 365.942 523.426 364.836C522.335 362.648 524.156 358.394 523.796 355.569C523.788 355.512 523.8 355.453 523.829 355.402L527.445 349.009C527.649 348.659 528.194 348.55 528.732 348.758Z" fill="#F4A640"/>
<path d="M526.971 355.915C526.957 355.841 526.916 355.773 526.857 355.723C526.798 355.673 526.724 355.643 526.646 355.639C525.871 355.578 523.878 355.62 523.212 357.528C523.173 357.638 523.272 357.779 523.423 357.838C523.572 357.894 523.709 357.852 523.747 357.746C524.354 356.046 526.097 356.036 526.741 356.094C526.877 356.101 526.976 356.023 526.971 355.915Z" fill="white"/>
<path d="M526.743 357.67C526.728 357.595 526.688 357.528 526.629 357.477C526.57 357.427 526.496 357.397 526.418 357.393C525.643 357.333 523.65 357.375 522.984 359.282C522.945 359.392 523.044 359.533 523.194 359.593C523.344 359.649 523.481 359.607 523.518 359.501C524.126 357.801 525.868 357.791 526.513 357.849C526.645 357.856 526.743 357.782 526.743 357.67Z" fill="white"/>
<path d="M526.524 359.304C526.509 359.229 526.469 359.16 526.41 359.11C526.351 359.06 526.276 359.03 526.198 359.026C525.423 358.966 523.43 359.007 522.764 360.908C522.726 361.018 522.824 361.159 522.975 361.217C523.002 361.232 523.033 361.242 523.064 361.246C523.096 361.25 523.128 361.247 523.158 361.238C523.189 361.23 523.217 361.215 523.241 361.195C523.266 361.176 523.286 361.151 523.3 361.124C523.907 359.426 525.649 359.415 526.286 359.474C526.43 359.488 526.528 359.415 526.524 359.304Z" fill="white"/>
<path d="M453.739 302.818C453.739 302.818 456.725 312.708 460.116 315.81C463.506 318.912 465.49 324.15 467.489 326.088C469.488 328.027 478.248 335.203 482.832 336.754C487.415 338.306 489.009 339.275 489.009 339.275C489.009 339.275 496.175 345.287 500.566 347.032C504.957 348.777 513.717 354.067 516.706 355.366C519.262 356.478 523.125 352.003 525.318 347.529C525.616 346.925 525.685 346.238 525.514 345.589C525.342 344.94 524.94 344.371 524.379 343.983L505.746 331.131C505.746 331.131 476.654 311.157 475.858 308.636C475.063 306.115 471.275 284.787 471.275 284.787L450.552 293.505L453.739 302.818Z" fill="#0A3243"/>
<path d="M474.862 209.993L477.918 210.769C495.054 214.256 495.186 233.522 495.186 233.522C491.94 234.489 488.603 235.139 485.224 235.462V251.793L479.378 254.046L448.893 249.166V236.367C449.388 227.923 449.732 223.294 449.732 223.294L450.764 217.772C450.764 217.772 451.631 212.026 455.308 211.316C455.308 211.316 459.413 213.613 464.992 213.129C470.571 212.645 474.862 209.993 474.862 209.993Z" fill="#8BCDF2"/>
<path d="M452.346 211.662C452.088 211.725 451.854 211.857 451.669 212.043C451.485 212.228 451.357 212.46 451.301 212.713C450.738 215.234 449.166 223.335 448.896 236.367C448.563 252.301 447.765 272.178 448.031 276.186C448.297 280.193 444.977 283.813 443.515 288.209C442.054 292.604 438.738 297.13 437.405 299.585C436.071 302.04 431.826 305.79 431.433 311.996C431.04 318.201 429.573 326.605 429.839 332.293C430.104 337.982 430.572 340.309 429.806 343.283C429.04 346.257 428.244 362.026 431.167 363.581C434.09 365.135 444.717 365.905 445.911 363.581C447.106 361.256 446.841 352.461 446.576 350.135C446.31 347.809 445.911 346.773 446.31 341.473C446.708 336.173 448.569 320.917 449.1 317.556C449.632 314.196 457.204 305.273 461.72 301.525C466.236 297.776 483.107 287.045 484.303 272.308C485.499 257.571 485.233 248.907 485.233 248.907C485.233 248.907 476.199 250.717 475.801 238.694C475.474 228.814 476.535 215.622 476.925 211.234C476.942 211.04 476.919 210.845 476.857 210.661C476.795 210.476 476.696 210.305 476.564 210.159C476.433 210.013 476.273 209.893 476.093 209.809C475.913 209.724 475.718 209.676 475.519 209.666L474.921 209.639C474.68 209.627 474.443 209.707 474.261 209.863C474.079 210.018 473.967 210.236 473.948 210.471L471.945 234.821L452.546 235.203C452.546 235.203 452.089 225.592 454.448 211.803C454.461 211.73 454.454 211.654 454.43 211.583C454.405 211.512 454.362 211.448 454.306 211.397C454.249 211.346 454.181 211.309 454.106 211.29C454.032 211.272 453.954 211.271 453.879 211.289L452.346 211.662Z" fill="#0C3F54"/>
<path d="M485.24 252.494H478.845C478.845 252.494 478.033 267.118 484.403 270.885C485.055 262.444 485.216 256.138 485.24 252.494Z" fill="#135F7F"/>
<path d="M451.868 252.494H448.474C448.287 258.926 448.108 264.973 448.026 269.44C452.522 264.317 451.868 252.494 451.868 252.494Z" fill="#135F7F"/>
<path d="M452.844 238.657L471.474 238.045V238.506C471.474 243.415 468.291 247.439 464.283 247.596L460.512 247.741C456.316 247.905 452.844 243.789 452.844 238.651V238.657Z" fill="#135F7F"/>
<path d="M460.013 268.638C460.017 267.294 460.567 266.006 461.544 265.056C462.52 264.105 463.844 263.57 465.225 263.566H483.092C484.473 263.57 485.797 264.105 486.773 265.056C487.75 266.006 488.3 267.294 488.304 268.638V272.946H460.013V268.638ZM485.841 268.638C485.84 267.93 485.551 267.25 485.036 266.749C484.521 266.248 483.823 265.966 483.095 265.965H465.224C464.495 265.966 463.797 266.248 463.283 266.749C462.768 267.25 462.478 267.93 462.478 268.638V270.547H485.841V268.638Z" fill="#A83333"/>
<path d="M456.281 270.274C456.513 270.274 456.741 270.286 456.968 270.303L497.063 270.274C499.468 270.274 501.774 271.204 503.474 272.859C505.174 274.514 506.129 276.758 506.129 279.098V301.99H488V301.905H465.351V301.99H447.218V279.098C447.218 276.758 448.173 274.515 449.872 272.86C451.572 271.205 453.877 270.275 456.281 270.274Z" fill="#EC7E7E"/>
<g style="mix-blend-mode:multiply" opacity="0.3">
<path d="M505.743 301.99H487.611V276.151C487.611 274.593 488.247 273.098 489.379 271.996C490.512 270.893 492.048 270.274 493.649 270.274H499.705C501.306 270.274 502.841 270.893 503.974 271.995C505.106 273.097 505.742 274.592 505.742 276.15V301.99H505.743Z" fill="#CF283C"/>
</g>
<path d="M506.465 285.536H446.819C446.643 285.536 446.474 285.468 446.349 285.346C446.224 285.225 446.154 285.061 446.154 284.889V284.241C446.154 284.07 446.224 283.906 446.348 283.785C446.473 283.664 446.641 283.596 446.817 283.596H506.465C506.641 283.596 506.809 283.664 506.934 283.785C507.058 283.906 507.128 284.07 507.128 284.241V284.889C507.128 285.06 507.058 285.225 506.934 285.346C506.809 285.467 506.641 285.535 506.465 285.536Z" fill="#333333"/>
<path d="M474.517 287.474H460.433C460.259 287.474 460.086 287.441 459.925 287.376C459.764 287.311 459.618 287.216 459.495 287.096C459.371 286.976 459.274 286.833 459.207 286.677C459.14 286.52 459.106 286.352 459.106 286.182V285.534H475.844V286.182C475.844 286.525 475.705 286.854 475.456 287.096C475.207 287.338 474.869 287.474 474.517 287.474Z" fill="#CFD8DD"/>
<path d="M457.408 195.483C457.316 195.816 456.965 196.014 456.623 195.925C456.282 195.836 456.079 195.494 456.171 195.161C456.262 194.828 456.614 194.63 456.955 194.719C457.297 194.808 457.5 195.15 457.408 195.483Z" fill="#198AB9"/>
<path d="M464.438 194.99C464.347 195.323 463.995 195.521 463.654 195.432C463.312 195.343 463.109 195.001 463.201 194.668C463.293 194.335 463.644 194.137 463.986 194.226C464.327 194.315 464.53 194.657 464.438 194.99Z" fill="#198AB9"/>
<path d="M459.136 199.391C458.616 199.146 459.435 196.466 459.91 195.157L461.805 198.699C461.695 198.848 461.417 199.175 461.187 199.295C460.956 199.414 460.536 199.163 460.355 199.023C460.166 199.248 459.657 199.637 459.136 199.391Z" fill="#FBFAF1"/>
<path fill-rule="evenodd" clip-rule="evenodd" d="M459.501 196.075C459.637 195.685 459.764 195.321 459.852 195.017L460.009 195.069C459.919 195.377 459.791 195.746 459.656 196.134C459.643 196.171 459.63 196.208 459.617 196.245C459.468 196.676 459.313 197.126 459.192 197.55C459.071 197.975 458.985 198.366 458.97 198.678C458.956 198.997 459.016 199.2 459.148 199.294C459.319 199.415 459.535 199.412 459.744 199.345C459.953 199.279 460.137 199.153 460.229 199.056C460.281 199.002 460.368 198.977 460.443 199.023C460.599 199.12 460.785 199.225 461.014 199.225C461.174 199.225 461.307 199.137 461.414 199.029C461.499 198.942 461.56 198.85 461.602 198.786C461.613 198.769 461.623 198.755 461.632 198.742L461.763 198.847C461.757 198.855 461.75 198.867 461.741 198.881C461.7 198.942 461.626 199.055 461.527 199.155C461.405 199.279 461.233 199.399 461.014 199.399C460.738 199.399 460.519 199.273 460.36 199.174C460.36 199.174 460.36 199.174 460.36 199.174C460.359 199.174 460.358 199.174 460.356 199.174C460.353 199.175 460.348 199.177 460.345 199.181C460.232 199.299 460.024 199.439 459.791 199.513C459.559 199.587 459.285 199.601 459.057 199.439C458.847 199.29 458.791 198.999 458.806 198.67C458.822 198.335 458.913 197.927 459.035 197.499C459.158 197.07 459.314 196.615 459.463 196.185C459.476 196.148 459.489 196.111 459.501 196.075Z" fill="#044C6A"/>
<path d="M448.611 189.245C448.867 186.87 453.883 185.834 455.699 185.73L460.632 183.664L469.127 185.027L470.57 187.682C470.313 192.057 466.83 191.796 465.12 191.119C463.197 193.119 461.327 192.473 460.632 191.901C459.094 193.275 457.32 192.786 456.625 192.369C456.24 192.869 455.289 193.098 454.862 193.15C450.855 193.775 448.29 192.213 448.611 189.245Z" fill="#09648A"/>
<path fill-rule="evenodd" clip-rule="evenodd" d="M464.39 189.798C464.436 189.701 464.517 189.629 464.62 189.579C464.866 189.459 465.088 189.407 465.263 189.486C465.449 189.571 465.502 189.763 465.513 189.923C465.524 190.091 465.496 190.288 465.458 190.474C465.438 190.569 465.415 190.664 465.393 190.755C465.714 190.952 466.12 191.123 466.567 191.217C467.245 191.358 468.004 191.317 468.697 190.921C469.389 190.525 470.037 189.762 470.469 188.422L470.775 188.515C470.326 189.909 469.637 190.745 468.86 191.19C468.082 191.635 467.237 191.676 466.499 191.522C466.052 191.429 465.639 191.262 465.298 191.066L465.296 191.068C464.138 192.439 462.835 192.697 461.811 192.468C461.417 192.38 461.067 192.221 460.785 192.029C459.69 193.086 458.263 193.121 457.183 192.736C456.917 192.641 456.669 192.52 456.45 192.381C455.415 193.295 454.125 193.479 452.902 193.332C451.608 193.176 450.372 192.648 449.546 192.198L449.703 191.925C450.51 192.365 451.704 192.873 452.941 193.022C454.085 193.16 455.249 192.99 456.185 192.192C456.068 192.099 455.964 192 455.874 191.897C455.575 191.556 455.416 191.145 455.565 190.757C455.667 190.492 455.816 190.316 456.019 190.258C456.218 190.2 456.414 190.273 456.57 190.372C456.899 190.581 457.043 190.919 457.04 191.261C457.038 191.577 456.911 191.903 456.684 192.155C456.866 192.265 457.072 192.363 457.294 192.442C458.28 192.794 459.551 192.758 460.533 191.832C460.242 191.573 460.043 191.26 460.043 190.968C460.043 190.67 460.208 190.464 460.427 190.368C460.637 190.276 460.893 190.284 461.093 190.391C461.303 190.503 461.446 190.722 461.412 191.018C461.386 191.244 461.259 191.505 461.006 191.797C461.248 191.955 461.546 192.088 461.882 192.163C462.775 192.363 463.946 192.157 465.025 190.896C465.026 190.895 465.026 190.893 465.027 190.892C464.919 190.816 464.823 190.737 464.738 190.658C464.549 190.481 464.406 190.285 464.363 190.095C464.341 189.997 464.344 189.894 464.39 189.798ZM465.11 190.56C465.122 190.511 465.133 190.462 465.143 190.413C465.18 190.233 465.201 190.069 465.192 189.944C465.183 189.811 465.146 189.778 465.127 189.77C465.097 189.756 464.998 189.744 464.763 189.858C464.712 189.883 464.691 189.91 464.681 189.929C464.672 189.95 464.666 189.98 464.677 190.028C464.7 190.129 464.79 190.272 464.961 190.433C465.007 190.476 465.056 190.518 465.11 190.56ZM460.753 191.604C460.986 191.337 461.076 191.129 461.093 190.983C461.112 190.818 461.039 190.719 460.939 190.665C460.828 190.606 460.678 190.601 460.559 190.653C460.45 190.701 460.364 190.798 460.364 190.968C460.364 191.133 460.488 191.37 460.753 191.604ZM456.419 191.974C456.611 191.774 456.717 191.509 456.719 191.258C456.721 191.004 456.616 190.775 456.394 190.634C456.27 190.555 456.177 190.538 456.11 190.557C456.047 190.576 455.952 190.643 455.866 190.867C455.775 191.104 455.856 191.396 456.118 191.694C456.203 191.791 456.304 191.885 456.419 191.974Z" fill="#044C6A"/>
<path fill-rule="evenodd" clip-rule="evenodd" d="M464.535 200.526C464.579 200.563 464.585 200.627 464.547 200.671C463.978 201.325 463.258 201.585 462.593 201.643C461.932 201.702 461.321 201.561 460.958 201.412C460.904 201.39 460.879 201.329 460.902 201.277C460.924 201.225 460.986 201.201 461.04 201.223C461.375 201.361 461.951 201.494 462.574 201.439C463.195 201.384 463.859 201.143 464.386 200.538C464.424 200.495 464.49 200.489 464.535 200.526Z" fill="#197EA9"/>
<path d="M494.741 231.61L484.679 234.047C484.679 234.047 487.481 243.478 487.775 244.194C488.069 244.911 489.605 247.791 494.147 246.516C498.993 245.155 498.212 241.37 498.065 240.96C497.918 240.549 494.741 231.61 494.741 231.61Z" fill="#FBFAF1"/>
<path d="M476.449 258.218C476.449 258.218 483.749 246.163 487.804 242.563C489.744 240.84 494.166 237.866 496.824 239.692C499.549 241.564 498.257 245.771 496.334 248.423C491.635 254.902 481.987 262.023 481.987 262.023L476.449 258.218Z" fill="#FBFAF1"/>
<path d="M489.336 240.668C485.234 244.216 477.772 256.177 477.772 256.177" stroke="#197EA9" stroke-linecap="round"/>
<path d="M490.723 219.06C487.48 214.272 482.452 211.836 479.652 211.301L480.128 234.27L495.5 233.59C495.128 230.734 493.965 223.847 490.723 219.06Z" fill="#8BCDF2"/>
<path d="M470.586 258.584C471.527 258.181 474.652 258.28 476.488 258.097L481.997 260.434C482.296 260.632 482.854 261.25 482.704 262.129C482.553 263.009 482.324 263.875 480.819 263.875L469.68 263.403L469.802 262.129C469.039 263.377 467.607 263.892 466.169 263.596C465.484 263.455 464.992 263.138 465.322 262.359C465.651 261.58 469.408 259.088 470.586 258.584Z" fill="#FBFAF1"/>
<path d="M473.716 268.163C472.928 268.111 472.332 267.447 472.385 266.679L472.587 263.754C472.64 262.986 473.322 262.406 474.11 262.457C474.899 262.509 475.494 263.173 475.441 263.941L475.239 266.867C475.186 267.634 474.504 268.214 473.716 268.163Z" fill="#FBFAF1"/>
<path d="M476.47 267.635C475.682 267.584 475.086 266.92 475.139 266.152L475.341 263.226C475.394 262.459 476.076 261.878 476.864 261.93C477.652 261.982 478.248 262.646 478.195 263.413L477.993 266.339C477.94 267.107 477.258 267.687 476.47 267.635Z" fill="#FBFAF1"/>
<path d="M479.214 266.639C478.436 266.588 477.848 265.932 477.9 265.175L478.004 263.672C478.056 262.914 478.729 262.342 479.507 262.393C480.285 262.444 480.873 263.099 480.821 263.856L480.717 265.36C480.664 266.117 479.991 266.69 479.214 266.639Z" fill="#FBFAF1"/>
<path d="M470.927 266.764C470.103 266.71 469.48 266.016 469.536 265.214L469.646 263.622C469.701 262.819 470.414 262.213 471.238 262.267C472.062 262.321 472.685 263.015 472.629 263.817L472.519 265.41C472.463 266.212 471.751 266.818 470.927 266.764Z" fill="#FBFAF1"/>
</svg>
