<svg width="1186" height="886" viewBox="0 0 1186 886" fill="none" xmlns="http://www.w3.org/2000/svg">
<path d="M88.8955 -200.916L-286.915 174.895L-155.137 306.673L86.4392 65.0972L919.636 898.295L678.06 1139.87L809.838 1271.65L1185.65 895.838L88.8955 -200.916Z" fill="#EAF6FB" fill-opacity="0.3"/>
<path d="M146.673 454.586C156.697 444.485 168.629 436.49 181.729 431.091C194.83 425.695 208.826 423.005 222.851 423.198C236.857 422.671 250.742 425.032 263.64 430.134C276.539 435.237 288.172 442.972 297.818 452.856C307.775 462.566 315.581 474.266 320.758 487.236C325.934 500.203 328.374 514.171 327.926 528.273C327.875 542.309 325.022 556.27 319.536 569.34C314.049 582.414 306.04 594.328 295.975 604.392C285.911 614.456 273.995 622.468 260.923 627.952C247.853 633.439 233.893 636.292 219.854 636.345C205.752 636.793 191.786 634.351 178.819 629.175C165.849 623.998 154.15 616.192 144.437 606.237C134.553 596.591 126.82 584.956 121.717 572.057C116.615 559.158 114.254 545.274 114.779 531.27C114.615 517.127 117.359 503.024 122.847 489.831C128.334 476.64 136.443 464.642 146.673 454.586Z" fill="#EAF6FB" fill-opacity="0.3"/>
<path d="M392.146 700.058C402.169 689.957 414.102 681.962 427.204 676.565C440.303 671.167 454.3 668.479 468.324 668.67C482.33 668.143 496.214 670.504 509.113 675.606C522.012 680.709 533.644 688.444 543.293 698.329C553.233 708.036 561.027 719.732 566.196 732.694C571.366 745.655 573.802 759.61 573.354 773.7C573.303 787.737 570.45 801.697 564.966 814.769C559.477 827.841 551.467 839.756 541.403 849.82C531.339 859.884 519.423 867.895 506.353 873.382C493.281 878.867 479.32 881.72 465.281 881.772C451.179 882.22 437.216 879.78 424.247 874.603C411.277 869.425 399.577 861.619 389.866 851.667C379.98 842.018 372.248 830.383 367.145 817.485C362.043 804.586 359.682 790.702 360.207 776.697C360.043 762.555 362.787 748.452 368.275 735.258C373.761 722.067 381.871 710.069 392.101 700.013" fill="#EAF6FB" fill-opacity="0.3"/>
</svg>
