<svg width="130" height="131" viewBox="0 0 130 131" fill="none" xmlns="http://www.w3.org/2000/svg">
<path opacity="0.1" d="M117.924 104.797L16.1496 104.753C16.1496 104.753 -1.0501 75.5558 8.12332 56.0245C17.2967 36.4932 30.694 50.2792 31.811 36.1634C31.8483 35.6819 31.8182 35.2125 31.8182 34.7514C31.8182 34.6419 31.8182 34.5336 31.8242 34.4252C32.1673 26.3255 36.4597 21.0834 42.1292 18.0741C42.3121 17.9766 42.4903 17.8827 42.6817 17.7901C51.7155 13.2798 63.9318 14.2078 69.3389 18.085C78.54 24.6825 78.487 32.6233 97.4827 30.0016C116.478 27.38 120.101 49.2886 115.155 60.4445C108.139 76.2828 134.616 73.6852 117.924 104.797Z" fill="#196181"/>
<path d="M65.5718 124.599C98.8165 124.599 125.767 118.775 125.767 111.591C125.767 104.407 98.8165 98.5826 65.5718 98.5826C32.3271 98.5826 5.37695 104.407 5.37695 111.591C5.37695 118.775 32.3271 124.599 65.5718 124.599Z" fill="#E5F2FC"/>
<path d="M50.66 43.2591C50.3754 42.1604 49.9382 41.1069 49.3612 40.1295L50.6852 38.1398L48.8496 36.3041L47.0139 34.4685L45.023 35.7926C44.0456 35.2153 42.9922 34.7777 41.8934 34.4926L41.4215 32.1514H36.2239L35.7497 34.4866C34.6508 34.7715 33.5974 35.2091 32.62 35.7866L30.6303 34.4625L28.7947 36.2981L26.9626 38.135L28.2867 40.1247C27.7093 41.102 27.2717 42.1555 26.9867 43.2543L24.6455 43.725V48.9178L26.9867 49.3896C27.2716 50.4885 27.7092 51.5419 28.2867 52.5192L26.9626 54.5102L28.7935 56.3518L30.6291 58.1875L32.6188 56.8634C33.5965 57.44 34.6499 57.8771 35.7485 58.1622L36.2191 60.5034H41.4119L41.8886 58.1658C42.9871 57.8806 44.0405 57.4435 45.0182 56.867L47.0091 58.1911L48.8484 56.3518L50.684 54.5162L49.36 52.5253C49.9371 51.5479 50.3743 50.4944 50.6587 49.3956L53 48.9238V43.7298L50.66 43.2591ZM38.8203 55.4238C37.021 55.4238 35.2621 54.8902 33.766 53.8906C32.2699 52.8909 31.1038 51.47 30.4152 49.8077C29.7267 48.1453 29.5465 46.3161 29.8975 44.5513C30.2486 42.7866 31.115 41.1655 32.3874 39.8932C33.6597 38.6209 35.2807 37.7544 37.0455 37.4034C38.8102 37.0524 40.6395 37.2325 42.3018 37.9211C43.9642 38.6097 45.385 39.7757 46.3847 41.2718C47.3844 42.7679 47.9179 44.5268 47.9179 46.3262C47.9179 48.739 46.9594 51.053 45.2533 52.7591C43.5472 54.4653 41.2332 55.4238 38.8203 55.4238Z" fill="#9BD2EA"/>
<path d="M39.9297 45.3898H99.2205C100.486 45.3898 101.7 45.8926 102.595 46.7877C103.49 47.6827 103.993 48.8967 103.993 50.1625V90.0388C103.993 91.3042 103.491 92.5179 102.596 93.4127C101.701 94.3075 100.487 94.8102 99.2217 94.8102H39.9297C38.6642 94.8102 37.4506 94.3075 36.5557 93.4127C35.6609 92.5179 35.1582 91.3042 35.1582 90.0388V50.1613C35.1582 48.8958 35.6609 47.6821 36.5557 46.7873C37.4506 45.8925 38.6642 45.3898 39.9297 45.3898Z" fill="#C7E6F3"/>
<path d="M44.5564 78.8744C42.8012 79.5367 41.3762 80.8618 40.5884 82.5643C39.8005 84.2669 39.7128 86.2108 40.344 87.9774C40.9752 89.744 42.2749 91.1921 43.9633 92.0099C45.6517 92.8277 47.5937 92.9498 49.3712 92.3498C49.5229 92.2957 49.6721 92.2367 49.8178 92.1741C51.5214 91.4342 52.8707 90.0609 53.5803 88.3444C54.2899 86.6279 54.3044 84.7028 53.6206 82.9759C52.9368 81.2489 51.6083 79.8555 49.9159 79.0901C48.2236 78.3248 46.2999 78.2474 44.5516 78.8744H44.5564ZM52.0193 83.8096C52.4797 85.0906 52.4353 86.4987 51.8952 87.7482C51.3551 88.9977 50.3597 89.9948 49.1112 90.5371C49.0017 90.5852 48.8909 90.6285 48.7766 90.6695C47.7774 91.0256 46.695 91.0776 45.6663 90.8187C44.6375 90.5599 43.7086 90.0019 42.997 89.2152C42.2853 88.4286 41.8228 87.4486 41.6679 86.3992C41.5131 85.3498 41.6728 84.278 42.1269 83.3193C42.581 82.3607 43.3091 81.5581 44.2192 81.0132C45.1293 80.4682 46.1806 80.2053 47.2401 80.2576C48.2996 80.3099 49.3198 80.6752 50.1717 81.3072C51.0237 81.9392 51.6692 82.8096 52.0266 83.8084L52.0193 83.8096Z" fill="#9BD2EA"/>
<path d="M45.3676 90.7332L44.8344 92.4425C43.4126 91.9986 42.1647 91.1222 41.2645 89.9356C40.3643 88.7489 39.8568 87.3109 39.8125 85.8221L41.6024 85.7692C41.6375 86.8845 42.0189 87.9613 42.6935 88.8501C43.3682 89.739 44.3028 90.3959 45.3676 90.7296V90.7332Z" fill="#146080"/>
<path d="M49.111 90.537L49.826 92.18C49.6804 92.2426 49.5311 92.3004 49.3795 92.3558C47.9164 92.882 46.3212 92.9145 44.8379 92.4485L45.3711 90.7392C46.4833 91.089 47.6795 91.0645 48.7764 90.6694C48.8871 90.6224 48.9979 90.5791 49.111 90.537Z" fill="#1E7EAA"/>
<path d="M51.6042 91.0643C51.0681 91.5197 50.4678 91.8937 49.8227 92.1741L49.1113 90.5371C49.5954 90.3274 50.0457 90.0471 50.4474 89.7053L51.6042 91.0643Z" fill="#E5F2FC"/>
<path d="M67.1898 57.6314C66.6003 55.9511 65.6825 54.4048 64.4899 53.0824C63.2973 51.76 61.8537 50.6879 60.243 49.9286C58.6322 49.1692 56.8866 48.7377 55.1076 48.6592C53.3286 48.5806 51.5517 48.8566 49.8804 49.4711C48.209 50.0855 46.6765 51.0262 45.372 52.2383C44.0675 53.4504 43.017 54.9099 42.2817 56.5317C41.5463 58.1535 41.1408 59.9054 41.0888 61.6853C41.0367 63.4653 41.339 65.2379 41.9783 66.8999C42.0818 67.1828 42.1949 67.4621 42.3165 67.7341C43.7343 70.9192 46.3349 73.4283 49.5688 74.731C52.8027 76.0337 56.4163 76.028 59.6461 74.7151C62.8758 73.4022 65.4685 70.885 66.8763 67.6954C68.284 64.5059 68.3965 60.8939 67.1898 57.623V57.6314ZM58.0609 71.7148C55.6641 72.5995 53.0204 72.5391 50.6666 71.5456C48.3127 70.5521 46.4252 68.7 45.3871 66.3655C45.2957 66.1621 45.2114 65.9526 45.1332 65.7408C44.4455 63.8716 44.3275 61.8404 44.7942 59.9042C45.2609 57.9679 46.2913 56.2135 47.7551 54.8629C49.2189 53.5123 51.0503 52.626 53.0177 52.3162C54.9852 52.0064 57.0003 52.287 58.8083 53.1225C60.6163 53.958 62.136 55.3108 63.1751 57.01C64.2142 58.7091 64.7261 60.6782 64.6461 62.6683C64.5661 64.6584 63.8978 66.5801 62.7256 68.1903C61.5535 69.8006 59.9302 71.0271 58.0609 71.7148Z" fill="#9BD2EA"/>
<path d="M44.9441 59.3539L41.7266 58.3813C42.5364 55.7068 44.1594 53.3511 46.37 51.6417C48.5805 49.9323 51.2687 48.9541 54.0609 48.8431L54.1921 52.2027C52.0989 52.2869 50.0839 53.0207 48.4267 54.3022C46.7694 55.5836 45.5523 57.3492 44.9441 59.3539Z" fill="#146080"/>
<path d="M45.387 66.3703L42.3163 67.7401C42.1959 67.4681 42.0816 67.1888 41.9781 66.906C40.9658 64.1681 40.8774 61.1741 41.7265 58.3813L44.944 59.3539C44.3098 61.4471 44.3783 63.6902 45.139 65.7408C45.2112 65.9575 45.2955 66.1669 45.387 66.3703Z" fill="#1E7EAA"/>
<path d="M44.4289 71.0647C43.5642 70.067 42.8523 68.9466 42.3164 67.7401L45.3871 66.3702C45.7881 67.2751 46.3216 68.1153 46.9699 68.8631L44.4289 71.0647Z" fill="#E5F2FC"/>
<path d="M103.993 50.1613V90.0388C103.993 91.3043 103.49 92.5181 102.595 93.4131C101.7 94.3081 100.487 94.8111 99.2211 94.8114H72.9707V45.3898H99.2211C100.487 45.3898 101.7 45.8925 102.595 46.7873C103.49 47.6821 103.993 48.8958 103.993 50.1613Z" fill="#1E7EAA"/>
<path d="M99.8115 50.5175H77.1542C77.0458 50.5175 76.958 50.6053 76.958 50.7137V52.8322C76.958 52.9405 77.0458 53.0284 77.1542 53.0284H99.8115C99.9199 53.0284 100.008 52.9405 100.008 52.8322V50.7137C100.008 50.6053 99.9199 50.5175 99.8115 50.5175Z" fill="#E5F2FC"/>
<path d="M99.8115 55.9041H77.1542C77.0458 55.9041 76.958 55.9919 76.958 56.1003V58.2188C76.958 58.3271 77.0458 58.415 77.1542 58.415H99.8115C99.9199 58.415 100.008 58.3271 100.008 58.2188V56.1003C100.008 55.9919 99.9199 55.9041 99.8115 55.9041Z" fill="#9BD2EA"/>
<path d="M99.3493 62.0815H77.6164C77.2528 62.0815 76.958 62.3763 76.958 62.74V89.8197C76.958 90.1833 77.2528 90.4781 77.6164 90.4781H99.3493C99.7129 90.4781 100.008 90.1833 100.008 89.8197V62.74C100.008 62.3763 99.7129 62.0815 99.3493 62.0815Z" fill="#9BD2EA"/>
<g opacity="0.58">
<path d="M82.8321 60.8741H76.2671C75.8197 60.8741 75.457 61.2368 75.457 61.6842V81.1108C75.457 81.5582 75.8197 81.9209 76.2671 81.9209H82.8321C83.2795 81.9209 83.6422 81.5582 83.6422 81.1108V61.6842C83.6422 61.2368 83.2795 60.8741 82.8321 60.8741Z" fill="#E1F1FB"/>
</g>
<path d="M66.3218 80.0552H56.9497C56.8367 80.0552 56.7451 80.1468 56.7451 80.2598V82.459C56.7451 82.572 56.8367 82.6636 56.9497 82.6636H66.3218C66.4348 82.6636 66.5264 82.572 66.5264 82.459V80.2598C66.5264 80.1468 66.4348 80.0552 66.3218 80.0552Z" fill="#9BD2EA"/>
<path d="M66.3218 84.3079H56.9497C56.8367 84.3079 56.7451 84.3995 56.7451 84.5125V86.7117C56.7451 86.8247 56.8367 86.9163 56.9497 86.9163H66.3218C66.4348 86.9163 66.5264 86.8247 66.5264 86.7117V84.5125C66.5264 84.3995 66.4348 84.3079 66.3218 84.3079Z" fill="#1E7EAA"/>
<path d="M66.3218 88.5593H56.9497C56.8367 88.5593 56.7451 88.6509 56.7451 88.764V90.9631C56.7451 91.0761 56.8367 91.1678 56.9497 91.1678H66.3218C66.4348 91.1678 66.5264 91.0761 66.5264 90.9631V88.764C66.5264 88.6509 66.4348 88.5593 66.3218 88.5593Z" fill="#146080"/>
<path d="M109.839 80.3031H88.4108C86.9283 80.3031 85.7266 81.5049 85.7266 82.9874V97.9711C85.7266 99.4535 86.9283 100.655 88.4108 100.655H109.839C111.322 100.655 112.523 99.4535 112.523 97.9711V82.9874C112.523 81.5049 111.322 80.3031 109.839 80.3031Z" fill="#E5F2FC"/>
<path d="M112.523 82.9874L112.477 84.4775H85.6797L85.7266 82.9874C85.7265 82.6348 85.7958 82.2857 85.9306 81.96C86.0655 81.6342 86.2632 81.3382 86.5125 81.089C86.7618 80.8397 87.0577 80.6419 87.3835 80.5071C87.7092 80.3723 88.0583 80.3029 88.4109 80.3031H109.837C110.19 80.3028 110.539 80.372 110.865 80.5067C111.191 80.6415 111.487 80.8392 111.736 81.0885C111.986 81.3377 112.184 81.6338 112.319 81.9596C112.454 82.2854 112.523 82.6347 112.523 82.9874Z" fill="#1E7EAA"/>
<path d="M94.1294 98.9401H88.7405C88.4055 98.9401 88.0842 98.8071 87.8472 98.5703C87.6102 98.3335 87.4769 98.0124 87.4766 97.6774V86.9259C87.4772 86.591 87.6106 86.27 87.8475 86.0333C88.0844 85.7966 88.4056 85.6635 88.7405 85.6632H94.1294C94.4645 85.6632 94.786 85.7962 95.0231 86.0329C95.2603 86.2696 95.3939 86.5908 95.3945 86.9259V97.675C95.3947 97.8411 95.3621 98.0057 95.2985 98.1593C95.235 98.3128 95.1419 98.4524 95.0243 98.5699C94.9068 98.6874 94.7673 98.7806 94.6138 98.8441C94.4602 98.9076 94.2956 98.9402 94.1294 98.9401ZM88.7405 86.0833C88.517 86.0833 88.3027 86.1721 88.1447 86.3301C87.9866 86.4881 87.8979 86.7024 87.8979 86.9259V97.675C87.8979 97.8984 87.9866 98.1128 88.1447 98.2708C88.3027 98.4288 88.517 98.5176 88.7405 98.5176H94.1294C94.3529 98.5176 94.5672 98.4288 94.7252 98.2708C94.8833 98.1128 94.972 97.8984 94.972 97.675V86.9259C94.972 86.7024 94.8833 86.4881 94.7252 86.3301C94.5672 86.1721 94.3529 86.0833 94.1294 86.0833H88.7405Z" fill="#85BEE7"/>
<path d="M110.379 85.8751H96.9586C96.8854 85.8751 96.8262 85.9344 96.8262 86.0075V86.861C96.8262 86.9341 96.8854 86.9934 96.9586 86.9934H110.379C110.452 86.9934 110.511 86.9341 110.511 86.861V86.0075C110.511 85.9344 110.452 85.8751 110.379 85.8751Z" fill="#9BD2EA"/>
<path d="M110.379 88.1453H96.9586C96.8854 88.1453 96.8262 88.2045 96.8262 88.2777V89.1311C96.8262 89.2042 96.8854 89.2635 96.9586 89.2635H110.379C110.452 89.2635 110.511 89.2042 110.511 89.1311V88.2777C110.511 88.2045 110.452 88.1453 110.379 88.1453Z" fill="#9BD2EA"/>
<path d="M90.0149 82.5673C90.0152 82.7978 89.947 83.0232 89.8192 83.215C89.6913 83.4067 89.5094 83.5563 89.2965 83.6447C89.0836 83.733 88.8493 83.7563 88.6232 83.7115C88.3971 83.6666 88.1893 83.5557 88.0263 83.3928C87.8632 83.2299 87.7521 83.0223 87.707 82.7963C87.662 82.5702 87.685 82.3359 87.7732 82.1229C87.8613 81.9099 88.0106 81.7279 88.2023 81.5998C88.3939 81.4717 88.6193 81.4033 88.8498 81.4033C89.1586 81.4033 89.4548 81.5259 89.6732 81.7442C89.8917 81.9624 90.0146 82.2585 90.0149 82.5673Z" fill="#E5F2FC"/>
<path d="M98.7768 92.7278H97.1445V98.7319H98.7768V92.7278Z" fill="#9BD2EA"/>
<path d="M101.099 92.1211H99.4668V98.7306H101.099V92.1211Z" fill="#9BD2EA"/>
<path d="M103.454 93.379H101.821V98.7307H103.454V93.379Z" fill="#9BD2EA"/>
<path d="M105.807 90.8994H104.175V98.7319H105.807V90.8994Z" fill="#9BD2EA"/>
<path d="M108.277 91.6793H106.645V98.7318H108.277V91.6793Z" fill="#9BD2EA"/>
<path d="M43.4131 59.6656C43.4131 59.6656 35.8875 62.0947 34.1446 61.6662C33.2261 61.4399 31.7901 60.1375 30.4552 58.734C30.2349 58.5004 30.0171 58.2645 29.804 58.0322C28.3331 56.4132 27.1306 54.8701 27.1306 54.8701C27.1306 54.8701 23.4858 50.5981 26.4084 48.6951C27.2727 48.8196 28.0703 49.2303 28.6737 49.8615C29.6499 50.9063 30.5635 52.5722 30.8199 53.1295C31.0763 53.6868 34.6549 58.8507 34.8415 58.9663C35.0281 59.0818 36.5905 58.6714 37.8508 58.5666C39.8971 58.3957 42.9569 57.3533 42.9569 57.3533L43.4131 59.6656Z" fill="#1A7FAA"/>
<path d="M33.0668 106.03C33.0668 106.03 34.0298 107.744 34.5943 108.091C35.3033 108.523 36.6792 109.911 37.1594 109.974C37.6397 110.038 39.367 110.345 39.0336 111.32C38.7604 112.119 34.6401 112.005 34.1755 111.604C33.7108 111.203 32.3218 109.766 31.7608 109.799C31.1999 109.831 31.4081 111.871 31.4081 111.871H30.7991C30.7991 111.871 30.5872 109.885 30.5583 109.544C30.4825 108.534 31.2023 107.79 31.2336 107.213C31.2649 106.637 31.2998 106.207 31.2998 106.207L33.0668 106.03Z" fill="#1E7FAA"/>
<path d="M37.0213 109.927C37.0213 109.927 35.6635 110.397 34.6139 109.796C33.5643 109.196 31.5625 108.283 30.8535 108.277C30.8535 108.277 31.2399 107.094 31.2483 106.962C31.2568 106.829 31.2989 106.207 31.2989 106.207L33.0527 105.925C33.0527 105.925 34.189 107.595 34.6909 107.988C35.1929 108.382 36.4808 109.362 37.0213 109.927Z" fill="#FBFAF2"/>
<path d="M16.5101 107.642C16.5101 107.642 16.6799 108.827 16.864 109.15C17.0482 109.472 17.5574 111.122 17.7885 111.43C18.0196 111.738 18.5275 114.048 17.7885 114.319C17.0494 114.589 15.3088 115.058 14.7238 114.133C14.2372 113.376 14.0354 112.47 14.1545 111.578C14.2472 110.87 14.9489 107.619 14.9393 107.297C14.9297 106.976 16.5101 107.642 16.5101 107.642Z" fill="#FBFAF2"/>
<path d="M17.4923 110.791C17.4923 110.791 17.5717 112.584 16.2176 112.584C14.8634 112.584 14.2615 110.952 14.2615 110.952C14.2615 110.952 13.8005 111.753 14.2615 113.462C14.7226 115.17 16.6485 114.817 17.0794 114.756C17.5103 114.694 19.5542 114.154 17.4923 110.791Z" fill="#1E7FAA"/>
<path d="M18.7449 66.7626C18.7449 66.7626 16.9935 68.9907 16.37 70.4712C15.7465 71.9518 14.7222 75.1849 14.8594 77.6935C14.9966 80.202 15.8223 84.9049 15.5816 85.9689C15.3409 87.033 15.1001 89.2322 14.8437 89.9869C14.5873 90.7416 13.5558 92.9408 13.4522 95.2074C13.3487 97.4739 14.1853 107.417 14.1167 108.343C14.0481 109.27 17.1175 108.704 17.1175 108.704C17.1175 108.704 17.1958 99.7417 17.5388 98.1961C17.8819 96.6506 18.2959 91.394 18.6077 91.0185C18.9195 90.6429 19.7837 86.6574 19.8391 86.0074C19.8933 85.3779 23.5706 74.4856 23.7728 72.6319C23.975 70.7782 28.5804 66.765 28.5804 66.765C28.5804 66.765 24.0737 65.0365 18.7449 66.7626Z" fill="#0C4055"/>
<path d="M30.1566 106.521C29.503 106.419 27.7553 96.3738 27.9611 94.5875C28.1669 92.8012 28.374 88.9951 27.789 87.4471C27.4062 86.4312 25.0132 81.2637 23.4027 77.6345C23.1752 77.1229 22.9633 76.6415 22.7755 76.2069C22.264 75.0261 21.9269 74.1895 21.9173 74.0174C21.8824 73.3301 19.6435 61.4989 28.4895 66.7627C28.4895 66.7627 28.5798 67.6979 28.6821 68.041C28.7844 68.384 31.1557 77.1422 31.3953 80.5077C31.6348 83.8733 32.2547 86.7273 32.3582 87.4471C32.4617 88.1669 32.2559 90.5707 32.0501 91.1882C31.8442 91.8057 33.3898 105.763 33.4945 106.107C33.5992 106.451 30.8078 106.625 30.1566 106.521Z" fill="#0C4055"/>
<path d="M25.0206 48.0692C25.0206 48.0692 26.6937 48.86 27.2751 48.9756C27.8565 49.0911 30.1123 52.0209 30.5083 53.0898C30.9043 54.1587 30.5083 55.7632 29.6958 57.647C28.8833 59.5308 29.65 60.158 29.2781 62.0406C28.9062 63.9231 28.5812 67.9074 28.6486 68.9558C28.716 70.0043 19.2452 70.2029 17.0834 68.2962C17.0834 68.2962 19.25 65.0462 19.5341 64.5768C19.8182 64.1073 19.5799 61.5771 19.3235 60.9271C19.0671 60.2771 17.2555 54.899 17.2555 54.899C17.2555 54.899 15.9712 50.4898 17.229 49.5124C18.322 48.6638 21.3 48.3605 21.8344 48.1751C22.3688 47.9897 23.9276 47.9079 25.0206 48.0692Z" fill="#1A7FAA"/>
<path d="M25.8185 46.1373C25.8185 46.1373 25.4851 49.2091 25.5549 50.2082C25.5549 50.2082 23.8168 51.9524 21.8379 48.1751C21.8379 48.1751 22.6696 46.6176 22.0425 44.4966C21.4154 42.3757 25.8185 46.1373 25.8185 46.1373Z" fill="#FBFAF2"/>
<path d="M25.5545 50.2081L25.5557 51.8006L23.5527 50.3056L25.5545 50.2081Z" fill="#FBFAF2"/>
<path d="M22.3398 70.4653C21.5525 74.2377 15.8506 70.0404 15.8506 70.0404C15.8506 70.0404 19.5472 63.8281 18.0762 58.8628C18.0642 58.8231 18.0522 58.7834 18.0413 58.7425C17.9474 58.4295 17.8535 58.1298 17.7597 57.8469C17.7428 57.7951 17.726 57.7434 17.7091 57.694C17.3889 56.7178 17.1265 55.9101 16.9135 55.2457C16.2562 53.1994 16.0709 52.5289 16.0709 52.5289C16.0709 52.5289 16.3513 49.3487 17.9222 48.9997C19.493 48.6506 21.1722 48.3196 21.1722 48.3196C21.1722 48.3196 23.8961 51.8103 24.0093 53.3751C24.1224 54.94 23.1282 66.6905 22.3398 70.4653Z" fill="#1A7FAA"/>
<path d="M30.7412 53.812C30.7412 53.812 30.9169 55.9787 29.4315 58.817C29.4315 58.817 29.4628 62.622 29.5098 63.946C29.5567 65.2701 29.8709 70.2811 29.8709 70.2811L28.2387 71.2381C28.1647 71.2816 28.08 71.3036 27.9942 71.3016C27.9083 71.2995 27.8248 71.2734 27.753 71.2263C27.6812 71.1792 27.6241 71.1129 27.588 71.035C27.5519 70.9571 27.5384 70.8707 27.5489 70.7855C28.0099 66.9721 29.5098 52.5072 26.2598 48.6193L27.7042 49.12C27.7042 49.12 30.7412 52.299 30.7412 53.812Z" fill="#1A7FAA"/>
<path d="M28.4866 44.4881C28.548 44.1041 28.6455 43.7322 28.7274 43.3482C28.8306 42.8052 28.8758 42.2528 28.8622 41.7003C28.8623 41.5993 28.8814 41.4992 28.9188 41.4054C29.0384 40.8876 29.1169 40.3611 29.1535 39.831C28.5793 36.5966 25.8277 36.1091 24.6023 36.2271C19.6563 36.7025 20.287 40.9215 21.8073 43.6142C23.3276 46.3069 26.3079 46.7799 27.0879 46.7607C27.8679 46.7414 28.4782 44.4893 28.4782 44.4893L28.4866 44.4881Z" fill="#FBFAF2"/>
<path d="M36.2432 61.9708L42.8046 60.6696L47.6711 50.2563L40.668 50.9918L36.2432 61.9708Z" fill="#917F50"/>
<path d="M25.8214 46.5814C25.7768 46.8221 25.7323 47.099 25.695 47.3951C24.7263 46.8525 23.8726 46.1264 23.1816 45.2573C24.1362 46.0409 25.8214 46.5814 25.8214 46.5814Z" fill="#EFEFD8"/>
<path d="M33.0236 60.6082C33.1937 60.6455 33.3709 60.633 33.534 60.5721C33.9156 60.3939 34.1635 59.8077 34.7377 59.9763C35.3119 60.1448 35.1927 62.0226 34.9784 62.3343C34.7642 62.6461 33.9168 62.6497 32.7769 62.1598C31.637 61.6699 33.0236 60.6082 33.0236 60.6082Z" fill="#FBFAF2"/>
<path d="M34.5328 59.9462C35.1641 59.8767 35.7984 59.8393 36.4335 59.8342C37.3182 59.8342 38.3401 59.9859 38.4075 60.1532C38.4822 60.3398 37.5192 60.282 36.6417 60.3422C35.834 60.3964 35.9977 60.5155 35.9977 60.5155C35.9977 60.5155 35.9532 60.4794 36.8403 60.5817C37.7949 60.6937 38.7578 60.8995 38.8132 61.1065C38.8397 61.2077 38.7951 61.2618 38.4388 61.2763C38.6435 61.3088 38.6615 61.3677 38.6519 61.4508C38.6025 61.8805 37.1665 61.9323 36.596 61.9455C37.0341 61.9335 37.3555 61.9696 37.1461 62.2212C36.9053 62.5077 34.8747 62.4848 34.1452 62.5438C33.3496 62.6112 34.5328 59.9462 34.5328 59.9462Z" fill="#FBFAF2"/>
<path d="M17.5974 49.12C17.5974 49.12 19.1622 49.4065 19.9289 50.6102C20.6957 51.8139 21.4937 53.5256 21.6406 54.119C21.7874 54.7124 24.7173 60.1676 24.8786 60.3144C25.0399 60.4613 26.654 60.3385 27.9059 60.4613C29.9522 60.6611 33.1456 60.1856 33.1456 60.1856L33.1781 62.5413C33.1781 62.5413 25.3372 63.5789 23.7061 62.8446C21.7104 61.9479 16.8824 55.2047 16.8824 55.2047C16.8824 55.2047 14.3774 50.4669 17.5974 49.12Z" fill="#1C7097"/>
<path d="M20.7649 60.1435L17.7087 57.6964C17.3885 56.7202 17.1261 55.9125 16.9131 55.248C16.9131 55.248 20.0114 59.3069 20.7649 60.1435Z" fill="#1A5A8D"/>
<path d="M30.4608 58.734C30.2405 58.5005 30.0226 58.2645 29.8096 58.0322C29.8096 58.0322 30.6377 55.8294 30.6919 54.9026C30.6943 54.8978 30.8857 56.9802 30.4608 58.734Z" fill="#1C7097"/>
<path d="M26.8996 36.1742C26.3664 35.9985 25.8356 35.6927 25.2686 35.8276C24.1395 36.1044 22.9515 36.1887 21.9344 36.8555C21.5095 37.1348 21.1977 37.5188 20.8342 37.8546C20.3756 38.3674 20.2227 39.1101 20.3527 40.1272C20.2378 39.5386 20.2751 38.9303 20.461 38.3602C20.52 38.182 20.6596 38.0207 20.5958 37.8125C19.5739 37.6006 18.6699 38.1086 18.2065 39.1606C17.7286 40.1971 17.6327 41.3692 17.9357 42.4696C18.387 44.1018 18.0717 45.5258 16.9727 46.7969C16.9207 46.8583 16.8751 46.9249 16.8367 46.9955C16.6164 47.3927 16.4599 47.8128 16.7729 48.2161C17.0666 48.5952 17.4782 48.5351 17.8815 48.4026C18.2679 48.9491 18.381 48.9937 19.0539 48.7963C19.1292 48.7719 19.2086 48.7627 19.2875 48.7691C19.3664 48.7755 19.4433 48.7974 19.5137 48.8336C20.0758 49.0948 20.597 48.9263 20.9245 48.4014C21.0429 48.2079 21.1245 47.994 21.1652 47.7707C21.4059 46.555 21.4493 45.3416 21.1544 44.1247C20.9004 43.0763 20.573 42.0447 20.4827 41.3453C20.5056 41.7714 20.9088 42.655 21.3638 42.9439C21.5516 42.8054 21.5095 42.5611 21.619 42.3841C21.7394 42.1819 21.8922 42.0122 22.151 42.029C22.4351 42.0471 22.4989 42.2698 22.5555 42.5009C22.606 42.7055 22.6036 42.9186 22.659 43.1208C22.7324 43.3868 22.8829 43.4314 23.0646 43.2171C23.321 42.9126 23.4257 42.5418 23.5136 42.159C23.6424 41.5572 23.5317 40.9698 23.5076 40.3764C23.4751 39.5699 23.8314 39.0174 24.5669 38.708C24.6681 38.6559 24.7785 38.624 24.8919 38.6141C25.4541 38.5897 26.0082 38.4696 26.5301 38.259C27.2656 37.9894 28.1635 38.5816 28.4789 39.4627C28.5716 39.7215 28.6161 39.9936 28.6907 40.2572C28.7425 40.4414 28.7642 40.6424 28.9411 40.7664C29.2517 40.7796 29.2637 40.534 29.2794 40.3378C29.3997 38.7971 29.1433 37.4104 27.6568 36.5558C27.4762 36.4523 27.3342 36.2874 27.1332 36.2164C27.0569 36.1947 26.9787 36.1805 26.8996 36.1742Z" fill="#917F50"/>
<path d="M26.7521 43.5384C26.8915 43.4949 27.0351 43.4658 27.1806 43.4518C27.248 43.4421 27.3118 43.4277 27.3214 43.388C27.331 43.3482 27.3058 43.2881 27.2708 43.2243L27.0542 42.8054C26.7545 42.2095 26.5342 41.722 26.5643 41.7076C26.5944 41.6931 26.8604 42.171 27.1661 42.7669C27.2383 42.9137 27.3082 43.0545 27.3732 43.1882C27.3954 43.2196 27.4108 43.2553 27.4182 43.2931C27.4257 43.3308 27.4251 43.3697 27.4165 43.4072C27.4058 43.4289 27.3906 43.448 27.3719 43.4634C27.3532 43.4787 27.3315 43.49 27.3082 43.4963C27.2688 43.507 27.2285 43.5135 27.1878 43.5156C27.0438 43.5386 26.8977 43.5463 26.7521 43.5384Z" fill="#146080"/>
<path d="M25.5735 41.6269C25.5775 41.7048 25.551 41.7813 25.4995 41.8399C25.448 41.8986 25.3757 41.9349 25.2979 41.9411C25.26 41.9457 25.2216 41.9428 25.1849 41.9323C25.1482 41.9219 25.114 41.9042 25.0842 41.8803C25.0545 41.8564 25.0298 41.8267 25.0117 41.7931C24.9937 41.7595 24.9825 41.7227 24.9789 41.6847C24.9749 41.607 25.0013 41.5309 25.0526 41.4725C25.1038 41.414 25.1759 41.3779 25.2534 41.3717C25.2912 41.3668 25.3297 41.3696 25.3665 41.3799C25.4032 41.3902 25.4376 41.4078 25.4674 41.4316C25.4973 41.4554 25.5221 41.4849 25.5403 41.5185C25.5585 41.552 25.5698 41.5889 25.5735 41.6269Z" fill="#4797C0"/>
<path d="M28.2796 41.627C28.2839 41.7048 28.2576 41.7812 28.2064 41.84C28.1551 41.8987 28.0829 41.935 28.0051 41.9411C27.9672 41.9457 27.9288 41.9426 27.8921 41.9321C27.8554 41.9216 27.8211 41.9039 27.7913 41.88C27.7615 41.8562 27.7368 41.8266 27.7185 41.7931C27.7003 41.7596 27.6888 41.7227 27.685 41.6848C27.681 41.6069 27.7076 41.5306 27.7591 41.4722C27.8106 41.4137 27.8829 41.3777 27.9606 41.3718C27.9984 41.3671 28.0367 41.37 28.0734 41.3804C28.11 41.3908 28.1442 41.4084 28.1739 41.4321C28.2036 41.4559 28.2283 41.4854 28.2464 41.5189C28.2646 41.5523 28.2759 41.5891 28.2796 41.627Z" fill="#4797C0"/>
<path d="M26.6352 44.5652C26.5404 44.6677 26.4199 44.7429 26.2861 44.7831C26.0911 44.8441 25.8835 44.8524 25.6843 44.8071C25.5349 44.7711 25.4041 44.681 25.3171 44.5543L25.1787 44.5832C25.2125 44.6378 25.2529 44.6879 25.2991 44.7325C25.3987 44.8297 25.524 44.8965 25.6602 44.9251C25.8832 44.9708 26.1146 44.9516 26.327 44.8697C26.4726 44.8178 26.5986 44.7224 26.6882 44.5965C26.7471 44.505 26.752 44.4436 26.7471 44.4424C26.7423 44.4412 26.7002 44.4906 26.6352 44.5652Z" fill="#146080"/>
<path d="M49.6309 58.3163H52.4632C53.1228 58.3259 53.9425 58.3343 54.5215 58.9591C54.8523 59.3492 55.0299 59.8463 55.021 60.3578C55.021 61.6229 54.1568 61.9346 53.7283 62.0947L55.1811 64.6068H53.4442L52.1972 62.3619H51.2089V64.6068H49.6321L49.6309 58.3163ZM51.2077 59.4935V61.1943H52.5089C52.7316 61.1859 53.4526 61.1679 53.4526 60.3301C53.4526 59.5284 52.8736 59.5019 52.5438 59.4935H51.2077Z" fill="#146080"/>
<path d="M57.1366 60.4108C57.1811 60.3578 57.2256 60.3036 57.2702 60.2591C57.5946 59.9816 58.0111 59.8355 58.4378 59.8498C59.5777 59.8498 60.4588 60.7141 60.4588 62.2645C60.4588 63.2166 60.0399 64.6959 58.4462 64.6959C57.9298 64.6959 57.6614 64.5262 57.2967 64.3035V66.2222H55.916V59.9738H57.1366V60.4108ZM58.2199 60.82C58.081 60.8206 57.9442 60.8549 57.8216 60.9202C57.6989 60.9854 57.5939 61.0795 57.5157 61.1944C57.3195 61.4532 57.2305 61.854 57.2305 62.2909C57.2305 62.8784 57.3821 63.2443 57.5603 63.4393C57.6395 63.5227 57.7346 63.5895 57.8401 63.6356C57.9455 63.6817 58.0591 63.7062 58.1742 63.7077C58.8434 63.7077 59.1371 62.9855 59.1371 62.2548C59.1371 61.6397 58.9674 60.9897 58.4065 60.8465C58.3469 60.8298 58.2854 60.8209 58.2235 60.82H58.2199Z" fill="#146080"/>
<path opacity="0.3" d="M97.033 64.5984C104.773 64.5984 111.047 58.3244 111.047 50.5849C111.047 42.8455 104.773 36.5714 97.033 36.5714C89.2936 36.5714 83.0195 42.8455 83.0195 50.5849C83.0195 58.3244 89.2936 64.5984 97.033 64.5984Z" fill="#1E7EAA"/>
<path d="M106.938 61.2233L123.06 81.4696C123.376 81.8656 123.448 82.3399 123.219 82.5216L122.497 83.0994C122.269 83.2812 121.824 83.0994 121.509 82.7082L105.381 62.4619C105.066 62.0647 104.994 61.5916 105.223 61.4099L105.945 60.8321C106.176 60.6503 106.621 60.8261 106.938 61.2233Z" fill="#0C4055"/>
<path d="M115.985 72.585L123.061 81.4695C123.376 81.8655 123.448 82.3398 123.219 82.5215L122.497 83.0993C122.27 83.2811 121.824 83.0993 121.509 82.7081L114.434 73.8236L115.985 72.585Z" fill="#1E7EAA"/>
<path d="M99.9077 64.986C102.106 64.5091 104.166 63.5366 105.931 62.1425C107.696 60.7484 109.119 58.9696 110.092 56.9417C111.065 54.9139 111.562 52.6907 111.546 50.4415C111.529 48.1924 110.998 45.9768 109.995 43.9638C108.992 41.9508 107.542 40.1936 105.756 38.8261C103.97 37.4586 101.896 36.5171 99.6909 36.0732C97.4859 35.6294 95.2087 35.695 93.033 36.2651C90.8572 36.8352 88.8404 37.8947 87.1364 39.3627C87.0558 39.4314 86.9751 39.5024 86.8957 39.5746C84.476 41.7538 82.8443 44.6715 82.2543 47.8739C81.6643 51.0763 82.149 54.3839 83.6332 57.2823C85.1173 60.1807 87.5177 62.5075 90.4609 63.9007C93.4041 65.2939 96.7252 65.6754 99.9077 64.986ZM86.667 59.6512C84.8671 57.6519 83.7004 55.1639 83.3144 52.5016C82.9285 49.8393 83.3407 47.1224 84.4988 44.6944C85.657 42.2664 87.5091 40.2363 89.821 38.8608C92.1329 37.4854 94.8007 36.8263 97.4871 36.9671C100.174 37.1078 102.758 38.0419 104.913 39.6514C107.069 41.2608 108.699 43.4733 109.597 46.009C110.495 48.5448 110.621 51.2899 109.959 53.8973C109.297 56.5047 107.877 58.8572 105.878 60.6575C104.552 61.8552 103.002 62.7794 101.318 63.3771C99.6339 63.9749 97.8483 64.2345 96.0637 64.141C94.2791 64.0475 92.5304 63.6028 90.918 62.8324C89.3055 62.0619 87.8609 60.9809 86.667 59.6512Z" fill="#0C4055"/>
</svg>
