<svg width="70" height="70" viewBox="0 0 70 70" fill="none" xmlns="http://www.w3.org/2000/svg">
<path d="M15.4977 19.6427C15.4977 18.0089 15.4977 16.3747 15.4977 14.7401C15.4966 14.5125 15.5673 14.2904 15.6997 14.1052C15.8321 13.9201 16.0195 13.7814 16.2353 13.7089C16.4451 13.6331 16.6734 13.6249 16.8882 13.6853C17.103 13.7457 17.2935 13.8718 17.4331 14.046C17.6236 14.2747 17.6826 14.5418 17.6819 14.8347C17.6781 16.3644 17.6819 17.8934 17.6819 19.423V19.6654C17.7882 19.6427 17.8278 19.5669 17.8816 19.5131C18.6393 18.7593 19.3931 18.0029 20.1501 17.2497C20.4742 16.9257 20.8631 16.8174 21.3012 16.9749C21.7309 17.1285 21.9662 17.4494 22.0213 17.8927C22.0417 18.0499 22.025 18.2097 21.9725 18.3592C21.9201 18.5088 21.8333 18.644 21.7193 18.7541C21.4535 19.0263 21.1832 19.2934 20.9143 19.5623C19.7623 20.713 18.6118 21.863 17.4629 23.0124C16.9016 23.5737 16.2878 23.5737 15.7258 23.0124C14.3224 21.6111 12.9198 20.2096 11.5181 18.8079C11.1875 18.4793 11.0793 18.0982 11.2212 17.6613C11.367 17.2115 11.695 16.9587 12.1656 16.9114C12.5279 16.8758 12.8202 17.0268 13.073 17.2802C13.8067 18.0185 14.5494 18.7554 15.2864 19.4949C15.3389 19.5561 15.3868 19.6211 15.4296 19.6894L15.4977 19.6427Z" fill="black"/>
<path d="M53.6846 17.9212C53.6846 19.555 53.6846 21.1892 53.6846 22.8238C53.6853 23.0514 53.6144 23.2735 53.4819 23.4586C53.3494 23.6437 53.1621 23.7824 52.9463 23.855C52.7365 23.9309 52.5082 23.9391 52.2935 23.8786C52.0788 23.818 51.8885 23.6917 51.7492 23.5173C51.558 23.2885 51.499 23.0222 51.5003 22.7292C51.5042 21.1996 51.5003 19.6699 51.5003 18.141V17.8985C51.394 17.9212 51.3545 17.9971 51.3007 18.0509C50.5437 18.804 49.7899 19.561 49.0322 20.3142C48.7081 20.6383 48.3192 20.7465 47.8804 20.589C47.4513 20.4354 47.2161 20.1146 47.161 19.6706C47.1403 19.5135 47.1568 19.3538 47.2092 19.2043C47.2615 19.0548 47.3483 18.9197 47.4624 18.8098C47.7281 18.5376 47.999 18.2706 48.268 18.0016C49.4178 16.8513 50.5681 15.7011 51.7188 14.5509C52.2801 13.9902 52.8932 13.9896 53.4558 14.5509C54.8584 15.9522 56.261 17.3534 57.6636 18.7547C57.9935 19.084 58.1024 19.4677 57.9604 19.902C57.8139 20.3518 57.4866 20.6046 57.0161 20.6512C56.6538 20.6875 56.3608 20.5365 56.1087 20.2831C55.3724 19.5429 54.6315 18.8072 53.8946 18.0684C53.8422 18.0082 53.7943 17.9443 53.7513 17.8772L53.6846 17.9212Z" fill="black"/>
<path d="M39.9915 25.0249C39.9046 25.0002 39.8148 24.9873 39.7245 24.9867C39.368 24.9867 38.9986 25.1403 38.7186 25.5214C38.4379 25.8909 38.3115 26.4638 38.3115 27.088C38.3115 27.9306 38.5267 28.4491 38.7821 28.7298C38.8957 28.8488 39.0318 28.944 39.1826 29.0097C39.3334 29.0755 39.4958 29.1106 39.6603 29.1128C40.6157 29.1128 41.0357 28.081 41.0357 27.0387C41.0357 26.1579 40.7933 25.2291 39.9915 25.0249Z" fill="#1F9ED3"/>
<path d="M31.7267 23.1187H29.79V25.594H31.6755C31.9996 25.581 33.0444 25.5545 33.0444 24.3366C33.0444 23.1706 32.2044 23.1317 31.7267 23.1187Z" fill="#1F9ED3"/>
<path d="M35.9456 14.8976C29.0994 14.8976 23.5498 20.7701 23.5498 28.0226C23.5498 35.2751 29.0988 41.1476 35.9456 41.1476C42.7925 41.1476 48.3415 35.2716 48.3415 28.0226C48.3415 20.7736 42.7918 14.8976 35.9456 14.8976ZM33.4486 31.7901L31.5613 28.2666H30.0651V31.7901H27.6784V21.9187H31.9653C32.9634 21.9334 34.2038 21.9474 35.0781 22.9261C35.5241 23.4427 35.8333 24.2264 35.8333 25.1206C35.8333 27.1061 34.5259 27.5961 33.8783 27.8471L36.0762 31.7901H33.4486ZM40.7685 31.7565C39.9977 31.7565 39.5985 31.4943 39.0537 31.1511V34.1041H36.9932V24.476H38.8149V25.1493C38.8772 25.0679 38.9436 24.99 39.0138 24.9158C39.3589 24.5725 39.9835 24.2866 40.7556 24.2866C42.4569 24.2866 43.7717 25.6184 43.7717 28.0079C43.7717 29.4739 43.1471 31.7565 40.7685 31.7565Z" fill="#1F9ED3"/>
<path d="M34.7743 13.6629C27.0095 13.5981 21.2838 19.8514 21.228 26.856C21.1632 34.5793 27.3537 40.471 34.668 40.4671C41.9688 40.4729 47.9369 34.5514 48.0316 27.2779C48.1288 19.6725 42.112 13.7219 34.7743 13.6629ZM46.6679 27.4412C46.6469 29.0414 46.2822 30.6183 45.5984 32.0651C44.9754 33.412 44.1145 34.6354 43.057 35.6766C41.6084 37.1025 39.8908 38.067 37.9606 38.6724C37.3423 38.8668 36.7058 38.9614 36.0648 39.034C35.6014 39.0865 35.136 39.093 34.6719 39.104C33.7406 39.1121 32.8113 39.0164 31.9011 38.8188C31.2886 38.6727 30.6898 38.4739 30.1116 38.2245C29.344 37.9061 28.6085 37.5154 27.915 37.0578C27.1755 36.5704 26.5215 35.9832 25.9057 35.35C24.4208 33.8203 23.481 31.9887 22.9158 29.9502C22.8169 29.5575 22.7456 29.1584 22.7026 28.7557C22.623 28.1402 22.5858 27.52 22.5911 26.8994C22.5869 26.0235 22.6801 25.1498 22.8692 24.2945C23.3403 22.3488 24.2836 20.5492 25.6156 19.0547C26.9477 17.5602 28.6274 16.4169 30.5063 15.726C31.3204 15.4188 32.1695 15.2139 33.0341 15.1161C33.825 15.0283 34.6218 15.0042 35.4167 15.0441C36.132 15.0686 36.843 15.1672 37.538 15.3384C39.0217 15.7273 40.408 16.3469 41.6499 17.2472C43.2158 18.3827 44.4732 19.7976 45.3443 21.5386C45.7814 22.3934 46.1233 23.2937 46.3639 24.2232C46.4724 24.6856 46.5491 25.1549 46.5933 25.6277C46.6548 26.2302 46.6797 26.8358 46.6679 27.4412Z" fill="black"/>
<path d="M44.0642 25.6906C43.9994 25.3975 43.9184 25.1082 43.8218 24.824C43.676 24.4403 43.4426 24.111 43.2002 23.787C42.801 23.2522 42.2695 22.8873 41.6719 22.6099C41.5944 22.5749 41.5136 22.5475 41.4308 22.5283C41.1599 22.4602 40.8883 22.3921 40.6148 22.3338C40.2953 22.2646 39.9662 22.2526 39.6426 22.2982C39.3049 22.3448 38.9789 22.4408 38.6483 22.5192C38.5864 22.5367 38.5209 22.5367 38.459 22.5192C38.2615 22.464 38.0566 22.44 37.8517 22.4479C37.5166 22.455 37.1809 22.4479 36.8458 22.4479C36.6313 22.4479 36.4154 22.4284 36.2074 22.5036C36.1426 22.5263 36.1186 22.4907 36.0965 22.4388C35.9954 22.2022 35.8412 21.9987 35.7038 21.7842C35.3797 21.2786 34.9072 20.9487 34.4075 20.648C34.2735 20.5697 34.1308 20.5074 33.9823 20.4626C33.1957 20.2131 32.375 20.0882 31.5498 20.0925C30.2483 20.1035 28.9475 20.0873 27.6466 20.1003C27.2934 20.1042 26.9453 20.1755 26.6511 20.4108C26.498 20.5246 26.3781 20.6772 26.3037 20.8528C26.2074 21.0894 26.1545 21.3415 26.1475 21.5969C26.1475 24.4189 26.1475 27.2412 26.1475 30.0636C26.1482 30.2781 26.1732 30.4919 26.222 30.7008C26.2623 30.8909 26.3442 31.0697 26.4618 31.2245C26.5777 31.383 26.7345 31.5069 26.9155 31.5829C27.1415 31.6782 27.3833 31.7303 27.6285 31.7365C28.2241 31.7365 28.8198 31.732 29.4148 31.7365C29.6291 31.7314 29.8425 31.7074 30.0526 31.6646C30.2807 31.6266 30.4918 31.5196 30.6573 31.358C30.8167 31.2199 30.9317 31.0376 30.9878 30.8343C31.0565 30.5465 31.1233 30.2613 31.1026 29.9625C31.1048 29.9452 31.1083 29.9281 31.1129 29.9113C31.1777 30.0293 31.2296 30.1194 31.2808 30.2088C31.4837 30.5588 31.6535 30.9283 31.9017 31.251C32.0125 31.4009 32.1635 31.5162 32.3373 31.5835C32.5752 31.6764 32.8273 31.7277 33.0826 31.7352C33.7081 31.732 34.3336 31.7352 34.9623 31.7352C35.0763 31.7352 35.0783 31.7352 35.0789 31.8512C35.0789 32.0768 35.0627 32.3049 35.0835 32.5266C35.1159 32.8785 35.1639 33.2272 35.3991 33.5221C35.5131 33.6749 35.6647 33.7955 35.8392 33.8721C36.0702 33.9689 36.3168 34.0232 36.5671 34.0322C37.0376 34.0361 37.5082 34.0322 37.9788 34.0322C38.2331 34.0339 38.4868 34.0072 38.7351 33.9525C38.9564 33.9073 39.1599 33.7995 39.3217 33.6421C39.4652 33.5161 39.5724 33.3541 39.6322 33.1728C39.7327 32.8421 39.7741 32.4964 39.7547 32.1513C39.7501 32.0865 39.7547 32.0217 39.7547 31.9569C39.7547 31.8532 39.7547 31.8506 39.8642 31.8558C40.119 31.8731 40.375 31.8574 40.6258 31.8091C40.9194 31.7482 41.2091 31.6795 41.5001 31.6004C41.7132 31.5428 41.9159 31.4522 42.101 31.3321C42.5715 31.0307 43.0084 30.693 43.3078 30.2062C43.3312 30.168 43.3603 30.1323 43.3863 30.096C43.5799 29.8286 43.7328 29.534 43.84 29.2217C43.9762 28.7933 44.086 28.3569 44.1686 27.915C44.2251 27.6249 44.2514 27.3297 44.247 27.0342C44.2438 26.5803 44.1824 26.1288 44.0642 25.6906ZM35.2287 30.3806C34.5086 30.3806 33.7878 30.3773 33.0671 30.3806C33.0217 30.385 32.9761 30.3748 32.9369 30.3515C32.8978 30.3282 32.8671 30.2929 32.8493 30.2509C32.3101 29.2709 31.7643 28.2942 31.2251 27.3142C31.209 27.2737 31.1802 27.2396 31.143 27.2169C31.1058 27.1942 31.0623 27.1842 31.0189 27.1884C30.6385 27.1956 30.258 27.1884 29.8776 27.1884C29.7356 27.1884 29.735 27.1884 29.735 27.3375C29.735 28.2834 29.735 29.229 29.735 30.1745C29.733 30.2094 29.733 30.2445 29.735 30.2795C29.7447 30.3605 29.709 30.3793 29.6326 30.3793C28.9572 30.3758 28.2816 30.3758 27.6058 30.3793C27.53 30.3793 27.493 30.3605 27.504 30.2788C27.506 30.249 27.506 30.2192 27.504 30.1894C27.504 27.3375 27.504 24.4857 27.504 21.6338C27.504 21.4355 27.4729 21.4562 27.6764 21.4569C29.0972 21.4569 30.5186 21.4569 31.9393 21.4627C32.4253 21.4559 32.9092 21.5285 33.3717 21.6779C34.2934 21.9929 34.8365 22.6501 35.064 23.5815C35.2155 24.1621 35.1934 24.7743 35.0005 25.3425C34.7963 25.9323 34.3828 26.3361 33.8267 26.6019C33.6647 26.679 33.4981 26.7451 33.3212 26.8216L35.379 30.3819L35.2287 30.3806ZM42.4542 29.0123C42.2398 29.4778 41.8928 29.8697 41.4567 30.1388C41.0929 30.3512 40.684 30.4744 40.2635 30.4985C39.6908 30.5499 39.1176 30.4064 38.6366 30.0915C38.566 30.0455 38.4921 30.0053 38.4065 29.9547C38.3905 30.0125 38.3856 30.0728 38.3923 30.1323C38.3923 30.9179 38.3923 31.7034 38.3923 32.489C38.3923 32.524 38.3923 32.559 38.3923 32.594C38.3923 32.6426 38.378 32.6705 38.3275 32.6685C38.3028 32.6685 38.2776 32.6685 38.2529 32.6685H36.5684C36.4277 32.6685 36.4388 32.6796 36.4388 32.5389V29.0713C36.4388 27.3749 36.4388 25.6787 36.4388 23.9827C36.4388 23.7746 36.4174 23.8058 36.6099 23.8051C37.0899 23.8051 37.5702 23.8051 38.0507 23.8051C38.157 23.8051 38.1583 23.8051 38.1596 23.9088C38.1596 24.0683 38.1596 24.2277 38.1596 24.382C38.179 24.3982 38.1946 24.3962 38.2043 24.382C38.5096 23.9996 38.9218 23.7986 39.3865 23.6975C40.0154 23.5488 40.6764 23.6233 41.2564 23.9082C41.9143 24.2322 42.3401 24.7611 42.6026 25.4326C42.7927 25.9393 42.8865 26.4769 42.8794 27.018C42.8936 27.7067 42.7481 28.3893 42.4542 29.0123Z" fill="black"/>
<path d="M29.7336 24.3489C29.7336 23.9762 29.7336 23.6035 29.7336 23.2308C29.7336 23.1148 29.7336 23.1129 29.8632 23.1135H31.9729C32.1475 23.1143 32.3214 23.1345 32.4914 23.1738C32.9024 23.2684 33.1713 23.4979 33.2783 23.8732C33.3628 24.1597 33.3648 24.4644 33.2841 24.752C33.1662 25.1733 32.8492 25.4183 32.3968 25.5266C32.2221 25.569 32.0431 25.5907 31.8634 25.5914H29.8716C29.7362 25.5914 29.7342 25.5914 29.7342 25.465C29.7329 25.0943 29.7336 24.7216 29.7336 24.3489Z" fill="black"/>
<path d="M38.3053 27.1101C38.2936 26.7365 38.3467 26.3637 38.4621 26.0082C38.5356 25.7843 38.6556 25.5785 38.8141 25.4041C39.3695 24.7968 40.2744 24.8856 40.7002 25.5895C40.8395 25.8272 40.9307 26.0899 40.9685 26.3627C41.0534 26.9124 41.0502 27.4588 40.894 27.9967C40.8293 28.2333 40.7207 28.4556 40.5738 28.652C40.0242 29.3714 39.039 29.1854 38.6462 28.5697C38.4864 28.3036 38.3835 28.0072 38.3442 27.6992C38.314 27.5043 38.301 27.3072 38.3053 27.1101Z" fill="black"/>
<path d="M40.2121 31.6452C40.1767 31.5218 40.1742 31.3913 40.2049 31.2667C40.2581 31.3911 40.2354 31.5181 40.2121 31.6452Z" fill="black"/>
<path d="M35.9959 55.3061C29.9996 55.3061 24.0036 55.3048 18.0078 55.3022C17.3597 55.3022 16.7115 55.345 16.0634 55.253C15.6881 55.2108 15.3276 55.0823 15.0101 54.8777C14.7334 54.6904 14.5817 54.4564 14.583 54.0824C14.5947 50.3201 14.5947 46.5574 14.583 42.7943C14.583 42.4054 14.736 42.1682 15.0283 41.9796C15.4613 41.7015 15.9448 41.5907 16.4464 41.5719C16.8107 41.5557 17.1769 41.5654 17.5418 41.5654C19.5606 41.5654 21.5796 41.5654 23.5988 41.5654C23.7524 41.5654 23.8859 41.5797 24.0201 41.6885C25.9185 43.2305 28.0846 44.2021 30.4238 44.7997C32.4806 45.3275 34.6031 45.5547 36.725 45.4744C39.5477 45.3661 42.2777 44.8204 44.8613 43.6148C45.9631 43.1002 47.006 42.4858 47.9464 41.7009C48.0543 41.6082 48.1932 41.5598 48.3353 41.5654C50.679 41.5693 53.0227 41.5654 55.3664 41.5699C55.8768 41.5619 56.3809 41.6823 56.8326 41.9199C57.2052 42.1202 57.3887 42.4009 57.3874 42.8617C57.3731 46.5933 57.3731 50.3249 57.3874 54.0565C57.3874 54.4668 57.2253 54.7241 56.9051 54.9159C56.4365 55.1966 55.9213 55.2958 55.3878 55.3016C54.5154 55.3113 53.643 55.3087 52.7706 55.3087L35.9959 55.3061Z" fill="#1F9ED3"/>
<path d="M58.4766 52.5984C58.4766 48.8664 58.4714 45.1344 58.4812 41.4023C58.4812 40.5643 58.1571 39.8986 57.5433 39.3555C57.2926 39.1391 57.0132 38.9585 56.713 38.8188C56.0237 38.4954 55.2706 38.3308 54.5093 38.3372C51.9906 38.3275 49.4712 38.3333 46.9525 38.3333C46.5648 38.3278 46.1888 38.4664 45.8974 38.7222C45.0424 39.4579 44.0825 40.0263 43.0643 40.502C40.7212 41.5974 38.2388 42.1062 35.6709 42.2326C33.5043 42.3425 31.3338 42.1171 29.2361 41.5644C27.1062 41.0044 25.1417 40.1106 23.4364 38.6937C23.1266 38.4345 22.7695 38.3333 22.3715 38.3333C20.0084 38.3359 17.645 38.3359 15.2814 38.3333C14.9084 38.3271 14.5353 38.3453 14.1647 38.3878C13.3603 38.4928 12.6091 38.7417 11.961 39.2433C11.248 39.7969 10.8701 40.5118 10.8721 41.436C10.8816 45.251 10.8816 49.066 10.8721 52.881C10.8721 53.7457 11.2104 54.4269 11.8488 54.9732C12.5521 55.5734 13.394 55.8385 14.2988 55.9312C14.9288 55.996 15.5621 55.972 16.194 55.972C22.3618 55.9777 28.5296 55.9787 34.6974 55.9753V55.9656H54.4147C54.7985 55.9694 55.1817 55.9351 55.5587 55.8632C56.3766 55.6985 57.1233 55.3868 57.7228 54.7853C58.2206 54.2849 58.4922 53.688 58.4773 52.9705C58.4747 52.8473 58.4766 52.7229 58.4766 52.5984ZM56.1841 53.5454C55.7849 53.8319 55.326 53.9485 54.8463 53.9991C54.7128 54.012 54.5774 54.0101 54.4425 54.0101H34.6993V54.0172H16.417C15.8777 54.0172 15.3391 54.0127 14.7999 54.0107C14.3427 54.0142 13.8904 53.9161 13.4757 53.7236C13.2955 53.6423 13.1336 53.5252 12.9999 53.3795C12.9405 53.3213 12.8939 53.2514 12.8632 53.1741C12.8325 53.0969 12.8184 53.014 12.8217 52.9309C12.8256 52.8791 12.8217 52.8272 12.8217 52.7754C12.8217 49.0336 12.8275 45.2919 12.8133 41.5501C12.8133 41.1243 12.9889 40.8676 13.3253 40.6706C13.6679 40.4731 14.049 40.3517 14.4427 40.3147C14.6387 40.2957 14.8356 40.2871 15.0325 40.2888C17.3542 40.2888 19.6759 40.2888 21.9975 40.2836C22.1925 40.2767 22.3835 40.3407 22.5349 40.4638C24.4242 41.9455 26.5689 42.895 28.8835 43.4829C30.621 43.9273 32.405 44.1653 34.1983 44.192C37.3094 44.2347 40.3252 43.7661 43.2075 42.5651C44.5336 42.0129 45.782 41.3252 46.902 40.4178C47.0139 40.327 47.1554 40.2808 47.2993 40.2882C49.6728 40.2907 52.0461 40.2907 54.4192 40.2882C54.8763 40.2788 55.3307 40.3598 55.7563 40.5267C55.9119 40.5886 56.0591 40.6698 56.1945 40.7684C56.3057 40.8436 56.3958 40.9459 56.4564 41.0657C56.517 41.1855 56.546 41.3188 56.5406 41.4529C56.5328 45.2553 56.5328 49.0593 56.5406 52.8648C56.5456 52.9995 56.5154 53.1331 56.4529 53.2525C56.3903 53.3719 56.2977 53.4728 56.1841 53.5454Z" fill="black"/>
</svg>
