<svg width="110" height="111" viewBox="0 0 110 111" fill="none" xmlns="http://www.w3.org/2000/svg">
<path opacity="0.1" d="M99.8847 88.1405L13.768 88.1028C13.768 88.1028 -0.785636 63.3976 6.97649 46.8711C14.7386 30.3447 26.0747 42.0098 27.0199 30.0656C27.0515 29.6582 27.026 29.261 27.026 28.8709C27.026 28.7782 27.026 28.6865 27.0311 28.5949C27.3214 21.7412 30.9534 17.3056 35.7507 14.7593C35.9055 14.6768 36.0562 14.5974 36.2182 14.5189C43.8621 10.7025 54.1991 11.4878 58.7743 14.7685C66.5598 20.351 66.515 27.0701 82.5883 24.8518C98.6615 22.6335 101.727 41.1715 97.5421 50.6111C91.6052 64.0128 114.009 61.8148 99.8847 88.1405Z" fill="#196181"/>
<path d="M57.5415 47.4101C62.2939 42.6578 62.2939 34.9526 57.5415 30.2002C52.7891 25.4478 45.0839 25.4478 40.3315 30.2002C35.5791 34.9526 35.5791 42.6578 40.3315 47.4101C45.0839 52.1625 52.7891 52.1625 57.5415 47.4101Z" fill="#F2D386"/>
<path d="M50.6511 48.3262C55.8084 47.4159 59.2513 42.4972 58.341 37.3399C57.4307 32.1827 52.5119 28.7398 47.3547 29.6501C42.1974 30.5604 38.7545 35.4791 39.6648 40.6364C40.5751 45.7937 45.4939 49.2365 50.6511 48.3262Z" fill="#F6E6B5"/>
<path d="M43.458 36.6839L45.9972 36.0728C46.59 35.9394 47.3263 35.7672 47.9802 36.2042C48.3597 36.4834 48.6256 36.8903 48.7288 37.35C49.0008 38.4836 48.2939 38.9501 47.9456 39.1833L49.7881 41.1185L48.2308 41.4933L46.6297 39.7496L45.7436 39.9635L46.2274 41.9751L44.8147 42.3214L43.458 36.6839ZM45.1253 37.3969L45.492 38.9246L46.6572 38.6435C46.8609 38.5885 47.4985 38.4164 47.3182 37.6657C47.145 36.9477 46.6195 37.0485 46.3231 37.1117L45.1253 37.3969Z" fill="#D7C087"/>
<path d="M50.6358 36.9436C50.6644 36.8856 50.6929 36.8285 50.7234 36.7786C50.9539 36.4599 51.2955 36.2393 51.6808 36.1604C52.6994 35.9139 53.6792 36.4985 54.0132 37.8918C54.2169 38.7464 54.1619 40.1621 52.733 40.5054C52.2706 40.6164 51.9935 40.5227 51.6187 40.4035L52.0322 42.1207L50.7937 42.412L49.4482 36.8153L50.5421 36.5556L50.6358 36.9436ZM51.6981 37.076C51.574 37.1067 51.4591 37.1671 51.3633 37.2519C51.2676 37.3366 51.1937 37.4434 51.1481 37.5629C51.028 37.8368 51.0351 38.2157 51.1288 38.6068C51.2561 39.1334 51.47 39.4288 51.6717 39.5653C51.7612 39.6231 51.8614 39.6624 51.9663 39.681C52.0713 39.6995 52.1789 39.6969 52.2828 39.6732C52.8817 39.5286 52.9896 38.8187 52.8318 38.1638C52.6994 37.6128 52.407 37.0668 51.8733 37.0597C51.8145 37.0572 51.7555 37.0627 51.6981 37.076Z" fill="#D7C087"/>
<path d="M55.4829 105.507C83.613 105.507 106.417 100.579 106.417 94.5C106.417 88.421 83.613 83.4929 55.4829 83.4929C27.3528 83.4929 4.54883 88.421 4.54883 94.5C4.54883 100.579 27.3528 105.507 55.4829 105.507Z" fill="#E5F2FC"/>
<path d="M52.1732 56.6398L51.4756 83.6652L51.4236 85.6961L40.6406 88.0142L40.2332 87.8075L37.8508 86.5944L34.6843 84.9831L34.4072 84.8426L34.4643 82.6568L35.1579 55.771L52.1732 56.6398Z" fill="#F6E6B5"/>
<path d="M51.6279 56.0185L34.8997 55.165C34.746 55.1546 34.5918 55.1751 34.4461 55.2252C34.3004 55.2753 34.1661 55.3539 34.0512 55.4566C33.9364 55.5592 33.8431 55.6838 33.777 55.823C33.7109 55.9621 33.6733 56.1131 33.6663 56.267L32.6702 81.7422L32.5928 83.8149C32.7153 83.9377 32.8545 84.0426 33.0063 84.1265L34.4129 84.8395L34.6899 84.98L34.7704 82.8065L35.7084 57.5564C35.715 57.4023 35.7524 57.2511 35.8183 57.1116C35.8842 56.9721 35.9774 56.8473 36.0924 56.7444C36.2073 56.6415 36.3417 56.5626 36.4876 56.5125C36.6335 56.4623 36.7879 56.4419 36.9418 56.4524L50.372 57.1368C50.6871 57.1514 50.9845 57.2863 51.203 57.5137C51.4215 57.7411 51.5444 58.0437 51.5464 58.359L51.253 83.713L51.2317 85.7378L53.0039 85.3569L52.9886 83.5093L52.8012 57.2234C52.7953 56.9111 52.6707 56.6127 52.4528 56.3889C52.2349 56.1651 51.9399 56.0327 51.6279 56.0185Z" fill="#F2D386"/>
<path d="M44.9162 83.3392C48.2529 82.3207 51.2738 79.6725 49.5454 74.6013C48.425 71.3003 44.6087 69.3407 41.1752 70.018C36.9993 70.843 35.3788 74.0116 36.5074 78.9351C37.2774 82.3248 40.7403 84.6093 44.9162 83.3392Z" fill="#F2D386"/>
<path d="M43.7672 67.8058C45.0241 67.4239 46.1617 66.4247 45.5109 64.515C45.0862 63.2714 43.6511 62.5329 42.3535 62.7835C40.7819 63.0952 40.1698 64.2879 40.5955 66.1446C40.8919 67.4239 42.1956 68.2845 43.7672 67.8058Z" fill="#F2D386"/>
<path d="M44.7999 87.1209L26.3505 91.087L25.0162 89.3545L8.59668 68.0543L22.3487 57.9954L43.4636 85.3884L44.7999 87.1209Z" fill="#F6E6B5"/>
<path d="M45.4028 84.9708L23.2012 58.0463C22.9992 57.8088 22.7146 57.6569 22.4049 57.6211C22.0953 57.5854 21.7836 57.6686 21.5328 57.8538L8.01301 67.7467C7.88762 67.8355 7.78121 67.9485 7.69999 68.079C7.61878 68.2094 7.56439 68.3548 7.54002 68.5065C7.51565 68.6583 7.52178 68.8134 7.55804 68.9627C7.59431 69.112 7.66 69.2526 7.75125 69.3763L23.0463 89.7772L24.29 91.4374C24.4625 91.4561 24.6367 91.4496 24.8074 91.4181L26.6539 91.0208L25.3451 89.2832L10.1468 69.0972C10.0552 68.9737 9.98926 68.8332 9.95275 68.6838C9.91625 68.5345 9.90996 68.3794 9.93425 68.2275C9.95854 68.0757 10.0129 67.9303 10.0942 67.7998C10.1755 67.6693 10.282 67.5564 10.4075 67.4676L21.2619 59.5232C21.5147 59.3345 21.8304 59.2505 22.1435 59.2884C22.4566 59.3263 22.743 59.4833 22.9435 59.7269L43.3383 85.4149L44.7123 87.1403L46.8237 86.686L45.4028 84.9708Z" fill="#F2D386"/>
<path d="M33.5529 83.2943C35.5013 80.4017 36.1725 76.4377 31.634 73.595C28.6803 71.7433 24.485 72.6264 22.2483 75.3183C19.5299 78.5908 20.2683 82.0731 24.2507 85.1816C26.9905 87.3215 31.1166 86.9121 33.5529 83.2943Z" fill="#F2D386"/>
<path d="M22.8675 71.9634C23.6019 70.8736 23.8545 69.3805 22.1454 68.309C21.0322 67.6113 19.4524 67.9444 18.6101 68.9588C17.5855 70.1912 17.8646 71.5051 19.3638 72.6744C20.3956 73.48 21.9498 73.3242 22.8675 71.9634Z" fill="#F2D386"/>
<path d="M33.1606 70.0588L33.0859 70.1204L46.7774 86.7236L46.8521 86.662L33.1606 70.0588Z" fill="#141F2D"/>
<path d="M45.8256 73.2518L45.7594 75.13C45.737 75.5669 45.7125 76.1098 45.2858 76.4795C45.0189 76.6888 44.6854 76.7945 44.3467 76.7769C43.5074 76.7474 43.321 76.1658 43.2263 75.8796L41.5254 76.7871L41.5661 75.6351L43.0837 74.8611L43.1071 74.2051L41.6181 74.1532L41.6558 73.1072L45.8256 73.2518ZM45.0108 74.2703L43.8833 74.2306L43.8527 75.0933C43.8527 75.241 43.8476 75.7197 44.4027 75.74C44.9344 75.7584 44.9659 75.3744 44.9792 75.1564L45.0108 74.2703Z" fill="#F6E6B5"/>
<path d="M44.2621 78.1784C44.2967 78.2089 44.3314 78.2395 44.364 78.27C44.5405 78.4914 44.6277 78.7708 44.6084 79.0533C44.5819 79.81 43.9881 80.3774 42.9604 80.3376C42.329 80.3152 41.3573 80.0025 41.395 78.9463C41.4072 78.6031 41.5264 78.43 41.6822 78.1937L40.4121 78.1488L40.4447 77.2322L44.585 77.3778L44.5554 78.1926L44.2621 78.1784ZM43.9657 78.8913C43.9686 78.7993 43.9491 78.7078 43.9088 78.625C43.8685 78.5421 43.8087 78.4703 43.7345 78.4157C43.5675 78.2792 43.3037 78.212 43.0144 78.2008C42.6243 78.1875 42.3789 78.2792 42.2444 78.3923C42.1874 78.443 42.1411 78.5047 42.1082 78.5736C42.0753 78.6425 42.0565 78.7173 42.0529 78.7936C42.0366 79.2366 42.5092 79.4485 42.993 79.4658C43.4004 79.48 43.8354 79.3833 43.9433 79.0146C43.9569 78.9741 43.9644 78.9319 43.9657 78.8893V78.8913Z" fill="#F6E6B5"/>
<path d="M27.2429 74.3274L28.6851 75.8705C29.0151 76.2351 29.4276 76.6853 29.3818 77.3218C29.3365 77.7006 29.1556 78.0501 28.8725 78.3057C28.1819 78.9504 27.5719 78.6367 27.2663 78.485L26.6328 80.5567L25.7487 79.6074L26.3405 77.7832L25.8373 77.2434L24.6151 78.3862L23.8125 77.5245L27.2429 74.3274ZM27.4028 75.788L26.4739 76.6537L27.1359 77.3667C27.2541 77.4838 27.6309 77.8688 28.0882 77.443C28.5262 77.0356 28.2461 76.7046 28.0882 76.5203L27.4028 75.788Z" fill="#F6E6B5"/>
<path d="M29.92 79.4932C29.9701 79.4885 30.0204 79.4868 30.0707 79.4881C30.3864 79.525 30.6769 79.6782 30.8856 79.9179C31.4661 80.5403 31.4427 81.462 30.5953 82.2503C30.0748 82.7362 29.0543 83.2597 28.2425 82.3889C27.9797 82.1067 27.9369 81.8796 27.8718 81.5618L26.8257 82.5366L26.125 81.7778L29.537 78.6L30.1583 79.2661L29.92 79.4932ZM30.249 80.2948C30.1781 80.2192 30.0899 80.1619 29.9919 80.1281C29.894 80.0942 29.7892 80.0846 29.6868 80.1003C29.4454 80.1247 29.1775 80.2805 28.9432 80.5077C28.6214 80.8071 28.4992 81.076 28.4829 81.2726C28.4777 81.3584 28.4898 81.4444 28.5183 81.5256C28.5468 81.6067 28.5912 81.6814 28.6489 81.7452C28.9901 82.1098 29.533 81.903 29.9322 81.5313C30.2683 81.2186 30.5372 80.7949 30.3294 80.416C30.3094 80.3717 30.2826 80.3309 30.25 80.2948H30.249Z" fill="#F6E6B5"/>
<path d="M63.9726 72.4412H40.623V77.4421H63.9726V72.4412Z" fill="#C3AA6D"/>
<path d="M42.9112 77.4776C42.8572 77.4776 42.8145 76.3664 42.8145 74.9965C42.8145 73.6266 42.8572 72.5154 42.9112 72.5154C42.9652 72.5154 43.008 73.6266 43.008 74.9965C43.008 76.3664 42.9652 77.4776 42.9112 77.4776Z" fill="#D8BE76"/>
<path d="M41.6339 77.4776C41.5799 77.4776 41.5371 76.3664 41.5371 74.9965C41.5371 73.6266 41.5799 72.5154 41.6339 72.5154C41.6878 72.5154 41.7357 73.6266 41.7357 74.9965C41.7357 76.3664 41.6878 77.4776 41.6339 77.4776Z" fill="#D8BE76"/>
<path d="M45.7161 77.4776C45.6631 77.4776 45.6143 76.3664 45.6143 74.9965C45.6143 73.6266 45.6581 72.5154 45.7161 72.5154C45.7742 72.5154 45.818 73.6266 45.818 74.9965C45.818 76.3664 45.7701 77.4776 45.7161 77.4776Z" fill="#D8BE76"/>
<path d="M44.4397 77.4776C44.3858 77.4776 44.3379 76.3664 44.3379 74.9965C44.3379 73.6266 44.3817 72.5154 44.4397 72.5154C44.4978 72.5154 44.5365 73.6266 44.5365 74.9965C44.5365 76.3664 44.4927 77.4776 44.4397 77.4776Z" fill="#D8BE76"/>
<path d="M48.5225 77.4776C48.4686 77.4776 48.4258 76.3664 48.4258 74.9965C48.4258 73.6266 48.4686 72.5154 48.5225 72.5154C48.5765 72.5154 48.6244 73.6266 48.6244 74.9965C48.6244 76.3664 48.5765 77.4776 48.5225 77.4776Z" fill="#D8BE76"/>
<path d="M47.2452 77.4776C47.1912 77.4776 47.1484 76.3664 47.1484 74.9965C47.1484 73.6266 47.1912 72.5154 47.2452 72.5154C47.2992 72.5154 47.347 73.6266 47.347 74.9965C47.347 76.3664 47.2992 77.4776 47.2452 77.4776Z" fill="#D8BE76"/>
<path d="M51.3333 77.4776C51.2793 77.4776 51.2314 76.3664 51.2314 74.9965C51.2314 73.6266 51.2752 72.5154 51.3333 72.5154C51.3914 72.5154 51.4301 73.6266 51.4301 74.9965C51.4301 76.3664 51.3812 77.4776 51.3333 77.4776Z" fill="#D8BE76"/>
<path d="M50.0511 77.4776C49.9971 77.4776 49.9492 76.3664 49.9492 74.9965C49.9492 73.6266 49.993 72.5154 50.0511 72.5154C50.1091 72.5154 50.1478 73.6266 50.1478 74.9965C50.1478 76.3664 50.104 77.4776 50.0511 77.4776Z" fill="#D8BE76"/>
<path d="M54.1331 77.4776C54.0791 77.4776 54.0312 76.3664 54.0312 74.9965C54.0312 73.6266 54.074 72.5154 54.1331 72.5154C54.1922 72.5154 54.235 73.6266 54.235 74.9965C54.235 76.3664 54.185 77.4776 54.1331 77.4776Z" fill="#D8BE76"/>
<path d="M52.8606 77.4776C52.8067 77.4776 52.7588 76.3664 52.7588 74.9965C52.7588 73.6266 52.8016 72.5154 52.8606 72.5154C52.9197 72.5154 52.9625 73.6266 52.9625 74.9965C52.9625 76.3664 52.9095 77.4776 52.8606 77.4776Z" fill="#D8BE76"/>
<path d="M56.9349 77.4776C56.8809 77.4776 56.833 76.3664 56.833 74.9965C56.833 73.6266 56.8768 72.5154 56.9349 72.5154C56.9929 72.5154 57.0367 73.6266 57.0367 74.9965C57.0367 76.3664 56.9919 77.4776 56.9349 77.4776Z" fill="#D8BE76"/>
<path d="M55.6624 77.4776C55.6084 77.4776 55.5605 76.3664 55.5605 74.9965C55.5605 73.6266 55.6043 72.5154 55.6624 72.5154C55.7205 72.5154 55.7643 73.6266 55.7643 74.9965C55.7643 76.3664 55.7133 77.4776 55.6624 77.4776Z" fill="#D8BE76"/>
<path d="M59.7444 77.4776C59.6904 77.4776 59.6426 76.3664 59.6426 74.9965C59.6426 73.6266 59.6854 72.5154 59.7444 72.5154C59.8035 72.5154 59.8463 73.6266 59.8463 74.9965C59.8463 76.3664 59.7984 77.4776 59.7444 77.4776Z" fill="#D8BE76"/>
<path d="M58.463 77.4776C58.409 77.4776 58.3662 76.3664 58.3662 74.9965C58.3662 73.6266 58.409 72.5154 58.463 72.5154C58.517 72.5154 58.5648 73.6266 58.5648 74.9965C58.5648 76.3664 58.521 77.4776 58.463 77.4776Z" fill="#D8BE76"/>
<path d="M62.5511 77.4776C62.4971 77.4776 62.4492 76.3664 62.4492 74.9965C62.4492 73.6266 62.493 72.5154 62.5511 72.5154C62.6091 72.5154 62.6529 73.6266 62.6529 74.9965C62.6529 76.3664 62.604 77.4776 62.5511 77.4776Z" fill="#D8BE76"/>
<path d="M61.2728 77.4776C61.2188 77.4776 61.1709 76.3664 61.1709 74.9965C61.1709 73.6266 61.2147 72.5154 61.2728 72.5154C61.3308 72.5154 61.3695 73.6266 61.3695 74.9965C61.3695 76.3664 61.3257 77.4776 61.2728 77.4776Z" fill="#D8BE76"/>
<path d="M63.9722 72.441C63.9722 72.5051 58.7207 72.5561 52.2439 72.5561C45.7671 72.5561 40.5146 72.5051 40.5146 72.441C40.5146 72.3768 45.7651 72.3269 52.2439 72.3269C58.7227 72.3269 63.9722 72.3778 63.9722 72.441Z" fill="#D8BE76"/>
<path d="M62.4443 77.5215H39.0947V82.5224H62.4443V77.5215Z" fill="#C3AA6D"/>
<path d="M41.3829 82.5569C41.3299 82.5569 41.2861 81.4467 41.2861 80.0768C41.2861 78.7069 41.3299 77.5957 41.3829 77.5957C41.4359 77.5957 41.4847 78.7059 41.4847 80.0768C41.4847 81.4477 41.4369 82.5569 41.3829 82.5569Z" fill="#D8BE76"/>
<path d="M40.1055 82.5569C40.0526 82.5569 40.0088 81.4467 40.0088 80.0768C40.0088 78.7069 40.0526 77.5957 40.1055 77.5957C40.1585 77.5957 40.2074 78.7059 40.2074 80.0768C40.2074 81.4477 40.1595 82.5569 40.1055 82.5569Z" fill="#D8BE76"/>
<path d="M44.1888 82.557C44.1348 82.557 44.0869 81.4468 44.0869 80.0769C44.0869 78.707 44.1307 77.5958 44.1888 77.5958C44.2468 77.5958 44.2855 78.706 44.2855 80.0769C44.2855 81.4479 44.2427 82.557 44.1888 82.557Z" fill="#D8BE76"/>
<path d="M42.9112 82.5569C42.8572 82.5569 42.8145 81.4467 42.8145 80.0768C42.8145 78.7069 42.8572 77.5957 42.9112 77.5957C42.9652 77.5957 43.008 78.7059 43.008 80.0768C43.008 81.4477 42.9652 82.5569 42.9112 82.5569Z" fill="#D8BE76"/>
<path d="M46.9932 82.5569C46.9403 82.5569 46.8965 81.4467 46.8965 80.0768C46.8965 78.7069 46.9403 77.5957 46.9932 77.5957C47.0462 77.5957 47.0951 78.7059 47.0951 80.0768C47.0951 81.4477 47.0472 82.5569 46.9932 82.5569Z" fill="#D8BE76"/>
<path d="M45.7161 82.5569C45.6631 82.5569 45.6143 81.4467 45.6143 80.0768C45.6143 78.7069 45.6581 77.5957 45.7161 77.5957C45.7742 77.5957 45.818 78.7059 45.818 80.0768C45.818 81.4477 45.7701 82.5569 45.7161 82.5569Z" fill="#D8BE76"/>
<path d="M49.8001 82.5569C49.7461 82.5569 49.6982 81.4467 49.6982 80.0768C49.6982 78.7069 49.742 77.5957 49.8001 77.5957C49.8581 77.5957 49.8969 78.7059 49.8969 80.0768C49.8969 81.4477 49.8541 82.5569 49.8001 82.5569Z" fill="#D8BE76"/>
<path d="M48.5225 82.557C48.4686 82.557 48.4258 81.4468 48.4258 80.0769C48.4258 78.707 48.4686 77.5958 48.5225 77.5958C48.5765 77.5958 48.6244 78.706 48.6244 80.0769C48.6244 81.4479 48.5765 82.557 48.5225 82.557Z" fill="#D8BE76"/>
<path d="M52.6048 82.5569C52.5518 82.5569 52.5029 81.4467 52.5029 80.0768C52.5029 78.7069 52.5467 77.5957 52.6048 77.5957C52.6628 77.5957 52.7066 78.7059 52.7066 80.0768C52.7066 81.4477 52.6577 82.5569 52.6048 82.5569Z" fill="#D8BE76"/>
<path d="M51.3333 82.5569C51.2793 82.5569 51.2314 81.4467 51.2314 80.0768C51.2314 78.7069 51.2752 77.5957 51.3333 77.5957C51.3914 77.5957 51.4301 78.7059 51.4301 80.0768C51.4301 81.4477 51.3812 82.5569 51.3333 82.5569Z" fill="#D8BE76"/>
<path d="M55.4073 82.5569C55.3533 82.5569 55.3105 81.4467 55.3105 80.0768C55.3105 78.7069 55.3533 77.5957 55.4073 77.5957C55.4613 77.5957 55.5092 78.7059 55.5092 80.0768C55.5092 81.4477 55.4643 82.5569 55.4073 82.5569Z" fill="#D8BE76"/>
<path d="M54.1331 82.5569C54.0791 82.5569 54.0312 81.4467 54.0312 80.0768C54.0312 78.7069 54.074 77.5957 54.1331 77.5957C54.1922 77.5957 54.235 78.7059 54.235 80.0768C54.235 81.4477 54.185 82.5569 54.1331 82.5569Z" fill="#D8BE76"/>
<path d="M58.2161 82.557C58.1621 82.557 58.1143 81.4468 58.1143 80.0769C58.1143 78.707 58.1581 77.5958 58.2161 77.5958C58.2742 77.5958 58.3129 78.706 58.3129 80.0769C58.3129 81.4479 58.2691 82.557 58.2161 82.557Z" fill="#D8BE76"/>
<path d="M56.9349 82.5569C56.8809 82.5569 56.833 81.4467 56.833 80.0768C56.833 78.7069 56.8768 77.5957 56.9349 77.5957C56.9929 77.5957 57.0367 78.7059 57.0367 80.0768C57.0367 81.4477 56.9919 82.5569 56.9349 82.5569Z" fill="#D8BE76"/>
<path d="M61.0218 82.5569C60.9678 82.5569 60.9199 81.4467 60.9199 80.0768C60.9199 78.7069 60.9627 77.5957 61.0218 77.5957C61.0808 77.5957 61.1236 78.7059 61.1236 80.0768C61.1236 81.4477 61.0758 82.5569 61.0218 82.5569Z" fill="#D8BE76"/>
<path d="M59.7444 82.5569C59.6904 82.5569 59.6426 81.4467 59.6426 80.0768C59.6426 78.7069 59.6854 77.5957 59.7444 77.5957C59.8035 77.5957 59.8463 78.7059 59.8463 80.0768C59.8463 81.4477 59.7984 82.5569 59.7444 82.5569Z" fill="#D8BE76"/>
<path d="M62.4449 77.5213C62.4449 77.5845 57.1923 77.6364 50.7166 77.6364C44.2409 77.6364 38.9863 77.5845 38.9863 77.5213C38.9863 77.4582 44.2368 77.4062 50.7166 77.4062C57.1964 77.4062 62.4449 77.4582 62.4449 77.5213Z" fill="#D8BE76"/>
<path d="M64.3525 82.5569H41.0029V87.5578H64.3525V82.5569Z" fill="#C3AA6D"/>
<path d="M43.2874 87.5926C43.2334 87.5926 43.1855 86.4824 43.1855 85.1125C43.1855 83.7425 43.2293 82.6313 43.2874 82.6313C43.3455 82.6313 43.3842 83.7415 43.3842 85.1125C43.3842 86.4834 43.3444 87.5926 43.2874 87.5926Z" fill="#D8BE76"/>
<path d="M42.014 87.5923C41.96 87.5923 41.9121 86.4821 41.9121 85.1122C41.9121 83.7423 41.9559 82.6311 42.014 82.6311C42.072 82.6311 42.1107 83.7413 42.1107 85.1122C42.1107 86.4831 42.0649 87.5923 42.014 87.5923Z" fill="#D8BE76"/>
<path d="M46.0958 87.5924C46.0428 87.5924 45.999 86.4822 45.999 85.1123C45.999 83.7424 46.0428 82.6312 46.0958 82.6312C46.1487 82.6312 46.1976 83.7414 46.1976 85.1123C46.1976 86.4833 46.1498 87.5924 46.0958 87.5924Z" fill="#D8BE76"/>
<path d="M44.8147 87.5923C44.7618 87.5923 44.7129 86.4821 44.7129 85.1122C44.7129 83.7423 44.7567 82.6311 44.8147 82.6311C44.8728 82.6311 44.9166 83.7413 44.9166 85.1122C44.9166 86.4831 44.8728 87.5923 44.8147 87.5923Z" fill="#D8BE76"/>
<path d="M48.9017 87.5924C48.8477 87.5924 48.7998 86.4822 48.7998 85.1123C48.7998 83.7424 48.8436 82.6312 48.9017 82.6312C48.9597 82.6312 48.9984 83.7414 48.9984 85.1123C48.9984 86.4833 48.9556 87.5924 48.9017 87.5924Z" fill="#D8BE76"/>
<path d="M47.6253 87.5924C47.5713 87.5924 47.5234 86.4822 47.5234 85.1123C47.5234 83.7424 47.5672 82.6312 47.6253 82.6312C47.6833 82.6312 47.7271 83.7414 47.7271 85.1123C47.7271 86.4833 47.6793 87.5924 47.6253 87.5924Z" fill="#D8BE76"/>
<path d="M51.7071 87.5923C51.6541 87.5923 51.6104 86.4821 51.6104 85.1122C51.6104 83.7423 51.6541 82.6311 51.7071 82.6311C51.7601 82.6311 51.809 83.7413 51.809 85.1122C51.809 86.4831 51.7611 87.5923 51.7071 87.5923Z" fill="#D8BE76"/>
<path d="M50.4298 87.5923C50.3768 87.5923 50.333 86.4821 50.333 85.1122C50.333 83.7423 50.3768 82.6311 50.4298 82.6311C50.4827 82.6311 50.5316 83.7413 50.5316 85.1122C50.5316 86.4831 50.4837 87.5923 50.4298 87.5923Z" fill="#D8BE76"/>
<path d="M54.513 87.5924C54.459 87.5924 54.4111 86.4822 54.4111 85.1123C54.4111 83.7424 54.4549 82.6312 54.513 82.6312C54.571 82.6312 54.6097 83.7414 54.6097 85.1123C54.6097 86.4833 54.567 87.5924 54.513 87.5924Z" fill="#D8BE76"/>
<path d="M53.2354 87.5923C53.1815 87.5923 53.1387 86.4821 53.1387 85.1122C53.1387 83.7423 53.1815 82.6311 53.2354 82.6311C53.2894 82.6311 53.3373 83.7413 53.3373 85.1122C53.3373 86.4831 53.2894 87.5923 53.2354 87.5923Z" fill="#D8BE76"/>
<path d="M57.3177 87.5926C57.2647 87.5926 57.2158 86.4824 57.2158 85.1125C57.2158 83.7425 57.2596 82.6313 57.3177 82.6313C57.3757 82.6313 57.4195 83.7415 57.4195 85.1125C57.4195 86.4834 57.3717 87.5926 57.3177 87.5926Z" fill="#D8BE76"/>
<path d="M56.0413 87.5926C55.9883 87.5926 55.9395 86.4824 55.9395 85.1125C55.9395 83.7425 55.9832 82.6313 56.0413 82.6313C56.0994 82.6313 56.1432 83.7415 56.1432 85.1125C56.1432 86.4834 56.0953 87.5926 56.0413 87.5926Z" fill="#D8BE76"/>
<path d="M60.1233 87.5923C60.0694 87.5923 60.0215 86.4821 60.0215 85.1122C60.0215 83.7423 60.0653 82.6311 60.1233 82.6311C60.1814 82.6311 60.2252 83.7413 60.2252 85.1122C60.2252 86.4831 60.1773 87.5923 60.1233 87.5923Z" fill="#D8BE76"/>
<path d="M58.8468 87.5924C58.7928 87.5924 58.75 86.4822 58.75 85.1123C58.75 83.7424 58.7928 82.6312 58.8468 82.6312C58.9007 82.6312 58.9486 83.7414 58.9486 85.1123C58.9486 86.4833 58.9007 87.5924 58.8468 87.5924Z" fill="#D8BE76"/>
<path d="M62.929 87.5926C62.876 87.5926 62.8271 86.4824 62.8271 85.1125C62.8271 83.7425 62.8709 82.6313 62.929 82.6313C62.9871 82.6313 63.0309 83.7415 63.0309 85.1125C63.0309 86.4834 62.983 87.5926 62.929 87.5926Z" fill="#D8BE76"/>
<path d="M61.6524 87.5923C61.5995 87.5923 61.5557 86.4821 61.5557 85.1122C61.5557 83.7423 61.5995 82.6311 61.6524 82.6311C61.7054 82.6311 61.7543 83.7413 61.7543 85.1122C61.7543 86.4831 61.7064 87.5923 61.6524 87.5923Z" fill="#D8BE76"/>
<path d="M64.3522 82.5569C64.3522 82.6201 59.0875 82.672 52.5955 82.672C46.1034 82.672 40.8428 82.6201 40.8428 82.5569C40.8428 82.4938 46.1055 82.4429 52.5995 82.4429C59.0936 82.4429 64.3522 82.4907 64.3522 82.5569Z" fill="#D8BE76"/>
<path d="M62.5214 87.5181H39.1719V92.519H62.5214V87.5181Z" fill="#C3AA6D"/>
<path d="M41.4612 92.5537C41.4072 92.5537 41.3594 91.4435 41.3594 90.0736C41.3594 88.7037 41.4032 87.5925 41.4612 87.5925C41.5193 87.5925 41.5559 88.7037 41.5559 90.0736C41.5559 91.4435 41.5142 92.5537 41.4612 92.5537Z" fill="#D8BE76"/>
<path d="M40.1839 92.5537C40.1299 92.5537 40.082 91.4435 40.082 90.0736C40.082 88.7037 40.1258 87.5925 40.1839 87.5925C40.2419 87.5925 40.2857 88.7037 40.2857 90.0736C40.2857 91.4435 40.2368 92.5537 40.1839 92.5537Z" fill="#D8BE76"/>
<path d="M44.2657 92.5537C44.2127 92.5537 44.1689 91.4435 44.1689 90.0736C44.1689 88.7037 44.2127 87.5925 44.2657 87.5925C44.3187 87.5925 44.3676 88.7037 44.3676 90.0736C44.3676 91.4435 44.3197 92.5537 44.2657 92.5537Z" fill="#D8BE76"/>
<path d="M42.9884 92.5537C42.9354 92.5537 42.8916 91.4435 42.8916 90.0736C42.8916 88.7037 42.9354 87.5925 42.9884 87.5925C43.0413 87.5925 43.0902 88.7037 43.0902 90.0736C43.0902 91.4435 43.0423 92.5537 42.9884 92.5537Z" fill="#D8BE76"/>
<path d="M47.0716 92.5537C47.0176 92.5537 46.9697 91.4435 46.9697 90.0736C46.9697 88.7037 47.0135 87.5925 47.0716 87.5925C47.1296 87.5925 47.1683 88.7037 47.1683 90.0736C47.1683 91.4435 47.1245 92.5537 47.0716 92.5537Z" fill="#D8BE76"/>
<path d="M45.7942 92.5537C45.7403 92.5537 45.6924 91.4435 45.6924 90.0736C45.6924 88.7037 45.7362 87.5925 45.7942 87.5925C45.8523 87.5925 45.891 88.7037 45.891 90.0736C45.891 91.4435 45.8482 92.5537 45.7942 92.5537Z" fill="#D8BE76"/>
<path d="M49.877 92.5537C49.8241 92.5537 49.7803 91.4435 49.7803 90.0736C49.7803 88.7037 49.8241 87.5925 49.877 87.5925C49.93 87.5925 49.9789 88.7037 49.9789 90.0736C49.9789 91.4435 49.931 92.5537 49.877 92.5537Z" fill="#D8BE76"/>
<path d="M48.5989 92.5537C48.546 92.5537 48.4971 91.4435 48.4971 90.0736C48.4971 88.7037 48.5409 87.5925 48.5989 87.5925C48.657 87.5925 48.7008 88.7037 48.7008 90.0736C48.7008 91.4435 48.6529 92.5537 48.5989 92.5537Z" fill="#D8BE76"/>
<path d="M52.6829 92.5537C52.6289 92.5537 52.5811 91.4435 52.5811 90.0736C52.5811 88.7037 52.6249 87.5925 52.6829 87.5925C52.741 87.5925 52.7848 88.7037 52.7848 90.0736C52.7848 91.4435 52.7359 92.5537 52.6829 92.5537Z" fill="#D8BE76"/>
<path d="M51.4056 92.5537C51.3516 92.5537 51.3037 91.4435 51.3037 90.0736C51.3037 88.7037 51.3475 87.5925 51.4056 87.5925C51.4636 87.5925 51.5074 88.7037 51.5074 90.0736C51.5074 91.4435 51.4595 92.5537 51.4056 92.5537Z" fill="#D8BE76"/>
<path d="M55.4884 92.5537C55.4354 92.5537 55.3916 91.4435 55.3916 90.0736C55.3916 88.7037 55.4354 87.5925 55.4884 87.5925C55.5413 87.5925 55.5902 88.7037 55.5902 90.0736C55.5902 91.4435 55.5423 92.5537 55.4884 92.5537Z" fill="#D8BE76"/>
<path d="M54.2103 92.5537C54.1573 92.5537 54.1084 91.4435 54.1084 90.0736C54.1084 88.7037 54.1522 87.5925 54.2103 87.5925C54.2683 87.5925 54.3121 88.7037 54.3121 90.0736C54.3121 91.4435 54.2642 92.5537 54.2103 92.5537Z" fill="#D8BE76"/>
<path d="M58.2942 92.5537C58.2403 92.5537 58.1924 91.4435 58.1924 90.0736C58.1924 88.7037 58.2362 87.5925 58.2942 87.5925C58.3523 87.5925 58.391 88.7037 58.391 90.0736C58.391 91.4435 58.3482 92.5537 58.2942 92.5537Z" fill="#D8BE76"/>
<path d="M57.0169 92.5537C56.9629 92.5537 56.915 91.4435 56.915 90.0736C56.915 88.7037 56.9588 87.5925 57.0169 87.5925C57.0749 87.5925 57.1187 88.7037 57.1187 90.0736C57.1187 91.4435 57.0709 92.5537 57.0169 92.5537Z" fill="#D8BE76"/>
<path d="M61.0989 92.5537C61.046 92.5537 60.9971 91.4435 60.9971 90.0736C60.9971 88.7037 61.0409 87.5925 61.0989 87.5925C61.157 87.5925 61.2008 88.7037 61.2008 90.0736C61.2008 91.4435 61.1529 92.5537 61.0989 92.5537Z" fill="#D8BE76"/>
<path d="M59.8216 92.5537C59.7686 92.5537 59.7197 91.4435 59.7197 90.0736C59.7197 88.7037 59.7635 87.5925 59.8216 87.5925C59.8796 87.5925 59.9234 88.7037 59.9234 90.0736C59.9234 91.4435 59.8756 92.5537 59.8216 92.5537Z" fill="#D8BE76"/>
<path d="M62.522 87.5181C62.522 87.5813 57.2705 87.6332 50.7937 87.6332C44.317 87.6332 39.0645 87.5813 39.0645 87.5181C39.0645 87.455 44.3149 87.4041 50.7937 87.4041C57.2725 87.4041 62.522 87.455 62.522 87.5181Z" fill="#D8BE76"/>
<path d="M64.8632 92.5913H41.5137V97.5922H64.8632V92.5913Z" fill="#C3AA6D"/>
<path d="M43.7962 97.627C43.7422 97.627 43.6943 96.5158 43.6943 95.1459C43.6943 93.776 43.7371 92.6658 43.7962 92.6658C43.8553 92.6658 43.898 93.776 43.898 95.1459C43.898 96.5158 43.8542 97.627 43.7962 97.627Z" fill="#D8BE76"/>
<path d="M42.5235 97.627C42.4706 97.627 42.4268 96.5158 42.4268 95.1459C42.4268 93.776 42.4706 92.6658 42.5235 92.6658C42.5765 92.6658 42.6254 93.776 42.6254 95.1459C42.6254 96.5158 42.5744 97.627 42.5235 97.627Z" fill="#D8BE76"/>
<path d="M46.6067 97.627C46.5528 97.627 46.5049 96.5158 46.5049 95.1459C46.5049 93.776 46.5487 92.6658 46.6067 92.6658C46.6648 92.6658 46.7086 93.776 46.7086 95.1459C46.7086 96.5158 46.6597 97.627 46.6067 97.627Z" fill="#D8BE76"/>
<path d="M45.3294 97.627C45.2754 97.627 45.2275 96.5158 45.2275 95.1459C45.2275 93.776 45.2713 92.6658 45.3294 92.6658C45.3874 92.6658 45.4262 93.776 45.4262 95.1459C45.4262 96.5158 45.3824 97.627 45.3294 97.627Z" fill="#D8BE76"/>
<path d="M49.4112 97.627C49.3572 97.627 49.3145 96.5158 49.3145 95.1459C49.3145 93.776 49.3572 92.6658 49.4112 92.6658C49.4652 92.6658 49.5131 93.776 49.5131 95.1459C49.5131 96.5158 49.4652 97.627 49.4112 97.627Z" fill="#D8BE76"/>
<path d="M48.1339 97.627C48.0809 97.627 48.0371 96.5158 48.0371 95.1459C48.0371 93.776 48.0809 92.6658 48.1339 92.6658C48.1868 92.6658 48.2357 93.776 48.2357 95.1459C48.2357 96.5158 48.1878 97.627 48.1339 97.627Z" fill="#D8BE76"/>
<path d="M52.2171 97.627C52.1631 97.627 52.1152 96.5158 52.1152 95.1459C52.1152 93.776 52.159 92.6658 52.2171 92.6658C52.2751 92.6658 52.3189 93.776 52.3189 95.1459C52.3189 96.5158 52.27 97.627 52.2171 97.627Z" fill="#D8BE76"/>
<path d="M50.9397 97.627C50.8858 97.627 50.8379 96.5158 50.8379 95.1459C50.8379 93.776 50.8817 92.6658 50.9397 92.6658C50.9978 92.6658 51.0365 93.776 51.0365 95.1459C51.0365 96.5158 50.9937 97.627 50.9397 97.627Z" fill="#D8BE76"/>
<path d="M55.0228 97.627C54.9688 97.627 54.9209 96.5158 54.9209 95.1459C54.9209 93.776 54.9637 92.6658 55.0228 92.6658C55.0818 92.6658 55.1246 93.776 55.1246 95.1459C55.1246 96.5158 55.0767 97.627 55.0228 97.627Z" fill="#D8BE76"/>
<path d="M53.7452 97.627C53.6922 97.627 53.6484 96.5158 53.6484 95.1459C53.6484 93.776 53.6922 92.6658 53.7452 92.6658C53.7982 92.6658 53.847 93.776 53.847 95.1459C53.847 96.5158 53.7992 97.627 53.7452 97.627Z" fill="#D8BE76"/>
<path d="M57.8284 97.627C57.7744 97.627 57.7266 96.5158 57.7266 95.1459C57.7266 93.776 57.7704 92.6658 57.8284 92.6658C57.8865 92.6658 57.9303 93.776 57.9303 95.1459C57.9303 96.5158 57.8814 97.627 57.8284 97.627Z" fill="#D8BE76"/>
<path d="M56.5511 97.627C56.4971 97.627 56.4492 96.5158 56.4492 95.1459C56.4492 93.776 56.493 92.6658 56.5511 92.6658C56.6091 92.6658 56.6478 93.776 56.6478 95.1459C56.6478 96.5158 56.6051 97.627 56.5511 97.627Z" fill="#D8BE76"/>
<path d="M60.6339 97.627C60.5809 97.627 60.5371 96.5158 60.5371 95.1459C60.5371 93.776 60.5809 92.6658 60.6339 92.6658C60.6868 92.6658 60.7357 93.776 60.7357 95.1459C60.7357 96.5158 60.6879 97.627 60.6339 97.627Z" fill="#D8BE76"/>
<path d="M59.3565 97.627C59.3036 97.627 59.2598 96.5158 59.2598 95.1459C59.2598 93.776 59.3036 92.6658 59.3565 92.6658C59.4095 92.6658 59.4584 93.776 59.4584 95.1459C59.4584 96.5158 59.4105 97.627 59.3565 97.627Z" fill="#D8BE76"/>
<path d="M63.4397 97.627C63.3858 97.627 63.3379 96.5158 63.3379 95.1459C63.3379 93.776 63.3817 92.6658 63.4397 92.6658C63.4978 92.6658 63.5365 93.776 63.5365 95.1459C63.5365 96.5158 63.4927 97.627 63.4397 97.627Z" fill="#D8BE76"/>
<path d="M62.1624 97.627C62.1084 97.627 62.0605 96.5158 62.0605 95.1459C62.0605 93.776 62.1043 92.6658 62.1624 92.6658C62.2205 92.6658 62.2592 93.776 62.2592 95.1459C62.2592 96.5158 62.2164 97.627 62.1624 97.627Z" fill="#D8BE76"/>
<path d="M64.8608 92.5913C64.8608 92.6545 59.6093 92.7054 53.1326 92.7054C46.6558 92.7054 41.4033 92.6545 41.4033 92.5913C41.4033 92.5282 46.6538 92.4722 53.1326 92.4722C59.6114 92.4722 64.8608 92.5282 64.8608 92.5913Z" fill="#D8BE76"/>
<path d="M41.0518 75.8623C40.9979 75.8623 40.9551 75.2512 40.9551 74.4934C40.9551 73.7357 40.9979 73.1235 41.0518 73.1235C41.1058 73.1235 41.1486 73.7346 41.1486 74.4934C41.1486 75.2522 41.1058 75.8623 41.0518 75.8623Z" fill="white"/>
<path d="M39.5782 81.2053C39.5252 81.2053 39.4814 80.5473 39.4814 79.7366C39.4814 78.9258 39.5252 78.2668 39.5782 78.2668C39.6312 78.2668 39.6801 78.9248 39.6801 79.7366C39.6801 80.5483 39.6322 81.2053 39.5782 81.2053Z" fill="white"/>
<path d="M41.6751 86.3488C41.6211 86.3488 41.5732 85.7652 41.5732 85.0461C41.5732 84.327 41.617 83.7434 41.6751 83.7434C41.7331 83.7434 41.7719 84.327 41.7719 85.0461C41.7719 85.7652 41.7281 86.3488 41.6751 86.3488Z" fill="white"/>
<path d="M39.5188 91.0912C39.4649 91.0912 39.417 90.5676 39.417 89.9229C39.417 89.2782 39.4608 88.7537 39.5188 88.7537C39.5769 88.7537 39.6156 89.2772 39.6156 89.9229C39.6156 90.5687 39.5759 91.0912 39.5188 91.0912Z" fill="white"/>
<path d="M48.0741 77.933C48.0741 77.9961 46.3507 78.047 44.2241 78.047C42.0974 78.047 40.373 77.9961 40.373 77.933C40.373 77.8698 42.0964 77.8179 44.2241 77.8179C46.3518 77.8179 48.0741 77.8698 48.0741 77.933Z" fill="white"/>
<path d="M50.5657 73.1203C50.5657 73.1834 48.8342 73.2354 46.6861 73.2354C44.5381 73.2354 42.8076 73.1834 42.8076 73.1203C42.8076 73.0572 44.5391 73.0062 46.6861 73.0062C48.8332 73.0062 50.5657 73.0602 50.5657 73.1203Z" fill="white"/>
<path d="M54.3032 73.1907C54.3032 73.2538 53.7318 73.3047 53.0291 73.3047C52.3263 73.3047 51.7549 73.2538 51.7549 73.1907C51.7549 73.1275 52.3253 73.0756 53.0291 73.0756C53.7328 73.0756 54.3032 73.1275 54.3032 73.1907Z" fill="white"/>
<path d="M41.8447 97.4121C41.805 97.4121 41.7734 96.5565 41.7734 95.5003C41.7734 94.4441 41.805 93.5875 41.8447 93.5875C41.8845 93.5875 41.916 94.4441 41.916 95.5003C41.916 96.5565 41.8834 97.4121 41.8447 97.4121Z" fill="white"/>
<path d="M40.3896 97.1873C44.5513 93.0256 44.5513 86.2781 40.3896 82.1164C36.2279 77.9547 29.4804 77.9547 25.3187 82.1164C21.1569 86.2781 21.1569 93.0256 25.3187 97.1873C29.4804 101.349 36.2279 101.349 40.3896 97.1873Z" fill="#F2D386"/>
<path d="M34.3593 97.9891C38.8756 97.192 41.8906 92.8845 41.0935 88.3682C40.2963 83.8518 35.9888 80.8368 31.4725 81.634C26.9561 82.4312 23.9412 86.7386 24.7383 91.255C25.5355 95.7713 29.8429 98.7863 34.3593 97.9891Z" fill="#F6E6B5"/>
<path d="M28.0566 87.7942L30.2801 87.2595C30.7995 87.1424 31.4442 86.9947 32.0166 87.3756C32.3497 87.6193 32.5825 87.9759 32.6715 88.3789C32.9109 89.3719 32.2916 89.7793 31.9861 89.9861L33.6004 91.684L32.2366 92.0119L30.8341 90.4841L30.058 90.6705L30.4817 92.4326L29.2442 92.73L28.0566 87.7942ZM29.5162 88.4206L29.838 89.7549L30.8565 89.5094C31.0297 89.4605 31.5929 89.3108 31.4351 88.6539C31.2833 88.0244 30.824 88.113 30.5632 88.168L29.5162 88.4206Z" fill="#D7C087"/>
<path d="M34.3425 88.0214C34.368 87.9714 34.3924 87.9195 34.4189 87.8777C34.6209 87.5981 34.9203 87.4044 35.2582 87.3349C36.1524 87.12 37.008 87.6313 37.3003 88.8484C37.4806 89.596 37.4307 90.8365 36.1799 91.137C35.7725 91.2389 35.5321 91.1523 35.2032 91.0464L35.5647 92.5497L34.481 92.8104L33.3057 87.9093L34.2641 87.6791L34.3425 88.0214ZM35.2734 88.1375C35.1645 88.1641 35.0637 88.2168 34.9797 88.2912C34.8958 88.3656 34.8312 88.4593 34.7917 88.5642C34.6898 88.8036 34.6898 89.1356 34.7744 89.4809C34.8854 89.9423 35.0728 90.201 35.25 90.3212C35.3282 90.3713 35.4155 90.4053 35.507 90.4214C35.5984 90.4375 35.6921 90.4353 35.7827 90.4149C36.3072 90.2886 36.402 89.6663 36.2645 89.0908C36.1483 88.608 35.8917 88.1293 35.4252 88.1232C35.3742 88.1207 35.3231 88.1255 35.2734 88.1375Z" fill="#D7C087"/>
<path d="M72.5939 77.5448C72.4595 76.1189 72.4085 74.693 72.3474 73.267C72.2812 71.724 72.2649 70.183 72.2649 68.6399C72.2649 68.3975 72.2456 68.151 72.3209 67.9147C72.4727 67.6092 72.6774 67.7843 72.8455 67.877C73.671 68.3214 74.5554 68.6465 75.4722 68.8426C77.8148 69.2958 79.97 68.758 82.0172 67.6051C82.552 67.3046 82.9991 66.8565 83.6031 66.6752C83.872 66.7444 83.9565 66.9807 84.0706 67.1926C84.5137 68.0138 84.8659 68.8809 85.1207 69.7786C85.8856 72.3188 86.3184 74.9292 86.7615 77.5377C86.79 77.7006 86.733 77.8595 86.7615 78.0194L86.7411 78.0388C86.7569 78.05 86.7702 78.0645 86.7799 78.0812C86.7897 78.0979 86.7958 78.1165 86.7978 78.1358C86.7999 78.1551 86.7978 78.1746 86.7917 78.193C86.7856 78.2113 86.7756 78.2282 86.7625 78.2425C86.8644 79.2284 87.1312 80.1777 87.3543 81.1412C87.4021 81.3449 87.558 81.4254 87.7067 81.518C89.8547 82.888 91.2338 84.8679 92.2034 87.1749C92.3399 87.5008 92.345 87.8349 92.3318 88.1761C92.3949 89.2476 91.3479 90.1367 90.3589 89.8505C89.5583 89.9717 89.0735 89.5888 88.6091 88.9522C87.1771 86.9905 85.6747 85.0818 84.1999 83.1467C83.6275 82.398 83.2171 81.5486 82.7241 80.7501C82.5713 80.5036 82.4185 80.2592 82.2576 80.0137C82.1904 79.8955 82.0468 79.8507 81.9877 79.7254C81.7045 79.2488 81.4102 78.7792 81.1311 78.2995C81.0812 78.2231 81.0293 78.1467 80.9865 78.0683C80.9488 78.0092 80.9132 77.9492 80.8796 77.887C80.0709 76.5385 79.2866 75.1757 78.4351 73.7753C78.3455 75.1717 78.2976 76.509 78.1296 77.8351C78.128 77.9031 78.1304 77.9711 78.1367 78.0388C78.1367 78.1559 78.1112 78.271 78.1133 78.3881C78.1061 78.5552 78.1133 78.7232 78.1133 78.8903C78.1133 78.9636 78.1133 79.038 78.1133 79.1113C78.0988 79.3369 78.0647 79.5608 78.0114 79.7805C77.9872 79.8789 77.9473 79.9727 77.8933 80.0585C77.824 81.0628 77.7578 82.067 77.6834 83.0713C77.664 83.2805 77.7142 83.4903 77.826 83.6681C79.0483 85.6828 79.5575 87.9143 79.8356 90.2172C79.8692 90.4912 79.8753 90.7692 79.9201 91.0412C79.9945 91.4853 79.9201 91.8703 79.5555 92.1697C79.1216 92.9356 77.9075 93.4225 76.8808 93.2432C76.8004 93.229 76.725 93.1974 76.6466 93.1801C75.9917 93.0619 75.6719 92.6708 75.5405 92.0139C75.2349 90.4729 74.8112 88.9583 74.4721 87.4244C74.4497 87.2699 74.4139 87.1175 74.3651 86.9692C74.0758 85.8488 73.8396 84.7203 73.5503 83.608C73.3629 82.8778 73.1724 82.1485 73.041 81.405" fill="#0C4055"/>
<path d="M90.3674 89.8444C91.445 89.7802 92.1284 89.2526 92.3402 88.1699L93.6022 90.9973C93.6857 91.0473 93.758 91.1141 93.8143 91.1936C93.8706 91.273 93.9097 91.3633 93.9291 91.4587C94.309 92.7553 94.5576 94.0722 94.5402 95.4309C94.5229 96.587 93.9658 97.3315 92.9371 97.5637C92.4594 97.6717 91.9858 97.7053 91.613 97.3213C91.228 96.92 91.5112 96.5065 91.6487 96.0991C91.7505 95.9412 91.7505 95.7477 91.834 95.5837C91.8834 94.5736 91.8123 93.5612 91.6222 92.5679C91.5651 92.2796 91.338 92.0658 91.1781 91.8244C90.8573 91.3406 90.5517 90.8466 90.2064 90.3801C89.9915 90.0888 89.9956 89.9258 90.3674 89.8444Z" fill="#FBFAF2"/>
<path d="M91.7505 96.0817C91.7179 96.206 91.6904 96.3323 91.6486 96.4545C91.4195 97.1491 91.7617 97.5657 92.5113 97.5005C93.6867 97.3987 94.3915 96.6857 94.4027 95.4574C94.4091 93.934 94.1364 92.4224 93.5981 90.9973C94.3803 90.983 95.188 91.6838 95.0535 92.4701C94.8498 93.6556 95.1411 94.7892 95.1808 95.9452C95.2175 97.0371 94.9771 98.0373 94.2458 98.8796C93.6184 99.5997 91.6995 99.8859 90.8949 99.3889C90.1494 98.9285 90.0414 97.855 90.6821 97.2734C91.1108 96.8843 91.3645 96.372 91.6496 95.8841C91.8401 95.8709 91.7749 95.986 91.7505 96.0817Z" fill="#1E7FAA"/>
<path d="M74.0467 99.5742C74.0793 99.5213 74.1119 99.4724 74.1486 99.4153L74.1598 99.397C74.2515 99.287 74.339 99.174 74.4205 99.0568C74.5597 98.9554 74.6754 98.8251 74.7597 98.6749C74.7811 98.6494 74.8008 98.6225 74.8188 98.5944L76.9128 96.648C77.0045 96.6266 77.0402 96.6806 77.0585 96.756C76.9923 97.1104 76.6979 97.3223 76.5268 97.6115C76.4046 97.8153 76.1978 98.019 76.3496 98.2726C76.5014 98.5262 76.7876 98.5089 77.0483 98.4763C78.2705 98.298 79.5742 97.0666 79.8197 95.8546C79.8214 95.8062 79.8335 95.7587 79.8551 95.7153C79.8767 95.6719 79.9074 95.6336 79.945 95.603C80.3228 95.7314 80.5337 96.151 80.4889 96.6969C80.4267 97.4435 80.2149 98.0546 79.5213 98.5302C78.409 99.285 77.3956 100.185 76.207 100.833C75.9376 100.983 75.6582 101.113 75.3708 101.224C74.8483 101.428 74.4022 101.336 74.0223 100.881C73.6699 100.46 73.7901 100.076 74.0223 99.674C74.0347 99.642 74.043 99.6084 74.0467 99.5742Z" fill="#1E7FAA"/>
<path d="M79.944 95.5951C80.051 96.2999 79.6537 96.8041 79.2392 97.2828C78.6627 97.9498 77.8872 98.4139 77.027 98.6068C76.7347 98.6761 76.4363 98.6853 76.2387 98.395C76.0411 98.1047 76.2091 97.8409 76.3802 97.5995C76.5839 97.3092 76.7978 97.023 77.0066 96.7358C77.0708 96.4853 77.2745 96.3417 77.4375 96.1665C77.6636 96.0035 77.633 95.8069 77.5515 95.5706C77.2674 94.7354 76.8905 93.9308 76.695 93.0641C77.8275 93.334 78.732 92.8909 79.56 92.1698C79.6165 92.2007 79.6632 92.2467 79.6951 92.3026C79.7269 92.3586 79.7426 92.4222 79.7403 92.4866C79.8055 93.5234 79.8758 94.5592 79.944 95.5951Z" fill="#FBFAF2"/>
<path d="M58.8338 48.2796C58.8338 48.2796 58.6535 47.7388 58.3846 47.4729C58.1157 47.2071 57.7164 46.8924 57.6716 46.7895C57.6268 46.6866 57.6054 46.3729 57.3732 46.4086C57.141 46.4442 56.7957 46.8221 57.1339 47.4271L57.4333 47.8416C57.4333 47.8416 57.0208 48.2001 56.7794 48.2704C56.538 48.3407 53.6098 48.8642 53.6098 48.8642C53.54 48.8622 53.4716 48.8841 53.416 48.9264C53.3604 48.9686 53.321 49.0286 53.3042 49.0964C53.236 49.3439 53.6098 49.4753 53.6098 49.4753C53.5375 49.6974 53.6149 49.8827 53.8634 50.0274C53.8919 50.2402 54.1425 50.4256 54.6395 50.3686C54.6395 50.3686 54.6252 50.6334 55.1987 50.6863C55.7721 50.7393 58.3795 50.2667 58.3795 50.2667L59.3359 48.6544L58.8338 48.2796Z" fill="#FCFCF5"/>
<path d="M60.7498 48.903L58.8339 48.2797L58.3848 50.2627L60.3882 51.6296C60.3882 51.6296 62.0901 50.1761 60.7498 48.903Z" fill="#FCFCF5"/>
<path d="M56.403 50.0704C56.3948 50.0419 55.9955 50.1305 55.5056 50.212C55.0157 50.2935 54.6083 50.3403 54.6104 50.3688C54.6124 50.3973 55.0229 50.3963 55.527 50.3128C56.0312 50.2293 56.4101 50.0959 56.403 50.0704Z" fill="#EFEFD8"/>
<path d="M56.3493 49.5437C56.3493 49.5132 55.7678 49.5763 55.0731 49.7342C54.3785 49.8921 53.8173 49.998 53.8193 50.0234C53.8214 50.0489 54.4009 49.9919 55.0955 49.833C55.7902 49.6741 56.3514 49.5692 56.3493 49.5437Z" fill="#EFEFD8"/>
<path d="M53.582 49.4582C53.582 49.4714 53.7226 49.4877 53.9487 49.4714C54.2423 49.4471 54.5339 49.4032 54.8216 49.34C55.4948 49.1975 56.0255 49.0284 56.0193 49.0029C56.0132 48.9775 55.4693 49.0987 54.7971 49.2402C54.463 49.3115 54.1585 49.3665 53.9385 49.4001C53.8182 49.409 53.6989 49.4284 53.582 49.4582Z" fill="#EFEFD8"/>
<path d="M78.2912 42.9134C78.3167 42.5243 78.3809 42.1383 77.9949 42.0802L74.0562 40.8926C72.7862 40.6991 71.8674 42.232 71.7279 43.5092C71.5741 44.928 71.4417 46.6666 71.5629 47.735C71.8053 49.8851 73.7018 50.4626 73.7018 50.4626L73.6519 51.7663C73.8159 52.7696 74.0695 53.8991 74.4769 54.3004C75.8702 54.0407 77.5885 51.3691 77.5885 51.3691L78.2912 42.9134Z" fill="#FCFCF5"/>
<path d="M73.769 47.305C73.6366 47.2627 73.5 47.235 73.3616 47.2225C73.2974 47.2133 73.2374 47.2001 73.2282 47.1634C73.219 47.1267 73.2435 47.0687 73.2771 47.0086C73.3412 46.8833 73.4085 46.7519 73.4808 46.6144C73.7629 46.0542 73.9697 45.5959 73.9422 45.5816C73.9147 45.5674 73.6631 46.0176 73.381 46.5788L73.1854 46.975C73.1649 47.0043 73.1507 47.0375 73.1437 47.0725C73.1367 47.1076 73.137 47.1437 73.1447 47.1787C73.1548 47.199 73.1691 47.2169 73.1867 47.2313C73.2042 47.2457 73.2246 47.2562 73.2465 47.2622C73.2818 47.272 73.318 47.2781 73.3545 47.2805C73.4915 47.3028 73.6304 47.311 73.769 47.305Z" fill="#146080"/>
<path d="M73.699 50.4624C73.699 50.4624 74.8602 50.388 76.3217 49.5977C76.3217 49.5977 75.8257 50.9452 73.6797 51.1091L73.699 50.4624Z" fill="#EFEFD8"/>
<path d="M77.8144 45.8343C77.845 45.377 78.4072 45.2884 78.8003 45.5288C79.0152 45.6581 79.1782 45.9138 79.1497 46.3996C79.0743 47.6952 77.79 47.3519 77.79 47.3163C77.79 47.2806 77.7818 46.3701 77.8144 45.8343Z" fill="#FCFCF5"/>
<path d="M74.8774 45.5064C74.8734 45.5797 74.8983 45.6516 74.9466 45.7068C74.9949 45.762 75.0629 45.7961 75.1361 45.8018C75.1717 45.8062 75.2077 45.8034 75.2422 45.7936C75.2767 45.7839 75.3089 45.7673 75.3369 45.7449C75.3649 45.7225 75.3882 45.6947 75.4053 45.6632C75.4224 45.6317 75.433 45.5971 75.4365 45.5614C75.4408 45.4883 75.4161 45.4164 75.368 45.3612C75.3198 45.3059 75.2519 45.2718 75.1788 45.2661C75.1432 45.2615 75.107 45.2642 75.0724 45.2739C75.0377 45.2836 75.0054 45.3002 74.9773 45.3226C74.9492 45.345 74.9259 45.3728 74.9087 45.4044C74.8916 45.436 74.8809 45.4707 74.8774 45.5064Z" fill="#4797C0"/>
<path d="M72.3314 45.5063C72.3277 45.5795 72.3527 45.6513 72.401 45.7064C72.4492 45.7615 72.5171 45.7957 72.5901 45.8017C72.6257 45.8062 72.6619 45.8035 72.6964 45.7938C72.731 45.7841 72.7632 45.7675 72.7912 45.7451C72.8193 45.7227 72.8425 45.6949 72.8596 45.6633C72.8766 45.6317 72.8872 45.597 72.8906 45.5613C72.8948 45.4882 72.8702 45.4163 72.822 45.361C72.7738 45.3058 72.7059 45.2717 72.6329 45.2659C72.5973 45.2616 72.5611 45.2643 72.5265 45.2741C72.492 45.2838 72.4597 45.3004 72.4317 45.3228C72.4036 45.3452 72.3802 45.3729 72.363 45.4044C72.3458 45.436 72.3351 45.4706 72.3314 45.5063Z" fill="#4797C0"/>
<path d="M73.8792 48.2685C73.9686 48.3643 74.0818 48.4346 74.2072 48.4722C74.3922 48.5307 74.5896 48.5384 74.7786 48.4946C74.9195 48.4613 75.0427 48.3762 75.1239 48.2563L75.2542 48.2838C75.2241 48.3348 75.1878 48.382 75.1463 48.4243C75.0521 48.516 74.9337 48.5789 74.8051 48.6056C74.5953 48.6486 74.3775 48.6306 74.1777 48.5537C74.0426 48.5051 73.9256 48.4162 73.8426 48.2991C73.7886 48.2135 73.7825 48.1555 73.7876 48.1544C73.7927 48.1534 73.8171 48.2003 73.8792 48.2685Z" fill="#146080"/>
<path d="M83.9261 66.6762C83.6134 65.7717 80.4143 62.1672 80.4143 62.1672C80.4143 62.1672 80.2106 60.0904 80.1087 59.187C80.0405 58.5759 79.959 56.0724 79.8775 54.1402C79.8072 52.4577 77.5196 50.9757 77.5196 50.9757H74.4641L75.5519 51.2619L73.0728 52.9537C73.0728 52.9537 69.7259 56.3015 70.2342 58.912C70.8748 62.1967 72.2712 70.4416 72.2712 70.4416L76.8983 69.7287C77.815 69.4914 78.5707 69.3834 80.1179 68.8731L84.4975 68.0481C84.2697 67.6072 84.0786 67.1484 83.9261 66.6762Z" fill="#1A7FAA"/>
<path d="M78.9256 52.3173L76.1257 51.1123L67.9836 50.2904L59.865 48.231L58.7559 50.9168L65.7409 54.1404C66.7227 54.9206 67.343 54.8534 67.8074 54.9888L76.3141 56.376L78.9256 52.3173Z" fill="#1A7FAA"/>
<g opacity="0.3">
<path d="M72.3848 55.7139C73.8687 57.3435 75.146 56.9789 77.3032 56.5348C75.2824 55.9441 72.3848 55.7139 72.3848 55.7139Z" fill="black"/>
</g>
<path d="M70.7553 61.3881C70.7531 61.4777 70.7589 61.5673 70.7727 61.6559C70.7879 61.8281 70.8175 62.0766 70.8562 62.3832C70.9346 62.9943 71.0599 63.8427 71.2279 64.7736C71.396 65.7045 71.5661 66.5438 71.6985 67.1498C71.7647 67.4554 71.8207 67.6978 71.8615 67.8628C71.8788 67.9513 71.9026 68.0385 71.9328 68.1235C71.9275 68.0336 71.9146 67.9443 71.8941 67.8567C71.8594 67.6733 71.8136 67.4299 71.7586 67.1356C71.6415 66.5244 71.4795 65.6872 71.3125 64.7573C71.1454 63.8274 71.0069 62.9841 70.9163 62.373C70.8715 62.0766 70.8338 61.8332 70.8053 61.6488C70.796 61.5606 70.7793 61.4734 70.7553 61.3881Z" fill="#263238"/>
<path d="M78.0106 55.4715C78.0157 55.4715 78.0636 55.4307 78.139 55.3401C78.2447 55.2105 78.3365 55.0702 78.413 54.9215C78.674 54.4281 78.7821 53.8681 78.7235 53.313C78.6649 52.7579 78.4423 52.2328 78.084 51.8048C77.9776 51.6757 77.8581 51.558 77.7275 51.4534C77.6824 51.4115 77.6308 51.3771 77.5747 51.3516C77.5625 51.3668 77.7784 51.5206 78.0269 51.8496C78.3593 52.2755 78.5657 52.786 78.6226 53.3232C78.6795 53.8604 78.5846 54.4028 78.3488 54.8889C78.1716 55.2637 77.9954 55.4592 78.0106 55.4715Z" fill="#263238"/>
<path d="M66.9746 54.8552C67.004 54.8686 67.0353 54.8775 67.0673 54.8817L67.3372 54.9398C67.5725 54.9876 67.9137 55.0508 68.3353 55.1262C69.1797 55.2759 70.3479 55.4653 71.6415 55.6558C72.935 55.8463 74.1083 56.0092 74.9567 56.1233L75.963 56.2547L76.238 56.2863C76.2718 56.291 76.3061 56.291 76.3399 56.2863C76.3101 56.2735 76.2785 56.2652 76.2462 56.2618L75.9742 56.2119L74.973 56.0479L71.6618 55.5519L68.3527 55.0508L67.3494 54.896L67.0765 54.8583C67.0428 54.8525 67.0085 54.8515 66.9746 54.8552Z" fill="#1C7097"/>
<path d="M73.6244 39.5489C74.1601 39.3717 74.6938 39.061 75.2652 39.2006C76.4008 39.4796 77.5976 39.5631 78.6202 40.2354C79.049 40.5165 79.3617 40.9025 79.7273 41.2406C80.1887 41.757 80.3384 42.5036 80.2121 43.5272C80.3271 42.9352 80.2899 42.3237 80.1042 41.7499C80.0431 41.5717 79.9005 41.4087 79.9677 41.1989C80.9954 40.985 81.9029 41.4973 82.3714 42.5556C82.8524 43.5984 82.9491 44.7778 82.6444 45.8851C82.1911 47.528 82.5079 48.961 83.6099 50.2403C83.6624 50.3035 83.7084 50.3717 83.7474 50.444C83.9684 50.8432 84.1263 51.2659 83.8116 51.6733C83.5162 52.0543 83.0986 51.9942 82.6912 51.8607C82.3011 52.4107 82.1871 52.4545 81.5097 52.2559C81.4339 52.2316 81.354 52.2225 81.2747 52.2291C81.1953 52.2357 81.118 52.258 81.0473 52.2946C80.482 52.5564 79.9565 52.3873 79.6275 51.8597C79.5103 51.664 79.4295 51.4487 79.3892 51.2242C79.1519 50.0019 79.103 48.7797 79.4004 47.5575C79.656 46.5033 79.986 45.4644 80.0757 44.7606C80.0533 45.1894 79.6479 46.0796 79.1906 46.3699C79.0001 46.2314 79.0429 45.9849 78.9329 45.8077C78.8066 45.604 78.6569 45.4318 78.3971 45.4492C78.112 45.4685 78.0478 45.6946 77.9897 45.9238C77.9388 46.1275 77.9408 46.3444 77.8879 46.5481C77.8145 46.816 77.6628 46.8608 77.4805 46.65C77.2228 46.3444 77.1128 45.9706 77.0293 45.5856C76.8979 44.9847 77.0099 44.3889 77.0293 43.791C77.0619 42.9762 76.7033 42.4242 75.9629 42.1115C75.8612 42.0597 75.7506 42.0279 75.637 42.0178C75.0625 42.0096 74.5298 41.8579 73.988 41.6603C73.2475 41.3904 72.3441 41.9852 72.0273 42.8703C71.9336 43.13 71.8888 43.404 71.8134 43.6698C71.7615 43.8552 71.7391 44.0568 71.5608 44.1791C71.2492 44.1933 71.2359 43.9448 71.2217 43.7482C71.1035 42.1981 71.3571 40.8017 72.8513 39.942C73.0326 39.8402 73.1752 39.6721 73.3779 39.6008C73.4581 39.5752 73.5406 39.5578 73.6244 39.5489Z" fill="#917F50"/>
<path d="M78.1646 47.0617C78.3239 46.7546 78.4454 46.4294 78.5262 46.0931L78.4101 46.1481L78.1605 46.2652C78.1116 46.2886 78.0801 46.2102 78.129 46.1878L78.4345 46.0442L78.5781 45.9769C78.5946 45.9646 78.6141 45.957 78.6345 45.9549C78.6549 45.9527 78.6756 45.9561 78.6942 45.9647C78.7248 45.9914 78.7462 46.0271 78.7553 46.0666C78.7742 46.1159 78.7906 46.1663 78.8042 46.2173C78.8294 46.3173 78.8435 46.4198 78.846 46.5229C78.846 46.5768 78.7635 46.587 78.7625 46.5331C78.7607 46.4482 78.7512 46.3636 78.734 46.2805C78.7247 46.2373 78.7128 46.1948 78.6983 46.1531C78.6923 46.1327 78.6851 46.1127 78.6769 46.0931C78.6718 46.0798 78.6627 46.0401 78.6484 46.037C78.6341 46.034 78.6158 46.0462 78.6016 46.0543C78.6076 46.0583 78.6122 46.0641 78.6146 46.0709C78.617 46.0777 78.6171 46.0852 78.6148 46.092C78.5334 46.4391 78.4093 46.7748 78.2451 47.0912C78.2216 47.1482 78.1402 47.1106 78.1646 47.0617Z" fill="#146080"/>
<path d="M23.8329 41.2102C26.0472 41.2102 28.2607 41.2102 30.4736 41.2102C30.6692 41.2102 30.7456 41.2397 30.7436 41.4618C30.7323 42.8551 30.7344 44.2495 30.7436 45.6428C30.7436 45.8414 30.6875 45.8984 30.492 45.8903C30.1223 45.875 29.7515 45.873 29.3818 45.8903C29.1526 45.9015 29.0762 45.8506 29.0762 45.599C29.0956 44.8127 29.0864 44.0254 29.0762 43.2381C29.0762 42.8521 29.1628 42.8684 28.7167 42.8684H20.0725C19.6468 42.8684 19.2211 42.8775 18.7963 42.8684C18.613 42.8622 18.5733 42.9254 18.5743 43.0975C18.5824 43.9551 18.5743 44.8137 18.5824 45.6713C18.5824 45.8506 18.5325 45.8995 18.3563 45.8944C17.9316 45.8821 17.5059 45.8852 17.0801 45.8944C16.9396 45.8944 16.8886 45.8577 16.8897 45.71C16.8897 44.277 16.8968 42.8439 16.8897 41.4119C16.8897 41.1929 17.0119 41.2194 17.1463 41.2194L23.8329 41.2102Z" fill="#3AABE1"/>
<path d="M27.2246 46.8874C27.7777 46.8874 28.3195 46.8874 28.8624 46.8874C28.9826 46.8874 29.0254 46.9567 29.0783 47.0361C29.3299 47.414 29.5825 47.7908 29.8504 48.1921C30.1172 47.7969 30.3739 47.4313 30.6143 47.0555C30.646 46.9983 30.6941 46.9518 30.7523 46.9219C30.8104 46.892 30.8762 46.88 30.9412 46.8874C31.4505 46.8966 31.9597 46.8874 32.4751 46.8874C32.5077 46.9791 32.4405 47.0249 32.4038 47.0809C31.8945 47.8377 31.3914 48.5965 30.876 49.3481C30.8352 49.393 30.8125 49.4515 30.8125 49.5121C30.8125 49.5728 30.8352 49.6313 30.876 49.6761C31.4006 50.4593 31.9159 51.2487 32.4344 52.036C32.4547 52.0676 32.471 52.1012 32.5097 52.1715C32.0707 52.1715 31.6572 52.146 31.2478 52.1786C30.8709 52.2081 30.6163 52.1124 30.4381 51.7539C30.2853 51.4483 30.0622 51.1784 29.8555 50.8718C29.5937 51.2599 29.3381 51.6276 29.0987 52.0034C29.0681 52.0612 29.0209 52.1085 28.9632 52.1392C28.9054 52.1699 28.8398 52.1825 28.7748 52.1755C28.2564 52.1643 27.7369 52.1755 27.1768 52.1755C27.4446 51.7763 27.6942 51.4015 27.9468 51.0277C28.2452 50.5846 28.5375 50.1365 28.8481 49.7036C28.95 49.5692 28.9347 49.4846 28.8481 49.3543C28.3389 48.6097 27.8347 47.858 27.3306 47.1084C27.2705 47.0494 27.233 46.9712 27.2246 46.8874Z" fill="#333333"/>
<path d="M18.5842 47.6575C18.7705 47.3383 19.0552 47.0882 19.3957 46.9446C19.7361 46.801 20.114 46.7716 20.4726 46.861C20.5744 46.8895 20.5663 46.9445 20.5663 47.0148C20.5663 47.4314 20.5612 47.848 20.5663 48.2645C20.5663 48.3939 20.5153 48.4061 20.4115 48.3847C20.2341 48.3466 20.0517 48.3383 19.8716 48.3603C19.0568 48.456 18.5914 48.9887 18.5822 49.8544C18.5741 50.5623 18.5761 51.2702 18.5822 51.978C18.5822 52.1288 18.5486 52.1817 18.3907 52.1746C17.966 52.1624 17.5403 52.1655 17.1155 52.1746C16.9811 52.1746 16.9424 52.1359 16.9424 52.0025C16.9465 50.3586 16.9465 48.7151 16.9424 47.0718C16.9424 46.9292 16.9811 46.8814 17.1278 46.8844C17.5525 46.8936 17.9782 46.8956 18.4029 46.8844C18.5588 46.8844 18.5883 46.9394 18.5802 47.0749C18.5761 47.2501 18.5842 47.4171 18.5842 47.6575Z" fill="#343333"/>
<path d="M21.4678 49.5242C21.4678 48.7094 21.4678 47.9028 21.4678 47.092C21.4678 46.9311 21.5034 46.8761 21.6715 46.8812C22.0962 46.8934 22.5219 46.8883 22.9477 46.8812C23.0668 46.8812 23.131 46.8914 23.131 47.0411C23.1256 48.7013 23.1256 50.3621 23.131 52.0237C23.131 52.1357 23.1015 52.1714 22.9864 52.1703C22.5291 52.1642 22.0697 52.1602 21.6155 52.1703C21.4464 52.1754 21.4708 52.0787 21.4708 51.9778L21.4678 49.5242Z" fill="#333333"/>
<path d="M26.2397 49.5497C26.2397 50.3594 26.2397 51.1691 26.2397 51.9788C26.2397 52.1296 26.205 52.1825 26.0482 52.1734C25.6235 52.1622 25.1987 52.1642 24.774 52.1734C24.6304 52.1734 24.5703 52.152 24.5703 51.986C24.5778 50.3509 24.5778 48.7158 24.5703 47.0808C24.5703 46.929 24.606 46.8771 24.7638 46.8822C25.1814 46.8934 25.598 46.8954 26.0146 46.8822C26.1877 46.8761 26.2397 46.9168 26.2376 47.0981C26.2336 47.9149 26.2397 48.7328 26.2397 49.5497Z" fill="#343333"/>
<path d="M22.3056 43.8971C22.5553 43.9034 22.7928 44.0062 22.9683 44.184C23.1438 44.3618 23.2436 44.6006 23.2467 44.8504C23.2471 45.0401 23.191 45.2255 23.0856 45.3832C22.9802 45.5409 22.8303 45.6636 22.655 45.7358C22.4796 45.808 22.2867 45.8263 22.1009 45.7885C21.915 45.7507 21.7446 45.6585 21.6114 45.5235C21.4782 45.3886 21.3881 45.217 21.3527 45.0307C21.3173 44.8444 21.3382 44.6518 21.4126 44.4773C21.4871 44.3029 21.6117 44.1546 21.7707 44.0513C21.9298 43.9479 22.1159 43.8942 22.3056 43.8971Z" fill="#3AABE1"/>
<path d="M26.3416 44.827C26.3454 45.0774 26.2498 45.3192 26.0756 45.4992C25.9015 45.6793 25.6631 45.7829 25.4127 45.7875C25.1587 45.7828 24.9165 45.6797 24.737 45.5C24.5574 45.3203 24.4546 45.0779 24.4502 44.8239C24.457 44.5777 24.5589 44.3436 24.7346 44.1708C24.9102 43.998 25.146 43.8999 25.3923 43.8971C25.5161 43.8942 25.6393 43.9162 25.7545 43.9617C25.8696 44.0072 25.9746 44.0752 26.063 44.1619C26.1515 44.2486 26.2217 44.3521 26.2696 44.4663C26.3174 44.5805 26.3419 44.7032 26.3416 44.827Z" fill="#3AABE1"/>
<path d="M14.787 48.6333C14.6495 48.5589 14.509 48.4897 14.3511 48.4082C14.4061 48.3797 14.4469 48.3573 14.4886 48.3369C15.5071 47.8429 15.6579 46.1725 14.7371 45.4718C14.3391 45.1849 13.8673 45.0181 13.3774 44.9911C12.2937 44.8943 11.2059 44.9727 10.1182 44.9473C9.97149 44.9473 9.97658 45.0226 9.97658 45.1245C9.97658 47.4141 9.97658 49.7041 9.97658 51.9944C9.97658 52.1441 10.0204 52.1747 10.162 52.1737C11.044 52.1675 11.926 52.1737 12.8101 52.1675C13.4569 52.1604 14.0985 52.0962 14.6872 51.7907C15.3187 51.4617 15.61 50.9199 15.6548 50.2273C15.6986 49.5163 15.4267 48.9745 14.787 48.6333ZM11.6388 46.6258C11.6388 46.5107 11.6602 46.4547 11.7926 46.4577C12.2173 46.4649 12.642 46.4516 13.0668 46.4577C13.4579 46.4679 13.6779 46.7052 13.6779 47.0862C13.6805 47.169 13.6663 47.2515 13.6361 47.3286C13.6058 47.4058 13.5602 47.4759 13.502 47.5349C13.4438 47.5939 13.3742 47.6404 13.2975 47.6716C13.2207 47.7029 13.1384 47.7182 13.0556 47.7166C12.8437 47.7248 12.6308 47.7166 12.419 47.7166C12.2071 47.7166 12.0116 47.7105 11.8079 47.7166C11.6887 47.7166 11.6388 47.6891 11.6419 47.5598C11.6459 47.2501 11.6439 46.9446 11.6388 46.6258ZM13.8582 50.2222C13.7431 50.5471 13.4711 50.6347 13.1686 50.654C12.9415 50.6693 12.7123 50.654 12.4842 50.654C12.256 50.654 12.0279 50.654 11.7997 50.654C11.6816 50.654 11.6347 50.6265 11.6378 50.4982C11.6459 50.1288 11.6459 49.7594 11.6378 49.39C11.6378 49.2637 11.6755 49.2301 11.7977 49.2322C12.2621 49.2393 12.7266 49.224 13.189 49.2434C13.7614 49.2739 14.0445 49.6946 13.8582 50.2222Z" fill="#343333"/>
</svg>
