<svg width="110" height="111" viewBox="0 0 110 111" fill="none" xmlns="http://www.w3.org/2000/svg">
<path opacity="0.1" d="M99.7056 92.7197L13.5888 92.6759C13.5888 92.6759 -0.964822 65.787 6.79629 47.7999C14.5574 29.8129 25.8945 42.5097 26.8397 29.5134C26.8723 29.0734 26.8468 28.6385 26.8468 28.2128C26.8468 28.1109 26.8468 28.0091 26.8468 27.9123C27.1381 20.4486 30.7702 15.6249 35.5643 12.8495C35.7192 12.7598 35.875 12.6722 36.0318 12.5867C43.6758 8.43316 54.0118 9.28769 58.588 12.8596C66.3735 18.9351 66.3287 26.2491 82.4009 23.8362C98.4732 21.4233 101.546 41.5971 97.363 51.875C91.425 66.4582 113.829 64.0636 99.7056 92.7197Z" fill="#196181"/>
<path d="M54.4931 105.495C81.4774 105.495 103.352 100.767 103.352 94.9359C103.352 89.1044 81.4774 84.377 54.4931 84.377C27.5089 84.377 5.63379 89.1044 5.63379 94.9359C5.63379 100.767 27.5089 105.495 54.4931 105.495Z" fill="#E5F2FC"/>
<path d="M96.9644 54.0659H67.6494V92.7309H96.9644V54.0659Z" fill="#F9F9F9"/>
<path d="M96.9637 54.0659H83.2188V92.7309H96.9637V54.0659Z" fill="#E3E3E3"/>
<path d="M76.4318 59.3013H73.7959V65.7047H76.4318V59.3013Z" fill="#E3E3E3"/>
<path d="M76.4318 84.3638H73.7959V90.7672H76.4318V84.3638Z" fill="#E3E3E3"/>
<path d="M83.2195 68.2183C83.2195 68.2733 79.7341 68.3202 75.435 68.3202C71.1358 68.3202 67.6494 68.2753 67.6494 68.2183C67.6494 68.1613 71.1348 68.1165 75.435 68.1165C79.7352 68.1165 83.2195 68.1633 83.2195 68.2183Z" fill="#E3E3E3"/>
<path d="M76.4318 71.9277H73.7959V78.3312H76.4318V71.9277Z" fill="#E3E3E3"/>
<path d="M83.2195 80.8448C83.2195 80.8998 79.7341 80.9466 75.435 80.9466C71.1358 80.9466 67.6494 80.9018 67.6494 80.8448C67.6494 80.7877 71.1348 80.7429 75.435 80.7429C79.7352 80.7429 83.2195 80.7898 83.2195 80.8448Z" fill="#E3E3E3"/>
<path d="M88.7736 59.301H86.1377V65.7045H88.7736V59.301Z" fill="#A6A6A6"/>
<path d="M94.4924 59.3011H91.8564V65.7046H94.4924V59.3011Z" fill="#A6A6A6"/>
<path d="M88.7736 71.4521H86.1377V77.8556H88.7736V71.4521Z" fill="#A6A6A6"/>
<path d="M94.4924 71.4521H91.8564V77.8556H94.4924V71.4521Z" fill="#A6A6A6"/>
<path d="M88.7736 83.604H86.1377V90.0074H88.7736V83.604Z" fill="#A6A6A6"/>
<path d="M94.4924 83.604H91.8564V90.0074H94.4924V83.604Z" fill="#A6A6A6"/>
<path d="M99.1684 52.7205H65.4463V54.1148H99.1684V52.7205Z" fill="#A6A6A6"/>
<path d="M97.1665 54.2463C97.1665 54.3013 90.6144 54.3481 82.5335 54.3481C74.4526 54.3481 67.8994 54.3033 67.8994 54.2463C67.8994 54.1892 74.4505 54.1444 82.5335 54.1444C90.6165 54.1444 97.1665 54.1913 97.1665 54.2463Z" fill="#F9F9F9"/>
<path d="M43.8443 33.894H14.5293V72.559H43.8443V33.894Z" fill="#F9F9F9"/>
<path d="M43.8426 33.894H30.0977V72.559H43.8426V33.894Z" fill="#E3E3E3"/>
<path d="M23.3117 39.1294H20.6758V45.5328H23.3117V39.1294Z" fill="#E3E3E3"/>
<path d="M23.3117 64.192H20.6758V70.5954H23.3117V64.192Z" fill="#E3E3E3"/>
<path d="M30.0984 48.0464C30.0984 48.1014 26.613 48.1483 22.3138 48.1483C18.0147 48.1483 14.5293 48.1035 14.5293 48.0464C14.5293 47.9894 18.0136 47.9446 22.3138 47.9446C26.614 47.9446 30.0984 47.9914 30.0984 48.0464Z" fill="#E3E3E3"/>
<path d="M23.3117 51.756H20.6758V58.1594H23.3117V51.756Z" fill="#E3E3E3"/>
<path d="M30.0984 60.6731C30.0984 60.7281 26.613 60.775 22.3138 60.775C18.0147 60.775 14.5293 60.7302 14.5293 60.6731C14.5293 60.6161 18.0136 60.5713 22.3138 60.5713C26.614 60.5713 30.0984 60.6181 30.0984 60.6731Z" fill="#E3E3E3"/>
<path d="M35.6525 39.1294H33.0166V45.5328H35.6525V39.1294Z" fill="#A6A6A6"/>
<path d="M41.3713 39.1294H38.7354V45.5328H41.3713V39.1294Z" fill="#A6A6A6"/>
<path d="M35.6525 51.2803H33.0166V57.6837H35.6525V51.2803Z" fill="#A6A6A6"/>
<path d="M41.3713 51.2803H38.7354V57.6837H41.3713V51.2803Z" fill="#A6A6A6"/>
<path d="M35.6525 63.4321H33.0166V69.8356H35.6525V63.4321Z" fill="#A6A6A6"/>
<path d="M41.3713 63.4323H38.7354V69.8357H41.3713V63.4323Z" fill="#A6A6A6"/>
<path d="M46.0473 32.5487H12.3252V33.9431H46.0473V32.5487Z" fill="#A6A6A6"/>
<path d="M44.0483 34.0745C44.0483 34.1295 37.4962 34.1764 29.4163 34.1764C21.3364 34.1764 14.7822 34.1315 14.7822 34.0745C14.7822 34.0175 21.3323 33.9727 29.4163 33.9727C37.5003 33.9727 44.0483 34.0195 44.0483 34.0745Z" fill="#F9F9F9"/>
<path d="M70.9444 12.9565H40.3838V92.9479H70.9444V12.9565Z" fill="#BBE5FA"/>
<path d="M70.9449 12.9565H55.6641V92.9479H70.9449V12.9565Z" fill="#1F80A9"/>
<path d="M72.385 12.4014H38.3828V12.9565H72.385V12.4014Z" fill="#196181"/>
<path d="M49.004 17.1029H46.417V66.0407H49.004V17.1029Z" fill="#1F80A9"/>
<path d="M55.6645 24.698C55.6645 24.7561 52.2443 24.7999 48.0256 24.7999C43.8069 24.7999 40.3867 24.753 40.3867 24.698C40.3867 24.643 43.8069 24.5962 48.0256 24.5962C52.2443 24.5962 55.6645 24.639 55.6645 24.698Z" fill="#1F80A9"/>
<path d="M71.0786 24.698C71.0786 24.7561 67.6574 24.7999 63.4397 24.7999C59.222 24.7999 55.8008 24.753 55.8008 24.698C55.8008 24.643 59.221 24.5962 63.4397 24.5962C67.6584 24.5962 71.0786 24.639 71.0786 24.698Z" fill="#C6E4F1"/>
<path d="M71.0786 35.5279C71.0786 35.5849 67.6574 35.6297 63.4397 35.6297C59.222 35.6297 55.8008 35.5829 55.8008 35.5279C55.8008 35.4729 59.221 35.426 63.4397 35.426C67.6584 35.426 71.0786 35.4708 71.0786 35.5279Z" fill="#C6E4F1"/>
<path d="M71.0786 46.6836C71.0786 46.7417 67.6574 46.7855 63.4397 46.7855C59.222 46.7855 55.8008 46.7386 55.8008 46.6836C55.8008 46.6286 59.221 46.5818 63.4397 46.5818C67.6584 46.5818 71.0786 46.6266 71.0786 46.6836Z" fill="#C6E4F1"/>
<path d="M71.0786 57.8426C71.0786 57.8996 67.6574 57.9444 63.4397 57.9444C59.222 57.9444 55.8008 57.8976 55.8008 57.8426C55.8008 57.7876 59.221 57.7407 63.4397 57.7407C67.6584 57.7407 71.0786 57.7825 71.0786 57.8426Z" fill="#C6E4F1"/>
<path d="M55.6645 35.6929C55.6645 35.751 52.2443 35.7948 48.0256 35.7948C43.8069 35.7948 40.3867 35.7489 40.3867 35.6929C40.3867 35.6369 43.8069 35.5911 48.0256 35.5911C52.2443 35.5911 55.6645 35.6389 55.6645 35.6929Z" fill="#1F80A9"/>
<path d="M55.6645 46.6878C55.6645 46.7458 52.2443 46.7896 48.0256 46.7896C43.8069 46.7896 40.3867 46.7438 40.3867 46.6878C40.3867 46.6318 43.8069 46.5859 48.0256 46.5859C52.2443 46.5859 55.6645 46.6308 55.6645 46.6878Z" fill="#1F80A9"/>
<path d="M55.6645 57.6827C55.6645 57.7397 52.2443 57.7845 48.0256 57.7845C43.8069 57.7845 40.3867 57.7377 40.3867 57.6827C40.3867 57.6277 43.8069 57.5808 48.0256 57.5808C52.2443 57.5808 55.6645 57.6256 55.6645 57.6827Z" fill="#1F80A9"/>
<path d="M35.2588 74.0797H9.91504V97.0748H35.2588V74.0797Z" fill="#1F80A9"/>
<path d="M19.6062 74.0798H9.91504L14.1592 68.1938L19.6062 60.5732V74.0798Z" fill="#1F80A9"/>
<path d="M19.6064 74.0788H35.259L28.4044 68.1938L19.6064 60.5732V74.0788Z" fill="#1F80A9"/>
<path d="M28.0791 72.6712V97.0749H63.6386V72.6712H59.5625L52.1783 72.5642H45.8584L28.0791 72.6712Z" fill="#C6E4F1"/>
<path d="M28.0803 74.0798L44.8044 73.7804L50.721 73.7702L57.6082 74.0798L65.3072 73.9331L57.0083 60.5732L19.7061 60.7586L28.0803 74.0798Z" fill="#196181"/>
<path d="M49.0868 79.1643C51.6708 79.1643 54.2558 79.1643 56.8398 79.1592C57.0669 79.1592 57.1565 79.1948 57.1545 79.4546C57.1409 81.0842 57.1409 82.7108 57.1545 84.3343C57.1545 84.5655 57.0883 84.6327 56.8602 84.6235C56.4293 84.6062 55.9954 84.6032 55.5646 84.6235C55.2967 84.6368 55.203 84.5777 55.2101 84.2844C55.2326 83.3677 55.2224 82.451 55.2163 81.5272C55.2163 81.077 55.3181 81.0954 54.7966 81.0954H44.698C44.201 81.0954 43.7039 81.1066 43.2079 81.0954C42.9951 81.0883 42.9472 81.1616 42.9492 81.3622C42.9584 82.3634 42.9492 83.3657 42.9584 84.3669C42.9584 84.5767 42.8993 84.6337 42.6946 84.6276C42.1986 84.6133 41.7015 84.6174 41.2055 84.6276C41.0405 84.6276 40.9814 84.5838 40.9814 84.4117C40.9876 82.7393 40.9906 81.0659 40.9814 79.3934C40.9814 79.1388 41.123 79.1704 41.2799 79.1704L49.0868 79.1643Z" fill="#3AABE1"/>
<path d="M53.0463 85.7917C53.692 85.7917 54.3255 85.7917 54.959 85.7917C55.0986 85.7917 55.1495 85.8722 55.2106 85.9649C55.5039 86.4059 55.7993 86.8459 56.112 87.3144C56.4237 86.854 56.7231 86.4263 57.0042 85.9903C57.0411 85.9235 57.097 85.8691 57.1648 85.8341C57.2326 85.7991 57.3093 85.7851 57.3851 85.7938C57.983 85.805 58.5799 85.7938 59.1767 85.7938C59.2134 85.8956 59.135 85.9537 59.0922 86.0189C58.5004 86.9029 57.9107 87.788 57.3087 88.667C57.2612 88.7195 57.2349 88.7877 57.2349 88.8585C57.2349 88.9293 57.2612 88.9975 57.3087 89.05C57.9199 89.9666 58.5228 90.8833 59.1278 91.8C59.1523 91.8366 59.1706 91.8764 59.2164 91.9568C58.7072 91.9568 58.2203 91.9283 57.7426 91.966C57.3026 92.0006 57.0063 91.8886 56.7975 91.471C56.6192 91.1135 56.3585 90.7977 56.1181 90.4402C55.8125 90.8935 55.5141 91.3223 55.234 91.7643C55.1987 91.8322 55.1438 91.888 55.0764 91.9243C55.009 91.9606 54.9323 91.9758 54.8562 91.968C54.2501 91.9558 53.6441 91.968 52.9902 91.968C53.3029 91.5026 53.5942 91.0646 53.8886 90.6287C54.2369 90.1113 54.5791 89.5888 54.9417 89.0815C55.0548 88.9247 55.0436 88.8259 54.9417 88.6741C54.3438 87.8043 53.7582 86.9274 53.1695 86.0514C53.0995 85.9818 53.056 85.89 53.0463 85.7917Z" fill="#333333"/>
<path d="M42.9589 86.688C43.3846 85.917 44.3767 85.531 45.164 85.7611C45.2811 85.7948 45.274 85.8579 45.274 85.9404C45.274 86.4273 45.2679 86.9141 45.274 87.3999C45.274 87.5507 45.2139 87.566 45.0937 87.5395C44.8862 87.4954 44.6729 87.4858 44.4622 87.511C43.5109 87.624 42.9681 88.2453 42.9568 89.2557C42.9477 90.0817 42.9507 90.9087 42.9568 91.7348C42.9568 91.911 42.9181 91.969 42.7328 91.9639C42.2368 91.9507 41.7407 91.9537 41.2447 91.9639C41.0879 91.9639 41.041 91.9191 41.041 91.7602C41.0451 89.8413 41.0451 87.9224 41.041 86.0036C41.041 85.8375 41.0868 85.7815 41.258 85.7856C41.754 85.7968 42.251 85.7978 42.747 85.7856C42.9283 85.7856 42.963 85.8498 42.9507 86.0086C42.9497 86.2093 42.9589 86.4099 42.9589 86.688Z" fill="#343333"/>
<path d="M46.3262 88.8707C46.3262 87.9245 46.3313 86.9783 46.3262 86.0311C46.3262 85.8426 46.3669 85.7785 46.5655 85.7846C47.0626 85.7999 47.5586 85.7937 48.0556 85.7846C48.1941 85.7846 48.2705 85.7958 48.2695 85.971C48.2634 87.9089 48.2634 89.8478 48.2695 91.7877C48.2695 91.9181 48.2349 91.9609 48.1004 91.9588C47.5677 91.9517 47.034 91.9466 46.5003 91.9588C46.3027 91.9588 46.3313 91.857 46.3313 91.7327L46.3262 88.8707Z" fill="#333333"/>
<path d="M51.8954 88.9003C51.8954 89.8454 51.8954 90.7906 51.9005 91.7358C51.9005 91.912 51.8608 91.9691 51.6774 91.964C51.1814 91.9507 50.6854 91.9528 50.1894 91.964C50.0224 91.964 49.9531 91.9375 49.9541 91.745C49.9623 89.8363 49.9623 87.9272 49.9541 86.0178C49.9541 85.8406 49.9959 85.7815 50.1812 85.7866C50.6671 85.7989 51.1549 85.8009 51.6408 85.7866C51.8445 85.7805 51.9036 85.8274 51.9005 86.0392C51.8883 86.9916 51.8954 87.9459 51.8954 88.9003Z" fill="#343333"/>
<path d="M47.3093 82.3013C47.6008 82.3089 47.8781 82.4291 48.083 82.6366C48.2879 82.8441 48.4044 83.1229 48.4083 83.4145C48.3782 83.6918 48.2458 83.9478 48.037 84.1326C47.8282 84.3174 47.5579 84.4178 47.2791 84.4139C47.0003 84.4101 46.7329 84.3024 46.5292 84.112C46.3255 83.9215 46.2002 83.6619 46.1777 83.384C46.1818 82.8014 46.7084 82.2972 47.3093 82.3013Z" fill="#3AABE1"/>
<path d="M52.0166 83.387C52.0207 83.6793 51.9089 83.9612 51.7056 84.1712C51.5023 84.3812 51.2241 84.502 50.9319 84.5074C50.6366 84.5014 50.3551 84.3815 50.1463 84.1726C49.9375 83.9638 49.8175 83.6823 49.8115 83.387C49.8189 83.0994 49.9378 82.8259 50.143 82.6243C50.3483 82.4227 50.6238 82.3087 50.9115 82.3064C51.0554 82.3034 51.1984 82.3291 51.3323 82.3821C51.4661 82.435 51.588 82.5141 51.6909 82.6147C51.7938 82.7154 51.8756 82.8355 51.9315 82.9681C51.9874 83.1007 52.0164 83.2431 52.0166 83.387Z" fill="#3AABE1"/>
<path d="M38.5272 87.8298C38.3652 87.7443 38.2023 87.6618 38.0179 87.5671C38.0811 87.5345 38.1289 87.508 38.1778 87.4835C39.3664 86.9071 39.5427 84.9576 38.4681 84.1397C37.9976 83.7822 37.4496 83.6305 36.8813 83.5785C35.6163 83.4655 34.3462 83.5572 33.0781 83.5276C32.907 83.5276 32.9131 83.6152 32.9131 83.7313C32.9131 86.4053 32.9131 89.0785 32.9131 91.7511C32.9131 91.9273 32.964 91.962 33.129 91.961C34.1577 91.9538 35.1875 91.9609 36.2172 91.9538C36.9729 91.9457 37.7215 91.8713 38.409 91.5138C39.1464 91.1309 39.4866 90.4953 39.5396 89.6897C39.5895 88.8606 39.2727 88.2281 38.5272 87.8298ZM34.8503 85.4872C34.8503 85.3538 34.8758 85.2886 35.0306 85.2907C35.5266 85.2998 36.0227 85.2846 36.5177 85.2978C36.975 85.31 37.2306 85.586 37.2306 86.0311C37.234 86.128 37.2175 86.2246 37.1823 86.3149C37.147 86.4052 37.0938 86.4873 37.0257 86.5564C36.9576 86.6254 36.8762 86.6798 36.7864 86.7163C36.6966 86.7528 36.6003 86.7705 36.5034 86.7685C36.2559 86.7777 36.0074 86.7685 35.7599 86.7685C35.5124 86.7685 35.2812 86.7624 35.0469 86.7685C34.9094 86.7736 34.8503 86.736 34.8544 86.5852C34.8595 86.2206 34.8575 85.8519 34.8503 85.4862V85.4872ZM37.4425 89.6866C37.308 90.0655 36.9902 90.1673 36.6368 90.1959C36.372 90.2132 36.1041 90.1959 35.8383 90.1959C35.5725 90.1959 35.3056 90.1887 35.0398 90.1959C34.9002 90.201 34.8463 90.1653 34.8493 90.0146C34.8595 89.5834 34.8595 89.1522 34.8493 88.721C34.8493 88.5744 34.8941 88.5336 35.0367 88.5357C35.5786 88.5448 36.1204 88.5265 36.6613 88.5499C37.3294 88.5785 37.6594 89.0724 37.4425 89.6856V89.6866Z" fill="#343333"/>
</svg>
