<svg width="34" height="34" viewBox="0 0 34 34" fill="none" xmlns="http://www.w3.org/2000/svg">
<rect x="1.19922" y="1" width="32" height="32" rx="16" stroke="white"/>
<path fill-rule="evenodd" clip-rule="evenodd" d="M17.1994 9.00772C16.9345 9.00772 16.6707 9.00581 16.4089 9.00392C13.4321 8.98243 10.7149 8.96281 9.62247 11.7665C9.18869 12.8797 9.19385 14.2866 9.20093 16.2153C9.20186 16.4694 9.20283 16.7325 9.20283 17.0052C9.20283 17.2267 9.20207 17.4468 9.20131 17.6648C9.19504 19.4695 9.18927 21.1278 9.62247 22.243C10.7123 25.0481 13.4503 25.0281 16.4112 25.0065H16.4115H16.4118H16.4121C16.6726 25.0046 16.9347 25.0027 17.1976 25.0027C17.4724 25.0027 17.7479 25.0052 18.0228 25.0077C20.8865 25.0337 23.676 25.0591 24.7737 22.243C25.2077 21.1202 25.2025 19.7331 25.1953 17.8052V17.8052C25.1943 17.5483 25.1933 17.2819 25.1933 17.0052C25.1933 16.706 25.1949 16.417 25.1964 16.1376C25.2108 13.4993 25.2206 11.719 23.8505 10.3497C22.475 8.9742 20.665 8.98642 18.1103 9.00367C17.8156 9.00566 17.5109 9.00772 17.1958 9.00772H17.1994ZM17.7684 10.4404L17.7685 10.4404C23.4275 10.3871 24.1558 10.3802 23.7076 20.2342C23.5528 23.6241 21.1948 23.5982 18.1465 23.5648H18.1464H18.1463H18.1462C17.8374 23.5614 17.5215 23.5579 17.2001 23.5579C10.8288 23.5579 10.6456 23.3756 10.6456 17.0016C10.6456 10.5536 11.151 10.4526 16.4826 10.4471V10.4489C16.9372 10.4482 17.3653 10.4442 17.7684 10.4404ZM20.5085 12.7357C20.5085 12.206 20.9381 11.7764 21.4678 11.7764C21.9975 11.7764 22.4271 12.206 22.4271 12.7357C22.4271 13.2655 21.9975 13.695 21.4678 13.695C20.9381 13.695 20.5085 13.2655 20.5085 12.7357ZM17.1994 12.8981C14.9315 12.8981 13.0933 14.7373 13.0933 17.0052C13.0933 19.273 14.9315 21.1113 17.1994 21.1113C19.4672 21.1113 21.3046 19.273 21.3046 17.0052C21.3046 14.7373 19.4672 12.8981 17.1994 12.8981ZM17.1994 14.3394C20.7234 14.3394 20.7279 19.671 17.1994 19.671C13.6762 19.671 13.6708 14.3394 17.1994 14.3394Z" fill="white"/>
</svg>
