<svg width="28" height="28" viewBox="0 0 28 28" fill="none" xmlns="http://www.w3.org/2000/svg">
<path d="M18.2188 3.90527C16.7059 3.90527 15.3348 4.18877 14.2633 4.72287C13.1925 5.25696 12.3125 6.12687 12.3125 7.28027V10.6553C12.3125 10.7641 12.3488 10.8696 12.3657 10.9717C11.5211 10.7571 10.6526 10.6507 9.78125 10.6553C8.26841 10.6553 6.89731 10.9388 5.82575 11.4729C4.75503 12.007 3.875 12.8769 3.875 14.0303V20.7803C3.875 21.9337 4.75503 22.8036 5.82659 23.3377C6.89731 23.8718 8.26841 24.1553 9.78125 24.1553C11.2941 24.1553 12.6652 23.8718 13.7367 23.3377C14.8066 22.8036 15.6875 21.9337 15.6875 20.7803V20.4377C16.5129 20.6608 17.3637 20.776 18.2188 20.7803C19.7316 20.7803 21.1027 20.4968 22.1742 19.9627C23.2441 19.4286 24.125 18.5587 24.125 17.4053V7.28027C24.125 6.12687 23.245 5.25696 22.1734 4.72287C21.1035 4.18877 19.7324 3.90527 18.2188 3.90527ZM18.2188 5.59277C19.5038 5.59277 20.6479 5.86952 21.409 6.25174C22.1709 6.63396 22.4375 7.03643 22.4375 7.28027C22.4375 7.52496 22.1709 7.92659 21.409 8.3088C20.6488 8.69102 19.5038 8.96777 18.2188 8.96777C16.9337 8.96777 15.7896 8.69102 15.0285 8.3088C14.2666 7.92659 14 7.52412 14 7.28027C14 7.03559 14.2666 6.63396 15.0285 6.25174C15.7887 5.86952 16.9337 5.59277 18.2188 5.59277ZM14 9.6799C14.0886 9.72884 14.1713 9.79212 14.2641 9.83768C15.3348 10.3718 16.7059 10.6553 18.2188 10.6553C19.7316 10.6553 21.1027 10.3718 22.1742 9.83768C22.2662 9.79212 22.3489 9.72884 22.4375 9.6799V10.6553C22.4375 10.9 22.1709 11.3016 21.409 11.6838C20.6479 12.066 19.5038 12.3428 18.2188 12.3428C16.9337 12.3428 15.7896 12.066 15.0285 11.6838C14.2666 11.3016 14 10.8991 14 10.6553V9.6799ZM9.78125 12.3428C11.0663 12.3428 12.2104 12.6195 12.9715 13.0017C13.7334 13.384 14 13.7864 14 14.0303C14 14.275 13.7334 14.6766 12.9715 15.0588C12.2104 15.441 11.0663 15.7178 9.78125 15.7178C8.49622 15.7178 7.35209 15.441 6.59103 15.0588C5.82912 14.6766 5.5625 14.2741 5.5625 14.0303C5.5625 13.7856 5.82912 13.384 6.59103 13.0017C7.35125 12.6195 8.49622 12.3428 9.78125 12.3428ZM22.4375 13.0549V14.0303C22.4375 14.275 22.1709 14.6766 21.409 15.0588C20.6479 15.441 19.5038 15.7178 18.2188 15.7178C17.3592 15.7224 16.5046 15.5888 15.6875 15.3221V14.0303C15.6875 13.9214 15.6512 13.816 15.6343 13.7139C16.419 13.9181 17.2889 14.0303 18.2188 14.0303C19.7316 14.0303 21.1027 13.7468 22.1742 13.2127C22.2662 13.1671 22.3489 13.1038 22.4375 13.0549ZM5.5625 16.4299C5.65109 16.4788 5.73378 16.5421 5.82659 16.5877C6.89731 17.1218 8.26841 17.4053 9.78125 17.4053C11.2941 17.4053 12.6652 17.1218 13.7367 16.5877C13.8287 16.5421 13.9114 16.4788 14 16.4299V17.4053C14 17.65 13.7334 18.0516 12.9715 18.4338C12.2104 18.816 11.0663 19.0928 9.78125 19.0928C8.49622 19.0928 7.35209 18.816 6.59103 18.4338C5.82912 18.0516 5.5625 17.6491 5.5625 17.4053V16.4299ZM22.4375 16.4299V17.4053C22.4375 17.65 22.1709 18.0516 21.409 18.4338C20.6479 18.816 19.5038 19.0928 18.2188 19.0928C17.2594 19.0928 16.3929 18.9578 15.6875 18.7232V17.0889C16.4621 17.2931 17.3058 17.4053 18.2188 17.4053C19.7316 17.4053 21.1027 17.1218 22.1742 16.5877C22.2662 16.5421 22.3489 16.4788 22.4375 16.4299ZM5.5625 19.8049C5.65109 19.8538 5.73378 19.9171 5.82659 19.9627C6.89731 20.4968 8.26841 20.7803 9.78125 20.7803C11.2941 20.7803 12.6652 20.4968 13.7367 19.9627C13.8287 19.9171 13.9114 19.8538 14 19.8049V20.7803C14 21.025 13.7334 21.4266 12.9715 21.8088C12.2104 22.191 11.0663 22.4678 9.78125 22.4678C8.49622 22.4678 7.35209 22.191 6.59103 21.8088C5.82912 21.4266 5.5625 21.0241 5.5625 20.7803V19.8049Z" fill="#1F9ED3"/>
</svg>
