<svg width="27" height="28" viewBox="0 0 27 28" fill="none" xmlns="http://www.w3.org/2000/svg">
<path d="M11.8955 24.125H16.3955M22.0205 24.125V6.125C22.0205 5.52826 21.7835 4.95597 21.3615 4.53401C20.9395 4.11205 20.3672 3.875 19.7705 3.875H8.52051C7.92377 3.875 7.35147 4.11205 6.92952 4.53401C6.50756 4.95597 6.27051 5.52826 6.27051 6.125V24.125H22.0205ZM22.0205 24.125H24.2705H22.0205ZM22.0205 24.125H16.3955H22.0205ZM6.27051 24.125H4.02051H6.27051ZM6.27051 24.125H11.8955H6.27051ZM10.7705 8.375H11.8955H10.7705ZM10.7705 12.875H11.8955H10.7705ZM16.3955 8.375H17.5205H16.3955ZM16.3955 12.875H17.5205H16.3955ZM11.8955 24.125V18.5C11.8955 18.2016 12.014 17.9155 12.225 17.7045C12.436 17.4935 12.7221 17.375 13.0205 17.375H15.2705C15.5689 17.375 15.855 17.4935 16.066 17.7045C16.277 17.9155 16.3955 18.2016 16.3955 18.5V24.125H11.8955Z" stroke="#1F9ED3" stroke-width="2" stroke-linecap="round" stroke-linejoin="round"/>
</svg>
