<svg width="204" height="507" viewBox="0 0 204 507" fill="none" xmlns="http://www.w3.org/2000/svg">
<g opacity="0.3">
<path d="M181.314 213.753L251.878 172.522L323.397 213.757V293.984L251.878 334.483L181.314 293.988V213.753Z" stroke="#99D2EB" stroke-width="2"/>
<path d="M148.488 194.495L252.356 136.01L356.223 194.495V309.951L252.356 367.951L148.488 309.951L148.488 194.495Z" stroke="#99D2EB" stroke-width="2"/>
<path d="M181.848 213.87L149.659 195.378" stroke="#99D2EB" stroke-width="2"/>
<path d="M117.474 176.888L82.2194 156.635" stroke="#99D2EB" stroke-width="2"/>
<path d="M116.633 176.512L252.359 99.5086L388.085 176.512V330.49L252.359 407.493L116.633 330.49V176.512Z" stroke="#99D2EB" stroke-width="2"/>
<path d="M82.1201 156.099L252.359 56.9273L422.599 156.099V351.788L252.359 450.075L82.1201 351.788L82.1201 156.099Z" stroke="#99D2EB" stroke-width="2"/>
</g>
</svg>
