<svg width="847" height="847" viewBox="0 0 847 847" fill="none" xmlns="http://www.w3.org/2000/svg">
<path d="M215.952 0L-0.000426024 215.953L75.7234 291.676L214.541 152.859L693.322 631.64L554.504 770.458L630.228 846.181L846.181 630.229L215.952 0Z" fill="#EAF6FB" fill-opacity="0.3"/>
<path d="M249.153 376.671C254.913 370.867 261.77 366.273 269.297 363.171C276.826 360.07 284.868 358.524 292.927 358.635C300.976 358.332 308.954 359.689 316.366 362.621C323.778 365.553 330.463 369.998 336.006 375.677C341.727 381.257 346.213 387.98 349.188 395.433C352.162 402.885 353.564 410.911 353.307 419.014C353.278 427.08 351.638 435.102 348.485 442.613C345.333 450.125 340.73 456.972 334.947 462.755C329.164 468.538 322.316 473.142 314.805 476.293C307.294 479.446 299.272 481.086 291.205 481.116C283.102 481.373 275.077 479.97 267.625 476.996C260.172 474.021 253.449 469.535 247.868 463.815C242.189 458.272 237.745 451.586 234.813 444.174C231.881 436.762 230.524 428.784 230.826 420.736C230.732 412.61 232.308 404.506 235.462 396.924C238.615 389.344 243.275 382.45 249.153 376.671Z" fill="#EAF6FB" fill-opacity="0.3"/>
<path d="M390.209 517.727C395.969 511.923 402.826 507.329 410.355 504.228C417.882 501.125 425.925 499.581 433.983 499.69C442.032 499.388 450.01 500.744 457.422 503.677C464.834 506.609 471.519 511.053 477.063 516.734C482.775 522.312 487.254 529.033 490.224 536.481C493.195 543.929 494.594 551.948 494.337 560.044C494.308 568.11 492.669 576.132 489.517 583.644C486.363 591.155 481.761 598.002 475.977 603.785C470.194 609.568 463.347 614.172 455.836 617.325C448.325 620.476 440.303 622.116 432.235 622.146C424.132 622.403 416.108 621.001 408.655 618.026C401.203 615.051 394.48 610.565 388.899 604.846C383.219 599.302 378.775 592.616 375.843 585.204C372.911 577.792 371.555 569.814 371.856 561.767C371.762 553.64 373.339 545.536 376.492 537.954C379.645 530.374 384.305 523.48 390.184 517.701" fill="#EAF6FB" fill-opacity="0.3"/>
</svg>
