<svg width="232" height="507" viewBox="0 0 232 507" fill="none" xmlns="http://www.w3.org/2000/svg">
<g opacity="0.3">
<path d="M11.6099 270.416L-21.6443 289.108V272.202V254.172L11.6099 235.479V270.416ZM10.5691 233.77L-22.6443 252.44L-55.8576 233.77L-22.6443 215.101L10.5691 233.77ZM-56.8984 270.416V235.479L-23.6443 254.172V272.202V289.108L-56.8984 270.416Z" stroke="#99D2EB" stroke-width="2"/>
<path d="M-93.6855 213.753L-23.1217 172.522L48.3968 213.757V293.984L-23.1217 334.483L-93.6855 293.988V213.753Z" stroke="#99D2EB" stroke-width="2"/>
<path d="M-126.512 194.495L-22.6443 136.01L81.2231 194.495V309.951L-22.6443 367.951L-126.512 309.951L-126.512 194.495Z" stroke="#99D2EB" stroke-width="2"/>
<path d="M47.7188 213.954L80.8078 194.945" stroke="#99D2EB" stroke-width="2"/>
<path d="M112.245 176.884L147.499 156.631" stroke="#99D2EB" stroke-width="2"/>
<path d="M-158.367 176.512L-22.6411 99.5086L113.085 176.512V330.489L-22.6411 407.493L-158.367 330.489V176.512Z" stroke="#99D2EB" stroke-width="2"/>
<path d="M-192.88 156.099L-22.6407 56.9273L147.599 156.099V351.788L-22.6407 450.075L-192.88 351.788L-192.88 156.099Z" stroke="#99D2EB" stroke-width="2"/>
</g>
</svg>
