<svg width="16" height="16" viewBox="0 0 16 16" fill="none" xmlns="http://www.w3.org/2000/svg">
<path fill-rule="evenodd" clip-rule="evenodd" d="M4.80001 4.79998V3.99998C4.80001 2.67449 5.87452 1.59998 7.20001 1.59998H8.80001C10.1255 1.59998 11.2 2.67449 11.2 3.99998V4.79998H12.8C13.6837 4.79998 14.4 5.51632 14.4 6.39998V9.25658C12.4077 9.99576 10.2519 10.3999 8.00003 10.3999C5.74812 10.3999 3.5923 9.99576 1.60001 9.25657V6.39998C1.60001 5.51632 2.31635 4.79998 3.20001 4.79998H4.80001ZM6.40001 3.99998C6.40001 3.55815 6.75818 3.19998 7.20001 3.19998H8.80001C9.24183 3.19998 9.60001 3.55815 9.60001 3.99998V4.79998H6.40001V3.99998ZM7.20001 7.99998C7.20001 7.55815 7.55818 7.19998 8.00001 7.19998H8.00801C8.44983 7.19998 8.80801 7.55815 8.80801 7.99998C8.80801 8.4418 8.44983 8.79998 8.00801 8.79998H8.00001C7.55818 8.79998 7.20001 8.4418 7.20001 7.99998Z" fill="#A6A6A6"/>
<path d="M1.60001 10.9538V12.8C1.60001 13.6836 2.31635 14.4 3.20001 14.4H12.8C13.6837 14.4 14.4 13.6836 14.4 12.8V10.9538C12.3898 11.6323 10.2371 11.9999 8.00003 11.9999C5.76291 11.9999 3.61024 11.6323 1.60001 10.9538Z" fill="#A6A6A6"/>
</svg>
