<svg width="1162" height="1344" viewBox="0 0 1162 1344" fill="none" xmlns="http://www.w3.org/2000/svg">
<path fill-rule="evenodd" clip-rule="evenodd" d="M844.862 1343.88L1161.14 980.777L1059.72 862.934L856.409 1096.34L215.135 351.252L418.444 117.843L317.02 -2.86088e-05L0.740832 363.105L844.862 1343.88ZM821.891 736.198C813.453 745.954 803.552 753.82 792.804 759.314C782.055 764.805 770.684 767.81 759.392 768.135C748.089 769.129 736.988 767.432 726.78 763.15C716.572 758.867 707.479 752.091 700.063 743.244C692.391 734.568 686.523 723.966 682.819 712.087C679.116 700.211 677.652 687.306 678.52 674.172C679.066 661.113 681.867 648.024 686.757 635.668C691.647 623.309 698.528 611.938 706.998 602.214C715.468 592.49 725.356 584.609 736.085 579.037C746.812 573.464 758.161 570.307 769.473 569.753C780.85 568.829 792.013 570.599 802.274 574.947C812.536 579.297 821.681 586.137 829.148 595.048C836.763 603.665 842.575 614.21 846.221 626.025C849.868 637.84 851.271 650.671 850.344 663.717C849.968 676.867 847.25 690.085 842.353 702.555C837.459 715.023 830.495 726.475 821.891 736.198ZM603.874 539.799C614.623 534.308 624.524 526.442 632.962 516.685L632.997 516.725C641.6 507.003 648.565 495.55 653.459 483.082C658.355 470.612 661.073 457.394 661.45 444.244C662.376 431.198 660.974 418.368 657.327 406.553C653.68 394.738 647.869 384.193 640.252 375.573C632.786 366.664 623.642 359.824 613.379 355.474C603.117 351.124 591.956 349.357 580.579 350.281C569.267 350.835 557.917 353.991 547.189 359.563C536.462 365.137 526.574 373.018 518.104 382.742C509.634 392.466 502.753 403.837 497.861 416.194C492.972 428.551 490.171 441.64 489.626 454.699C488.758 467.822 490.219 480.716 493.917 492.587C497.616 504.458 503.474 515.057 511.133 523.729C518.55 532.578 527.643 539.355 537.851 543.638C548.059 547.92 559.16 549.617 570.463 548.623C581.753 548.296 593.126 545.292 603.874 539.799Z" fill="url(#paint0_linear_210_23)" fill-opacity="0.1"/>
<defs>
<linearGradient id="paint0_linear_210_23" x1="172.991" y1="562.478" x2="393.555" y2="455.077" gradientUnits="userSpaceOnUse">
<stop stop-color="#0C3F54" stop-opacity="0.15"/>
<stop offset="1" stop-color="#1F9ED3" stop-opacity="0.42"/>
</linearGradient>
</defs>
</svg>
