<svg width="16" height="16" viewBox="0 0 16 16" fill="none" xmlns="http://www.w3.org/2000/svg">
<path fill-rule="evenodd" clip-rule="evenodd" d="M3.99999 2.40002C3.11634 2.40002 2.39999 3.11637 2.39999 4.00002V12C2.39999 12.8837 3.11634 13.6 3.99999 13.6H12C12.8837 13.6 13.6 12.8837 13.6 12V4.00002C13.6 3.11637 12.8837 2.40002 12 2.40002H3.99999ZM11.2 5.60002C11.2 5.1582 10.8418 4.80002 10.4 4.80002C9.95817 4.80002 9.59999 5.1582 9.59999 5.60002V10.4C9.59999 10.8419 9.95817 11.2 10.4 11.2C10.8418 11.2 11.2 10.8419 11.2 10.4V5.60002ZM8.79999 7.20002C8.79999 6.7582 8.44182 6.40002 7.99999 6.40002C7.55817 6.40002 7.19999 6.7582 7.19999 7.20002V10.4C7.19999 10.8419 7.55817 11.2 7.99999 11.2C8.44182 11.2 8.79999 10.8419 8.79999 10.4V7.20002ZM6.39999 9.60003C6.39999 9.1582 6.04182 8.80002 5.59999 8.80002C5.15817 8.80002 4.79999 9.1582 4.79999 9.60003V10.4C4.79999 10.8419 5.15817 11.2 5.59999 11.2C6.04182 11.2 6.39999 10.8419 6.39999 10.4V9.60003Z" fill="#E3E3E3"/>
</svg>
