<svg width="531" height="442" viewBox="0 0 531 442" fill="none" xmlns="http://www.w3.org/2000/svg">
<path d="M265.16 441.061C411.604 441.061 530.32 417.886 530.32 389.297C530.32 360.709 411.604 337.534 265.16 337.534C118.716 337.534 0 360.709 0 389.297C0 417.886 118.716 441.061 265.16 441.061Z" fill="#99D2EB"/>
<path d="M228.199 53.9971C226.813 48.6524 224.686 43.5275 221.882 38.771L228.311 29.1042L219.394 20.1791L210.469 11.262L200.802 17.6906C196.045 14.8864 190.92 12.7602 185.576 11.3737L183.286 0H158.059L155.77 11.3737C150.425 12.7602 145.3 14.8864 140.544 17.6906L130.877 11.262L121.952 20.1791L113.035 29.1122L119.463 38.779C116.659 43.5355 114.533 48.6604 113.146 54.0051L101.772 56.2862V81.5141L113.146 83.8032C114.533 89.1479 116.659 94.2727 119.463 99.0292L113.035 108.696L121.952 117.645L130.877 126.57L140.544 120.142C145.302 122.932 150.427 125.045 155.77 126.419L158.059 137.792H183.286L185.576 126.419C190.92 125.032 196.045 122.906 200.802 120.102L210.469 126.53L219.394 117.645L228.311 108.728L221.882 99.0611C224.686 94.3046 226.813 89.1797 228.199 83.8351L239.573 81.546V56.2862L228.199 53.9971ZM170.669 113.099C161.926 113.099 153.38 110.506 146.111 105.649C138.842 100.792 133.176 93.8887 129.831 85.8118C126.485 77.7348 125.61 68.8471 127.315 60.2726C129.021 51.6981 133.231 43.822 139.413 37.6401C145.594 31.4583 153.471 27.2484 162.045 25.5428C170.62 23.8373 179.507 24.7126 187.584 28.0582C195.661 31.4038 202.565 37.0694 207.422 44.3385C212.279 51.6076 214.871 60.1537 214.871 68.8961C214.872 74.7012 213.73 80.4496 211.509 85.813C209.288 91.1764 206.032 96.0497 201.927 100.154C197.822 104.259 192.949 107.515 187.585 109.736C182.222 111.957 176.474 113.1 170.669 113.099Z" fill="#99D2EB"/>
<path d="M176.061 64.3498H464.12C467.165 64.3498 470.18 64.9495 472.993 66.1147C475.806 67.2799 478.362 68.9878 480.515 71.1408C482.668 73.2938 484.376 75.8498 485.541 78.6629C486.706 81.476 487.306 84.491 487.306 87.5358V281.271C487.306 284.316 486.706 287.331 485.541 290.144C484.376 292.957 482.668 295.513 480.515 297.666C478.362 299.819 475.806 301.527 472.993 302.692C470.18 303.858 467.165 304.457 464.12 304.457H176.061C169.914 304.457 164.018 302.015 159.672 297.669C155.325 293.322 152.883 287.426 152.883 281.279V87.5278C152.883 81.3785 155.326 75.4811 159.674 71.1328C164.022 66.7846 169.919 64.3418 176.069 64.3418L176.061 64.3498Z" fill="#C7E6F3"/>
<path d="M198.536 227.027C189.854 230.132 182.76 236.559 178.817 244.895C174.873 253.23 174.402 262.79 177.507 271.473C180.613 280.155 187.04 287.248 195.375 291.192C203.71 295.136 213.271 295.607 221.953 292.501C222.687 292.238 223.413 291.951 224.123 291.64C232.363 288.021 238.879 281.348 242.301 273.024C245.722 264.699 245.782 255.373 242.468 247.005C239.154 238.637 232.724 231.881 224.531 228.156C216.338 224.432 207.02 224.03 198.536 227.035V227.027ZM234.787 250.955C237.026 257.182 236.81 264.028 234.183 270.102C231.557 276.176 226.716 281.022 220.645 283.656C220.119 283.887 219.577 284.103 219.05 284.302C214.196 286.039 208.936 286.297 203.936 285.045C198.935 283.792 194.418 281.085 190.956 277.265C187.494 273.445 185.242 268.684 184.486 263.585C183.729 258.486 184.502 253.276 186.706 248.616C188.91 243.956 192.447 240.054 196.868 237.403C201.29 234.753 206.399 233.473 211.548 233.726C216.697 233.979 221.655 235.753 225.796 238.824C229.937 241.895 233.074 246.125 234.811 250.979L234.787 250.955Z" fill="#99D2EB"/>
<path d="M202.477 284.645L199.877 292.948C192.976 290.787 186.919 286.531 182.547 280.771C178.175 275.011 175.705 268.033 175.479 260.805L184.18 260.542C184.346 265.962 186.196 271.196 189.474 275.516C192.752 279.835 197.294 283.027 202.469 284.645H202.477Z" fill="#197EA9"/>
<path d="M220.614 283.664L224.092 291.64C223.382 291.951 222.656 292.238 221.922 292.501C214.812 295.058 207.06 295.215 199.853 292.948L202.445 284.645C207.854 286.355 213.675 286.249 219.019 284.342C219.577 284.111 220.119 283.895 220.614 283.664Z" fill="#1E7EAA"/>
<path d="M232.778 286.256C230.176 288.47 227.259 290.284 224.124 291.64L220.646 283.664C222.999 282.644 225.186 281.282 227.139 279.62L232.778 286.256Z" fill="#E5F2FC"/>
<path d="M308.501 123.818C305.597 115.704 301.114 108.246 295.311 101.874C289.508 95.5025 282.501 90.343 274.694 86.6938C266.887 83.0446 258.434 80.9779 249.823 80.6131C241.213 80.2482 232.616 81.5924 224.528 84.5681C216.44 87.5438 209.021 92.092 202.7 97.9501C196.38 103.808 191.282 110.86 187.701 118.699C184.12 126.538 182.128 135.009 181.839 143.622C181.549 152.235 182.969 160.821 186.015 168.882C186.518 170.262 187.068 171.618 187.65 172.934C194.531 188.419 207.165 200.62 222.88 206.957C238.595 213.294 256.159 213.27 271.857 206.891C287.555 200.511 300.156 188.275 306.994 172.772C313.833 157.268 314.374 139.713 308.501 123.818ZM264.147 192.268C252.503 196.566 239.659 196.272 228.224 191.446C216.788 186.62 207.617 177.623 202.573 166.282C202.126 165.293 201.72 164.28 201.337 163.243C197.996 154.162 197.423 144.294 199.691 134.887C201.959 125.481 206.965 116.958 214.076 110.396C221.188 103.834 230.085 99.5287 239.643 98.0237C249.202 96.5187 258.992 97.8818 267.776 101.941C276.559 106 283.942 112.572 288.991 120.827C294.039 129.082 296.526 138.648 296.138 148.316C295.75 157.985 292.503 167.321 286.809 175.144C281.114 182.967 273.228 188.926 264.147 192.268Z" fill="#99D2EB"/>
<path d="M200.419 132.193L184.786 127.463C188.723 114.47 196.61 103.026 207.35 94.721C218.091 86.4163 231.151 81.6635 244.717 81.1232L245.347 97.4499C235.177 97.856 225.386 101.42 217.334 107.646C209.283 113.873 203.37 122.452 200.419 132.193Z" fill="#197EA9"/>
<path d="M202.573 166.298L187.65 172.95C187.067 171.634 186.517 170.278 186.015 168.899C181.096 155.596 180.664 141.05 184.786 127.479L200.419 132.209C197.329 142.382 197.651 153.287 201.336 163.26C201.719 164.28 202.126 165.293 202.573 166.298Z" fill="#1E7EAA"/>
<path d="M197.915 189.086C193.716 184.237 190.257 178.794 187.649 172.934L202.572 166.282C204.522 170.677 207.113 174.757 210.261 178.39L197.915 189.086Z" fill="#E5F2FC"/>
<path d="M487.306 87.5278V281.271C487.304 287.42 484.861 293.316 480.513 297.664C476.165 302.012 470.269 304.455 464.12 304.457H336.585V64.3816H464.12C470.263 64.3816 476.154 66.8189 480.501 71.1585C484.848 75.4981 487.296 81.3853 487.306 87.5278Z" fill="#1E7EAA"/>
<path d="M466.639 89.2588H357.257C356.539 89.2588 355.957 89.8409 355.957 90.5589V100.162C355.957 100.88 356.539 101.462 357.257 101.462H466.639C467.357 101.462 467.939 100.88 467.939 100.162V90.5589C467.939 89.8409 467.357 89.2588 466.639 89.2588Z" fill="#E5F2FC"/>
<path d="M466.639 115.436H357.257C356.539 115.436 355.957 116.018 355.957 116.736V126.339C355.957 127.057 356.539 127.639 357.257 127.639H466.639C467.357 127.639 467.939 127.057 467.939 126.339V116.736C467.939 116.018 467.357 115.436 466.639 115.436Z" fill="#99D2EB"/>
<path d="M463.576 145.449H360.32C357.91 145.449 355.957 147.402 355.957 149.812V279.054C355.957 281.464 357.91 283.417 360.32 283.417H463.576C465.986 283.417 467.939 281.464 467.939 279.054V149.812C467.939 147.402 465.986 145.449 463.576 145.449Z" fill="#99D2EB"/>
<g opacity="0.58">
<path d="M383.068 139.579H354.036C351.071 139.579 348.668 141.982 348.668 144.947V236.463C348.668 239.427 351.071 241.83 354.036 241.83H383.068C386.033 241.83 388.436 239.427 388.436 236.463V144.947C388.436 141.982 386.033 139.579 383.068 139.579Z" fill="#E1F1FB"/>
</g>
<path d="M303.922 232.77H259.114C258.365 232.77 257.758 233.377 257.758 234.125V244.087C257.758 244.836 258.365 245.443 259.114 245.443H303.922C304.671 245.443 305.278 244.836 305.278 244.087V234.125C305.278 233.377 304.671 232.77 303.922 232.77Z" fill="#99D2EB"/>
<path d="M303.922 253.428H259.114C258.365 253.428 257.758 254.035 257.758 254.784V264.745C257.758 265.494 258.365 266.101 259.114 266.101H303.922C304.671 266.101 305.278 265.494 305.278 264.745V254.784C305.278 254.035 304.671 253.428 303.922 253.428Z" fill="#1E7EAA"/>
<path d="M303.922 274.085H259.114C258.365 274.085 257.758 274.692 257.758 275.441V285.403C257.758 286.152 258.365 286.759 259.114 286.759H303.922C304.671 286.759 305.278 286.152 305.278 285.403V275.441C305.278 274.692 304.671 274.085 303.922 274.085Z" fill="#197EA9"/>
<path d="M515.707 233.974H411.597C404.395 233.974 398.557 239.813 398.557 247.015V319.811C398.557 327.013 404.395 332.852 411.597 332.852H515.707C522.909 332.852 528.748 327.013 528.748 319.811V247.015C528.748 239.813 522.909 233.974 515.707 233.974Z" fill="#E5F2FC"/>
<path d="M528.749 247.015L528.525 254.257H398.334L398.557 247.015C398.557 243.556 399.931 240.239 402.377 237.794C404.822 235.348 408.139 233.974 411.598 233.974H515.724C519.18 233.978 522.492 235.354 524.935 237.799C527.377 240.244 528.749 243.559 528.749 247.015Z" fill="#1E7EAA"/>
<path d="M439.394 324.517H413.201C411.574 324.517 410.013 323.871 408.861 322.721C407.71 321.571 407.062 320.011 407.06 318.383V266.165C407.06 264.536 407.707 262.974 408.858 261.822C410.01 260.67 411.572 260.023 413.201 260.023H439.394C441.022 260.025 442.583 260.673 443.734 261.824C444.886 262.976 445.533 264.537 445.535 266.165V318.383C445.531 320.01 444.883 321.569 443.732 322.718C442.58 323.868 441.021 324.515 439.394 324.517ZM413.201 262.057C412.113 262.059 411.07 262.493 410.302 263.263C409.533 264.033 409.101 265.077 409.101 266.165V318.383C409.101 319.471 409.533 320.513 410.302 321.282C411.071 322.051 412.114 322.483 413.201 322.483H439.394C440.481 322.483 441.524 322.051 442.293 321.282C443.062 320.513 443.494 319.471 443.494 318.383V266.165C443.494 265.077 443.062 264.033 442.293 263.263C441.525 262.493 440.482 262.059 439.394 262.057H413.201Z" fill="#85BEE7"/>
<path d="M518.092 261.044H453.36C452.875 261.044 452.482 261.437 452.482 261.922V265.599C452.482 266.083 452.875 266.476 453.36 266.476H518.092C518.577 266.476 518.97 266.083 518.97 265.599V261.922C518.97 261.437 518.577 261.044 518.092 261.044Z" fill="#99D2EB"/>
<path d="M518.092 272.075H453.36C452.875 272.075 452.482 272.468 452.482 272.953V276.629C452.482 277.114 452.875 277.507 453.36 277.507H518.092C518.577 277.507 518.97 277.114 518.97 276.629V272.953C518.97 272.468 518.577 272.075 518.092 272.075Z" fill="#99D2EB"/>
<path d="M419.398 244.973C419.4 246.093 419.069 247.189 418.448 248.121C417.826 249.053 416.942 249.78 415.908 250.21C414.873 250.64 413.734 250.753 412.635 250.536C411.536 250.318 410.526 249.779 409.734 248.988C408.941 248.196 408.401 247.187 408.182 246.088C407.963 244.99 408.074 243.851 408.503 242.815C408.931 241.78 409.657 240.895 410.588 240.273C411.52 239.65 412.615 239.318 413.735 239.318C415.236 239.318 416.675 239.913 417.737 240.974C418.798 242.034 419.396 243.472 419.398 244.973Z" fill="#E5F2FC"/>
<path d="M461.959 294.336H454.03V323.504H461.959V294.336Z" fill="#99D2EB"/>
<path d="M473.243 291.393H465.315V323.504H473.243V291.393Z" fill="#99D2EB"/>
<path d="M484.681 297.502H476.753V323.504H484.681V297.502Z" fill="#99D2EB"/>
<path d="M496.119 285.451H488.191V323.504H496.119V285.451Z" fill="#99D2EB"/>
<path d="M508.115 289.24H500.187V323.504H508.115V289.24Z" fill="#99D2EB"/>
<path d="M192.977 133.709C192.977 133.709 156.415 145.505 147.977 143.431C143.518 142.331 136.539 135.998 130.055 129.178C128.986 128.046 127.925 126.905 126.865 125.765C119.686 117.9 113.88 110.411 113.88 110.411C113.88 110.411 96.1732 89.6736 110.378 80.4055C114.579 81.0104 118.457 83.0039 121.393 86.0684C126.131 91.1491 130.573 99.2447 131.818 101.949C133.062 104.652 150.449 129.745 151.351 130.311C152.252 130.877 159.853 128.875 165.947 128.365C175.885 127.567 190.752 122.471 190.752 122.471L192.977 133.709Z" fill="#1A7FAA"/>
<path d="M142.721 358.965C142.721 358.965 147.371 367.284 150.138 368.975C153.584 371.073 160.268 377.812 162.605 378.131C164.942 378.45 173.324 379.926 171.705 384.664C170.373 388.548 150.362 387.99 148.105 386.043C145.847 384.097 139.1 377.118 136.372 377.27C133.644 377.421 134.657 387.343 134.657 387.343H131.706C131.706 387.343 130.669 377.693 130.55 376.034C130.175 371.128 133.676 367.515 133.828 364.708C133.979 361.9 134.147 359.819 134.147 359.819L142.721 358.965Z" fill="#917F50"/>
<path d="M161.927 377.9C161.927 377.9 155.331 380.181 150.25 377.262C145.17 374.343 135.431 369.908 131.985 369.884C131.985 369.884 133.868 364.133 133.9 363.503C133.932 362.873 134.147 359.834 134.147 359.834L142.665 358.47C142.665 358.47 148.193 366.582 150.641 368.496C153.09 370.41 159.303 375.156 161.927 377.9Z" fill="#FBFAF2"/>
<path d="M62.276 366.797C62.276 366.797 63.0736 372.556 63.9988 374.119C64.924 375.683 67.3647 383.69 68.4893 385.198C69.6139 386.705 72.0784 397.911 68.4893 399.259C64.9001 400.607 56.4376 402.849 53.5981 398.358C51.236 394.679 50.2553 390.282 50.8305 385.948C51.2772 382.502 54.6909 366.71 54.643 365.146C54.5952 363.583 62.276 366.797 62.276 366.797Z" fill="#FBFAF2"/>
<path d="M67.053 382.087C67.053 382.087 67.4359 390.805 60.8557 390.805C54.2756 390.805 51.3565 382.877 51.3565 382.877C51.3565 382.877 49.1152 386.769 51.3565 395.072C53.5977 403.375 62.9534 401.652 65.0431 401.349C67.1328 401.046 77.0469 398.398 67.053 382.087Z" fill="#917F50"/>
<path d="M73.139 168.189C73.139 168.189 64.6287 179.06 61.6218 186.238C58.6148 193.417 53.6458 209.137 54.2838 221.332C54.9219 233.528 58.9578 256.371 57.7853 261.547C56.6128 266.723 55.4563 277.395 54.1961 281.064C52.9359 284.733 47.943 295.421 47.4405 306.42C46.938 317.419 51.0058 365.737 50.6309 370.227C50.256 374.718 65.2109 371.982 65.2109 371.982C65.2109 371.982 65.5937 328.433 67.2607 320.936C68.9277 313.439 70.9296 287.892 72.4291 286.057C73.9286 284.223 78.1479 264.873 78.419 261.715C78.6902 258.556 96.5324 205.739 97.5613 196.727C98.5902 187.714 120.915 168.189 120.915 168.189C120.915 168.189 98.997 159.806 73.139 168.189Z" fill="#1F9ED3"/>
<path d="M128.581 361.35C125.39 360.855 116.912 312.05 117.917 303.373C118.922 294.695 119.919 276.199 117.119 268.677C115.253 263.748 103.624 238.64 95.7994 221.005C94.6988 218.517 93.6698 216.22 92.7606 214.066C90.2721 208.339 88.629 204.272 88.5892 203.434C88.4217 200.092 77.5425 142.618 120.493 168.189C120.679 170.277 120.993 172.352 121.434 174.402C121.936 176.069 133.446 218.612 134.61 234.963C135.775 251.314 138.782 265.184 139.284 268.677C139.787 272.171 138.782 283.832 137.785 286.855C136.788 289.877 144.293 357.665 144.796 359.332C145.298 360.999 131.747 361.852 128.581 361.35Z" fill="#1F9ED3"/>
<path d="M103.623 77.3663C103.623 77.3663 111.758 81.2028 114.582 81.7691C117.405 82.3353 128.356 96.5644 130.286 101.757C132.216 106.949 130.286 114.75 126.338 123.898C122.39 133.046 126.115 136.093 124.304 145.242C122.494 154.39 120.923 173.764 121.265 178.844C121.608 183.925 75.5793 184.898 65.075 175.654C65.075 175.654 75.6272 159.838 76.9832 157.58C78.3391 155.323 77.2065 143.008 75.9622 139.85C74.718 136.691 65.8806 110.546 65.8806 110.546C65.8806 110.546 59.6434 89.1229 65.753 84.3772C71.0649 80.2536 85.5334 78.794 88.0857 77.8848C90.638 76.9755 98.3108 76.5767 103.623 77.3663Z" fill="#0C3F54"/>
<path d="M107.499 67.9791C107.499 67.9791 105.904 82.902 106.223 87.7594C106.223 87.7594 97.7762 96.2298 88.1572 77.8852C88.1572 77.8852 92.201 70.316 89.1542 60.0111C86.1074 49.7062 107.499 67.9791 107.499 67.9791Z" fill="#FBFAF2"/>
<path d="M106.223 87.7594V95.4961L96.5 88.23L106.223 87.7594Z" fill="#FBFAF2"/>
<path d="M90.606 186.174C86.7856 204.519 59.0771 184.108 59.0771 184.108C59.0771 184.108 77.047 153.928 69.8686 129.8L69.7011 129.234C69.2385 127.713 68.7812 126.262 68.3292 124.879L68.09 124.137C66.4948 119.4 65.2506 115.476 64.2217 112.245C61.0313 102.315 60.1061 99.0451 60.1061 99.0451C60.1061 99.0451 61.47 83.5957 69.103 81.8969C76.7359 80.198 84.8634 78.5948 84.8634 78.5948C84.8634 78.5948 98.0955 95.5597 98.6379 103.185C99.1802 110.81 94.4345 167.838 90.606 186.174Z" fill="#1A7FAA"/>
<path d="M131.42 105.267C131.42 105.267 132.273 115.779 125.039 129.585C125.039 129.585 125.198 148.065 125.422 154.502C125.645 160.939 127.185 185.281 127.185 185.281L119.209 189.931C118.849 190.143 118.437 190.25 118.02 190.24C117.603 190.229 117.197 190.103 116.848 189.873C116.499 189.644 116.222 189.322 116.047 188.943C115.872 188.564 115.807 188.144 115.859 187.73C118.1 169.202 125.39 98.9256 109.598 80.0546L116.632 82.4473C116.632 82.4473 131.42 97.9207 131.42 105.267Z" fill="#1A7FAA"/>
<path d="M120.468 59.9711C120.763 58.0968 121.266 56.2942 121.657 54.4278C122.155 51.7997 122.375 49.1262 122.311 46.4519C122.308 45.963 122.401 45.4782 122.582 45.0242C123.162 42.5084 123.543 39.9509 123.723 37.3753C120.939 21.6627 107.563 19.2939 101.613 19.8681C77.5818 22.1732 80.6445 42.6634 88.0542 55.7598C95.4638 68.8563 109.916 71.1295 113.705 71.0417C117.493 70.954 120.46 60.011 120.46 60.011L120.468 59.9711Z" fill="#FBFAF2"/>
<path d="M158.154 144.907L190.034 138.582L213.675 87.9907L179.649 91.5639L158.154 144.907Z" fill="#F4DC9F"/>
<path d="M107.524 70.1405C107.308 71.297 107.085 72.6529 106.901 74.0886C102.199 71.4579 98.0538 67.936 94.6982 63.7198C99.3323 67.5164 107.524 70.1405 107.524 70.1405Z" fill="#EFEFD8"/>
<path d="M142.513 138.287C143.337 138.468 144.196 138.407 144.986 138.111C146.836 137.242 148.041 134.395 150.816 135.216C153.592 136.038 153.026 145.154 151.965 146.67C150.904 148.185 146.804 148.201 141.269 145.824C135.734 143.447 142.513 138.287 142.513 138.287Z" fill="#FBFAF2"/>
<path d="M149.836 135.072C152.906 134.731 155.991 134.55 159.08 134.53C163.371 134.53 168.34 135.264 168.651 136.077C168.962 136.891 164.336 136.699 160.069 136.995C156.145 137.258 156.942 137.832 156.942 137.832C156.942 137.832 156.727 137.657 161.042 138.159C165.676 138.701 170.358 139.698 170.613 140.703C170.749 141.198 170.534 141.461 168.803 141.501C169.8 141.661 169.88 141.948 169.832 142.346C169.592 144.436 162.653 144.659 159.846 144.739C161.975 144.683 163.539 144.859 162.518 146.079C161.353 147.475 151.487 147.363 147.938 147.674C144.093 147.993 149.836 135.072 149.836 135.072Z" fill="#FBFAF2"/>
<path d="M67.5561 82.4711C67.5561 82.4711 75.1333 83.8669 78.89 89.7132C82.6466 95.5596 86.4671 103.871 87.2008 106.758C87.9346 109.645 102.148 136.141 102.937 136.859C103.727 137.577 111.559 136.979 117.637 137.577C127.567 138.542 143.104 136.237 143.104 136.237L143.256 147.682C143.256 147.682 105.163 152.715 97.2346 149.15C87.5439 144.763 64.0866 112.062 64.0866 112.062C64.0866 112.062 51.9153 89.0113 67.5561 82.4711Z" fill="#1C7097"/>
<path d="M82.9488 136.03L68.1057 124.137C66.5105 119.4 65.2662 115.476 64.2373 112.245C64.2373 112.245 79.2879 132.002 82.9488 136.03Z" fill="#1A5A8D"/>
<path d="M130.056 129.178C128.987 128.046 127.926 126.905 126.865 125.765C126.865 125.765 130.893 115.069 131.156 110.547C131.18 110.547 132.121 120.66 130.056 129.178Z" fill="#1C7097"/>
<path d="M112.748 19.5411C110.163 18.6877 107.587 17.1484 104.827 17.8582C99.348 19.2062 93.5734 19.6129 88.6283 22.8512C86.5625 24.215 85.0551 26.0415 83.2845 27.7085C81.0592 30.205 80.3174 33.8101 80.9475 38.7472C80.3883 35.8889 80.5668 32.9353 81.4659 30.1651C81.761 29.3037 82.439 28.5141 82.1279 27.5011C77.1669 26.4722 72.7801 28.9448 70.5229 34.0494C68.1969 39.0848 67.7279 44.7808 69.1989 50.1289C71.3923 58.0569 69.8609 64.9721 64.5409 71.1534C64.2906 71.4537 64.069 71.7769 63.879 72.1185C62.8102 74.0487 62.0524 76.1065 63.5679 78.0526C64.9956 79.8871 66.9975 79.5999 68.9516 78.9539C70.834 81.6099 71.3843 81.8252 74.6544 80.8681C75.0203 80.7492 75.4061 80.7042 75.7895 80.7357C76.1729 80.7672 76.5462 80.8745 76.8877 81.0516C77.4753 81.3658 78.1192 81.5606 78.7824 81.6248C79.4456 81.6889 80.115 81.6212 80.7519 81.4254C81.3888 81.2297 81.9806 80.9098 82.4933 80.4843C83.006 80.0587 83.4293 79.5359 83.739 78.9459C84.309 78.0046 84.7012 76.9664 84.8956 75.8832C86.1693 70.0449 86.1502 63.9987 84.8397 58.1686C83.6035 53.0799 82.0163 48.0631 81.5776 44.6653C81.6893 46.7311 83.6434 51.0461 85.8527 52.4339C86.7699 51.7639 86.5626 50.5755 87.097 49.7141C87.7111 48.7331 88.429 47.9036 89.6812 47.9913C91.061 48.0791 91.372 49.1718 91.6432 50.2804C91.9144 51.3891 91.8824 52.3143 92.1536 53.2953C92.5045 54.5874 93.2383 54.8027 94.1157 53.7579C95.2598 52.254 96.0109 50.4886 96.3011 48.6214C96.9311 45.7261 96.3888 42.8468 96.3011 39.9595C96.1415 36.0354 97.8964 33.3555 101.446 31.848C101.945 31.5987 102.486 31.4446 103.041 31.3934C105.779 31.28 108.476 30.6973 111.017 29.6706C114.59 28.3625 118.953 31.2658 120.484 35.509C120.939 36.7692 121.154 38.0932 121.513 39.3693C121.768 40.2626 121.872 41.2437 122.733 41.8419C124.241 41.9057 124.329 40.7093 124.377 39.7601C124.951 32.2787 123.722 25.5391 116.488 21.4155C115.619 20.913 114.933 20.1154 113.952 19.7724C113.559 19.655 113.156 19.5775 112.748 19.5411Z" fill="black"/>
<path d="M112.037 55.3527C112.716 55.1436 113.413 55.002 114.119 54.93C114.446 54.8821 114.757 54.8103 114.805 54.6269C114.853 54.4435 114.733 54.1324 114.558 53.8293C114.223 53.1833 113.872 52.5133 113.513 51.8034C112.053 48.9082 110.984 46.5154 111.12 46.4675C111.256 46.4197 112.556 48.7167 114.015 51.612C114.366 52.3298 114.709 53.0078 115.028 53.6618C115.135 53.8145 115.208 53.9878 115.244 54.1704C115.279 54.353 115.277 54.5411 115.236 54.7226C115.185 54.8288 115.112 54.9224 115.021 54.9969C114.93 55.0714 114.823 55.1248 114.709 55.1533C114.527 55.2051 114.34 55.2372 114.151 55.249C113.452 55.3608 112.744 55.3955 112.037 55.3527Z" fill="#197EA9"/>
<path d="M106.311 46.0691C106.333 46.447 106.205 46.8184 105.956 47.1033C105.707 47.3882 105.356 47.5639 104.979 47.5926C104.795 47.6158 104.607 47.6018 104.429 47.5515C104.25 47.5011 104.083 47.4154 103.938 47.2994C103.793 47.1833 103.673 47.0394 103.584 46.876C103.496 46.7126 103.441 46.5332 103.424 46.3483C103.406 45.9714 103.534 45.6023 103.783 45.3183C104.031 45.0343 104.38 44.8575 104.755 44.8249C104.94 44.8016 105.127 44.8156 105.306 44.8659C105.484 44.9163 105.651 45.0021 105.796 45.1181C105.941 45.2341 106.061 45.3781 106.15 45.5414C106.238 45.7048 106.293 45.8843 106.311 46.0691Z" fill="#4797C0"/>
<path d="M119.463 46.0691C119.483 46.4478 119.354 46.8191 119.103 47.1038C118.853 47.3885 118.501 47.5639 118.123 47.5926C117.939 47.6147 117.753 47.5998 117.575 47.549C117.397 47.4981 117.232 47.4121 117.087 47.2962C116.943 47.1803 116.824 47.0367 116.736 46.8739C116.648 46.7111 116.593 46.5324 116.576 46.3483C116.554 45.9704 116.681 45.5991 116.93 45.3141C117.179 45.0292 117.53 44.8535 117.908 44.8249C118.092 44.8016 118.279 44.8156 118.458 44.8659C118.636 44.9163 118.803 45.0021 118.948 45.1181C119.093 45.2341 119.214 45.3781 119.302 45.5414C119.39 45.7048 119.445 45.8843 119.463 46.0691Z" fill="#4797C0"/>
<path d="M111.472 60.3461C111.008 60.841 110.422 61.2042 109.773 61.3989C108.817 61.6995 107.799 61.7408 106.822 61.5185C106.096 61.3459 105.462 60.9076 105.043 60.2902L104.365 60.4338C104.524 60.693 104.711 60.9337 104.924 61.1517C105.411 61.6252 106.022 61.9514 106.686 62.0928C107.772 62.314 108.898 62.2199 109.932 61.8216C110.631 61.5637 111.237 61.1025 111.671 60.4976C111.841 60.2833 111.938 60.0209 111.95 59.7479C111.895 59.724 111.791 59.9792 111.472 60.3461Z" fill="#197EA9"/>
<path d="M223.19 127.152H236.956C240.147 127.2 244.135 127.24 246.95 130.271C248.544 132.172 249.395 134.586 249.343 137.066C249.343 143.216 245.147 144.731 243.066 145.505L250.125 157.716H241.686L235.624 146.805H230.839V157.716H223.174L223.19 127.152ZM230.855 132.871V141.134H237.172C238.256 141.094 241.766 141.007 241.766 136.939C241.766 133.047 238.942 132.911 237.347 132.871H230.855Z" fill="#197EA9"/>
<path d="M259.697 137.33C259.912 137.067 260.127 136.803 260.343 136.588C261.92 135.243 263.942 134.535 266.014 134.602C271.597 134.602 275.84 138.797 275.84 146.327C275.84 150.961 273.806 158.147 266.062 158.147C263.549 158.147 262.249 157.349 260.478 156.241V165.549H253.763V135.192H259.697V137.33ZM264.977 139.316C264.302 139.319 263.638 139.486 263.042 139.803C262.445 140.12 261.935 140.577 261.555 141.134C260.552 142.724 260.07 144.586 260.175 146.462C260.175 149.318 260.909 151.088 261.771 152.045C262.157 152.449 262.619 152.772 263.131 152.995C263.643 153.218 264.195 153.338 264.754 153.346C268.008 153.346 269.435 149.836 269.435 146.287C269.435 143.296 268.638 140.137 265.886 139.443C265.577 139.359 265.258 139.316 264.937 139.316H264.977Z" fill="#197EA9"/>
</svg>
