<svg width="120" height="120" viewBox="0 0 120 120" fill="none" xmlns="http://www.w3.org/2000/svg">
<circle cx="60" cy="60" r="60" fill="#EAF6FB"/>
<path d="M45.8675 55.9943C45.8675 53.5766 45.8661 51.1588 45.8633 48.741C45.8633 48.5533 45.9116 48.4857 46.0994 48.4367C49.8931 47.4503 53.4082 45.8333 56.6949 43.712C56.8436 43.613 57.0191 43.5622 57.1977 43.5663C60.0023 43.5705 62.8072 43.5705 65.6123 43.5663C65.7819 43.5615 65.9491 43.6083 66.0915 43.7007C69.3947 45.834 72.9218 47.4653 76.7383 48.4452C76.8919 48.4843 76.936 48.5433 76.936 48.6976C76.931 53.3063 76.9516 57.9151 76.9203 62.5231C76.9061 64.5398 76.3202 66.4342 75.4491 68.2447C74.1619 70.9163 72.3458 73.1926 70.179 75.1972C67.8251 77.3921 65.1057 79.1588 62.1435 80.4175C61.613 80.6422 61.1678 80.6379 60.6437 80.4175C56.4389 78.6205 52.904 75.9375 50.0091 72.4111C48.5676 70.6539 47.4156 68.7261 46.6555 66.5743C46.1404 65.1413 45.873 63.6312 45.8647 62.1085C45.864 60.0711 45.8675 58.0324 45.8675 55.9943Z" fill="#1F9ED3"/>
<path d="M83.0682 52.4579V42.6937C83.0682 42.6133 83.0682 42.5323 83.0682 42.4519C83.0326 41.8787 82.6735 41.5083 82.1096 41.4514C81.6018 41.3995 81.0927 41.3568 80.5885 41.2807C78.7444 40.9965 76.9352 40.5199 75.1905 39.8585C72.5508 38.8629 70.1003 37.5182 67.8034 35.8883C67.531 35.6864 67.1996 35.5799 66.8605 35.5854C62.7986 35.5954 58.7368 35.5954 54.6749 35.5854C54.4243 35.581 54.1793 35.6589 53.9773 35.8073C51.5396 37.5353 48.9419 38.9646 46.1252 39.9772C44.2465 40.6521 42.325 41.1584 40.3311 41.3568C40.0907 41.3802 39.8511 41.4144 39.6114 41.4435C38.9003 41.5303 38.5938 41.8816 38.5938 42.6048C38.5938 48.6729 38.5938 54.743 38.5938 60.8149C38.5876 62.9471 38.9207 65.0666 39.5809 67.094C40.6276 70.3111 42.3343 73.1555 44.4889 75.7326C47.0795 78.8345 50.1394 81.3909 53.621 83.4425C55.7665 84.7068 58.0164 85.7337 60.4186 86.4121C60.6319 86.4732 60.8495 86.518 61.0778 86.4547C61.7569 86.267 62.4289 86.0537 63.0888 85.8091C66.2226 84.6471 69.0778 82.9867 71.7181 80.9507C75.2253 78.2485 78.1665 75.0364 80.3133 71.1374C82.1096 67.8784 83.0923 64.4018 83.071 60.6585C83.0554 57.9271 83.0682 55.1929 83.0682 52.4579ZM81.0642 53.4272C81.0429 55.7995 81.1105 58.7491 81.0358 61.6988C80.9853 63.6899 80.538 65.6099 79.8198 67.4631C78.697 70.368 77.0145 72.9251 74.9338 75.2227C71.7658 78.7143 68.0495 81.4606 63.7387 83.387C62.8504 83.7815 61.9379 84.119 61.0066 84.3975C60.898 84.4353 60.7803 84.4388 60.6696 84.4075C59.0923 83.9587 57.5933 83.3173 56.1462 82.555C51.9805 80.3577 48.3951 77.445 45.4689 73.7507C43.3604 71.0933 41.7874 68.1628 41.0301 64.8313C40.742 63.5476 40.5989 62.2357 40.6034 60.9202C40.6034 55.1459 40.6034 49.3715 40.6034 43.5968C40.6034 43.419 40.6248 43.3422 40.8353 43.3166C43.2687 43.0229 45.6118 42.3751 47.8788 41.4556C50.2722 40.4861 52.5482 39.2489 54.6635 37.7678C54.8435 37.6389 55.0609 37.5727 55.2822 37.5794C58.9942 37.586 62.7064 37.586 66.4189 37.5794C66.6226 37.5739 66.8224 37.6354 66.9878 37.7543C69.7092 39.6451 72.629 41.1442 75.7807 42.1817C77.275 42.6683 78.807 43.0307 80.361 43.2654C80.5892 43.301 80.9114 43.2491 81.0258 43.3806C81.1681 43.5449 81.0685 43.8599 81.0685 44.1095C81.0657 47.0215 81.0642 49.9356 81.0642 53.4272Z" fill="#262626"/>
<path d="M78.5389 54.3445V46.5685C78.5389 46.5045 78.5389 46.4398 78.5389 46.3758C78.5105 45.92 78.2246 45.6249 77.7759 45.5794C77.3713 45.5381 76.966 45.504 76.567 45.4436C75.0982 45.2171 73.6572 44.8372 72.2676 44.3101C70.1787 43.5138 68.2014 42.4511 66.3846 41.1485C66.1679 40.9871 65.9038 40.9021 65.6337 40.9067C62.3991 40.9147 59.1642 40.9147 55.9292 40.9067C55.7283 40.9026 55.5318 40.9651 55.3702 41.0845C53.4289 42.4605 51.3603 43.5989 49.1167 44.4046C47.6234 44.9422 46.0902 45.3454 44.503 45.5033C44.311 45.5225 44.1204 45.5495 43.9299 45.5744C43.366 45.6455 43.1192 45.9229 43.1192 46.4989C43.1192 51.3344 43.1192 56.1685 43.1192 61.0013C43.1145 62.6992 43.3798 64.3871 43.905 66.0018C44.7405 68.5618 46.1002 70.8245 47.8161 72.8797C49.8679 75.3302 52.3281 77.4073 55.0879 79.0194C56.7946 80.0263 58.5887 80.8441 60.5016 81.3845C60.6744 81.4329 60.8451 81.4685 61.0264 81.4187C61.5676 81.2693 62.1016 81.0994 62.6278 80.9038C65.1238 79.9794 67.398 78.6567 69.5 77.0354C72.2932 74.8807 74.6356 72.325 76.3459 69.2224C77.7773 66.6283 78.5596 63.8592 78.5418 60.8782C78.529 58.7008 78.5389 56.5227 78.5389 54.3445ZM76.9439 55.1168C76.9261 57.0055 76.9802 59.355 76.9212 61.7038C76.8806 63.291 76.5236 64.8178 75.9526 66.2948C75.058 68.608 73.7183 70.6446 72.0586 72.4743C69.5363 75.2548 66.5766 77.4421 63.1434 78.976C62.4359 79.2902 61.7091 79.5588 60.9674 79.7803C60.881 79.8106 60.7873 79.8133 60.6993 79.7881C59.4506 79.4232 58.2435 78.9289 57.0975 78.3133C53.7795 76.5639 50.9244 74.2436 48.594 71.3017C46.9187 69.1876 45.6643 66.8516 45.0612 64.1984C44.831 63.1756 44.7162 62.1301 44.7192 61.0816C44.7192 56.4831 44.7192 51.8846 44.7192 47.2861C44.7192 47.1438 44.7363 47.0827 44.9041 47.0628C46.8314 46.8201 48.7178 46.3215 50.5133 45.5801C52.42 44.8086 54.2331 43.8233 55.9178 42.6432C56.0609 42.5405 56.2339 42.488 56.4099 42.4939C59.3667 42.4986 62.323 42.4986 65.2788 42.4939C65.4413 42.4904 65.6005 42.5404 65.7318 42.6361C67.8808 44.1436 70.2377 45.3304 72.7284 46.1589C73.9183 46.5468 75.1382 46.8356 76.3757 47.0222C76.5578 47.0507 76.8145 47.0094 76.9055 47.114C77.0193 47.2448 76.9396 47.4958 76.9396 47.6942C76.9446 50.0153 76.9439 52.3357 76.9439 55.1168Z" fill="#262626"/>
<path d="M61.0483 66.6844C60.3571 66.6844 59.6659 66.678 58.9755 66.6894C58.7998 66.6894 58.7486 66.6517 58.75 66.4689C58.7593 65.2664 58.755 64.064 58.7543 62.8608C58.7543 62.1966 58.3774 61.8233 57.7083 61.8225C56.5143 61.8225 55.3203 61.8183 54.1264 61.8268C53.9408 61.8268 53.8853 61.792 53.8867 61.5943C53.8967 60.2128 53.8967 58.8311 53.8867 57.4492C53.8867 57.2359 53.9579 57.2074 54.1427 57.2081C55.3367 57.216 56.5321 57.1875 57.7246 57.2224C58.3646 57.2409 58.7792 56.7168 58.765 56.1678C58.7337 54.9745 58.7593 53.7799 58.7507 52.5852C58.7507 52.4039 58.7806 52.3427 58.9811 52.3441C60.3631 52.3546 61.745 52.3546 63.1269 52.3441C63.3403 52.3441 63.3694 52.4153 63.368 52.6001C63.3609 53.7856 63.3637 54.971 63.3644 56.1557C63.3644 56.8505 63.7243 57.211 64.4126 57.2117C65.6073 57.2117 66.8012 57.2167 67.9952 57.2067C68.1851 57.2067 68.2334 57.2487 68.232 57.4414C68.223 58.8233 68.223 60.2052 68.232 61.5872C68.232 61.7706 68.1986 61.8289 67.9995 61.8268C66.797 61.8161 65.5945 61.8204 64.3913 61.8218C63.7513 61.8218 63.3659 62.2087 63.3651 62.8565C63.3651 64.0597 63.3602 65.2622 63.3687 66.4647C63.3687 66.6425 63.3282 66.6915 63.1468 66.6887C62.4471 66.6787 61.7474 66.6844 61.0483 66.6844Z" fill="#262626"/>
</svg>
