<svg width="582" height="549" viewBox="0 0 582 549" fill="none" xmlns="http://www.w3.org/2000/svg">
<path d="M277.575 388.211C277.717 387.93 278.119 387.93 278.261 388.211L281.349 394.324C281.386 394.398 281.446 394.457 281.519 394.494L287.625 397.586C287.907 397.728 287.907 398.131 287.625 398.273L281.519 401.365C281.446 401.402 281.386 401.461 281.349 401.535L278.261 407.648C278.119 407.929 277.717 407.929 277.575 407.648L274.487 401.535C274.45 401.461 274.39 401.402 274.317 401.365L268.211 398.273C267.93 398.131 267.93 397.728 268.211 397.586L274.317 394.494C274.39 394.457 274.45 394.398 274.487 394.324L277.575 388.211Z" fill="#EAF6FB"/>
<path d="M496.275 372.335C494.914 369.23 492.745 366.547 489.993 364.566C487.241 362.586 484.008 361.38 480.632 361.076C477.255 360.772 473.859 361.38 470.797 362.837C467.736 364.294 465.122 366.546 463.228 369.358C461.335 372.171 460.231 375.44 460.033 378.824C459.834 382.209 460.548 385.584 462.099 388.599C463.651 391.613 465.984 394.156 468.854 395.96C471.724 397.765 475.026 398.767 478.415 398.859L480.314 403.237L495.506 396.59C495.506 396.59 494.523 394.098 493.607 391.89C495.807 389.191 497.22 385.938 497.69 382.488C498.161 379.038 497.671 375.525 496.275 372.335Z" fill="#99D2EB"/>
<path d="M488.432 410.198C488.909 410.279 489.373 410.428 489.808 410.639C489.958 410.719 490.124 410.764 490.294 410.77C490.463 410.775 490.632 410.742 490.786 410.672L493.844 409.329C494.012 409.255 494.16 409.142 494.275 408.998C494.389 408.854 494.466 408.684 494.499 408.503C494.572 408.011 494.816 407.56 495.187 407.23L488.432 410.198Z" fill="#135F7F"/>
<path d="M481.382 403.132C481.41 403.194 484.23 407.661 485.289 409.366C485.502 409.716 485.799 410.007 486.153 410.212C486.507 410.418 486.907 410.532 487.316 410.543C487.643 410.549 487.967 410.484 488.266 410.353L494.955 407.415C494.955 407.415 496.702 406.65 496.493 405.088C496.265 403.446 494.537 397.359 494.537 397.359L481.382 403.132Z" fill="#99D2EB"/>
<path d="M495.314 400.617L483.186 405.991C483.004 406.072 483.015 406.494 483.21 406.934L483.251 407.029C483.446 407.469 483.752 407.76 483.934 407.679L496.062 402.305C496.244 402.224 496.233 401.802 496.038 401.362L495.997 401.268C495.802 400.828 495.496 400.536 495.314 400.617Z" fill="#C7E7F4"/>
<path d="M496.151 403.475L484.818 408.497C484.648 408.572 484.668 408.99 484.863 409.43L484.905 409.525C485.1 409.965 485.396 410.26 485.566 410.185L496.899 405.163C497.069 405.087 497.049 404.67 496.854 404.229L496.812 404.135C496.617 403.695 496.321 403.4 496.151 403.475Z" fill="#C7E7F4"/>
<path d="M495.004 398.759L482.056 404.497C481.874 404.578 481.792 404.791 481.873 404.973L481.89 405.012C481.971 405.194 482.184 405.277 482.366 405.196L495.314 399.458C495.496 399.377 495.578 399.164 495.497 398.982L495.48 398.943C495.399 398.761 495.186 398.679 495.004 398.759Z" fill="#E0E0E0"/>
<path d="M477.889 399.752C477.946 399.876 479.503 402.677 480.305 404.12C480.452 404.382 480.657 404.606 480.904 404.777C481.151 404.949 481.433 405.061 481.729 405.108L482.608 405.25L495.535 399.553L496.01 398.822C496.177 398.57 496.283 398.283 496.321 397.983C496.359 397.683 496.327 397.379 496.228 397.094L494.619 392.389L477.889 399.752Z" fill="#FF725E"/>
<path fill-rule="evenodd" clip-rule="evenodd" d="M481.834 378.753C481.635 378.655 481.503 378.66 481.413 378.713C481.315 378.772 481.201 378.944 481.136 379.267C481.073 379.577 481.066 379.98 481.131 380.425C481.263 381.316 481.681 382.335 482.475 383.067C482.915 383.473 483.364 383.75 483.818 383.914C483.98 383.476 484.011 382.971 483.963 382.472C483.907 381.908 483.752 381.369 483.593 380.978C483.372 380.438 482.944 379.761 482.487 379.276C482.258 379.033 482.033 378.85 481.834 378.753ZM484.235 384.034C484.418 383.521 484.445 382.957 484.394 382.43C484.334 381.818 484.167 381.238 483.994 380.814C483.753 380.224 483.295 379.502 482.802 378.979C482.556 378.718 482.29 378.494 482.026 378.364C481.762 378.234 481.461 378.181 481.192 378.341C480.93 378.496 480.783 378.825 480.711 379.181C480.637 379.551 480.631 380.005 480.703 380.489C480.845 381.454 481.299 382.572 482.181 383.386C482.644 383.812 483.126 384.117 483.624 384.305C483.449 384.577 483.199 384.811 482.85 384.982C482.671 385.07 482.376 385.206 482.124 385.321C481.999 385.378 481.884 385.43 481.801 385.468L481.714 385.507L481.714 385.507L481.707 385.511L481.667 385.528L481.668 385.531L481.583 385.575C481.503 385.617 481.391 385.675 481.269 385.738C481.023 385.865 480.733 386.013 480.554 386.1C480.204 386.269 479.866 386.322 479.543 386.291C479.703 385.783 479.761 385.215 479.711 384.588C479.615 383.392 479.016 382.344 478.345 381.636C478.009 381.282 477.648 381.005 477.311 380.836C476.987 380.672 476.637 380.585 476.354 380.695C476.061 380.808 475.917 381.078 475.857 381.365C475.796 381.653 475.808 382.001 475.861 382.356C475.968 383.067 476.254 383.873 476.569 384.427C476.796 384.824 477.149 385.314 477.594 385.739C477.976 386.104 478.436 386.432 478.953 386.604C478.689 387.14 478.275 387.584 477.725 387.942C477.207 387.054 476.708 386.292 476.258 385.744C476.018 385.45 475.785 385.21 475.564 385.044C475.349 384.883 475.115 384.768 474.881 384.783C474.271 384.819 473.883 385.182 473.699 385.667C473.52 386.14 473.53 386.728 473.677 387.273C473.824 387.821 474.117 388.355 474.539 388.714C474.967 389.079 475.527 389.259 476.171 389.08C476.683 388.938 477.151 388.758 477.568 388.536C479.311 391.606 481.284 396.053 482.424 398.838L482.825 398.674C481.683 395.883 479.7 391.413 477.942 388.318C478.587 387.903 479.08 387.37 479.383 386.708C479.816 386.771 480.275 386.716 480.743 386.49C480.928 386.4 481.222 386.25 481.468 386.123C481.591 386.059 481.703 386.001 481.784 385.959L481.896 385.9L481.98 385.862C482.063 385.825 482.178 385.773 482.304 385.715C482.556 385.6 482.855 385.462 483.04 385.371C483.507 385.143 483.834 384.817 484.051 384.436C484.759 384.606 485.483 384.548 486.207 384.297C487.557 387.59 489.849 391.91 491.339 394.532L491.716 394.318C490.229 391.702 487.949 387.404 486.61 384.137C487.042 383.946 487.472 383.689 487.901 383.374C488.439 382.978 488.643 382.426 488.62 381.864C488.598 381.311 488.358 380.751 488.019 380.297C487.68 379.844 487.224 379.473 486.742 379.323C486.246 379.168 485.721 379.249 485.316 379.706C485.16 379.882 485.106 380.136 485.1 380.405C485.095 380.681 485.14 381.012 485.222 381.383C485.375 382.075 485.667 382.938 486.045 383.894C485.424 384.106 484.82 384.157 484.235 384.034ZM486.448 383.735C486.842 383.559 487.241 383.322 487.644 383.025C488.052 382.724 488.205 382.318 488.187 381.881C488.17 381.436 487.973 380.958 487.672 380.556C487.371 380.154 486.984 379.852 486.613 379.736C486.255 379.624 485.916 379.682 485.641 379.993C485.587 380.054 485.538 380.181 485.534 380.414C485.529 380.641 485.566 380.935 485.645 381.289C485.791 381.949 486.073 382.788 486.448 383.735ZM477.352 388.161C476.838 387.281 476.352 386.541 475.923 386.018C475.693 385.738 475.485 385.527 475.304 385.391C475.117 385.25 474.987 385.21 474.907 385.215C474.492 385.24 474.237 385.471 474.104 385.821C473.966 386.185 473.965 386.675 474.095 387.161C474.226 387.645 474.48 388.095 474.819 388.384C475.152 388.667 475.566 388.798 476.055 388.663C476.537 388.529 476.971 388.362 477.352 388.161ZM479.117 386.202C479.268 385.744 479.327 385.22 479.279 384.623C479.193 383.546 478.65 382.588 478.031 381.935C477.721 381.608 477.399 381.365 477.117 381.223C476.822 381.075 476.617 381.058 476.51 381.099C476.412 381.137 476.326 381.238 476.281 381.455C476.235 381.671 476.24 381.961 476.29 382.291C476.389 382.951 476.657 383.705 476.946 384.212C477.155 384.579 477.483 385.034 477.893 385.426C478.255 385.772 478.671 386.059 479.117 386.202Z" fill="white"/>
<path d="M477.889 399.752C477.946 399.876 479.503 402.677 480.305 404.12C480.452 404.382 480.657 404.606 480.904 404.777C481.151 404.949 481.433 405.061 481.729 405.108L482.608 405.25L495.535 399.553L496.01 398.822C496.177 398.57 496.283 398.283 496.321 397.983C496.359 397.683 496.327 397.379 496.228 397.094L494.619 392.389L477.889 399.752Z" fill="#135F7F"/>
<path fill-rule="evenodd" clip-rule="evenodd" d="M579.114 30.5971L563.689 39.6929L564.795 41.5678L580.22 32.472C580.738 32.1667 580.91 31.4995 580.605 30.9817C580.299 30.464 579.632 30.2918 579.114 30.5971Z" fill="#917F50"/>
<path fill-rule="evenodd" clip-rule="evenodd" d="M542.748 8.31497C543.348 8.29138 543.854 8.75914 543.878 9.35972L544.58 27.2534L542.406 27.3388L541.703 9.44512C541.679 8.84454 542.147 8.33855 542.748 8.31497Z" fill="#917F50"/>
<path fill-rule="evenodd" clip-rule="evenodd" d="M562.939 14.8137L554.128 30.4037L556.023 31.4746L564.834 15.8847C565.13 15.3614 564.945 14.6975 564.422 14.4017C563.899 14.106 563.235 14.2905 562.939 14.8137Z" fill="#917F50"/>
<path d="M15.2276 32.6727H30.4552C30.4562 35.6834 29.5646 38.6268 27.8932 41.131C26.2218 43.6352 23.8455 45.5877 21.0648 46.7418C18.2841 47.8959 15.2236 48.1998 12.2702 47.6151C9.31682 47.0304 6.60304 45.5833 4.47182 43.4567C2.3406 41.3301 0.887587 38.6195 0.296429 35.6674C-0.294729 32.7152 0.00250007 29.6541 1.15054 26.8709C2.29857 24.0876 4.24589 21.7072 6.74641 20.0303C9.24693 18.3534 12.1884 17.4555 15.1991 17.4498L15.2276 32.6727Z" fill="#99D2EB"/>
<path d="M17.9391 30.2276L17.8916 15H17.9391C21.96 15.0186 25.8119 16.6199 28.661 19.4574C31.5101 22.2949 33.127 26.1403 33.1619 30.1612L17.9391 30.2276Z" fill="#1F9ED3"/>
<path d="M15.3052 392.211C15.4476 391.93 15.8494 391.93 15.9918 392.211L17.9817 396.15C18.0187 396.224 18.0781 396.283 18.1513 396.32L22.0859 398.312C22.3673 398.455 22.3673 398.857 22.0859 399L18.1513 400.992C18.0781 401.029 18.0187 401.088 17.9817 401.162L15.9918 405.101C15.8494 405.383 15.4476 405.383 15.3052 405.101L13.3153 401.162C13.2783 401.088 13.2189 401.029 13.1457 400.992L9.21106 399C8.92965 398.857 8.92965 398.455 9.21106 398.312L13.1457 396.32C13.2189 396.283 13.2783 396.224 13.3153 396.15L15.3052 392.211Z" fill="#197EA9"/>
<path d="M144.254 452.523C150.957 457.998 150.412 464.926 145.372 468.863C140.902 472.355 133.528 471.88 128.054 467.187C121.211 461.322 122.887 450.568 124.144 449.451C125.4 448.334 135.875 445.68 144.254 452.523Z" fill="#46A6A4"/>
<path d="M153.161 465.402C147.699 469.863 148.143 475.509 152.251 478.717C155.892 481.562 161.901 481.175 166.362 477.352C171.939 472.572 170.573 463.809 169.549 462.899C168.524 461.988 159.989 459.826 153.161 465.402Z" fill="#46A6A4"/>
<path d="M145.547 488.386C146.837 487.956 147.082 486.267 147.113 484.915C147.257 481.585 147.154 478.249 146.806 474.934C146.48 471.615 145.432 468.407 143.735 465.536C143.371 465.9 143.089 466.338 142.909 466.82C142.729 467.302 142.654 467.817 142.691 468.331C142.766 469.371 142.951 470.401 143.243 471.402C144.471 476.577 144.226 481.991 142.537 487.034C143.09 487.864 144.257 488.785 145.547 488.386Z" fill="#2C7482"/>
<path d="M135.895 455.805C138.794 457.79 142.56 463.115 144.035 466.133L143.208 470.27C142.678 468.504 140.908 464.231 138.794 460.794C135.324 455.152 134.27 455.06 132.21 453.726C132.72 454.04 133.496 454.163 135.895 455.805Z" fill="#2C7482"/>
<path d="M161.87 467.8C159.061 468.309 154.5 471.007 152.403 472.755L151.643 476.097C152.622 474.964 155.354 472.383 158.063 470.536C162.511 467.505 163.322 467.787 165.293 467.482C164.811 467.546 164.194 467.379 161.87 467.8Z" fill="#2C7482"/>
<path d="M143.993 484.928C143.365 484.115 143.923 482.952 144.473 482.092C145.786 479.943 147.256 477.894 148.871 475.962C150.474 474.018 152.483 472.448 154.757 471.363C154.832 471.745 154.824 472.138 154.734 472.516C154.643 472.894 154.473 473.249 154.234 473.556C153.749 474.176 153.199 474.744 152.593 475.248C149.643 477.976 147.515 481.475 146.45 485.349C145.754 485.636 144.634 485.722 143.993 484.928Z" fill="#2C7482"/>
<path d="M451.229 531.211C451.371 530.93 451.773 530.93 451.915 531.211L454.551 536.429C454.588 536.502 454.647 536.562 454.721 536.599L459.932 539.238C460.214 539.38 460.214 539.783 459.932 539.925L454.721 542.564C454.647 542.601 454.588 542.661 454.551 542.734L451.915 547.952C451.773 548.234 451.371 548.234 451.229 547.952L448.593 542.734C448.556 542.661 448.496 542.601 448.423 542.564L443.211 539.925C442.93 539.783 442.93 539.38 443.211 539.238L448.423 536.599C448.496 536.562 448.556 536.502 448.593 536.429L451.229 531.211Z" fill="#99D2EB"/>
</svg>
