<svg width="121" height="120" viewBox="0 0 121 120" fill="none" xmlns="http://www.w3.org/2000/svg">
<circle cx="60.5" cy="60" r="60" fill="#EAF6FB"/>
<path d="M54.9754 71.53C54.7621 71.4397 54.6028 71.5023 54.4214 71.594C51.4618 73.0817 48.5074 73.0705 45.5581 71.5606C45.4854 71.5168 45.4031 71.4911 45.3183 71.4858C45.2335 71.4805 45.1487 71.4956 45.071 71.53C40.7707 73.2997 37.9962 76.4236 36.7475 80.9017C36.281 82.5722 36.3009 84.2866 36.3009 86.0004C36.3009 86.3169 36.3578 86.4114 36.6991 86.41C41.1322 86.3958 45.5645 86.4008 49.9969 86.4008H61.3775C62.0787 86.4008 62.7798 86.4008 63.481 86.4008C63.6232 86.4008 63.7391 86.4193 63.7384 86.2002C63.7384 84.7247 63.7996 83.2385 63.4895 81.7914C62.4435 76.8932 59.6083 73.4621 54.9754 71.53Z" fill="#1F9ED3"/>
<path d="M50.2323 69.6142C53.9976 69.6213 57.578 66.6802 57.6079 62.2692C57.6349 58.3538 54.6013 55.0201 50.4698 54.8736C46.3382 54.7271 42.9355 58.0181 42.8644 62.1426C42.7933 66.2329 46.0381 69.5246 50.2323 69.6142Z" fill="#1F9ED3"/>
<path d="M59.2944 45.1641C59.2944 46.5944 59.2944 48.0247 59.2944 49.4549C59.2955 49.6541 59.2338 49.8485 59.118 50.0105C59.0022 50.1725 58.8382 50.2939 58.6494 50.3573C58.4658 50.424 58.2659 50.4314 58.0779 50.3784C57.8898 50.3255 57.7231 50.2149 57.6013 50.0622C57.4341 49.8624 57.3829 49.6285 57.3837 49.3725C57.3872 48.0334 57.3837 46.6951 57.3837 45.3561V45.1428C57.2905 45.1627 57.2564 45.2295 57.2087 45.2765C56.546 45.9357 55.8861 46.5984 55.2233 47.2569C54.9389 47.5413 54.6004 47.6359 54.2149 47.498C53.8295 47.36 53.634 47.0827 53.5856 46.6937C53.5676 46.5563 53.5821 46.4166 53.628 46.2858C53.6738 46.155 53.7496 46.0368 53.8494 45.9406C54.082 45.7024 54.3188 45.4685 54.5541 45.2331L57.5742 42.213C58.0656 41.7223 58.6025 41.7216 59.0946 42.213C60.3224 43.4389 61.5501 44.6654 62.7774 45.8923C63.0669 46.1803 63.1614 46.5138 63.0377 46.8964C62.9097 47.2903 62.6231 47.5115 62.2107 47.552C61.8942 47.584 61.6375 47.4518 61.4171 47.2299C60.7728 46.5821 60.1243 45.9385 59.4793 45.2914C59.4334 45.2388 59.3914 45.1829 59.3534 45.1243L59.2944 45.1641Z" fill="#262626"/>
<path d="M68.5517 35.471C68.5517 36.9017 68.5517 38.332 68.5517 39.7618C68.5525 39.9611 68.4905 40.1555 68.3744 40.3175C68.2584 40.4795 68.0943 40.6008 67.9053 40.6642C67.7217 40.7309 67.5218 40.7382 67.3338 40.6853C67.1457 40.6323 66.979 40.5218 66.8572 40.3691C66.6908 40.1693 66.6388 39.9353 66.6396 39.6793C66.6396 38.3403 66.6396 37.002 66.6396 35.663V35.4496C66.5471 35.4695 66.5123 35.5364 66.4646 35.5833C65.8019 36.2425 65.1427 36.9053 64.4792 37.5638C64.1948 37.8482 63.857 37.9428 63.4716 37.8048C63.0861 37.6669 62.8899 37.3895 62.8415 37.0013C62.8235 36.8638 62.8379 36.7239 62.8838 36.593C62.9296 36.4621 63.0055 36.3438 63.1053 36.2475C63.3379 36.0093 63.5747 35.7753 63.81 35.5399C64.817 34.533 65.8239 33.5263 66.8308 32.5199C67.3215 32.0292 67.8591 32.0292 68.3512 32.5199C69.5786 33.7458 70.806 34.9722 72.0333 36.1991C72.3228 36.4836 72.4173 36.8207 72.2936 37.2032C72.1656 37.5972 71.879 37.8183 71.4666 37.8589C71.1501 37.8909 70.8977 37.7586 70.673 37.5367C70.028 36.8889 69.3816 36.2489 68.7366 35.6004C68.6908 35.5479 68.6489 35.4921 68.6115 35.4333L68.5517 35.471Z" fill="#262626"/>
<path d="M81.4272 58.2223C81.3319 58.1951 81.2333 58.181 81.1342 58.1803C80.7431 58.1803 80.3378 58.3488 80.0306 58.767C79.7226 59.1723 79.584 59.8009 79.584 60.4857C79.584 61.4102 79.8201 61.9791 80.1003 62.2877C80.225 62.418 80.3744 62.5223 80.5399 62.5943C80.7053 62.6663 80.8834 62.7047 81.0638 62.7072C82.112 62.7072 82.5728 61.5751 82.5728 60.4317C82.5728 59.4646 82.3068 58.4455 81.4272 58.2223Z" fill="#1F9ED3"/>
<path d="M72.3611 56.1301H70.2363V58.8459H72.3042C72.6598 58.8316 73.8061 58.8025 73.8061 57.4663C73.8068 56.187 72.8852 56.1443 72.3611 56.1301Z" fill="#1F9ED3"/>
<path d="M76.4148 47.1105C69.2205 47.1105 63.3887 53.0874 63.3887 60.4609C63.3887 67.8344 69.2198 73.8113 76.4148 73.8113C83.6098 73.8113 89.4409 67.8344 89.4409 60.4609C89.4409 53.0874 83.6098 47.1105 76.4148 47.1105ZM73.7908 64.2931L71.8054 60.7112H70.2352V64.2952H67.7272V54.2522H72.232C73.2809 54.2671 74.5844 54.2813 75.5032 55.2769C75.9718 55.8024 76.2968 56.5995 76.2968 57.5098C76.2968 59.5286 74.9229 60.0271 74.2424 60.2831L76.552 64.2931H73.7908ZM81.4829 64.2568C80.6729 64.2568 80.2534 63.9901 79.6809 63.641V66.6447H77.5156V56.8534H79.4299V57.5382C79.4954 57.4555 79.5652 57.3762 79.639 57.3007C80.0016 56.9515 80.658 56.6607 81.4694 56.6607C83.2571 56.6607 84.6388 58.0118 84.6388 60.4459C84.6388 61.9379 83.9825 64.2568 81.4829 64.2568Z" fill="#1F9ED3"/>
<path d="M75.7026 45.7558C67.1835 45.6847 60.9016 52.5455 60.8404 60.2305C60.7693 68.7041 67.5611 75.1681 75.586 75.1638C83.596 75.1702 90.1439 68.6735 90.247 60.6934C90.3544 52.3492 83.7524 45.8205 75.7026 45.7558ZM88.7487 60.8726C88.7257 62.6282 88.3255 64.3583 87.5753 65.9457C86.8918 67.4234 85.9472 68.7657 84.7871 69.908C83.1977 71.4724 81.3133 72.5306 79.1956 73.1947C78.5172 73.4081 77.8189 73.5126 77.1149 73.5915C76.6072 73.6491 76.0966 73.6562 75.5874 73.6683C74.5656 73.6772 73.546 73.5722 72.5474 73.3554C71.8754 73.1951 71.2185 72.977 70.584 72.7034C69.7421 72.3552 68.9352 71.9278 68.1741 71.4269C67.3627 70.8922 66.6452 70.2479 65.9696 69.5531C64.3391 67.8749 63.3101 65.8653 62.69 63.6267C62.5814 63.1959 62.5033 62.7579 62.456 62.3162C62.369 61.6425 62.3281 60.9637 62.3337 60.2845C62.3291 59.3235 62.4314 58.3649 62.6388 57.4266C63.1553 55.2901 64.1907 53.3139 65.6532 51.673C67.1157 50.0321 68.9603 48.7772 71.0235 48.0193C71.9167 47.6823 72.8483 47.4575 73.7968 47.3501C74.6637 47.254 75.5369 47.2276 76.408 47.2712C77.1929 47.2981 77.9729 47.4063 78.7355 47.594C80.3632 48.0207 81.8843 48.7005 83.2468 49.6882C84.9648 50.9341 86.3444 52.4865 87.3001 54.3965C87.7797 55.3344 88.1548 56.3221 88.4187 57.3419C88.5378 57.8492 88.6219 58.3641 88.6704 58.8829C88.7367 59.5439 88.7628 60.2084 88.7487 60.8726Z" fill="#262626"/>
<path d="M85.8957 58.9518C85.8245 58.631 85.7357 58.3143 85.6298 58.0032C85.4698 57.5822 85.2138 57.221 84.9471 56.8654C84.5098 56.2787 83.9266 55.8784 83.271 55.574C83.186 55.5356 83.0974 55.5056 83.0065 55.4844C82.7092 55.4098 82.4113 55.3351 82.1112 55.2711C81.7607 55.1952 81.3996 55.182 81.0445 55.232C80.674 55.2832 80.3163 55.3884 79.9537 55.4745C79.8858 55.4937 79.8139 55.4937 79.746 55.4745C79.5294 55.4138 79.3045 55.3877 79.0797 55.397C78.7121 55.4041 78.3437 55.397 77.9761 55.397C77.7407 55.397 77.5039 55.3756 77.2756 55.4581C77.2045 55.483 77.1782 55.4439 77.154 55.387C77.0431 55.1282 76.8738 54.9042 76.7231 54.6688C76.3675 54.1141 75.8491 53.7522 75.3009 53.4222C75.1539 53.3363 74.9973 53.268 74.8344 53.2188C73.9708 52.9441 73.0696 52.8064 72.1634 52.8106C70.7355 52.8227 69.3083 52.805 67.8811 52.8192C67.4936 52.8234 67.1117 52.9017 66.7889 53.1598C66.6209 53.2847 66.4894 53.4521 66.4077 53.6448C66.3021 53.9044 66.244 54.1809 66.2363 54.4611C66.2363 57.5573 66.2363 60.6537 66.2363 63.7504C66.2378 63.9857 66.2654 64.2202 66.3188 64.4494C66.3631 64.658 66.4529 64.8542 66.5819 65.024C66.709 65.1979 66.8811 65.3338 67.0797 65.4172C67.3276 65.5218 67.5929 65.579 67.8619 65.5858C68.5154 65.5858 69.1689 65.5808 69.8217 65.5858C70.0569 65.5802 70.291 65.5538 70.5215 65.5068C70.7718 65.4652 71.0034 65.3478 71.185 65.1705C71.3599 65.0189 71.4861 64.819 71.5476 64.5959C71.623 64.2802 71.6962 63.9673 71.6735 63.6394C71.6761 63.6205 71.6799 63.6017 71.6849 63.5833C71.756 63.7127 71.8129 63.8115 71.869 63.9097C72.0916 64.2937 72.2779 64.699 72.5503 65.0531C72.6718 65.2176 72.8375 65.3441 73.0282 65.4179C73.2892 65.5198 73.5658 65.5761 73.8459 65.5843C74.5322 65.5808 75.2184 65.5843 75.9046 65.5843C76.0298 65.5843 76.0319 65.5843 76.0326 65.7116C76.0326 65.9591 76.0148 66.2094 76.0376 66.4526C76.0731 66.8387 76.1258 67.2213 76.3839 67.5449C76.5089 67.7125 76.6753 67.8448 76.8667 67.9289C77.12 68.0358 77.3906 68.096 77.6653 68.1066C78.1816 68.1109 78.6978 68.1066 79.2141 68.1066C79.4931 68.1085 79.7715 68.0791 80.044 68.0192C80.2854 67.9689 80.5074 67.8507 80.684 67.6786C80.8414 67.5404 80.959 67.3627 81.0246 67.1637C81.1359 66.8016 81.1826 66.4227 81.1626 66.0444C81.1576 65.9733 81.1626 65.9022 81.1626 65.8311C81.1626 65.7173 81.1626 65.7145 81.2827 65.7202C81.5623 65.7391 81.8431 65.7219 82.1183 65.669C82.4404 65.6021 82.7583 65.5267 83.0776 65.44C83.3113 65.3768 83.5337 65.2774 83.7368 65.1456C84.253 64.8149 84.7323 64.4444 85.0609 63.9104C85.0865 63.8684 85.1185 63.83 85.1469 63.7895C85.3594 63.4961 85.5272 63.1728 85.6447 62.8302C85.7943 62.3603 85.9144 61.8815 86.0045 61.3966C86.067 61.0786 86.0961 60.755 86.0913 60.4309C86.0898 59.9315 86.024 59.4344 85.8957 58.9518ZM76.2018 64.0974C75.4118 64.0974 74.621 64.0974 73.8303 64.0974C73.7805 64.1024 73.7304 64.0912 73.6874 64.0656C73.6444 64.04 73.6107 64.0013 73.5914 63.9552C72.9997 62.88 72.401 61.8083 71.8093 60.7331C71.7915 60.6887 71.7598 60.6512 71.7189 60.6263C71.678 60.6014 71.6301 60.5905 71.5825 60.5952C71.1658 60.603 70.7483 60.5952 70.3309 60.5952C70.1752 60.5952 70.1745 60.5952 70.1745 60.7587C70.1745 61.796 70.1745 62.8338 70.1745 63.872C70.1723 63.9103 70.1723 63.9488 70.1745 63.9872C70.1851 64.0754 70.146 64.096 70.0621 64.096C69.3211 64.0927 68.5799 64.0927 67.8385 64.096C67.7553 64.096 67.7147 64.0754 67.7268 63.9858C67.729 63.9531 67.729 63.9203 67.7268 63.8876C67.7268 60.7587 67.7268 57.6298 67.7268 54.501C67.7268 54.2826 67.6927 54.3061 67.916 54.3061C69.4747 54.3061 71.0342 54.3061 72.593 54.3125C73.1262 54.3051 73.657 54.3848 74.1645 54.5486C75.1757 54.8942 75.7716 55.6153 76.0212 56.6371C76.1865 57.2736 76.1618 57.9445 75.9501 58.5671C75.7261 59.2142 75.2724 59.6579 74.6623 59.9488C74.4845 60.0334 74.3018 60.1059 74.1076 60.1898L76.3654 64.096L76.2018 64.0974ZM84.1322 62.5962C83.8964 63.1082 83.5147 63.5392 83.0349 63.835C82.6358 64.068 82.1872 64.2032 81.7258 64.2297C81.0975 64.286 80.4686 64.1286 79.9409 63.7831C79.8634 63.7326 79.7823 63.6885 79.6884 63.633C79.6708 63.6964 79.6655 63.7625 79.6728 63.8279C79.6728 64.6898 79.6728 65.5516 79.6728 66.4135C79.6728 66.4519 79.6728 66.4903 79.6728 66.5287C79.6728 66.582 79.6571 66.6126 79.6017 66.6105C79.5746 66.6105 79.5469 66.6105 79.5199 66.6105H77.6717C77.5174 66.6105 77.5295 66.6226 77.5295 66.4682V62.6638C77.5295 60.8026 77.5295 58.9416 77.5295 57.0809C77.5295 56.8526 77.506 56.8867 77.7172 56.886C78.2444 56.886 78.7713 56.886 79.298 56.886C79.4146 56.886 79.4161 56.886 79.4175 56.9998C79.4175 57.1747 79.4175 57.3497 79.4175 57.5189C79.4388 57.5374 79.4559 57.5346 79.4666 57.5189C79.8015 57.0994 80.2538 56.8789 80.7636 56.768C81.4536 56.6048 82.1788 56.6865 82.8152 56.9991C83.537 57.3546 84.0042 57.9349 84.2922 58.6716C84.5006 59.2275 84.6036 59.8174 84.5958 60.411C84.6118 61.1654 84.4532 61.9133 84.1322 62.5962Z" fill="#262626"/>
<path d="M70.1752 57.4799C70.1752 57.071 70.1752 56.6621 70.1752 56.2532C70.1752 56.1266 70.1752 56.1245 70.3174 56.1245H72.6321C72.8236 56.1253 73.0144 56.1475 73.201 56.1906C73.6518 56.2945 73.9469 56.5462 74.0643 56.9586C74.157 57.2728 74.1593 57.6068 74.0707 57.9222C73.9413 58.3844 73.5935 58.6532 73.0972 58.772C72.9055 58.8185 72.7091 58.8424 72.5119 58.8431H70.3267C70.1781 58.8431 70.1759 58.8431 70.1759 58.7009C70.1717 58.2977 70.1752 57.8888 70.1752 57.4799Z" fill="#262626"/>
<path d="M79.5759 60.5092C79.5632 60.0993 79.6214 59.6903 79.748 59.3003C79.8287 59.0546 79.9602 58.8288 80.1342 58.6375C80.7436 57.9712 81.7363 58.0686 82.2035 58.8409C82.3565 59.1017 82.4564 59.3903 82.4972 59.69C82.5911 60.2923 82.5875 60.8917 82.4161 61.482C82.3439 61.7418 82.2233 61.9857 82.0606 62.2009C81.4575 62.9902 80.3767 62.7861 79.9457 62.1106C79.7704 61.8186 79.6575 61.4934 79.6143 61.1556C79.5827 60.9416 79.5699 60.7253 79.5759 60.5092Z" fill="#262626"/>
<path d="M81.6719 65.4849C81.6331 65.3495 81.6304 65.2063 81.6641 65.0696C81.7224 65.2061 81.6975 65.3462 81.6719 65.4849Z" fill="#262626"/>
<path d="M64.8902 80.6784C64.8902 80.6621 64.8838 80.6471 64.881 80.6322C64.752 80.2708 64.6568 79.8983 64.5965 79.5193C64.5523 79.1879 64.4758 78.8616 64.3683 78.5451C64.2773 78.3361 64.2031 78.1202 64.1464 77.8994C64.127 77.8645 64.1104 77.8281 64.0966 77.7906C63.3504 75.796 62.198 73.9782 60.7125 72.4523C59.4567 71.1421 57.9817 70.0613 56.3541 69.2587C56.0291 69.0994 56.0298 69.0141 56.263 68.7609C58.0707 66.816 58.8899 64.4942 58.7967 61.8574C58.766 60.7189 58.4997 59.599 58.0145 58.5686C57.971 58.4847 57.9403 58.3948 57.9235 58.3019C57.4925 57.6199 57.2273 56.8334 56.662 56.2439C56.5894 56.2142 56.5264 56.165 56.4799 56.1017C55.5589 55.0243 54.4028 54.1728 53.1007 53.6128C49.3041 51.9773 45.0353 52.9145 42.2349 56.0114C42.1848 56.0697 42.128 56.122 42.0657 56.1671C41.8125 56.527 41.543 56.8782 41.2956 57.2388C41.0965 57.5296 40.9635 57.9079 40.7381 58.1831C40.7366 58.2576 40.7176 58.3307 40.6826 58.3965C40.0981 59.6765 39.7887 61.0169 39.8207 62.4228C39.8762 64.8647 40.7132 67.0023 42.385 68.7965C42.567 68.992 42.636 69.0724 42.3302 69.2274C38.6709 71.0813 36.0554 73.8987 34.5578 77.728C34.5379 77.7791 34.5141 77.8285 34.4867 77.8759C34.4835 77.9404 34.4688 78.0037 34.4433 78.063C34.1688 78.7122 33.836 79.3536 33.7485 80.0541C33.767 80.1073 33.775 80.1635 33.772 80.2198C33.772 80.2482 33.7685 80.2759 33.7649 80.3044C33.7891 80.3428 33.7912 80.4046 33.7649 80.5113C33.6748 80.9388 33.6114 81.3716 33.575 81.807C33.4207 83.3174 33.5544 84.8349 33.4861 86.346C33.4492 87.1559 33.9953 87.6331 34.7661 87.631C42.1923 87.6103 49.6177 87.6189 57.0438 87.6189C59.3478 87.6189 61.6518 87.6189 63.9558 87.6189C64.7032 87.6189 65.1263 87.205 65.1313 86.4726C65.1313 86.0843 65.1313 85.696 65.1313 85.3085C65.137 83.7639 65.2095 82.2073 64.8902 80.6784ZM41.9391 62.2144C42.0102 58.09 45.4236 54.8025 49.548 54.9469C53.6725 55.0912 56.7132 58.4256 56.6861 62.3424C56.6563 66.7513 53.0758 69.6946 49.3105 69.6875C45.1149 69.6 41.868 66.3047 41.9391 62.2144ZM63.0364 85.3255C63.0364 85.5438 62.9226 85.5268 62.7789 85.5261C62.0778 85.5261 61.3766 85.5261 60.6755 85.5261H49.2941C44.8611 85.5261 40.4287 85.5218 35.9964 85.536C35.655 85.536 35.5981 85.4422 35.5981 85.1257C35.5981 83.4119 35.5782 81.6982 36.0447 80.027C37.2958 75.5508 40.0713 72.4272 44.3711 70.656C44.4488 70.6215 44.5336 70.6062 44.6184 70.6115C44.7033 70.6168 44.7855 70.6426 44.8582 70.6866C47.8051 72.1998 50.7595 72.2107 53.7215 70.7193C53.9029 70.6283 54.0593 70.565 54.2755 70.6553C58.9084 72.5874 61.7421 76.0192 62.7896 80.9152C63.0989 82.3595 63.0371 83.8457 63.0378 85.322L63.0364 85.3255Z" fill="#262626"/>
</svg>
