<svg width="637" height="69" viewBox="0 0 637 69" fill="none" xmlns="http://www.w3.org/2000/svg">
<path fill-rule="evenodd" clip-rule="evenodd" d="M634.478 51.236L617.159 59.1385L618.12 61.2434L635.438 53.3409C636.019 53.0757 636.276 52.3895 636.01 51.8082C635.745 51.2269 635.059 50.9707 634.478 51.236Z" fill="#917F50"/>
<path fill-rule="evenodd" clip-rule="evenodd" d="M598.506 23.6393C599.144 23.6811 599.627 24.2318 599.585 24.8694L598.34 43.8646L596.031 43.7132L597.276 24.7181C597.318 24.0805 597.869 23.5976 598.506 23.6393Z" fill="#917F50"/>
<path fill-rule="evenodd" clip-rule="evenodd" d="M619.131 32.7529L608.084 48.2557L609.968 49.5984L621.015 34.0956C621.386 33.5753 621.264 32.8529 620.744 32.4821C620.224 32.1114 619.501 32.2326 619.131 32.7529Z" fill="#917F50"/>
<path d="M15.2276 17.6727H30.4552C30.4562 20.6834 29.5646 23.6268 27.8932 26.131C26.2218 28.6352 23.8455 30.5877 21.0648 31.7418C18.2841 32.8959 15.2236 33.1998 12.2702 32.6151C9.31682 32.0304 6.60304 30.5833 4.47182 28.4567C2.3406 26.3301 0.887587 23.6195 0.296429 20.6674C-0.294729 17.7152 0.00250007 14.6541 1.15054 11.8709C2.29857 9.08764 4.24589 6.70716 6.74641 5.0303C9.24693 3.35344 12.1884 2.45546 15.1991 2.44983L15.2276 17.6727Z" fill="#99D2EB"/>
<path d="M17.9391 15.2276L17.8916 0H17.9391C21.96 0.0185683 25.8119 1.61991 28.661 4.45742C31.5101 7.29492 33.127 11.1403 33.1619 15.1612L17.9391 15.2276Z" fill="#1F9ED3"/>
<path d="M322.575 32.2113C322.717 31.9296 323.119 31.9296 323.261 32.2113L326.349 38.3243C326.386 38.3976 326.446 38.4571 326.519 38.4942L332.625 41.5858C332.907 41.7283 332.907 42.1306 332.625 42.2731L326.519 45.3647C326.446 45.4017 326.386 45.4613 326.349 45.5345L323.261 51.6475C323.119 51.9293 322.717 51.9293 322.575 51.6475L319.487 45.5345C319.45 45.4613 319.39 45.4017 319.317 45.3647L313.211 42.2731C312.93 42.1306 312.93 41.7283 313.211 41.5858L319.317 38.4942C319.39 38.4571 319.45 38.3976 319.487 38.3243L322.575 32.2113Z" fill="#EAF6FB"/>
</svg>
