<svg width="534" height="282" viewBox="0 0 534 282" fill="none" xmlns="http://www.w3.org/2000/svg">
<path d="M227.254 245.523C233.957 250.998 233.412 257.926 228.372 261.863C223.902 265.355 216.528 264.88 211.054 260.187C204.211 254.322 205.887 243.568 207.144 242.451C208.4 241.334 218.875 238.68 227.254 245.523Z" fill="#46A6A4"/>
<path d="M236.161 258.402C230.699 262.863 231.143 268.509 235.251 271.717C238.892 274.562 244.901 274.175 249.362 270.352C254.939 265.572 253.573 256.809 252.549 255.899C251.524 254.988 242.989 252.826 236.161 258.402Z" fill="#46A6A4"/>
<path d="M228.547 281.386C229.837 280.956 230.082 279.267 230.113 277.915C230.257 274.585 230.154 271.249 229.806 267.934C229.48 264.615 228.432 261.407 226.735 258.536C226.371 258.9 226.089 259.338 225.909 259.82C225.729 260.302 225.654 260.817 225.691 261.331C225.766 262.371 225.951 263.401 226.243 264.402C227.471 269.577 227.226 274.991 225.537 280.034C226.09 280.864 227.257 281.785 228.547 281.386Z" fill="#2C7482"/>
<path d="M218.895 248.805C221.794 250.79 225.56 256.115 227.035 259.133L226.208 263.27C225.678 261.504 223.908 257.231 221.794 253.794C218.324 248.152 217.27 248.06 215.21 246.726C215.72 247.04 216.496 247.163 218.895 248.805Z" fill="#2C7482"/>
<path d="M244.87 260.8C242.061 261.309 237.5 264.007 235.403 265.755L234.643 269.097C235.622 267.964 238.354 265.383 241.063 263.536C245.511 260.505 246.322 260.787 248.293 260.482C247.811 260.546 247.194 260.379 244.87 260.8Z" fill="#2C7482"/>
<path d="M226.993 277.928C226.365 277.115 226.923 275.952 227.473 275.092C228.786 272.943 230.256 270.894 231.871 268.962C233.474 267.018 235.483 265.448 237.757 264.363C237.832 264.745 237.824 265.138 237.734 265.516C237.643 265.894 237.473 266.249 237.234 266.556C236.749 267.176 236.199 267.744 235.593 268.248C232.643 270.976 230.515 274.475 229.45 278.349C228.754 278.636 227.634 278.722 226.993 277.928Z" fill="#2C7482"/>
<path d="M462.229 151.211C462.371 150.93 462.773 150.93 462.915 151.211L465.551 156.429C465.588 156.502 465.647 156.562 465.721 156.599L470.932 159.238C471.214 159.38 471.214 159.783 470.932 159.925L465.721 162.564C465.647 162.601 465.588 162.661 465.551 162.734L462.915 167.952C462.773 168.234 462.371 168.234 462.229 167.952L459.593 162.734C459.556 162.661 459.496 162.601 459.423 162.564L454.211 159.925C453.93 159.783 453.93 159.38 454.211 159.238L459.423 156.599C459.496 156.562 459.556 156.502 459.593 156.429L462.229 151.211Z" fill="#99D2EB"/>
<path d="M6.30524 168.211C6.44756 167.93 6.84943 167.93 6.99175 168.211L8.98166 172.15C9.01868 172.224 9.07812 172.283 9.15132 172.32L13.0859 174.312C13.3673 174.455 13.3673 174.857 13.0859 175L9.15132 176.992C9.07812 177.029 9.01868 177.088 8.98166 177.162L6.99175 181.101C6.84943 181.383 6.44756 181.383 6.30524 181.101L4.31534 177.162C4.27832 177.088 4.21888 177.029 4.14568 176.992L0.211058 175C-0.0703528 174.857 -0.0703527 174.455 0.211058 174.312L4.14568 172.32C4.21888 172.283 4.27832 172.224 4.31534 172.15L6.30524 168.211Z" fill="#197EA9"/>
<path d="M532.275 11.3348C530.914 8.22952 528.745 5.54654 525.993 3.56611C523.241 1.58567 520.008 0.380457 516.632 0.0763361C513.255 -0.227785 509.859 0.38035 506.797 1.83722C503.736 3.29409 501.122 5.54624 499.228 8.35844C497.335 11.1706 496.231 14.4397 496.033 17.8242C495.834 21.2087 496.548 24.5844 498.099 27.5988C499.651 30.6131 501.984 33.1556 504.854 34.9605C507.724 36.7654 511.026 37.7666 514.415 37.8594L516.314 42.2367L531.506 35.5901C531.506 35.5901 530.523 33.0976 529.607 30.89C531.807 28.191 533.22 24.9376 533.69 21.4876C534.161 18.0375 533.671 14.5245 532.275 11.3348Z" fill="#99D2EB"/>
<path d="M524.432 49.1976C524.909 49.2789 525.373 49.4275 525.808 49.6391C525.958 49.7193 526.124 49.764 526.294 49.7697C526.463 49.7755 526.632 49.7422 526.786 49.6723L529.844 48.3288C530.012 48.2554 530.16 48.1417 530.275 47.9976C530.389 47.8535 530.466 47.6836 530.499 47.5027C530.572 47.0109 530.816 46.5605 531.187 46.2303L524.432 49.1976Z" fill="#135F7F"/>
<path d="M517.382 42.1323C517.41 42.194 520.23 46.6615 521.289 48.3658C521.502 48.7156 521.799 49.0066 522.153 49.2122C522.507 49.4178 522.907 49.5316 523.316 49.5432C523.643 49.5488 523.967 49.4841 524.266 49.3533L530.955 46.4146C530.955 46.4146 532.702 45.6502 532.493 44.0883C532.265 42.4456 530.537 36.3593 530.537 36.3593L517.382 42.1323Z" fill="#99D2EB"/>
<path d="M531.314 39.6172L519.186 44.9913C519.004 45.072 519.015 45.4942 519.21 45.9342L519.251 46.0286C519.446 46.4687 519.752 46.7599 519.934 46.6792L532.062 41.3051C532.244 41.2244 532.233 40.8022 532.038 40.3622L531.997 40.2678C531.802 39.8278 531.496 39.5365 531.314 39.6172Z" fill="#C7E7F4"/>
<path d="M532.151 42.475L520.818 47.4968C520.648 47.5723 520.668 47.9902 520.863 48.4302L520.905 48.5246C521.1 48.9646 521.396 49.2602 521.566 49.1848L532.899 44.1629C533.069 44.0874 533.049 43.6696 532.854 43.2295L532.812 43.1351C532.617 42.6951 532.321 42.3995 532.151 42.475Z" fill="#C7E7F4"/>
<path d="M531.004 37.7594L518.056 43.497C517.874 43.5777 517.792 43.7909 517.873 43.9731L517.89 44.0121C517.971 44.1943 518.184 44.2766 518.366 44.1958L531.314 38.4582C531.496 38.3775 531.578 38.1644 531.497 37.9822L531.48 37.9431C531.399 37.7609 531.186 37.6787 531.004 37.7594Z" fill="#E0E0E0"/>
<path d="M513.889 38.7523C513.946 38.8757 515.503 41.6768 516.305 43.12C516.452 43.3816 516.657 43.6064 516.904 43.7775C517.151 43.9485 517.433 44.0614 517.729 44.1075L518.608 44.2499L531.535 38.5529L532.01 37.8217C532.177 37.5697 532.283 37.2828 532.321 36.9831C532.359 36.6835 532.327 36.3791 532.228 36.0936L530.619 31.3888L513.889 38.7523Z" fill="#FF725E"/>
<path fill-rule="evenodd" clip-rule="evenodd" d="M517.834 17.7526C517.635 17.6546 517.503 17.6599 517.413 17.7135C517.315 17.7718 517.201 17.9437 517.136 18.2669C517.073 18.5771 517.066 18.9804 517.131 19.4254C517.263 20.3164 517.681 21.335 518.475 22.0673C518.915 22.4734 519.364 22.7504 519.818 22.9144C519.98 22.476 520.011 21.9713 519.963 21.4725C519.907 20.9077 519.752 20.3689 519.593 19.978C519.372 19.4378 518.944 18.7613 518.487 18.2762C518.258 18.033 518.033 17.8502 517.834 17.7526ZM520.235 23.0336C520.418 22.521 520.445 21.9567 520.394 21.4303C520.334 20.8179 520.167 20.2382 519.994 19.8144C519.753 19.224 519.295 18.5025 518.802 17.9791C518.556 17.718 518.29 17.4939 518.026 17.3639C517.762 17.2344 517.461 17.1811 517.192 17.3409C516.93 17.496 516.783 17.825 516.711 18.1813C516.637 18.5506 516.631 19.0054 516.703 19.4886C516.845 20.4538 517.299 21.5715 518.181 22.3857C518.644 22.8121 519.126 23.1169 519.624 23.3048C519.449 23.5774 519.199 23.8113 518.85 23.9822C518.671 24.0697 518.376 24.2058 518.124 24.321C517.999 24.3784 517.884 24.4302 517.801 24.4677L517.714 24.5071L517.714 24.5067L517.707 24.5105L517.667 24.5282L517.668 24.5306L517.583 24.5748C517.503 24.6169 517.391 24.6748 517.269 24.7381C517.023 24.8653 516.733 25.0131 516.554 25.0999C516.204 25.2693 515.866 25.3215 515.543 25.2909C515.703 24.7827 515.761 24.2153 515.711 23.5884C515.615 22.3915 515.016 21.3444 514.345 20.6364C514.009 20.2821 513.648 20.0053 513.311 19.8359C512.987 19.6724 512.637 19.5853 512.354 19.6952C512.061 19.8084 511.917 20.0784 511.857 20.3655C511.796 20.6535 511.808 21.0013 511.861 21.3561C511.968 22.0672 512.254 22.8726 512.569 23.4265C512.796 23.8241 513.149 24.3137 513.594 24.7389C513.976 25.1043 514.436 25.4317 514.953 25.6041C514.689 26.1404 514.275 26.5844 513.725 26.9419C513.207 26.0535 512.708 25.292 512.258 24.7436C512.018 24.4503 511.785 24.2103 511.564 24.0445C511.349 23.8825 511.115 23.7685 510.881 23.7826C510.271 23.8192 509.883 24.1819 509.699 24.6674C509.52 25.1396 509.53 25.7276 509.677 26.2735C509.824 26.8207 510.117 27.3551 510.539 27.7139C510.967 28.0787 511.527 28.2589 512.171 28.0801C512.683 27.9377 513.151 27.7575 513.568 27.5364C515.311 30.6063 517.284 35.0533 518.424 37.838L518.825 37.6739C517.683 34.8829 515.7 30.4126 513.942 27.3178C514.587 26.903 515.08 26.3699 515.383 25.7077C515.816 25.7715 516.275 25.7159 516.743 25.4898C516.928 25.4003 517.222 25.2499 517.468 25.123C517.591 25.0593 517.703 25.0012 517.784 24.959L517.896 24.9001L517.98 24.8624C518.063 24.8247 518.178 24.7727 518.304 24.715C518.556 24.6001 518.855 24.4617 519.04 24.3714C519.507 24.1433 519.834 23.8165 520.051 23.4361C520.759 23.6064 521.483 23.5478 522.207 23.2966C523.557 26.5901 525.849 30.9099 527.339 33.532L527.716 33.318C526.229 30.7017 523.949 26.4038 522.61 23.1373C523.042 22.946 523.472 22.689 523.901 22.3738C524.439 21.978 524.643 21.4261 524.62 20.864C524.598 20.3109 524.358 19.7506 524.019 19.2969C523.68 18.8442 523.224 18.4734 522.742 18.3228C522.246 18.1679 521.721 18.249 521.316 18.7058C521.16 18.8818 521.106 19.1359 521.1 19.4052C521.095 19.681 521.14 20.0124 521.222 20.3829C521.375 21.0754 521.667 21.9378 522.045 22.8943C521.424 23.1062 520.82 23.1572 520.235 23.0336ZM522.448 22.7352C522.842 22.5594 523.241 22.3215 523.644 22.0249C524.052 21.7244 524.205 21.3176 524.187 20.8813C524.17 20.4358 523.973 19.9579 523.672 19.5564C523.371 19.1538 522.984 18.8523 522.613 18.7362C522.255 18.6245 521.916 18.6824 521.641 18.9932C521.587 19.0537 521.538 19.1805 521.534 19.4141C521.529 19.6412 521.566 19.9348 521.645 20.2891C521.791 20.9495 522.073 21.7877 522.448 22.7352ZM513.352 27.1607C512.838 26.2806 512.352 25.5413 511.923 25.0184C511.693 24.7379 511.485 24.5272 511.304 24.3907C511.117 24.2502 510.987 24.2101 510.907 24.215C510.492 24.2399 510.237 24.4706 510.104 24.8211C509.966 25.1848 509.965 25.6753 510.095 26.1608C510.226 26.6451 510.48 27.0951 510.819 27.3841C511.152 27.6673 511.566 27.7985 512.055 27.6627C512.537 27.5287 512.971 27.3615 513.352 27.1607ZM515.117 25.202C515.268 24.744 515.327 24.2199 515.279 23.6229C515.193 22.5463 514.65 21.5881 514.031 20.9345C513.721 20.6082 513.399 20.3651 513.117 20.2228C512.822 20.0745 512.617 20.0578 512.51 20.0991C512.412 20.1371 512.326 20.2378 512.281 20.455C512.235 20.6712 512.24 20.9611 512.29 21.2915C512.389 21.9506 512.657 22.7051 512.946 23.212C513.155 23.5787 513.483 24.0337 513.893 24.4257C514.255 24.7721 514.671 25.0594 515.117 25.202Z" fill="white"/>
<path d="M513.889 38.7523C513.946 38.8757 515.503 41.6768 516.305 43.12C516.452 43.3816 516.657 43.6064 516.904 43.7775C517.151 43.9485 517.433 44.0614 517.729 44.1075L518.608 44.2499L531.535 38.5529L532.01 37.8217C532.177 37.5697 532.283 37.2828 532.321 36.9831C532.359 36.6835 532.327 36.3791 532.228 36.0936L530.619 31.3888L513.889 38.7523Z" fill="#135F7F"/>
</svg>
