<svg width="578" height="551" viewBox="0 0 578 551" fill="none" xmlns="http://www.w3.org/2000/svg">
<path fill-rule="evenodd" clip-rule="evenodd" d="M438.317 497.195L384.08 497.195L384.08 496.039L438.317 496.039L438.317 497.195Z" fill="#197EA9"/>
<path fill-rule="evenodd" clip-rule="evenodd" d="M552.924 385.507H339.049V384.351H552.924V385.507Z" fill="#197EA9"/>
<path fill-rule="evenodd" clip-rule="evenodd" d="M468.704 390.138L333.689 390.138L333.689 388.982L468.704 388.982L468.704 390.138Z" fill="#197EA9"/>
<path fill-rule="evenodd" clip-rule="evenodd" d="M468.698 390.244L40.9482 390.244L40.9482 389.088L468.698 389.088L468.698 390.244Z" fill="#197EA9"/>
<path fill-rule="evenodd" clip-rule="evenodd" d="M304.034 384.56L109.086 384.56L109.086 383.404L304.034 383.404L304.034 384.56Z" fill="#197EA9"/>
<path fill-rule="evenodd" clip-rule="evenodd" d="M234.833 487.568L99.8184 487.568L99.8184 486.412L234.833 486.412L234.833 487.568Z" fill="#197EA9"/>
<path fill-rule="evenodd" clip-rule="evenodd" d="M224.447 481.791L89.4326 481.791L89.4326 480.635L224.447 480.635L224.447 481.791Z" fill="#197EA9"/>
<path fill-rule="evenodd" clip-rule="evenodd" d="M265.605 452.139L174.826 452.139L174.826 450.983L265.605 450.983L265.605 452.139Z" fill="#197EA9"/>
<path fill-rule="evenodd" clip-rule="evenodd" d="M259.836 445.592L169.057 445.592L169.057 444.436L259.836 444.436L259.836 445.592Z" fill="#197EA9"/>
<path fill-rule="evenodd" clip-rule="evenodd" d="M289.07 437.505L198.291 437.505L198.291 436.349L289.07 436.349L289.07 437.505Z" fill="#197EA9"/>
<path fill-rule="evenodd" clip-rule="evenodd" d="M290.223 416.71L199.444 416.71L199.444 415.554L290.223 415.554L290.223 416.71Z" fill="#197EA9"/>
<path fill-rule="evenodd" clip-rule="evenodd" d="M313.303 409.393L222.524 409.393L222.524 408.237L313.303 408.237L313.303 409.393Z" fill="#197EA9"/>
<path fill-rule="evenodd" clip-rule="evenodd" d="M502.939 395.145L391.773 395.145L391.773 393.989L502.939 393.989L502.939 395.145Z" fill="#197EA9"/>
<path fill-rule="evenodd" clip-rule="evenodd" d="M457.934 500.661L401.39 500.661L401.39 499.505L457.934 499.505L457.934 500.661Z" fill="#197EA9"/>
<path d="M24.8604 34.1463C24.8604 29.0419 28.9936 24.9039 34.0921 24.9039H252.216C257.315 24.9039 261.448 29.0419 261.448 34.1463V200.411C261.448 205.515 257.315 209.653 252.216 209.653H34.0921C28.9935 209.653 24.8604 205.515 24.8604 200.411V34.1463Z" fill="#BAE8FF"/>
<path opacity="0.2" fill-rule="evenodd" clip-rule="evenodd" d="M252.216 25.8514H34.0921C29.5162 25.8514 25.8067 29.5651 25.8067 34.1463V200.411C25.8067 204.992 29.5162 208.706 34.0921 208.706H252.216C256.792 208.706 260.502 204.992 260.502 200.411V34.1463C260.502 29.5651 256.792 25.8514 252.216 25.8514ZM34.0921 24.9039C28.9936 24.9039 24.8604 29.0419 24.8604 34.1463V200.411C24.8604 205.515 28.9935 209.653 34.0921 209.653H252.216C257.315 209.653 261.448 205.515 261.448 200.411V34.1463C261.448 29.0419 257.315 24.9039 252.216 24.9039H34.0921Z" fill="#197EA9"/>
<path fill-rule="evenodd" clip-rule="evenodd" d="M72.69 66.5911C82.3093 66.5911 90.1473 74.458 90.1473 84.113C90.1473 93.7679 82.3093 101.635 72.69 101.635C62.9815 101.635 55.1436 93.7679 55.1436 84.113C55.1436 74.458 62.9815 66.5911 72.69 66.5911Z" fill="#F9EDCF"/>
<path d="M64.0533 85.4035C63.5935 84.9084 63.6854 84.1162 64.1452 83.6211C64.6051 83.225 65.3408 83.225 65.8006 83.7201L70.0309 88.8694L80.1469 77.8777C80.6067 77.3826 81.3425 77.3826 81.8023 77.8777C82.1701 78.3728 82.2621 79.165 81.8023 79.5611L70.7666 91.444C70.7666 91.543 70.7666 91.543 70.6747 91.543C70.2149 92.0382 69.4791 91.9391 69.1113 91.444L64.0533 85.4035Z" fill="#1F9ED3"/>
<path fill-rule="evenodd" clip-rule="evenodd" d="M235.729 57.0007L188.098 132.101L153.664 98.9754L110.593 160.768L87.5014 142.081L54.5421 182.176L54.2451 181.932L87.4467 141.542L110.514 160.209L153.606 98.3856L188.025 131.497L235.404 56.7943L235.729 57.0007Z" fill="white"/>
<path d="M87.4741 141.811L54.3936 182.054L40.9307 197.265V204.39H235.567V56.8976L188.062 131.799L153.635 98.6806L110.553 160.489L87.4741 141.811Z" fill="url(#paint0_linear_160_8511)"/>
<path d="M90.552 142.004C90.552 143.705 89.1742 145.085 87.4747 145.085C85.7752 145.085 84.3975 143.705 84.3975 142.004C84.3975 140.303 85.7752 138.923 87.4747 138.923C89.1742 138.923 90.552 140.303 90.552 142.004Z" fill="#197EA9"/>
<path d="M114.016 160.874C114.016 162.575 112.638 163.955 110.939 163.955C109.239 163.955 107.861 162.575 107.861 160.874C107.861 159.172 109.239 157.793 110.939 157.793C112.638 157.793 114.016 159.172 114.016 160.874Z" fill="#197EA9"/>
<path d="M156.327 98.8731C156.327 100.575 154.95 101.954 153.25 101.954C151.551 101.954 150.173 100.575 150.173 98.8731C150.173 97.1717 151.551 95.7924 153.25 95.7924C154.95 95.7924 156.327 97.1717 156.327 98.8731Z" fill="#197EA9"/>
<path d="M190.562 132.377C190.562 134.078 189.184 135.457 187.484 135.457C185.785 135.457 184.407 134.078 184.407 132.377C184.407 130.675 185.785 129.296 187.484 129.296C189.184 129.296 190.562 130.675 190.562 132.377Z" fill="#197EA9"/>
<path d="M237.875 56.5124C237.875 58.2139 236.497 59.5932 234.798 59.5932C233.098 59.5932 231.721 58.2139 231.721 56.5124C231.721 54.811 233.098 53.4316 234.798 53.4316C236.497 53.4316 237.875 54.811 237.875 56.5124Z" fill="#197EA9"/>
<path d="M241.081 157.511C241.081 156.995 241.499 156.576 242.014 156.576H364.606C365.121 156.576 365.539 156.995 365.539 157.511V335.547H241.081V157.511Z" fill="#99D2EB"/>
<path opacity="0.5" d="M257.335 175.487C257.335 175.358 257.439 175.254 257.568 175.254H279.73C279.859 175.254 279.964 175.358 279.964 175.487V336.101H257.335V175.487Z" fill="#1F9ED3"/>
<path opacity="0.5" d="M290.916 175.487C290.916 175.358 291.02 175.254 291.149 175.254H313.311C313.44 175.254 313.545 175.358 313.545 175.487V336.101H290.916V175.487Z" fill="#1F9ED3"/>
<path d="M324.255 175.487C324.255 175.358 324.359 175.254 324.488 175.254H346.65C346.779 175.254 346.884 175.358 346.884 175.487V336.101H324.255V175.487Z" fill="#62C4EE"/>
<path opacity="0.5" fill-rule="evenodd" clip-rule="evenodd" d="M210.781 336.715V226.84H211.015V336.715H210.781Z" fill="#135F7F"/>
<path d="M414.765 422.752C414.765 422.752 391.427 457.338 391.389 474.342C391.389 485.65 394.268 495.276 409.17 495.613C424.073 495.949 443.496 495.824 443.496 495.824C443.496 495.824 464.502 491.02 454.56 465.139C445.78 442.283 432.316 422.867 432.316 422.867L414.765 422.752Z" fill="#C1A96B"/>
<path d="M410.2 471.988V454.688H417.018C418.323 454.688 419.437 454.921 420.359 455.389C421.288 455.85 421.994 456.507 422.477 457.357C422.967 458.202 423.212 459.196 423.212 460.339C423.212 461.488 422.964 462.476 422.469 463.304C421.974 464.126 421.257 464.757 420.317 465.196C419.384 465.636 418.253 465.855 416.925 465.855H412.36V462.915H416.335C417.032 462.915 417.612 462.82 418.073 462.628C418.534 462.437 418.877 462.15 419.102 461.767C419.333 461.384 419.448 460.908 419.448 460.339C419.448 459.765 419.333 459.28 419.102 458.886C418.877 458.492 418.531 458.193 418.064 457.991C417.603 457.782 417.021 457.678 416.318 457.678H413.854V471.988H410.2ZM419.533 464.115L423.827 471.988H419.794L415.592 464.115H419.533Z" fill="#F1D386"/>
<path d="M425.726 476.854V459.013H429.27V461.192H429.43C429.588 460.843 429.816 460.488 430.114 460.128C430.418 459.762 430.811 459.458 431.295 459.215C431.784 458.968 432.392 458.844 433.118 458.844C434.063 458.844 434.935 459.092 435.733 459.587C436.532 460.077 437.171 460.818 437.649 461.809C438.127 462.794 438.366 464.031 438.366 465.517C438.366 466.965 438.133 468.187 437.666 469.184C437.204 470.175 436.574 470.927 435.776 471.439C434.982 471.946 434.094 472.199 433.109 472.199C432.412 472.199 431.818 472.084 431.329 471.853C430.845 471.622 430.448 471.332 430.139 470.983C429.83 470.628 429.593 470.271 429.43 469.91H429.321V476.854H425.726ZM429.245 465.5C429.245 466.272 429.352 466.945 429.565 467.519C429.779 468.094 430.088 468.542 430.493 468.863C430.899 469.178 431.391 469.336 431.97 469.336C432.555 469.336 433.05 469.175 433.455 468.854C433.86 468.528 434.167 468.077 434.375 467.503C434.589 466.922 434.696 466.255 434.696 465.5C434.696 464.751 434.592 464.093 434.383 463.524C434.175 462.955 433.869 462.51 433.464 462.189C433.059 461.868 432.561 461.707 431.97 461.707C431.385 461.707 430.89 461.862 430.485 462.172C430.086 462.482 429.779 462.921 429.565 463.49C429.352 464.059 429.245 464.729 429.245 465.5Z" fill="#F1D386"/>
<path d="M441.845 400.435C441.596 398.744 439.542 398.004 437.834 398.033C431.846 398.129 426.693 403.24 420.705 402.932C416.943 402.75 413.671 400.444 410.216 398.945C409.393 398.544 408.5 398.306 407.587 398.244C407.129 398.218 406.671 398.303 406.252 398.49C405.833 398.677 405.465 398.962 405.178 399.32C404.334 400.511 404.862 402.154 405.418 403.509C408.191 410.138 412.788 416.719 416.118 423.098L433.439 423.809C433.387 416.531 435.825 409.456 440.348 403.759C441.135 402.779 442.028 401.674 441.845 400.435Z" fill="#C1A96B"/>
<path d="M416.569 443.321C416.536 442.337 416.597 441.353 416.751 440.381C416.943 438.575 417.26 436.087 417.711 433.349C418.162 430.611 418.671 428.142 419.064 426.374C419.23 425.391 419.487 424.427 419.832 423.492C419.769 424.462 419.628 425.426 419.41 426.374C419.074 428.295 418.661 430.707 418.21 433.358C417.759 436.01 417.404 438.412 417.097 440.362C417.003 441.361 416.826 442.351 416.569 443.321Z" fill="#1F9ED3"/>
<path d="M428.881 434.06C428.374 432.475 428.026 430.843 427.845 429.189C427.497 427.562 427.311 425.905 427.288 424.241C427.79 425.826 428.128 427.458 428.296 429.112C428.656 430.737 428.852 432.395 428.881 434.06Z" fill="#1F9ED3"/>
<path d="M414.861 410.301C416.457 411.798 417.882 413.467 419.112 415.278C420.47 416.995 421.641 418.854 422.605 420.821C422.48 420.898 420.849 418.477 418.709 415.575C416.569 412.674 414.765 410.397 414.861 410.301Z" fill="#1F9ED3"/>
<path d="M420.215 405.536C420.499 406.265 420.708 407.022 420.839 407.794C421.222 409.379 421.664 411.223 422.163 413.27C422.662 415.316 423.18 417.112 423.593 418.717C423.844 419.46 424.021 420.226 424.121 421.003C423.749 420.312 423.459 419.58 423.257 418.823C422.796 417.449 422.22 415.537 421.673 413.395C421.127 411.252 420.714 409.292 420.493 407.861C420.308 407.1 420.215 406.319 420.215 405.536Z" fill="#1F9ED3"/>
<path opacity="0.3" d="M414.304 424.635L413.671 425.077C415.267 425.716 416.971 426.042 418.69 426.038C418.506 429.663 418.115 433.275 417.519 436.855C419.035 433.326 420.382 429.73 421.559 426.066C425.209 426.557 428.924 426.084 432.335 424.693C426.33 424.347 420.311 424.327 414.304 424.635Z" fill="#917F50"/>
<path d="M432.848 420.337L413.532 420.222C412.265 420.215 411.232 421.237 411.225 422.505L411.222 422.908C411.215 424.176 412.235 425.21 413.502 425.218L432.819 425.333C434.085 425.34 435.118 424.318 435.126 423.05L435.128 422.647C435.136 421.379 434.115 420.345 432.848 420.337Z" fill="#135F7F"/>
<path d="M405.034 118.089L404.269 86.8733C404.284 87.409 404.385 87.9389 404.567 88.4427C404.768 89.0055 405.058 89.5326 405.424 90.0043C408.236 93.6237 416.094 95.937 428.847 96.9102L429.612 128.126C416.859 127.153 409.001 124.84 406.189 121.22C405.819 120.751 405.53 120.223 405.332 119.659C405.143 119.157 405.042 118.626 405.034 118.089Z" fill="#0F7099"/>
<path d="M405.578 113.637C405.582 114.406 405.497 115.173 405.325 115.922C405.156 116.637 405.067 117.368 405.058 118.103L404.269 86.8731C404.276 86.1395 404.369 85.4092 404.544 84.6969C404.706 83.9458 404.791 83.1801 404.797 82.4117L405.578 113.637Z" fill="#135F7F"/>
<path d="M404.821 82.4257L405.578 113.637C405.567 113.026 405.446 112.422 405.222 111.853C405.003 111.314 404.711 110.808 404.354 110.349C401.425 106.598 393.446 104.46 380.076 103.855L379.311 72.639C392.681 73.2438 400.66 75.3823 403.584 79.1409C403.944 79.5978 404.237 80.1045 404.452 80.6452C404.68 81.2121 404.805 81.815 404.821 82.4257Z" fill="#197EA9"/>
<path d="M380.284 69.4917L378.8 69.5275L382.969 190.693L384.454 190.658L380.284 69.4917Z" fill="#263238"/>
<path fill-rule="evenodd" clip-rule="evenodd" d="M514.479 245.149H369.175L320.227 165.434H465.53L514.479 245.149Z" fill="#135F7F"/>
<path fill-rule="evenodd" clip-rule="evenodd" d="M465.694 165.333C465.659 165.276 465.597 165.241 465.53 165.241H320.227C320.157 165.241 320.093 165.279 320.059 165.34C320.025 165.401 320.027 165.475 320.063 165.534L369.011 245.25C369.046 245.306 369.109 245.341 369.175 245.341H514.479C514.548 245.341 514.612 245.304 514.646 245.243C514.68 245.182 514.679 245.107 514.642 245.048L465.694 165.333ZM465.423 165.626L514.135 244.956H369.283L320.571 165.626H465.423Z" fill="#0C3F54"/>
<path fill-rule="evenodd" clip-rule="evenodd" d="M270.991 245.149V383.976H369.078V245.149L320.034 165.434L270.991 245.149Z" fill="#197EA9"/>
<path fill-rule="evenodd" clip-rule="evenodd" d="M514.479 245.149H369.078V383.976H514.479V245.149Z" fill="#C7E7F4"/>
<path fill-rule="evenodd" clip-rule="evenodd" d="M441.009 270.95H421.391V320.243H441.009V270.95Z" fill="#FBFAF1"/>
<path fill-rule="evenodd" clip-rule="evenodd" d="M441.971 270.95C441.971 270.419 441.54 269.988 441.009 269.988H421.392C420.86 269.988 420.43 270.419 420.43 270.95V320.243C420.43 320.774 420.86 321.205 421.392 321.205H441.009C441.54 321.205 441.971 320.774 441.971 320.243V270.95ZM440.047 271.913V319.28H422.353V271.913H440.047Z" fill="#1F9ED3"/>
<path fill-rule="evenodd" clip-rule="evenodd" d="M411.006 270.95H391.773V320.243H411.006V270.95Z" fill="#FBFAF1"/>
<path fill-rule="evenodd" clip-rule="evenodd" d="M411.968 270.95C411.968 270.419 411.537 269.988 411.006 269.988H391.773C391.242 269.988 390.812 270.419 390.812 270.95V320.243C390.812 320.774 391.242 321.205 391.773 321.205H411.006C411.537 321.205 411.968 320.774 411.968 320.243V270.95ZM410.044 271.913V319.28H392.735V271.913H410.044Z" fill="#1F9ED3"/>
<path fill-rule="evenodd" clip-rule="evenodd" d="M496.399 270.95H459.088V347.97H496.399V270.95Z" fill="#F4DC9F"/>
<path fill-rule="evenodd" clip-rule="evenodd" d="M336.285 368.048H262.912V383.492V385.18H263.144C265.204 392.628 280.739 398.417 299.598 398.417C318.458 398.417 333.993 392.628 336.053 385.18H336.285V383.492V368.048Z" fill="#C1A96B"/>
<path opacity="0.5" fill-rule="evenodd" clip-rule="evenodd" d="M332.655 389.973V371.942H330.062V391.811C331.029 391.226 331.896 390.612 332.655 389.973ZM323.84 394.695V371.942H321.247V395.543C322.143 395.276 323.008 394.993 323.84 394.695ZM315.024 397.038V371.942H312.432V397.478C313.312 397.345 314.177 397.197 315.024 397.038ZM306.209 398.175V371.942H303.617V398.329C304.491 398.29 305.355 398.239 306.209 398.175ZM297.394 398.391V371.942H294.802V398.291C295.657 398.336 296.522 398.37 297.394 398.391ZM288.579 397.732V371.942H285.987V397.356C286.836 397.494 287.7 397.62 288.579 397.732ZM279.764 396.05V371.942H277.172V395.305C278.008 395.568 278.873 395.817 279.764 396.05ZM270.949 392.816V371.942H268.356V391.32C269.146 391.841 270.013 392.34 270.949 392.816Z" fill="#F1D386"/>
<path d="M336.285 369.216C336.285 377.459 319.86 384.141 299.598 384.141C279.337 384.141 262.912 377.459 262.912 369.216C262.912 360.973 279.337 354.291 299.598 354.291C319.86 354.291 336.285 360.973 336.285 369.216Z" fill="#F1D386"/>
<path d="M328.507 368.178C328.507 374.127 315.564 378.95 299.599 378.95C283.633 378.95 270.69 374.127 270.69 368.178C270.69 362.229 283.633 357.406 299.599 357.406C315.564 357.406 328.507 362.229 328.507 368.178Z" fill="#F7E5B6"/>
<path fill-rule="evenodd" clip-rule="evenodd" d="M339.575 344.997H266.202V362.129H266.434C268.494 369.577 284.029 375.366 302.888 375.366C321.748 375.366 337.283 369.577 339.343 362.129H339.575V360.467C339.575 360.458 339.575 360.45 339.575 360.441C339.575 360.433 339.575 360.425 339.575 360.416V344.997Z" fill="#C1A96B"/>
<path opacity="0.5" fill-rule="evenodd" clip-rule="evenodd" d="M335.946 366.922V348.891H333.353V368.76C334.319 368.176 335.187 367.562 335.946 366.922ZM327.131 371.644V348.891H324.538V372.492C325.434 372.225 326.299 371.942 327.131 371.644ZM318.316 373.987V348.891H315.723V374.428C316.604 374.294 317.468 374.147 318.316 373.987ZM309.5 375.125V348.891H306.908V375.278C307.781 375.239 308.646 375.188 309.5 375.125ZM300.685 375.34V348.891H298.093V375.24C298.948 375.286 299.813 375.319 300.685 375.34ZM291.87 374.682V348.891H289.278V374.306C290.127 374.444 290.991 374.569 291.87 374.682ZM283.055 373V348.891H280.463V372.254C281.299 372.517 282.164 372.766 283.055 373ZM274.24 369.765V348.891H271.647V368.27C272.437 368.79 273.304 369.29 274.24 369.765Z" fill="#F1D386"/>
<path d="M339.575 346.166C339.575 354.408 323.15 361.09 302.888 361.09C282.627 361.09 266.202 354.408 266.202 346.166C266.202 337.923 282.627 331.241 302.888 331.241C323.15 331.241 339.575 337.923 339.575 346.166Z" fill="#F1D386"/>
<path d="M331.797 345.127C331.797 351.077 318.854 355.899 302.889 355.899C286.923 355.899 273.98 351.077 273.98 345.127C273.98 339.178 286.923 334.355 302.889 334.355C318.854 334.355 331.797 339.178 331.797 345.127Z" fill="#F7E5B6"/>
<path fill-rule="evenodd" clip-rule="evenodd" d="M344.187 320.637H270.815V336.053C270.814 336.062 270.814 336.072 270.814 336.081C270.814 336.09 270.814 336.099 270.815 336.108V337.768H271.046C273.106 345.216 288.642 351.006 307.501 351.006C326.36 351.006 341.895 345.216 343.955 337.768H344.187V320.637Z" fill="#C1A96B"/>
<path opacity="0.5" fill-rule="evenodd" clip-rule="evenodd" d="M340.557 342.562V324.53H337.964V344.399C338.931 343.815 339.798 343.201 340.557 342.562ZM331.742 347.283V324.53H329.149V348.131C330.045 347.865 330.91 347.582 331.742 347.283ZM322.927 349.626V324.53H320.334V350.067C321.215 349.933 322.08 349.786 322.927 349.626ZM314.112 350.764V324.53H311.519V350.917C312.393 350.878 313.258 350.827 314.112 350.764ZM305.297 350.979V324.53H302.704V350.879C303.559 350.925 304.424 350.958 305.297 350.979ZM296.482 350.321V324.53H293.889V349.945C294.738 350.083 295.603 350.208 296.482 350.321ZM287.666 348.639V324.53H285.074V347.893C285.91 348.156 286.775 348.405 287.666 348.639ZM278.851 345.404V324.53H276.259V343.909C277.049 344.429 277.915 344.929 278.851 345.404Z" fill="#F1D386"/>
<path d="M344.187 321.805C344.187 330.047 327.762 336.73 307.501 336.73C287.239 336.73 270.814 330.047 270.814 321.805C270.814 313.562 287.239 306.88 307.501 306.88C327.762 306.88 344.187 313.562 344.187 321.805Z" fill="#F1D386"/>
<path d="M336.409 320.767C336.409 326.716 323.467 331.538 307.501 331.538C291.535 331.538 278.593 326.716 278.593 320.767C278.593 314.817 291.535 309.995 307.501 309.995C323.467 309.995 336.409 314.817 336.409 320.767Z" fill="#F7E5B6"/>
<path fill-rule="evenodd" clip-rule="evenodd" d="M345.132 296.645H271.76V312.077C271.76 312.081 271.76 312.085 271.76 312.089C271.76 312.093 271.76 312.097 271.76 312.101V313.776H271.992C274.052 321.225 289.587 327.014 308.446 327.014C327.305 327.014 342.841 321.225 344.901 313.776H345.132V296.645Z" fill="#C1A96B"/>
<path opacity="0.5" fill-rule="evenodd" clip-rule="evenodd" d="M341.502 318.57V300.539H338.91V320.408C339.876 319.823 340.744 319.209 341.502 318.57ZM332.687 323.292V300.539H330.095V324.14C330.991 323.873 331.856 323.59 332.687 323.292ZM323.872 325.634V300.539H321.28V326.075C322.16 325.941 323.025 325.794 323.872 325.634ZM315.057 326.772V300.539H312.464V326.925C313.338 326.887 314.203 326.836 315.057 326.772ZM306.242 326.988V300.539H303.649V326.888C304.505 326.933 305.369 326.966 306.242 326.988ZM297.427 326.329V300.539H294.834V325.953C295.683 326.091 296.548 326.217 297.427 326.329ZM288.612 324.647V300.539H286.019V323.901C286.856 324.165 287.721 324.413 288.612 324.647ZM279.797 321.413V300.539H277.204V319.917C277.994 320.437 278.86 320.937 279.797 321.413Z" fill="#F1D386"/>
<path d="M345.132 297.813C345.132 306.056 328.707 312.738 308.446 312.738C288.185 312.738 271.76 306.056 271.76 297.813C271.76 289.57 288.185 282.888 308.446 282.888C328.707 282.888 345.132 289.57 345.132 297.813Z" fill="#F1D386"/>
<path d="M337.355 296.775C337.355 302.724 324.412 307.547 308.446 307.547C292.481 307.547 279.538 302.724 279.538 296.775C279.538 290.826 292.481 286.003 308.446 286.003C324.412 286.003 337.355 290.826 337.355 296.775Z" fill="#F7E5B6"/>
<path fill-rule="evenodd" clip-rule="evenodd" d="M288.605 387.137H214.831V404.362H215.064C217.135 411.851 232.756 417.672 251.718 417.672C270.68 417.672 286.301 411.851 288.372 404.362H288.605V402.687C288.605 402.68 288.605 402.673 288.605 402.665C288.605 402.658 288.605 402.651 288.605 402.644V387.137Z" fill="#C1A96B"/>
<path opacity="0.5" fill-rule="evenodd" clip-rule="evenodd" d="M284.956 409.181V391.052H282.349V411.03C283.321 410.442 284.193 409.824 284.956 409.181ZM276.092 413.929V391.052H273.485V414.782C274.386 414.514 275.256 414.229 276.092 413.929ZM267.229 416.285V391.052H264.622V416.728C265.508 416.594 266.377 416.446 267.229 416.285ZM258.366 417.429V391.052H255.759V417.583C256.638 417.544 257.507 417.493 258.366 417.429ZM249.502 417.645V391.052H246.896V417.545C247.756 417.591 248.625 417.624 249.502 417.645ZM240.639 416.983V391.052H238.032V416.605C238.886 416.744 239.755 416.87 240.639 416.983ZM231.776 415.292V391.052H229.169V414.543C230.01 414.807 230.88 415.057 231.776 415.292ZM222.913 412.04V391.052H220.306V410.536C221.1 411.06 221.971 411.562 222.913 412.04Z" fill="#F1D386"/>
<path d="M288.605 388.311C288.605 396.599 272.09 403.318 251.718 403.318C231.346 403.318 214.831 396.599 214.831 388.311C214.831 380.024 231.346 373.305 251.718 373.305C272.09 373.305 288.605 380.024 288.605 388.311Z" fill="#F1D386"/>
<path d="M280.784 387.267C280.784 393.249 267.771 398.098 251.718 398.098C235.665 398.098 222.651 393.249 222.651 387.267C222.651 381.286 235.665 376.437 251.718 376.437C267.771 376.437 280.784 381.286 280.784 387.267Z" fill="#F7E5B6"/>
<path fill-rule="evenodd" clip-rule="evenodd" d="M291.912 363.96H218.138V379.455C218.138 379.466 218.138 379.477 218.138 379.489C218.138 379.5 218.138 379.511 218.138 379.522V381.185H218.371C220.442 388.674 236.062 394.495 255.025 394.495C273.987 394.495 289.607 388.674 291.679 381.185H291.912V363.96Z" fill="#C1A96B"/>
<path opacity="0.5" fill-rule="evenodd" clip-rule="evenodd" d="M288.263 386.005V367.875H285.656V387.853C286.627 387.265 287.5 386.647 288.263 386.005ZM279.399 390.752V367.875H276.792V391.605C277.693 391.337 278.563 391.052 279.399 390.752ZM270.536 393.108V367.875H267.929V393.551C268.815 393.417 269.684 393.269 270.536 393.108ZM261.672 394.252V367.875H259.066V394.406C259.944 394.367 260.813 394.316 261.672 394.252ZM252.809 394.469V367.875H250.203V394.368C251.063 394.414 251.932 394.447 252.809 394.469ZM243.946 393.807V367.875H241.339V393.428C242.193 393.567 243.062 393.693 243.946 393.807ZM235.083 392.115V367.875H232.476V391.366C233.317 391.63 234.186 391.88 235.083 392.115ZM226.219 388.863V367.875H223.612V387.359C224.407 387.883 225.278 388.385 226.219 388.863Z" fill="#F1D386"/>
<path d="M291.912 365.134C291.912 373.422 275.397 380.141 255.025 380.141C234.653 380.141 218.138 373.422 218.138 365.134C218.138 356.846 234.653 350.128 255.025 350.128C275.397 350.128 291.912 356.846 291.912 365.134Z" fill="#F1D386"/>
<path d="M284.092 364.091C284.092 370.072 271.078 374.921 255.025 374.921C238.972 374.921 225.959 370.072 225.959 364.091C225.959 358.109 238.972 353.26 255.025 353.26C271.078 353.26 284.092 358.109 284.092 364.091Z" fill="#F7E5B6"/>
<path fill-rule="evenodd" clip-rule="evenodd" d="M290.619 339.466H216.845V356.691H217.078C219.149 364.18 234.769 370.001 253.732 370.001C272.694 370.001 288.315 364.18 290.386 356.691H290.619V355.025C290.619 355.015 290.619 355.005 290.619 354.995C290.619 354.985 290.619 354.975 290.619 354.965V339.466Z" fill="#C1A96B"/>
<path opacity="0.5" fill-rule="evenodd" clip-rule="evenodd" d="M286.969 361.511V343.381H284.363V363.359C285.334 362.771 286.207 362.154 286.969 361.511ZM278.106 366.259V343.381H275.499V367.111C276.4 366.843 277.27 366.558 278.106 366.259ZM269.243 368.614V343.381H266.636V369.057C267.521 368.923 268.391 368.775 269.243 368.614ZM260.379 369.758V343.381H257.773V369.912C258.651 369.873 259.521 369.822 260.379 369.758ZM251.516 369.975V343.381H248.909V369.874C249.769 369.92 250.639 369.953 251.516 369.975ZM242.653 369.313V343.381H240.046V368.934C240.9 369.073 241.769 369.199 242.653 369.313ZM233.79 367.621V343.381H231.183V366.872C232.024 367.136 232.893 367.386 233.79 367.621ZM224.926 364.369V343.381H222.319V362.865C223.114 363.389 223.985 363.891 224.926 364.369Z" fill="#F1D386"/>
<path d="M290.619 340.64C290.619 348.928 274.104 355.647 253.732 355.647C233.36 355.647 216.845 348.928 216.845 340.64C216.845 332.353 233.36 325.634 253.732 325.634C274.104 325.634 290.619 332.353 290.619 340.64Z" fill="#F1D386"/>
<path d="M282.798 339.597C282.798 345.578 269.784 350.427 253.731 350.427C237.679 350.427 224.665 345.578 224.665 339.597C224.665 333.615 237.679 328.766 253.731 328.766C269.784 328.766 282.798 333.615 282.798 339.597Z" fill="#F7E5B6"/>
<path fill-rule="evenodd" clip-rule="evenodd" d="M251.016 422.977H165.21V441.015C165.21 441.022 165.21 441.03 165.21 441.038C165.21 441.046 165.21 441.054 165.21 441.062V443.011H165.481C167.89 451.722 186.058 458.492 208.113 458.492C230.168 458.492 248.335 451.722 250.744 443.011H251.016V422.977Z" fill="#C1A96B"/>
<path opacity="0.5" fill-rule="evenodd" clip-rule="evenodd" d="M246.771 448.617V427.53H243.739V450.766C244.869 450.083 245.884 449.365 246.771 448.617ZM236.462 454.139V427.53H233.43V455.131C234.478 454.819 235.49 454.488 236.462 454.139ZM226.153 456.879V427.53H223.121V457.394C224.151 457.238 225.162 457.066 226.153 456.879ZM215.844 458.209V427.53H212.812V458.389C213.834 458.343 214.845 458.283 215.844 458.209ZM205.535 458.461V427.53H202.503V458.344C203.504 458.397 204.515 458.437 205.535 458.461ZM195.227 457.691V427.53H192.195V457.251C193.188 457.413 194.199 457.56 195.227 457.691ZM184.918 455.724V427.53H181.886V454.852C182.864 455.16 183.875 455.451 184.918 455.724ZM174.609 451.941V427.53H171.577V450.192C172.501 450.801 173.514 451.385 174.609 451.941Z" fill="#F1D386"/>
<path d="M251.016 424.343C251.016 433.983 231.807 441.797 208.113 441.797C184.418 441.797 165.21 433.983 165.21 424.343C165.21 414.704 184.418 406.889 208.113 406.889C231.807 406.889 251.016 414.704 251.016 424.343Z" fill="#F1D386"/>
<path d="M241.919 423.129C241.919 430.086 226.783 435.726 208.112 435.726C189.441 435.726 174.306 430.086 174.306 423.129C174.306 416.172 189.441 410.532 208.112 410.532C226.783 410.532 241.919 416.172 241.919 423.129Z" fill="#F7E5B6"/>
<path fill-rule="evenodd" clip-rule="evenodd" d="M254.862 396.021H169.057V414.054C169.057 414.063 169.057 414.072 169.057 414.082C169.057 414.091 169.057 414.1 169.057 414.109V416.055H169.328C171.737 424.765 189.905 431.535 211.959 431.535C234.014 431.535 252.182 424.765 254.591 416.055H254.862V396.021Z" fill="#C1A96B"/>
<path opacity="0.5" fill-rule="evenodd" clip-rule="evenodd" d="M250.618 421.661V400.574H247.586V423.81C248.716 423.126 249.73 422.408 250.618 421.661ZM240.309 427.182V400.574H237.277V428.174C238.325 427.862 239.336 427.531 240.309 427.182ZM230 429.922V400.574H226.968V430.438C227.998 430.281 229.009 430.109 230 429.922ZM219.691 431.253V400.574H216.659V431.432C217.681 431.387 218.692 431.327 219.691 431.253ZM209.382 431.504V400.574H206.35V431.388C207.35 431.441 208.361 431.48 209.382 431.504ZM199.074 430.734V400.574H196.042V430.295C197.035 430.456 198.046 430.603 199.074 430.734ZM188.765 428.767V400.574H185.733V427.895C186.711 428.203 187.722 428.494 188.765 428.767ZM178.456 424.985V400.574H175.424V423.235C176.348 423.844 177.361 424.428 178.456 424.985Z" fill="#F1D386"/>
<path d="M254.862 397.386C254.862 407.026 235.654 414.84 211.959 414.84C188.265 414.84 169.057 407.026 169.057 397.386C169.057 387.747 188.265 379.932 211.959 379.932C235.654 379.932 254.862 387.747 254.862 397.386Z" fill="#F1D386"/>
<path d="M245.766 396.172C245.766 403.13 230.63 408.769 211.959 408.769C193.288 408.769 178.152 403.13 178.152 396.172C178.152 389.215 193.288 383.575 211.959 383.575C230.63 383.575 245.766 389.215 245.766 396.172Z" fill="#F7E5B6"/>
<path d="M138.669 250.925C132.207 245.072 141.362 225.766 146.747 216.844H164.056L167.134 238.024L158.286 253.043C150.132 253.659 141.81 251.888 138.669 250.925Z" fill="#FBFAF1"/>
<path fill-rule="evenodd" clip-rule="evenodd" d="M146.56 216.513H164.343L167.478 238.092L158.484 253.361L158.312 253.374C150.104 253.994 141.74 252.213 138.572 251.242L138.502 251.221C138.502 251.221 140.164 252.727 138.447 251.171C136.729 249.615 136.082 247.196 136.117 244.381C136.151 241.561 136.868 238.285 137.95 234.933C140.114 228.228 143.763 221.147 146.463 216.673L146.56 216.513ZM146.934 217.176C144.26 221.63 140.699 228.575 138.58 235.137C137.508 238.459 136.812 241.664 136.779 244.389C136.747 246.983 137.316 249.088 138.671 250.468C138.778 250.577 138.911 250.652 139.057 250.695C142.348 251.658 150.283 253.283 158.089 252.725L166.789 237.957L163.77 217.176H146.934Z" fill="#99D2EB"/>
<path d="M259.451 173.328C262.836 176.871 259.579 196.113 257.528 205.291L249.45 203.943C246.527 199.63 246.18 194.573 246.373 192.583L245.411 186.036L246.373 175.254C249.322 173.136 256.066 169.785 259.451 173.328Z" fill="#FBFAF1"/>
<path d="M245.629 239.04C250.43 239.332 255.64 216.387 257.646 204.878L249.523 203.321L237.479 229.439C238.195 232.517 240.829 238.747 245.629 239.04Z" fill="#FBFAF1"/>
<path d="M182.644 178.711L185.33 164.342L205.314 163.05L202.951 181.901C194.401 185.32 185.411 181.708 182.644 178.711Z" fill="#FBFAF1"/>
<path d="M217.741 141.213C217.957 136.412 215.661 130.646 214.567 128.386L196.753 131.728L191.823 137.031L183.865 148.278L189.79 166.443L204.127 165.657C208.393 166.208 209.448 166.613 214.119 166.108C218.698 165.612 220.709 155.423 219.789 151.329C226.357 148.403 220.127 143.827 217.741 141.213Z" fill="#FBFAF1"/>
<path fill-rule="evenodd" clip-rule="evenodd" d="M193.244 147.379C193.818 147.67 194.342 148.064 194.749 148.447C194.867 148.558 194.873 148.743 194.762 148.86C194.652 148.978 194.467 148.984 194.35 148.873C193.975 148.521 193.496 148.162 192.98 147.9C192.462 147.638 191.928 147.485 191.434 147.516C190.953 147.547 190.49 147.753 190.092 148.256C189.687 148.769 189.342 149.603 189.147 150.897C189.123 151.057 188.974 151.167 188.814 151.142C188.655 151.118 188.545 150.969 188.569 150.81C188.773 149.462 189.142 148.517 189.634 147.894C190.134 147.261 190.751 146.973 191.397 146.932C192.031 146.892 192.672 147.089 193.244 147.379Z" fill="#197EA9"/>
<path fill-rule="evenodd" clip-rule="evenodd" d="M190.431 147.483C190.591 147.503 190.705 147.648 190.685 147.809C190.596 148.538 190.62 149.583 190.953 150.376C191.117 150.768 191.349 151.08 191.661 151.272C191.968 151.461 192.385 151.554 192.963 151.453C193.122 151.425 193.273 151.531 193.301 151.69C193.329 151.849 193.222 152.001 193.064 152.029C192.372 152.15 191.805 152.047 191.355 151.77C190.909 151.495 190.61 151.07 190.414 150.603C190.026 149.678 190.01 148.517 190.105 147.738C190.125 147.577 190.271 147.463 190.431 147.483Z" fill="#197EA9"/>
<path d="M142.9 219.346C147.081 202.594 161.579 182.03 169.634 178.141L177.222 175.04L177.222 197.22C167.603 214.392 168.864 220.887 166.148 224.349L162.907 224.349C156.45 224.349 150.08 222.87 144.282 220.025L142.9 219.346Z" fill="#135F7F"/>
<path d="M167.032 183.245C173.646 175.42 179.454 173.84 182.089 173.896C203.918 173.87 214.632 179.891 216.952 183.245C232.463 203.435 218.696 247.905 211.352 273.076L204.132 269.061C186.989 259.529 167.26 259.951 150.592 270.293L153.863 255.931L160.21 229.36C161.834 215.418 158.763 193.027 167.032 183.245Z" fill="#197EA9"/>
<path fill-rule="evenodd" clip-rule="evenodd" d="M223.692 217.756C222.243 235.875 216.384 255.887 212.115 270.469C211.854 271.359 211.599 272.228 211.352 273.076L204.133 269.061C199.215 266.327 193.984 264.418 188.63 263.33C205.303 250.573 218.54 225.928 218.389 209.653L223.692 217.756Z" fill="#166E94"/>
<path d="M210.424 116.978C199.836 111.859 190.684 117.362 187.272 121.63C168.277 131.605 180.237 151.246 188.591 159.819L193.209 155.33C185.271 153.867 186.062 148.552 189.228 145.656C192.394 142.759 196.012 147.086 199.53 148.626C202.345 149.858 199.74 141.912 198.086 137.785C201.631 137.502 202.591 134.405 202.394 132.646C207.814 134.88 208.781 132.27 210.049 130.669C214.858 134.201 223.66 123.377 210.424 116.978Z" fill="#0C3F54"/>
<path d="M214.834 142.882C214.793 143.643 214.259 144.243 213.643 144.223C213.026 144.202 212.56 143.569 212.602 142.808C212.643 142.047 213.177 141.447 213.793 141.468C214.41 141.488 214.876 142.121 214.834 142.882Z" fill="#197EA9"/>
<path d="M177.39 126.209C182.005 121.775 187.723 121.833 189.989 122.58L181.923 142.387L185.221 154.97L193.484 155.342C194.663 159.816 193.718 165.669 191.606 165.808C188.379 166.021 187.292 166.33 185.167 165.876C184.998 163.946 182.718 160.517 180.176 157.409C176.971 153.489 173.273 149.759 171.66 144.958C169.077 137.271 171.491 131.876 177.39 126.209Z" fill="#0C3F54"/>
<path d="M219.16 154.269C218.019 155.223 214.957 155.732 213.99 155.104C213.949 156.303 214.515 158.602 216.978 158.949C217.41 159.01 217.805 158.78 218.059 158.408C218.597 157.622 218.931 156.671 219.028 155.651L219.16 154.269Z" fill="#99D2EB"/>
<path d="M467.784 114.895C467.926 114.614 468.328 114.614 468.471 114.895L471.107 120.113C471.144 120.186 471.203 120.246 471.276 120.283L476.488 122.922C476.77 123.064 476.77 123.467 476.488 123.609L471.276 126.248C471.203 126.285 471.144 126.345 471.107 126.418L468.471 131.636C468.328 131.918 467.926 131.918 467.784 131.636L465.148 126.418C465.111 126.345 465.052 126.285 464.979 126.248L459.767 123.609C459.485 123.467 459.485 123.064 459.767 122.922L464.979 120.283C465.052 120.246 465.111 120.186 465.148 120.113L467.784 114.895Z" fill="#99D2EB"/>
<path d="M532.791 194.225C532.933 193.943 533.335 193.943 533.477 194.225L535.467 198.164C535.504 198.238 535.563 198.297 535.637 198.334L539.571 200.326C539.853 200.469 539.853 200.871 539.571 201.014L535.637 203.006C535.563 203.043 535.504 203.102 535.467 203.176L533.477 207.115C533.335 207.397 532.933 207.397 532.791 207.115L530.801 203.176C530.764 203.102 530.704 203.043 530.631 203.006L526.696 201.014C526.415 200.871 526.415 200.469 526.696 200.326L530.631 198.334C530.704 198.297 530.764 198.238 530.801 198.164L532.791 194.225Z" fill="#197EA9"/>
<path d="M307.96 106.808C308.102 106.526 308.504 106.526 308.646 106.808L311.734 112.921C311.771 112.995 311.831 113.054 311.904 113.091L318.01 116.183C318.291 116.325 318.291 116.728 318.01 116.87L311.904 119.962C311.831 119.999 311.771 120.058 311.734 120.131L308.646 126.244C308.504 126.526 308.102 126.526 307.96 126.244L304.872 120.131C304.834 120.058 304.775 119.999 304.702 119.962L298.596 116.87C298.314 116.728 298.314 116.325 298.596 116.183L304.702 113.091C304.775 113.054 304.834 112.995 304.872 112.921L307.96 106.808Z" fill="#EAF6FB"/>
<path d="M241.949 240.142C234.102 239.218 226.691 227.948 223.678 223.198L237.718 211.838C241.564 218.128 249.411 233.211 248.488 236.291C247.565 239.372 243.039 240.142 241.949 240.142Z" fill="#FBFAF1"/>
<path d="M203.676 196.819C201.813 191.637 204.69 186.834 207.847 183.58C210.337 181.014 214.173 180.276 217.403 181.806C230.978 188.236 238.448 207.554 240.218 216.074C237.526 225.894 231.179 226.664 225.601 227.627C219.639 220.117 206.445 204.521 203.676 196.819Z" fill="#197EA9"/>
<path fill-rule="evenodd" clip-rule="evenodd" d="M204.385 187.932C206.207 183.955 209.64 181.359 212.222 180.424L212.479 181.137C210.074 182.008 206.804 184.469 205.073 188.248C203.356 191.996 203.134 197.084 206.87 203.278L225.897 227.198L225.305 227.67L206.248 203.712L206.235 203.691C202.37 197.295 202.552 191.935 204.385 187.932Z" fill="#135F7F"/>
<path d="M258.552 166.808C258.476 167.039 258.319 167.234 258.109 167.357C257.899 167.48 257.651 167.522 257.412 167.474L251.224 166.129C251.112 166.106 251.006 166.06 250.913 165.994C250.819 165.927 250.741 165.842 250.684 165.743C250.626 165.644 250.591 165.533 250.579 165.42C250.567 165.306 250.58 165.191 250.616 165.082L250.901 164.163L258.833 165.887L258.552 166.808Z" fill="#1F9ED3"/>
<path d="M249.387 163.253L260.649 165.702C260.984 165.769 261.3 165.907 261.578 166.105C261.855 166.304 262.087 166.56 262.259 166.855C262.43 167.15 262.537 167.478 262.572 167.818C262.606 168.157 262.569 168.501 262.461 168.824L254.231 195.377C254.006 196.067 253.537 196.651 252.911 197.018C252.285 197.385 251.547 197.51 250.835 197.37L239.567 194.919C239.233 194.852 238.916 194.715 238.639 194.516C238.361 194.317 238.129 194.062 237.958 193.767C237.787 193.471 237.68 193.143 237.645 192.803C237.61 192.464 237.648 192.121 237.755 191.797L245.995 165.243C246.22 164.554 246.69 163.972 247.315 163.606C247.939 163.239 248.676 163.114 249.387 163.253Z" fill="#0C3F54"/>
<g opacity="0.4">
<path opacity="0.4" d="M258.552 166.808C258.476 167.039 258.319 167.235 258.109 167.357C257.899 167.48 257.651 167.522 257.413 167.474L251.224 166.128C251.112 166.106 251.006 166.06 250.913 165.994C250.819 165.927 250.741 165.841 250.684 165.742C250.626 165.643 250.591 165.533 250.579 165.419C250.567 165.305 250.58 165.19 250.616 165.082L250.901 164.163L258.833 165.888L258.552 166.808Z" fill="white"/>
</g>
<path d="M248.524 163.648L259.786 166.097C260.051 166.15 260.302 166.258 260.521 166.416C260.741 166.573 260.925 166.775 261.06 167.009C261.196 167.243 261.28 167.503 261.308 167.771C261.335 168.04 261.305 168.312 261.219 168.568L252.99 195.12C252.813 195.666 252.441 196.127 251.946 196.418C251.451 196.708 250.866 196.806 250.303 196.694L239.042 194.245C238.776 194.193 238.525 194.085 238.304 193.928C238.084 193.771 237.9 193.568 237.764 193.334C237.628 193.1 237.543 192.84 237.515 192.571C237.488 192.302 237.518 192.03 237.604 191.773L245.836 165.222C246.014 164.676 246.386 164.214 246.881 163.924C247.377 163.634 247.961 163.536 248.524 163.648Z" fill="#99D2EB"/>
<path d="M248.687 163.121L259.949 165.57C260.283 165.637 260.6 165.775 260.877 165.974C261.155 166.172 261.387 166.428 261.558 166.723C261.73 167.018 261.836 167.346 261.871 167.686C261.906 168.025 261.869 168.369 261.761 168.692L253.534 195.238C253.308 195.927 252.838 196.51 252.213 196.877C251.587 197.243 250.849 197.368 250.137 197.227L238.876 194.777C238.541 194.711 238.224 194.573 237.947 194.375C237.669 194.176 237.437 193.921 237.266 193.625C237.095 193.33 236.988 193.002 236.953 192.662C236.919 192.323 236.957 191.98 237.065 191.656L245.293 165.104C245.52 164.416 245.99 163.835 246.615 163.47C247.24 163.104 247.977 162.98 248.687 163.121ZM237.604 191.773C237.518 192.029 237.488 192.301 237.515 192.57C237.542 192.839 237.627 193.099 237.762 193.333C237.898 193.567 238.082 193.769 238.302 193.926C238.522 194.083 238.773 194.192 239.038 194.244L250.299 196.694C250.862 196.806 251.447 196.707 251.942 196.417C252.437 196.127 252.809 195.665 252.986 195.119L261.218 168.568C261.304 168.312 261.334 168.04 261.307 167.772C261.28 167.503 261.196 167.243 261.06 167.009C260.924 166.775 260.741 166.573 260.521 166.416C260.301 166.258 260.051 166.15 259.786 166.097L248.524 163.648C247.961 163.536 247.376 163.634 246.881 163.924C246.386 164.214 246.014 164.676 245.836 165.222L237.604 191.773Z" fill="#135F7F"/>
<path d="M258.137 165.75C258.015 166.125 257.759 166.442 257.419 166.641C257.079 166.84 256.678 166.908 256.292 166.831L251.186 165.721C251.004 165.685 250.832 165.61 250.681 165.502C250.531 165.394 250.405 165.256 250.312 165.095C250.218 164.935 250.161 164.756 250.142 164.572C250.123 164.387 250.143 164.201 250.202 164.025L258.137 165.75Z" fill="#135F7F"/>
<path d="M255.559 186.191C257.714 189.119 257.869 193.06 257.677 194.664L257.678 197.745L253.064 197.744L253.062 192.16C253.061 189.656 250.369 188.5 249.984 186.189C249.599 183.879 252.867 182.532 255.559 186.191Z" fill="#FBFAF1"/>
<path d="M157.71 335.647C146.939 288.973 148.734 272.041 150.978 269.41C170.057 256.933 197.393 262.157 208.677 267.677L235.51 288.828C239.484 291.961 241.051 297.262 239.421 302.056L215.316 374.926C207.676 382.694 199.124 377.622 196.945 374.926C190.021 344.889 201.112 313.632 207.523 301.758L180.062 293.501L184.443 337.572L160.544 408.395C157.774 396.38 147.965 389.047 142.516 390.715C141.9 369.458 153.479 345.659 157.71 335.647Z" fill="#917F50"/>
<path opacity="0.4" fill-rule="evenodd" clip-rule="evenodd" d="M194.789 357.678C194.106 333.932 202.131 311.923 207.323 302.13C207.516 302.004 207.71 301.88 207.907 301.758L224.255 306.379C218.357 320.371 204.253 350.396 195.021 358.56C194.943 358.273 194.866 357.979 194.789 357.678Z" fill="#605436"/>
<path opacity="0.6" fill-rule="evenodd" clip-rule="evenodd" d="M171.717 278.877C171.014 272.633 171.591 266.043 172.171 261.781L173.696 261.989C173.122 266.199 172.564 272.645 173.246 278.705C173.934 284.814 175.853 290.273 179.994 292.847L179.183 294.156C174.4 291.184 172.414 285.072 171.717 278.877Z" fill="#605436"/>
<path fill-rule="evenodd" clip-rule="evenodd" d="M205.157 446.439H107.185V469.313H107.494C110.245 479.259 130.989 486.989 156.171 486.989C181.353 486.989 202.097 479.259 204.847 469.313H205.157V467.08C205.157 467.073 205.157 467.067 205.157 467.061C205.157 467.054 205.157 467.048 205.157 467.042V446.439Z" fill="#C1A96B"/>
<path opacity="0.5" fill-rule="evenodd" clip-rule="evenodd" d="M200.309 475.714V451.637H196.848V478.168C198.138 477.388 199.296 476.568 200.309 475.714ZM188.539 482.019V451.637H185.077V483.151C186.274 482.795 187.429 482.417 188.539 482.019ZM176.769 485.147V451.637H173.307V485.736C174.483 485.557 175.637 485.361 176.769 485.147ZM164.998 486.667V451.637H161.536V486.871C162.703 486.819 163.857 486.751 164.998 486.667ZM153.228 486.954V451.637H149.766V486.821C150.908 486.881 152.062 486.926 153.228 486.954ZM141.457 486.075V451.637H137.995V485.573C139.129 485.757 140.284 485.925 141.457 486.075ZM129.687 483.829V451.637H126.225V482.833C127.341 483.185 128.496 483.517 129.687 483.829ZM117.916 479.51V451.637H114.454V477.513C115.509 478.208 116.666 478.875 117.916 479.51Z" fill="#F1D386"/>
<path d="M205.157 447.998C205.157 459.005 183.225 467.927 156.171 467.927C129.116 467.927 107.185 459.005 107.185 447.998C107.185 436.992 129.116 428.07 156.171 428.07C183.225 428.07 205.157 436.992 205.157 447.998Z" fill="#F1D386"/>
<path d="M194.771 446.612C194.771 454.556 177.489 460.995 156.171 460.995C134.852 460.995 117.57 454.556 117.57 446.612C117.57 438.668 134.852 432.229 156.171 432.229C177.489 432.229 194.771 438.668 194.771 446.612Z" fill="#F7E5B6"/>
<path d="M241.467 382.501C242.206 382.424 242.394 385.209 242.247 386.18C242.099 387.151 239.455 390.628 234.257 392.316C229.059 394.004 220.813 393.728 217.653 393.872C214.494 394.017 211.644 395.937 207.237 397.043C203.372 397.989 197.969 397.518 195.93 395.883C195.552 395.494 195.26 395.029 195.074 394.518C194.888 394.008 194.813 393.463 194.852 392.922C194.637 390.867 194.811 390.35 195.06 390.345L241.467 382.501Z" fill="#135F7F"/>
<path d="M194.251 384.169C194.131 386.245 194.569 389.683 195.117 391.689C195.65 392.371 196.315 392.939 197.072 393.359C197.829 393.78 198.663 394.043 199.523 394.135C203.13 394.764 206.84 394.375 210.238 393.01C212.851 392.057 215.581 391.463 218.353 391.244C222.047 391.24 225.736 390.977 229.393 390.458C232.135 389.995 234.787 389.099 237.25 387.805C238.306 387.357 239.248 386.675 240.006 385.811C240.763 384.948 241.316 383.924 241.624 382.817C241.607 381.302 241.132 379.827 240.262 378.587C239.391 377.347 238.165 376.4 236.746 375.871C234.036 375.037 229.381 376.726 226.563 377.044C224.05 377.3 217.011 376.589 215.6 373.964C209.728 381.098 200.791 377.814 196.559 373.964C196.769 376.653 194.756 381.519 194.251 384.169Z" fill="#197EA9"/>
<path d="M143.238 390.33C141.06 392.455 138.514 394.166 135.725 395.381C133.806 396.452 131.832 397.495 131.146 399.663C131.146 399.91 132.134 401.365 132.079 401.612C131.955 402.688 131.955 403.775 132.079 404.851C132.243 408.64 134.053 411.522 134.245 415.31C134.284 416.804 134.449 418.291 134.738 419.757C134.91 421.583 134.91 423.421 134.738 425.247C134.738 427.114 134.738 428.98 134.738 430.737C134.834 431.53 134.834 432.332 134.738 433.125C134.519 433.894 146.282 441.113 151.053 443.913L151.903 444.353C154.839 445.402 158.064 445.294 160.923 444.051C170.931 441.031 170.548 437.298 170.548 437.298C170.6 435.788 170.236 434.292 169.496 432.975C168.756 431.658 167.669 430.571 166.352 429.831C165.78 429.441 165.174 429.101 164.543 428.816C162.171 427.716 159.515 427.389 156.948 427.882C156.557 426.341 156.436 424.743 156.591 423.161C156.536 420.759 156.646 418.356 156.92 415.969C157.516 413.305 158.686 410.804 160.348 408.64C160.348 403.486 156.591 390.33 143.238 390.33Z" fill="#197EA9"/>
<path d="M129.83 401.749C127.582 402.573 129.474 408.887 130.762 414.843C132.051 420.8 132.709 422.886 131.887 427.8C131.064 432.713 130.598 434.909 132.545 436.776C138.237 440.308 144.103 443.551 150.12 446.494C148.106 440.503 147.06 434.23 147.022 427.91C146.885 416.929 146.309 409.902 141.538 404.824C140.028 403.327 138.151 402.254 136.096 401.714C134.041 401.175 131.879 401.187 129.83 401.749Z" fill="#135F7F"/>
<path d="M170.465 437.325C170.081 439.411 163.994 443.337 157.139 442.815C150.285 442.294 149.764 440.701 149.243 432.219C148.722 423.737 148.694 412.071 145.514 406.828C142.333 401.585 137.946 398.318 131.146 399.691C130.351 400.02 128.13 402.051 128.788 404.11C128.788 404.11 128.788 402.518 131.667 401.887C134.546 401.255 136.877 401.585 140.578 405.4C144.911 409.847 145.349 419.592 145.349 427.965C145.349 436.337 145.486 446.027 152.039 447.18C155.236 447.609 158.486 447.383 161.593 446.514C164.699 445.646 167.597 444.154 170.109 442.129C170.599 440.577 170.721 438.932 170.465 437.325Z" fill="#135F7F"/>
<path d="M436.203 507.259C432.157 501.938 448.393 489.229 457.155 480.956L464.868 478.568C473.684 477.826 472.263 486.19 470.628 491.995C441.209 516.306 439.241 511.255 436.203 507.259Z" fill="#197EA9"/>
<path d="M526.232 489.289C529.002 487.594 532.258 481.138 533.541 478.121L534.887 460.021C536.169 458.417 539.541 455.054 542.772 454.438C546.811 453.667 551.572 459.964 550.85 463.487C549.311 470.997 550.081 470.997 550.85 475.618C553.776 493.194 544.696 498.339 544.696 499.109C522.962 507.774 522.77 491.407 526.232 489.289Z" fill="#197EA9"/>
<path d="M456.596 481.196L449.554 461.693L466.878 454.245L469.134 481.107C468.32 486.122 463.628 490.652 462.29 491.538C453.843 497.128 450.316 496.815 448.807 494.844C447.92 493.688 448.419 492.078 449.295 490.912L456.596 481.196Z" fill="#FBFAF1"/>
<path d="M532.003 462.525L520.848 445.773L534.503 435.953L543.35 456.171C545.594 463.295 549.197 479.007 545.658 484.86C541.234 492.177 528.925 491.022 532.003 484.86C534.465 479.931 533.028 467.916 532.003 462.525Z" fill="#FBFAF1"/>
<path d="M433.338 407.456C428.414 387.123 427.953 343.915 428.337 324.853L486.613 320.231C500.479 335.141 503.406 382.536 509.308 402.257C525.656 411.499 533.99 429.278 536.041 436.531C535.887 449.624 525.207 448.854 519.309 448.084L490.267 409.959L460.264 358.934L456.61 413.425C466.303 428.059 468.855 449.56 468.919 458.481C460.764 469.11 450.904 466.632 446.993 464.065L433.338 407.456Z" fill="#0C3F54"/>
<path d="M427.299 225.319L444.493 219.144C445.134 217.989 449.108 216.64 458.34 218.181C466.006 219.46 479.021 227.466 487.584 233.6C490.36 235.589 491.309 239.224 490.127 242.43C486.164 253.183 480.906 269.657 481.035 276.523C481.189 284.687 486.484 310.733 489.113 322.735C460.494 344.916 434.876 334.673 425.644 326.778C428.568 322.465 425.708 288.91 423.913 272.672L407.95 271.324L417.132 236.424C418.488 231.272 422.29 227.119 427.299 225.319Z" fill="#197EA9"/>
<path opacity="0.5" fill-rule="evenodd" clip-rule="evenodd" d="M483.331 263.915C481.923 269.029 480.981 273.606 481.036 276.523C481.19 284.687 486.485 310.732 489.114 322.734C472.153 335.881 456.245 337.638 444.179 335.244C453.919 320.436 469.473 294.748 469.72 285.879C469.991 276.178 473.785 253.392 475.647 243.212C478.157 245.41 480.797 253.303 483.331 263.915Z" fill="#135F7F"/>
<path d="M437.954 222.417L442.57 219.336L459.88 218.181L468.342 222.032C465.778 225.433 458.879 232.814 451.032 233.585C443.185 234.355 439.044 226.46 437.954 222.417Z" fill="#FBFAF1"/>
<path d="M448.724 161.379C439.339 158.76 432.184 167.22 430.453 171.006L458.148 207.206C459.238 208.168 464.341 208.882 469.88 199.696C476.035 189.491 476.15 177.437 471.227 169.273C466.303 161.109 454.174 159.903 448.724 161.379Z" fill="#917F50"/>
<path d="M499.686 207.13C489.132 199.294 490.685 190.314 490.163 183.611C489.365 173.362 479.866 157.357 466.313 167.57C465.526 175.05 470.535 177.841 473.138 178.301C479.515 185.026 473.738 194.478 477.377 208.946C481.016 223.415 484.87 223.66 487.958 223.09C490.429 222.633 490.7 220.755 490.526 219.873C491.21 220.623 493.141 221.925 495.394 221.132C497.647 220.339 497.237 218.146 496.751 217.149C500.286 220.585 510.24 214.966 499.686 207.13Z" fill="#917F50"/>
<path fill-rule="evenodd" clip-rule="evenodd" d="M472.525 172.018C471.668 169.676 470.399 167.766 468.75 166.636L469.618 165.365C471.623 166.737 473.047 168.967 473.969 171.488C474.894 174.016 475.338 176.899 475.338 179.671L473.8 179.671C473.8 177.052 473.378 174.351 472.525 172.018Z" fill="#1F9ED3"/>
<path d="M441.458 206.923L460.529 205.485L461.378 219.851L458.278 222.717C453.248 227.368 445.275 226.511 441.347 220.896Lnan nanL441.347 220.896L441.458 206.923Z" fill="#FBFAF1"/>
<path fill-rule="evenodd" clip-rule="evenodd" d="M441.388 215.852L441.422 211.558L441.5 211.154L460.495 207.161L460.675 207.962L460.84 210.739C450.69 224.645 444.41 219.478 441.388 215.852Z" fill="#EFEDD8"/>
<path d="M443.59 214.897C429.25 211.015 428.574 189.229 430.029 178.821C436.244 170.467 465.264 167.195 465.264 187.951C465.264 194.653 465.469 201.958 463.551 205.636C457.222 216.247 447.606 216.232 443.59 214.897Z" fill="#FBFAF1"/>
<path d="M471.741 190.929C468.571 186.866 465.516 189.416 464.523 191.086C465.181 194.345 464.117 201.716 463.503 204.994C469.014 204.449 474.599 194.591 471.741 190.929Z" fill="#FBFAF1"/>
<path fill-rule="evenodd" clip-rule="evenodd" d="M438.614 201.766L440.897 194.354L441.447 194.524L439.164 201.936C439.052 202.299 439.042 202.696 439.142 203.014C439.239 203.325 439.431 203.544 439.729 203.626C440.05 203.714 440.342 203.682 440.587 203.454C440.733 203.317 440.931 203.275 441.093 203.283C441.256 203.291 441.446 203.35 441.58 203.491C441.685 203.603 441.823 203.696 441.997 203.739C442.169 203.782 442.398 203.781 442.696 203.671C442.845 203.616 443.011 203.692 443.066 203.842C443.121 203.991 443.044 204.157 442.895 204.212C442.505 204.356 442.158 204.373 441.858 204.299C441.56 204.225 441.329 204.065 441.162 203.888C441.161 203.887 441.154 203.88 441.135 203.873C441.117 203.865 441.093 203.86 441.067 203.859C441.041 203.858 441.017 203.861 441 203.866C440.985 203.871 440.979 203.875 440.979 203.875C440.979 203.875 440.979 203.875 440.979 203.875C440.548 204.277 440.031 204.307 439.577 204.182C439.049 204.037 438.734 203.64 438.592 203.186C438.453 202.739 438.473 202.222 438.614 201.766Z" fill="#044C6A"/>
<path d="M435.201 195.19C434.9 195.926 434.06 196.279 433.324 195.978C432.588 195.676 432.236 194.835 432.537 194.098C432.838 193.362 433.678 193.009 434.414 193.31C435.15 193.612 435.502 194.453 435.201 195.19Z" fill="#198AB9"/>
<path d="M450.588 195.19C450.287 195.926 449.446 196.279 448.711 195.978C447.975 195.676 447.622 194.835 447.924 194.098C448.225 193.362 449.065 193.009 449.801 193.31C450.537 193.612 450.889 194.453 450.588 195.19Z" fill="#198AB9"/>
<path fill-rule="evenodd" clip-rule="evenodd" d="M449.096 208.971C447.583 209.125 446.183 208.81 445.345 208.467L445.563 207.933C446.324 208.245 447.63 208.541 449.038 208.397C450.439 208.254 451.932 207.679 453.105 206.259L453.549 206.627C452.261 208.185 450.616 208.816 449.096 208.971Z" fill="#044C6A"/>
<path fill-rule="evenodd" clip-rule="evenodd" d="M468.252 192.405C467.535 192.287 466.785 192.592 466.309 192.93L465.977 192.459C466.523 192.072 467.425 191.684 468.346 191.836C469.301 191.994 470.18 192.716 470.682 194.357L470.131 194.526C469.674 193.031 468.933 192.518 468.252 192.405Z" fill="#044C6A"/>
<path fill-rule="evenodd" clip-rule="evenodd" d="M468.233 194.514C468.485 193.501 468.485 192.837 468.429 192.557L468.993 192.443C469.074 192.842 469.053 193.602 468.792 194.652C468.529 195.712 468.018 197.088 467.096 198.728L466.594 198.445C467.494 196.846 467.984 195.518 468.233 194.514Z" fill="#044C6A"/>
<path d="M431.223 180.249C434.498 173.988 440.262 174.28 443.532 175.82C449.879 173.124 458.534 175.05 459.111 184.292C459.595 192.054 463.726 196.808 465.65 197.963C464.303 188.913 467.573 180.249 464.303 173.125C460.415 164.652 448.532 165.23 443.532 166.385C416.606 165.423 429.684 196.376 429.684 191.609C429.684 187.951 429.107 184.292 431.223 180.249Z" fill="#917F50"/>
<path d="M466.083 285.83C461.415 285.502 457.785 279.853 456.554 277.069L453.29 279.315L456.23 297.99L465.129 302.168C469.87 300.013 467.74 290.378 466.083 285.83Z" fill="#EFEDD8"/>
<path d="M473.534 256.88C468.765 242.4 474.753 234.416 477.958 232.041C497.083 227.255 502.462 268.638 503.641 288.94C503.93 293.906 502.568 298.896 498.913 302.265C496.821 304.193 494.353 306.053 491.806 307.328C486.574 309.946 469.303 306.237 460.648 304.054C467.957 296.545 466.995 288.073 463.918 284.8H483.343C482.446 281.526 478.304 271.36 473.534 256.88Z" fill="#197EA9"/>
<path fill-rule="evenodd" clip-rule="evenodd" d="M447.711 318.763C461.362 311.316 464.256 289.714 454.131 270.258C444.005 250.802 424.663 240.799 410.745 247.733L410.743 247.73L396.075 255.381L399.338 261.652C396.078 271.5 397.331 284.464 403.643 296.593C409.956 308.723 419.851 317.178 429.78 320.146L433.044 326.417L447.318 318.972C447.336 318.962 447.354 318.953 447.372 318.944C447.389 318.935 447.407 318.925 447.425 318.916L447.713 318.766L447.711 318.763Z" fill="#C1A96B"/>
<path opacity="0.5" fill-rule="evenodd" clip-rule="evenodd" d="M420.376 245.535L404.397 253.87L405.798 256.562L425.786 246.136C423.968 245.743 422.157 245.539 420.376 245.535ZM434.842 249.627L409.16 263.023L410.561 265.715L437.848 251.481C436.858 250.81 435.855 250.191 434.842 249.627ZM443.98 256.497L413.924 272.176L415.325 274.868L446.179 258.774C445.462 257.983 444.729 257.224 443.98 256.497ZM450.756 264.601L418.687 281.328L420.088 284.02L452.398 267.167C451.869 266.289 451.321 265.433 450.756 264.601ZM455.749 273.634L423.451 290.481L424.852 293.173L456.899 276.457C456.545 275.514 456.162 274.573 455.749 273.634ZM459.021 283.564L428.214 299.634L429.615 302.326L459.613 286.678C459.451 285.646 459.254 284.607 459.021 283.564ZM460.168 294.603L432.977 308.787L434.378 311.479L459.942 298.144C460.069 296.987 460.144 295.805 460.168 294.603ZM457.513 307.626L437.741 317.939L439.142 320.631L454.776 312.476C455.844 310.999 456.757 309.373 457.513 307.626Z" fill="#F1D386"/>
<path d="M439.803 277.732C450.012 297.348 446.986 319.145 433.044 326.417C419.102 333.69 399.525 323.683 389.316 304.067C379.107 284.451 382.133 262.653 396.075 255.381C410.016 248.109 429.594 258.115 439.803 277.732Z" fill="#F1D386"/>
<path d="M433.663 280.934C441.909 296.778 439.506 314.362 428.296 320.21C417.086 326.057 401.314 317.953 393.069 302.109C384.823 286.266 387.226 268.681 398.436 262.834C409.646 256.987 425.418 265.091 433.663 280.934Z" fill="#F7E5B6"/>
<path d="M449.613 279.402C449.719 277.832 451.076 276.645 452.644 276.75L458.623 277.153C460.191 277.259 461.377 278.618 461.271 280.188C461.166 281.758 459.809 282.945 458.24 282.839L452.262 282.436C450.694 282.331 449.508 280.972 449.613 279.402Z" fill="#FBFAF1"/>
<path d="M450.691 284.887C450.796 283.317 452.153 282.13 453.722 282.236L459.7 282.639C461.268 282.744 462.454 284.103 462.349 285.673C462.243 287.243 460.886 288.43 459.318 288.325L453.339 287.922C451.771 287.816 450.585 286.457 450.691 284.887Z" fill="#FBFAF1"/>
<path d="M453.856 291.379C453.961 289.809 455.318 288.622 456.887 288.728L459.999 288.938C461.568 289.043 462.754 290.402 462.648 291.972C462.542 293.542 461.185 294.729 459.617 294.624L456.504 294.414C454.936 294.308 453.75 292.949 453.856 291.379Z" fill="#FBFAF1"/>
<path d="M452.488 274.09C452.594 272.519 453.951 271.332 455.519 271.438L458.632 271.648C460.201 271.754 461.386 273.112 461.281 274.682C461.175 276.252 459.818 277.44 458.25 277.334L455.137 277.124C453.569 277.018 452.383 275.66 452.488 274.09Z" fill="#FBFAF1"/>
<g opacity="0.6">
<path d="M404.91 304.599L396.971 289.232L403.026 286.096C404.186 285.496 405.282 285.191 406.316 285.182C407.352 285.165 408.281 285.423 409.101 285.956C409.923 286.481 410.596 287.252 411.121 288.267C411.648 289.287 411.882 290.279 411.822 291.242C411.76 292.2 411.412 293.09 410.779 293.913C410.152 294.732 409.248 295.447 408.069 296.058L404.014 298.158L402.665 295.547L406.195 293.719C406.815 293.398 407.285 293.046 407.607 292.664C407.929 292.282 408.102 291.869 408.126 291.425C408.155 290.979 408.039 290.503 407.778 289.998C407.515 289.488 407.19 289.111 406.804 288.867C406.424 288.62 405.979 288.514 405.472 288.549C404.966 288.576 404.401 288.751 403.777 289.074L401.588 290.208L408.155 302.918L404.91 304.599ZM409.586 293.313L417.014 298.331L413.432 300.186L406.086 295.126L409.586 293.313Z" fill="#C1A96B"/>
<path d="M420.933 301.779L412.746 285.932L415.894 284.302L416.894 286.238L417.036 286.164C417.016 285.782 417.055 285.362 417.155 284.905C417.257 284.44 417.467 283.989 417.785 283.551C418.106 283.106 418.589 282.716 419.234 282.383C420.073 281.948 420.961 281.767 421.898 281.84C422.833 281.907 423.739 282.272 424.619 282.932C425.496 283.588 426.276 284.576 426.958 285.896C427.622 287.182 427.976 288.375 428.018 289.475C428.063 290.567 427.849 291.525 427.375 292.347C426.903 293.162 426.23 293.796 425.355 294.249C424.736 294.57 424.155 294.74 423.615 294.76C423.079 294.778 422.594 294.703 422.159 294.535C421.721 294.362 421.347 294.153 421.037 293.908L420.939 293.958L424.126 300.126L420.933 301.779ZM418.848 290.077C419.202 290.762 419.606 291.31 420.06 291.722C420.513 292.134 420.993 292.39 421.5 292.488C422.005 292.582 422.515 292.496 423.029 292.229C423.549 291.96 423.915 291.59 424.127 291.119C424.337 290.642 424.403 290.101 424.324 289.495C424.248 288.882 424.036 288.24 423.69 287.569C423.346 286.904 422.951 286.367 422.506 285.957C422.06 285.548 421.583 285.294 421.076 285.195C420.569 285.096 420.053 285.182 419.529 285.454C419.009 285.723 418.64 286.088 418.423 286.55C418.21 287.009 418.139 287.54 418.211 288.143C418.282 288.747 418.494 289.391 418.848 290.077Z" fill="#C1A96B"/>
</g>
<path fill-rule="evenodd" clip-rule="evenodd" d="M515.44 78.6731C515.44 78.8373 515.308 78.9704 515.144 78.9704H473.298C473.248 78.9704 473.198 78.9834 473.154 79.0082L453.538 89.9848C453.306 90.1147 453.034 89.8971 453.109 89.6417L456.123 79.3513C456.179 79.161 456.036 78.9704 455.838 78.9704H438.614C438.45 78.9704 438.317 78.8373 438.317 78.6731V27.096C438.317 26.9319 438.45 26.7988 438.614 26.7988H515.144C515.308 26.7988 515.44 26.9319 515.44 27.096V78.6731Z" fill="#99D2EB"/>
<g clip-path="url(#clip0_160_8511)">
<path d="M454.7 61.9432H457.829C459.096 61.9432 459.729 61.4001 459.729 60.329C459.729 59.2849 459.095 58.7697 457.829 58.7832H454.7V61.9432ZM457.805 52.5846H454.7V55.3699H457.805C458.021 55.3699 458.308 55.4243 458.843 54.9635C459.095 54.7331 459.234 54.4077 459.234 53.9734C459.234 53.1188 458.642 52.658 458.156 52.6175L457.805 52.5846ZM451.01 65.3072V49.2283H457.829C457.977 49.2283 458.152 49.2409 458.381 49.2548C458.79 49.306 459.195 49.383 459.594 49.4853C460.139 49.6123 460.664 49.8098 461.158 50.0727C461.652 50.3766 462.072 50.7891 462.385 51.2793C462.76 51.8644 462.953 52.5492 462.938 53.2454C462.924 55.0495 462.155 56.0396 461.468 56.4739C460.983 56.8258 460.7 56.9208 460.606 56.9208C460.843 56.9892 461.073 57.0804 461.293 57.193C461.618 57.3702 461.933 57.5647 462.237 57.7754C463.086 58.3324 463.621 59.3491 463.621 60.6101C463.621 63.744 461.464 65.3084 457.15 65.3034L451.01 65.3072Z" fill="white"/>
<path d="M480.215 53.5341H476.521V65.3071H480.215V53.5341Z" fill="white"/>
<path d="M466.265 40.6622V51.0654H469.958V44.3781H493.309V51.0654H497.002V40.6622H466.265Z" fill="#3AACE2"/>
<path d="M487.115 53.5341H483.422V65.3071H487.115V53.5341Z" fill="white"/>
<path d="M497.09 53.5341L495.148 56.4232L493.222 53.5341H489.218L493.168 59.3934L489.218 65.3071H493.222L495.148 62.418L497.09 65.3071H501.094L497.197 59.3934L501.094 53.5341H497.09Z" fill="white"/>
<path d="M476.266 48.9499C476.265 48.6733 476.32 48.3993 476.428 48.145C476.536 47.8907 476.695 47.6614 476.895 47.4712C477.084 47.2714 477.312 47.113 477.565 47.0058C477.818 46.8986 478.09 46.845 478.365 46.8483C478.641 46.8449 478.915 46.8984 479.17 47.0056C479.425 47.1127 479.655 47.2712 479.847 47.4712C480.043 47.6648 480.199 47.896 480.306 48.1511C480.412 48.4063 480.467 48.6802 480.467 48.9569C480.467 49.2336 480.412 49.5076 480.306 49.7627C480.199 50.0178 480.043 50.2489 479.847 50.4426C479.655 50.6427 479.425 50.8011 479.17 50.9082C478.915 51.0153 478.641 51.0689 478.365 51.0655C478.09 51.0688 477.818 51.0151 477.565 50.908C477.312 50.8008 477.084 50.6424 476.895 50.4426C476.694 50.2505 476.534 50.0189 476.426 49.762C476.318 49.5053 476.263 49.2288 476.266 48.9499Z" fill="#3AACE2"/>
<path d="M483.166 48.9499C483.165 48.6733 483.221 48.3993 483.329 48.145C483.437 47.8907 483.596 47.6613 483.796 47.4712C483.985 47.2714 484.213 47.113 484.466 47.0058C484.719 46.8986 484.991 46.845 485.265 46.8483C485.541 46.8451 485.815 46.8987 486.07 47.0058C486.324 47.113 486.555 47.2713 486.746 47.4712C486.943 47.6648 487.099 47.896 487.205 48.1511C487.312 48.4063 487.367 48.6802 487.367 48.9569C487.367 49.2336 487.312 49.5075 487.205 49.7627C487.099 50.0178 486.943 50.2489 486.746 50.4426C486.555 50.6427 486.324 50.8011 486.069 50.9082C485.814 51.0153 485.54 51.0688 485.264 51.0655C484.99 51.0688 484.718 51.0151 484.465 50.908C484.212 50.8008 483.984 50.6424 483.794 50.4426C483.593 50.2505 483.434 50.0188 483.326 49.762C483.217 49.5053 483.163 49.2288 483.165 48.9499" fill="#3AACE2"/>
<path d="M469.958 55.4193V53.5341H466.265V65.3084H469.958V60.4544C469.958 58.7819 470.603 56.2295 474.326 56.9246V53.4797C470.299 52.9391 469.958 55.4193 469.958 55.4193Z" fill="white"/>
</g>
<path fill-rule="evenodd" clip-rule="evenodd" d="M194.6 293.252C182.716 291.021 176.199 295.751 174.491 298.174L173.331 297.355C175.408 294.409 182.519 289.538 194.861 291.855L194.6 293.252Z" fill="#746540"/>
<path fill-rule="evenodd" clip-rule="evenodd" d="M243.596 223.81C242.272 221.117 240.807 218.253 239.861 216.439L240.449 216.132C241.396 217.95 242.864 220.818 244.19 223.517C245.512 226.206 246.706 228.755 247.094 229.918L246.465 230.128C246.095 229.017 244.924 226.514 243.596 223.81Z" fill="#1F9ED3"/>
<defs>
<linearGradient id="paint0_linear_160_8511" x1="138.249" y1="56.8976" x2="138.249" y2="204.39" gradientUnits="userSpaceOnUse">
<stop stop-color="white"/>
<stop offset="1" stop-color="#F3F3F3" stop-opacity="0"/>
</linearGradient>
<clipPath id="clip0_160_8511">
<rect width="50.39" height="24.6462" fill="white" transform="translate(451.01 40.6622)"/>
</clipPath>
</defs>
</svg>
