<svg width="16" height="16" viewBox="0 0 16 16" fill="" xmlns="http://www.w3.org/2000/svg">
<path d="M8.5656 1.83445C8.41558 1.68447 8.21213 1.60022 8 1.60022C7.78787 1.60022 7.58442 1.68447 7.4344 1.83445L1.8344 7.43445C1.68868 7.58533 1.60804 7.78741 1.60986 7.99717C1.61169 8.20693 1.69582 8.40758 1.84415 8.5559C1.99247 8.70423 2.19312 8.78836 2.40288 8.79019C2.61264 8.79201 2.81472 8.71137 2.9656 8.56565L3.2 8.33125V13.6C3.2 13.8122 3.28429 14.0157 3.43432 14.1657C3.58435 14.3158 3.78783 14.4 4 14.4H5.6C5.81218 14.4 6.01566 14.3158 6.16569 14.1657C6.31572 14.0157 6.4 13.8122 6.4 13.6V12C6.4 11.7879 6.48429 11.5844 6.63432 11.4344C6.78435 11.2843 6.98783 11.2 7.2 11.2H8.8C9.01218 11.2 9.21566 11.2843 9.36569 11.4344C9.51572 11.5844 9.6 11.7879 9.6 12V13.6C9.6 13.8122 9.68429 14.0157 9.83432 14.1657C9.98435 14.3158 10.1878 14.4 10.4 14.4H12C12.2122 14.4 12.4157 14.3158 12.5657 14.1657C12.7157 14.0157 12.8 13.8122 12.8 13.6V8.33125L13.0344 8.56565C13.1853 8.71137 13.3874 8.79201 13.5971 8.79019C13.8069 8.78836 14.0075 8.70423 14.1559 8.5559C14.3042 8.40758 14.3883 8.20693 14.3901 7.99717C14.392 7.78741 14.3113 7.58533 14.1656 7.43445L8.5656 1.83445Z" fill="#1F9ED3"/>
</svg>
