<svg width="100" height="100" viewBox="0 0 100 100" fill="none" xmlns="http://www.w3.org/2000/svg">
<path d="M42.8081 65.013C42.5303 64.8954 42.3229 64.9769 42.0868 65.0963C38.2331 67.0334 34.3862 67.0189 30.5461 65.0528C30.4513 64.9957 30.3442 64.9623 30.2338 64.9554C30.1234 64.9485 30.0129 64.9682 29.9118 65.013C24.3124 67.3173 20.6998 71.3849 19.0738 77.2158C18.4664 79.3908 18.4923 81.6232 18.4923 83.8547C18.4923 84.2667 18.5664 84.3898 19.0109 84.388C24.7831 84.3695 30.5544 84.376 36.3257 84.376H51.1442C52.0572 84.376 52.9701 84.376 53.8831 84.376C54.0683 84.376 54.2192 84.4 54.2183 84.1148C54.2183 82.1935 54.2979 80.2584 53.8942 78.3741C52.5322 71.9963 48.8405 67.5287 42.8081 65.013Z" fill="#1E7EAA"/>
<path d="M36.6302 62.5186C41.5329 62.5278 46.195 58.6982 46.2339 52.9547C46.2691 47.8565 42.3191 43.5158 36.9394 43.325C31.5598 43.1343 27.1292 47.4195 27.0366 52.7899C26.9441 58.1158 31.1691 62.4019 36.6302 62.5186Z" fill="#1E7EAA"/>
<path d="M48.4314 30.6825C48.4314 32.5448 48.4314 34.4071 48.4314 36.2695C48.4328 36.5288 48.3524 36.7819 48.2016 36.9929C48.0508 37.2039 47.8373 37.3619 47.5916 37.4445C47.3525 37.5313 47.0922 37.5409 46.8473 37.4719C46.6025 37.403 46.3854 37.259 46.2267 37.0602C46.0091 36.8001 45.9425 36.4954 45.9434 36.1621C45.948 34.4186 45.9434 32.676 45.9434 30.9325V30.6547C45.8221 30.6806 45.7777 30.7676 45.7156 30.8288C44.8527 31.6871 43.9934 32.55 43.1304 33.4075C42.7601 33.7778 42.3193 33.901 41.8175 33.7213C41.3156 33.5417 41.061 33.1806 40.998 32.6741C40.9746 32.4952 40.9935 32.3133 41.0532 32.143C41.1128 31.9727 41.2116 31.8188 41.3416 31.6936C41.6443 31.3834 41.9527 31.0788 42.2591 30.7723L46.1916 26.8399C46.8314 26.201 47.5304 26.2001 48.1712 26.8399C49.7699 28.4362 51.3684 30.0331 52.9666 31.6306C53.3434 32.0056 53.4666 32.4399 53.3054 32.938C53.1388 33.451 52.7656 33.7389 52.2286 33.7917C51.8166 33.8334 51.4823 33.6612 51.1953 33.3723C50.3564 32.5288 49.5119 31.6908 48.6721 30.8482C48.6124 30.7797 48.5576 30.7069 48.5082 30.6306L48.4314 30.6825Z" fill="#0A1F27"/>
<path d="M60.4841 18.0611C60.4841 19.9241 60.4841 21.7864 60.4841 23.6482C60.4851 23.9076 60.4043 24.1608 60.2532 24.3718C60.1021 24.5827 59.8884 24.7406 59.6424 24.8232C59.4033 24.9099 59.143 24.9195 58.8982 24.8506C58.6533 24.7817 58.4363 24.6377 58.2776 24.4389C58.0609 24.1787 57.9933 23.8741 57.9942 23.5408C57.9942 21.7973 57.9942 20.0547 57.9942 18.3111V18.0334C57.8739 18.0593 57.8285 18.1463 57.7665 18.2074C56.9035 19.0658 56.0452 19.9287 55.1813 20.7861C54.8109 21.1565 54.3711 21.2797 53.8692 21.1C53.3674 20.9204 53.1118 20.5593 53.0489 20.0537C53.0254 19.8747 53.0442 19.6926 53.1039 19.5221C53.1635 19.3517 53.2624 19.1976 53.3924 19.0723C53.6952 18.7621 54.0035 18.4574 54.31 18.151C55.6211 16.8398 56.9322 15.529 58.2433 14.2185C58.8822 13.5797 59.5822 13.5797 60.2229 14.2185C61.8211 15.8148 63.4192 17.4118 65.0174 19.0093C65.3942 19.3797 65.5174 19.8185 65.3563 20.3167C65.1896 20.8297 64.8165 21.1176 64.2794 21.1704C63.8674 21.2121 63.5387 21.0398 63.2461 20.751C62.4063 19.9074 61.5646 19.0741 60.7248 18.2297C60.6651 18.1613 60.6106 18.0886 60.5618 18.0121L60.4841 18.0611Z" fill="#0A1F27"/>
<path d="M77.2496 47.6852C77.1255 47.6498 76.9972 47.6314 76.8681 47.6306C76.3589 47.6306 75.8311 47.85 75.4311 48.3944C75.0302 48.9222 74.8496 49.7407 74.8496 50.6324C74.8496 51.8361 75.157 52.5769 75.5218 52.9787C75.6842 53.1485 75.8788 53.2842 76.0942 53.378C76.3096 53.4718 76.5415 53.5217 76.7765 53.525C78.1413 53.525 78.7413 52.0509 78.7413 50.562C78.7413 49.3028 78.395 47.9759 77.2496 47.6852Z" fill="#1E7EAA"/>
<path d="M65.4444 44.9611H62.6777V48.4972H65.3703C65.8333 48.4787 67.3259 48.4408 67.3259 46.7009C67.3268 45.0352 66.1268 44.9796 65.4444 44.9611Z" fill="#1E7EAA"/>
<path d="M70.7228 33.2167C61.3552 33.2167 53.7617 40.9991 53.7617 50.6C53.7617 60.2009 61.3543 67.9833 70.7228 67.9833C80.0913 67.9833 87.6839 60.2009 87.6839 50.6C87.6839 40.9991 80.0913 33.2167 70.7228 33.2167ZM67.3062 55.5898L64.721 50.9259H62.6765V55.5926H59.4108V42.5158H65.2765C66.6423 42.5352 68.3395 42.5537 69.5358 43.85C70.146 44.5343 70.5691 45.5722 70.5691 46.7574C70.5691 49.3861 68.7802 50.0352 67.8941 50.3685L70.9015 55.5898H67.3062ZM77.3219 55.5426C76.2673 55.5426 75.721 55.1954 74.9756 54.7408V58.6519H72.1562V45.9028H74.6488V46.7945C74.7341 46.6867 74.8249 46.5835 74.921 46.4852C75.3932 46.0306 76.2478 45.6519 77.3043 45.6519C79.6321 45.6519 81.4312 47.4111 81.4312 50.5806C81.4312 52.5232 80.5765 55.5426 77.3219 55.5426Z" fill="#1E7EAA"/>
<path d="M69.7959 31.4528C58.7033 31.3602 50.5237 40.2935 50.4441 50.3C50.3515 61.3334 59.195 69.75 69.6441 69.7445C80.0737 69.7528 88.5996 61.2935 88.7339 50.9028C88.8737 40.038 80.2774 31.5371 69.7959 31.4528ZM86.783 51.1361C86.753 53.422 86.232 55.6748 85.2552 57.7417C84.3652 59.6658 83.1353 61.4136 81.6246 62.9009C79.5552 64.938 77.1015 66.3158 74.3441 67.1806C73.4607 67.4584 72.5515 67.5945 71.6348 67.6972C70.9737 67.7722 70.3089 67.7815 69.6459 67.7972C68.3155 67.8087 66.9878 67.6721 65.6876 67.3898C64.8125 67.1811 63.9572 66.897 63.1311 66.5408C62.0348 66.0874 60.9841 65.5309 59.9932 64.8787C58.9367 64.1824 58.0024 63.3435 57.1228 62.4389C54.9996 60.2537 53.6598 57.6371 52.8524 54.7222C52.7111 54.1612 52.6093 53.591 52.5478 53.0158C52.4344 52.1386 52.3812 51.2548 52.3885 50.3704C52.3825 49.1191 52.5157 47.871 52.7858 46.6491C53.4583 43.8672 54.8065 41.2941 56.7108 39.1575C58.6151 37.021 61.0168 35.3869 63.7033 34.4C64.8663 33.9612 66.0793 33.6686 67.3145 33.5287C68.4432 33.4036 69.5802 33.3692 70.7144 33.4259C71.7364 33.461 72.7521 33.6018 73.745 33.8463C75.8645 34.4019 77.845 35.2871 79.6191 36.5732C81.8561 38.1954 83.6524 40.2167 84.8969 42.7037C85.5213 43.925 86.0097 45.2111 86.3533 46.5389C86.5084 47.1995 86.6179 47.8699 86.6811 48.5454C86.7674 49.4061 86.8014 50.2713 86.783 51.1361Z" fill="#0A1F27"/>
<path d="M83.0689 48.6352C82.9761 48.2175 82.8605 47.8051 82.7226 47.4C82.5142 46.8519 82.1809 46.3815 81.8337 45.9186C81.2642 45.1547 80.505 44.6334 79.6513 44.2371C79.5405 44.187 79.4252 44.148 79.3068 44.1204C78.9198 44.0232 78.5318 43.926 78.1411 43.8426C77.6847 43.7438 77.2145 43.7266 76.7522 43.7917C76.2698 43.8584 75.804 43.9954 75.3318 44.1074C75.2434 44.1325 75.1498 44.1325 75.0614 44.1074C74.7793 44.0285 74.4866 43.9944 74.1939 44.0065C73.7151 44.0158 73.2355 44.0065 72.7568 44.0065C72.4503 44.0065 72.142 43.9787 71.8448 44.0861C71.7522 44.1186 71.7179 44.0676 71.6864 43.9936C71.542 43.6565 71.3216 43.3648 71.1253 43.0584C70.6624 42.3361 69.9874 41.8648 69.2735 41.4352C69.0821 41.3233 68.8783 41.2345 68.6661 41.1704C67.5417 40.8127 66.3682 40.6334 65.1883 40.6389C63.329 40.6547 61.4707 40.6315 59.6124 40.65C59.1077 40.6556 58.6105 40.7574 58.1901 41.0935C57.9715 41.2561 57.8002 41.4741 57.6939 41.725C57.5563 42.0631 57.4807 42.4232 57.4707 42.788C57.4707 46.8195 57.4707 50.8513 57.4707 54.8834C57.4726 55.1898 57.5086 55.4951 57.5781 55.7936C57.6357 56.0651 57.7527 56.3206 57.9207 56.5417C58.0862 56.7681 58.3103 56.9451 58.5688 57.0537C58.8917 57.1899 59.2371 57.2644 59.5874 57.2732C60.4383 57.2732 61.2892 57.2667 62.1392 57.2732C62.4454 57.266 62.7503 57.2316 63.0503 57.1704C63.3763 57.1162 63.6778 56.9633 63.9142 56.7324C64.142 56.5351 64.3063 56.2748 64.3864 55.9843C64.4846 55.5732 64.58 55.1658 64.5503 54.7389C64.5537 54.7142 64.5587 54.6898 64.5651 54.6658C64.6577 54.8343 64.7318 54.963 64.805 55.0908C65.0948 55.5908 65.3374 56.1186 65.692 56.5797C65.8502 56.7938 66.066 56.9585 66.3142 57.0547C66.6541 57.1873 67.0143 57.2606 67.379 57.2713C68.2726 57.2667 69.1661 57.2713 70.0596 57.2713C70.2226 57.2713 70.2253 57.2713 70.2263 57.4371C70.2263 57.7593 70.2031 58.0852 70.2327 58.4019C70.279 58.9047 70.3476 59.4028 70.6837 59.8241C70.8465 60.0423 71.0631 60.2146 71.3124 60.3241C71.6422 60.4633 71.9945 60.5418 72.3522 60.5556C73.0244 60.5611 73.6966 60.5556 74.3689 60.5556C74.7322 60.558 75.0946 60.5198 75.4494 60.4417C75.7638 60.3763 76.0529 60.2224 76.2827 59.9982C76.4878 59.8183 76.6409 59.5868 76.7263 59.3278C76.8712 58.8563 76.932 58.363 76.9059 57.8704C76.8994 57.7778 76.9059 57.6852 76.9059 57.5926C76.9059 57.4445 76.9059 57.4408 77.0624 57.4482C77.4264 57.4729 77.7921 57.4505 78.1503 57.3815C78.5698 57.2945 78.9837 57.1963 79.3994 57.0834C79.7037 57.0011 79.9933 56.8717 80.2577 56.7C80.93 56.2695 81.554 55.7871 81.9818 55.0917C82.0152 55.0371 82.0568 54.9871 82.0939 54.9343C82.3705 54.5523 82.589 54.1314 82.742 53.6852C82.9368 53.0733 83.0933 52.4499 83.2105 51.8186C83.2919 51.4045 83.3298 50.9831 83.3235 50.5611C83.3215 49.9109 83.236 49.2636 83.0689 48.6352ZM70.4466 55.3352C69.4179 55.3352 68.3883 55.3352 67.3587 55.3352C67.2938 55.3417 67.2286 55.3272 67.1726 55.2939C67.1166 55.2605 67.0728 55.2101 67.0476 55.15C66.2772 53.75 65.4976 52.3547 64.7272 50.9547C64.704 50.8968 64.6627 50.848 64.6095 50.8156C64.5562 50.7832 64.4939 50.769 64.4318 50.775C63.8892 50.7852 63.3457 50.775 62.8022 50.775C62.5994 50.775 62.5985 50.775 62.5985 50.988C62.5985 52.3386 62.5985 53.6898 62.5985 55.0417C62.5957 55.0917 62.5957 55.1417 62.5985 55.1917C62.6124 55.3065 62.5614 55.3334 62.4522 55.3334C61.4874 55.329 60.5222 55.329 59.5568 55.3334C59.4485 55.3334 59.3957 55.3065 59.4114 55.1898C59.4142 55.1473 59.4142 55.1046 59.4114 55.0621C59.4114 50.988 59.4114 46.9139 59.4114 42.8398C59.4114 42.5556 59.367 42.5861 59.6577 42.5861C61.6874 42.5861 63.7179 42.5861 65.7476 42.5945C66.4418 42.5848 67.1331 42.6886 67.7939 42.9019C69.1105 43.3519 69.8864 44.2908 70.2114 45.6213C70.4266 46.4501 70.3944 47.3236 70.1189 48.1343C69.8272 48.9769 69.2364 49.5547 68.442 49.9334C68.2105 50.0436 67.9726 50.138 67.7198 50.2473L70.6596 55.3334L70.4466 55.3352ZM80.7726 53.3806C80.4656 54.0472 79.9685 54.6083 79.3439 54.9936C78.8241 55.2969 78.24 55.473 77.6392 55.5074C76.8212 55.5808 76.0023 55.3759 75.3152 54.926C75.2142 54.8602 75.1087 54.8028 74.9864 54.7306C74.9635 54.8131 74.9566 54.8992 74.9661 54.9843C74.9661 56.1065 74.9661 57.2287 74.9661 58.351C74.9661 58.401 74.9661 58.451 74.9661 58.501C74.9661 58.5704 74.9457 58.6102 74.8735 58.6074C74.8383 58.6074 74.8022 58.6074 74.767 58.6074H72.3605C72.1596 58.6074 72.1753 58.6232 72.1753 58.4223V53.4686C72.1753 51.0451 72.1753 48.6219 72.1753 46.1991C72.1753 45.9019 72.1448 45.9463 72.4198 45.9454C73.1062 45.9454 73.7923 45.9454 74.4781 45.9454C74.63 45.9454 74.6318 45.9454 74.6337 46.0935C74.6337 46.3213 74.6337 46.5491 74.6337 46.7695C74.6614 46.7935 74.6837 46.7898 74.6976 46.7695C75.1337 46.2232 75.7226 45.9361 76.3864 45.7917C77.2848 45.5793 78.2291 45.6857 79.0577 46.0926C79.9976 46.5556 80.6059 47.3111 80.9809 48.2704C81.2523 48.9942 81.3864 49.7623 81.3763 50.5352C81.3971 51.5175 81.1905 52.4914 80.7726 53.3806Z" fill="#0A1F27"/>
<path d="M62.5975 46.7185C62.5975 46.1861 62.5975 45.6537 62.5975 45.1213C62.5975 44.9565 62.5975 44.9537 62.7827 44.9537H65.7966C66.0459 44.9548 66.2944 44.9837 66.5373 45.0398C67.1244 45.175 67.5086 45.5028 67.6614 46.0398C67.7822 46.4489 67.7851 46.8838 67.6697 47.2945C67.5012 47.8963 67.0484 48.2463 66.4021 48.401C66.1526 48.4615 65.8969 48.4926 65.6401 48.4935H62.7947C62.6012 48.4935 62.5984 48.4935 62.5984 48.3084C62.5929 47.7834 62.5975 47.251 62.5975 46.7185Z" fill="#0A1F27"/>
<path d="M74.8401 50.663C74.8235 50.1293 74.8993 49.5967 75.0642 49.0889C75.1692 48.7691 75.3405 48.475 75.567 48.2259C76.3605 47.3583 77.6531 47.4852 78.2614 48.4908C78.4607 48.8304 78.5907 49.2061 78.6438 49.5963C78.7661 50.3806 78.7614 51.1611 78.5383 51.9296C78.4442 52.268 78.2872 52.5856 78.0753 52.8658C77.2901 53.8935 75.8827 53.6278 75.3216 52.7482C75.0933 52.368 74.9464 51.9445 74.8901 51.5046C74.8489 51.2261 74.8322 50.9444 74.8401 50.663Z" fill="#0A1F27"/>
<path d="M77.568 57.1417C77.5175 56.9654 77.514 56.779 77.5579 56.601C77.6338 56.7787 77.6014 56.9611 77.568 57.1417Z" fill="#0A1F27"/>
<path d="M55.7173 76.925C55.7173 76.9037 55.7089 76.8843 55.7052 76.8648C55.5373 76.3943 55.4133 75.9092 55.3349 75.4158C55.2772 74.9843 55.1777 74.5594 55.0376 74.1473C54.9191 73.8751 54.8225 73.594 54.7487 73.3065C54.7235 73.261 54.7019 73.2137 54.6839 73.1648C53.7123 70.5677 52.2118 68.2008 50.2775 66.2139C48.6423 64.5079 46.7218 63.1007 44.6024 62.0556C44.1793 61.8482 44.1802 61.7371 44.4839 61.4074C46.8376 58.875 47.9043 55.8519 47.783 52.4186C47.743 50.936 47.3962 49.4779 46.7645 48.1361C46.7079 48.027 46.6679 47.9099 46.646 47.7889C46.0849 46.901 45.7395 45.8769 45.0034 45.1093C44.9088 45.0705 44.8268 45.0065 44.7663 44.9241C43.5671 43.5212 42.0618 42.4125 40.3663 41.6834C35.4228 39.5537 29.8645 40.7741 26.2182 44.8065C26.1529 44.8824 26.0789 44.9505 25.9978 45.0093C25.6682 45.4778 25.3173 45.9352 24.995 46.4047C24.7358 46.7834 24.5626 47.276 24.2691 47.6343C24.2672 47.7313 24.2424 47.8264 24.1969 47.9121C23.4358 49.5787 23.033 51.3241 23.0747 53.1547C23.1469 56.3343 24.2367 59.1176 26.4136 61.4537C26.6506 61.7084 26.7404 61.813 26.3423 62.0149C21.5774 64.4287 18.1719 68.0973 16.2219 73.0834C16.196 73.1498 16.1651 73.2142 16.1293 73.276C16.1252 73.3599 16.106 73.4423 16.0728 73.5195C15.7154 74.3648 15.2821 75.2 15.1682 76.1121C15.1923 76.1813 15.2027 76.2546 15.1987 76.3278C15.1987 76.3648 15.1941 76.401 15.1895 76.438C15.221 76.488 15.2237 76.5686 15.1895 76.7074C15.0722 77.2641 14.9896 77.8275 14.9423 78.3945C14.7413 80.3611 14.9154 82.3371 14.8265 84.3047C14.7784 85.3593 15.4895 85.9806 16.4932 85.9778C26.1626 85.951 35.8312 85.9621 45.5006 85.9621C48.5006 85.9621 51.5006 85.9621 54.5006 85.9621C55.4737 85.9621 56.0247 85.4232 56.0312 84.4695C56.0312 83.9639 56.0312 83.4584 56.0312 82.9537C56.0386 80.9426 56.133 78.9158 55.7173 76.925ZM25.833 52.8834C25.9256 47.513 30.37 43.2324 35.7404 43.4204C41.1108 43.6084 45.07 47.95 45.0349 53.05C44.996 58.7908 40.3339 62.6232 35.4312 62.6139C29.9682 62.5 25.7404 58.2093 25.833 52.8834ZM53.3034 82.976C53.3034 83.2602 53.1552 83.238 52.9682 83.2371C52.0552 83.2371 51.1423 83.2371 50.2293 83.2371H35.4099C29.6376 83.2371 23.8663 83.2315 18.095 83.25C17.6506 83.25 17.5765 83.1278 17.5765 82.7158C17.5765 80.4843 17.5506 78.2528 18.158 76.0769C19.787 70.2485 23.4009 66.1812 28.9997 63.875C29.1008 63.83 29.2112 63.8102 29.3217 63.8171C29.4321 63.824 29.5393 63.8576 29.6339 63.9149C33.471 65.8852 37.3179 65.8994 41.1747 63.9574C41.4108 63.8389 41.6145 63.7565 41.896 63.8741C47.9284 66.3899 51.6182 70.8584 52.9821 77.2334C53.3849 79.1139 53.3043 81.0491 53.3052 82.9713L53.3034 82.976Z" fill="#010101"/>
</svg>
