<svg width="70" height="70" viewBox="0 0 70 70" fill="none" xmlns="http://www.w3.org/2000/svg">
<path d="M29.0374 60.8308L35.9866 64.7361L40.5298 66.7286H42.7616L46.0879 65.6808L48.8193 61.5482L54.5637 49.7519L54.902 48.5529L54.6712 47.123L53.5187 46.2006L51.9047 45.919H50.844L50.7056 44.449L50.2907 43.1116L49.5818 42.3741H47.9391L46.1409 42.6508L46.4176 41.0826L46.2334 39.6069L45.1261 38.8235L44.0195 38.5928L42.2671 38.9153L43.8811 35.0881L46.4176 30.2926L47.2016 28.6327L47.1551 27.5727L46.5559 26.4603L45.541 25.4971L44.4158 25.758L42.9695 28.7559L31.1725 52.3271L30.078 51.3093L27.6921 49.2294L25.165 47.1008L22.0179 44.5916L18.9562 44.1279L16.0313 44.9937L15.832 47.715L20.2728 50.1669L22.2093 51.5036L25.3908 55.8841L29.0374 60.8308Z" fill="#1F9ED3"/>
<path d="M49.0283 23.3391C51.1942 23.3391 52.9501 21.5832 52.9501 19.4173C52.9501 17.2513 51.1942 15.4954 49.0283 15.4954C46.8623 15.4954 45.1064 17.2513 45.1064 19.4173C45.1064 21.5832 46.8623 23.3391 49.0283 23.3391Z" fill="#1F9ED3"/>
<path d="M43.0019 17.2418C42.7604 20.0671 44.9148 22.395 47.5043 22.6272C48.1828 22.6911 48.8671 22.6151 49.515 22.4037C50.1629 22.1924 50.7605 21.8502 51.2707 21.3985C51.781 20.9468 52.1931 20.3951 52.4814 19.7776C52.7697 19.1601 52.9282 18.49 52.947 17.8088C53.0495 15.2738 51.1351 12.9832 48.5177 12.7094C45.491 12.3933 43.2255 14.6631 43.0019 17.2418ZM44.4755 17.7034C44.4755 15.7325 46.0236 14.1557 47.9572 14.1665C49.9146 14.1772 51.4125 15.6866 51.4619 17.5257C51.5229 19.7962 49.6702 21.2067 47.9737 21.1479C46.1189 21.1945 44.4726 19.6163 44.4755 17.7034Z" fill="#0A1F27"/>
<path d="M49.5977 3.00455C40.6453 2.06638 33.9369 8.78194 33.284 16.4092C32.9049 20.8097 34.4967 24.8018 37.2051 27.6959C37.4509 26.9713 37.9598 26.3449 38.3239 25.6812C38.5769 25.2204 38.7998 24.7445 39.0406 24.2793C39.1753 24.0213 39.2907 23.749 39.4577 23.5117C38.2774 21.8306 37.6428 19.8271 37.6402 17.773C37.6502 11.9441 42.2192 7.28115 47.9378 7.31269C53.7274 7.34494 58.1574 11.8086 58.3036 17.2491C58.4842 23.9647 53.0064 28.1359 47.9873 27.9611C47.5723 27.9713 47.1572 27.954 46.7445 27.9095V27.9138C46.718 28.2922 46.5603 28.6018 46.379 28.9293C46.1855 29.2798 46.0364 29.6503 45.8658 30.0123C45.5433 30.6996 45.2473 31.3984 44.9212 32.0836C45.4748 32.2019 46.0351 32.2866 46.599 32.3373C55.2712 33.1156 62.4741 26.4345 62.697 18.0855C63.0002 10.5888 57.3382 3.81372 49.5977 3.00455Z" fill="#1F9ED3"/>
<path d="M27.1507 21.6635C28.0458 21.3517 28.9367 21.0263 29.8376 20.7317C30.5579 20.4974 31.2051 21.0901 31.0668 21.8333C31.0441 21.98 30.9826 22.1179 30.8885 22.2327C30.7945 22.3476 30.6714 22.4351 30.5321 22.4862C30.1494 22.636 29.7588 22.7665 29.3703 22.9019C27.9694 23.3936 26.5673 23.8824 25.164 24.3683C24.9067 24.4579 24.6522 24.5167 24.3842 24.4041C24.0258 24.2536 23.7391 23.8616 23.7642 23.4825C23.7907 23.0904 23.9792 22.7779 24.3655 22.6396C25.2915 22.3085 26.2225 21.991 27.1514 21.6678L27.1507 21.6635Z" fill="#0A1F27"/>
<path d="M33.4868 25.5028C33.6029 25.7894 33.5284 26.0611 33.4001 26.3255C32.6394 27.8942 31.8785 29.4626 31.1174 31.0307C30.8579 31.5632 30.329 31.7682 29.8273 31.5396C29.3385 31.3153 29.1393 30.7512 29.3894 30.2208C29.8538 29.2347 30.3347 28.2556 30.8085 27.2737C31.1117 26.6459 31.4084 26.0145 31.7194 25.391C31.8008 25.2183 31.9322 25.0741 32.0966 24.977C32.2609 24.88 32.4506 24.8345 32.6411 24.8466C32.8316 24.8586 33.0141 24.9276 33.1649 25.0446C33.3157 25.1616 33.4278 25.3212 33.4868 25.5028Z" fill="#0A1F27"/>
<path d="M30.3428 16.4371C30.4969 16.9244 30.4059 17.2548 30.1278 17.5257C29.8117 17.8346 29.4355 17.8798 29.042 17.6956C28.4271 17.4089 27.8193 17.105 27.2079 16.8083C26.211 16.3253 25.2105 15.8494 24.2186 15.3556C23.5162 15.0051 23.4531 14.1013 24.0895 13.677C24.2226 13.5847 24.3785 13.5307 24.5402 13.521C24.7018 13.5113 24.863 13.5462 25.0062 13.6218C26.6341 14.4026 28.2586 15.1876 29.8798 15.9769C30.1257 16.093 30.3034 16.2772 30.3428 16.4371Z" fill="#0A1F27"/>
<path d="M53.6543 44.6081C52.8659 43.4757 51.7385 42.9898 50.3574 43.1575C50.1331 43.1854 50.0973 43.1438 50.0851 42.9296C49.9647 40.8432 48.2166 39.2292 46.1095 39.5668C45.8895 39.6019 45.878 39.5094 45.8694 39.3388C45.7791 37.651 44.651 36.2971 43.0742 35.9775C42.7682 35.9158 42.455 35.9409 42.0709 35.8986C42.1358 35.8203 42.1952 35.7374 42.2486 35.6507C43.5234 33.1068 44.7965 30.562 46.0679 28.0163C47.1222 25.8963 46.1281 23.4817 43.9092 22.8051C42.1447 22.2668 40.3343 23.1634 39.5373 24.7617C36.4177 31.0449 33.284 37.3211 30.1362 43.5904C29.6417 44.5808 29.1522 45.5749 28.6512 46.5855C28.5717 46.5224 28.5136 46.483 28.4634 46.435C27.5124 45.5183 26.4803 44.6955 25.4841 43.8312C23.6772 42.2623 21.5809 41.4323 19.2007 41.2826C17.9106 41.2023 16.632 41.2661 15.3892 41.6409C14.3579 41.9541 13.5258 42.5174 13.0907 43.566C12.8643 44.1093 12.5697 44.6253 12.3067 45.1535C11.9483 45.8666 12.1067 46.3232 12.8256 46.6822C14.8992 47.7172 16.9729 48.7519 19.0466 49.7863C19.1828 49.8523 19.3007 49.9508 19.3899 50.073C21.8941 53.399 24.3978 56.724 26.901 60.0481C27.0251 60.2225 27.189 60.3648 27.379 60.4631C30.5275 62.0305 33.6696 63.6095 36.8238 65.1633C38.4596 65.9868 40.3373 66.1937 42.1131 65.746C43.9529 65.3002 45.4559 64.3068 46.599 62.786C47.32 61.8263 47.7637 60.7147 48.2811 59.6461C48.3679 59.4683 48.4754 59.3028 48.5628 59.1264C50.3546 55.5386 52.1542 51.9594 53.9338 48.3658C54.5738 47.0757 54.4778 45.7856 53.6543 44.6081ZM52.2925 47.3588C52.2166 47.5495 52.1184 47.7308 52.0266 47.915C49.9052 52.1674 47.7835 56.4199 45.6616 60.6724C44.9126 62.1775 43.7494 63.2024 42.2085 63.742C40.6718 64.2351 39.1983 64.1893 37.7871 63.5005C34.6773 61.9782 31.5868 60.4187 28.4878 58.8706C28.3869 58.8145 28.3013 58.7345 28.2384 58.6376C25.7323 55.3045 23.2264 51.9725 20.7208 48.6417C20.5872 48.4633 20.4127 48.3195 20.212 48.2224C18.3442 47.2957 16.4801 46.359 14.6095 45.4409C14.4109 45.3434 14.3665 45.2682 14.4855 45.0725C14.6311 44.8364 14.7551 44.5877 14.856 44.3293C15.018 43.8993 15.3577 43.6964 15.7505 43.5495C16.4872 43.275 17.2555 43.1912 18.036 43.1761C19.4213 43.1361 20.8003 43.3762 22.0905 43.8821C22.6997 44.1222 23.2049 44.5206 23.7181 44.9069C25.2232 46.0393 26.6208 47.2993 27.9954 48.5844C28.1717 48.7485 28.3373 48.9298 28.5616 49.0273C29.0597 49.2423 29.565 49.0273 29.8424 48.4719C30.4888 47.1846 31.1327 45.896 31.7739 44.6059C34.9575 38.2339 38.1407 31.8619 41.3233 25.4899C41.724 24.6872 42.7302 24.3209 43.5344 24.6865C44.4174 25.0885 44.8503 26.0539 44.4661 26.9082C44.0361 27.8629 43.5494 28.7903 43.0814 29.7263C41.744 32.4011 40.4064 35.0747 39.0686 37.747C38.7425 38.4 38.9818 39.0264 39.6211 39.2098C40.0512 39.3338 40.4626 39.1568 40.7234 38.7153C40.9736 38.2917 41.304 37.9706 41.7921 37.8452C42.4622 37.6732 43.0535 37.8309 43.5301 38.3283C43.9952 38.8142 44.1156 39.4033 43.9042 40.0383C43.7372 40.54 43.4455 40.988 43.2269 41.4675C42.9094 42.1634 43.414 42.9009 44.173 42.8457C44.537 42.8206 44.7685 42.6049 44.9456 42.3017C45.3935 41.5363 46.1425 41.2267 46.9717 41.4567C47.9314 41.7219 48.4711 42.7833 48.0919 43.7086C47.9027 44.1716 47.6519 44.6088 47.4469 45.0639C47.181 45.6437 47.4469 46.23 48.0382 46.4113C48.4739 46.5439 48.8982 46.3525 49.1605 45.9096C49.4723 45.3735 49.9217 45.0395 50.5509 44.9908C50.8456 44.9646 51.142 45.0148 51.4116 45.1366C51.6811 45.2584 51.9147 45.4476 52.0898 45.686C52.2649 45.9244 52.3755 46.204 52.411 46.4976C52.4466 46.7913 52.4057 47.0891 52.2925 47.3624V47.3588Z" fill="#0A1F27"/>
</svg>
