<svg width="100" height="100" viewBox="0 0 100 100" fill="none" xmlns="http://www.w3.org/2000/svg">
<path d="M33.0667 78.7833C33.0824 78.3944 32.9917 78.2713 32.5741 78.274C29.4111 78.2935 26.2481 78.2851 23.0861 78.2851C19.8713 78.2851 16.6574 78.2851 13.4435 78.2768C13.1083 78.2768 13.0092 78.3592 13.0204 78.6981C13.0463 79.4879 13.0435 80.2796 13.0204 81.0694C13.0111 81.3935 13.0833 81.5129 13.4352 81.5009C14.2426 81.4722 15.0509 81.4916 15.8583 81.4916C21.4281 81.4916 26.9972 81.4947 32.5657 81.5009C32.9685 81.5009 33.0852 81.4037 33.0667 81C33.0324 80.262 33.0361 79.5213 33.0667 78.7833Z" fill="#1E7EAA"/>
<path d="M57.9487 67.5926C57.9653 67.2037 57.8746 67.0805 57.4561 67.0833C54.294 67.1027 51.1311 67.0935 47.9681 67.0935C44.7542 67.0935 41.5403 67.099 38.3255 67.0861C37.9913 67.0861 37.8913 67.1685 37.9033 67.5074C37.9292 68.2972 37.9264 69.0889 37.9033 69.8787C37.894 70.2027 37.9663 70.3222 38.3181 70.3101C39.1246 70.2814 39.9329 70.3009 40.7413 70.3009C46.3098 70.3009 51.8786 70.304 57.4477 70.3101C57.8514 70.3101 57.9681 70.2129 57.9487 69.8083C57.9153 69.0685 57.9181 68.3277 57.9487 67.5926Z" fill="#1E7EAA"/>
<path d="M72.3157 56.3889C72.3324 56 72.2417 55.8768 71.8231 55.8787C68.6611 55.8991 65.4981 55.8898 62.3361 55.8898C59.1213 55.8898 55.9074 55.8954 52.6935 55.8824C52.3583 55.8824 52.2592 55.9648 52.2704 56.3037C52.2963 57.0935 52.2935 57.8852 52.2704 58.675C52.2611 58.9991 52.3333 59.1185 52.6852 59.1055C53.4917 59.0778 54.3009 59.0972 55.1083 59.0972C60.6781 59.0972 66.2472 59.1003 71.8157 59.1065C72.2185 59.1065 72.3352 59.0139 72.3167 58.6046C72.2787 57.8703 72.2824 57.1296 72.3157 56.3889Z" fill="#1E7EAA"/>
<path d="M86.6752 45.2232C86.6919 44.8343 86.6012 44.7111 86.1826 44.713C83.0206 44.7333 79.8576 44.7241 76.6947 44.7241C73.4808 44.7241 70.2669 44.7296 67.0521 44.7167C66.7178 44.7167 66.6178 44.7991 66.6299 45.138C66.6558 45.9278 66.653 46.7195 66.6299 47.5093C66.6206 47.8333 66.6928 47.9528 67.0447 47.9398C67.8512 47.912 68.6595 47.9315 69.4678 47.9315C75.0363 47.9315 80.6052 47.9346 86.1743 47.9408C86.578 47.9408 86.6947 47.8482 86.6752 47.4389C86.6419 46.7019 86.6447 45.9602 86.6752 45.2232Z" fill="#1E7EAA"/>
<path d="M66.0497 27.1796C67.0923 27.9389 68.1318 28.7018 69.1683 29.4685C69.2827 29.5564 69.424 29.6022 69.5683 29.5981C73.9195 29.5839 78.2713 29.5728 82.6238 29.5648C82.749 29.5687 82.8722 29.5327 82.9757 29.462C84.1485 28.6688 85.3213 27.8799 86.4942 27.0954C86.555 27.0604 86.6043 27.0083 86.6357 26.9456C86.6672 26.8829 86.6794 26.8123 86.671 26.7426C86.6571 25.9759 86.6544 25.2083 86.647 24.4407C86.6414 23.8639 86.4618 23.6861 85.8701 23.6917L76.2266 23.7787L66.5534 23.8667C66.0423 23.8713 65.8488 24.0657 65.8516 24.5741C65.8562 25.3222 65.8701 26.0694 65.8673 26.8176C65.8629 26.8887 65.8775 26.9597 65.9095 27.0233C65.9416 27.0869 65.99 27.1409 66.0497 27.1796Z" fill="#1E7EAA"/>
<path d="M86.6869 28.7416L86.423 28.9185C85.4453 29.5827 84.4681 30.2475 83.4916 30.9129C83.352 31.0148 83.1828 31.0681 83.0101 31.0648C81.6212 31.0527 80.2323 31.0537 78.8434 31.0398C78.8011 31.0377 78.7587 31.0418 78.7175 31.0518C78.7037 31.0494 78.6898 31.0478 78.6758 31.0472C78.4684 31.0426 78.2638 31.0833 78.0573 31.0796C78.0144 31.0789 77.9716 31.0848 77.9304 31.0972L77.2036 31.0926C77.1468 31.0924 77.0904 31.1021 77.0369 31.1213C77.0087 31.1149 76.9797 31.1128 76.9508 31.1148C76.5536 31.1259 76.1564 31.124 75.7591 31.1277C75.6239 31.1206 75.4882 31.1305 75.3554 31.1574C74.7999 31.1481 74.2517 31.1185 73.699 31.1157H73.6554C73.53 31.088 73.4011 31.079 73.273 31.0889C72.3703 31.0889 71.4666 31.0889 70.5628 31.0824C69.9823 31.0824 69.3591 31.1889 68.8323 31.012C68.3054 30.8352 67.8795 30.3639 67.4082 30.0222C66.9175 29.6657 66.4258 29.3111 65.8906 28.925C65.8906 29.0565 65.8906 29.1305 65.8906 29.2028C65.9172 32.1941 65.9443 35.1861 65.9721 38.1787C65.9777 38.762 66.1397 38.9194 66.7212 38.9194C73.1625 38.862 79.6036 38.8037 86.0443 38.7444C86.5999 38.7398 86.774 38.5639 86.7684 38.0111L86.6878 29.0352C86.6888 28.9509 86.6879 28.8676 86.6869 28.7416Z" fill="#1E7EAA"/>
<path d="M25.8212 62.85C25.6702 62.787 25.561 62.8315 25.4341 62.8944C23.365 63.9352 21.2996 63.9274 19.2378 62.8713C19.1869 62.8406 19.1294 62.8227 19.0701 62.819C19.0108 62.8153 18.9514 62.8259 18.8971 62.85C15.8903 64.0882 13.9499 66.2722 13.0758 69.4018C12.7499 70.5703 12.7638 71.7685 12.7638 72.9666C12.7638 73.1879 12.8036 73.2537 13.0415 73.2528C16.1409 73.2435 19.24 73.2413 22.3388 73.2463H30.2971C30.7869 73.2463 31.2776 73.2463 31.7675 73.2463C31.8684 73.2463 31.948 73.2592 31.948 73.1055C31.948 72.074 31.9906 71.0352 31.7739 70.0213C31.0425 66.6 29.0601 64.2009 25.8212 62.85Z" fill="#1E7EAA"/>
<path d="M22.5002 61.5111C25.1326 61.5111 27.6354 59.4602 27.6567 56.3759C27.6554 55.0177 27.1181 53.7149 26.1615 52.7506C25.205 51.7864 23.9065 51.2387 22.5484 51.2265C21.1902 51.2143 19.8821 51.7386 18.9084 52.6855C17.9347 53.6324 17.3741 54.9253 17.3484 56.2833C17.3021 59.1472 19.5715 61.4481 22.5002 61.5111Z" fill="#1E7EAA"/>
<path d="M32.9024 69.3426C32.9024 69.3315 32.9024 69.3204 32.8959 69.3102C32.8032 69.0516 32.7344 68.785 32.6903 68.5139C32.6591 68.2766 32.6042 68.043 32.5265 67.8167C32.462 67.6666 32.4091 67.5118 32.3681 67.3537C32.3543 67.3283 32.3422 67.302 32.332 67.275C31.7996 65.848 30.9763 64.5474 29.9144 63.4555C29.0158 62.5175 27.9601 61.7438 26.795 61.1694C26.5626 61.0555 26.5635 60.9954 26.7302 60.8157C28.0265 59.4268 28.6107 57.7602 28.5431 55.875C28.523 55.0607 28.3338 54.2595 27.9876 53.5222C27.9568 53.4618 27.9349 53.3972 27.9228 53.3305C27.6144 52.8426 27.4246 52.2805 27.02 51.8583C26.9679 51.8371 26.9227 51.8019 26.8894 51.7565C26.2307 50.9847 25.4031 50.3748 24.4709 49.9741C21.7542 48.8028 18.6996 49.4741 16.6931 51.6907C16.6571 51.7323 16.6164 51.7696 16.5718 51.8018C16.3866 52.0592 16.2015 52.3092 16.0163 52.5685C15.8737 52.7768 15.7783 53.0472 15.6172 53.2444C15.6166 53.2984 15.603 53.3515 15.5774 53.3991C15.154 54.2997 14.943 55.2855 14.9607 56.2805C15.0005 58.0278 15.5996 59.5583 16.7959 60.8417C16.9255 60.9815 16.9755 61.0389 16.7561 61.15C14.1376 62.4768 12.2663 64.4926 11.1941 67.2333C11.1801 67.2697 11.1634 67.305 11.1441 67.3389C11.1413 67.3851 11.1307 67.4305 11.1126 67.4731C10.9163 67.9361 10.6783 68.3991 10.6154 68.9C10.6286 68.938 10.6342 68.9783 10.632 69.0185C10.632 69.0389 10.632 69.0583 10.632 69.0787C10.6503 69.1264 10.6503 69.1792 10.632 69.2268C10.5681 69.5325 10.5227 69.8417 10.4959 70.1528C10.3857 71.2342 10.482 72.3204 10.4329 73.4018C10.4061 73.9815 10.7968 74.3278 11.3487 74.3213C16.6623 74.3065 21.9765 74.3034 27.2913 74.312H32.2376C32.7728 74.312 33.0709 74.0157 33.0792 73.4917C33.0792 73.2139 33.0792 72.9361 33.0792 72.6583C33.0792 71.5509 33.1311 70.437 32.9024 69.3426ZM16.482 56.1296C16.4943 54.7299 17.0621 53.3923 18.0606 52.4112C19.059 51.4301 20.4063 50.8859 21.8061 50.8981C23.2058 50.9104 24.5434 51.4782 25.5245 52.4767C26.5056 53.4752 27.0499 54.8225 27.0376 56.2222C27.0163 59.3787 24.4542 61.4833 21.7598 61.4787C18.7515 61.412 16.4283 59.0574 16.482 56.1296ZM31.5746 72.6657C31.5746 72.8222 31.4931 72.8102 31.3894 72.8092C30.8876 72.8092 30.3857 72.8092 29.8839 72.8092H21.7357C18.5623 72.8092 15.39 72.8117 12.2191 72.8167C11.9746 72.8167 11.9339 72.7491 11.9339 72.5231C11.9339 71.2963 11.9191 70.0694 12.2533 68.8741C13.1478 65.6704 15.1339 63.4352 18.2116 62.1685C18.267 62.1432 18.3277 62.1319 18.3884 62.1356C18.4491 62.1393 18.508 62.1579 18.5598 62.1898C20.6691 63.2731 22.7836 63.2809 24.9033 62.2129C25.0329 62.1481 25.145 62.1028 25.2996 62.1676C28.6154 63.55 30.6431 66.0055 31.3922 69.5092C31.6209 70.5463 31.5746 71.6092 31.5746 72.6657Z" fill="#010101"/>
<path d="M87.6568 24.0333C87.6551 23.8099 87.6381 23.5868 87.6058 23.3657C87.4771 22.4759 86.6966 21.7333 85.8012 21.7204C84.4327 21.7 83.0623 21.7204 81.6929 21.7426C81.4623 21.7426 81.3762 21.6944 81.3558 21.45C81.2253 19.8602 79.9818 18.6287 78.3994 18.6046C76.5929 18.5778 74.7882 18.5991 72.9799 18.6528C71.3031 18.7018 70.0521 20.1509 70.0549 21.6546C70.0549 21.8842 69.9234 21.8398 69.7938 21.8398C68.4531 21.8555 67.1086 21.8444 65.7725 21.8963C64.6818 21.9379 63.8697 22.8463 63.879 23.9333C63.9197 28.5475 63.962 33.1614 64.0058 37.775C64.0002 37.969 64.0158 38.163 64.0521 38.3537C64.2827 39.3398 65.1095 39.9676 66.1595 39.9592C69.404 39.9315 72.6484 39.9021 75.8929 39.8713C79.1373 39.8404 82.3722 39.8114 85.5975 39.7842C85.8995 39.7911 86.2 39.7386 86.4818 39.6296C87.3225 39.2768 87.7919 38.5287 87.7836 37.5518C87.7423 33.0463 87.7 28.5401 87.6568 24.0333ZM71.6049 21.5426C71.7392 20.7917 72.354 20.2046 73.1216 20.1917C74.8401 20.162 76.5586 20.1466 78.2771 20.1454C79.1438 20.1454 79.791 20.7731 79.8938 21.6268C79.9206 21.8481 79.7892 21.8055 79.6688 21.8065L75.7651 21.8417V21.7898C74.4688 21.8009 73.1632 21.8083 71.8623 21.8287C71.6318 21.8361 71.5605 21.7935 71.6049 21.5426ZM65.3651 24.0602C65.3651 23.5518 65.5503 23.3574 66.0669 23.3528L75.7392 23.2602L85.3827 23.1731C85.9697 23.1676 86.154 23.3454 86.1595 23.9231C86.1679 24.6898 86.1697 25.4574 86.1845 26.2241C86.1928 26.2937 86.1805 26.3643 86.149 26.427C86.1176 26.4897 86.0685 26.5418 86.0077 26.5768C84.8287 27.3602 83.6558 28.1491 82.4892 28.9435C82.386 29.0147 82.2626 29.0507 82.1373 29.0463C77.7861 29.0555 73.4342 29.067 69.0818 29.0805C68.9374 29.0843 68.7961 29.0382 68.6818 28.95C67.6472 28.1864 66.6077 27.4253 65.5632 26.6667C65.5026 26.6286 65.4534 26.5749 65.4208 26.5111C65.3882 26.4474 65.3734 26.376 65.3781 26.3046C65.3827 25.5555 65.3707 24.8083 65.3651 24.0602ZM85.5595 38.2268L66.2373 38.4028C65.6549 38.4028 65.4966 38.2481 65.4873 37.662C65.4608 34.6707 65.4336 31.6787 65.4058 28.6861C65.4058 28.612 65.4058 28.5389 65.4058 28.4083L66.9225 29.5055C67.3938 29.8472 67.8207 30.3185 68.3466 30.4954C68.8725 30.6722 69.4966 30.562 70.0771 30.5667C70.9808 30.5731 71.8845 30.5722 72.7882 30.5722C72.916 30.5628 73.0445 30.5718 73.1697 30.5991H73.2132C73.7688 30.5991 74.3179 30.6324 74.8697 30.6407C75.0026 30.6144 75.1382 30.6047 75.2734 30.612C75.6707 30.612 76.0688 30.612 76.466 30.5981C76.4946 30.5966 76.5232 30.5988 76.5512 30.6046C76.6047 30.5858 76.6611 30.5764 76.7179 30.5768C76.9605 30.5768 77.2021 30.5768 77.4447 30.5768C77.4858 30.5645 77.5286 30.5585 77.5716 30.5592C77.779 30.5639 77.9827 30.5222 78.1901 30.5268C78.2049 30.5268 78.2179 30.5268 78.2318 30.5315C78.273 30.5219 78.3154 30.5179 78.3577 30.5194C79.7466 30.5342 81.1355 30.5324 82.5244 30.5454C82.697 30.5478 82.8658 30.4946 83.0058 30.3935C83.9818 29.7315 84.9595 29.0741 85.9373 28.4055L86.2003 28.2278C86.2003 28.3537 86.2003 28.4379 86.2003 28.5213C86.2268 31.5139 86.254 34.5059 86.2818 37.4972C86.2892 38.05 86.116 38.2259 85.5558 38.2305L85.5595 38.2268Z" fill="#070808"/>
<path d="M53.6401 40.8333C51.8321 40.9068 50.0237 40.9898 48.2151 41.0824C47.3401 41.1287 46.9567 41.9 47.4262 42.638C47.6892 43.0509 47.9503 43.4713 48.241 43.8602C48.4104 44.088 48.3549 44.1815 48.1364 44.3231C44.6913 46.5935 41.2487 48.8688 37.8086 51.1491C38.1216 51.7046 38.4651 52.2518 38.816 52.7889C39.328 52.4463 39.8447 52.1111 40.3577 51.7704C43.3058 49.8179 46.253 47.8645 49.1993 45.9102C49.429 45.7574 49.528 45.7787 49.6623 46.0102C49.9253 46.4481 50.2077 46.8759 50.5077 47.2889C50.9827 47.9426 51.8558 47.8722 52.2012 47.1555C52.9913 45.5142 53.7746 43.8701 54.5512 42.2231C54.8817 41.5333 54.403 40.8028 53.6401 40.8333Z" fill="#010101"/>
<path d="M86.7605 42.7963C79.608 42.7963 72.4546 42.7963 65.3003 42.7963C64.4512 42.7963 64.1031 43.1194 64.0966 43.9694C64.0824 45.5342 64.0824 47.099 64.0966 48.6639C64.104 49.4972 64.4392 49.8046 65.2633 49.8046H86.8225C87.6031 49.8046 87.9484 49.4602 87.9494 48.6768C87.9494 47.112 87.9494 45.5472 87.9494 43.9824C87.9484 43.1481 87.5938 42.7963 86.7605 42.7963ZM85.4577 47.9259C80.6114 47.9129 75.7657 47.9102 70.9207 47.9176C69.4262 47.9176 67.9308 47.9074 66.4355 47.925C66.0947 47.925 65.9938 47.8324 66.0049 47.4907C66.0281 46.7185 66.0308 45.9444 66.0049 45.1759C65.992 44.8148 66.0975 44.7129 66.4614 44.7185C69.6753 44.7324 72.8892 44.7268 76.1021 44.7268C79.2503 44.7268 82.392 44.7342 85.5364 44.7166C85.9429 44.7166 86.0586 44.8194 86.0392 45.2231C85.9971 45.9438 85.9971 46.6663 86.0392 47.387C86.0725 47.8787 85.8725 47.9268 85.454 47.9259H85.4577Z" fill="#010101"/>
<path d="M59.0879 66.3306C59.0814 65.513 58.7305 65.1898 57.9073 65.1898H36.3953C35.5971 65.1898 35.2314 65.5546 35.2305 66.3482C35.2305 67.8963 35.2305 69.4438 35.2305 70.9907C35.2305 71.8796 35.5518 72.1945 36.4407 72.1945H57.8999C58.7416 72.1945 59.0814 71.8907 59.0879 71.0722C59.1021 69.4932 59.1021 67.9127 59.0879 66.3306ZM56.7453 70.3185C53.5462 70.3065 50.3471 70.3111 47.1481 70.3111C43.9832 70.3111 40.8184 70.3028 37.6545 70.3213C37.2416 70.3213 37.1305 70.2093 37.1471 69.8065C37.1786 69.0343 37.1684 68.2593 37.1471 67.4861C37.1407 67.1991 37.2194 67.1093 37.5175 67.1093C43.9675 67.1173 50.4181 67.1173 56.8694 67.1093C57.1471 67.1093 57.2175 67.1843 57.212 67.4537C57.1953 68.262 57.1842 69.0713 57.212 69.8787C57.2286 70.2639 57.0879 70.3204 56.7453 70.3185Z" fill="#010101"/>
<path d="M73.509 55.0926C73.509 54.362 73.172 54.0065 72.4488 54.0065C65.2099 54.0022 57.9714 54.0022 50.7331 54.0065C50.0099 54.0065 49.6738 54.363 49.672 55.0917C49.6673 56.6389 49.672 58.187 49.672 59.7343C49.672 60.7037 49.9923 61.0241 50.9683 61.0241H62.7275C65.9257 61.0241 69.1238 61.0241 72.322 61.0241C73.1423 61.0241 73.5099 60.6694 73.5118 59.8907C73.513 58.2932 73.5121 56.6938 73.509 55.0926ZM71.6312 58.5185C71.6553 58.9704 71.5498 59.1204 71.0562 59.1176C66.2933 59.0963 61.5303 59.1046 56.7664 59.1046C55.2016 59.1046 53.6368 59.087 52.0729 59.1167C51.6266 59.125 51.5275 58.988 51.5488 58.5704C51.5849 57.8662 51.5849 57.1606 51.5488 56.4565C51.5257 56.0204 51.622 55.8805 52.0979 55.8852C55.2618 55.9102 58.4257 55.8981 61.5896 55.8981C64.7535 55.8981 67.9183 55.9102 71.0822 55.8852C71.5581 55.8852 71.6553 56.0194 71.6312 56.4565C71.5947 57.1433 71.5947 57.8317 71.6312 58.5185Z" fill="#010101"/>
<path d="M32.8981 76.4009H11.437C10.5731 76.4009 10.2861 76.6787 10.2852 77.5306C10.2852 79.0269 10.2852 80.5232 10.2852 82.0195C10.2852 83.2111 10.4518 83.375 11.6666 83.375H22.1898C25.7663 83.375 29.3432 83.375 32.9203 83.375C33.812 83.375 34.0861 83.0972 34.087 82.2046C34.087 80.6744 34.087 79.1438 34.087 77.613C34.087 76.6991 33.7972 76.4009 32.8981 76.4009ZM31.7083 81.5037C26.1398 81.4901 20.5706 81.4871 15.0009 81.4945C14.1935 81.4945 13.3852 81.475 12.5777 81.5037C12.2268 81.5158 12.1537 81.3963 12.1629 81.0722C12.1852 80.2824 12.1879 79.4908 12.1629 78.7009C12.1518 78.362 12.2509 78.2787 12.5861 78.2796C15.8 78.2926 19.0148 78.288 22.2287 78.288C25.3916 78.288 28.5537 78.2963 31.7166 78.2769C32.1342 78.2769 32.225 78.3972 32.2092 78.7861C32.1787 79.5269 32.175 80.2676 32.2092 81.0019C32.2287 81.4065 32.1111 81.5056 31.7083 81.5037Z" fill="#010101"/>
</svg>
