<svg width="100" height="100" viewBox="0 0 100 100" fill="none" xmlns="http://www.w3.org/2000/svg">
<path d="M74.248 59.0482H27.2943C25.2559 59.0482 23.6035 60.7006 23.6035 62.7389V77.1148C23.6035 79.1532 25.2559 80.8056 27.2943 80.8056H74.248C76.2863 80.8056 77.9387 79.1532 77.9387 77.1148V62.7389C77.9387 60.7006 76.2863 59.0482 74.248 59.0482Z" fill="#1E7EAA"/>
<path d="M41.8306 39.6518C41.8352 39.4981 41.7871 39.4268 41.6398 39.3972C41.4028 39.35 41.1676 39.2916 40.9324 39.2379C40.538 39.1474 40.166 38.9777 39.8392 38.739C39.5124 38.5002 39.2375 38.1976 39.0313 37.8493C38.8251 37.5011 38.6919 37.1146 38.6397 36.7133C38.5875 36.3119 38.6175 35.9042 38.7278 35.5148C38.8759 34.9889 39.1908 34.5555 39.4685 34.1018C39.5482 33.9713 39.5343 33.9102 39.4315 33.812C39.1463 33.5407 38.8639 33.2648 38.5982 32.974C38.4852 32.8509 38.4065 32.8713 38.288 32.95C38.0583 33.1027 37.825 33.25 37.5861 33.387C37.0604 33.6986 36.451 33.8392 35.8419 33.7894C35.2329 33.7396 34.6543 33.502 34.1861 33.1092C33.5926 32.6185 33.2602 31.9805 33.1111 31.2342C33.0685 31.0222 33.0676 30.7509 32.9352 30.6203C32.8028 30.4898 32.5213 30.5805 32.3065 30.5815C32.0056 30.5815 31.6176 30.4565 31.4296 30.6259C31.2417 30.7953 31.2602 31.1815 31.1908 31.474C30.7815 33.1815 28.9861 34.1916 27.3389 33.6426C26.8648 33.4842 26.4648 33.1916 26.0426 32.9315C25.9296 32.8611 25.8676 32.8555 25.7722 32.9565C25.4889 33.2537 25.1954 33.5416 24.9019 33.8296C24.8296 33.9009 24.7871 33.9518 24.8584 34.0583C25.0259 34.3083 25.1824 34.5657 25.3343 34.8259C25.7324 35.5054 25.8444 36.3153 25.6456 37.0774C25.4468 37.8394 24.9535 38.4914 24.2741 38.8898C23.7954 39.174 23.2621 39.2685 22.7352 39.3898C22.5815 39.4259 22.5148 39.4824 22.5232 39.6518C22.5426 40.0121 22.5426 40.3731 22.5232 40.7333C22.5083 40.9602 22.5908 41.0379 22.8009 41.0657C23.0061 41.1027 23.2092 41.1506 23.4093 41.2092C25.1352 41.6324 26.1167 43.3389 25.5982 45.024C25.4454 45.5185 25.1352 45.9305 24.875 46.3657C24.8241 46.4518 24.788 46.5083 24.8815 46.5981C25.1963 46.9 25.5009 47.2129 25.8074 47.524C25.8352 47.5518 25.8676 47.5759 25.9 47.6018L26.0398 47.5148C26.2815 47.3648 26.5195 47.2102 26.7648 47.0666C27.149 46.8359 27.5807 46.6956 28.0272 46.6563C28.4736 46.617 28.9231 46.6797 29.3418 46.8397C29.7604 46.9997 30.1371 47.2529 30.4435 47.58C30.7499 47.9071 30.9779 48.2996 31.1102 48.7278C31.2121 49.0444 31.2787 49.3759 31.3593 49.6963C31.3871 49.8102 31.4241 49.8815 31.5704 49.875C31.9806 49.862 32.3926 49.8629 32.8028 49.875C32.9361 49.875 32.9787 49.8203 33.0028 49.7139C33.0574 49.4694 33.1148 49.2259 33.1704 48.9815C33.2564 48.599 33.4173 48.2374 33.6439 47.9175C33.8705 47.5975 34.1582 47.3257 34.4904 47.1176C34.8227 46.9095 35.1928 46.7693 35.5796 46.7051C35.9663 46.6409 36.3619 46.6539 36.7435 46.7435C37.3278 46.8777 37.8176 47.1953 38.3083 47.5129C38.4306 47.5916 38.4935 47.5907 38.5972 47.4824C38.8732 47.1898 39.1574 46.9049 39.45 46.6277C39.5509 46.5352 39.55 46.4676 39.4759 46.3574C39.313 46.1148 39.1639 45.862 39.013 45.6111C38.1982 44.2361 38.6741 42.3953 40.0472 41.574C40.5389 41.2796 41.0908 41.1833 41.6333 41.0565C41.7722 41.024 41.8398 40.9731 41.8333 40.8092C41.8158 40.424 41.8176 40.037 41.8306 39.6518ZM32.1519 44.6815C29.9046 44.7231 27.6343 42.874 27.7074 40.0518C27.7658 37.6796 29.7926 35.7444 32.2324 35.7676C34.6722 35.7907 36.6408 37.7963 36.6333 40.2778C36.6259 42.6852 34.6083 44.7166 32.1519 44.6815Z" fill="#1E7EAA"/>
<path d="M74.2831 19.1722C73.122 19.187 71.9609 19.1889 70.7998 19.1722C70.5099 19.1676 70.4229 19.225 70.4238 19.5361C70.4349 24.8021 70.4377 30.0679 70.4322 35.3333C70.4322 40.6092 70.4294 45.887 70.4238 51.1667C70.4238 51.4787 70.5109 51.5296 70.7942 51.5259C71.9544 51.5083 73.1164 51.5065 74.2766 51.5259C74.5636 51.5305 74.6044 51.4426 74.6044 51.1833C74.597 44.487 74.5951 37.7895 74.5988 31.0907C74.5988 27.2241 74.6007 23.3577 74.6044 19.4917C74.609 19.2287 74.5368 19.1667 74.2831 19.1722Z" fill="#1E7EAA"/>
<path d="M51.3521 26.4917C50.1808 26.5018 49.0095 26.5065 47.8391 26.4917C47.5521 26.487 47.4688 26.5398 47.4688 26.8509C47.4817 30.9028 47.4771 34.9556 47.4771 39.0074C47.4771 43.0593 47.4771 47.1324 47.4715 51.1954C47.4715 51.438 47.5058 51.5278 47.7808 51.5231C48.9725 51.5056 50.1641 51.5102 51.3558 51.5231C51.5743 51.5231 51.6521 51.4917 51.6521 51.2454C51.6441 43.0892 51.6441 34.933 51.6521 26.7768C51.6484 26.5222 51.5734 26.4898 51.3521 26.4917Z" fill="#1E7EAA"/>
<path d="M63.1116 41.1195C63.1116 37.73 63.1116 34.3401 63.1116 30.95C63.1116 30.7269 63.0717 30.6546 62.8338 30.6574C61.6301 30.6722 60.4264 30.6704 59.2227 30.6574C59.0004 30.6574 58.9551 30.7213 58.9551 30.9352C58.9606 37.705 58.9606 44.4741 58.9551 51.2426C58.9551 51.4963 59.0477 51.5204 59.2551 51.5204C60.4366 51.5121 61.619 51.5065 62.8004 51.5204C63.0662 51.5204 63.1162 51.4482 63.1153 51.1954C63.1085 47.8374 63.1072 44.4787 63.1116 41.1195Z" fill="#1E7EAA"/>
<path d="M42.4139 38.9111C42.4207 38.7374 42.3654 38.567 42.2581 38.4302C42.1507 38.2935 41.9982 38.1994 41.8278 38.1648C41.3648 38.0445 40.9019 37.9315 40.4389 37.8204C39.3121 37.55 38.8648 36.4824 39.463 35.4889C39.7093 35.0806 39.963 34.6778 40.2037 34.2676C40.4121 33.9167 40.3889 33.613 40.1111 33.3297C39.4815 32.6889 38.8482 32.0534 38.2111 31.4232C37.9065 31.1222 37.5963 31.0963 37.2306 31.3148C36.8065 31.5676 36.388 31.8297 35.963 32.0797C35.0306 32.6278 33.9621 32.1778 33.7056 31.1306C33.5908 30.6602 33.4815 30.1889 33.3602 29.7204C33.2509 29.2982 32.9982 29.1074 32.563 29.1065C31.6988 29.1065 30.8346 29.1065 29.9704 29.1065C29.5074 29.1065 29.2426 29.3158 29.1371 29.7713C29.0361 30.1935 28.9333 30.6148 28.8343 31.0371C28.5565 32.2074 27.5195 32.6519 26.4861 32.0371C26.0917 31.8019 25.7009 31.5593 25.3056 31.3241C24.9102 31.0889 24.6111 31.1232 24.2871 31.4454C23.6698 32.059 23.0525 32.6763 22.4352 33.2972C22.1306 33.6056 22.0972 33.926 22.3213 34.2963C22.563 34.6972 22.8111 35.0945 23.0537 35.4945C23.6426 36.4685 23.1908 37.5528 22.088 37.8176C21.6093 37.9334 21.1296 38.0463 20.6537 38.1704C20.501 38.2056 20.3646 38.2913 20.2667 38.4136C20.1687 38.536 20.1149 38.6878 20.1139 38.8445C20.1053 39.7834 20.1053 40.7229 20.1139 41.663C20.1139 42.0204 20.3139 42.2537 20.6695 42.3445C21.138 42.4658 21.6083 42.5797 22.0787 42.6926C23.2028 42.9639 23.6528 44.038 23.0482 45.0297C22.8062 45.4241 22.5654 45.8155 22.3259 46.2037C22.2331 46.3304 22.182 46.4828 22.1796 46.6398C22.1776 46.7461 22.1985 46.8515 22.2409 46.949C22.2832 47.0464 22.346 47.1336 22.425 47.2047C23.0482 47.8269 23.6676 48.4528 24.2917 49.0741C24.6009 49.3824 24.9121 49.4167 25.2889 49.1917C25.6982 48.9472 26.113 48.7121 26.5102 48.451C27.4454 47.8343 28.6019 48.3741 28.825 49.4352C28.9259 49.9084 29.0417 50.3787 29.1676 50.8463C29.2667 51.2167 29.5269 51.4019 29.9028 51.4019C30.8009 51.4019 31.6985 51.4019 32.5954 51.4019C32.9926 51.4019 33.2528 51.1963 33.3537 50.8037C33.4722 50.3408 33.6121 49.8852 33.6898 49.4148C33.8435 48.4945 34.9704 47.7843 35.9908 48.4389C36.3991 48.7 36.8167 48.9472 37.2333 49.1954C37.6037 49.413 37.9148 49.3806 38.2121 49.0806C38.8293 48.4633 39.4466 47.846 40.0639 47.2287C40.3917 46.8972 40.425 46.588 40.1824 46.1871C39.9398 45.7861 39.6908 45.3908 39.4491 44.9898C38.8695 44.0287 39.3278 42.9528 40.4222 42.6889C40.9019 42.5741 41.3806 42.4611 41.8565 42.3361C42.0182 42.3011 42.1625 42.2102 42.264 42.0796C42.3656 41.9489 42.418 41.7867 42.4121 41.6213C42.4188 40.7207 42.4195 39.8173 42.4139 38.9111ZM40.7185 41.0871C40.1759 41.2139 39.6241 41.3102 39.1324 41.6047C37.7584 42.4269 37.2806 44.2667 38.0982 45.6417C38.2472 45.8935 38.3963 46.1454 38.5611 46.388C38.6352 46.4982 38.6352 46.563 38.5352 46.6584C38.2432 46.9361 37.959 47.221 37.6824 47.513C37.5806 47.6213 37.5158 47.6222 37.3935 47.5435C36.9028 47.2259 36.4121 46.9084 35.8287 46.7741C35.447 46.6839 35.0513 46.6704 34.6643 46.7343C34.2774 46.7983 33.907 46.9384 33.5746 47.1466C33.2422 47.3547 32.9545 47.6268 32.728 47.9471C32.5016 48.2673 32.341 48.6293 32.2556 49.0121C32.2 49.2565 32.1426 49.5 32.088 49.7445C32.063 49.8519 32.0213 49.9093 31.888 49.9056C31.4778 49.8945 31.0658 49.8935 30.6556 49.9056C30.5083 49.9056 30.4704 49.8398 30.4445 49.7269C30.3639 49.4028 30.2972 49.0787 30.1954 48.7574C30.0627 48.3305 29.8349 47.9391 29.5291 47.6129C29.2234 47.2868 28.8476 47.0342 28.43 46.8743C28.0125 46.7144 27.5641 46.6513 27.1187 46.6897C26.6732 46.7282 26.2423 46.8672 25.8583 47.0963C25.613 47.2398 25.375 47.3945 25.1333 47.5445L24.9935 47.6315C24.963 47.6065 24.9315 47.5824 24.9009 47.5547C24.5926 47.2463 24.288 46.9334 23.975 46.6287C23.8824 46.5361 23.9167 46.4824 23.9685 46.3963C24.2306 45.9611 24.5389 45.5491 24.6908 45.0547C25.2102 43.3732 24.2278 41.663 22.5028 41.2398C22.3026 41.1816 22.0996 41.1337 21.8945 41.0963C21.6833 41.0685 21.6009 40.9908 21.6167 40.7639C21.6361 40.404 21.6361 40.0433 21.6167 39.6834C21.6083 39.5102 21.675 39.4565 21.8278 39.4204C22.3546 39.2991 22.8889 39.2047 23.3676 38.9204C24.047 38.522 24.5403 37.87 24.7391 37.108C24.9379 36.3459 24.826 35.536 24.4278 34.8565C24.275 34.5972 24.1195 34.3389 23.9519 34.0889C23.8806 33.9824 23.9232 33.9315 23.9954 33.8602C24.2889 33.5722 24.5824 33.2843 24.8658 32.9871C24.9583 32.8871 25.0232 32.8945 25.1361 32.9621C25.5537 33.2222 25.9537 33.5176 26.4278 33.6732C28.075 34.2232 29.8704 33.2102 30.2787 31.5056C30.3491 31.213 30.3343 30.8232 30.5185 30.6574C30.7028 30.4917 31.0945 30.6121 31.3954 30.6121C31.6102 30.6121 31.8871 30.5195 32.0232 30.6519C32.1593 30.7843 32.1565 31.0528 32.1991 31.2648C32.3491 32.0111 32.6815 32.6491 33.275 33.1398C33.7431 33.5327 34.3217 33.7705 34.9308 33.8202C35.5399 33.87 36.1494 33.7293 36.675 33.4176C36.913 33.2797 37.1472 33.1324 37.3769 32.9797C37.4945 32.9009 37.5741 32.8815 37.6871 33.0047C37.9537 33.2945 38.2361 33.5704 38.5204 33.8426C38.6232 33.9398 38.6371 34.0009 38.5574 34.1315C38.2796 34.5861 37.9621 35.0185 37.8167 35.5445C37.7062 35.9338 37.6761 36.3415 37.7282 36.7428C37.7803 37.1442 37.9134 37.5307 38.1195 37.879C38.3257 38.2272 38.6005 38.5299 38.9272 38.7686C39.254 39.0074 39.6259 39.1771 40.0204 39.2676C40.2565 39.3213 40.4917 39.3797 40.7287 39.4269C40.8759 39.4565 40.9241 39.5278 40.9195 39.6815C40.9065 40.0676 40.9046 40.4537 40.9195 40.8389C40.9259 41.0037 40.8565 41.0547 40.7185 41.0871Z" fill="#010101"/>
<path d="M31.3156 35.7972C28.8758 35.7731 26.8489 37.7083 26.7906 40.0806C26.7212 42.9046 28.9915 44.7546 31.2351 44.7102C33.6915 44.7444 35.7091 42.7083 35.7156 40.3093C35.7267 37.8268 33.7452 35.8204 31.3156 35.7972ZM31.2638 43.2139C30.8721 43.2166 30.4837 43.1414 30.1214 42.9926C29.759 42.8438 29.4299 42.6244 29.1531 42.3472C28.8763 42.07 28.6574 41.7405 28.5092 41.3779C28.361 41.0153 28.2864 40.6269 28.2897 40.2352C28.2897 38.6213 29.6267 37.2991 31.261 37.3C31.6537 37.293 32.0439 37.3644 32.4087 37.5099C32.7735 37.6554 33.1058 37.8721 33.3859 38.1473C33.6661 38.4226 33.8887 38.7509 34.0406 39.1131C34.1925 39.4753 34.2707 39.8642 34.2707 40.2569C34.2707 40.6497 34.1925 41.0386 34.0406 41.4008C33.8887 41.763 33.6661 42.0913 33.3859 42.3666C33.1058 42.6418 32.7735 42.8585 32.4087 43.004C32.0439 43.1495 31.6537 43.2208 31.261 43.2139H31.2638Z" fill="#010101"/>
<path d="M75.8982 16.7833C75.8982 16.5194 75.8214 16.462 75.5705 16.463C73.01 16.4722 70.4498 16.4722 67.8899 16.463C67.5927 16.463 67.5195 16.5306 67.5195 16.8333C67.53 22.7938 67.5325 28.7537 67.5269 34.713C67.5269 40.6938 67.5245 46.6747 67.5195 52.6556C67.5195 52.9481 67.6029 53.0074 67.8797 53.0065C70.4402 52.9954 73.0019 52.9954 75.5649 53.0065C75.8353 53.0065 75.9075 52.9472 75.9075 52.6694C75.8939 40.7046 75.8908 28.7426 75.8982 16.7833ZM73.7964 30.4694C73.7964 37.1657 73.7982 43.8633 73.8019 50.562C73.8019 50.8213 73.7612 50.9093 73.4742 50.9046C72.3143 50.8843 71.1535 50.8843 69.9917 50.9046C69.7047 50.9046 69.6214 50.8583 69.6214 50.5463C69.6337 45.2704 69.6365 39.9926 69.6297 34.713C69.6297 29.4475 69.6269 24.1815 69.6214 18.9148C69.6214 18.6046 69.7075 18.5444 69.9982 18.5519C71.1584 18.5694 72.3195 18.5676 73.4806 18.5519C73.7362 18.5519 73.8066 18.6083 73.8056 18.8704C73.7945 22.7364 73.7914 26.6028 73.7964 30.4694Z" fill="#010101"/>
<path d="M52.937 38.3843C52.937 33.6262 52.9388 28.8682 52.9426 24.1102C52.9426 23.85 52.9018 23.7602 52.6111 23.7621C50.0296 23.7759 47.4481 23.7722 44.8675 23.7621C44.637 23.7621 44.5527 23.8009 44.5527 24.0593C44.5608 33.6074 44.5608 43.155 44.5527 52.7019C44.5527 52.9593 44.6342 53.0009 44.8657 53C47.4459 52.9926 50.0271 52.9926 52.6092 53C52.8981 53 52.9426 52.9148 52.9426 52.6528C52.9351 47.8991 52.9333 43.1429 52.937 38.3843ZM50.8416 50.6176C50.8416 50.8658 50.7638 50.8954 50.5463 50.8954C49.3546 50.8852 48.162 50.8796 46.9703 50.8954C46.6925 50.8954 46.6611 50.8102 46.6611 50.5667C46.6691 46.505 46.6709 42.4426 46.6666 38.3796C46.6666 34.3269 46.6713 30.275 46.6583 26.2232C46.6583 25.9111 46.7453 25.8593 47.0287 25.8639C48.2 25.8815 49.3712 25.8769 50.5416 25.8639C50.7592 25.8639 50.8379 25.8945 50.8379 26.1417C50.8348 34.3028 50.8361 42.4614 50.8416 50.6176Z" fill="#010101"/>
<path d="M64.4049 40.4629C64.4049 36.3889 64.4049 32.3148 64.4049 28.2407C64.4049 28.0157 64.3743 27.925 64.1114 27.9259C61.5188 27.9376 58.9262 27.9376 56.3336 27.9259C56.1077 27.9259 56.041 27.9713 56.041 28.2102C56.0484 36.3787 56.0484 44.5469 56.041 52.7148C56.041 52.9592 56.116 52.9972 56.3364 52.9926C58.9074 52.9852 61.4784 52.9852 64.0493 52.9926C64.3271 52.9926 64.4058 52.9352 64.4049 52.6444C64.3987 48.5895 64.3987 44.529 64.4049 40.4629ZM61.9975 50.8954C60.816 50.8787 59.6336 50.8842 58.4521 50.8954C58.2419 50.8954 58.1521 50.8741 58.1521 50.6176C58.1602 43.8478 58.1602 37.0787 58.1521 30.3102C58.1521 30.0981 58.1975 30.0324 58.4197 30.0324C59.6234 30.0444 60.8271 30.0463 62.0308 30.0324C62.2734 30.0324 62.3142 30.1009 62.3142 30.325C62.3068 33.7151 62.3049 37.1049 62.3086 40.4944C62.3086 43.8531 62.3108 47.2117 62.3151 50.5704C62.3142 50.8268 62.2605 50.9028 61.9938 50.8991L61.9975 50.8954Z" fill="#010101"/>
<path d="M35.3615 75.4398H27.3281V61.2389H35.3615V63.2009H29.6494V67.0667H34.9994V69.0111H29.6476V73.4694H35.3596L35.3615 75.4398Z" fill="#231F20"/>
<path d="M46.619 71.5834C46.619 72.8463 46.1625 73.8371 45.2496 74.5556C44.3366 75.2741 43.077 75.6337 41.4709 75.6343C39.8659 75.6343 38.5514 75.3849 37.5273 74.8861V72.6908C38.189 73.0001 38.8805 73.2409 39.5912 73.4093C40.2576 73.5764 40.9413 73.6643 41.6283 73.6713C42.548 73.6713 43.227 73.4966 43.6653 73.1472C43.8779 72.9809 44.0482 72.7665 44.1621 72.5218C44.2761 72.277 44.3305 72.0087 44.3209 71.7389C44.3244 71.4836 44.2723 71.2306 44.1682 70.9975C44.0641 70.7644 43.9105 70.5567 43.7181 70.3889C43.3169 70.0185 42.4881 69.5815 41.232 69.0778C39.9357 68.5531 39.0227 67.954 38.4931 67.2806C37.9635 66.6071 37.6977 65.7976 37.6959 64.8519C37.6959 63.6667 38.1169 62.7343 38.9588 62.0547C39.8008 61.375 40.9307 61.0355 42.3486 61.0361C43.7499 61.0448 45.1334 61.3493 46.4088 61.9297L45.6681 63.8232C44.4051 63.2923 43.2783 63.0269 42.2875 63.0269C41.5363 63.0269 40.9665 63.1905 40.5783 63.5176C40.3883 63.6746 40.2369 63.8732 40.1358 64.0979C40.0347 64.3226 39.9865 64.5676 39.9949 64.8139C39.9852 65.145 40.0659 65.4724 40.2283 65.7611C40.4249 66.0628 40.6874 66.3161 40.9959 66.5019C41.3527 66.734 41.9937 67.0426 42.919 67.4278C43.9616 67.8599 44.7258 68.2645 45.2116 68.6417C45.6627 68.9764 46.0288 69.4125 46.2801 69.9148C46.5166 70.4386 46.6325 71.0088 46.619 71.5834Z" fill="#231F20"/>
<path d="M61.9765 68.3194C61.9765 70.6318 61.3987 72.4287 60.2432 73.7102C59.0876 74.9916 57.4518 75.633 55.3358 75.6342C53.1919 75.6342 51.5453 74.9978 50.3959 73.725C49.2466 72.4521 48.6719 70.6438 48.6719 68.3C48.6719 65.9543 49.25 64.1543 50.4061 62.9C51.5623 61.6457 53.2111 61.0185 55.3524 61.0185C57.4635 61.0185 59.0953 61.6561 60.2478 62.9315C61.4003 64.2068 61.9765 66.0028 61.9765 68.3194ZM51.1367 68.3194C51.1367 70.0682 51.4895 71.3953 52.195 72.3009C52.9006 73.2065 53.9466 73.6583 55.333 73.6565C56.7114 73.6565 57.7521 73.2095 58.4552 72.3157C59.1583 71.4219 59.5098 70.091 59.5098 68.3231C59.5098 66.5811 59.1617 65.2602 58.4654 64.3602C57.7691 63.4602 56.7314 63.0089 55.3524 63.0065C53.9598 63.0065 52.9105 63.4565 52.2043 64.3565C51.4981 65.2565 51.1422 66.5774 51.1367 68.3194Z" fill="#231F20"/>
<path d="M74.4282 65.5324C74.4282 67.0139 73.9424 68.1503 72.9708 68.9417C71.9992 69.733 70.6167 70.1281 68.8235 70.1269H67.3467V75.4398H65.0254V61.2389H69.1152C70.8893 61.2389 72.2183 61.6015 73.1022 62.3269C73.9862 63.0522 74.4282 64.1207 74.4282 65.5324ZM67.3467 68.1741H68.5809C69.7717 68.1741 70.6458 67.967 71.2032 67.5528C71.7606 67.1386 72.0384 66.4904 72.0365 65.6083C72.0365 64.7923 71.7871 64.1836 71.2883 63.7824C70.7896 63.3812 70.0127 63.1806 68.9578 63.1806H67.3467V68.1741Z" fill="#231F20"/>
<path d="M73.1583 81.5324H26.2027C24.7333 81.5307 23.3245 80.9462 22.2854 79.9071C21.2464 78.868 20.6619 77.4593 20.6602 75.9898V61.6148C20.6619 60.1453 21.2463 58.7364 22.2854 57.6972C23.3244 56.658 24.7332 56.0732 26.2027 56.0713H73.1564C74.6266 56.0723 76.0364 56.6565 77.0762 57.6959C78.1161 58.7352 78.701 60.1446 78.7027 61.6148V75.9898C78.701 77.4596 78.1163 78.8687 77.0768 79.9078C76.0373 80.9469 74.6281 81.5312 73.1583 81.5324ZM26.2027 57.9231C25.2241 57.9244 24.2859 58.3137 23.594 59.0058C22.9021 59.6979 22.513 60.6362 22.512 61.6148V75.9898C22.513 76.9684 22.9021 77.9065 23.5941 78.5985C24.286 79.2904 25.2242 79.6796 26.2027 79.6805H73.1564C74.1356 79.6803 75.0746 79.2915 75.7672 78.5995C76.4599 77.9075 76.8497 76.9689 76.8509 75.9898V61.6148C76.8497 60.6361 76.4603 59.6978 75.7683 59.0058C75.0762 58.3137 74.1379 57.9244 73.1592 57.9231H26.2027Z" fill="#231F20"/>
</svg>
