<svg width="120" height="120" viewBox="0 0 120 120" fill="none" xmlns="http://www.w3.org/2000/svg">
<path opacity="0.15" d="M108.769 100.603L14.8236 100.556C14.8236 100.556 -1.05307 71.2222 7.4136 51.6C15.8803 31.9778 28.248 45.8289 29.2792 31.6511C29.3147 31.1711 29.2869 30.6967 29.2869 30.2322C29.2869 30.1211 29.2869 30.01 29.2869 29.9044C29.6047 21.7622 33.5669 16.5 38.7969 13.4722C38.9658 13.3744 39.1358 13.2789 39.3069 13.1856C47.6458 8.65444 58.9214 9.58667 63.9136 13.4833C72.4069 20.1111 72.3581 28.09 89.8914 25.4578C107.425 22.8256 110.777 44.8333 106.214 56.0456C99.7358 71.9544 124.177 69.3422 108.769 100.603Z" fill="#196181"/>
<path d="M59.4476 114.54C88.885 114.54 112.749 109.383 112.749 103.021C112.749 96.6594 88.885 91.5022 59.4476 91.5022C30.0102 91.5022 6.14648 96.6594 6.14648 103.021C6.14648 109.383 30.0102 114.54 59.4476 114.54Z" fill="#E5F2FC"/>
<path d="M22.1449 23.92L16.1716 22.7578C16.0549 22.7385 15.9489 22.6782 15.8727 22.5878C15.7965 22.4973 15.7551 22.3827 15.7559 22.2644C15.7567 22.1461 15.7997 22.032 15.8771 21.9426C15.9545 21.8532 16.0613 21.7944 16.1783 21.7767L22.1671 20.6967C22.3538 20.6511 22.5416 20.5122 22.5427 20.3245L23.706 14.3511C23.7254 14.2344 23.7858 14.1285 23.8764 14.0524C23.9669 13.9763 24.0816 13.935 24.1999 13.9359C24.3182 13.9369 24.4323 13.98 24.5216 14.0575C24.6109 14.1351 24.6696 14.2419 24.6871 14.3589L25.7671 20.3467C25.8127 20.5345 25.9516 20.7222 26.1383 20.7233L32.1116 21.8889C32.2283 21.9082 32.3343 21.9685 32.4105 22.0589C32.4867 22.1494 32.5281 22.264 32.5273 22.3823C32.5265 22.5006 32.4835 22.6147 32.4061 22.7041C32.3287 22.7935 32.2219 22.8523 32.1049 22.87L26.1116 23.9478C25.9249 23.9933 25.7371 24.1322 25.736 24.3189L24.5727 30.2922C24.5534 30.4089 24.4931 30.5149 24.4027 30.5911C24.3123 30.6673 24.1976 30.7088 24.0793 30.708C23.961 30.7071 23.8469 30.6642 23.7575 30.5867C23.6681 30.5093 23.6093 30.4025 23.5916 30.2856L22.5116 24.2967C22.4904 24.2065 22.4451 24.1238 22.3805 24.0575C22.3159 23.9911 22.2345 23.9436 22.1449 23.92Z" fill="#062933"/>
<path d="M42.7648 28.8733L44.0981 31.7544C44.2626 32.01 44.6348 31.9144 44.6104 31.6233L44.3881 28.4544C44.3792 28.4053 44.3884 28.3547 44.4139 28.3118C44.4394 28.2689 44.4796 28.2367 44.527 28.2211L47.4092 26.8878C47.6648 26.7233 47.5693 26.3511 47.2781 26.3756L44.1093 26.5978C44.0601 26.6071 44.0093 26.5982 43.9662 26.5729C43.9231 26.5475 43.8906 26.5074 43.8748 26.46L42.5415 23.5778C42.377 23.3222 42.0048 23.4178 42.0304 23.7089L42.2526 26.8778C42.2612 26.9271 42.2516 26.978 42.2257 27.0208C42.1997 27.0637 42.1592 27.0958 42.1115 27.1111L39.2293 28.4444C38.9748 28.61 39.0704 28.9822 39.3615 28.9567L42.5304 28.7344C42.5797 28.725 42.6307 28.7339 42.6739 28.7595C42.7171 28.785 42.7494 28.8255 42.7648 28.8733Z" fill="#239ED4"/>
<path d="M63.4747 33.0667C62.1147 32.3611 61.0236 32.8044 61.0236 32.8044C56.8614 32.3156 55.6469 37.17 55.7036 38.8411C55.7602 40.5122 55.9502 42.3056 54.0914 44.4756C48.7214 50.7433 59.968 51.02 59.968 51.02C60.0625 46.0122 66.0669 47.8389 65.8036 48.3467C73.4991 50.1933 66.568 34.6722 63.4747 33.0667Z" fill="#908050"/>
<path d="M47.4161 52.9433C47.4161 52.9433 46.6839 51.8322 46.0939 51.8078C45.5039 51.7833 44.4116 51.48 44.4994 51.6967C44.5872 51.9133 45.2639 51.9378 45.3294 52.0689C45.395 52.2 44.3294 52.3967 44.0183 52.4178C43.7072 52.4389 42.9916 52.4178 43.0183 52.5711C43.045 52.7244 44.3172 53.3578 45.2194 53.27C46.1216 53.1822 47.235 53.5322 47.235 53.5322L47.4161 52.9433Z" fill="#FEFCF4"/>
<path d="M58.0007 53.3044C57.683 53.9024 57.3111 54.47 56.8896 55C56.0196 56.0889 54.6785 57.3478 52.994 57.5967C52.1896 57.7156 51.4029 57.5422 50.6796 57.2211C48.634 56.3133 47.0963 54.2211 47.0963 54.2211C46.988 53.9498 46.9523 53.655 46.9927 53.3656C47.033 53.0763 47.148 52.8025 47.3263 52.5711C47.3263 52.5711 51.4563 53.5 51.8496 53.3033C52.2429 53.1067 54.6607 47.7422 55.0963 46.8489C56.0218 44.9489 57.4918 44.4044 57.4918 44.4044L58.0007 53.3044Z" fill="#1A7FAA"/>
<path d="M56.8897 55C56.0197 56.0889 54.6786 57.3478 52.9941 57.5966C52.1897 57.7155 51.403 57.5422 50.6797 57.2211C50.7597 57.2311 52.803 57.4833 53.6175 56.0266C54.4475 54.5411 55.3452 52.1811 56.5797 52.9678C57.1119 53.3055 57.0841 54.1489 56.8897 55Z" fill="#146C8C"/>
<path d="M73.4116 97.8889C73.4116 97.8889 74.6716 99.0389 74.425 99.8556C74.1783 100.672 73.0427 101.213 72.8883 102.212C72.7339 103.211 72.1205 103.756 71.5672 103.756H68.9294C68.9294 103.756 68.5216 103.053 69.5061 102.841C70.4905 102.629 70.8605 101.456 70.7983 100.366C70.7361 99.2755 70.8905 97.8244 70.8905 97.8244L72.9805 97.34L73.4116 97.8889Z" fill="#196181"/>
<path d="M62.7464 98.3722C62.7464 98.3722 63.1997 103.244 62.6464 103.517L55.5664 103.502C55.5664 103.502 55.5664 102.686 56.7031 102.502C57.8397 102.319 59.8386 101.656 60.1764 100.169C60.5142 98.6822 62.7464 98.3722 62.7464 98.3722Z" fill="#196181"/>
<path d="M68.1925 50.0178C68.2559 51.108 68.2559 52.2009 68.1925 53.2911C68.1225 54.4745 66.9258 56.0589 66.7558 56.4511C66.3291 57.4345 65.8491 57.5945 65.8491 57.5945L62.1314 58.5056L60.8247 58.8256L56.7025 57.5945C56.7025 57.5945 54.8247 52.3534 55.5791 49.4045C56.0146 47.6684 56.6542 45.99 57.4847 44.4045C57.4847 44.4045 60.2791 43.3011 65.228 44.1256L68.1925 50.0178Z" fill="#1A7FAA"/>
<path d="M56.9644 58.39C56.9644 58.39 54.9233 64.7433 54.7922 66.9067C54.6611 69.07 58.6933 97.6378 58.8566 98.6345C59.0089 99.5745 60.1755 100.173 60.1755 100.173C60.5808 100.372 61.0469 100.408 61.4777 100.273C62.5411 99.9733 62.8766 99.6145 62.8766 99.6145C62.8766 99.6145 64.4655 79.24 63.4822 71.9622C62.8817 67.4618 62.5478 62.9298 62.4822 58.39H56.9644Z" fill="#062933"/>
<path d="M65.6138 58.2C65.6138 58.2 68.7249 62.3778 69.0171 65.2C69.3093 68.0222 69.4726 77.9445 70.0915 80.6978C70.7104 83.4511 72.9804 88.75 72.9804 97.3378C72.9804 97.3378 72.7449 97.83 72.0149 98.0922C71.7368 98.1879 71.4538 98.2684 71.1671 98.3333C70.8749 98.4001 70.5687 98.3665 70.298 98.2379C70.0272 98.1092 69.8077 97.8931 69.6749 97.6245C68.1382 94.5267 63.2449 84.5556 62.9938 82.4811C62.816 81.0156 61.2715 71.3167 57.9015 65.6256C57.0915 64.2589 58.3982 58.8256 58.3982 58.8256L65.6138 58.2Z" fill="#062933"/>
<path d="M56.6375 57.4089C56.6375 57.4089 57.4575 58.0567 59.0819 58.09C61.0264 58.1289 65.8453 57.5944 65.8453 57.5944C65.9775 57.9912 66.0468 58.4062 66.0508 58.8244C66.0508 58.8244 60.1619 60.3078 56.7553 59.0467C56.7586 59.0411 56.3186 58.2133 56.6375 57.4089Z" fill="#062933"/>
<path d="M64.4881 58.5778C64.4203 58.5956 61.9492 58.8856 61.9492 59.3967C61.9492 59.9867 62.6737 60.7778 63.3559 60.74C63.6326 60.7245 64.9114 59.5533 64.9114 59.5533L64.4881 58.5778Z" fill="#FEFCF4"/>
<path d="M63.2227 43.8556C62.9416 43.1744 62.7783 42.1356 62.7783 40.8556L62.5916 40.8922L59.4527 41.5133C59.4527 41.5133 59.5238 42.5011 59.526 43.4311V43.4544C59.526 44.2622 58.9805 45.0733 60.2771 45.3933C60.6794 45.4889 63.8105 45.2878 63.2227 43.8556Z" fill="#FEFCF4"/>
<path d="M59.4551 41.5089C59.4551 41.5089 59.5262 42.4967 59.5284 43.4267C61.2851 43.3778 62.2129 41.7756 62.594 40.8878L59.4551 41.5089Z" fill="#EDEED7"/>
<path d="M58.8674 42.39C58.8674 42.39 63.023 42.4589 63.0252 39.87C63.0274 37.2811 63.5663 35.5478 60.9141 35.3945C58.2619 35.2411 57.7452 36.2289 57.5341 37.0922C57.323 37.9556 57.7874 42.3056 58.8674 42.39Z" fill="#FEFCF4"/>
<path d="M59.0215 35.3333C59.0215 35.3333 60.1593 38.37 61.9048 38.8189C63.6504 39.2678 64.4081 38.8 64.4081 38.8C63.5462 38.0436 62.9742 37.0108 62.7904 35.8789C62.7904 35.8789 59.8793 33.8889 59.0215 35.3333Z" fill="#908050"/>
<path d="M59.3038 35.5778C59.3038 35.5778 58.4594 35.8933 58.1127 36.5089C57.6938 37.2289 57.4995 38.0577 57.5549 38.8889C57.5549 38.8889 56.6982 36.8255 57.666 35.6578C58.6782 34.4155 59.3038 35.5778 59.3038 35.5778Z" fill="#908050"/>
<path d="M64.4892 58.5778C64.4892 58.5778 63.8969 58.3878 63.5014 58.4422C63.1058 58.4967 62.8125 58.4344 62.8125 58.5455C62.8125 58.6567 63.3236 58.7078 63.4325 58.7611C63.5414 58.8144 64.4892 58.5778 64.4892 58.5778Z" fill="#FEFCF4"/>
<path d="M65.2271 44.1267C65.2271 44.1267 68.176 44.3333 69.3071 47.0811C70.4383 49.8289 72.5827 54.4445 72.5827 55.2222C72.5827 56 71.3838 58.3922 64.9494 59.7678C64.9494 59.7678 64.2827 59.0678 64.3238 58.5145C64.3238 58.5145 68.3405 55.0633 68.3294 54.66C68.3094 53.8978 67.6716 52.89 64.1449 49.3622C63.186 48.4011 65.2271 44.1267 65.2271 44.1267Z" fill="#1A7FAA"/>
<path d="M59.346 40.2356C59.2232 40.1963 59.0966 40.1702 58.9682 40.1578C58.9082 40.15 58.8516 40.1367 58.8427 40.1022C58.8338 40.0678 58.8571 40.0133 58.8882 39.9578L59.0794 39.5878C59.3438 39.0622 59.5382 38.6289 59.5116 38.62C59.4849 38.6111 59.2505 39.0289 58.9849 39.5545C58.9216 39.6845 58.8605 39.8078 58.8016 39.9256C58.7822 39.9534 58.7689 39.985 58.7623 40.0183C58.7558 40.0515 58.7563 40.0858 58.7638 40.1189C58.7731 40.1382 58.7864 40.1552 58.8029 40.1688C58.8194 40.1825 58.8387 40.1923 58.8594 40.1978C58.8925 40.2065 58.9263 40.212 58.9605 40.2145C59.0879 40.2351 59.2171 40.2422 59.346 40.2356Z" fill="#146080"/>
<path d="M60.3871 38.5489C60.3834 38.6175 60.4067 38.6848 60.4519 38.7365C60.4972 38.7882 60.5608 38.8202 60.6293 38.8256C60.6625 38.8297 60.6961 38.8273 60.7283 38.8184C60.7606 38.8094 60.7907 38.7942 60.8169 38.7735C60.8432 38.7528 60.8651 38.7271 60.8813 38.6979C60.8976 38.6687 60.9078 38.6366 60.9115 38.6033C60.9152 38.5347 60.892 38.4674 60.8467 38.4157C60.8015 38.364 60.7378 38.3321 60.6693 38.3267C60.6361 38.3223 60.6024 38.3247 60.5702 38.3336C60.5379 38.3424 60.5077 38.3577 60.4814 38.3784C60.4551 38.3991 60.4333 38.4248 60.4171 38.4541C60.4009 38.4834 60.3907 38.5156 60.3871 38.5489Z" fill="#4797C0"/>
<path d="M58.0004 38.5489C57.9967 38.6175 58.02 38.6848 58.0652 38.7365C58.1105 38.7882 58.1741 38.8201 58.2426 38.8255C58.2758 38.8297 58.3094 38.8273 58.3416 38.8183C58.3738 38.8094 58.4039 38.7941 58.4302 38.7735C58.4565 38.7528 58.4783 38.7271 58.4946 38.6979C58.5108 38.6687 58.5211 38.6365 58.5248 38.6033C58.5285 38.5347 58.5053 38.4674 58.46 38.4157C58.4147 38.364 58.3511 38.3321 58.2826 38.3267C58.2494 38.3225 58.2158 38.3249 58.1836 38.3339C58.1514 38.3428 58.1213 38.3581 58.095 38.3787C58.0687 38.3994 58.0469 38.4251 58.0306 38.4543C58.0144 38.4835 58.0041 38.5157 58.0004 38.5489Z" fill="#4797C0"/>
<path d="M59.4491 41.1411C59.533 41.2311 59.6392 41.2974 59.7569 41.3333C59.9303 41.388 60.1152 41.3953 60.2924 41.3544C60.4241 41.3224 60.5394 41.2434 60.6169 41.1322L60.7391 41.1578C60.7105 41.2055 60.6765 41.2499 60.638 41.29C60.5492 41.3756 60.4378 41.4342 60.3169 41.4589C60.1204 41.4998 59.9164 41.4832 59.7291 41.4111C59.6015 41.3648 59.4913 41.2802 59.4135 41.1689C59.3824 41.1303 59.3641 41.0829 59.3613 41.0333C59.3713 41.0278 59.3913 41.0756 59.4491 41.1411Z" fill="#146080"/>
<path d="M36.5896 37.5933C36.4519 35.8 34.8752 34.4056 32.9663 34.3889H32.7785C30.7319 34.4833 30.0707 36.2511 30.2296 38.1756L30.3407 45.3256L33.563 47.9989L34.5563 46.0356L34.8096 44.1233C34.8096 44.1233 36.7785 43.8522 36.8152 42C36.8352 41.1111 36.7163 39.2622 36.5896 37.5933Z" fill="#FEFCF4"/>
<path d="M34.8169 44.1344C33.9037 44.1276 33.0117 43.8575 32.248 43.3567C32.248 43.3567 32.7703 44.8389 34.7336 44.6778L34.8169 44.1344Z" fill="#EDEED7"/>
<path d="M36.2221 39.5089C36.2227 39.5825 36.1944 39.6534 36.1433 39.7064C36.0922 39.7594 36.0224 39.7902 35.9488 39.7922C35.9129 39.7946 35.8769 39.7898 35.843 39.7781C35.809 39.7663 35.7777 39.7479 35.751 39.7239C35.7243 39.6998 35.7026 39.6707 35.6874 39.6381C35.6721 39.6056 35.6635 39.5703 35.6621 39.5344C35.6618 39.461 35.6902 39.3904 35.7413 39.3376C35.7924 39.2849 35.8621 39.2542 35.9354 39.2522C35.9713 39.2496 36.0072 39.2543 36.0412 39.2659C36.0751 39.2775 36.1064 39.2959 36.1332 39.3198C36.1599 39.3438 36.1816 39.3728 36.1968 39.4053C36.2121 39.4378 36.2207 39.473 36.2221 39.5089Z" fill="#263238"/>
<path d="M34.0991 39.4644C34.0994 39.5379 34.071 39.6085 34.0199 39.6612C33.9688 39.714 33.8991 39.7446 33.8257 39.7467C33.79 39.7491 33.7541 39.7443 33.7202 39.7326C33.6863 39.7209 33.655 39.7026 33.6283 39.6787C33.6016 39.6548 33.58 39.6258 33.5646 39.5934C33.5493 39.561 33.5406 39.5258 33.5391 39.49C33.5387 39.4167 33.567 39.3461 33.6178 39.2932C33.6686 39.2403 33.738 39.2093 33.8113 39.2067C33.8472 39.2043 33.8832 39.2091 33.9173 39.2208C33.9513 39.2325 33.9827 39.2509 34.0095 39.2749C34.0363 39.299 34.058 39.3281 34.0734 39.3606C34.0888 39.3932 34.0975 39.4285 34.0991 39.4644Z" fill="#263238"/>
<path d="M34.9573 41.7067C35.0699 41.6728 35.1864 41.653 35.3039 41.6478C35.3584 41.6422 35.4095 41.6322 35.415 41.5945C35.4191 41.5381 35.4068 41.4817 35.3795 41.4322L35.2228 41.0145C35.0006 40.42 34.8473 39.9311 34.8717 39.9233C34.8961 39.9156 35.0939 40.3889 35.3095 40.9833L35.4595 41.4033C35.4929 41.47 35.5023 41.5461 35.4861 41.6189C35.4779 41.6379 35.4656 41.6548 35.45 41.6684C35.4344 41.6821 35.416 41.6921 35.3961 41.6978C35.3657 41.7057 35.3343 41.7098 35.3028 41.71C35.188 41.7239 35.0718 41.7228 34.9573 41.7067Z" fill="#263238"/>
<path d="M33.0897 41.8544C33.1342 41.8333 33.2586 42.1389 33.6064 42.2511C33.9542 42.3633 34.2642 42.2 34.2842 42.2411C34.2953 42.2589 34.2353 42.33 34.0997 42.3889C33.9234 42.4628 33.7266 42.4718 33.5442 42.4144C33.3673 42.3594 33.219 42.2373 33.1308 42.0744C33.0653 41.9511 33.0686 41.8611 33.0897 41.8544Z" fill="#263238"/>
<path d="M29.3451 41.4444C29.3773 40.0756 28.7573 38.8244 28.6329 37.4833C28.4806 37.3956 28.5017 37.2489 28.5217 37.1156C28.6584 36.2744 28.9273 35.5033 29.654 34.9756C30.0684 34.74 30.4806 34.4933 30.944 34.3633C31.1251 34.3122 31.3251 34.2133 31.5195 34.35C31.534 34.3549 31.5489 34.3586 31.564 34.3611C32.4295 34.4811 33.2795 34.3844 34.1317 34.2133C34.5762 34.1256 35.0084 34.2944 35.4429 34.37C35.4975 34.3389 35.5599 34.3244 35.6227 34.3281C35.6854 34.3319 35.7457 34.3537 35.7962 34.3911C36.674 34.9289 37.4473 35.5544 37.6417 36.6511C37.6536 37.4378 37.3477 37.8656 36.724 37.9344C36.444 37.9533 36.1584 37.9711 35.9529 37.7355C35.8417 37.6133 35.764 37.6756 35.6729 37.7289C35.3229 37.9344 34.9929 37.8278 34.7362 37.59C34.5329 37.4011 34.4473 37.4622 34.3229 37.6367C34.1984 37.8111 34.014 37.9378 33.8129 37.9067C33.4473 37.8489 33.3895 38.0178 33.3684 38.3255C33.3374 38.6624 33.2821 38.9966 33.2029 39.3255C33.1695 39.4844 33.1606 39.7033 32.9617 39.7333C32.7817 39.7611 32.7395 39.5511 32.654 39.4311C32.5206 39.2422 32.4017 39.0433 32.2695 38.8544C31.9362 38.3756 31.5151 38.3044 31.0406 38.6411C30.5962 38.9555 30.5351 39.3844 30.8629 39.8433C30.8926 39.8786 30.92 39.9157 30.9451 39.9544C31.0562 40.1622 31.4362 40.1767 31.314 40.5633C31.1595 41.0467 30.9551 41.4811 30.5462 41.7956C30.4195 41.8922 30.2729 41.8511 30.1462 41.7956C29.8773 41.6911 29.6129 41.5644 29.3451 41.4444Z" fill="#0C4155"/>
<path d="M27.9336 103.06H31.7658C31.6993 102.594 31.5971 102.134 31.4603 101.684C31.4023 101.494 31.3298 101.308 31.2436 101.129C30.8703 100.384 28.5036 100.858 28.5036 100.858C28.5036 100.858 28.2814 101.047 28.1114 101.766C28.0159 102.191 27.9564 102.624 27.9336 103.06Z" fill="#0C4155"/>
<path d="M39.5141 101.85C39.5241 102.372 39.5897 102.866 39.7786 103.06H47.3586C47.263 102.786 46.9897 102.373 46.2119 102.247C45.323 102.103 43.9486 101.678 43.1441 100.827C42.8517 100.53 42.6465 100.158 42.5508 99.7522C42.1941 98.1644 39.6019 100.238 39.6019 100.238C39.539 100.773 39.5097 101.311 39.5141 101.85Z" fill="#0C4155"/>
<path d="M34.4727 84.6867C34.565 85.1495 34.63 85.6173 34.6671 86.0878C34.9082 90.7878 38.6238 101.532 39.2882 101.786C40.3171 102.173 41.936 101.349 42.7838 101.079C42.9554 101.028 43.1024 100.916 43.1964 100.764C43.2905 100.611 43.3252 100.43 43.2938 100.253C41.4449 91.7944 40.7782 79.6133 40.5271 72.4022C40.4027 68.7689 39.7793 66.26 39.7793 66.26C39.7793 66.26 30.7171 63.8422 30.6627 66.9011C30.6149 69.6078 33.6671 80.2222 34.4727 84.6867Z" fill="#196181"/>
<path d="M34.4727 84.6867L40.5271 72.4022C40.4027 68.7689 39.7793 66.26 39.7793 66.26C39.7793 66.26 30.7171 63.8422 30.6627 66.9011C30.6149 69.6078 33.6671 80.2222 34.4727 84.6867Z" fill="#0C4155"/>
<path d="M36.4896 66.9111L31.6984 101.633C31.6984 101.633 29.5951 102.14 27.9584 101.734C27.9584 101.734 26.5562 83.2678 26.6729 78.8033C26.7896 74.3389 25.6673 66.8578 26.9296 66.0322C28.1918 65.2067 36.4896 66.9111 36.4896 66.9111Z" fill="#196181"/>
<path d="M29.6099 45.8322L30.7121 69.4989C30.7121 69.4989 39.9188 69.6489 39.6555 67.5656C39.3921 65.4822 36.3332 46.5556 36.3332 46.5556L29.6055 45.8311L29.6099 45.8322Z" fill="#908050"/>
<path d="M26.3225 59.2466C26.8702 60.89 25.8369 66.4033 25.4691 68.2711C25.388 68.6655 25.3347 68.8989 25.3347 68.8989C26.6091 70.9733 31.278 70.9467 31.278 70.9467C32.1758 66.9778 32.6436 60.6567 32.6436 60.6567L29.0602 44.9522L24.5547 49.1189C24.5547 49.1189 24.8958 51.66 25.318 54.2455C25.6491 56.2922 26.0258 58.3755 26.3225 59.2466Z" fill="#207FAA"/>
<path d="M35.2441 45C35.2441 45 36.6453 52.2711 37.8197 60.0189C38.3497 63.51 38.7941 70.2678 38.7941 70.3133C38.7941 70.4567 40.5197 69.83 40.9053 67.9644C41.1164 66.9322 40.7597 64.5133 40.4408 61.8922C40.743 61.9589 41.1775 61.7878 41.1775 61.7878C41.1775 61.7878 47.9297 57.0644 46.7175 54.6944C45.5264 52.3611 39.3841 46.3911 39.1619 46.18V46.17C39.1619 46.17 37.253 45.2089 35.2441 45ZM40.223 59.9689C40.0741 58.4711 39.9852 57.0011 40.0652 55.7711C40.1075 55.1044 40.1108 54.3956 40.0853 53.6689L40.1119 53.6956C41.5219 54.5844 42.8241 55.3389 42.8241 55.68C42.8255 55.6925 42.8223 55.7051 42.8152 55.7156C42.6875 56.1044 40.8897 58.92 40.223 59.9689Z" fill="#207FAA"/>
<path d="M29.3497 45.17C29.3386 44.9478 30.4086 44.6322 30.4086 44.6322C30.4086 44.6322 31.7986 46.0189 33.8152 46.0478C33.8152 46.0478 33.0753 47.4778 32.3975 47.7678C32.3975 47.7678 29.4164 46.5111 29.3497 45.17Z" fill="#D6BF86"/>
<path d="M33.4258 46.0978C33.4258 46.0978 34.7169 45.6856 34.7202 44.9989C34.7202 44.9989 35.4102 44.9122 35.7124 45.2467C35.7124 45.2467 35.9658 46.4245 35.6291 47.1078C35.6291 47.1111 33.8691 46.6522 33.4258 46.0978Z" fill="#D6BF86"/>
<path d="M29.5177 45.0533C29.5066 44.8311 30.2299 44.3622 30.2299 44.3622C30.2299 44.3622 31.6321 46 33.6488 46.0289C33.6488 46.0289 33.0744 47.1478 32.3966 47.4378C32.3966 47.4378 29.5844 46.3944 29.5177 45.0533Z" fill="#908050"/>
<path d="M33.6484 46.0289C33.6484 46.0289 34.7295 45.21 34.7329 44.5233C35.0667 44.7948 35.3854 45.0845 35.6873 45.3911C35.6873 45.3911 35.9662 46.1344 35.6296 46.8178C35.6296 46.8178 34.0907 46.5833 33.6484 46.0289Z" fill="#908050"/>
<path d="M41.6052 62.1722C41.6064 62.0295 41.577 61.8882 41.519 61.7578C41.461 61.6275 41.3758 61.511 41.2691 61.4163C41.1624 61.3215 41.0366 61.2507 40.9003 61.2087C40.7639 61.1666 40.6201 61.1541 40.4786 61.1722C40.3968 61.1808 40.3177 61.2056 40.2457 61.2453C40.1738 61.285 40.1105 61.3387 40.0597 61.4033C39.6497 61.9489 39.2597 63.5389 39.9864 63.6133C40.2819 63.6433 40.663 63.4355 40.9552 63.2133C41.2475 62.9911 41.6052 62.6333 41.6052 62.2589V62.1722Z" fill="#FEFCF4"/>
<path d="M25.4706 68.2711C26.7906 66.8967 29.0706 64.1944 28.9906 61.9767C28.8795 58.8655 25.3184 54.2455 25.3184 54.2455C25.6517 56.2922 26.0272 58.3755 26.3184 59.2455C26.8717 60.8889 25.8384 66.4033 25.4706 68.2711Z" fill="#196181"/>
<path d="M25.5108 62.8667C25.5108 62.8667 26.4596 63.3411 27.0363 63.1044C27.613 62.8678 28.2896 62.6889 28.9341 63.4211C29.5785 64.1533 29.7119 64.6633 29.5774 64.9344C29.443 65.2056 27.9408 65.1033 27.6885 64.9344C27.4363 64.7656 27.0452 64.3478 26.7996 64.42C26.1108 64.62 25.5296 64.0944 25.2041 63.6756C25.0074 63.4233 25.5363 63.3 25.5108 62.8667Z" fill="#FEFCF4"/>
<path d="M29.0617 44.9522C29.0617 44.9522 25.2839 45.37 24.3951 47.0167C23.5062 48.6633 18.8662 55.3333 19.0173 58.1044C19.1684 60.8755 25.3395 63.9844 25.3395 63.9844C25.3395 63.9844 26.7062 63.4067 26.7262 62.7855C26.7462 62.1644 22.4606 58.4522 22.7206 57.7578C22.9806 57.0633 27.7006 51.5833 28.1562 49.7778C28.6117 47.9722 29.0617 44.9522 29.0617 44.9522Z" fill="#207FAA"/>
<path d="M40.0871 53.6667L40.1137 53.6933C41.5237 54.5822 42.8259 55.3367 42.8259 55.6778C43.0137 55.0756 41.1826 52.5667 40.5893 52.05C39.9959 51.5333 40.0871 53.6667 40.0871 53.6667Z" fill="#196181"/>
<path d="M30.2292 44.1111C30.2292 44.1111 33.0981 56.1289 32.6425 60.6556C32.6425 60.6556 31.587 55.8178 29.0481 51.8556C29.0481 51.8556 29.9748 51.0411 29.9248 50.7444C29.4833 50.6252 29.0212 50.6028 28.5703 50.6789C28.5703 50.6789 28.6436 45.4989 29.0592 44.9511C29.4748 44.4033 30.2292 44.1111 30.2292 44.1111Z" fill="#196181"/>
<path d="M34.7328 44.5233C34.6939 44.5422 37.5761 56.2666 37.8184 60.0189C37.8184 60.0189 37.5317 53.3222 37.5595 51.3922C37.5595 51.3922 36.3684 50.7611 36.3684 50.54C36.3684 50.3189 37.6395 49.72 37.6395 49.72C37.6395 49.72 36.8339 45.5955 36.395 45.1411C35.9561 44.6866 34.7328 44.5233 34.7328 44.5233Z" fill="#196181"/>
<path d="M71.0302 50.9811C71.0302 50.9811 70.7891 50.4411 70.6335 50.1856C70.478 49.93 69.8135 49.18 69.7013 49.35C69.5891 49.52 69.1357 50.6611 69.3757 50.9811C69.6157 51.3011 69.3602 51.8567 70.5557 52.1945L71.0302 50.9811Z" fill="#FCFCF5"/>
<path d="M84.3145 47.57C84.3145 47.57 78.1956 52.6811 75.81 52.2056C73.9434 51.8356 71.08 50.8545 71.08 50.8545L70.5078 52.3189C70.5078 52.3189 73.0756 55.8022 75.7534 55.8256C79.9378 55.8611 83.03 54.0133 83.03 54.0133L84.3145 47.57Z" fill="#146C8C"/>
<path d="M95.0467 101.444C95.0467 101.444 94.8689 104.31 94.3145 104.351C94.2411 104.351 91.5034 104.351 91.5034 104.351L88.0078 104.331C88.0078 104.331 88.03 103.489 89.0523 103.311C90.0745 103.133 91.7845 102.414 92.4034 101.064C93.0545 99.6533 95.0467 101.444 95.0467 101.444Z" fill="#196181"/>
<path d="M95.2481 101.648C95.2481 101.648 94.1859 102.003 93.3592 102.003C92.762 101.996 92.1682 101.911 91.5926 101.751C91.5926 101.751 91.3926 99.8167 90.2915 95.5544C89.7137 93.32 88.8904 90.4433 87.717 86.8778C84.4748 77.0122 83.4948 71.2411 83.3992 70.6944L83.3926 70.6511H83.4026L93.3704 66.2744C93.3704 66.2744 92.1392 79.8711 93.7104 85.09C93.9488 85.9116 94.1395 86.7464 94.2815 87.59C95.2715 93.2544 95.2481 101.648 95.2481 101.648Z" fill="#0C4055"/>
<path d="M90.2887 95.5556C89.7109 93.3211 88.8876 90.4444 87.7143 86.8789C84.472 77.0133 83.492 71.2422 83.3965 70.6956V70.6478L93.3643 66.2711C93.3643 66.2711 92.1332 79.8678 93.7043 85.0867C93.9276 85.8156 90.2887 95.5556 90.2887 95.5556Z" fill="#062933"/>
<path d="M87.2615 101.444C87.2615 101.444 87.0838 104.31 86.5293 104.351C86.456 104.351 83.7182 104.351 83.7182 104.351L80.2227 104.341C80.2227 104.341 80.246 103.499 81.2671 103.321C82.2882 103.143 83.9993 102.424 84.6182 101.074C85.2693 99.6533 87.2615 101.444 87.2615 101.444Z" fill="#196181"/>
<path d="M81.6101 66.59C81.6101 66.59 81.4812 75.4011 83.0057 86.2189C84.5301 97.0367 84.0135 101.63 84.0135 101.63C84.0135 101.63 85.0601 101.969 85.4835 102.003C86.5601 102.091 87.6646 101.751 87.6646 101.751C87.6646 101.751 89.8457 90.9289 89.2201 85.5144C88.5946 80.1 92.2079 66.9333 92.2079 66.9333L81.6101 66.59Z" fill="#0C4055"/>
<path d="M88.677 45.9722L86.7314 47.2478L84.9536 46.7467C84.6303 46.2844 84.5436 45.3933 84.5392 44.6222C84.5372 44.1495 84.5606 43.6769 84.6092 43.2067L87.2336 42.0478L88.2136 41.6167C88.2136 41.6322 88.137 42.4211 88.127 42.5356C87.9492 44.5822 88.677 45.9722 88.677 45.9722Z" fill="#FCFCF5"/>
<path d="M81.5649 69.04C83.9871 71.3733 93.1527 70.9844 93.7171 68.4089C94.2815 65.8333 93.1004 46.4778 88.9638 45.2622C88.106 45.0089 83.5193 46.4933 83.5193 46.4933C83.012 47.8889 82.6123 49.3212 82.3238 50.7778C82.2315 51.2444 81.9649 56.19 81.7682 60.8178C81.6749 62.9822 81.596 65.0767 81.556 66.61C81.5149 68.0444 81.5127 68.9889 81.5649 69.04Z" fill="#1A7FAA"/>
<path d="M87.9361 42.5722C87.4039 43.4722 85.535 44.2611 84.545 44.6222C84.5431 44.1495 84.5664 43.6769 84.615 43.2067L87.2395 42.0478C87.8195 42.0411 88.1739 42.17 87.9361 42.5722Z" fill="#EFEFD8"/>
<path d="M83.6242 43.0467C83.6242 43.0467 87.8542 44.3667 88.6353 41.72C89.4164 39.0733 90.4886 37.4611 87.8208 36.5067C85.1531 35.5522 84.3286 36.4067 83.8531 37.2267C83.3775 38.0467 82.5442 42.6356 83.6242 43.0467Z" fill="#FCFCF5"/>
<path d="M84.0188 36.9711C84.0188 36.9711 84.2888 40.0511 84.9255 39.9178C85.5621 39.7844 86.2588 39.4978 86.171 40.4267C86.0832 41.3556 86.7899 42.9467 87.7088 42.9422C89.6777 42.9344 91.8199 37.88 91.2788 36.9211C89.7232 34.1556 81.7699 33.5978 84.0188 36.9711Z" fill="#0C4055"/>
<path d="M84.6406 45.3333C84.6951 45.31 87.7895 43.9222 88.1518 44.0411C88.514 44.16 88.964 45.2633 88.964 45.2633L83.5195 46.4944C83.5195 46.4944 83.9451 45.6211 84.6406 45.3333Z" fill="#1A7FAA"/>
<path d="M81.5547 66.6078C91.1102 59.7978 90.3169 50.7111 90.3169 50.7111C86.8236 52.6811 83.358 57.0367 81.7614 60.8156C81.6658 62.98 81.5914 65.0745 81.5547 66.6078Z" fill="#13546B"/>
<path d="M72.1199 63.5067C71.4455 63.3511 70.9932 62.84 70.8977 62.7533C70.8977 62.7533 70.6099 62.7722 70.9443 63.3855C70.9732 63.4367 71.0355 63.5689 71.0821 63.6622C71.0863 63.671 71.0883 63.6807 71.0879 63.6905C71.0874 63.7003 71.0846 63.7098 71.0797 63.7182C71.0748 63.7266 71.0679 63.7337 71.0596 63.7389C71.0513 63.744 71.0419 63.7471 71.0321 63.7478C70.6432 63.7767 70.2543 63.6233 69.5021 63.7789C69.3988 63.8011 69.3688 64.0489 69.3732 64.1544C69.3575 64.3892 69.4291 64.6215 69.5743 64.8067C69.6955 64.9655 70.0321 65.14 70.7821 65.4389C71.0677 65.55 71.8855 65.4678 72.651 65.2044L73.2621 64.9211L73.0732 63.7844L72.9188 63.8167C72.6766 63.8678 72.3743 63.5689 72.1199 63.5067Z" fill="#FCFCF5"/>
<path d="M87.3493 46.4933C87.3493 46.4933 95.936 48.1289 84.8227 60.5645C83.0449 62.5556 73.4449 65.1422 73.4449 65.1422C73.4449 65.1422 72.4715 64.3134 72.9627 63.6422C72.9627 63.6422 79.5738 58.8411 81.0293 58.0778C81.6838 57.7345 83.5693 50.4111 84.636 48.6511C85.7027 46.8911 87.3493 46.4933 87.3493 46.4933Z" fill="#146C8C"/>
<path d="M70.797 51.1322C70.797 51.1322 70.5159 50.5955 70.4637 50.3122C70.4114 50.0289 70.0548 49.2011 69.9081 49.0578C69.8503 48.9989 69.6581 49.0744 69.6348 49.3244C69.6448 49.5128 69.6916 49.6974 69.7725 49.8678C69.9259 50.2522 69.9014 50.7733 69.9548 50.9478C70.0859 51.38 70.797 51.1322 70.797 51.1322Z" fill="#FCFCF5"/>
<path opacity="0.8" d="M62.6239 33.1678C61.9073 33.8011 60.7106 34.6511 60.8262 34.6955C60.9484 34.7944 61.7639 34.0389 62.715 34.0522C63.7762 34.0522 64.3273 35.0589 64.8939 35.67C66.9473 37.6922 71.9395 37.3433 73.2717 37.2611C74.8806 37.15 80.7628 36.7633 82.7262 33.5944C84.3928 30.8511 82.2739 27.6067 79.1706 26.1967C74.3628 24.0133 66.9928 26.23 65.1995 28.8744C64.4206 30.02 64.5695 31.4578 62.6239 33.1678Z" fill="#FBFBF2"/>
<path opacity="0.8" d="M89.504 36.6811C88.9118 37.3011 87.9207 38.1256 88.0184 38.1756C88.1229 38.2767 88.7962 37.5367 89.5951 37.5656C90.484 37.5844 90.9662 38.5967 91.4529 39.2167C93.2107 41.2689 97.3996 41.0033 98.5173 40.9433C99.8673 40.8589 104.802 40.5711 106.398 37.4444C107.757 34.7333 105.92 31.46 103.287 30C99.2129 27.7411 93.0584 29.8311 91.5962 32.4444C90.9607 33.5678 91.1118 35.0056 89.504 36.6811Z" fill="#FBFBF2"/>
<path d="M67.2512 32.8889L66.7645 31.3011H66.7512C66.769 31.6248 66.7779 31.8404 66.7779 31.9478V32.8889H66.3945V30.8644H66.979L67.4579 32.4133H67.4668L67.9745 30.8644H68.5556V32.8889H68.1556V31.9311C68.1556 31.8856 68.1556 31.8333 68.1556 31.7744C68.1556 31.7156 68.1623 31.5589 68.1734 31.3033H68.1612L67.6445 32.8889H67.2512Z" fill="#231F20"/>
<path d="M70.9063 31.8745C70.9063 32.2085 70.823 32.4659 70.6563 32.6467C70.459 32.8207 70.2049 32.9168 69.9418 32.9168C69.6788 32.9168 69.4247 32.8207 69.2274 32.6467C69.0607 32.4667 68.9785 32.2089 68.9785 31.8689C68.9785 31.5289 69.0618 31.2745 69.2285 31.0967C69.3225 31.0044 69.4349 30.933 69.5585 30.8873C69.682 30.8415 69.8138 30.8224 69.9452 30.8311C70.0763 30.8222 70.2078 30.8415 70.3309 30.8877C70.4539 30.9339 70.5656 31.0059 70.6585 31.0989C70.8241 31.2811 70.9063 31.5378 70.9063 31.8745ZM69.4285 31.8745C69.4157 32.0542 69.4609 32.2334 69.5574 32.3856C69.6024 32.4436 69.661 32.4896 69.7281 32.5195C69.7952 32.5494 69.8686 32.5621 69.9418 32.5567C70.2841 32.5567 70.4563 32.3289 70.4563 31.8745C70.4563 31.42 70.2852 31.19 69.9452 31.19C69.8716 31.1852 69.7979 31.1984 69.7306 31.2284C69.6632 31.2584 69.6042 31.3043 69.5585 31.3622C69.4616 31.5147 69.416 31.6942 69.4285 31.8745Z" fill="#231F20"/>
<path d="M71.7562 32.1111V32.8889H71.3262V30.8644H71.9162C72.1917 30.8644 72.3954 30.9144 72.5273 31.0144C72.6343 31.1107 72.7032 31.2421 72.7216 31.3848C72.7399 31.5275 72.7065 31.6721 72.6273 31.7922C72.5571 31.8911 72.4604 31.9681 72.3484 32.0144C72.6528 32.47 72.8514 32.7641 72.9439 32.8967H72.4673L71.9839 32.1189L71.7562 32.1111ZM71.7562 31.7622H71.8895C71.9944 31.7701 72.0992 31.7465 72.1906 31.6944C72.2234 31.6699 72.2494 31.6375 72.2663 31.6002C72.2832 31.5629 72.2904 31.5219 72.2873 31.4811C72.2907 31.4413 72.2833 31.4013 72.2659 31.3653C72.2485 31.3293 72.2217 31.2987 72.1884 31.2767C72.0951 31.2331 71.9922 31.2144 71.8895 31.2222H71.7562V31.7622Z" fill="#231F20"/>
<path d="M74.9995 32.8889H74.4439L73.5628 31.3578H73.555C73.5728 31.6278 73.5817 31.8211 73.5817 31.9367V32.8889H73.1973V30.8644H73.7395L74.6184 32.3811H74.6284C74.615 32.1178 74.6073 31.9367 74.6073 31.8256V30.8667H74.9995V32.8889Z" fill="#231F20"/>
<path d="M75.5039 32.8889V30.8644H75.9328V32.8889H75.5039Z" fill="#231F20"/>
<path d="M78.2409 32.8889H77.6942L76.8142 31.3578H76.8009C76.8186 31.6278 76.8275 31.8211 76.8275 31.9367V32.8889H76.4453V30.8644H76.9864L77.8664 32.3811H77.8753C77.862 32.1178 77.8553 31.9367 77.8553 31.8256V30.8667H78.242L78.2409 32.8889Z" fill="#231F20"/>
<path d="M79.517 31.7522H80.3203V32.8022C80.2004 32.8421 80.0774 32.8719 79.9525 32.8911C79.8359 32.9087 79.7182 32.9172 79.6003 32.9167C79.4711 32.9256 79.3415 32.9061 79.2205 32.8597C79.0996 32.8132 78.9903 32.7409 78.9003 32.6478C78.7388 32.4678 78.6581 32.2085 78.6581 31.87C78.6497 31.7301 78.6703 31.59 78.7187 31.4584C78.7671 31.3269 78.8422 31.2067 78.9392 31.1056C79.0439 31.0102 79.1667 30.9367 79.3003 30.8896C79.4339 30.8425 79.5756 30.8226 79.717 30.8311C79.9238 30.8307 80.1284 30.873 80.3181 30.9556L80.1758 31.2989C80.033 31.2263 79.875 31.1882 79.7147 31.1878C79.6315 31.1844 79.5485 31.1994 79.4717 31.2316C79.3949 31.2639 79.3261 31.3126 79.2703 31.3745C79.1528 31.5146 79.0928 31.6941 79.1025 31.8767C79.0904 32.0547 79.1377 32.2317 79.237 32.38C79.2837 32.4385 79.3439 32.4849 79.4123 32.5153C79.4808 32.5456 79.5555 32.5591 79.6303 32.5545C79.7217 32.5538 79.8129 32.5445 79.9025 32.5267V32.1111H79.5192L79.517 31.7522Z" fill="#231F20"/>
<path d="M80.7096 32.6911C80.7073 32.6591 80.7117 32.6271 80.7224 32.5969C80.7331 32.5666 80.7499 32.539 80.7718 32.5156C80.8223 32.4724 80.8877 32.4509 80.954 32.4556C81.019 32.452 81.0827 32.4739 81.1318 32.5167C81.1534 32.54 81.1701 32.5675 81.1808 32.5975C81.1914 32.6275 81.196 32.6593 81.194 32.6911C81.1958 32.7226 81.1911 32.7542 81.1803 32.7838C81.1694 32.8134 81.1525 32.8405 81.1307 32.8633C81.107 32.8853 81.0792 32.9022 81.0488 32.9131C81.0184 32.924 80.9862 32.9286 80.954 32.9267C80.888 32.9308 80.8229 32.9089 80.7729 32.8656C80.751 32.8424 80.734 32.8149 80.7231 32.7849C80.7122 32.7549 80.7076 32.723 80.7096 32.6911ZM81.124 32.2178H80.7907L80.7196 30.8644H81.1984L81.124 32.2178Z" fill="#231F20"/>
<path d="M96.5158 34.7778C96.5233 34.871 96.5094 34.9648 96.4751 35.0518C96.4408 35.1389 96.3871 35.2169 96.318 35.28C96.1534 35.4078 95.9483 35.4721 95.7402 35.4611H95.5558L95.5647 36.1811L95.1358 36.1867L95.1113 34.1689L95.758 34.16C95.9572 34.1437 96.156 34.1972 96.3202 34.3111C96.386 34.369 96.4378 34.4411 96.4717 34.5219C96.5056 34.6028 96.5206 34.6903 96.5158 34.7778ZM95.5558 35.1111H95.6969C95.8017 35.1168 95.9056 35.0879 95.9924 35.0289C96.0251 35.0009 96.0507 34.9655 96.0671 34.9257C96.0835 34.886 96.0903 34.8429 96.0869 34.8C96.0901 34.759 96.0841 34.7178 96.0695 34.6794C96.0549 34.641 96.032 34.6063 96.0024 34.5778C95.9268 34.5244 95.8346 34.5 95.7424 34.5089H95.548L95.5558 35.1111Z" fill="#231F20"/>
<path d="M98.1549 36.1533L97.9993 35.6733L97.2615 35.6833L97.1215 36.1678L96.6582 36.1733L97.3471 34.1311L97.8715 34.1245L98.6149 36.1478L98.1549 36.1533ZM97.8949 35.3156C97.7541 34.88 97.6745 34.6341 97.656 34.5778C97.6382 34.52 97.6249 34.4756 97.6171 34.4422C97.5882 34.5615 97.5049 34.8548 97.3671 35.3222L97.8949 35.3156Z" fill="#231F20"/>
<path d="M99.6269 35L100.43 34.9889L100.444 36.0389C100.324 36.0807 100.202 36.1123 100.077 36.1333C99.9608 36.1518 99.8434 36.1618 99.7258 36.1633C99.5966 36.1736 99.4666 36.1557 99.345 36.1108C99.2234 36.0659 99.1129 35.9951 99.0214 35.9033C98.8577 35.7255 98.774 35.4689 98.7703 35.1333C98.7601 34.9935 98.7788 34.8531 98.8253 34.7208C98.8717 34.5885 98.9449 34.4672 99.0403 34.3644C99.1445 34.2677 99.2669 34.1927 99.4005 34.1438C99.5341 34.095 99.676 34.0733 99.8181 34.08C100.025 34.0775 100.23 34.1172 100.42 34.1967L100.283 34.5422C100.138 34.4718 99.9796 34.436 99.8192 34.4378C99.7355 34.4352 99.6523 34.4511 99.5755 34.4843C99.4987 34.5176 99.4302 34.5673 99.3747 34.63C99.2595 34.7723 99.202 34.9528 99.2136 35.1355C99.204 35.3137 99.2541 35.4901 99.3558 35.6367C99.4032 35.6944 99.4637 35.74 99.5324 35.7694C99.6011 35.7988 99.6758 35.8112 99.7503 35.8055C99.8418 35.8045 99.9331 35.794 100.023 35.7744V35.3522H99.6392L99.6269 35Z" fill="#231F20"/>
<path d="M100.927 36.1178L100.9 34.0933H101.33L101.356 36.1111L100.927 36.1178Z" fill="#231F20"/>
<path d="M102.177 35.43H101.844L101.756 34.0778L102.235 34.0711L102.177 35.43ZM101.769 35.9089C101.766 35.8769 101.77 35.8446 101.781 35.8142C101.791 35.7838 101.807 35.7559 101.829 35.7322C101.879 35.6887 101.944 35.6664 102.01 35.67C102.075 35.6652 102.14 35.6864 102.189 35.7289C102.211 35.7518 102.228 35.779 102.239 35.8089C102.25 35.8387 102.255 35.8704 102.254 35.9022C102.256 35.9338 102.252 35.9655 102.241 35.9953C102.231 36.0251 102.214 36.0524 102.193 36.0755C102.169 36.0976 102.141 36.1148 102.111 36.126C102.08 36.1373 102.048 36.1424 102.016 36.1411C101.983 36.1436 101.95 36.1395 101.919 36.1292C101.888 36.1189 101.859 36.1026 101.835 36.0811C101.813 36.0584 101.795 36.0314 101.784 36.0018C101.773 35.9722 101.768 35.9405 101.769 35.9089Z" fill="#231F20"/>
</svg>
