<svg width="120" height="120" viewBox="0 0 120 120" fill="none" xmlns="http://www.w3.org/2000/svg">
<g opacity="0.3">
<path d="M30.3236 27.58L30.3147 27.2789C30.3413 26.8344 30.3324 26.5322 30.3324 26.5322L30.3191 26.14C30.267 25.9548 30.2324 25.765 30.2158 25.5733C30.3074 25.4528 30.377 25.317 30.4213 25.1722L30.3336 24.7089L29.9047 24.2645C29.9047 24.2645 29.7302 24.0578 29.6469 24.0422C29.5152 24.0248 29.3816 24.0289 29.2513 24.0545C29.1804 24.0588 29.1093 24.0471 29.0436 24.02C29.0436 24.02 28.8702 23.7978 28.9113 23.73C28.9384 23.6764 28.9575 23.6191 28.968 23.56C28.8418 23.4621 28.7068 23.3761 28.5647 23.3033C28.5647 23.3033 28.4991 23.1789 28.5191 23.1167C28.527 23.0259 28.524 22.9345 28.5102 22.8445C28.5047 22.6756 28.6358 22.8822 28.5047 22.6756C28.3736 22.4689 28.3069 22.39 28.3069 22.39C28.2125 22.3641 28.1145 22.354 28.0169 22.36C27.9547 22.3811 27.608 22.4111 27.5591 22.3511C27.408 22.17 27.2647 22.2167 27.3847 22.0444C27.5047 21.8722 27.6658 21.7845 27.4958 21.79C27.3258 21.7956 27.288 21.7733 27.2447 21.7144C27.2013 21.6556 27.1002 21.7389 27.198 21.5478C27.2958 21.3567 27.258 21.4211 27.3369 21.25C27.4158 21.0789 27.5013 21.2656 27.4124 21.0811C27.3236 20.8967 27.448 20.9111 27.3213 20.7911C27.1947 20.6711 27.3324 20.5189 27.0591 20.4644C26.7858 20.41 26.7791 20.7467 26.7124 20.6433C26.6458 20.54 26.6069 20.5845 26.5202 20.4811C26.4336 20.3778 26.4091 20.2122 26.3047 20.1767C26.2002 20.1411 26.0702 19.9944 25.9869 20.0167C25.8708 20.0368 25.7514 20.0113 25.6536 19.9456C25.5939 19.877 25.5618 19.7887 25.5636 19.6978C25.5636 19.6145 25.5736 19.4033 25.5736 19.4033C25.5736 19.4033 25.4847 19.1956 25.3824 19.1811C25.2882 19.159 25.1966 19.1269 25.1091 19.0856C24.8958 18.9445 25.0302 18.65 24.8691 18.7356C24.708 18.8211 24.5924 19.1633 24.508 19.1467C24.4659 19.1333 24.4279 19.1093 24.3978 19.077C24.3676 19.0447 24.3463 19.0052 24.3358 18.9622C24.3136 18.8811 24.3291 18.74 24.2247 18.6533C24.0102 18.4722 23.9669 18.4311 23.8913 18.5167C23.8388 18.5768 23.8048 18.6509 23.7936 18.73C23.6953 18.648 23.6025 18.5596 23.5158 18.4656C23.4202 18.3794 23.3201 18.2986 23.2158 18.2233C23.1354 18.1421 23.0423 18.0746 22.9402 18.0233C22.8147 17.9678 22.7736 17.9878 22.748 17.8645C22.7224 17.7411 22.9369 17.8989 22.7191 17.5711C22.5013 17.2433 22.1824 17.0456 22.1224 17.0678C22.0624 17.09 21.7024 16.9156 21.6591 16.8522C21.6158 16.7889 21.4024 16.59 21.3191 16.6133C21.2358 16.6367 21.208 16.49 21.1069 16.5145C21.0522 16.5312 20.9932 16.5263 20.942 16.5006C20.8909 16.4749 20.8517 16.4305 20.8324 16.3767C20.7669 16.2322 20.6758 16.0089 20.6758 16.0089C20.6918 15.9593 20.6955 15.9067 20.6866 15.8554C20.6777 15.8041 20.6564 15.7557 20.6247 15.7144C20.5136 15.5522 20.6191 15.5489 20.4291 15.4478C20.3208 15.3907 20.2096 15.3395 20.0958 15.2944C20.054 15.2137 20.0169 15.1306 19.9847 15.0456C19.938 14.9222 19.9947 14.7122 19.8736 14.8C19.8386 14.8246 19.8112 14.8584 19.7941 14.8976C19.7771 14.9368 19.7711 14.9799 19.7769 15.0222L19.4647 14.7267C19.2681 14.7914 19.0672 14.8423 18.8636 14.8789C18.7313 14.8789 18.5936 14.6233 18.3336 14.6745C18.0736 14.7256 17.7336 14.7856 17.7336 14.7856C17.7336 14.7856 17.4169 14.4456 17.2891 14.4522C17.1613 14.4589 16.808 14.2945 16.8569 14.51C16.9058 14.7256 16.658 15.0411 16.838 15.2111C17.018 15.3811 17.2402 15.6333 17.2824 15.7667C17.3247 15.9 17.3758 15.9378 17.6402 16.1C17.9047 16.2622 18.0369 16.3511 18.2224 16.6556C18.408 16.96 18.2224 16.7867 18.4036 16.9545C18.5847 17.1222 18.1536 17.2689 18.5847 17.1244C19.0158 16.98 19.4991 17.2267 19.5024 17.3556C19.5058 17.4845 19.7802 17.9111 19.7802 17.9111L19.9713 18.4733C20.3302 18.8556 20.6258 18.5845 20.8047 18.7967C20.9836 19.0089 21.2013 18.9167 21.2491 19.13C21.2969 19.3433 21.4769 19.5189 21.4824 19.6933C21.488 19.8678 21.4524 19.93 21.5402 20.1278C21.7747 20.6456 21.7347 20.7789 21.9136 20.9478C22.0924 21.1167 22.4847 21.1467 22.5802 21.3611C22.6758 21.5756 22.758 21.4867 22.8113 21.7511C22.8647 22.0156 23.1269 22.1756 23.1758 22.3489C23.2247 22.5222 23.3102 22.4733 23.4491 22.7789C23.588 23.0844 23.7324 23.4678 23.9124 23.6789C24.0924 23.89 24.508 24.6644 24.508 24.6644C24.6544 24.7827 24.7763 24.9284 24.8669 25.0933C25.008 25.3467 25.0891 25.2167 25.2258 25.4267C25.3624 25.6367 25.2736 25.5578 25.6702 25.6745C26.0669 25.7911 25.868 25.1033 26.0658 25.7944C26.2636 26.4856 26.6158 26.7833 26.6158 26.7833C27.0224 27.2945 27.5491 27.4945 27.6424 27.6222C27.7358 27.75 28.1624 27.6945 28.2124 27.8678C28.2624 28.0411 28.4802 28.0767 28.5724 28.2922C28.6647 28.5078 28.7347 27.9378 28.9058 27.9322C29.0769 27.9267 29.2991 28.0945 29.2991 28.0945L29.7847 28.2967L30.1724 28.1967L30.3236 27.58Z" fill="#196181"/>
<path d="M35.9755 18.8222C35.8133 18.91 35.6422 18.8333 35.5599 18.8133C35.4777 18.7933 35.4099 18.6733 35.3099 18.8222C35.2099 18.9711 34.8455 19.09 34.7744 18.8822C34.7033 18.6744 34.7444 18.5278 34.6399 18.5933C34.5355 18.6589 34.3533 18.6633 34.2966 18.8344C34.2399 19.0055 34.0744 19.1144 34.0811 19.2789C34.0877 19.4433 33.9599 19.9733 33.9633 20.08C33.9666 20.1867 33.8277 20.3967 33.9788 20.5611C34.1299 20.7256 34.1311 20.8289 34.1944 20.8867C34.2577 20.9444 34.2377 20.9278 34.3466 21.1089C34.4555 21.29 34.7777 22.2278 34.7777 22.2278C34.8431 22.3622 34.9174 22.4921 34.9999 22.6167C35.0666 22.6989 35.0855 22.6767 35.1111 22.8389C35.1366 23.0011 35.1111 23.2411 35.1477 23.34C35.221 23.5 35.331 23.6405 35.4688 23.75C35.5415 23.8506 35.5953 23.9635 35.6277 24.0833C35.6286 24.1575 35.6523 24.2297 35.6955 24.29C35.7388 24.3711 35.8855 24.3889 35.8855 24.3889L36.1355 24.4C36.1355 24.4 36.3788 24.2478 36.4222 24.3078C36.4655 24.3678 36.6944 24.3411 36.7555 24.4011C36.8166 24.4611 36.9044 24.5 36.9433 24.4355C37.0183 24.3459 37.1162 24.2783 37.2266 24.24C37.2899 24.24 37.5599 24.2489 37.5655 24.3511C37.5711 24.4533 37.5255 24.4767 37.5511 24.6022C37.5753 24.6973 37.6127 24.7886 37.6622 24.8733C37.8858 24.8397 38.1068 24.79 38.3233 24.7244C38.4248 24.7434 38.5234 24.7755 38.6166 24.82C38.6566 24.8611 38.8444 24.8122 38.9044 24.7489C38.9644 24.6856 39.2666 24.4211 39.2666 24.4211C39.5999 24.5778 39.8166 24.6989 39.8166 24.6989C39.9077 24.9467 39.7655 25.0322 39.9899 24.9633C40.1437 24.9122 40.2884 24.8372 40.4188 24.7411C40.6644 24.6733 40.6988 24.42 40.8544 24.7278C41.0099 25.0356 40.8933 25.2711 40.9355 25.3744C40.9777 25.4778 40.9222 25.5822 41.0299 25.6844C41.1377 25.7867 41.2599 25.7422 41.3633 25.7167C41.5098 25.665 41.653 25.6045 41.7922 25.5356L42.1611 25.3967L42.3833 25.2033L42.4822 25.0311C42.4822 25.0311 42.6199 24.8389 42.7044 24.7322C42.7888 24.6255 42.8611 24.5178 42.9388 24.39C43.0018 24.3039 43.0551 24.2111 43.0977 24.1133C43.1344 24.0022 43.2688 23.6256 43.2688 23.6256C43.2903 23.5364 43.2872 23.4431 43.2599 23.3555C43.2122 23.2111 43.2066 23.0444 43.1622 22.9378C43.1177 22.8311 43.0511 22.7333 43.1522 22.6267C43.2522 22.5367 43.3604 22.4564 43.4755 22.3867C43.5366 22.3422 44.2988 21.4389 44.2988 21.4389C44.3438 21.3025 44.3739 21.1617 44.3888 21.0189C44.3925 20.8368 44.3866 20.6547 44.3711 20.4733C44.3375 20.3653 44.3199 20.2531 44.3188 20.14C44.3377 20.0555 44.4166 19.9278 44.6177 19.7556C44.8188 19.5833 44.4577 19.9267 44.8188 19.5822C45.1799 19.2378 44.9899 19.0267 45.1811 19.2344C45.3722 19.4422 45.2522 19.4633 45.4588 19.4767C45.6655 19.49 45.7477 19.4056 45.8944 19.42C46.0411 19.4344 46.2644 19.3033 46.1377 19.2878C46.0111 19.2722 45.9244 19.1067 45.8199 19.09C45.7155 19.0733 45.3755 18.7889 45.3755 18.7889C45.3755 18.7889 45.2055 18.6067 45.1211 18.59C45.0366 18.5733 44.8988 18.22 44.8988 18.1567C44.8835 18.0683 44.8801 17.9782 44.8888 17.8889C44.9022 17.7 44.8988 17.5956 44.8344 17.5156C44.7699 17.4356 44.6411 17.2711 44.5766 17.2511C44.5122 17.2311 44.4055 17.0489 44.3399 16.9867C44.2744 16.9244 44.2944 16.82 44.2099 16.7833C44.1255 16.7467 44.0355 16.5389 44.0355 16.5389C44.0346 16.4609 44.0391 16.3829 44.0488 16.3056C44.0644 16.16 43.9177 15.9578 44.0811 15.9933C44.4377 16.0633 44.5799 16.1922 44.6044 16.12C44.6202 16.058 44.6196 15.993 44.6029 15.9313C44.5862 15.8696 44.5538 15.8133 44.5088 15.7678C44.4655 15.7078 44.2988 15.6922 44.4222 15.5833C44.5455 15.4744 44.5155 15.35 44.6444 15.4289C44.6897 15.4506 44.7396 15.4611 44.7899 15.4596C44.8402 15.4581 44.8893 15.4445 44.9333 15.42L45.0733 15.2489L45.2799 15.1811C45.2799 15.1811 45.3911 14.9044 45.3499 14.8478C45.3088 14.7911 45.1911 14.6789 45.1555 14.6256C45.0244 14.4211 45.0611 14.19 45.1444 14.2689C45.2277 14.3478 45.5644 14.4233 45.5644 14.4233L45.9166 14.37L46.1011 14.2589C46.1011 14.2589 46.5622 13.7833 46.3122 13.8144C46.1626 13.8408 46.0086 13.8153 45.8755 13.7422C45.7317 13.6555 45.602 13.5472 45.4911 13.4211C45.4911 13.4211 45.2599 13.3444 45.1811 13.41C45.1022 13.4756 45.0944 13.2667 44.9255 13.2278C44.7566 13.1889 44.7499 12.9833 44.6277 12.9867C44.5055 12.99 44.3555 12.9344 44.3322 12.8289C44.3065 12.7408 44.2898 12.6503 44.2822 12.5589C44.2822 12.4767 44.0877 12.3144 44.0877 12.3144C44.0224 12.3167 43.9575 12.3042 43.8977 12.2778C43.8268 12.2184 43.7627 12.1513 43.7066 12.0778C43.4966 12.0411 43.5144 11.9122 43.3922 11.9822C43.3605 12.0017 43.3234 12.0107 43.2863 12.0079C43.2492 12.0051 43.2139 11.9907 43.1855 11.9667C43.1233 12.0111 42.9188 12.1022 42.8599 12.25C42.7961 12.3956 42.7245 12.5376 42.6455 12.6756C42.6455 12.6756 42.4633 12.8467 42.4666 12.9322C42.4653 12.9878 42.4503 13.0422 42.423 13.0907C42.3957 13.1391 42.3568 13.1801 42.3099 13.21C42.1888 13.2944 41.9233 13.4511 41.8655 13.5556C41.8077 13.66 41.9666 13.4911 41.8111 13.7667C41.6555 14.0422 41.6533 14.0456 41.6344 14.1511C41.6367 14.2696 41.6266 14.388 41.6044 14.5044C41.5522 14.8011 41.5077 14.7178 41.5522 14.8011C41.5875 14.8441 41.6094 14.8965 41.6151 14.9518C41.6208 15.0071 41.6101 15.0629 41.5844 15.1122C41.5022 15.24 41.4666 15.2978 41.3811 15.2878C41.1511 15.2511 41.2011 15.2778 41.0477 15.3989C40.7644 15.6378 40.7644 15.6578 40.6433 15.7033C40.5222 15.7489 40.3277 15.5267 40.3255 15.4633C40.3041 15.3495 40.2416 15.2474 40.1499 15.1767C40.0655 15.1378 40.0766 14.8656 39.9799 15.0367C39.8833 15.2078 39.8988 15.1 39.8233 15.31C39.7477 15.52 39.9066 15.3311 39.7455 15.5222C39.5844 15.7133 39.6422 15.5889 39.3833 15.85C39.2237 15.997 39.0752 16.1556 38.9388 16.3244C38.7999 16.4933 38.9011 16.45 38.7388 16.6022C38.5766 16.7544 38.7988 16.4533 38.4577 16.8L38.1133 17.1455C38.1133 17.1455 37.7211 17.1356 37.5777 17.2256C37.4255 17.3079 37.269 17.3821 37.1088 17.4478C37.1088 17.4478 36.9455 17.5778 36.8599 17.4978C36.7744 17.4178 36.6499 17.4222 36.5922 17.6089C36.5344 17.7955 36.4188 17.9711 36.4422 18.0767C36.4705 18.1706 36.481 18.2689 36.4733 18.3667C36.4792 18.5243 36.4562 18.6817 36.4055 18.8311C36.4055 18.8311 36.1399 18.7333 35.9755 18.8222Z" fill="#196181"/>
<path d="M40.7211 31.3333C40.9989 31.3522 41.0178 31.13 41.0178 31.13C41.0308 31.0279 41.0367 30.9251 41.0356 30.8222C41.0356 30.6811 41.0511 30.3778 41.0511 30.3778C41.0511 30.3778 40.6834 30.1656 40.6067 30.2233C40.53 30.2811 40.2734 30.1789 40.2734 30.1789C40.2734 30.1789 40.1311 30.0678 40.0234 30.1311C39.9156 30.1945 39.5311 30.3689 39.5311 30.3689C39.342 30.2934 39.1622 30.196 38.9956 30.0789C38.9956 30.0789 38.8278 29.9467 38.9367 29.8322C39.0456 29.7178 38.4589 29.6522 39.1789 29.6567C39.8989 29.6611 39.9245 29.6322 40.0623 29.6C40.2 29.5678 40.2267 29.6 40.3078 29.5067C40.3761 29.4257 40.4385 29.3399 40.4945 29.25C40.4624 29.2171 40.4209 29.195 40.3758 29.1866C40.3306 29.1783 40.284 29.1841 40.2423 29.2033C40.0789 29.2633 39.72 29.36 39.6389 29.3345C39.5578 29.3089 39.52 29.1722 39.3056 29.2078C39.0911 29.2433 39.0834 29.1311 38.9467 29.2445C38.81 29.3578 38.6989 29.3378 38.6189 29.3678C38.5738 29.3838 38.5259 29.3904 38.4781 29.3872C38.4303 29.3839 38.3837 29.3709 38.3411 29.3489C38.0311 29.1622 37.8656 29.1422 37.7534 29.1456C37.6406 29.1576 37.5291 29.1791 37.42 29.21C37.42 29.21 37.0489 28.8611 36.9389 28.8645C36.8289 28.8678 36.77 28.7856 36.6356 28.8445C36.5011 28.9033 36.46 28.5989 36.3023 28.8278C36.2434 28.9133 36.21 28.9256 36.1911 28.9289C36.1545 28.9289 36.1489 28.9033 36.1534 29.0545C36.0556 29.4767 35.8889 29.3967 35.8889 29.3967C35.8889 29.3967 35.6789 29.4945 35.5845 29.4356C35.3323 29.2756 35.3334 29.3333 35.14 29.2822C34.9467 29.2311 35.2445 29.06 34.9467 29.2345C34.6489 29.4089 34.2289 29.2833 34.12 29.3456C34.0111 29.4078 33.7056 29.3878 33.7323 29.3011C33.7589 29.2145 33.6434 29.0367 33.5823 28.9733C33.3545 28.7289 33.21 28.6222 33.0734 28.6822L32.6011 28.5856C32.4853 28.5101 32.3479 28.4749 32.21 28.4856C32.21 28.4856 31.9511 28.1333 31.8967 28.2167C31.8423 28.3 31.4834 28.2022 31.5478 28.5645C31.5734 28.7022 31.1556 28.41 30.9656 28.4722C30.7756 28.5345 30.5834 28.2767 30.4945 28.4589C30.2867 28.8822 30.3178 28.9711 30.2089 29.1089C29.9456 29.45 29.7478 29.2889 29.9456 29.45C30.1059 29.5729 30.2995 29.6449 30.5011 29.6567C30.67 29.68 30.6967 29.6222 30.8056 29.6189C30.8698 29.6186 30.9323 29.6393 30.9836 29.6778C31.035 29.7163 31.0724 29.7705 31.09 29.8322C31.12 29.97 31.0656 29.9722 31.1245 30.0833C31.1834 30.1945 31.2156 30.3578 31.3256 30.3545C31.4674 30.3269 31.606 30.2844 31.7389 30.2278L32.1534 30.2156L32.7089 30.4222L33.0478 30.5778C33.0478 30.5778 33.7089 30.5945 33.82 30.5778C34.1256 30.54 33.9311 30.4933 34.2323 30.4833C34.5334 30.4733 34.6767 30.3833 34.7311 30.4678C34.7856 30.5522 35.0323 30.4 35.0934 30.5089C35.1545 30.6178 35.3734 30.6111 35.3767 30.6967C35.38 30.7822 35.6267 30.8078 35.7411 30.85C35.8556 30.8922 36.1278 30.8678 36.2134 30.9489C36.2989 31.03 36.6023 31.02 36.7156 31.0433C36.8289 31.0667 37.0711 30.9745 37.16 31.0589C37.2489 31.1433 37.6311 31.0711 37.7156 31.0945C37.8 31.1178 37.7711 31.0945 38.0756 31.0833C38.38 31.0722 38.2411 31.0245 38.3789 31.0733C38.5167 31.1222 39.0645 30.9111 39.0711 31.1078L39.62 30.98C39.9878 31.19 40.1267 31.1856 40.3211 31.2633C40.449 31.311 40.5846 31.3348 40.7211 31.3333Z" fill="#196181"/>
<path d="M41.4766 30.7522C41.3211 31.12 41.3211 31.12 41.3522 31.23C41.3911 31.3667 41.5244 31.2978 41.6633 31.4445C41.92 31.7156 42.0322 31.7111 42.1078 31.6233C42.1833 31.5356 42.1078 31.5067 42.21 31.4011C42.5055 31.0856 42.6478 31.0122 42.5278 30.9445C42.1944 30.7611 41.9911 30.6878 41.9111 30.7122C41.6433 30.8022 41.5622 30.5489 41.4766 30.7522Z" fill="#196181"/>
<path d="M43.6934 30.9045C43.6523 30.8267 43.4445 30.8289 43.059 30.9244C42.9612 30.9478 42.9279 31.18 42.8479 31.32C42.7679 31.46 42.8479 31.4311 42.9168 31.6533L43.0279 31.7322C43.1954 31.7421 43.3635 31.7275 43.5268 31.6889C43.6912 31.6289 43.5268 31.6889 43.6034 31.5211C43.6801 31.3533 43.8412 31.1789 43.6934 30.9045Z" fill="#196181"/>
<path d="M30.5011 23.4267C30.4367 23.1478 30.4333 23.0167 30.2467 22.9489C30.06 22.8811 29.6211 23.08 29.5645 23.1367C29.4678 23.2478 29.3289 23.2956 29.5411 23.4767C29.7533 23.6578 29.7267 23.5245 29.9167 23.6878C30.1067 23.8511 30.0556 23.91 30.25 24.1445C30.4445 24.3789 30.4411 24.3667 30.7089 24.54C30.9767 24.7134 30.9311 24.9845 30.9733 24.7211C31.0156 24.4578 31.0178 24.3811 30.8833 24.2178C30.7489 24.0545 30.5645 24.0978 30.5733 23.8522C30.5822 23.6067 30.5667 23.7056 30.5011 23.4267Z" fill="#196181"/>
<path d="M33.1209 24.6667C33.145 24.5037 33.1052 24.3377 33.0098 24.2033C32.912 24.0556 32.4453 23.9967 32.3787 24.1467C32.2831 24.35 32.282 24.6378 32.4142 24.7633C32.5465 24.8889 32.492 24.8356 32.792 24.9011C33.092 24.9667 33.1098 24.8756 33.1209 24.6667Z" fill="#196181"/>
<path d="M47.1107 21.3333C47.203 21.4833 47.1107 21.4144 46.9307 21.7844C46.7507 22.1544 46.7619 21.7333 46.7496 22.1544C46.7374 22.5756 46.7596 22.4878 46.7419 22.7933C46.7241 23.0989 46.7474 22.9611 46.6141 23.1611C46.4807 23.3611 46.3919 23.1678 46.4885 23.4722C46.5852 23.7767 46.573 23.5833 46.4407 23.7811C46.3085 23.9789 46.1619 23.7333 46.2841 24.1211C46.4063 24.5089 46.2741 24.6222 46.4152 24.7C46.5563 24.7778 46.583 24.7256 46.833 24.7733C47.083 24.8211 47.2152 24.5922 47.2241 24.8711C47.233 25.15 47.3174 25.2311 47.2419 25.4267C47.1663 25.6222 47.1019 25.4011 47.163 25.6222C47.2241 25.8433 47.3852 25.6467 47.343 26.0067C47.3007 26.3667 47.3541 26.34 47.2196 26.5689C47.0852 26.7978 46.8141 26.8067 46.903 26.9711C46.9919 27.1356 46.9163 27.3622 47.1141 27.4933C47.3119 27.6244 47.3985 27.7644 47.6452 27.6433C47.8919 27.5222 48.0774 27.4078 48.1007 27.1844C48.1241 26.9611 48.1719 26.7633 48.193 26.5956C48.2141 26.4278 48.3385 25.9489 48.2507 25.8111C48.163 25.6733 48.1596 25.5633 48.1496 25.2556C48.1287 25.023 48.1306 24.7889 48.1552 24.5567C48.1896 23.9144 48.3985 23.6744 48.5719 23.7622C48.8807 23.9222 49.0996 23.7756 49.053 24.0811C49.0063 24.3867 48.7285 24.3156 48.733 24.4544C48.7374 24.5933 48.3741 24.4944 48.7696 24.7056C49.1652 24.9167 48.873 24.5078 49.163 24.9167C49.453 25.3256 49.4252 25.3544 49.543 25.5167C49.6607 25.6789 49.7096 25.5167 49.663 25.82C49.6163 26.1233 49.7141 26.2033 49.8141 26.2089C50.2296 26.2211 50.5918 26.2089 50.5918 26.0978C50.5918 25.9867 50.6919 25.8167 50.833 25.8378C50.9454 25.855 51.0603 25.8424 51.1663 25.8011C51.2774 25.7689 51.5807 25.6756 51.293 25.3511C51.0052 25.0267 50.6096 24.7867 50.6574 24.59C50.7052 24.3933 50.7285 24.2244 50.6718 24.1456C50.6152 24.0667 50.1852 23.6311 50.1852 23.6311L49.9785 23.2767L49.6896 22.9211C49.793 22.6678 49.9541 22.5244 50.0941 22.52C50.2341 22.5156 50.0941 22.5733 50.4196 22.3678C50.7452 22.1622 50.8807 22.02 50.963 21.9889C51.0452 21.9578 51.123 21.8167 51.1763 21.7022C51.2296 21.5878 51.2763 21.4189 51.2763 21.4189C51.2763 21.4189 51.7207 21.4467 51.7452 21.35C51.7941 21.1533 51.7274 20.7944 51.4541 20.94C51.308 21.0113 51.1714 21.1005 51.0474 21.2056C50.9363 21.2911 50.6618 21.2444 50.4919 21.2789C50.3219 21.3133 50.3485 21.1678 50.1319 21.3167C49.9152 21.4656 50.2152 21.3167 49.9096 21.4622C49.6041 21.6078 49.8874 21.6311 49.6107 21.6122C49.3341 21.5933 49.8441 21.1044 49.3319 21.5944C48.8196 22.0844 48.4607 22.0111 48.4607 22.0111C48.3976 21.9477 48.3481 21.8721 48.3152 21.7889C48.2552 21.6511 48.223 21.5433 48.1385 21.49C48.0403 21.4339 47.9529 21.3605 47.8807 21.2733C47.6207 20.8922 47.4607 21.0633 47.6163 20.7789C47.7718 20.4944 47.6419 20.6678 47.7707 20.3556C47.8996 20.0433 47.8696 19.9633 48.0052 19.9011C48.1407 19.8389 48.1396 19.7644 48.2763 19.7822C48.943 19.8711 48.4985 19.8856 48.943 19.8711C49.1372 19.8709 49.3312 19.8553 49.523 19.8244C49.523 19.8244 49.4652 19.7722 49.7985 19.7611C50.1319 19.75 49.9585 19.7011 50.1319 19.7511C50.3052 19.8011 50.4074 19.6867 50.4907 19.7122C50.5741 19.7378 50.883 19.7811 50.883 19.7811C50.883 19.7811 51.3274 19.7122 51.4074 19.7644C51.5712 19.8364 51.7397 19.897 51.9118 19.9456C52.0518 19.9689 52.2218 20.0456 52.3563 19.9867C52.4907 19.9278 52.7341 19.6956 52.9574 19.7156C53.1807 19.7356 53.1741 19.6256 53.4441 19.3956C53.7141 19.1656 53.8507 19.13 53.9019 18.9878C53.953 18.8456 53.8063 18.6544 53.9141 18.5433C53.9572 18.4882 53.9862 18.4233 53.9984 18.3543C54.0106 18.2853 54.0057 18.2144 53.9841 18.1478C53.9552 18.0656 53.9474 17.8144 53.7618 17.9622C53.5763 18.11 53.5096 17.9411 53.3541 18.2244C53.1985 18.5078 53.1385 18.4533 53.0085 18.7089C52.9048 18.9131 52.7353 19.0763 52.5274 19.1722C52.4158 19.226 52.2891 19.2397 52.1685 19.2111C52.083 19.1867 51.8352 19.1378 51.7241 19.1133C51.613 19.0889 51.5541 18.9511 51.3352 19.0411C51.1163 19.1311 51.0596 19.1633 50.9774 19.1367C50.8952 19.11 50.5907 19.1489 50.3919 19.0456C50.193 18.9422 50.0507 18.7478 49.9141 18.8089C49.7774 18.87 49.4696 19.0144 49.3907 18.9656C49.0807 18.7533 49.0496 18.5844 48.8863 18.6744C48.723 18.7644 48.6641 18.7667 48.6152 18.85C48.5347 18.977 48.4642 19.11 48.4041 19.2478C48.3819 19.3333 48.1919 19.4489 48.0807 19.4822C47.9696 19.5156 48.0463 19.26 47.8585 19.5178C47.6707 19.7756 47.8296 19.5744 47.6707 19.7744C47.5119 19.9744 47.3452 19.9222 47.3785 20.1189C47.4119 20.3156 47.2119 20.0956 47.2807 20.5389C47.3496 20.9822 46.9996 21.1444 47.1107 21.3333Z" fill="#196181"/>
<path d="M44.2922 31.0233C44.2469 31.0169 44.2007 31.0218 44.1578 31.0377C44.115 31.0536 44.0767 31.08 44.0466 31.1145C43.9644 31.2256 43.8311 31.4 43.9489 31.5911C44.0666 31.7822 44.1244 31.8933 44.2933 31.9456C44.4622 31.9978 44.5511 32.1589 44.6833 32.0433C44.8155 31.9278 45.0589 31.7756 45.1433 31.6922C45.3855 31.4645 45.2155 31.3011 45.2155 31.3011C44.8489 31.1178 44.8722 30.9489 44.7066 30.9822C44.5695 31.0051 44.4311 31.0188 44.2922 31.0233Z" fill="#196181"/>
<path d="M45.6215 31.0645C45.6604 31.37 45.6559 31.2567 45.7971 31.3978C45.9382 31.5389 46.1382 31.6367 46.2493 31.6056C46.3604 31.5745 46.5493 31.5111 46.6326 31.4811C46.6805 31.4573 46.7207 31.4205 46.7486 31.3749C46.7765 31.3293 46.791 31.2768 46.7904 31.2233C46.7904 31.1122 46.7637 30.8989 46.6671 30.8667C46.3593 30.7667 46.0437 30.8578 45.9759 30.8067C45.6893 30.5845 45.1637 30.5511 44.9759 30.7245C44.7882 30.8978 45.5826 30.7589 45.6215 31.0645Z" fill="#196181"/>
<path d="M49.84 31.3222C50.2266 31.3089 50.47 31.2567 50.4978 31.1611C50.6 30.8222 50.6522 30.7644 50.4866 30.7967C50.3211 30.8289 50.2644 30.8044 50.1033 30.8944C49.9422 30.9844 49.9922 30.9244 49.7989 30.9589C49.6055 30.9933 49.44 30.9422 49.3822 30.8322C49.3244 30.7222 49.43 30.61 49.1278 30.6456C48.8255 30.6811 48.9055 30.5956 48.71 30.6589C48.5144 30.7222 48.35 30.6133 48.2422 30.7033C48.1408 30.7685 48.0304 30.8183 47.9144 30.8511C47.9144 30.8511 47.7033 31.1644 47.4789 31.0611C47.31 30.9844 47.7878 31.2189 47.9855 31.3244C48.1833 31.43 48.5144 31.4178 48.5966 31.4422C48.746 31.5057 48.9115 31.5209 49.07 31.4856C49.2622 31.4211 49.84 31.3222 49.84 31.3222Z" fill="#196181"/>
<path d="M52.401 30.8478C52.6744 30.7833 52.5366 30.76 52.6744 30.7833C53.0077 30.8567 53.0388 30.8833 53.1477 30.88C53.5633 30.8667 53.6166 30.7822 53.6166 30.7822C53.9177 30.7722 53.8977 30.9211 54.0277 30.74C54.2433 30.4544 54.3255 30.5367 54.2433 30.4544C54.1498 30.3955 54.0434 30.3604 53.9333 30.3522C53.9333 30.3522 53.711 30.22 53.5721 30.31C53.4857 30.3646 53.3955 30.4129 53.3022 30.4544L53.141 30.6567C52.9845 30.6344 52.8269 30.6206 52.6688 30.6156C52.5321 30.6156 52.4099 30.5278 52.3088 30.6011C52.0633 30.7756 51.8922 30.6678 52.0633 30.7756C52.2344 30.8833 52.1255 30.9122 52.401 30.8478Z" fill="#196181"/>
<path d="M51.3596 30.4633C51.1996 30.6089 51.144 30.5811 51.1485 30.72C51.1452 30.7646 51.1316 30.8079 51.1089 30.8464C51.0861 30.885 51.0548 30.9178 51.0174 30.9422C51.0174 30.9422 50.6329 31.0678 50.7451 31.0878C50.8813 31.1221 51.0214 31.1378 51.1618 31.1345L51.3729 30.8745C51.5015 30.8999 51.6319 30.9148 51.7629 30.9189C51.7629 30.9189 51.9507 30.7167 51.7774 30.5278C51.6651 30.4089 51.5218 30.3189 51.3596 30.4633Z" fill="#196181"/>
<path d="M53.7207 31.5556C53.7452 31.5493 53.77 31.5448 53.7951 31.5422C53.8096 31.5344 53.824 31.53 53.8318 31.5244L53.7207 31.5556Z" fill="#196181"/>
<path d="M52.4208 33.3022C52.5074 33.3833 52.5052 33.3022 52.6974 33.21C52.8896 33.1178 53.0163 32.8656 53.2396 32.9122C53.463 32.9589 53.4119 33.0478 53.5985 32.8745C53.7852 32.7011 53.893 32.5856 53.973 32.4989C54.053 32.4122 54.2196 32.3233 54.2974 32.1822C54.3416 32.1019 54.3755 32.0165 54.3985 31.9278C54.2219 31.5945 54.4385 31.4233 54.0819 31.4911L53.7963 31.5467C53.6719 31.5945 53.3519 31.6411 53.203 31.7689C53.0408 31.9133 53.0341 31.7178 52.8496 31.9478C52.6652 32.1778 52.5263 32.2078 52.4219 32.4067C52.3174 32.6056 52.173 32.4145 52.2941 32.7733C52.4152 33.1322 52.333 33.2222 52.4208 33.3022Z" fill="#196181"/>
<path d="M54.5054 31.8133C54.6954 31.6945 55.4698 31.6422 55.8187 31.2956C56.1676 30.9489 56.0932 31.2322 56.3654 31.0567C56.6376 30.8811 56.7209 30.9033 56.7987 30.7911C56.8765 30.6789 56.9354 30.68 57.0121 30.5033C57.0887 30.3267 56.8443 30.4278 56.4565 30.4111C56.4565 30.4111 55.7109 30.5745 55.6309 30.5767C55.5509 30.5789 55.2721 30.6167 55.2721 30.6167C55.2721 30.6167 54.8598 30.7422 54.7476 30.7722C54.6265 30.8246 54.4949 30.8482 54.3632 30.8411C54.2243 30.8178 54.1743 30.9522 54.0376 31.0733C53.9009 31.1945 53.8265 31.36 53.9632 31.3289C54.0998 31.2978 54.2709 31.3733 54.3821 31.4256C54.4932 31.4778 54.4098 31.8745 54.5054 31.8133Z" fill="#196181"/>
<path d="M47.1161 32.8022C47.2528 32.7422 47.3383 32.8245 47.7317 32.8956C47.8683 32.92 47.8717 32.9734 48.065 33.0511C48.1604 33.0894 48.2535 33.1332 48.3439 33.1822C48.5139 33.26 48.8383 33.0522 48.8383 33.0522C48.9495 32.9678 49.0883 32.9911 48.9983 32.7978C48.9083 32.6045 48.9095 32.6322 48.7417 32.5556C48.6692 32.5313 48.6045 32.4882 48.5539 32.4309C48.5034 32.3735 48.4689 32.3039 48.4539 32.2289C48.3928 32.0378 48.2017 32.1545 48.0095 32.0478C47.8172 31.9411 47.7872 32.1122 47.4295 32.0667C47.0717 32.0211 47.1528 32.1045 47.0683 32.0778C46.9839 32.0511 46.8761 32.1134 46.7106 32.1745C46.545 32.2356 46.6883 32.2856 46.7839 32.6478C46.8795 33.01 46.9817 32.8622 47.1161 32.8022Z" fill="#196181"/>
<path d="M54.6045 22.4133C54.4279 22.3589 54.3412 22.4533 54.2245 22.4856C54.0346 22.5529 53.8268 22.5498 53.639 22.4767C53.4001 22.3656 53.639 22.4767 53.3956 22.2167C53.1523 21.9567 53.1934 22.2822 53.0523 22.4945C52.9112 22.7067 53.2623 22.5767 53.4112 22.7167C53.5034 22.8022 54.0545 22.6967 54.489 22.5033C54.6279 22.4456 54.639 22.5878 54.8223 22.7011C55.0056 22.8145 54.8223 22.7011 55.0079 22.99C55.1934 23.2789 55.129 23.1011 55.0279 22.7245C54.9268 22.3478 55.1123 22.6033 55.2268 22.48C55.3412 22.3567 54.7823 22.4678 54.6045 22.4133Z" fill="#196181"/>
<path d="M52.1371 22.2567C52.3649 22.1 52.1615 22.1067 52.1271 21.9611C52.0927 21.8156 52.146 21.6367 51.7938 21.5C51.5971 21.4278 51.7393 21.6222 51.3604 21.6922C50.9815 21.7622 51.3604 21.6922 51.1915 21.8145C51.0227 21.9367 51.3315 22.4145 51.4993 22.3367C51.6971 22.2411 51.906 22.4111 52.1371 22.2567Z" fill="#196181"/>
<path d="M45.941 8.0489C45.5688 8.3289 46.1443 7.95445 45.941 8.0489V8.0489Z" fill="#196181"/>
<path d="M55.0895 30.1789C55.2206 29.9211 55.6161 30.1311 56.0817 30.0045C56.5473 29.8778 56.4917 29.8811 56.3995 29.6333C56.3073 29.3856 55.7328 29.5689 55.485 29.5489C55.2373 29.5289 55.0261 30.3033 55.0895 30.1789Z" fill="#196181"/>
<path d="M99.8881 62.3878C99.8075 62.2473 99.743 62.0982 99.6958 61.9433C99.6867 61.8358 99.6483 61.7328 99.5847 61.6456C99.4792 61.4967 99.5458 61.2178 99.4736 61.22C99.4014 61.2222 99.3147 61.0511 99.2647 60.9767C99.2147 60.9022 99.1536 60.6822 99.0736 60.6089C99.0376 60.5684 99.0114 60.5202 98.9967 60.4681C98.9821 60.4159 98.9795 60.3611 98.9892 60.3078C99.0253 60.1845 99.0465 60.0573 99.0525 59.9289C99.0525 59.83 99.1347 59.45 99.1314 59.35C99.128 59.25 99.2669 58.9189 99.2136 58.8222C99.1603 58.7256 99.1814 58.5456 99.1492 58.3978C99.134 58.2712 99.1122 58.1454 99.0836 58.0211C99.0569 57.9456 98.9569 57.8511 99.1003 57.6678C99.2436 57.4845 99.3814 57.7856 99.3347 57.2345C99.2881 56.6833 99.2547 56.4089 99.1847 56.4867C99.1147 56.5645 98.8825 57.1733 98.8825 57.1733C98.6403 57.4078 98.508 57.2845 98.508 57.2845C98.508 57.2845 98.4547 57.2078 98.3525 57.0867C98.2503 56.9656 97.9847 56.7533 97.9347 56.6722C97.8847 56.5911 97.7569 55.9245 97.5581 55.96C97.3592 55.9956 96.8914 55.5811 96.8914 55.5811C96.8914 55.5811 96.9592 55.3289 96.8358 55.3333C96.7125 55.3378 96.3258 55.1011 96.3258 55.1011C96.3258 55.1011 96.0236 55.0345 95.968 54.96C95.9125 54.8856 95.928 54.5345 95.8036 54.5633C95.7708 54.5684 95.7373 54.5668 95.7051 54.5586C95.6729 54.5505 95.6427 54.536 95.6162 54.5161C95.5897 54.4961 95.5675 54.471 95.5508 54.4423C95.5341 54.4136 95.5234 54.3818 95.5192 54.3489C95.4903 54.1989 95.4981 53.7456 95.4447 53.6711C95.3914 53.5967 95.5225 53.6456 95.3847 53.35C95.2469 53.0545 95.1436 52.9778 95.1436 52.9778C95.145 52.9976 95.1423 53.0174 95.1359 53.0361C95.1294 53.0549 95.1192 53.0721 95.1059 53.0868C95.0927 53.1015 95.0766 53.1134 95.0586 53.1218C95.0407 53.1302 95.0212 53.1349 95.0014 53.1356C94.8492 53.1411 94.6481 53.1222 94.6203 53.0478C94.5925 52.9733 94.6203 52.8978 94.5392 52.8478C94.458 52.7978 94.6081 52.6711 94.3825 52.6789C94.1569 52.6867 94.128 52.4689 94.0492 52.5922C93.8603 52.8978 93.8769 53.2456 93.7669 53.1478C93.5347 52.9578 93.5725 52.6311 93.4936 52.4811C93.4147 52.3311 93.3125 52.2878 93.3058 52.0611C93.2992 51.8345 93.4169 51.7056 93.2336 51.4867C93.0503 51.2678 93.1969 51.2122 92.9669 51.07C92.7369 50.9278 92.8558 50.7433 92.678 50.6789C92.5003 50.6145 92.598 50.5789 92.4936 50.4811C92.4056 50.4092 92.3111 50.3456 92.2114 50.2911C92.1811 50.2469 92.1642 50.1949 92.1626 50.1413C92.1611 50.0877 92.1749 50.0348 92.2025 49.9889C92.2969 49.8367 92.5958 49.7 92.3414 49.6556C92.0869 49.6111 92.2169 49.7122 91.9114 49.5445C91.7157 49.4443 91.4961 49.4001 91.2769 49.4167C91.2769 49.4167 91.7747 49.2733 91.5203 49.1567C91.2658 49.04 90.7636 49.0822 90.7358 48.98C90.708 48.8778 90.5814 48.8856 90.5292 48.7367C90.4769 48.5878 90.418 48.4145 90.2636 48.4033C90.1092 48.3922 90.1814 48.2245 89.9814 48.2311C89.7814 48.2378 89.9025 48.1856 89.6292 48.2211C89.3558 48.2567 89.2247 48.21 89.0736 48.0645C88.9225 47.9189 88.9369 47.8589 88.8358 47.7456C88.4947 47.3567 88.4903 47.2033 88.4858 47.0545C88.4814 46.9056 88.5747 46.75 88.4247 46.7311C88.2747 46.7122 88.1914 46.5889 88.1114 46.4133C88.0314 46.2073 87.998 45.9861 88.0136 45.7656C88.0191 45.6312 88.0068 45.4967 87.9769 45.3656C87.9769 45.3656 88.3558 45.5011 87.8658 44.9678C87.3758 44.4345 87.4747 44.5233 87.4747 44.5233C87.4747 44.5233 87.3436 44.3556 87.2658 44.2533C87.188 44.1511 87.2825 44.08 87.1058 44.0311C86.9292 43.9822 86.9792 44.0067 86.9169 43.7356C86.8547 43.4645 86.9258 43.18 86.8725 43.06C86.8192 42.94 86.8303 42.6578 86.8014 42.5045C86.7609 42.3154 86.7364 42.1232 86.728 41.93C86.6914 41.4789 86.848 41.6511 86.6914 41.4789C86.5347 41.3067 86.458 41.2367 86.358 41.2389C86.258 41.2411 86.3069 41.1911 86.1003 41.0745C85.8936 40.9578 85.9425 40.8522 85.7858 40.7056C85.6292 40.5589 85.7858 40.5311 85.6292 40.5622C85.3336 40.6978 85.1369 40.7845 85.1369 40.7845C84.8936 40.9711 84.9536 40.8956 84.7603 40.8467C84.4336 40.7622 84.5569 40.6767 84.4003 40.5333C84.2436 40.39 84.3147 40.2867 84.2347 40.2111C84.1547 40.1356 84.1758 39.9611 84.1236 39.8645C84.0714 39.7678 84.1458 39.7122 84.0369 39.4656C83.9281 39.2189 83.9692 38.9689 83.9125 38.8456C83.8558 38.7222 83.958 38.6178 83.8514 38.47C83.7447 38.3222 83.8403 38.1178 83.7403 38.02C83.6403 37.9222 83.7614 37.8433 83.5547 37.7C83.4949 37.6668 83.4427 37.6215 83.4013 37.567C83.36 37.5125 83.3305 37.4499 83.3147 37.3834C83.2603 37.2578 83.2825 37.1611 83.2292 37.01C83.1758 36.8589 83.348 36.8989 83.0636 36.6378C82.7792 36.3767 82.8614 36.5456 82.7769 36.3689C82.6925 36.1922 82.7958 36.0945 82.7381 35.9445C82.6803 35.7945 82.6592 35.8222 82.5758 35.6C82.4925 35.3778 82.6447 35.3711 82.4947 35.3778C82.3447 35.3845 82.5381 35.2745 82.3425 35.3778C82.1469 35.4811 82.0181 35.4889 81.9747 35.6189C81.9247 35.7206 81.9021 35.8336 81.9092 35.9467C81.8947 36.1978 81.9236 36.3478 81.8792 36.5245C81.8347 36.7011 81.9825 36.5722 81.768 36.8811C81.5536 37.19 81.5247 37.24 81.5303 37.39C81.5358 37.54 81.4358 37.5189 81.3425 37.7234C81.2492 37.9278 81.1914 37.7045 81.248 37.9278C81.2656 38.0501 81.3235 38.1631 81.4125 38.2489C81.4892 38.3456 81.6292 38.4034 81.5447 38.4978C81.2769 38.7789 81.3947 38.5256 81.2769 38.7789C81.1658 39.2111 81.3881 39.1522 81.2992 39.3822C81.2447 39.5145 81.2625 39.5267 81.2647 39.5378C81.218 39.59 81.138 39.6845 81.2058 39.6122C80.9647 39.8956 80.9836 39.8189 81.0703 40.0689C81.1569 40.3189 81.1814 40.2389 81.1814 40.4389C81.1862 40.5999 81.1754 40.7611 81.1492 40.92C81.0858 41.2733 81.0269 41.3378 81.038 41.45C81.0736 41.7 81.1836 41.6722 81.2258 41.77C81.3614 42.0933 81.4569 42.2145 81.3692 42.3156C81.2003 42.5256 81.3392 42.2178 81.2003 42.5256C81.1668 42.6075 81.1223 42.6845 81.068 42.7545C81.068 42.67 81.0536 42.5911 81.0592 42.7667C81.0458 42.7822 81.0492 42.79 81.0592 42.8289C81.0725 43.2556 81.1125 42.93 81.0725 43.2556C81.0325 43.5811 80.9092 43.6622 80.9092 43.6622C80.9092 43.6622 80.9869 43.6856 80.9436 43.9133L80.9014 44.1356C80.8592 44.3578 80.8769 44.1133 80.8592 44.3578C80.8414 44.6022 81.0403 44.48 80.8425 44.6122C80.6447 44.7445 80.3781 44.9278 80.3836 45.0811C80.3857 45.1696 80.3613 45.2566 80.3136 45.3311C80.2369 45.5289 80.1147 45.7059 79.9569 45.8478C79.7114 46.0045 79.7492 45.7011 79.5792 45.8867C79.4092 46.0722 79.3569 45.87 79.2325 45.9978C79.108 46.1256 79.1547 45.8767 78.8814 45.9845L78.6092 46.0956C78.6092 46.0956 78.5725 45.82 78.4747 45.8267C78.3769 45.8333 78.2681 45.7067 78.1414 45.7156C78.0147 45.7245 78.0303 45.5422 77.9058 45.5222L77.5547 45.46C77.5547 45.46 77.5958 45.2378 77.518 45.1822C77.4433 45.1125 77.3809 45.0306 77.3336 44.94C77.2982 44.9134 77.2569 44.8957 77.2133 44.8881C77.1696 44.8806 77.1248 44.8835 77.0825 44.8967C76.9569 44.9522 76.8236 44.7056 76.7492 44.81C76.6747 44.9145 76.5947 44.6356 76.3947 44.72C76.1947 44.8045 76.2181 44.6745 76.1136 44.6089C76.0092 44.5434 75.8914 44.5145 75.7803 44.4445C75.5247 44.2778 75.6814 44.4445 75.5247 44.2778C75.1914 44.0145 75.1469 43.9611 75.0603 43.8922C74.8003 43.7011 74.918 43.4478 74.7169 43.4478C74.5158 43.4478 74.6936 43.4756 74.5169 43.4545C74.3403 43.4333 74.3181 43.5656 74.1947 43.5933C74.0714 43.6211 73.9658 43.5256 73.8392 43.53C73.7125 43.5345 73.728 43.3333 73.5825 43.3078C73.4369 43.2822 73.4503 43.2145 73.3736 43.1167C73.2969 43.0189 73.3192 42.9667 73.2147 42.8456C73.1311 42.7447 73.0352 42.6547 72.9292 42.5778C72.6447 42.4122 72.4192 42.3445 72.3147 42.2733L72.028 41.9311L72.168 41.65C72.4092 41.39 72.4792 41.2622 72.5547 41.2111C72.6144 41.1518 72.663 41.0821 72.698 41.0056C72.698 41.0056 72.8658 40.7722 72.8592 40.6467C72.8525 40.5211 73.0614 40.4056 72.9503 40.3433C72.7458 40.2233 73.2203 40.1578 73.2203 40.1578C72.9147 40.0678 72.6858 40.1578 72.6914 40.0756C72.7058 39.8011 72.6914 39.6045 72.8269 39.6178C73.3314 39.6767 73.2814 39.7289 73.4325 39.6967C73.5836 39.6645 73.588 39.8433 73.6803 39.64C73.7725 39.4367 73.8536 39.5089 73.7469 39.3378C73.6403 39.1667 73.6147 39.1411 73.7092 38.9611C73.8036 38.7811 73.7392 39.1833 73.8992 38.6789C74.0592 38.1745 74.1869 38.2678 74.1869 38.2678C73.9736 37.9467 73.8347 37.8233 73.7669 37.7778C73.5114 37.6133 73.5725 37.1867 73.4536 37.4645C73.3347 37.7422 73.3125 37.6956 73.2714 37.9222C73.2303 38.1489 73.478 38.09 73.2258 38.1445C72.9736 38.1989 72.9969 38.0556 72.8925 38.0045C72.6103 37.8656 72.7903 37.9833 72.6103 37.8656C72.4914 37.3667 72.5892 37.2622 72.4914 37.3667C72.4109 37.4763 72.3229 37.5803 72.228 37.6778C72.1047 37.78 71.9547 37.7889 71.8836 37.8645C71.8125 37.94 71.678 38.0389 71.5825 37.9756C71.3003 37.7856 71.2803 37.7211 71.1736 37.7145C70.9203 37.6945 70.9703 37.5956 70.7936 37.6756C70.6169 37.7556 70.6825 37.5056 70.5147 37.5845C70.3469 37.6633 70.4936 37.9022 70.4258 37.8633C70.2187 37.7394 70.0042 37.628 69.7836 37.53C69.4258 37.39 69.4503 37.2433 69.3258 37.3233C69.2014 37.4033 69.1958 37.2233 68.9469 37.2811C68.6981 37.3389 68.7469 37.2389 68.6447 37.2167C68.5425 37.1945 68.5103 37.0211 68.3858 37.0278C68.2614 37.0345 68.4203 36.6478 68.2492 36.7289C68.078 36.81 67.9792 36.8678 67.8769 36.84C67.7747 36.8122 67.6958 36.6178 67.6169 36.5711C67.538 36.5245 67.6103 36.3489 67.4347 36.3811C67.2592 36.4133 67.2503 36.1856 67.0558 36.3678C66.8614 36.55 66.7781 36.2989 66.6614 36.5545C66.5447 36.81 66.4969 36.7778 66.5547 36.8445C66.6125 36.9111 66.6914 37.0922 66.888 37.1089C67.0847 37.1256 67.2147 37.0511 67.3158 37.1456C67.4169 37.24 67.5969 37.1878 67.6014 37.3133C67.6058 37.4389 67.7358 37.6067 67.6636 37.7367C67.6075 37.8359 67.5443 37.9309 67.4747 38.0211L67.2247 38.0778C67.2247 38.0778 67.0447 37.9589 66.9458 38.0145C66.8469 38.07 66.7958 37.9933 66.7236 38.1711C66.6643 38.2959 66.5735 38.4031 66.4603 38.4822C66.1814 38.4167 65.9925 38.0678 65.9158 38.0745C65.9158 38.0745 65.4714 38.2145 65.3492 38.3678C65.2269 38.5211 65.2636 38.7489 65.1869 38.7522C65.1103 38.7556 64.7858 38.79 64.6903 38.87C64.6903 38.87 64.5369 38.9 64.5192 39.0256C64.5014 39.1511 64.3436 39.0256 64.2214 39.1878C64.0992 39.35 64.0947 39.1378 64.1047 39.3411C64.1147 39.5445 64.1403 39.7456 64.2158 39.7433C64.2158 39.7433 63.9803 40.1489 63.9869 40.3489C63.9936 40.5489 63.7358 40.3611 63.5425 40.5656C63.3492 40.77 63.2092 40.87 63.2092 41.0289C63.1814 41.6822 63.1736 41.4322 63.1814 41.6822C63.1892 41.9322 63.1914 41.9834 63.3447 42.1267C63.498 42.27 63.5669 42.62 63.5669 42.62C63.1714 42.7845 63.0192 42.79 62.9136 42.6434C62.9136 42.6434 62.4958 42.2067 62.3514 42.3622C62.2069 42.5178 61.7547 42.53 61.7547 42.53C61.3269 43.25 61.1236 43.2056 61.1236 43.2056L61.1114 42.8045C61.1361 42.5436 61.074 42.2819 60.9347 42.06C60.4669 41.6233 60.5092 41.37 60.1569 41.3811C59.8047 41.3922 60.2136 41.6822 59.8025 41.3922C59.3914 41.1022 59.1358 40.9645 59.1358 40.9645C59.1358 40.9645 58.7892 41.1256 58.7436 41.28C58.7436 41.28 58.308 41.1811 58.2003 41.5022C58.0916 41.773 57.9072 42.0068 57.6692 42.1756C57.2169 42.19 57.1136 42.0433 56.9658 42.1478C56.5214 42.4656 56.4803 42.6667 56.4803 42.6667L56.4547 43.3722C56.4547 43.3722 55.8992 43.4422 55.8103 43.6945C55.7372 43.8546 55.6935 44.0266 55.6814 44.2022C55.7983 44.3691 55.8893 44.5526 55.9514 44.7467L55.3503 44.8578L54.6836 44.5311L54.5547 45.1933C54.5547 45.1933 55.0114 45.3289 55.0703 45.5789L54.5425 46.2989L54.4092 46.8089L54.0758 45.8645L53.5825 45.4022C53.5825 45.4022 53.4014 45.2611 53.3547 45.3367C53.308 45.4122 53.1836 45.4478 53.0214 45.7745C52.8592 46.1011 52.4169 46.4733 52.3725 46.5522C52.328 46.6311 52.348 46.7011 52.3803 46.8C52.4125 46.8989 52.5314 46.9233 52.5369 47.1C52.5425 47.2767 52.4336 47.55 52.4836 47.6556C52.6458 48.0022 52.518 48.0089 52.3969 48.1156C52.2758 48.2222 51.9325 48.4545 51.9325 48.4545C51.9325 48.4545 52.1347 48.4745 51.9658 48.7289C51.7969 48.9833 51.5347 49.3245 51.4636 49.4267C51.3925 49.5289 51.3192 49.5545 51.2203 49.6845C51.1331 49.7892 51.0355 49.8849 50.9292 49.97C50.5825 50.1822 50.2169 50.4222 50.2169 50.4222C50.0488 50.4359 49.8815 50.459 49.7158 50.4911C49.3425 50.5522 49.3147 50.53 49.1669 50.6333C49.0192 50.7367 49.0436 50.6856 48.898 50.82C48.7818 50.9167 48.6589 51.005 48.5303 51.0845C48.5303 51.0845 48.3225 50.94 48.2525 51.0422C48.1825 51.1445 48.1414 50.82 47.9958 50.8522C47.8363 50.8691 47.6835 50.9256 47.5514 51.0167C47.428 51.1278 47.4269 51.07 47.2803 51.2022C47.1205 51.3139 46.9468 51.4043 46.7636 51.4711C46.6512 51.5235 46.5437 51.586 46.4425 51.6578L46.0236 51.9C45.9861 51.9127 45.9465 51.9175 45.9071 51.914C45.8677 51.9106 45.8294 51.899 45.7947 51.88C45.7947 51.88 45.038 51.8156 44.9169 51.8611C44.6192 51.9722 44.4669 51.9267 44.3958 52.03C44.3247 52.1333 44.1625 52.0789 44.0725 52.1667C43.7325 52.5 43.7514 52.2778 43.6358 52.5567C43.5203 52.8356 43.5625 52.6678 43.3925 52.8433C43.2225 53.0189 42.7536 53.2411 42.7536 53.2411C42.662 53.2883 42.5793 53.3511 42.5092 53.4267C42.458 53.5011 42.4414 53.6033 42.3169 53.6822C42.1925 53.7611 41.8136 53.6756 41.8136 53.6756C41.8136 53.6756 41.6447 53.8078 41.7225 53.9267C41.8003 54.0456 41.1669 54.4256 41.1869 54.5C41.2069 54.5745 41.1425 54.7545 41.0758 54.8822C40.9558 55.1045 40.668 54.7956 40.668 54.7956C40.668 54.7956 40.4892 54.6756 40.5858 54.5733C40.6575 54.4881 40.6969 54.3803 40.6969 54.2689C40.704 54.1684 40.6927 54.0675 40.6636 53.9711C40.6636 53.9711 40.5847 53.8956 40.4414 54.0767C40.298 54.2578 40.3303 54.5322 40.2636 54.76C40.2264 54.8992 40.18 55.0358 40.1247 55.1689C40.0558 55.3433 40.108 55.3422 40.1136 55.4967C40.1192 55.6511 40.2303 55.97 40.2092 56.0445C40.1794 56.1521 40.1567 56.2616 40.1414 56.3722C40.1025 56.6245 40.178 56.6222 40.0569 56.7767C39.9358 56.9311 39.9636 56.93 39.8692 57.16C39.8049 57.3254 39.7521 57.4951 39.7114 57.6678C39.6669 57.82 39.6158 57.7967 39.7025 58.0967C39.7537 58.2948 39.8283 58.4861 39.9247 58.6667C39.9747 58.7633 40.0147 58.3878 40.1792 58.8078C40.3436 59.2278 40.6092 59.5967 40.6369 59.6967C40.6647 59.7967 40.8725 59.9633 40.8747 60.0367C40.8769 60.11 40.7569 60.2445 40.7636 60.3456C40.7703 60.4467 40.938 60.3111 40.9214 60.6156C40.9245 60.6934 40.9095 60.7708 40.8775 60.8418C40.8454 60.9128 40.7973 60.9753 40.7369 61.0245C40.7369 61.0245 40.5925 60.5 40.4192 60.5311C40.2458 60.5622 40.3592 60.2578 40.1047 60.2133C39.8503 60.1689 39.718 59.9289 39.7492 60.1022C39.7803 60.2756 40.1869 60.4356 40.2214 60.6145C40.2404 60.7705 40.3059 60.9171 40.4092 61.0356C40.5125 61.1567 40.4547 60.8567 40.5125 61.1567C40.5703 61.4567 40.4747 61.4845 40.4014 61.4622C40.328 61.44 40.3669 61.1878 40.068 61.1733C39.7692 61.1589 39.6892 61.0622 39.6369 60.9867C39.5847 60.9111 39.6014 60.6878 39.4725 60.5656C39.4024 60.5023 39.3407 60.4302 39.2892 60.3511C39.2647 60.3089 39.2369 60.2678 39.2092 60.2233C39.1439 60.1305 39.0734 60.0415 38.998 59.9567C38.998 59.9567 39.0469 60.6567 39.2203 60.6511C39.3936 60.6456 39.4525 60.7622 39.4569 60.9156C39.4614 61.0689 39.6425 61.2389 39.6947 61.3089C39.7469 61.3789 39.8214 61.3333 39.9536 61.4511C40.0858 61.5689 40.1569 61.5211 40.308 61.5922C40.4592 61.6633 40.4003 62.0656 40.5003 62.1345C40.6003 62.2034 40.6292 62.1345 40.7092 62.3567C40.7892 62.5789 40.9447 62.5267 40.9725 62.6756C40.9947 62.9175 41.0036 63.1604 40.9992 63.4033C41.0321 63.6062 41.0811 63.8061 41.1458 64.0011C41.3525 64.2234 41.538 64.4656 41.5647 64.5633C41.5914 64.6611 41.4625 64.3922 41.6514 64.8633C41.8403 65.3345 42.0958 65.3245 42.1258 65.4734C42.1558 65.6222 42.3747 66.1678 42.3292 66.2445C42.2836 66.3211 42.268 66.6722 42.268 66.6722C42.3027 66.7032 42.3251 66.7454 42.3315 66.7915C42.3378 66.8375 42.3275 66.8842 42.3025 66.9233C42.2058 67.0545 42.3325 67.1234 42.3158 67.3489C42.2992 67.5745 42.4269 67.5222 42.4536 67.7467C42.4803 67.9711 42.4292 68.0233 42.5958 68.1911C42.8569 68.4556 43.0169 68.7011 43.1203 68.7745C43.2436 68.8686 43.3489 68.9842 43.4314 69.1156C43.5425 69.4367 43.6236 69.5356 43.5569 69.79C43.4903 70.0445 43.5258 69.6656 43.4903 70.0422C43.4761 70.2997 43.5273 70.5566 43.6392 70.7889C43.6392 70.7889 43.5514 71.1222 43.5047 71.2489C43.458 71.3756 43.4503 71.1245 43.4614 71.3756C43.4725 71.6267 43.498 71.7 43.5036 71.8756C43.5092 72.0511 43.5825 71.9978 43.4936 72.2789C43.4047 72.56 43.5958 72.4234 43.4003 72.5578C43.2047 72.6922 43.0536 72.6689 42.9325 72.7745C42.8114 72.88 42.6792 72.8078 42.6636 73.0089C42.648 73.21 42.7236 73.3078 42.7036 73.4833C42.6836 73.6589 42.6025 73.46 42.6858 73.6622C42.7692 73.8645 42.8903 73.8056 43.0192 73.8267C43.148 73.8478 43.2925 73.8178 43.4225 73.9122C43.5525 74.0067 43.7503 73.9511 43.7558 74.0511C43.7614 74.1511 43.9869 74.17 43.9903 74.2945C43.9936 74.4189 44.1247 74.5678 44.1814 74.6878C44.238 74.8078 44.6169 75.0022 44.6169 75.0022C44.6169 75.0022 45.0214 75.0122 45.0458 75.1133C45.0703 75.2145 45.4525 75.1745 45.4525 75.1745L46.1025 75.0745C46.1025 75.0745 46.478 75.0156 46.7069 75.1322C46.9358 75.2489 47.5836 74.9756 47.5836 74.9756L47.9758 74.7867L48.268 74.5011L48.5336 74.1911L49.0558 74.02L49.7225 73.6756L49.9447 73.3867L50.1136 73.1811C50.1136 73.1811 50.6847 73.0078 50.8347 73.0556C50.9847 73.1033 51.2658 73.0634 51.2925 73.1145C51.3192 73.1656 51.8103 72.87 51.8103 72.87C51.9274 72.8788 52.0451 72.8751 52.1614 72.8589C52.2852 72.8353 52.4109 72.8223 52.5369 72.82C52.5369 72.82 52.6836 72.74 52.7592 72.8134C52.8347 72.8867 52.9558 72.7545 53.0369 72.8778C53.118 73.0011 53.6425 72.9578 53.6425 72.9578L54.1714 72.8911L54.5203 72.8522C54.5203 72.8522 54.7169 72.7411 54.7925 72.7922C54.868 72.8433 55.0914 72.7578 55.0914 72.7578C55.0914 72.7578 55.3647 72.6711 55.4425 72.6467C55.5203 72.6222 55.8325 72.2811 55.8325 72.2811C55.8325 72.2811 56.0992 72.0733 56.1203 71.9956C56.1414 71.9178 56.0458 71.9956 56.3592 71.5845C56.6725 71.1733 56.9447 71.0633 57.0447 71.0345C57.1447 71.0056 57.5403 70.8445 57.6136 70.8122C57.6869 70.78 58.1036 70.5189 58.1036 70.5189L58.4947 70.1533C58.4947 70.1533 58.7403 69.92 58.7658 69.9933C58.7914 70.0667 59.1947 70.0067 59.1947 70.0067L60.3969 69.9633C60.5562 69.9598 60.715 69.946 60.8725 69.9222C60.9992 69.8922 61.5392 69.7 61.5392 69.7L61.9392 69.6378L62.2325 69.3989C62.3679 69.3403 62.4929 69.26 62.6025 69.1611C62.7203 69.0311 62.7725 68.9545 62.8958 68.9222C63.0171 68.8817 63.1416 68.8516 63.268 68.8322L63.7458 68.8167C63.7458 68.8167 64.0203 68.7611 64.1481 68.83C64.2758 68.8989 64.6458 68.6622 64.7203 68.7089C64.7947 68.7556 64.8203 68.6333 65.2225 68.6933C65.6247 68.7533 65.8947 68.5211 66.0003 68.6167C66.1058 68.7122 66.4247 68.5767 66.4247 68.5767C66.4247 68.5767 66.8469 68.4111 66.9736 68.4833C67.1003 68.5556 67.458 68.6933 67.458 68.6933C67.5834 68.8118 67.7217 68.9158 67.8703 69.0034C68.0247 69.0722 67.8847 69.3545 67.9814 69.3756C68.0781 69.3967 68.338 69.4622 68.338 69.4622L68.7614 69.4489C68.7614 69.4489 69.1369 69.3378 69.2058 69.2578C69.2747 69.1778 69.4836 69.3233 69.4836 69.3233C69.5622 69.4689 69.6909 69.581 69.8458 69.6389C70.1714 69.5278 70.1203 69.4789 70.2692 69.5278C70.418 69.5767 70.4914 69.5889 70.5781 69.6922C70.788 69.9622 70.8869 69.9856 70.9658 70.0045C71.0447 70.0233 71.2414 69.9711 71.2725 70.1711C71.3036 70.3711 71.4714 70.0911 71.3047 70.3711C71.1381 70.6511 70.9647 70.5845 71.038 70.6833C71.3269 71.0756 71.5292 71.07 71.5603 71.1922C71.5914 71.3145 72.0436 71.3756 72.0436 71.3756C72.0958 71.4884 72.1414 71.6042 72.1803 71.7222C72.3147 71.9945 72.4169 72.0411 72.4214 72.1167C72.4258 72.1922 72.7014 72.2333 72.6558 72.3589C72.6378 72.3984 72.6292 72.4415 72.6305 72.4848C72.6319 72.5282 72.6432 72.5706 72.6636 72.6089C72.6952 72.7101 72.7323 72.8095 72.7747 72.9067C72.9136 73.2056 72.8725 73.2645 72.9192 73.3511C73.0199 73.5524 73.1527 73.7359 73.3125 73.8945C73.3125 73.8945 73.6647 73.93 73.6936 74.0056C73.7225 74.0811 73.9158 73.9989 73.9158 73.9989C73.9158 73.9989 74.1103 73.7411 74.0336 73.7433C73.9569 73.7456 74.0003 73.5445 74.048 73.4433C74.1127 73.328 74.1843 73.2167 74.2625 73.11L74.6492 72.7222L74.9647 72.41C74.9647 72.41 75.2869 72.2245 75.2369 72.2011C75.1869 72.1778 75.428 71.9411 75.428 71.9411C75.5129 71.9023 75.5946 71.857 75.6725 71.8056C75.7541 71.7357 75.8285 71.6579 75.8947 71.5733C76.0385 71.4671 76.1397 71.3131 76.1803 71.1389C76.2201 71.049 76.2677 70.9627 76.3225 70.8811L76.4647 70.6756C76.4317 70.5661 76.4364 70.4487 76.478 70.3422C76.548 70.19 76.868 70.7322 76.7936 70.7345C76.7192 70.7367 76.7558 71.0133 76.6825 71.0678C76.6092 71.1222 76.6625 71.2178 76.6158 71.3467C76.5692 71.4756 76.7014 71.5967 76.6269 71.6745C76.5378 71.7734 76.465 71.8859 76.4114 72.0078C76.3914 72.0833 76.3236 72.3411 76.3003 72.4122C76.2769 72.4833 76.3558 72.5867 76.2625 72.7667C76.1692 72.9467 76.1669 72.92 76.1969 73.0422C76.2269 73.1645 76.4003 73.1367 76.2836 73.4411C76.1669 73.7456 76.2903 73.6422 76.1725 73.7489C76.079 73.8395 75.9576 73.8959 75.8281 73.9089C75.6525 73.9411 75.7958 73.6867 75.6525 73.9411C75.5776 74.0588 75.5224 74.1879 75.4892 74.3233L75.7225 74.5456L75.9136 74.1845L76.2092 74.1489C76.2812 74.1178 76.3601 74.1063 76.438 74.1156C76.4913 74.1222 76.5453 74.1131 76.5935 74.0894C76.6417 74.0657 76.6819 74.0285 76.7092 73.9822C76.7655 73.8424 76.8104 73.6982 76.8436 73.5511C76.8636 73.3978 76.9303 73.1478 76.9303 73.1478C77.2847 73.1833 77.7158 73.37 77.6436 73.4233C77.5714 73.4767 77.7481 73.5456 77.7247 73.6456C77.7014 73.7456 77.7869 73.9433 77.7192 74.1222C77.6746 74.2383 77.6375 74.357 77.608 74.4778C77.5847 74.5522 77.6347 74.5511 77.5658 74.7C77.4969 74.8489 77.5058 74.8545 77.6214 74.9C77.8372 74.9622 78.0681 74.9452 78.2725 74.8522C78.2725 74.8522 78.8214 74.7078 78.8025 74.8589C78.7836 75.01 78.9836 74.9789 78.9592 75.0811C78.9347 75.1833 78.8725 75.4867 78.8725 75.4867C78.8725 75.4867 79.1558 75.6956 79.2058 75.7522C79.4147 75.9745 79.4958 75.9878 79.4925 76.0678C79.4753 76.2292 79.4989 76.3924 79.5614 76.5422C79.5624 76.6168 79.5557 76.6913 79.5414 76.7645C79.5203 76.8656 79.6992 76.9111 79.6258 77.0111C79.5525 77.1111 79.6381 77.0656 79.6825 77.2122C79.7936 77.5822 79.8347 77.5989 79.8558 77.7578C79.8869 78.0322 79.9314 78.0356 79.9892 78.1033C80.2258 78.3733 80.3536 78.4689 80.4069 78.5411C80.5903 78.7878 80.6425 78.86 80.7236 78.9856C80.8047 79.1111 81.1036 79.0222 81.1325 79.0967C81.1325 79.0967 81.5547 79.0322 81.5569 79.1067C81.5569 79.1067 82.1703 79.3611 82.1469 79.44C82.2788 79.4882 82.4145 79.5254 82.5525 79.5511C82.6303 79.5511 82.6758 79.47 82.8025 79.5178C82.9292 79.5656 82.9247 79.4622 83.1047 79.5333C83.2861 79.5856 83.4722 79.6202 83.6603 79.6367C83.6603 79.6367 84.0869 79.5467 84.0669 79.6733C84.0469 79.8 84.3258 79.8378 84.3258 79.8378L84.5769 79.9078C84.5769 79.9078 84.7769 79.9534 84.8081 80.05C84.8392 80.1467 85.1103 80.2222 85.1103 80.2222C85.1103 80.2222 85.3325 80.14 85.3592 80.1889L85.3881 80.24L85.8325 79.9734L86.2003 79.7078L86.3692 79.4767L86.6392 79.2911L86.7669 79.3878L86.9647 79.2556C86.9707 79.1171 87.0187 78.9838 87.1025 78.8733L87.3458 78.6911C87.3458 78.6911 87.6792 78.8022 87.5769 78.8822C87.4747 78.9622 87.5125 79.1867 87.4403 79.2411L87.6714 79.38L88.0636 79.0933C88.0636 79.0933 88.3969 79.3333 88.2258 79.4389C88.0547 79.5445 87.9247 79.4989 87.9069 79.5733C87.8892 79.6478 88.0092 79.6456 88.1114 79.6922C88.2343 79.7342 88.3613 79.7632 88.4903 79.7789L88.8403 79.7678L89.0725 79.96C89.0725 79.96 89.2303 80.1067 89.2325 80.1822C89.2347 80.2578 89.4914 80.4045 89.4914 80.4045L89.6236 80.6511C89.6236 80.6511 89.7925 80.4456 89.7903 80.3689C89.788 80.2922 89.9992 80 89.9992 80L90.248 79.9411L90.4703 79.8834C90.7569 79.4711 91.0258 79.3134 91.0758 79.21C91.1682 79.0874 91.2741 78.9756 91.3914 78.8767C91.3914 78.8767 91.3914 78.8022 91.6336 78.62C91.8758 78.4378 92.0703 78.2033 92.0781 78.3022C92.0858 78.4011 92.3536 78.2656 92.3558 78.3445C92.3558 78.3445 92.8947 77.9956 92.9492 78.1222C93.0036 78.2489 93.3592 78.2833 93.3592 78.2833C93.4624 78.245 93.5713 78.224 93.6814 78.2211C93.8088 78.2169 93.9351 78.1956 94.0569 78.1578C94.1604 78.1202 94.2692 78.0996 94.3792 78.0967C94.4741 78.0976 94.5681 78.0779 94.6547 78.0389C94.7658 77.7578 94.8414 77.5578 94.8414 77.5578C94.9133 77.3635 94.9987 77.1746 95.0969 76.9922C95.0969 76.9922 95.1736 76.8267 95.1136 76.7411C94.9536 76.5189 95.0158 76.1189 95.0158 76.1189C95.0761 76.0263 95.1142 75.9209 95.1269 75.8111C95.1269 75.6856 95.1725 75.6833 95.1936 75.5567C95.204 75.4567 95.2006 75.3558 95.1836 75.2567C95.1836 75.1589 95.1969 74.8822 95.1969 74.8822C95.3892 74.6233 95.3892 74.5967 95.4325 74.4445C95.4793 74.3069 95.5335 74.1718 95.5947 74.04L95.978 73.5478C95.978 73.5478 96.0703 73.2956 96.0892 73.2145C96.108 73.1333 96.1069 72.9922 96.1303 72.9133C96.1676 72.796 96.1981 72.6765 96.2214 72.5556C96.2447 72.4278 96.2125 72.2789 96.2869 72.2222C96.3614 72.1656 96.428 71.9145 96.428 71.9145C96.428 71.9145 96.5458 71.66 96.5669 71.5811C96.6523 71.4295 96.7481 71.2839 96.8536 71.1456C96.8536 71.1456 96.9025 71.1178 96.9203 70.94C96.9328 70.8402 96.9384 70.7395 96.9369 70.6389C96.9748 70.5297 97.0407 70.4324 97.128 70.3567C97.2736 70.2256 97.368 70.0456 97.4436 69.9933C97.5497 69.9474 97.6419 69.8746 97.7114 69.7822C97.9036 69.5789 97.9547 69.5245 98.0758 69.3922C98.1969 69.26 98.0992 69.3433 98.2903 69.1111C98.4814 68.8789 98.678 68.6433 98.678 68.6433C98.678 68.6433 98.7403 68.2667 98.6658 68.2689C98.5914 68.2711 98.6314 68.07 98.6314 68.07C98.6314 68.07 98.8236 67.8622 98.8203 67.7367C98.8224 67.6339 98.8366 67.5317 98.8625 67.4322C98.9291 67.3406 98.976 67.2362 99.0003 67.1256C99.0003 67.0256 99.118 66.7711 99.1114 66.6956C99.1276 66.5344 99.1539 66.3745 99.1903 66.2167C99.1903 66.2167 99.3292 65.8833 99.3014 65.7845C99.2736 65.6856 99.388 65.5067 99.3592 65.3556C99.3303 65.2045 99.3747 65.08 99.3469 64.9534C99.3187 64.8467 99.3149 64.735 99.3358 64.6267C99.3558 64.5033 99.4769 64.3467 99.5225 64.2189C99.5681 64.0911 99.7114 63.9122 99.7092 63.8378C99.7188 63.7242 99.7486 63.6132 99.7969 63.51C99.8436 63.4067 99.9169 63.3556 99.908 63.1522C99.9053 63.0426 99.8938 62.9334 99.8736 62.8256C99.8736 62.8256 99.9703 62.4845 99.8881 62.3878Z" fill="#196181"/>
<path d="M92.5447 83.6667C92.2736 83.5722 91.9958 83.3822 91.8336 83.4878C91.6714 83.5933 91.0058 83.7489 90.8436 83.9245C90.6813 84.1 90.2502 84.1778 90.1458 84.1467C90.0414 84.1156 89.9747 83.9511 89.7113 84.0944C89.448 84.2378 89.4347 83.8722 89.0691 83.9156C88.7036 83.9589 88.5591 83.7311 88.2191 83.5744C87.8791 83.4178 87.7413 83.2589 87.6425 83.3622C87.5436 83.4656 87.4136 83.5011 87.4202 83.6033C87.4269 83.8256 86.9547 83.72 87.1414 84.2144C87.328 84.7089 87.3158 84.5111 87.6969 84.9C88.078 85.2889 87.9825 85.4556 88.0969 85.8256C88.2114 86.1956 88.1047 86.0567 88.2191 86.4211C88.3336 86.7856 87.8202 86.6356 88.2402 87.0878C88.6602 87.54 88.5958 87.6433 88.9691 87.8656C89.3425 88.0878 89.2447 88.0544 89.518 88.2133C89.7913 88.3722 89.6658 88.4445 89.9991 88.4667C90.3325 88.4889 90.3636 88.3556 90.5714 88.5145C90.7791 88.6733 90.6513 87.9444 90.9202 87.9656C91.1891 87.9867 91.1925 88.0578 91.3236 88.02C91.4547 87.9822 91.2358 87.42 91.3647 87.3145C91.4936 87.2089 91.698 87.0678 91.8091 87.3667C91.9202 87.6656 92.0569 87.7933 92.2902 87.7178C92.5236 87.6422 92.2314 87.0511 92.2591 86.8811C92.2869 86.7111 92.148 86.4511 92.3047 86.2445C92.4613 86.0378 92.5058 86.2033 92.5936 85.9011C92.6682 85.5934 92.6915 85.2754 92.6625 84.96C92.6491 84.6267 92.6402 84.3244 92.5947 83.9911C92.5491 83.6578 92.8169 83.7467 92.5447 83.6667Z" fill="#196181"/>
<path d="M92.3507 81.8889C92.2785 81.7922 91.9363 81.5689 91.774 81.7111C91.5629 81.8878 91.8852 81.9033 92.0885 82.0978C92.2918 82.2922 92.1152 82.8311 92.4118 82.7233C92.9407 82.5389 92.9385 82.47 92.7285 82.2456C92.5185 82.0211 92.4207 81.9867 92.3507 81.8889Z" fill="#196181"/>
<path d="M75.9677 75.0233C75.7666 75.0978 75.1077 75.3211 75.1077 75.3211C75.0088 75.4233 74.6455 75.5033 74.851 75.6644C75.0566 75.8255 75.2622 75.9144 75.4888 75.7755C75.7155 75.6367 75.6188 75.6044 76.0544 75.6211C76.4899 75.6378 76.591 75.6722 76.721 75.4333C76.851 75.1944 76.9144 75.1578 76.6444 75.1C76.3744 75.0422 76.1666 74.95 75.9677 75.0233Z" fill="#196181"/>
<path d="M86.1112 81.7356C85.8389 81.5944 85.6145 81.9211 85.8256 82.18C86.0367 82.4389 85.8456 82.7133 86.1756 82.5711C86.5056 82.4289 86.33 82.23 86.3589 82.0278C86.3878 81.8256 86.3512 81.86 86.1112 81.7356Z" fill="#196181"/>
<path d="M86.8201 26.5034C86.4988 26.1707 86.1037 25.9183 85.6667 25.7667C85.5556 25.5178 85.1989 25.28 85.0456 25.2111C84.8923 25.1422 84.3589 24.9322 84.2567 24.8856C84.1545 24.8389 83.8212 24.6734 83.6167 24.6067C83.4123 24.54 83.2378 24.47 82.7534 24.3111C82.2689 24.1522 82.0978 24.2322 81.9445 24.1889C81.7912 24.1456 81.0278 23.7945 80.8734 23.7245C80.7189 23.6545 80.5123 23.4834 80.2867 23.4189C80.1323 23.3858 79.9734 23.3791 79.8167 23.3989L79.8056 23.0534C79.7045 23.0622 79.6356 23.0722 79.6356 23.0722C79.569 23.0948 79.4984 23.1032 79.4284 23.0969C79.3584 23.0906 79.2904 23.0697 79.2289 23.0356C79.0267 22.9156 79.1956 22.7311 78.9201 22.74C78.6445 22.7489 78.4901 22.6556 78.1645 22.6656C77.8389 22.6756 77.6323 22.5078 77.3745 22.4156C77.1167 22.3234 77.0612 21.9222 76.8356 21.9811C76.6101 22.04 76.4089 21.9689 76.2067 21.9745C76.0045 21.98 75.9512 21.7834 75.7734 21.7389C75.5956 21.6945 75.3956 21.7034 75.2923 21.6789C75.1889 21.6545 75.1367 21.4334 75.0345 21.4567C74.9323 21.48 74.8834 21.3856 74.7612 21.4656C74.6389 21.5456 74.3878 21.6056 74.2689 21.7834C74.1501 21.9611 73.9445 21.9211 73.9212 22.0189C73.9057 22.102 73.9005 22.1867 73.9056 22.2711C73.9037 22.315 73.8928 22.358 73.8737 22.3976C73.8546 22.4371 73.8277 22.4723 73.7945 22.5011C73.5267 22.7622 73.5001 22.7367 73.4012 22.79C73.3023 22.8434 73.2467 22.6689 73.1467 22.7245C73.0348 22.772 72.9188 22.8092 72.8001 22.8356C72.6378 23.2711 72.4367 23.3011 72.2678 23.4822C72.0989 23.6634 72.0201 23.6367 71.9023 23.8945C71.8349 24.0554 71.7182 24.1908 71.5689 24.2811C71.4478 24.3922 71.4445 24.3111 71.1956 24.3711C70.9467 24.4311 70.6167 24.3622 70.5401 24.2878C70.4634 24.2134 70.4878 24.1911 70.4289 24.0156C70.3701 23.84 70.1678 23.6956 70.0878 23.5522C70.0078 23.4089 69.9267 23.23 69.8245 23.1578C69.7223 23.0856 69.8434 22.7067 69.6345 22.9111C69.6612 22.7434 69.6245 22.6122 69.5156 22.3456C69.4912 22.2867 69.4712 22.2711 69.4556 22.2645C69.4812 22.2578 69.5301 22.2222 69.6378 22.0422C69.9234 21.5634 69.6378 22.0422 69.6212 21.5078C69.6045 20.9734 69.5423 21.1434 69.5323 20.8089C69.5223 20.4745 69.0278 20.7567 68.9256 20.7267C68.8234 20.6967 68.4245 20.7756 68.4245 20.7756C68.2267 20.6468 68.0427 20.4979 67.8756 20.3311C67.6656 20.1022 67.7067 20.2678 67.5423 20.24C67.3778 20.2122 66.9045 20.2611 66.6701 20.2022C66.4356 20.1434 66.2456 20.5167 66.1145 20.6211C65.9834 20.7256 65.9145 20.6589 65.7445 20.6645C65.5745 20.67 65.2856 20.9822 65.2856 20.9822C65.2856 20.9822 65.1667 21.3911 64.9589 21.2278C64.7512 21.0645 64.9589 21.2278 64.7134 20.9C64.4678 20.5722 64.3801 20.8122 64.0123 20.8889C63.6445 20.9656 63.8456 21 64.1601 21.3545C64.2278 21.4345 64.6045 21.6056 64.6045 21.6056C64.7013 21.7343 64.818 21.8468 64.9501 21.9389C65.1189 22.03 64.9501 21.9389 65.2834 21.9278C65.6167 21.9167 65.6167 21.98 65.7523 21.9756C65.871 22.0308 65.9955 22.0729 66.1234 22.1011C66.2945 22.1256 66.2656 22.3967 66.2345 22.5634C66.2034 22.73 66.3789 22.8289 66.4501 22.9934C66.5212 23.1578 66.6545 23.0856 66.7534 23.05C66.8523 23.0145 67.1867 23.0011 67.3845 22.9289C67.5823 22.8567 67.3845 22.9289 67.6245 23.0545C67.8645 23.18 67.7945 23.1489 67.9923 23.0767C68.1901 23.0045 68.2934 23.1 68.5245 22.9267C68.7556 22.7534 68.8267 22.9834 68.9289 23.0122C69.0265 23.048 69.1295 23.0665 69.2334 23.0667C69.1373 23.0588 69.0417 23.0874 68.9656 23.1467C68.8212 23.3011 68.9967 23.3211 68.6701 23.3056C68.3434 23.29 68.4112 23.1378 68.2389 23.22C68.1215 23.2697 67.994 23.291 67.8667 23.2822C67.8667 23.2822 67.6178 23.4156 67.5745 23.5911C67.5312 23.7667 67.5312 23.8189 67.2523 23.8278C66.9734 23.8367 67.1467 23.5822 66.9445 23.5878C66.7423 23.5934 66.7223 23.3656 66.6434 23.5445C66.5023 23.8778 66.3256 23.8567 66.5056 23.9789C66.6856 24.1011 66.7134 24.1722 66.8667 24.2178C67.0201 24.2634 67.0167 24.2622 67.2001 24.4056C67.3834 24.5489 67.3112 24.5556 67.4123 24.7022C67.5134 24.8489 67.4956 25.0011 67.5234 25.1756C67.5455 25.2772 67.5737 25.3774 67.6078 25.4756C67.6378 25.5967 67.6389 25.6489 67.9156 25.6889C68.0394 25.7178 68.1663 25.7313 68.2934 25.7289C68.3372 25.7333 68.3813 25.7252 68.4206 25.7056C68.4599 25.6859 68.4929 25.6555 68.5156 25.6178C68.6834 25.36 68.6267 25.1856 68.6512 25.11C68.6756 25.0345 68.6956 24.9322 68.7412 24.7834C68.7867 24.6345 68.7267 24.4956 68.8056 24.45C69.1489 24.2645 69.1901 23.9356 69.1489 24.2645C69.1078 24.5934 69.0023 24.5689 68.9889 24.6956C68.9489 25.02 69.0001 25.0467 69.0778 25.14C69.1091 25.1978 69.1593 25.2431 69.22 25.2682C69.2807 25.2933 69.3482 25.2967 69.4112 25.2778C69.6134 25.2456 69.6123 25.1978 69.7189 25.3711C69.8256 25.5445 69.8456 25.4422 69.9956 25.4611C70.1456 25.48 70.4956 25.2945 70.4712 25.3978C70.4467 25.5011 70.5823 25.5922 70.5589 25.6978C70.5454 25.7386 70.546 25.7827 70.5607 25.8231C70.5754 25.8634 70.6034 25.8976 70.6401 25.92C70.7156 25.9678 70.8956 26.0878 70.8956 26.0878L71.2978 26.0956C71.3785 26.1314 71.4638 26.1557 71.5512 26.1678C71.7034 26.1856 71.9823 26.3289 72.2334 26.2945C72.4845 26.26 72.5323 26.2356 72.7412 26.4322C72.9501 26.6289 73.1478 26.5922 73.3256 26.6867C73.5034 26.7811 73.7567 26.7734 73.8589 26.7978C73.9869 26.8188 74.1131 26.8488 74.2367 26.8878C74.3623 26.9322 74.6678 26.9489 74.7201 27.0211C74.7723 27.0934 75.2512 27.18 75.2301 27.3334C75.2089 27.4867 75.4423 27.6778 75.4734 27.8267C75.4866 27.9566 75.5443 28.0779 75.6367 28.17C76.0512 28.5589 76.0812 28.6378 76.1045 28.7622C76.1278 28.8867 76.3678 29.0511 76.3701 29.1267C76.3723 29.2022 76.3189 29.1545 76.6823 29.4456C77.0456 29.7367 77.1178 29.7789 76.9723 29.9367C76.8267 30.0945 76.5434 29.9289 76.5434 29.9289C76.5434 29.9289 76.4912 29.8022 76.4501 30.0789C76.4368 30.1208 76.4368 30.1659 76.4501 30.2078C76.5016 30.2089 76.5529 30.2149 76.6034 30.2256C76.6034 30.2256 76.4823 30.3 76.4501 30.2078C76.3056 30.1989 76.0967 30.2078 75.9745 30.3189C75.7801 30.5022 75.5767 30.4578 75.4589 30.6611C75.3412 30.8645 75.4078 30.6367 75.2689 31.07C75.1301 31.5034 75.0289 31.3522 75.0389 31.6545C75.0489 31.9567 75.0223 31.8767 75.1978 31.8767C75.414 31.847 75.6319 31.8318 75.8501 31.8311C76.0994 31.8564 76.3507 31.8564 76.6001 31.8311C76.7534 31.8022 76.9556 31.8956 77.0245 31.72C77.0934 31.5445 77.2467 31.4389 77.1634 31.3645C77.1088 31.3005 77.0707 31.2243 77.0523 31.1422C77.0523 31.1422 77.1867 31.4145 77.3378 31.4378C77.4889 31.4611 77.3378 31.2589 77.4901 31.4556C77.6423 31.6522 77.7967 31.6456 77.8967 31.6156C77.9967 31.5856 77.8689 31.5934 78.2178 31.4567C78.5667 31.32 78.5345 31.07 78.5656 31.3211C78.5715 31.4149 78.596 31.5066 78.6376 31.5909C78.6791 31.6752 78.737 31.7505 78.8078 31.8122C78.9208 31.9259 79.0411 32.032 79.1678 32.13C79.2789 32.2267 79.6045 32.4422 79.6345 32.5667C79.6645 32.6911 79.7112 32.5667 79.8434 32.7611C79.9113 32.847 80.0022 32.9118 80.1056 32.9478L80.1178 33.3011C80.2394 33.35 80.3706 33.3698 80.5012 33.3589C80.6767 33.3267 81.1001 33.26 81.1001 33.26L81.4789 33.2745C81.6115 33.2571 81.7454 33.2519 81.8789 33.2589C82.1856 33.35 82.4134 33.4156 82.5367 33.3367C82.6548 33.2639 82.779 33.2015 82.9078 33.15C83.0413 33.0794 83.1821 33.0239 83.3278 32.9845C83.4023 32.9789 83.5501 32.9745 83.6001 32.8734C83.6501 32.7722 83.7734 32.7145 83.7112 32.5945C83.5201 32.1989 83.5456 32.1222 83.3945 32.15C83.2435 32.1643 83.0913 32.1606 82.9412 32.1389C82.7273 32.1011 82.5162 32.0495 82.309 31.9845L81.8212 31.7034C81.8212 31.7034 82.2523 31.7878 82.5556 31.8778C82.7457 31.9434 82.9403 31.995 83.1378 32.0322C83.2889 32.0511 83.5134 31.97 83.5878 31.9678C83.6216 31.9724 83.6559 31.9685 83.6877 31.9563C83.7195 31.9442 83.7478 31.9243 83.7699 31.8984C83.792 31.8726 83.8073 31.8416 83.8143 31.8082C83.8213 31.7749 83.8199 31.7404 83.8101 31.7078C83.7478 31.4367 83.3945 31.3978 83.7478 31.4367C83.9432 31.4618 84.1417 31.4365 84.3245 31.3634L84.4856 31.03L84.6123 31.0511L84.9367 30.9622C84.9789 30.7089 84.8023 30.6656 84.9789 30.7089C85.1556 30.7522 85.5345 30.6389 85.5823 30.74C85.6934 30.9889 85.7889 30.8611 85.9156 30.9311C86.2245 31.0945 86.3178 30.9645 86.3989 31.0422C86.4801 31.12 86.6723 31.03 86.7012 31.1022C86.7301 31.1745 86.9756 30.9734 87.1256 31.0889C87.4367 31.33 87.8489 31.6922 87.8545 31.8667C87.8601 32.0411 87.8645 32.0889 88.0445 32.1867C88.2245 32.2845 88.4467 32.3745 88.4534 32.4478C88.4889 32.7467 88.6434 32.8189 88.6956 32.8922C88.7478 32.9656 88.7523 33.0934 88.8301 33.1645C88.9078 33.2356 89.1367 33.2534 89.1634 33.3522C89.1901 33.4511 89.1723 33.5034 89.1989 33.6011C89.2256 33.6989 89.5323 33.6434 89.6056 33.7378C89.6698 33.8387 89.7484 33.9297 89.8389 34.0078C89.9434 34.08 90.0701 34.0756 90.1234 34.1711C90.1767 34.2667 90.4767 34.2122 90.5545 34.2334C90.6685 34.2706 90.787 34.2923 90.9067 34.2978C91.0078 34.2978 91.1012 34.1389 91.1789 34.2389C91.2567 34.3389 91.6612 34.2734 91.7889 34.3434C91.9167 34.4134 92.3201 34.4989 92.5212 34.5422C92.677 34.5862 92.8414 34.5896 92.9989 34.5522C93.2512 34.5189 93.0445 34.4011 93.2512 34.5189C93.4578 34.6367 93.5556 34.6589 93.6389 34.8067C93.7223 34.9545 93.7389 34.88 93.8712 35.0011C94.0034 35.1222 94.1278 35.1678 94.2245 35.1122C94.3212 35.0567 94.4734 35.0789 94.4934 34.8756C94.5134 34.6722 94.3445 34.8811 94.5112 34.6756C94.6778 34.47 94.3189 34.9078 94.5578 34.5734C94.7967 34.2389 94.7712 34.1634 94.5934 34.1945C94.4618 34.215 94.3283 34.2199 94.1956 34.2089L93.8389 34.0978C93.8389 34.0978 93.5867 34.1056 93.5056 34.0322C93.4245 33.9589 93.2689 33.7878 93.2934 33.7122C93.2934 33.7122 92.9823 33.3722 92.9045 33.3967C92.8267 33.4211 92.5045 33.4122 92.4267 33.3389C92.3908 33.3036 92.3625 33.2613 92.3434 33.2147C92.3243 33.1681 92.3148 33.1182 92.3156 33.0678C92.3156 32.9667 92.3078 32.8156 92.2312 32.7422C92.1545 32.6689 92.0912 32.3489 91.9212 32.4778C91.7512 32.6067 91.9978 32.5011 91.7489 32.6089C91.5001 32.7167 91.4001 32.6745 91.3967 32.5711C91.3964 32.427 91.3466 32.2874 91.2556 32.1756C91.1256 31.9778 91.1645 31.6522 90.9089 31.6356C90.6534 31.6189 90.5323 31.5456 90.5756 31.37C90.5887 31.2998 90.5737 31.2273 90.5338 31.168C90.4939 31.1088 90.4323 31.0676 90.3623 31.0534C90.1815 31.0007 90.0096 30.9213 89.8523 30.8178C89.7734 30.7445 89.4678 30.6045 89.4078 30.4567C89.3478 30.3089 89.3456 30.1578 89.2434 30.11C89.1412 30.0622 88.9678 30.0456 88.9101 29.7945C88.8523 29.5434 88.7034 29.5722 88.8512 29.4445C88.9989 29.3167 88.5178 29.2311 89.1445 29.2389C89.7712 29.2467 89.7212 29.2389 89.8678 29.1089C90.0145 28.9789 90.0634 28.9767 90.0601 28.8778C90.0567 28.7789 90.0778 28.7034 89.9745 28.6045C89.8712 28.5056 89.8701 28.4567 89.6912 28.3878C89.5123 28.3189 89.6345 28.1889 89.4067 28.12C89.1789 28.0511 88.9212 27.9122 88.6145 27.8222C88.3078 27.7322 87.8867 27.7711 87.809 27.6978C87.7312 27.6245 87.809 27.5722 87.6978 27.4289C87.5867 27.2856 87.6412 27.2289 87.4412 27.1856C87.2412 27.1422 87.1634 27.1189 87.0578 27.0234C86.9523 26.9278 87.3156 27.04 86.8201 26.5034Z" fill="#196181"/>
<path d="M64.9993 19.8145C64.657 19.5922 64.5904 19.5578 63.987 19.5778C63.3837 19.5978 63.1981 20.0045 63.4993 20.0289C63.8004 20.0533 64.3804 20.34 64.8137 20.2878C65.2126 20.2433 65.3393 20.0389 64.9993 19.8145Z" fill="#196181"/>
<path d="M72.5096 21.18C72.7318 20.8078 72.6651 20.81 72.324 20.6167C71.9829 20.4233 71.7496 20.4667 71.4174 20.5445C71.0851 20.6222 71.5685 21.0778 71.9729 21.1678C72.3774 21.2578 72.2873 21.5556 72.5096 21.18Z" fill="#196181"/>
</g>
<path opacity="0.15" d="M109.239 100.653L15.293 100.616C15.293 100.616 -0.58369 74.8 7.88964 57.5311C16.363 40.2622 28.723 52.4511 29.7541 39.9755C29.7896 39.5533 29.7619 39.1355 29.7619 38.7278C29.7619 38.63 29.7619 38.5344 29.7674 38.4389C30.0841 31.2733 34.0463 26.6422 39.2763 23.9789C39.4452 23.8922 39.6152 23.8089 39.7863 23.7267C48.1252 19.7389 59.4019 20.56 64.393 23.9878C72.8863 29.8211 72.8374 36.8422 90.3708 34.5255C107.904 32.2089 111.26 51.5767 106.689 61.4433C100.205 75.4444 124.646 73.1433 109.239 100.653Z" fill="#196181"/>
<path d="M59.1431 115.44C88.9376 115.44 113.091 110.518 113.091 104.446C113.091 98.3735 88.9376 93.4511 59.1431 93.4511C29.3486 93.4511 5.19531 98.3735 5.19531 104.446C5.19531 110.518 29.3486 115.44 59.1431 115.44Z" fill="#E5F2FC"/>
<path d="M103.196 60.8644H70.5195V103.964H103.196V60.8644Z" fill="#F5F5F6"/>
<path d="M103.196 60.8644H87.875V103.964H103.196V60.8644Z" fill="#EAEAEA"/>
<path d="M80.3069 66.6989H77.3691V73.8367H80.3069V66.6989Z" fill="#EAEAEA"/>
<path d="M80.3069 94.6367H77.3691V101.774H80.3069V94.6367Z" fill="#EAEAEA"/>
<path d="M87.8751 76.6389C87.8751 76.7 83.9862 76.75 79.1973 76.75C74.4084 76.75 70.5195 76.7 70.5195 76.6389C70.5195 76.5778 74.4084 76.5278 79.1973 76.5278C83.9862 76.5278 87.8751 76.5778 87.8751 76.6389Z" fill="#EAEAEA"/>
<path d="M80.3069 80.7733H77.3691V87.9111H80.3069V80.7733Z" fill="#EAEAEA"/>
<path d="M87.8751 90.7133C87.8751 90.7756 83.9862 90.8245 79.1973 90.8245C74.4084 90.8245 70.5195 90.7745 70.5195 90.7133C70.5195 90.6522 74.4084 90.6022 79.1973 90.6022C83.9862 90.6022 87.8751 90.6522 87.8751 90.7133Z" fill="#EAEAEA"/>
<path d="M94.0647 66.6989H91.127V73.8367H94.0647V66.6989Z" fill="#E1E1E0"/>
<path d="M100.44 66.6989H97.502V73.8367H100.44V66.6989Z" fill="#E1E1E0"/>
<path d="M94.0647 80.2444H91.127V87.3822H94.0647V80.2444Z" fill="#E1E1E0"/>
<path d="M100.44 80.2444H97.502V87.3822H100.44V80.2444Z" fill="#E1E1E0"/>
<path d="M94.0647 93.7889H91.127V100.927H94.0647V93.7889Z" fill="#E1E1E0"/>
<path d="M100.44 93.7889H97.502V100.927H100.44V93.7889Z" fill="#E1E1E0"/>
<path d="M105.653 59.3633H68.0625V60.9178H105.653V59.3633Z" fill="#E1E1E0"/>
<path d="M103.424 61.0644C103.424 61.1256 96.1208 61.1756 87.1141 61.1756C78.1074 61.1756 70.8008 61.1256 70.8008 61.0644C70.8008 61.0033 78.103 60.9533 87.1141 60.9533C96.1252 60.9533 103.424 61 103.424 61.0644Z" fill="#F5F5F6"/>
<path d="M46.7899 57.8133H14.1133V100.913H46.7899V57.8133Z" fill="#F5F5F6"/>
<path d="M46.7899 57.8133H31.4688V100.913H46.7899V57.8133Z" fill="#EAEAEA"/>
<path d="M23.9026 63.6478H20.9648V70.7855H23.9026V63.6478Z" fill="#EAEAEA"/>
<path d="M23.9026 91.5856H20.9648V98.7233H23.9026V91.5856Z" fill="#EAEAEA"/>
<path d="M31.4688 73.5878C31.4688 73.6489 27.5799 73.6989 22.7922 73.6989C18.0044 73.6989 14.1133 73.6489 14.1133 73.5878C14.1133 73.5267 18.0022 73.4767 22.7922 73.4767C27.5822 73.4767 31.4688 73.5267 31.4688 73.5878Z" fill="#EAEAEA"/>
<path d="M23.9026 77.7222H20.9648V84.86H23.9026V77.7222Z" fill="#EAEAEA"/>
<path d="M31.4691 87.6667C31.4691 87.7289 27.5802 87.7778 22.7924 87.7778C18.0047 87.7778 14.1113 87.7244 14.1113 87.6667C14.1113 87.6089 18.0002 87.5555 22.7902 87.5555C27.5802 87.5555 31.4691 87.6011 31.4691 87.6667Z" fill="#EAEAEA"/>
<path d="M37.6604 63.6478H34.7227V70.7855H37.6604V63.6478Z" fill="#E1E1E0"/>
<path d="M44.0335 63.6478H41.0957V70.7855H44.0335V63.6478Z" fill="#E1E1E0"/>
<path d="M37.6604 77.1933H34.7227V84.3311H37.6604V77.1933Z" fill="#E1E1E0"/>
<path d="M44.0335 77.1933H41.0957V84.3311H44.0335V77.1933Z" fill="#E1E1E0"/>
<path d="M37.6604 90.7378H34.7227V97.8756H37.6604V90.7378Z" fill="#E1E1E0"/>
<path d="M44.0335 90.7378H41.0957V97.8756H44.0335V90.7378Z" fill="#E1E1E0"/>
<path d="M49.2482 56.3122H11.6582V57.8667H49.2482V56.3122Z" fill="#E1E1E0"/>
<path d="M47.0198 58.0133C47.0198 58.0744 39.7165 58.1244 30.7087 58.1244C21.7009 58.1244 14.3965 58.0744 14.3965 58.0133C14.3965 57.9522 21.6987 57.9022 30.7087 57.9022C39.7187 57.9022 47.0198 57.9511 47.0198 58.0133Z" fill="#F5F5F6"/>
<path d="M28.0857 54.7C27.8574 53.9838 27.5744 53.2861 27.239 52.6133C26.6619 51.4778 25.9666 50.4063 25.1646 49.4167C24.6557 48.7767 24.1223 48.1567 23.6357 47.5C23.2657 47 22.8835 46.5078 22.5912 45.9544C22.2777 45.3552 22.1045 44.6926 22.0846 44.0167C22.0396 42.9972 22.3334 41.9916 22.9201 41.1567C23.469 40.3478 24.2568 39.7306 25.1735 39.3911C25.8133 39.148 26.4965 39.0398 27.1801 39.0733C27.944 39.097 28.6908 39.3051 29.3568 39.68C30.4601 40.3122 31.2257 41.2244 31.5957 42.45C31.8609 43.2658 31.876 44.1422 31.639 44.9667C31.4231 45.6815 31.1465 46.3766 30.8123 47.0444C30.4212 47.8311 30.0012 48.6 29.6268 49.4C28.9679 50.7978 28.4535 52.2411 28.2135 53.7722C28.1679 54.0622 28.1257 54.3522 28.1023 54.6444C28.1112 54.6667 28.1112 54.6844 28.0857 54.7Z" fill="#6EC0E2"/>
<path d="M26.7595 42.0656C27.0949 42.0307 27.4332 42.0962 27.7314 42.2537C28.0295 42.4112 28.2742 42.6537 28.4345 42.9505C28.5947 43.2472 28.6632 43.5848 28.6314 43.9206C28.5995 44.2563 28.4688 44.575 28.2556 44.8364C28.0425 45.0977 27.7565 45.2899 27.4341 45.3885C27.1116 45.4872 26.7671 45.488 26.4442 45.3906C26.1213 45.2933 25.8345 45.1024 25.6203 44.842C25.406 44.5815 25.2739 44.2634 25.2406 43.9278C25.1965 43.4797 25.3315 43.0324 25.6161 42.6835C25.9006 42.3345 26.3117 42.1124 26.7595 42.0656Z" fill="white"/>
<path d="M86.8503 56.5178C86.8096 55.7672 86.7112 55.021 86.5559 54.2855C86.2832 53.0404 85.8803 51.8274 85.3536 50.6667C85.0203 49.92 84.6614 49.1855 84.3536 48.4267C84.1214 47.8511 83.8747 47.2778 83.7325 46.6689C83.5813 46.0108 83.5813 45.327 83.7325 44.6689C83.9463 43.6717 84.4838 42.7732 85.2614 42.1133C85.9965 41.4671 86.9153 41.0669 87.8892 40.9689C88.5697 40.8952 89.2581 40.9625 89.9114 41.1667C90.6446 41.382 91.3148 41.7716 91.8647 42.3022C92.7725 43.1911 93.2847 44.2667 93.3336 45.5455C93.3841 46.401 93.1782 47.2521 92.7425 47.99C92.3533 48.6268 91.9105 49.2293 91.4192 49.7911C90.8425 50.4578 90.2414 51.0978 89.6792 51.7733C88.6892 52.96 87.8281 54.2267 87.2103 55.6489C87.0992 55.9178 86.9792 56.1878 86.8881 56.4655C86.8792 56.4878 86.877 56.5089 86.8503 56.5178Z" fill="#6EC0E2"/>
<path d="M88.7485 43.9556C89.0819 44.0063 89.3928 44.1548 89.6417 44.3823C89.8906 44.6099 90.0663 44.9061 90.1467 45.2337C90.227 45.5612 90.2084 45.9052 90.093 46.2221C89.9777 46.5389 89.7709 46.8145 89.4988 47.0137C89.2268 47.213 88.9017 47.327 88.5648 47.3413C88.2278 47.3556 87.8942 47.2696 87.6063 47.0942C87.3183 46.9188 87.0888 46.6618 86.947 46.3558C86.8052 46.0499 86.7574 45.7087 86.8096 45.3756C86.88 44.9309 87.1233 44.5321 87.4865 44.2661C87.8497 44.0001 88.3034 43.8884 88.7485 43.9556Z" fill="white"/>
<path d="M57.138 28.8889C56.8923 27.768 56.5617 26.6674 56.1491 25.5967C55.4329 23.7896 54.5291 22.0628 53.4524 20.4444C52.7713 19.4 52.048 18.3822 51.4035 17.3156C50.9124 16.5033 50.4035 15.7 50.0368 14.8178C49.6455 13.8631 49.4768 12.8318 49.5435 11.8022C49.6217 10.2477 50.212 8.76278 51.2224 7.57889C52.1723 6.43077 53.4562 5.60705 54.8957 5.22222C55.9027 4.94455 56.9561 4.8776 57.9902 5.02556C59.1479 5.17036 60.2534 5.59313 61.2124 6.25778C62.7957 7.37111 63.8302 8.86667 64.2224 10.7778C64.4846 12.08 64.4302 13.37 63.9302 14.6089C63.4991 15.6639 62.9787 16.6802 62.3746 17.6467C61.668 18.7867 60.9213 19.9022 60.238 21.0578C59.038 23.0856 58.0513 25.2056 57.468 27.5022C57.3569 27.9356 57.2513 28.37 57.1813 28.8111C57.1735 28.84 57.1746 28.8722 57.138 28.8889Z" fill="#C82C2A"/>
<path d="M56.923 9.50779C57.4375 9.50273 57.9419 9.65051 58.3723 9.9324C58.8028 10.2143 59.1398 10.6176 59.3408 11.0912C59.5419 11.5649 59.5978 12.0875 59.5015 12.593C59.4052 13.0984 59.161 13.5639 58.7999 13.9304C58.4388 14.297 57.9771 14.5481 57.4731 14.6519C56.9692 14.7558 56.4458 14.7077 55.9692 14.5139C55.4926 14.32 55.0843 13.989 54.7959 13.5628C54.5076 13.1367 54.3523 12.6345 54.3496 12.12C54.3467 11.433 54.6156 10.7727 55.0977 10.2833C55.5798 9.79392 56.236 9.51512 56.923 9.50779Z" fill="white"/>
<path d="M74.4228 33.7367H41.7461V107.21H74.4228V33.7367Z" fill="#99D1E9"/>
<path d="M74.4227 33.7367H59.1016V107.21H74.4227V33.7367Z" fill="#6EC0E2"/>
<path d="M51.5354 39.5722H48.5977V46.71H51.5354V39.5722Z" fill="#196181"/>
<path d="M51.5354 67.51H48.5977V74.6478H51.5354V67.51Z" fill="#196181"/>
<path d="M59.1005 49.5122C59.1005 49.5733 55.2116 49.6233 50.4239 49.6233C45.6361 49.6233 41.7461 49.5733 41.7461 49.5122C41.7461 49.4511 45.635 49.4011 50.4239 49.4011C55.2128 49.4011 59.1005 49.45 59.1005 49.5122Z" fill="#196181"/>
<path d="M51.5354 53.6467H48.5977V60.7844H51.5354V53.6467Z" fill="#196181"/>
<path d="M59.1005 63.5867C59.1005 63.6478 55.2116 63.6978 50.4239 63.6978C45.6361 63.6978 41.7461 63.6478 41.7461 63.5867C41.7461 63.5256 45.635 63.4756 50.4239 63.4756C55.2128 63.4756 59.1005 63.5256 59.1005 63.5867Z" fill="#196181"/>
<path d="M65.2932 39.5722H62.3555V46.71H65.2932V39.5722Z" fill="#196181"/>
<path d="M71.6663 39.5722H68.7285V46.71H71.6663V39.5722Z" fill="#196181"/>
<path d="M65.2932 53.1167H62.3555V60.2544H65.2932V53.1167Z" fill="#196181"/>
<path d="M71.6663 53.1167H68.7285V60.2544H71.6663V53.1167Z" fill="#196181"/>
<path d="M51.5354 81.2233H48.5977V88.3611H51.5354V81.2233Z" fill="#196181"/>
<path d="M59.1005 92.2989C59.1005 92.36 55.2116 92.41 50.4239 92.41C45.6361 92.41 41.7461 92.36 41.7461 92.2989C41.7461 92.2378 45.635 92.1878 50.4239 92.1878C55.2128 92.1878 59.1005 92.2378 59.1005 92.2989Z" fill="#196181"/>
<path d="M59.1005 77.4245C59.1005 77.4867 55.2116 77.5356 50.4239 77.5356C45.6361 77.5356 41.7461 77.4856 41.7461 77.4245C41.7461 77.3634 45.635 77.3134 50.4239 77.3134C55.2128 77.3134 59.1005 77.3634 59.1005 77.4245Z" fill="#196181"/>
<path d="M65.2932 80.6945H62.3555V87.8322H65.2932V80.6945Z" fill="#196181"/>
<path d="M71.6663 80.6945H68.7285V87.8322H71.6663V80.6945Z" fill="#196181"/>
<path d="M51.6565 95.63H48.7188V102.768H51.6565V95.63Z" fill="#196181"/>
<path d="M65.4124 95.1H62.4746V102.238H65.4124V95.1Z" fill="#196181"/>
<path d="M71.7874 95.1H68.8496V102.238H71.7874V95.1Z" fill="#196181"/>
<path d="M65.2932 66.6622H62.3555V73.8H65.2932V66.6622Z" fill="#196181"/>
<path d="M71.6663 66.6622H68.7285V73.8H71.6663V66.6622Z" fill="#196181"/>
<path d="M76.8791 32.9178H39.2891V34.4722H76.8791V32.9178Z" fill="#196181"/>
</svg>
