<svg width="425" height="425" viewBox="0 0 425 425" fill="none" xmlns="http://www.w3.org/2000/svg">
<path d="M109.403 260.486L52.7386 287.328L41.3948 240.589L93.3558 202.325L109.403 260.486Z" fill="#EFEDD8"/>
<path d="M95.4014 315.81C95.4014 313.342 96.8817 311.116 99.157 310.161L143.452 291.577C147.489 289.884 151.947 292.848 151.947 297.226V379.844C151.947 383.227 149.205 385.969 145.822 385.969H101.527C98.1438 385.969 95.4014 383.227 95.4014 379.844V315.81Z" fill="#0B719B"/>
<path d="M103.289 321.53C103.289 319.115 104.709 316.925 106.914 315.939L143.568 299.547C147.62 297.735 152.194 300.7 152.194 305.139V385.993H103.289V321.53Z" fill="#40B1E0"/>
<path d="M384.243 385.204C424.589 319.084 401.054 251.535 384.243 226.025L333.046 242.861C348.94 265.514 346.291 347.195 342.98 385.204H384.243Z" fill="#EFEDD8"/>
<path d="M17.4598 247.453C21.1277 229.086 63.3078 200.516 83.9393 188.526L93.873 209.189C90.5618 233.423 77.5206 282.656 51.8458 285.717C19.7522 289.544 12.875 270.412 17.4598 247.453Z" fill="#EFEDD8"/>
<path d="M291.019 144.905C275.737 147.354 259.18 143.885 252.813 141.844C238.803 142.864 209.868 146.742 206.2 154.089C202.533 161.435 191.937 160.211 187.097 158.68C157.296 141.079 132.844 154.089 122.146 163.272C113.588 170.619 91.0713 182.659 80.8829 187.761C68.6567 222.046 93.109 257.657 106.863 271.177C123.369 268.728 156.532 244.137 171.05 232.147C172.324 240.565 177.316 263.524 187.097 288.013C196.878 312.502 195.757 361.48 193.974 382.908H364.376C366.821 321.685 345.527 276.279 334.575 261.228C377.977 265.514 387.3 236.484 386.536 221.433C376.347 206.383 352.608 171.843 339.16 154.089C322.349 131.895 310.122 141.844 291.019 144.905Z" fill="#198AB9"/>
<path d="M202.38 183.169C195.044 169.088 202.38 163.527 206.965 162.507C213.506 142.445 235.904 137.921 256.424 138.957C272.351 139.761 283.173 155.179 276.931 169.854C269.728 186.789 258.218 198.849 250.289 204.889C248.822 206.007 246.752 205.425 245.947 203.765L234.473 180.108L216.942 202.055C215.36 204.036 211.922 203.428 210.944 201.088C209.279 197.102 206.556 191.185 202.38 183.169Z" fill="#11729A"/>
<path d="M194.739 138.783L245.17 113.529L263.511 151.793L258.254 163.074C249.717 181.394 226.997 187.976 210.021 177.047L194.739 138.783Z" fill="#FBFAF1"/>
<path fill-rule="evenodd" clip-rule="evenodd" d="M204.505 163.235L199.807 151.474L199.57 150.285L246.946 118.144L248.333 120.128L251.878 127.524C239.695 176.833 216.796 169.753 204.505 163.235Z" fill="#EFEDD8"/>
<path d="M160.353 37.7657C189.084 5.92991 221.738 24.5008 234.473 37.7657C255.869 41.439 258.162 61.7445 256.633 71.4381L234.473 106.641L135.136 55.3672C145.528 56.5916 155.004 44.143 160.353 37.7657Z" fill="#09648A"/>
<path d="M212.314 158.68C173.19 163.578 149.655 110.723 142.778 83.6825C149.655 56.8976 215.37 63.0199 235.238 72.9686C251.132 80.9275 253.067 104.855 252.049 115.824C247.158 148.272 223.521 157.915 212.314 158.68Z" fill="#FBFAF1"/>
<path fill-rule="evenodd" clip-rule="evenodd" d="M190.534 131.009L188.062 106.398L189.472 106.25L191.943 130.861C192.144 132.861 193.411 134.463 195.103 134.544C197.005 134.634 198.576 134.115 199.169 132.539C199.342 132.077 199.722 131.779 200.096 131.638C200.471 131.498 200.949 131.475 201.374 131.712C202.426 132.3 204.135 132.639 206.036 131.085C206.342 130.836 206.788 130.886 207.032 131.198C207.277 131.51 207.227 131.966 206.922 132.215C204.498 134.195 202.157 133.799 200.694 132.982C200.701 132.986 200.696 132.981 200.674 132.98C200.651 132.98 200.619 132.984 200.584 132.997C200.549 133.01 200.522 133.028 200.505 133.043C200.496 133.052 200.492 133.058 200.49 133.06C199.554 135.547 197.109 136.087 195.037 135.989C192.388 135.864 190.776 133.424 190.534 131.009Z" fill="#044C6A"/>
<path d="M257.397 71.4379C245.529 64.6458 240.587 73.9888 239.822 79.0907C244.713 86.4374 249.501 105.621 251.284 114.294C264.275 107.406 268.095 77.5603 257.397 71.4379Z" fill="#FBFAF1"/>
<path d="M24.9143 245.765C32.9139 226.778 65.6812 208.762 81.0649 202.127C92.0899 194.981 120.755 177.322 147.215 163.848C173.675 150.373 190.033 158.233 194.904 163.848C201.058 165.379 211.057 169.207 205.673 178.394C200.289 187.581 184.905 178.394 175.675 178.394C168.291 178.394 170.034 185.539 171.829 189.112C203.158 187.935 201.978 214.452 197.064 229.437C196.689 230.579 195.795 231.461 194.669 231.881C192.142 232.824 189.304 231.8 187.962 229.461L187.8 229.179C187.415 228.509 187.198 227.747 187.305 226.982C187.711 224.071 189.236 220.135 187.213 212.079C184.905 202.892 170.29 202.127 161.06 206.72C151.83 211.314 155.676 227.391 165.675 236.578C173.675 243.927 169.008 248.317 165.675 249.593C151.061 253.421 141.061 235.812 132.6 227.391C125.832 220.654 117.473 224.584 114.14 227.391C105.166 239.64 81.9879 267.814 61.0661 282.513C34.9137 300.887 14.9149 269.498 24.9143 245.765Z" fill="#FBFAF1"/>
<path fill-rule="evenodd" clip-rule="evenodd" d="M194.74 163.272C194.74 168.488 189.89 172.191 184.845 171.765C171.701 170.655 163.037 174.5 160.067 176.879L159.109 175.684C162.442 173.014 171.516 169.103 184.974 170.239C189.282 170.602 193.209 167.442 193.209 163.272H194.74Z" fill="#044C6A"/>
<path fill-rule="evenodd" clip-rule="evenodd" d="M294.488 187.124C292.236 165.746 300.63 155.373 306.752 152.625L307.38 154.022C302.055 156.412 293.803 166.004 296.011 186.963C297.521 201.306 304.572 214.396 312.302 226.779C324.08 245.646 331.685 256.477 334.415 259.993C334.675 260.327 334.614 260.808 334.28 261.068C333.946 261.327 333.465 261.266 333.206 260.932C330.426 257.353 322.789 246.469 311.003 227.59C303.26 215.186 296.038 201.84 294.488 187.124Z" fill="#0D6E97"/>
<path d="M197.795 242.861C197.795 251.737 190.611 258.932 181.748 258.932C172.886 258.932 165.701 251.737 165.701 242.861C165.701 233.985 172.886 226.79 181.748 226.79C190.611 226.79 197.795 233.985 197.795 242.861Z" fill="#DAB75D"/>
<path d="M135.136 271.18C135.136 267.797 137.879 265.055 141.262 265.055H213.065C216.448 265.055 219.191 267.797 219.191 271.18V379.844C219.191 383.227 216.448 385.969 213.065 385.969H141.262C137.879 385.969 135.136 383.227 135.136 379.844V271.18Z" fill="#F1D386"/>
<path fill-rule="evenodd" clip-rule="evenodd" d="M81.1853 155.861L50.392 141.239L51.7065 138.471L82.4998 153.093C83.2635 153.456 83.5883 154.369 83.2253 155.133C82.8623 155.898 81.949 156.223 81.1853 155.861Z" fill="#F1D386"/>
<path fill-rule="evenodd" clip-rule="evenodd" d="M130.06 104.371C129.231 104.21 128.427 104.752 128.265 105.583L121.746 139.083L124.75 139.668L131.27 106.168C131.431 105.337 130.89 104.533 130.06 104.371Z" fill="#F1D386"/>
<path fill-rule="evenodd" clip-rule="evenodd" d="M98.6817 142.601L86.5068 110.723L89.3661 109.631L101.541 141.508C101.843 142.299 101.448 143.184 100.658 143.486C99.8685 143.788 98.9836 143.391 98.6817 142.601Z" fill="#F1D386"/>
<path d="M319.891 245.294C322.206 250.652 324.849 256.94 328.462 261.228C274.973 306.38 306.811 356.634 320.056 385.969H389.592C398.507 381.123 413.892 362.705 416.337 321.686C418.782 280.666 393.158 263.269 377.366 258.167L381.75 231.196C382.35 227.509 381.092 223.534 377.698 221.975C369.105 218.027 362.084 223.174 362.084 228.321C355.207 218.372 340.433 223.219 339.16 231.382C333.024 225.885 327.401 225.768 322.897 227.671C317.055 230.14 317.375 239.472 319.891 245.294Z" fill="#F1D386"/>
<path fill-rule="evenodd" clip-rule="evenodd" d="M258.245 274.588C236.793 232.848 231.922 195.276 232.18 181.624L233.711 181.653C233.458 195.042 238.266 232.365 259.607 273.888C281.084 315.679 283.893 363.99 282.613 382.96C282.585 383.382 282.22 383.701 281.798 383.672C281.376 383.644 281.057 383.278 281.086 382.857C282.353 364.072 279.558 316.06 258.245 274.588Z" fill="#0D6E97"/>
<path d="M216.615 347.394H226.752V384.618H216.615V347.394Z" fill="#52ADD2"/>
<path d="M240.267 345.08L244.286 349.646L222.909 367.949L218.891 363.383L240.267 345.08Z" fill="#52ADD2"/>
<path d="M145.834 278.831C145.834 277.985 146.52 277.299 147.365 277.299H159.585C160.431 277.299 161.117 277.985 161.117 278.831V384.438C161.117 385.284 160.431 385.969 159.585 385.969H147.365C146.52 385.969 145.834 385.284 145.834 384.438V278.831Z" fill="#BEE9FA"/>
<path d="M170.286 278.831C170.286 277.985 170.972 277.299 171.818 277.299H184.038C184.883 277.299 185.569 277.985 185.569 278.831V384.438C185.569 385.284 184.883 385.969 184.038 385.969H171.818C170.972 385.969 170.286 385.284 170.286 384.438V278.831Z" fill="#BEE9FA"/>
<path d="M194.739 278.831C194.739 277.985 195.424 277.299 196.27 277.299H208.49C209.336 277.299 210.021 277.985 210.021 278.831V384.438C210.021 385.284 209.336 385.969 208.49 385.969H196.27C195.424 385.969 194.739 385.284 194.739 384.438V278.831Z" fill="#BEE9FA"/>
<path d="M174.107 177.812C156.99 165.568 135.9 176.792 127.495 183.935L136.665 198.475C145.527 184.865 162.718 187.794 170.988 191.229C171.523 191.451 172.119 191.479 172.664 191.284C177.431 189.579 179.03 183.639 175.762 179.772L174.107 177.812Z" fill="#FBFAF1"/>
<path fill-rule="evenodd" clip-rule="evenodd" d="M147.724 174.345C139.394 176.479 132.122 181.007 127.991 184.518L126.999 183.351C131.273 179.719 138.749 175.064 147.344 172.862C155.954 170.656 165.757 170.898 174.553 177.19L174.63 177.245L176.347 179.277C179.959 183.553 178.192 190.12 172.922 192.005C172.187 192.268 171.394 192.227 170.695 191.937C166.642 190.253 160.4 188.696 154.113 189.223C147.848 189.748 141.579 192.332 137.306 198.893C137.075 199.247 136.601 199.347 136.247 199.117C135.892 198.886 135.792 198.412 136.023 198.057C140.613 191.009 147.37 188.251 153.985 187.697C160.575 187.145 167.065 188.77 171.282 190.522C171.652 190.676 172.051 190.69 172.406 190.563C176.67 189.038 178.1 183.725 175.177 180.266L173.584 178.38C165.283 172.481 156.015 172.221 147.724 174.345Z" fill="#044C6A"/>
<path d="M238.578 333.858C238.578 345.071 229.501 354.162 218.305 354.162C207.108 354.162 198.031 345.071 198.031 333.858C198.031 322.644 207.108 313.554 218.305 313.554C229.501 313.554 238.578 322.644 238.578 333.858Z" fill="#08668D"/>
<path d="M253.783 340.626C253.783 349.036 246.597 355.854 237.733 355.854C228.869 355.854 221.683 349.036 221.683 340.626C221.683 332.216 228.869 325.398 237.733 325.398C246.597 325.398 253.783 332.216 253.783 340.626Z" fill="#11729A"/>
<path d="M176.646 121.97C176.646 124.083 174.936 125.796 172.826 125.796C170.716 125.796 169.005 124.083 169.005 121.97C169.005 119.857 170.716 118.144 172.826 118.144C174.936 118.144 176.646 119.857 176.646 121.97Z" fill="#198AB9"/>
<path d="M216.381 108.195C216.381 110.308 214.67 112.021 212.56 112.021C210.45 112.021 208.74 110.308 208.74 108.195C208.74 106.082 210.45 104.369 212.56 104.369C214.67 104.369 216.381 106.082 216.381 108.195Z" fill="#198AB9"/>
<path fill-rule="evenodd" clip-rule="evenodd" d="M220.754 141.624C217.191 143.527 213.435 144.164 211.032 144.164V142.632C213.214 142.632 216.717 142.044 220.032 140.274C223.331 138.512 226.42 135.594 227.876 130.925L229.338 131.382C227.738 136.508 224.332 139.713 220.754 141.624Z" fill="#044C6A"/>
<path fill-rule="evenodd" clip-rule="evenodd" d="M250.308 78.5789C248.43 79.0086 246.895 80.5138 246.064 81.8209L244.772 80.9996C245.724 79.5007 247.552 77.6386 249.966 77.0862C252.473 76.5126 255.358 77.4017 258.237 80.9258L257.051 81.8947C254.429 78.6844 252.093 78.1704 250.308 78.5789Z" fill="#044C6A"/>
<path fill-rule="evenodd" clip-rule="evenodd" d="M252.378 83.7782C251.978 81.0359 251.313 79.4035 250.894 78.7732L252.168 77.9247C252.768 78.825 253.478 80.7129 253.893 83.5571C254.312 86.4255 254.438 90.3213 253.819 95.28L252.3 95.0904C252.903 90.2534 252.775 86.4965 252.378 83.7782Z" fill="#044C6A"/>
<path opacity="0.5" fill-rule="evenodd" clip-rule="evenodd" d="M113.986 386.758V312.526H115.517V386.758H113.986Z" fill="#044C6A"/>
<path opacity="0.5" fill-rule="evenodd" clip-rule="evenodd" d="M126.976 385.993L126.976 307.934L128.507 307.934L128.507 385.993L126.976 385.993Z" fill="#044C6A"/>
<path opacity="0.5" fill-rule="evenodd" clip-rule="evenodd" d="M103.29 327.065H135.383V328.597H103.29V327.065Z" fill="#044C6A"/>
<path opacity="0.5" fill-rule="evenodd" clip-rule="evenodd" d="M103.29 343.902H135.383V345.433H103.29V343.902Z" fill="#044C6A"/>
<path opacity="0.5" fill-rule="evenodd" clip-rule="evenodd" d="M103.29 359.208H135.383V360.739H103.29V359.208Z" fill="#044C6A"/>
<path opacity="0.5" fill-rule="evenodd" clip-rule="evenodd" d="M103.29 374.513H135.383V376.044H103.29V374.513Z" fill="#044C6A"/>
<path fill-rule="evenodd" clip-rule="evenodd" d="M349.561 266.896C340.404 266.799 332.321 264.673 327.65 262.723L328.239 261.31C332.737 263.187 340.625 265.27 349.577 265.365C358.525 265.459 368.48 263.568 377.178 257.56L378.048 258.82C369.018 265.058 358.724 266.993 349.561 266.896Z" fill="#1577A0"/>
<path d="M171.78 235.341H176.527C177.52 235.341 178.372 235.491 179.084 235.79C179.796 236.089 180.343 236.532 180.726 237.118C181.109 237.704 181.3 238.425 181.3 239.28C181.3 239.956 181.181 240.543 180.941 241.039C180.702 241.536 180.364 241.951 179.928 242.286C179.497 242.621 178.988 242.884 178.402 243.076L177.631 243.471H173.44L173.422 241.524H176.554C177.062 241.524 177.484 241.434 177.819 241.254C178.154 241.075 178.405 240.827 178.573 240.51C178.746 240.193 178.833 239.831 178.833 239.424C178.833 238.987 178.749 238.61 178.582 238.293C178.414 237.97 178.16 237.722 177.819 237.549C177.478 237.375 177.047 237.288 176.527 237.288H174.248V248.406H171.78V235.341ZM179.156 248.406L176.132 242.555L178.743 242.546L181.803 248.28V248.406H179.156Z" fill="white"/>
<path d="M185.652 240.563V252.138H183.274V238.697H185.473L185.652 240.563ZM191.888 243.453V243.641C191.888 244.347 191.804 245.002 191.637 245.606C191.475 246.204 191.236 246.728 190.919 247.176C190.602 247.619 190.207 247.966 189.735 248.217C189.268 248.462 188.73 248.585 188.12 248.585C187.521 248.585 187.001 248.471 186.558 248.244C186.116 248.011 185.742 247.682 185.437 247.257C185.132 246.832 184.886 246.339 184.701 245.777C184.522 245.208 184.387 244.589 184.297 243.919V243.318C184.387 242.606 184.522 241.96 184.701 241.38C184.886 240.794 185.132 240.288 185.437 239.864C185.742 239.433 186.113 239.101 186.549 238.868C186.992 238.634 187.51 238.518 188.102 238.518C188.718 238.518 189.259 238.634 189.726 238.868C190.198 239.101 190.596 239.436 190.919 239.873C191.242 240.309 191.484 240.83 191.646 241.434C191.807 242.038 191.888 242.711 191.888 243.453ZM189.51 243.641V243.453C189.51 243.022 189.472 242.624 189.394 242.259C189.316 241.888 189.196 241.565 189.035 241.29C188.873 241.009 188.664 240.791 188.407 240.635C188.15 240.48 187.839 240.402 187.474 240.402C187.109 240.402 186.795 240.462 186.531 240.581C186.268 240.701 186.053 240.872 185.885 241.093C185.718 241.314 185.586 241.577 185.491 241.882C185.401 242.182 185.341 242.514 185.311 242.878V244.368C185.365 244.811 185.47 245.208 185.625 245.561C185.781 245.914 186.008 246.195 186.307 246.405C186.612 246.614 187.007 246.719 187.492 246.719C187.856 246.719 188.168 246.638 188.425 246.476C188.682 246.315 188.891 246.094 189.053 245.813C189.214 245.525 189.331 245.196 189.403 244.826C189.475 244.455 189.51 244.06 189.51 243.641Z" fill="white"/>
<path d="M337.236 294.427H348.085C350.355 294.427 352.303 294.768 353.93 295.452C355.557 296.136 356.808 297.147 357.683 298.487C358.559 299.827 358.996 301.475 358.996 303.43C358.996 304.975 358.723 306.315 358.176 307.45C357.629 308.585 356.856 309.535 355.858 310.301C354.874 311.066 353.712 311.668 352.372 312.105L350.608 313.008H341.03L340.989 308.557H348.147C349.309 308.557 350.273 308.352 351.038 307.942C351.804 307.532 352.378 306.964 352.761 306.24C353.158 305.515 353.356 304.688 353.356 303.758C353.356 302.76 353.165 301.899 352.782 301.174C352.399 300.436 351.818 299.868 351.038 299.472C350.259 299.075 349.275 298.877 348.085 298.877H342.876V324.288H337.236V294.427ZM354.094 324.288L347.183 310.916L353.151 310.895L360.145 324.001V324.288H354.094Z" fill="#198AB9"/>
<path d="M368.943 306.363V332.82H363.508V302.097H368.533L368.943 306.363ZM383.197 312.967V313.397C383.197 315.011 383.005 316.508 382.623 317.889C382.253 319.256 381.707 320.453 380.982 321.478C380.257 322.49 379.355 323.283 378.275 323.857C377.208 324.418 375.978 324.698 374.583 324.698C373.216 324.698 372.026 324.438 371.014 323.919C370.003 323.385 369.148 322.633 368.451 321.663C367.753 320.692 367.193 319.564 366.769 318.279C366.359 316.98 366.051 315.565 365.846 314.033V312.659C366.051 311.032 366.359 309.555 366.769 308.229C367.193 306.889 367.753 305.734 368.451 304.763C369.148 303.779 369.996 303.02 370.994 302.487C372.006 301.953 373.188 301.687 374.542 301.687C375.95 301.687 377.188 301.953 378.254 302.487C379.334 303.02 380.244 303.786 380.982 304.784C381.72 305.782 382.274 306.971 382.643 308.352C383.012 309.733 383.197 311.271 383.197 312.967ZM377.762 313.397V312.967C377.762 311.982 377.673 311.073 377.495 310.239C377.318 309.391 377.044 308.653 376.675 308.024C376.306 307.381 375.827 306.882 375.239 306.527C374.651 306.171 373.94 305.994 373.106 305.994C372.272 305.994 371.554 306.13 370.953 306.404C370.351 306.677 369.859 307.067 369.476 307.573C369.093 308.079 368.793 308.68 368.574 309.378C368.369 310.061 368.232 310.82 368.164 311.654V315.059C368.287 316.071 368.526 316.98 368.881 317.786C369.237 318.593 369.757 319.236 370.44 319.714C371.137 320.193 372.04 320.432 373.147 320.432C373.981 320.432 374.692 320.248 375.28 319.878C375.868 319.509 376.347 319.003 376.716 318.361C377.085 317.704 377.352 316.952 377.516 316.105C377.68 315.257 377.762 314.355 377.762 313.397Z" fill="#198AB9"/>
<path d="M263.757 364.565H292.794V372.218H263.757V364.565Z" fill="#F1D386"/>
<path d="M259.172 372.218H288.209V379.87H259.172V372.218Z" fill="#DAB75D"/>
<path d="M263.757 379.87H292.794V387.523H263.757V379.87Z" fill="#EFEDD8"/>
<path d="M285.066 338.872H351.835V387.504H285.066V338.872Z" fill="#86C5DF"/>
<path d="M297.402 358.343H318.04V387.522H297.402V358.343Z" fill="#198AB9"/>
<path d="M316.406 300.493C317.358 299.533 318.91 299.533 319.862 300.493L359.23 340.197C360.753 341.733 359.665 344.343 357.503 344.343H278.765C276.603 344.343 275.515 341.733 277.038 340.197L316.406 300.493Z" fill="#055F85"/>
<path d="M257.644 219.161C257.644 221.697 255.592 223.753 253.059 223.753C250.527 223.753 248.475 221.697 248.475 219.161C248.475 216.625 250.527 214.569 253.059 214.569C255.592 214.569 257.644 216.625 257.644 219.161Z" fill="#40B1E0"/>
<path d="M277.512 272.731C277.512 275.267 275.459 277.323 272.927 277.323C270.395 277.323 268.342 275.267 268.342 272.731C268.342 270.195 270.395 268.139 272.927 268.139C275.459 268.139 277.512 270.195 277.512 272.731Z" fill="#40B1E0"/>
<path d="M158.307 91.3587C149.749 94.4199 143.025 90.0833 140.732 87.5323L130.034 67.635L196.514 61.5127H222.494L238.541 87.5323C234.262 96.1035 226.06 83.961 222.494 76.8184C219.438 87.8384 205.429 86.5119 198.806 84.4712C195.138 92.4301 182.505 89.8282 176.646 87.5323C171.756 93.6546 162.383 92.6342 158.307 91.3587Z" fill="#EFEDD8"/>
<path d="M117.561 69.1423C118.784 57.51 136.41 53.5815 145.07 53.0713H171.051L215.37 48.4796L222.247 61.4894C221.025 82.9174 204.418 81.6419 196.267 78.3257C187.097 88.1213 178.182 84.9581 174.871 82.1521C167.536 88.8866 159.079 86.4887 155.768 84.4479C153.934 86.8968 149.4 88.0192 147.362 88.2743C128.259 91.3355 116.033 83.6826 117.561 69.1423Z" fill="#09648A"/>
<path fill-rule="evenodd" clip-rule="evenodd" d="M192.783 71.8496C193.003 71.3769 193.389 71.0216 193.878 70.7767C195.053 70.1883 196.11 69.9377 196.943 70.3244C197.835 70.7381 198.085 71.6797 198.137 72.4628C198.192 73.2849 198.055 74.2511 197.873 75.1627C197.781 75.6268 197.672 76.0946 197.564 76.5407C199.097 77.5023 201.033 78.3431 203.162 78.8C206.396 79.4943 210.013 79.2905 213.316 77.3495C216.615 75.4103 219.703 71.6763 221.764 65.1099L223.225 65.5684C221.083 72.3944 217.8 76.4899 214.092 78.6697C210.386 80.8477 206.358 81.0525 202.84 80.2972C200.708 79.8395 198.74 79.0247 197.113 78.0598L197.105 78.07C191.582 84.7866 185.37 86.0512 180.487 84.9305C178.612 84.5003 176.944 83.7206 175.598 82.7777C170.376 87.9556 163.576 88.1269 158.426 86.2425C157.157 85.7782 155.976 85.1852 154.931 84.5022C149.998 88.9823 143.844 89.8848 138.016 89.1631C131.848 88.3995 125.957 85.8128 122.019 83.6087L122.767 82.2724C126.611 84.4237 132.306 86.9132 138.204 87.6434C143.655 88.3183 149.203 87.486 153.668 83.577C153.111 83.1203 152.613 82.6365 152.185 82.1344C150.759 80.4644 150.001 78.4516 150.713 76.5499C151.199 75.2511 151.907 74.389 152.874 74.102C153.825 73.8196 154.757 74.1765 155.502 74.6627C157.071 75.6863 157.756 77.3443 157.743 79.016C157.732 80.5654 157.127 82.1627 156.046 83.3969C156.916 83.9374 157.894 84.4173 158.952 84.8044C163.655 86.5252 169.714 86.3501 174.394 81.8141C173.009 80.5461 172.06 79.0141 172.06 77.5836C172.06 76.1205 172.847 75.1138 173.891 74.6424C174.889 74.1914 176.111 74.2328 177.066 74.756C178.069 75.3056 178.749 76.3755 178.587 77.8255C178.464 78.9362 177.855 80.2121 176.65 81.6423C177.804 82.4193 179.227 83.0703 180.829 83.4379C185.085 84.4148 190.668 83.4049 195.813 77.2292C195.815 77.2224 195.816 77.2155 195.818 77.2087C195.307 76.836 194.846 76.4514 194.445 76.0647C193.544 75.1956 192.861 74.238 192.656 73.3074C192.549 72.8259 192.565 72.3199 192.783 71.8496ZM196.216 75.585C196.271 75.3452 196.324 75.1036 196.372 74.8628C196.548 73.9808 196.65 73.1773 196.609 72.5645C196.566 71.9126 196.387 71.7542 196.299 71.7135C196.153 71.6459 195.681 71.5865 194.564 72.146C194.318 72.2692 194.217 72.3973 194.172 72.4946C194.126 72.5942 194.1 72.7446 194.151 72.977C194.261 73.4743 194.691 74.1747 195.508 74.9622C195.723 75.1699 195.96 75.3782 196.216 75.585ZM175.443 80.6983C176.555 79.3894 176.986 78.3728 177.065 77.6561C177.156 76.8452 176.808 76.3613 176.33 76.099C175.803 75.8104 175.088 75.782 174.521 76.038C173.999 76.2737 173.591 76.7509 173.591 77.5836C173.591 78.3895 174.182 79.5495 175.443 80.6983ZM154.784 82.5099C155.697 81.5322 156.203 80.231 156.212 79.0049C156.221 77.7604 155.724 76.636 154.665 75.9451C154.073 75.559 153.627 75.4757 153.31 75.57C153.008 75.6596 152.557 75.9908 152.147 77.0869C151.713 78.2463 152.101 79.6773 153.349 81.1401C153.752 81.612 154.234 82.0728 154.784 82.5099Z" fill="#044C6A"/>
<path d="M239.822 88.2743C235.543 96.8454 224.285 73.989 219.191 61.4894C230.653 59.1935 252.048 56.4385 245.935 63.7852C238.294 72.9686 245.171 77.5603 239.822 88.2743Z" fill="#09648A"/>
<path fill-rule="evenodd" clip-rule="evenodd" d="M344.016 258.392L339.432 241.555L340.909 241.153L345.494 257.989L344.016 258.392Z" fill="#1577A0"/>
<path fill-rule="evenodd" clip-rule="evenodd" d="M359.248 257.626L363.833 240.79L362.356 240.388L357.771 257.224L359.248 257.626Z" fill="#1577A0"/>
<path fill-rule="evenodd" clip-rule="evenodd" d="M54.8273 214.995C65.841 208.179 76.8536 202.536 83.6402 199.421L84.3465 200.96C77.6175 204.048 66.6672 209.658 55.7182 216.434C44.7531 223.22 33.862 231.132 27.1912 238.815L25.913 237.705C32.7578 229.822 43.8295 221.801 54.8273 214.995Z" fill="#1577A0"/>
<path fill-rule="evenodd" clip-rule="evenodd" d="M406.317 388.743H55.1671V387.17H406.317V388.743Z" fill="#0F678C"/>
<path fill-rule="evenodd" clip-rule="evenodd" d="M211.999 397.937H8.5V396.364H211.999V397.937Z" fill="#1577A0"/>
<path fill-rule="evenodd" clip-rule="evenodd" d="M377.246 405.599H124.785V404.026H377.246V405.599Z" fill="#1577A0"/>
</svg>
