<svg width="110" height="111" viewBox="0 0 110 111" fill="none" xmlns="http://www.w3.org/2000/svg">
<path opacity="0.1" d="M100.135 91.2001L14.0184 91.1604C14.0184 91.1604 -0.535211 64.7685 7.23201 47.1044C14.9992 29.4402 26.3292 41.9099 27.2744 29.152C27.307 28.7201 27.2815 28.2933 27.2815 27.8758C27.2815 27.7739 27.2815 27.6782 27.2866 27.5804C27.5769 20.2532 31.209 15.5181 36.0031 12.7935C36.1579 12.7046 36.3138 12.6187 36.4706 12.5358C44.1146 8.46177 54.4515 9.29797 59.0267 12.8037C66.8123 18.7682 66.7675 25.9477 82.8397 23.5796C98.9119 21.2116 101.988 41.0146 97.7976 51.1041C91.8546 65.4204 114.259 63.0686 100.135 91.2001Z" fill="#196181"/>
<path d="M54.2139 106.32C81.5255 106.32 103.666 101.287 103.666 95.0776C103.666 88.8686 81.5255 83.8352 54.2139 83.8352C26.9022 83.8352 4.76172 88.8686 4.76172 95.0776C4.76172 101.287 26.9022 106.32 54.2139 106.32Z" fill="#E5F2FC"/>
<path d="M94.6273 39.2281H19.6226C18.9476 39.2281 18.4004 39.7754 18.4004 40.4504V88.4328C18.4004 89.1078 18.9476 89.655 19.6226 89.655H94.6273C95.3023 89.655 95.8496 89.1078 95.8496 88.4328V40.4504C95.8496 39.7754 95.3023 39.2281 94.6273 39.2281Z" fill="#BBE6FB"/>
<g opacity="0.5">
<path d="M91.3828 87.1208H22.8661C22.3137 87.1202 21.784 86.9005 21.3935 86.5098C21.003 86.119 20.7835 85.5893 20.7832 85.0369V38.79C20.7837 38.2378 21.0034 37.7083 21.3939 37.3178C21.7844 36.9273 22.3138 36.7077 22.8661 36.7072H91.3828C91.9351 36.7077 92.4646 36.9273 92.855 37.3178C93.2455 37.7083 93.4652 38.2378 93.4657 38.79V85.0369C93.4652 85.5892 93.2456 86.1188 92.8551 86.5094C92.4646 86.9001 91.9352 87.12 91.3828 87.1208ZM22.8661 37.1665C22.4365 37.167 22.0246 37.3379 21.7208 37.6417C21.417 37.9455 21.2462 38.3574 21.2456 38.787V85.0369C21.2462 85.4664 21.4171 85.8781 21.7209 86.1818C22.0247 86.4854 22.4366 86.6561 22.8661 86.6563H91.3828C91.8122 86.6561 92.224 86.4853 92.5277 86.1817C92.8313 85.878 93.002 85.4663 93.0023 85.0369V38.79C93.0025 38.5771 92.9609 38.3662 92.8796 38.1694C92.7984 37.9725 92.6792 37.7936 92.5288 37.6429C92.3784 37.4921 92.1998 37.3724 92.0032 37.2907C91.8066 37.209 91.5958 37.1668 91.3828 37.1665H22.8661Z" fill="white"/>
<path d="M89.9102 38.8022H89.6016V87.0444H89.9102V38.8022Z" fill="white"/>
<path d="M83.9776 38.8024H83.6689V87.0445H83.9776V38.8024Z" fill="white"/>
<path d="M78.044 38.8024H77.7354V87.0445H78.044V38.8024Z" fill="white"/>
<path d="M72.1113 38.8024H71.8027V87.0445H72.1113V38.8024Z" fill="white"/>
<path d="M66.1787 38.8022H65.8701V87.0444H66.1787V38.8022Z" fill="white"/>
<path d="M60.2442 38.8024H59.9355V87.0445H60.2442V38.8024Z" fill="white"/>
<path d="M54.3115 38.8024H54.0029V87.0445H54.3115V38.8024Z" fill="white"/>
<path d="M48.3789 38.8022H48.0703V87.0444H48.3789V38.8022Z" fill="white"/>
<path d="M42.4463 38.8024H42.1377V87.0445H42.4463V38.8024Z" fill="white"/>
<path d="M36.5137 38.8024H36.2051V87.0445H36.5137V38.8024Z" fill="white"/>
<path d="M30.5811 38.8024H30.2725V87.0445H30.5811V38.8024Z" fill="white"/>
<path d="M24.6475 38.8022H24.3389V87.0444H24.6475V38.8022Z" fill="white"/>
<path d="M93.1506 83.3422H21.0996V83.6508H93.1506V83.3422Z" fill="white"/>
<path d="M93.1506 76.7848H21.0996V77.0934H93.1506V76.7848Z" fill="white"/>
<path d="M93.1506 70.2277H21.0996V70.5363H93.1506V70.2277Z" fill="white"/>
<path d="M93.1506 63.6705H21.0996V63.9791H93.1506V63.6705Z" fill="white"/>
<path d="M93.1506 57.1134H21.0996V57.422H93.1506V57.1134Z" fill="white"/>
<path d="M93.1506 50.5558H21.0996V50.8644H93.1506V50.5558Z" fill="white"/>
<path d="M93.1506 43.9987H21.0996V44.3073H93.1506V43.9987Z" fill="white"/>
</g>
<path d="M98.4037 35.8243H15.8477V41.7817H98.4037V35.8243Z" fill="#146080"/>
<path d="M62.8904 77.4225H49.4541V96.7804H62.8904V77.4225Z" fill="#9BD2EA"/>
<path d="M77.7312 70.0201H64.2949V96.7807H77.7312V70.0201Z" fill="#1E7EAA"/>
<path d="M92.9148 63.6134H79.4785V96.9933H92.9148V63.6134Z" fill="#146080"/>
<path d="M42.5967 70.6098V67.5654C41.9764 67.5854 41.3801 67.8095 40.9002 68.2029C40.4202 68.5963 40.0835 69.137 39.9422 69.7413C39.8009 70.3456 39.8629 70.9796 40.1187 71.545C40.3744 72.1105 40.8096 72.5757 41.3566 72.8686C41.9037 73.1616 42.5322 73.2658 43.1445 73.1652C43.7569 73.0646 44.319 72.7647 44.7435 72.3121C45.1681 71.8595 45.4315 71.2795 45.4929 70.662C45.5542 70.0444 45.4101 69.4239 45.0829 68.8966L42.5967 70.6098Z" fill="white"/>
<path d="M45.0829 68.8966C44.8304 68.4888 44.4779 68.1522 44.0588 67.9189C43.6397 67.6856 43.168 67.5632 42.6883 67.5634H42.5967V70.6077L45.0829 68.8966Z" fill="#1E7EAA"/>
<path d="M49.0979 67.5704C48.559 67.6052 48.0414 67.794 47.6068 68.1145C47.1721 68.4349 46.8387 68.8735 46.6462 69.378C46.4536 69.8825 46.4101 70.4317 46.5207 70.9603C46.6314 71.4888 46.8916 71.9745 47.2703 72.3594C47.649 72.7443 48.1304 73.0124 48.6571 73.1316C49.1838 73.2508 49.7336 73.2161 50.2412 73.0318C50.7488 72.8475 51.1927 72.5212 51.5202 72.0918C51.8476 71.6624 52.0448 71.1479 52.0883 70.6097H49.0979V67.5704Z" fill="white"/>
<path d="M51.6745 68.8966C51.422 68.4888 51.0695 68.1522 50.6504 67.9189C50.2314 67.6856 49.7596 67.5632 49.28 67.5634H49.1883H49.0977V70.6026H52.088C52.0941 70.5272 52.0982 70.4519 52.0982 70.3745C52.0974 69.852 51.9506 69.3401 51.6745 68.8966Z" fill="#146080"/>
<path d="M56.1989 67.5643H56.1276H56.037C55.4823 67.6 54.9506 67.7989 54.5087 68.136C54.0668 68.4732 53.7345 68.9335 53.5537 69.4591C53.3728 69.9847 53.3515 70.552 53.4923 71.0896C53.6332 71.6273 53.9299 72.1113 54.3452 72.4807L56.1989 70.4437V67.5643Z" fill="white"/>
<path d="M58.6142 68.8965C58.362 68.489 58.01 68.1527 57.5915 67.9194C57.173 67.6861 56.7019 67.5635 56.2227 67.5632H56.2023V70.4456L54.3486 72.4827C54.7399 72.8322 55.221 73.0655 55.7377 73.1564C56.2544 73.2472 56.7863 73.192 57.2733 72.9968C57.7603 72.8017 58.1831 72.4745 58.4942 72.052C58.8052 71.6295 58.9921 71.1285 59.0338 70.6055C59.0399 70.5302 59.044 70.4548 59.044 70.3774C59.0424 69.8532 58.8935 69.3401 58.6142 68.8965Z" fill="#F2D386"/>
<path d="M92.3993 54.743H79.79V56.2953H92.3993V54.743Z" fill="white"/>
<path d="M91.1358 54.7433H79.8252V56.2955H91.1358V54.7433Z" fill="#F2D386"/>
<path d="M92.4696 57.479H79.8604V59.0312H92.4696V57.479Z" fill="white"/>
<path d="M90.0119 57.4791H79.79V59.0313H90.0119V57.4791Z" fill="#146080"/>
<path d="M92.4696 60.3553H79.8604V61.9076H92.4696V60.3553Z" fill="white"/>
<path d="M86.6671 60.3553H79.79V61.9076H86.6671V60.3553Z" fill="#1E7EAA"/>
<path d="M33.9603 72.5052H21.2461V69.9976H33.0833L50.0325 49.9196L62.7426 64.9743L77.8533 47.0748L79.3505 48.8481L62.7426 68.5208L50.0325 53.466L33.9603 72.5052Z" fill="#0C4055"/>
<path d="M72.7881 47.742L79.0418 54.3125L83.7942 42.4865L72.7881 47.742Z" fill="#0C4055"/>
<path d="M57.0714 42.9854C57.5914 43.5673 58.0209 44.2241 58.3456 44.9338C58.4816 45.218 58.717 45.4426 59.0073 45.5651C59.2976 45.6877 59.6227 45.6997 59.9213 45.5989C62.1976 44.8554 64.5575 43.5985 66.8319 41.7845C71.9652 37.687 75.4455 31.7399 76.2532 25.8956C70.356 26.026 64.0473 28.7984 59.3875 33.4266C57.323 35.4768 55.8034 37.6768 54.8042 39.8534C54.6696 40.1383 54.644 40.4626 54.7322 40.7651C54.8204 41.0676 55.0163 41.3273 55.2829 41.4953C55.9509 41.8989 56.5539 42.4013 57.0714 42.9854Z" fill="#0B82A9"/>
<path d="M60.1308 45.5276C62.3431 44.7769 64.6286 43.5435 66.8327 41.7845C71.966 37.687 75.4463 31.7399 76.254 25.8956C70.3568 26.026 64.0481 28.7984 59.3883 33.4266C57.3513 35.4504 55.8459 37.6188 54.8447 39.7668C54.8824 39.7923 54.9191 39.8188 54.9578 39.8432C57.1925 41.2011 58.9885 43.1743 60.1308 45.5266V45.5276Z" fill="#056C8D"/>
<path d="M60.0275 29.0184C60.0275 29.0184 57.6228 34.7904 55.0368 36.9792C55.0368 36.9792 50.9301 35.6286 48.3879 39.996C48.3481 40.0627 48.2858 40.113 48.2123 40.138C48.1387 40.163 48.0587 40.1609 47.9865 40.1322C47.9143 40.1036 47.8547 40.0501 47.8183 39.9815C47.782 39.9129 47.7712 39.8335 47.788 39.7577C48.4816 36.477 51.0035 30.4759 60.0275 29.0184Z" fill="#1F80A9"/>
<g style="mix-blend-mode:multiply" opacity="0.1">
<path d="M54.4763 36.8611C54.6643 36.8892 54.8502 36.9304 55.0325 36.9843C57.6225 34.7955 60.0232 29.0236 60.0232 29.0236C59.3088 29.1385 58.6009 29.2912 57.9026 29.4809C56.5579 31.2539 55.4232 33.1768 54.5212 35.2111C54.3012 35.7363 54.2852 36.3247 54.4763 36.8611Z" fill="#010101"/>
</g>
<path d="M71.2867 41.6562C71.2867 41.6562 65.2775 43.3816 62.8035 45.7018C62.8035 45.7018 63.6733 49.9368 59.0421 51.9596C58.9714 51.9915 58.9143 52.0475 58.8811 52.1176C58.8479 52.1877 58.8407 52.2673 58.8608 52.3422C58.8808 52.4172 58.9269 52.4825 58.9907 52.5266C59.0545 52.5707 59.1319 52.5906 59.2091 52.5829C62.5499 52.2631 68.8005 50.4522 71.2867 41.6562Z" fill="#1F80A9"/>
<g style="mix-blend-mode:multiply" opacity="0.1">
<path d="M62.8027 45.7018C62.836 45.8893 62.8557 46.0788 62.8618 46.2691C63.3736 46.5188 63.96 46.5689 64.5067 46.4097C66.6309 45.7476 68.6713 44.8419 70.5873 43.7106C70.8562 43.0386 71.0895 42.3529 71.286 41.6562C71.286 41.6563 65.2757 43.3796 62.8027 45.7018Z" fill="#010101"/>
</g>
<path d="M59.0197 41.2498C59.9185 42.2577 60.6621 43.394 61.2259 44.6211C61.452 45.11 61.8532 45.4962 62.3503 45.7037C62.8474 45.9111 63.4041 45.9246 63.9107 45.7415C67.8075 44.3127 71.3963 42.1543 74.4849 39.3819C81.196 33.3981 84.8198 25.4883 84.936 18.162C77.6444 17.4338 69.3669 20.1237 62.6548 26.1065C59.5445 28.8557 56.9865 32.1724 55.1178 35.8792C54.8781 36.3613 54.8277 36.9157 54.9764 37.4332C55.1251 37.9507 55.4623 38.3937 55.9214 38.675C57.0766 39.3743 58.1209 40.2421 59.0197 41.2498Z" fill="white"/>
<path d="M78.0189 24.3221C79.4044 25.8804 80.8758 27.3602 82.426 28.7547C84.0271 25.2724 84.8796 21.6506 84.9346 18.1621C81.4625 17.8148 77.7673 18.2457 74.123 19.4353C75.3303 21.135 76.6309 22.7664 78.0189 24.3221Z" fill="#1F80A9"/>
<g style="mix-blend-mode:multiply" opacity="0.05">
<path d="M63.9106 45.7405C67.8074 44.3117 71.3961 42.1533 74.4848 39.3808C81.1958 33.3981 84.8197 25.4883 84.9358 18.162C84.6242 24.8741 81.0655 32.2176 74.7048 37.8846C71.6238 40.6295 68.224 42.6717 64.7763 44.0039C63.7985 44.3797 62.7321 43.9683 62.3319 43.0536C61.3573 40.8318 59.7039 38.9759 57.609 37.7522C56.7463 37.2491 56.4601 36.142 56.9459 35.2151C58.6621 31.9416 61.0852 28.7984 64.1662 26.0556C70.5228 20.3926 78.2319 17.7037 84.9358 18.162C77.6443 17.4338 69.3668 20.1237 62.6547 26.1065C59.544 28.8553 56.986 32.1721 55.1177 35.8792C54.8774 36.3611 54.8266 36.9156 54.9752 37.4332C55.1237 37.9508 55.461 38.3939 55.9203 38.675C58.2389 40.0867 60.0831 42.1586 61.2166 44.6252C61.4437 45.1152 61.8469 45.502 62.3459 45.7086C62.845 45.9152 63.4035 45.9266 63.9106 45.7405Z" fill="#010101"/>
</g>
<path d="M61.0589 40.8507C58.4597 43.1668 52.3394 47.9803 51.9503 47.5484C51.5612 47.1166 57.0521 41.585 59.6503 39.2699C62.2485 36.9548 64.6757 35.4352 65.0607 35.8681C65.4457 36.3009 63.6572 38.5356 61.0589 40.8507Z" fill="#1F80A9"/>
<path d="M81.5886 32.3612C78.9231 31.8957 76.6212 30.2895 74.7645 28.389C73.8464 27.4364 72.9844 26.4315 72.1825 25.3792C71.381 24.3495 70.4011 23.2332 70.5621 21.845C70.723 20.4567 68.5688 20.3457 68.4099 21.7207C68.2236 23.3279 68.9915 24.6815 69.9051 25.9374C70.8923 27.3101 71.9785 28.6088 73.1552 29.823C75.4571 32.1707 78.1959 33.9389 81.4694 34.5082C82.8281 34.7516 82.9411 32.5975 81.5886 32.3612Z" fill="#196181"/>
<path d="M77.9703 36.0525C75.1184 35.5544 72.6556 33.8362 70.6644 31.8053C69.6819 30.786 68.7593 29.7107 67.9012 28.5847C67.0436 27.4827 65.9955 26.2879 66.1697 24.8029C66.3439 23.3179 64.0369 23.1998 63.8658 24.6705C63.6672 26.3898 64.4881 27.8381 65.4669 29.1826C66.523 30.6514 67.6851 32.041 68.9441 33.3402C71.4079 35.8518 74.3423 37.7442 77.8399 38.3553C79.2974 38.61 79.4186 36.3051 77.9703 36.0525Z" fill="#196181"/>
<path d="M69.5653 30.9772L70.4585 31.1177L70.8924 31.0831L71.0462 31.9916L70.6327 32.2157L69.4461 32.3501C69.4461 32.3501 68.8299 32.8064 68.6557 32.8146C68.4816 32.8227 68.4724 32.7698 68.4724 32.7698L69.221 32.125C69.1083 32.1196 68.9973 32.1538 68.9073 32.2218C68.7291 32.34 68.4306 32.5885 68.3033 32.5549C68.176 32.5212 68.1913 32.4744 68.1913 32.4744L68.7739 31.9529C68.7739 31.9529 68.2575 32.2992 68.1556 32.2717C68.1271 32.2656 68.1006 32.2526 68.0784 32.2338C68.0562 32.2149 68.039 32.1909 68.0283 32.1637L68.3339 31.7787L68.8075 31.2593L69.5653 30.9772Z" fill="white"/>
<path d="M70.1004 31.2736C70.07 31.2875 70.0416 31.3053 70.0158 31.3265C69.9618 31.3632 69.8865 31.4172 69.7938 31.4854C69.7011 31.5537 69.5901 31.6341 69.4719 31.7319C69.4386 31.7565 69.4102 31.7873 69.3884 31.8225C69.3663 31.8619 69.356 31.9068 69.3589 31.9519C69.3618 31.9989 69.38 32.0436 69.4108 32.0792C69.4457 32.1137 69.4922 32.1341 69.5412 32.1362C69.6053 32.1406 69.6695 32.1298 69.7286 32.1047C69.7813 32.0795 69.8323 32.0509 69.8814 32.0191C69.9761 31.958 70.0627 31.8979 70.1411 31.8409H70.1177C70.1802 31.8997 70.2566 31.9417 70.3397 31.9631C70.445 31.9887 70.5559 31.9757 70.6524 31.9264C70.6779 31.9132 70.6901 31.903 70.6891 31.901C70.6381 31.9213 70.5852 31.9364 70.5312 31.9458C70.47 31.9548 70.4075 31.951 70.3479 31.9346C70.271 31.9115 70.2011 31.8699 70.1442 31.8134L70.134 31.8042L70.1218 31.8124C70.0433 31.8674 69.9557 31.9264 69.862 31.9855C69.814 32.0155 69.7644 32.0427 69.7133 32.067C69.661 32.0895 69.6041 32.0989 69.5473 32.0945C69.5093 32.0931 69.473 32.0779 69.4455 32.0517C69.4219 32.0227 69.4076 31.9872 69.4047 31.9499C69.4041 31.9125 69.4132 31.8756 69.431 31.8428C69.4489 31.8099 69.4749 31.7823 69.5066 31.7624C69.6217 31.6606 69.7306 31.5811 69.8213 31.5099L70.0342 31.3408C70.0583 31.3205 70.0805 31.298 70.1004 31.2736Z" fill="white"/>
<path d="M68.7363 31.9631C68.8602 31.8798 68.9729 31.7809 69.0714 31.6687C69.0938 31.6422 69.1162 31.6158 69.1356 31.5893L69.1101 31.5954C69.1908 31.6236 69.2771 31.6319 69.3617 31.6198C69.3953 31.6197 69.4282 31.6109 69.4574 31.5944C69.4236 31.5911 69.3895 31.5911 69.3556 31.5944C69.2766 31.5973 69.1978 31.5852 69.1234 31.5587L69.1071 31.5526L69.0979 31.5659C69.0796 31.5903 69.0582 31.6158 69.0348 31.6412C68.9298 31.7433 68.8302 31.8507 68.7363 31.9631Z" fill="white"/>
<path d="M89.8057 21.3195L89.6295 22.172L89.4502 22.5509L90.2171 23.0001L90.5594 22.7047L91.0859 21.6862C91.0859 21.6862 91.7072 21.2869 91.7745 21.1321C91.8417 20.9773 91.7969 20.9508 91.7969 20.9508L90.9535 21.401C90.9874 21.2978 91.0562 21.2095 91.1481 21.1515C91.3151 21.0313 91.641 20.8459 91.6573 20.7206C91.6736 20.5954 91.6237 20.5923 91.6237 20.5923L90.9535 20.9396C90.9535 20.9396 91.4414 20.5913 91.4516 20.4905C91.4557 20.4628 91.453 20.4346 91.4436 20.4083C91.4341 20.382 91.4184 20.3584 91.3976 20.3397L90.9454 20.4864L90.3159 20.7349L89.8057 21.3195Z" fill="white"/>
<path d="M89.8906 21.9001C89.9147 21.8786 89.9406 21.8591 89.968 21.842C90.019 21.8064 90.0933 21.7565 90.187 21.6964C90.2807 21.6363 90.3907 21.564 90.519 21.4927C90.5529 21.472 90.5901 21.4575 90.6291 21.4499C90.6719 21.4434 90.7158 21.4495 90.7553 21.4672C90.7987 21.4848 90.8347 21.5169 90.8572 21.5579C90.8759 21.6011 90.8781 21.6497 90.8633 21.6944C90.8461 21.7537 90.8146 21.8079 90.7716 21.8522C90.731 21.8911 90.6878 21.9272 90.6423 21.9602C90.5547 22.0254 90.4712 22.0824 90.3928 22.1333L90.3999 22.113C90.4315 22.1893 90.4434 22.2723 90.4345 22.3544C90.4266 22.4173 90.4051 22.4778 90.3714 22.5316C90.3499 22.5659 90.3239 22.597 90.294 22.6243C90.2736 22.6426 90.2603 22.6497 90.2593 22.6477C90.2949 22.609 90.3263 22.5667 90.353 22.5214C90.3825 22.4691 90.4006 22.4111 90.406 22.3513C90.4117 22.2739 90.3984 22.1963 90.3673 22.1252L90.3612 22.113L90.3734 22.1048C90.4498 22.0529 90.5333 21.9948 90.6178 21.9296C90.6618 21.8985 90.7036 21.8644 90.7431 21.8278C90.7806 21.7879 90.8081 21.7397 90.8236 21.6872C90.8369 21.6525 90.8369 21.614 90.8236 21.5793C90.8063 21.5477 90.7791 21.5226 90.7462 21.508C90.7131 21.494 90.6771 21.4887 90.6414 21.4926C90.6057 21.4965 90.5717 21.5095 90.5425 21.5304C90.4152 21.6017 90.3021 21.6709 90.2074 21.728L89.9813 21.8624C89.953 21.8792 89.9225 21.8919 89.8906 21.9001Z" fill="white"/>
<path d="M90.9779 20.907C90.8609 20.9915 90.7332 21.06 90.598 21.1107C90.5674 21.123 90.5361 21.1336 90.5043 21.1423L90.5196 21.1209C90.517 21.2032 90.495 21.2839 90.4554 21.3561C90.4279 21.4101 90.4025 21.4366 90.3994 21.4336C90.4072 21.4033 90.4181 21.374 90.432 21.346C90.4617 21.2756 90.4779 21.2003 90.4799 21.1239V21.1076H90.4952C90.5237 21.0995 90.5532 21.0883 90.5838 21.0771C90.712 21.0133 90.8436 20.9565 90.9779 20.907Z" fill="white"/>
<path d="M83.8014 30.7561C82.406 31.5067 82.461 27.011 83.8014 26.1727C85.374 25.1899 87.1024 24.1174 87.1482 24.0715C87.2318 23.988 89.168 22.3676 89.168 22.3676L90.379 23.1111L84.5164 28.7649L83.8014 30.7561Z" fill="#F3D285"/>
<g opacity="0.3">
<path d="M83.2726 28.0785C83.3133 28.0989 83.2267 28.0846 83.2726 28.0785V28.0785Z" fill="black"/>
</g>
<g opacity="0.3">
<path d="M82.8634 26.9815C82.9323 26.7813 83.0619 26.6076 83.2341 26.4845C83.4045 26.3533 83.585 26.2358 83.7739 26.1331C84.3168 25.8418 85.3475 25.2164 85.3475 25.2164V25.2521C85.2457 25.8041 85.3475 26.4152 85.0552 26.8929C84.9544 27.0423 84.8361 27.1791 84.7028 27.3003C84.5785 27.4225 84.4431 27.5519 84.2709 27.5784C84.1912 27.5784 84.112 27.5918 84.0367 27.6181C83.9829 27.654 83.9388 27.7026 83.9084 27.7597C83.8687 27.8133 83.8136 27.8535 83.7504 27.8748C83.6872 27.8961 83.6189 27.8975 83.5549 27.8788C83.4653 27.8564 83.3573 28.0713 83.2667 28.0825C83.0762 27.9868 83.0222 28.0082 82.953 27.8075C82.8654 27.5376 82.7839 27.2494 82.8634 26.9815Z" fill="black"/>
</g>
<path d="M81.4418 22.7772C81.6262 22.5542 81.7993 22.324 82.0702 22.2537C82.3167 22.1906 82.5795 22.2833 82.829 22.2761C83.0134 22.27 83.1937 22.2109 83.378 22.1987C83.5624 22.1865 83.7701 22.2344 83.873 22.3892C83.9331 22.4798 83.9484 22.5929 84.0085 22.6846C84.1348 22.8699 84.4159 22.9066 84.5177 23.1072C84.5992 23.2702 84.5177 23.4678 84.5534 23.6481C84.589 23.8283 84.7408 23.9913 84.8651 24.1461C84.9893 24.3009 85.0942 24.5097 85.0138 24.691C84.9425 24.8499 84.75 24.9294 84.6807 25.0893C84.6308 25.2064 84.6583 25.3398 84.6552 25.4671C84.6522 25.5945 84.5952 25.7432 84.4699 25.7666L83.0439 26.0793C82.55 26.2565 82.0407 26.4358 81.5162 26.4133C80.9916 26.3909 80.4437 26.1149 80.2573 25.624C80.3331 25.6237 80.4059 25.5946 80.461 25.5425C80.3944 25.5075 80.3364 25.4583 80.2912 25.3982C80.2459 25.3382 80.2145 25.2688 80.1992 25.1952C80.2247 25.2067 80.2522 25.213 80.2801 25.2138C80.308 25.2146 80.3358 25.2098 80.3618 25.1998C80.3879 25.1897 80.4117 25.1746 80.4319 25.1553C80.452 25.136 80.4682 25.1128 80.4793 25.0872C80.5186 24.9807 80.5186 24.8637 80.4793 24.7572C80.4411 24.651 80.4161 24.5406 80.405 24.4283C80.4055 24.3256 80.439 24.2258 80.5004 24.1435C80.5618 24.0612 80.6479 24.0007 80.7462 23.9709C80.7026 23.9291 80.6679 23.8789 80.6442 23.8233C80.6205 23.7678 80.6083 23.708 80.6083 23.6476C80.6083 23.5871 80.6205 23.5274 80.6442 23.4718C80.6679 23.4162 80.7026 23.366 80.7462 23.3242C80.8386 23.2576 80.9372 23.2 81.0405 23.1521C81.0964 23.1181 81.1489 23.0789 81.1974 23.0349" fill="#196181"/>
<path d="M82.4572 28.876C81.8747 28.8393 81.2666 27.5366 81.2666 27.5366L81.3685 24.2621C81.3776 23.3179 81.9348 22.5367 82.8779 22.5723L82.9655 22.5805C83.3878 22.6206 83.7796 22.8184 84.0627 23.1343C84.3458 23.4503 84.4995 23.8613 84.4933 24.2855C84.481 25.1003 84.4566 26.0078 84.4087 26.4427C84.3069 27.3431 83.3963 27.396 83.3963 27.396C83.3963 27.396 83.3821 27.6059 83.3678 27.8717C83.3362 28.4675 82.8097 28.8597 82.4603 28.876H82.4572Z" fill="white"/>
<g style="mix-blend-mode:multiply" opacity="0.05">
<path d="M83.3907 27.389C82.9743 27.3477 82.5784 27.1879 82.25 26.9286C82.25 26.9286 82.4731 27.612 83.3806 27.6171L83.3907 27.389Z" fill="#010101"/>
</g>
<path d="M84.2313 24.7531C84.2285 24.7867 84.2126 24.8178 84.1871 24.8399C84.1616 24.862 84.1285 24.8732 84.0949 24.8712C84.0785 24.8705 84.0625 24.8665 84.0478 24.8595C84.033 24.8525 84.0197 24.8427 84.0087 24.8306C83.9978 24.8185 83.9893 24.8043 83.9838 24.7889C83.9783 24.7735 83.9759 24.7572 83.9767 24.7409C83.9798 24.7074 83.9958 24.6764 84.0212 24.6544C84.0466 24.6323 84.0796 24.621 84.1132 24.6227C84.1295 24.6235 84.1455 24.6275 84.1603 24.6345C84.1751 24.6415 84.1883 24.6513 84.1993 24.6634C84.2103 24.6755 84.2188 24.6897 84.2243 24.7051C84.2298 24.7205 84.2322 24.7368 84.2313 24.7531Z" fill="#263238"/>
<path d="M82.9355 24.7784C82.9327 24.812 82.9168 24.8431 82.8913 24.8652C82.8658 24.8873 82.8327 24.8985 82.799 24.8965C82.7825 24.8961 82.7663 24.8925 82.7512 24.8857C82.7362 24.879 82.7226 24.8693 82.7113 24.8573C82.7 24.8452 82.6913 24.8311 82.6855 24.8156C82.6798 24.8001 82.6772 24.7837 82.6778 24.7672C82.6807 24.7336 82.6966 24.7024 82.7221 24.6804C82.7476 24.6583 82.7807 24.647 82.8143 24.649C82.8308 24.6494 82.8471 24.6531 82.8621 24.6598C82.8772 24.6666 82.8908 24.6762 82.902 24.6883C82.9133 24.7003 82.9221 24.7145 82.9279 24.73C82.9336 24.7454 82.9362 24.7619 82.9355 24.7784Z" fill="#263238"/>
<path d="M83.3633 25.8744C83.4198 25.8623 83.4777 25.8576 83.5354 25.8602C83.5619 25.8602 83.5874 25.8602 83.5935 25.8398C83.5986 25.8126 83.595 25.7844 83.5833 25.7593C83.565 25.6931 83.5456 25.6228 83.5242 25.5495C83.4688 25.3716 83.427 25.1898 83.3989 25.0056C83.4695 25.1784 83.526 25.3565 83.568 25.5383C83.5874 25.6116 83.6057 25.6819 83.624 25.7491C83.6352 25.7822 83.6352 25.818 83.624 25.851C83.6194 25.8599 83.6127 25.8677 83.6046 25.8737C83.5965 25.8797 83.5871 25.8838 83.5772 25.8856C83.5619 25.8871 83.5466 25.8871 83.5313 25.8856C83.4751 25.8886 83.4187 25.8848 83.3633 25.8744Z" fill="#263238"/>
<path d="M82.5378 25.9121C82.5612 25.9121 82.5469 26.0638 82.6651 26.183C82.7832 26.3022 82.9452 26.3001 82.9441 26.3215C82.9431 26.3429 82.9065 26.348 82.8423 26.3429C82.7539 26.3357 82.6709 26.2974 82.608 26.2349C82.5476 26.1755 82.5128 26.0947 82.5113 26.0098C82.5072 25.9457 82.5276 25.91 82.5378 25.9121Z" fill="#263238"/>
<path d="M81.3737 24.9251C81.3594 24.9169 80.7718 24.6827 80.733 25.3009C80.6943 25.9192 81.3696 25.8204 81.3727 25.802C81.3757 25.7837 81.3737 24.9251 81.3737 24.9251Z" fill="white"/>
<g style="mix-blend-mode:multiply" opacity="0.05">
<path d="M81.1507 25.5678C81.1507 25.5678 81.1395 25.5739 81.1202 25.581C81.1074 25.5865 81.0938 25.5893 81.0799 25.5893C81.0661 25.5893 81.0524 25.5865 81.0397 25.581C81.0013 25.5531 80.9711 25.5154 80.9521 25.4719C80.9331 25.4284 80.9261 25.3806 80.9317 25.3335C80.9336 25.2806 80.9472 25.2288 80.9714 25.1818C80.9786 25.1629 80.9902 25.146 81.0053 25.1325C81.0204 25.119 81.0385 25.1094 81.058 25.1044C81.0707 25.102 81.0837 25.104 81.0951 25.1101C81.1064 25.1163 81.1152 25.1261 81.1202 25.138C81.1273 25.1553 81.1202 25.1675 81.1202 25.1685C81.1202 25.1695 81.1344 25.1594 81.1314 25.1339C81.1287 25.1182 81.1208 25.1038 81.109 25.0931C81.0929 25.0793 81.072 25.0723 81.0509 25.0738C81.0252 25.0773 81.0007 25.0873 80.9799 25.1028C80.9591 25.1183 80.9425 25.1388 80.9317 25.1624C80.9022 25.2144 80.8858 25.2728 80.8839 25.3325C80.8772 25.3873 80.887 25.4428 80.9118 25.4921C80.9366 25.5414 80.9754 25.5822 81.0234 25.6095C81.04 25.6157 81.0578 25.618 81.0755 25.6163C81.0932 25.6145 81.1102 25.6087 81.1252 25.5994C81.1487 25.582 81.1527 25.5688 81.1507 25.5678Z" fill="#010101"/>
</g>
<path d="M84.1466 23.1976C84.2484 23.1477 83.9673 22.8065 83.727 22.6812C83.3644 22.4918 82.8032 22.3573 82.4548 22.4357C82.0352 22.5294 81.6808 22.7158 81.4536 23.0805C81.2331 23.4521 81.115 23.8756 81.1114 24.3078C81.0997 24.439 81.1225 24.5711 81.1776 24.6907C81.2571 24.8323 81.418 24.927 81.3996 25.1155C81.3918 25.1842 81.4112 25.2533 81.4536 25.308C81.5555 25.4343 81.7052 25.3293 81.7755 25.2193C81.9242 24.9841 81.9558 24.6958 81.9792 24.4188C82.0098 24.2229 82.0077 24.0233 81.9731 23.8281C81.9486 23.7262 81.9048 23.6243 81.8865 23.5225C81.874 23.4702 81.873 23.4158 81.8836 23.363C81.8941 23.3103 81.916 23.2604 81.9476 23.2169C81.9637 23.1994 81.9815 23.1833 82.0006 23.1691C82.091 23.0986 82.1986 23.0535 82.3122 23.0382C82.4259 23.023 82.5415 23.0383 82.6473 23.0825C82.9885 23.2251 83.5732 23.442 83.7351 23.332C83.8511 23.2633 83.9511 23.1706 84.0284 23.0601L84.1466 23.1976Z" fill="#196181"/>
<path d="M82.4875 22.384C82.6602 22.3336 82.8412 22.3179 83.02 22.3379C83.1989 22.3578 83.372 22.4129 83.5294 22.5001C83.6139 22.5446 83.6884 22.6056 83.7487 22.6797C83.8089 22.7537 83.8535 22.8392 83.8798 22.9309C83.9027 23.0237 83.8922 23.1215 83.8504 23.2073C83.8085 23.2931 83.7378 23.3615 83.6506 23.4005L83.6384 23.4076C83.3695 23.482 83.1994 23.4372 82.9417 23.3312C82.7248 23.2426 82.5343 23.0949 82.3174 23.0073C82.0843 22.9138 81.8285 22.8921 81.583 22.9452C81.8299 22.6819 82.1419 22.4883 82.4875 22.384Z" fill="#196181"/>
<path d="M79.7006 26.1942C79.4772 26.2514 79.2656 26.3472 79.0752 26.4774L79.9175 26.623L80.0662 26.4376L79.7006 26.1942Z" fill="#263238"/>
<path d="M64.9144 36.9844L63.4538 36.138C63.4538 36.138 62.1043 37.3368 61.8242 37.2064L63.3591 34.3148L65.6875 35.537L64.9144 36.9844Z" fill="#196181"/>
<path d="M64.0563 35.3108C64.0625 35.2786 64.0566 35.2451 64.0397 35.2169C64.0228 35.1887 63.9961 35.1678 63.9646 35.1581C63.9327 35.1507 63.8991 35.1558 63.8708 35.1722C63.8424 35.1887 63.8214 35.2153 63.8119 35.2467C63.8055 35.2815 63.8124 35.3175 63.8313 35.3475C63.8502 35.3774 63.8796 35.3993 63.9137 35.4086C63.9479 35.4131 63.9825 35.4041 64.0102 35.3836C64.0379 35.3631 64.0567 35.3326 64.0624 35.2986" fill="#196181"/>
<path d="M63.3591 34.3148L63.5893 34.4482L62.0279 37.1667C62.0279 37.1667 61.9026 37.2685 61.8242 37.2023L63.3591 34.3148Z" fill="#196181"/>
<path d="M63.4448 36.192C63.4316 36.1849 63.4621 36.1105 63.454 36.0168C63.4458 35.9231 63.4061 35.8549 63.4183 35.8447C63.4306 35.8345 63.5018 35.8997 63.51 36.0127C63.5181 36.1258 63.454 36.2022 63.4448 36.192Z" fill="#196181"/>
<path d="M63.158 36.4283C63.1428 36.4283 63.1509 36.3509 63.1173 36.2705C63.0837 36.19 63.0277 36.1442 63.0348 36.1299C63.0419 36.1156 63.1275 36.1503 63.1682 36.2501C63.209 36.3499 63.1713 36.4355 63.158 36.4283Z" fill="#196181"/>
<path d="M62.7046 36.4068C62.7046 36.3926 62.7891 36.4068 62.8472 36.4883C62.9052 36.5698 62.9011 36.6482 62.8859 36.6472C62.8706 36.6462 62.8512 36.5841 62.8023 36.5219C62.7535 36.4598 62.6985 36.4221 62.7046 36.4068Z" fill="#196181"/>
<path d="M63.7991 36.3518C63.7889 36.3385 63.8429 36.2845 63.8806 36.202C63.9183 36.1195 63.9254 36.0431 63.9417 36.0421C63.958 36.0411 63.9763 36.1277 63.9305 36.2244C63.8847 36.3212 63.8062 36.3609 63.7991 36.3518Z" fill="#196181"/>
<path d="M64.096 36.5139C64.0899 36.5139 64.1113 36.4507 64.1734 36.3692C64.2109 36.3224 64.2536 36.28 64.3008 36.2429C64.3292 36.2213 64.3587 36.2012 64.3894 36.1828C64.4071 36.1718 64.4263 36.1632 64.4464 36.1574C64.4614 36.1538 64.4771 36.1551 64.4912 36.1612C64.5053 36.1672 64.5171 36.1777 64.5248 36.191C64.5309 36.2034 64.534 36.2169 64.534 36.2307C64.534 36.2445 64.5309 36.2581 64.5248 36.2704C64.515 36.2887 64.5026 36.3055 64.4882 36.3203C64.4239 36.3929 64.3422 36.4479 64.2509 36.4803C64.149 36.5149 64.0879 36.5098 64.0879 36.5027C64.0879 36.4955 64.148 36.4853 64.2356 36.4446C64.2866 36.4208 64.3342 36.3904 64.3772 36.354C64.4023 36.3327 64.4258 36.3095 64.4474 36.2847C64.4719 36.2582 64.4851 36.2328 64.4759 36.2175C64.4668 36.2022 64.4759 36.2103 64.4586 36.2124C64.4436 36.2166 64.4293 36.2228 64.4159 36.2307C64.3868 36.2469 64.3586 36.2646 64.3313 36.2837C64.286 36.3172 64.2434 36.3543 64.204 36.3947C64.1368 36.466 64.1032 36.5179 64.096 36.5139Z" fill="#196181"/>
<path d="M64.086 36.4842C64.1418 36.4789 64.1979 36.4918 64.2459 36.5209C64.3005 36.5462 64.3505 36.5806 64.3936 36.6227C64.4192 36.6481 64.4421 36.6761 64.4618 36.7062C64.4767 36.7243 64.4867 36.7458 64.4908 36.7688C64.4949 36.7919 64.493 36.8156 64.4852 36.8376C64.4783 36.8505 64.4678 36.861 64.4549 36.8679C64.442 36.8747 64.4274 36.8777 64.4129 36.8763C64.3921 36.8744 64.3716 36.87 64.3518 36.8631C64.3151 36.8519 64.2806 36.8343 64.25 36.8111C64.1997 36.7745 64.1594 36.7258 64.1328 36.6696C64.1181 36.6454 64.1083 36.6186 64.1041 36.5906C64.0999 36.5626 64.1014 36.534 64.1084 36.5066C64.1247 36.5561 64.1444 36.6045 64.1675 36.6512C64.1956 36.6985 64.2338 36.7388 64.2795 36.7694C64.3056 36.7871 64.3341 36.8012 64.364 36.8111C64.3977 36.8234 64.4282 36.8254 64.4313 36.8111C64.4336 36.7977 64.433 36.7839 64.4295 36.7707C64.426 36.7575 64.4197 36.7452 64.4109 36.7348C64.3934 36.7073 64.3737 36.6814 64.3518 36.6573C64.3136 36.6176 64.27 36.5834 64.2225 36.5555C64.1451 36.5066 64.0839 36.4934 64.086 36.4842Z" fill="#196181"/>
<path d="M68.2715 40.981L66.6419 40.5583C66.6419 40.5583 65.6641 42.0769 65.3545 42.028L66.0603 38.8319L68.6311 39.386L68.2715 40.981Z" fill="#196181"/>
<path d="M66.9948 39.6008C66.9921 39.568 66.9774 39.5373 66.9535 39.5146C66.9297 39.4918 66.8983 39.4787 66.8654 39.4775C66.8325 39.4791 66.8015 39.4931 66.7786 39.5168C66.7557 39.5404 66.7427 39.5719 66.7422 39.6049C66.745 39.6396 66.7606 39.6721 66.786 39.696C66.8114 39.72 66.8448 39.7336 66.8797 39.7342C66.9138 39.7294 66.9448 39.7115 66.9661 39.6844C66.9873 39.6572 66.9973 39.6229 66.9938 39.5886" fill="#196181"/>
<path d="M66.0574 38.8319L66.3141 38.8981L65.542 41.9374C65.542 41.9374 65.4483 42.0667 65.3516 42.028L66.0574 38.8319Z" fill="#196181"/>
<path d="M66.6436 40.6143C66.6273 40.6143 66.6375 40.5308 66.6049 40.4432C66.5723 40.3556 66.5153 40.2996 66.5244 40.2864C66.5336 40.2731 66.6181 40.3169 66.6568 40.4239C66.6955 40.5308 66.6568 40.6204 66.6436 40.6143Z" fill="#196181"/>
<path d="M66.4312 40.9188C66.4149 40.9188 66.4037 40.8455 66.3497 40.7783C66.2957 40.7111 66.2285 40.6764 66.2326 40.6642C66.2367 40.652 66.3273 40.6581 66.3935 40.7437C66.4597 40.8292 66.4465 40.9219 66.4312 40.9188Z" fill="#196181"/>
<path d="M65.9883 41.0208C65.9883 41.0056 66.0708 41.0015 66.1472 41.0606C66.2236 41.1196 66.2419 41.2001 66.2277 41.2031C66.2134 41.2062 66.1768 41.1522 66.1136 41.1013C66.0505 41.0504 65.9863 41.0371 65.9883 41.0208Z" fill="#196181"/>
<path d="M67.0272 40.6694C67.014 40.6592 67.0516 40.593 67.0649 40.5033C67.0781 40.4137 67.0649 40.3383 67.0812 40.3332C67.0975 40.3281 67.1372 40.4066 67.1199 40.5115C67.1026 40.6164 67.0374 40.6795 67.0272 40.6694Z" fill="#196181"/>
<path d="M67.3579 40.7478C67.3508 40.7478 67.3579 40.6836 67.3935 40.5878C67.4166 40.5325 67.4464 40.4801 67.4821 40.432C67.5032 40.4035 67.5263 40.3766 67.5514 40.3515C67.5648 40.3352 67.581 40.3214 67.5993 40.3108C67.6126 40.3031 67.6282 40.3001 67.6434 40.3021C67.6587 40.3041 67.6729 40.3111 67.6838 40.322C67.6931 40.3322 67.6998 40.3444 67.7033 40.3577C67.7069 40.371 67.7072 40.385 67.7042 40.3984C67.7 40.4187 67.6928 40.4383 67.6828 40.4565C67.667 40.489 67.6483 40.52 67.6268 40.5491C67.5906 40.5975 67.5469 40.6398 67.4974 40.6744C67.4551 40.7114 67.4025 40.7345 67.3467 40.7406C67.3467 40.7325 67.3996 40.707 67.473 40.6439C67.5155 40.6071 67.5532 40.565 67.585 40.5186C67.6041 40.4918 67.6205 40.4631 67.6339 40.433C67.6502 40.4015 67.6563 40.3729 67.6441 40.3607C67.6319 40.3485 67.6359 40.3556 67.6247 40.3607C67.6121 40.3692 67.6005 40.3791 67.5901 40.3903C67.566 40.4135 67.5436 40.4383 67.5229 40.4646C67.4873 40.5088 67.456 40.5562 67.4292 40.6062C67.4087 40.655 67.3849 40.7023 67.3579 40.7478Z" fill="#196181"/>
<path d="M67.3398 40.7234C67.3921 40.7027 67.4498 40.6998 67.5038 40.7152C67.5636 40.7252 67.6212 40.7455 67.6739 40.7753C67.7054 40.7931 67.7351 40.8139 67.7625 40.8374C67.7818 40.8507 67.7972 40.8688 67.8074 40.8899C67.8176 40.9109 67.8221 40.9343 67.8206 40.9576C67.8171 40.9717 67.8097 40.9845 67.7992 40.9946C67.7888 41.0047 67.7757 41.0116 67.7615 41.0147C67.7409 41.0181 67.7199 41.0181 67.6994 41.0147C67.6624 41.0124 67.626 41.0045 67.5914 40.9912C67.5337 40.9699 67.482 40.935 67.4407 40.8894C67.3714 40.8089 67.3673 40.7397 67.3735 40.7397C67.3796 40.7397 67.3999 40.7967 67.4692 40.8619C67.5091 40.8998 67.5567 40.9286 67.6087 40.9464C67.6387 40.9565 67.6699 40.9623 67.7014 40.9637C67.7371 40.9637 67.7666 40.9637 67.7666 40.9464C67.7647 40.9329 67.7602 40.9199 67.7532 40.9082C67.7462 40.8964 67.7369 40.8862 67.7259 40.8782C67.7017 40.8564 67.6758 40.8367 67.6485 40.8191C67.6006 40.7904 67.5493 40.7682 67.4957 40.7529C67.403 40.7315 67.3409 40.7315 67.3398 40.7234Z" fill="#196181"/>
<path d="M76.8083 33.1415C76.8531 33.1751 75.8315 33.7383 75.5596 34.2313C75.2306 34.8281 74.6072 35.4423 74.6072 35.4423L70.8387 37.5068L65.4161 35.1643L64.3701 36.9477L70.3071 40.3241C70.4752 40.4222 70.6635 40.4807 70.8576 40.4952C71.0517 40.5096 71.2466 40.4797 71.4274 40.4076L76.6922 38.3237L80.0461 35.8843L76.8083 33.1415Z" fill="#908051"/>
<path d="M79.9541 35.0838L80.3085 36.8061C79.0588 38.8839 75.827 42.4385 75.276 42.6555C74.505 42.961 67.8408 40.9902 67.8408 40.9902L68.1576 39.1365L73.8042 40.1438L78.2226 33.8055L79.9541 35.0838Z" fill="#908051"/>
<path d="M64.3701 36.8386L64.4037 36.861L64.5056 36.9252L64.8997 37.1645L66.3511 38.0374L68.5073 39.3279L69.7815 40.0887C69.8925 40.1539 70.0015 40.2221 70.1176 40.2863C70.2347 40.3502 70.3588 40.4004 70.4873 40.436C70.7527 40.51 71.0316 40.5215 71.3022 40.4696C71.4367 40.443 71.5682 40.4024 71.6943 40.3484L72.065 40.1926C72.3095 40.0907 72.5488 39.9828 72.7831 39.8758C73.2516 39.662 73.6997 39.4501 74.1245 39.2372C74.9719 38.8176 75.7205 38.4082 76.3377 38.0466C76.9549 37.685 77.4387 37.3642 77.7636 37.1299L77.9775 36.971L78.1283 36.8478L78.2199 36.7714C78.2307 36.763 78.241 36.7538 78.2505 36.7439L78.2179 36.7683L78.1222 36.8407L77.9694 36.9608L77.7535 37.1157C77.4275 37.3479 76.9386 37.6636 76.3275 38.0211C75.7164 38.3786 74.9607 38.786 74.1123 39.2036C73.6896 39.4145 73.2394 39.6253 72.7719 39.8382C72.5376 39.9451 72.2983 40.05 72.0589 40.1549L71.6882 40.3097C71.562 40.3623 71.4305 40.4012 71.296 40.4258C71.0335 40.4754 70.7632 40.4642 70.5057 40.3932C70.3802 40.3579 70.259 40.3091 70.1441 40.2476C70.031 40.1855 69.92 40.1152 69.809 40.05L68.5338 39.2922L66.3735 38.0099L64.914 37.1482L64.5168 36.916L64.4149 36.857L64.3701 36.8386Z" fill="#455B65"/>
<path d="M80.1683 37.1851L80.1484 37.194L80.1683 37.1851Z" fill="#F3D285"/>
<path d="M76.7071 32.9796C76.7071 32.9796 77.9823 30.9691 78.3032 29.258C78.3093 29.2203 78.3174 29.1836 78.3246 29.1469L79.4276 26.3236C79.4276 26.3236 80.2506 26.4591 80.7405 26.7106L81.3516 26.9836C81.3516 26.9836 82.2204 28.7202 82.8447 28.6346C83.2807 28.5756 83.3856 28.0693 83.3856 28.0693C83.5954 28.3089 83.714 28.6147 83.7207 28.9331C83.7207 29.6246 83.9397 30.3305 83.6728 30.9304C83.3 31.7666 81.4779 36.6086 80.2098 37.1668C80.2098 37.1668 77.636 36.6127 75.5664 33.9401L76.7071 32.9796Z" fill="#F3D285"/>
<path d="M80.1689 37.185L80.2097 37.1666L80.1689 37.185Z" fill="#F3D285"/>
<path d="M79.5707 26.6851C79.5547 26.771 79.5431 26.8577 79.5361 26.9448C79.4779 27.3619 79.3264 27.7605 79.093 28.111C79.04 28.181 78.9907 28.2538 78.9453 28.3289C79.013 28.2717 79.0723 28.2051 79.1215 28.1314C79.2479 27.9587 79.3507 27.77 79.4271 27.5702C79.5032 27.3706 79.5519 27.1616 79.5717 26.9489C79.5837 26.8613 79.5833 26.7725 79.5707 26.6851Z" fill="#263238"/>
<path d="M84.5545 28.4542C84.5374 28.4863 84.5248 28.5206 84.5168 28.5561C84.4934 28.6325 84.4649 28.7262 84.4302 28.8352C84.3579 29.0714 84.2551 29.3953 84.1308 29.7518C84.0065 30.1083 83.8853 30.424 83.7947 30.6542C83.7529 30.7561 83.7173 30.8518 83.6928 30.9262C83.6772 30.9586 83.6656 30.9928 83.6582 31.028C83.6795 30.9988 83.6969 30.967 83.7101 30.9333C83.7407 30.8712 83.7825 30.7805 83.8314 30.6675C83.9332 30.4414 84.0575 30.1236 84.1817 29.7681C84.306 29.4126 84.4048 29.0847 84.4689 28.8514C84.5005 28.7323 84.525 28.6355 84.5392 28.5673C84.5487 28.5303 84.5538 28.4924 84.5545 28.4542Z" fill="#263238"/>
<path d="M83.7784 28.5908C83.7841 28.5444 83.781 28.4974 83.7693 28.4522C83.754 28.3415 83.7298 28.2322 83.697 28.1253C83.6642 28.0155 83.6129 27.9122 83.5452 27.8197C83.4922 27.7505 83.4495 27.7179 83.4434 27.7179C83.5272 27.8476 83.5956 27.9868 83.6471 28.1324C83.7224 28.385 83.7622 28.5938 83.7784 28.5908Z" fill="#263238"/>
<path d="M83.4561 27.6823C83.6445 27.8208 83.7993 27.9542 83.9765 28.106L83.4561 27.6823Z" fill="#455B65"/>
<g opacity="0.3">
<path d="M80.4887 27.9706C80.4785 28.5202 80.3448 29.0604 80.0976 29.5514C79.8509 30.0394 79.568 30.5082 79.2512 30.9539C79.0885 31.2099 78.9067 31.4534 78.7074 31.6821C78.5556 31.8481 78.3855 31.9968 78.2297 32.1598C77.9934 32.4083 77.7907 32.6894 77.5442 32.9278C77.2977 33.1661 76.9911 33.3657 76.6489 33.3963C76.5949 33.4076 76.5389 33.4042 76.4867 33.3862C76.4345 33.3683 76.3881 33.3366 76.3525 33.2944C76.3953 33.161 76.544 33.0999 76.6581 33.0113C76.9199 32.8004 76.9575 32.4144 77.1602 32.1455C77.2633 32.0232 77.3813 31.9144 77.5116 31.8217C77.939 31.4667 78.3451 31.0868 78.7277 30.684C78.9726 30.4473 79.2007 30.1937 79.4101 29.9252C79.583 29.6857 79.7385 29.4341 79.8756 29.1725C80.1003 28.7721 80.296 28.3562 80.4612 27.9279" fill="black"/>
</g>
<path d="M76.9226 32.3796C77.1773 32.4346 77.4319 32.2981 77.6478 32.1535C79.0484 31.2166 80.0597 29.8016 80.4925 28.1731C80.6351 27.6272 80.7706 26.9092 80.4324 26.458C80.3417 26.3472 80.2213 26.2646 80.0853 26.2198C79.9492 26.1751 79.8033 26.1701 79.6645 26.2054C79.8682 26.2807 79.9751 26.4977 80.0169 26.8318C80.0169 26.8318 79.9405 27.9745 79.5076 28.8892C79.2306 29.4799 78.7947 29.982 78.4463 30.531C78.4463 30.531 77.3952 31.8133 76.9043 32.015L76.9226 32.3796Z" fill="#196181"/>
<path d="M83.6506 27.4552C83.951 27.6469 84.1759 27.9365 84.2871 28.2751C84.3965 28.6142 84.4535 28.9679 84.4562 29.3242C84.4816 29.756 84.4473 30.1892 84.3544 30.6116C84.2509 30.9906 84.1118 31.3589 83.9388 31.7116C83.7841 32.0855 83.5973 32.4454 83.3807 32.7871C83.1467 33.1054 82.8597 33.3811 82.5322 33.602C82.5322 33.602 83.6811 31.0078 83.8563 30.0524C84.1344 28.5644 83.4418 27.7292 83.4418 27.7292L83.4815 27.4684L83.6506 27.4552Z" fill="#196181"/>
<path d="M79.4669 26.3307C78.8339 26.4049 78.2226 26.6073 77.6703 26.9255C76.775 27.45 70.4551 30.914 70.4551 30.914L70.9908 32.0924L74.6035 30.6482L78.6776 28.9911L79.4669 26.3307Z" fill="#F3D285"/>
<path d="M47.9473 78.9056H15.207V96.8479H47.9473V78.9056Z" fill="#0C4055"/>
<path d="M34.8887 81.3632C37.4808 81.3632 40.074 81.3632 42.6661 81.3632C42.8943 81.3632 42.9849 81.3978 42.9819 81.6585C42.969 83.2882 42.969 84.9198 42.9819 86.5535C42.9819 86.7868 42.9156 86.854 42.6875 86.8448C42.2546 86.8275 41.8197 86.8234 41.3869 86.8448C41.119 86.8591 41.0243 86.799 41.0314 86.5046C41.0538 85.588 41.0436 84.6611 41.0375 83.7394C41.0375 83.2871 41.1394 83.3065 40.6169 83.3055H30.4846C29.9866 83.3055 29.4875 83.3157 28.9905 83.3004C28.7756 83.2933 28.7287 83.3676 28.7307 83.5683C28.7399 84.5735 28.7307 85.5788 28.7399 86.5831C28.7399 86.7929 28.6808 86.8499 28.4751 86.8438C27.977 86.8295 27.479 86.8336 26.9809 86.8438C26.8159 86.8438 26.7558 86.8 26.7568 86.6269C26.7619 84.9483 26.765 83.2708 26.7568 81.5923C26.7568 81.3367 26.8994 81.3683 27.0573 81.3683L34.8887 81.3632Z" fill="#3AABE1"/>
<path d="M38.8616 88.0121C39.5094 88.0121 40.145 88.0121 40.7805 88.0121C40.9211 88.0121 40.972 88.0926 41.0331 88.1853C41.3275 88.6273 41.6239 89.0694 41.9376 89.5389C42.2503 89.0765 42.5487 88.6487 42.8318 88.2087C42.869 88.1416 42.9252 88.087 42.9934 88.0519C43.0615 88.0167 43.1386 88.0025 43.2148 88.0111C43.8147 88.0223 44.4136 88.0111 45.0115 88.0111C45.0491 88.113 44.9707 88.172 44.9279 88.2372C44.3331 89.1244 43.7424 90.0125 43.1384 90.8935C43.0909 90.946 43.0646 91.0142 43.0646 91.085C43.0646 91.1558 43.0909 91.224 43.1384 91.2765C43.7495 92.1932 44.3606 93.119 44.9646 94.0418C44.988 94.0784 45.0074 94.1182 45.0532 94.1996C44.5389 94.1996 44.054 94.1701 43.5743 94.2078C43.1333 94.2424 42.8349 94.1304 42.6261 93.7107C42.4478 93.3522 42.1861 93.0365 41.9447 92.6769C41.6391 93.1322 41.3387 93.562 41.0576 94.001C41.0221 94.069 40.967 94.1248 40.8994 94.1611C40.8319 94.1974 40.755 94.2126 40.6787 94.2047C40.0676 94.1925 39.4626 94.2047 38.8066 94.2047C39.1203 93.7372 39.4127 93.2982 39.708 92.8603C40.0574 92.3408 40.4006 91.8173 40.7642 91.3081C40.8773 91.1502 40.8661 91.0514 40.7642 90.9006C40.1643 90.0278 39.5766 89.1478 38.9859 88.2698C38.9164 88.2005 38.8726 88.1097 38.8616 88.0121Z" fill="white"/>
<path d="M28.7423 88.9074C29.1691 88.1343 30.1682 87.7473 30.9545 87.9775C31.0717 88.0111 31.0645 88.0793 31.0645 88.1577C31.0645 88.6456 31.0594 89.1345 31.0645 89.6224C31.0645 89.7731 31.0044 89.7884 30.8832 89.7619C30.6754 89.7173 30.4617 89.7077 30.2507 89.7334C29.2954 89.8464 28.7515 90.4698 28.7403 91.4842C28.7314 92.3133 28.7314 93.1424 28.7403 93.9714C28.7403 94.1476 28.7016 94.2057 28.5162 94.2006C28.0192 94.1874 27.5211 94.1904 27.023 94.2006C26.8652 94.2006 26.8193 94.1558 26.8193 93.9969C26.8248 92.0719 26.8248 90.1466 26.8193 88.2209C26.8193 88.0549 26.8652 87.9989 27.0373 88.0019C27.5343 88.0131 28.0324 88.0152 28.5304 88.0019C28.7128 88.0019 28.7464 88.0661 28.7341 88.225C28.7331 88.4317 28.7423 88.6324 28.7423 88.9074Z" fill="white"/>
<path d="M32.1194 91.1023C32.1194 90.152 32.1194 89.2027 32.1143 88.2504C32.1143 88.062 32.156 87.9978 32.3556 88.0039C32.8527 88.0182 33.3518 88.0121 33.8498 88.0039C33.9894 88.0039 34.0647 88.0162 34.0647 88.1903C34.0586 90.1357 34.0586 92.0814 34.0647 94.0275C34.0647 94.1578 34.0291 94.2006 33.8946 94.1986C33.3599 94.1914 32.8242 94.1863 32.2894 94.1986C32.0908 94.1986 32.1194 94.0967 32.1194 93.9724C32.12 93.0171 32.12 92.0604 32.1194 91.1023Z" fill="white"/>
<path d="M37.7084 91.1317C37.7084 92.08 37.7033 93.0282 37.7084 93.9764C37.7084 94.1526 37.6686 94.2097 37.4843 94.2046C36.9872 94.1913 36.4892 94.1934 35.9922 94.2046C35.8241 94.2046 35.7559 94.1781 35.7559 93.9846C35.764 92.0698 35.764 90.155 35.7559 88.2401C35.7559 88.0619 35.7976 88.0018 35.984 88.0069C36.4719 88.0201 36.9608 88.0222 37.4486 88.0069C37.6523 87.9998 37.7114 88.0476 37.7084 88.2595C37.7012 89.2128 37.7084 90.1743 37.7084 91.1317Z" fill="white"/>
<path d="M33.1026 84.5116C33.3951 84.5187 33.6733 84.6389 33.879 84.8468C34.0847 85.0548 34.2018 85.3344 34.2057 85.6269C34.2037 85.774 34.1728 85.9193 34.1147 86.0545C34.0567 86.1897 33.9725 86.3121 33.8671 86.4148C33.7617 86.5175 33.6371 86.5984 33.5004 86.6529C33.3637 86.7074 33.2177 86.7344 33.0705 86.7325C32.9234 86.7306 32.7781 86.6997 32.6429 86.6416C32.5077 86.5835 32.3853 86.4993 32.2826 86.3939C32.18 86.2885 32.0991 86.1639 32.0446 86.0272C31.9901 85.8906 31.963 85.7445 31.9649 85.5974C31.9751 85.0127 32.5037 84.5075 33.1026 84.5116Z" fill="#3AABE1"/>
<path d="M37.8276 85.6003C37.8311 85.8927 37.7188 86.1746 37.5152 86.3845C37.3116 86.5944 37.0332 86.7153 36.7408 86.7206C36.4432 86.7154 36.1591 86.5948 35.9486 86.3843C35.7381 86.1738 35.6175 85.8898 35.6123 85.5921C35.6214 85.304 35.7413 85.0305 35.9469 84.8284C36.1526 84.6264 36.4281 84.5114 36.7164 84.5074C36.8617 84.504 37.0062 84.5298 37.1414 84.5833C37.2765 84.6367 37.3996 84.7168 37.5032 84.8187C37.6068 84.9206 37.6889 85.0423 37.7447 85.1766C37.8004 85.3108 37.8286 85.4549 37.8276 85.6003Z" fill="#3AABE1"/>
<path d="M24.2953 90.0574C24.1334 89.9708 23.9694 89.8893 23.7861 89.7936C23.8492 89.761 23.8971 89.7345 23.946 89.71C25.1376 89.1315 25.3148 87.176 24.2413 86.355C23.7698 85.9965 23.2228 85.8458 22.6494 85.7918C21.3803 85.6787 20.1031 85.7704 18.834 85.7409C18.6619 85.7409 18.668 85.8285 18.668 85.9446C18.668 88.626 18.668 91.3081 18.668 93.9909C18.668 94.1671 18.7189 94.2027 18.8849 94.2007C19.9177 94.1936 20.9505 94.2068 21.9833 94.1946C22.7421 94.1854 23.4927 94.1111 24.1823 93.7525C24.9217 93.3675 25.2639 92.734 25.3159 91.9192C25.3617 91.0912 25.0439 90.4576 24.2953 90.0574ZM20.6073 87.7066C20.6073 87.5722 20.6327 87.5029 20.7875 87.509C21.2856 87.5182 21.7826 87.5029 22.2797 87.5162C22.739 87.5284 22.9926 87.8054 22.9926 88.2525C22.996 88.3494 22.9795 88.446 22.9443 88.5363C22.9091 88.6266 22.8558 88.7087 22.7877 88.7778C22.7197 88.8468 22.6382 88.9012 22.5484 88.9377C22.4586 88.9742 22.3623 88.9919 22.2654 88.99C22.0169 89.0001 21.7673 88.99 21.5188 88.99C21.2703 88.99 21.0401 88.9838 20.8008 88.99C20.6623 88.99 20.6032 88.9584 20.6062 88.8066C20.6164 88.443 20.6144 88.0743 20.6073 87.7066ZM23.2075 91.9182C23.0731 92.2991 22.7533 92.402 22.3988 92.4275C22.133 92.4448 21.8651 92.4275 21.5983 92.4275C21.3314 92.4275 21.0636 92.4213 20.7967 92.4275C20.6572 92.4275 20.6032 92.3959 20.6062 92.2451C20.6164 91.8123 20.6154 91.3794 20.6062 90.9475C20.6062 90.7999 20.6511 90.7591 20.7936 90.7622C21.3375 90.7713 21.8814 90.752 22.4233 90.7754C23.0945 90.808 23.4265 91.304 23.2075 91.9182Z" fill="white"/>
</svg>
