<svg width="121" height="120" viewBox="0 0 121 120" fill="none" xmlns="http://www.w3.org/2000/svg">
<path opacity="0.15" d="M109.464 95.6078L15.5184 95.5667C15.5184 95.5667 -0.3583 68.6156 8.10948 50.5867C16.5773 32.5578 28.9439 45.2833 29.975 32.2533C30.0095 31.8089 29.9817 31.3756 29.9817 30.95C29.9817 30.8489 29.9817 30.7489 29.9873 30.6489C30.3039 23.1722 34.2661 18.3333 39.4995 15.5556C39.6684 15.4656 39.8328 15.3789 40.0095 15.2933C48.3484 11.13 59.625 11.9867 64.6161 15.5656C73.1095 21.6556 73.0606 28.9856 90.595 26.5656C108.129 24.1456 111.474 44.3689 106.908 54.6667C100.432 69.2867 124.872 66.8889 109.464 95.6078Z" fill="#196181"/>
<path d="M61.0273 114.553C91.7147 114.553 116.592 109.177 116.592 102.546C116.592 95.9138 91.7147 90.5378 61.0273 90.5378C30.3399 90.5378 5.46289 95.9138 5.46289 102.546C5.46289 109.177 30.3399 114.553 61.0273 114.553Z" fill="#E5F2FC"/>
<path d="M80.2976 24.3967H38.332V55.1222H80.2976V24.3967Z" fill="#1E7EAA"/>
<path d="M78.4364 25.7333H39.4941V54.1733H78.4364V25.7333Z" fill="#99D1E9"/>
<path d="M74.9001 47.6667H62.0234V31.5878L64.2079 29.62H74.9001V47.6667Z" fill="white"/>
<path d="M62.0234 31.5878H64.1368L64.2079 29.62L62.0234 31.5878Z" fill="#0C4055"/>
<path d="M73.6158 35.5567H63.5469V35.8089H73.6158V35.5567Z" fill="#0C4055"/>
<path d="M73.6158 36.3233H63.5469V36.5756H73.6158V36.3233Z" fill="#0C4055"/>
<path d="M73.6158 37.09H63.5469V37.3422H73.6158V37.09Z" fill="#0C4055"/>
<path d="M73.6158 37.8567H63.5469V38.1089H73.6158V37.8567Z" fill="#0C4055"/>
<path d="M73.6158 40.2155H63.5469V40.4678H73.6158V40.2155Z" fill="#0C4055"/>
<path d="M73.6158 40.9822H63.5469V41.2345H73.6158V40.9822Z" fill="#0C4055"/>
<path d="M73.6158 41.8711H63.5469V42.1233H73.6158V41.8711Z" fill="#0C4055"/>
<path d="M58.3096 38.6473L51.2168 39.142L51.653 45.3957L58.7458 44.901L58.3096 38.6473Z" fill="white"/>
<path d="M54.5339 40.0445C54.5297 39.9831 54.5438 39.9219 54.5743 39.8686C54.6048 39.8152 54.6504 39.7721 54.7054 39.7447C54.7604 39.7173 54.8223 39.7067 54.8833 39.7144C54.9443 39.7221 55.0016 39.7477 55.0481 39.788C55.0945 39.8282 55.128 39.8813 55.1443 39.9406C55.1606 39.9999 55.159 40.0626 55.1396 40.121C55.1203 40.1793 55.0841 40.2306 55.0356 40.2684C54.9871 40.3062 54.9286 40.3288 54.8673 40.3333C54.7848 40.3392 54.7034 40.312 54.6409 40.2578C54.5784 40.2037 54.5399 40.1269 54.5339 40.0445Z" fill="#0C4055"/>
<path d="M49.3889 43.1395L42.2793 43.2127L42.3438 49.4813L49.4535 49.4081L49.3889 43.1395Z" fill="white"/>
<path d="M45.5332 44.3167C45.5326 44.2551 45.5502 44.1948 45.5838 44.1433C45.6174 44.0917 45.6656 44.0514 45.7222 44.0272C45.7788 44.003 45.8413 43.9962 45.9017 44.0076C45.9622 44.0189 46.018 44.048 46.0619 44.091C46.1059 44.134 46.1361 44.1892 46.1488 44.2494C46.1614 44.3096 46.1559 44.3722 46.133 44.4293C46.1101 44.4864 46.0707 44.5354 46.0199 44.5701C45.9691 44.6049 45.9092 44.6238 45.8477 44.6244C45.8068 44.6249 45.7663 44.6173 45.7284 44.602C45.6904 44.5868 45.6559 44.5643 45.6267 44.5357C45.5975 44.5071 45.5742 44.473 45.5582 44.4355C45.5421 44.3979 45.5337 44.3575 45.5332 44.3167Z" fill="#0C4055"/>
<path d="M52.4087 30.2397L45.4551 31.7228L46.7625 37.8527L53.7161 36.3696L52.4087 30.2397Z" fill="#917F50"/>
<path d="M48.9599 32.04C48.9149 32.0109 48.8795 31.9691 48.8582 31.9198C48.8369 31.8706 48.8307 31.8161 48.8404 31.7633C48.8501 31.7106 48.8752 31.6619 48.9126 31.6234C48.95 31.5849 48.9979 31.5584 49.0504 31.5472C49.1029 31.5359 49.1575 31.5406 49.2073 31.5604C49.2572 31.5802 49.3 31.6144 49.3304 31.6586C49.3608 31.7028 49.3774 31.7551 49.3781 31.8087C49.3788 31.8624 49.3636 31.915 49.3344 31.96C49.2953 32.0202 49.2339 32.0624 49.1637 32.0774C49.0935 32.0924 49.0202 32.079 48.9599 32.04Z" fill="#FCFCF5"/>
<path d="M50.8217 51.9778C50.8217 51.9778 43.9395 54.2 42.3506 53.8078C41.5106 53.6 40.1972 52.4089 38.9761 51.1255C38.775 50.9122 38.5761 50.6967 38.3806 50.4833C37.035 49.0033 35.9361 47.5944 35.9361 47.5944C35.9361 47.5944 32.6028 43.6878 35.2772 41.9467C36.0679 42.0604 36.7975 42.436 37.3495 43.0133C38.2384 43.9689 39.0784 45.4922 39.3117 46.0022C39.545 46.5122 42.8195 51.2344 42.9895 51.3355C43.1595 51.4367 44.5906 51.0655 45.7372 50.97C47.6072 50.8144 50.4039 49.8589 50.4039 49.8589L50.8217 51.9778Z" fill="#1A7FAA"/>
<path d="M41.36 94.3811C41.36 94.3811 42.2356 95.9478 42.7567 96.27C43.4045 96.6655 44.6634 97.9367 45.1023 97.9933C45.5411 98.05 47.1211 98.3333 46.8167 99.2222C46.5667 99.9544 42.7978 99.8489 42.3723 99.4822C41.9467 99.1156 40.6778 97.7989 40.1667 97.8278C39.6556 97.8567 39.8434 99.7233 39.8434 99.7233H39.2878C39.2878 99.7233 39.0934 97.9067 39.0656 97.5944C38.9967 96.6711 39.6556 95.99 39.6845 95.4633C39.7134 94.9367 39.7445 94.5422 39.7445 94.5422L41.36 94.3811Z" fill="#1E7FAA"/>
<path d="M44.9765 97.9467C44.9765 97.9467 43.7354 98.3756 42.7787 97.8256C41.8221 97.2756 39.9887 96.4422 39.3398 96.4367C39.3398 96.4367 39.6943 95.3544 39.701 95.2333C39.7076 95.1122 39.7476 94.5422 39.7476 94.5422L41.351 94.2856C41.351 94.2856 42.391 95.8122 42.8498 96.1744C43.3087 96.5367 44.4832 97.4289 44.9765 97.9467Z" fill="#FBFAF2"/>
<path d="M26.2157 95.8555C26.2157 95.8555 26.3713 96.94 26.5402 97.2344C26.7091 97.5289 27.1735 99.0378 27.3846 99.3189C27.5957 99.6 28.0602 101.713 27.3846 101.967C26.7091 102.22 25.1169 102.642 24.5824 101.798C24.1381 101.106 23.9534 100.279 24.0613 99.4644C24.1457 98.8167 24.788 95.8444 24.7802 95.55C24.7724 95.2555 26.2157 95.8555 26.2157 95.8555Z" fill="#FBFAF2"/>
<path d="M27.1151 98.7344C27.1151 98.7344 27.1884 100.376 25.9495 100.376C24.7106 100.376 24.1662 98.8822 24.1662 98.8822C24.1662 98.8822 23.7439 99.6155 24.1662 101.178C24.5884 102.74 26.3484 102.418 26.7428 102.361C27.1373 102.304 29.0006 101.81 27.1151 98.7344Z" fill="#1E7FAA"/>
<path d="M28.2608 58.4689C28.2608 58.4689 26.6586 60.51 26.0941 61.86C25.5297 63.21 24.5864 66.1711 24.7119 68.4644C24.8375 70.7578 25.5919 75.06 25.3719 76.0333C25.1519 77.0067 24.9275 79.0167 24.6964 79.7078C24.4653 80.3989 23.5186 82.4089 23.4241 84.4856C23.3297 86.5622 24.0908 95.6522 24.0319 96.5C23.973 97.3478 26.7764 96.8333 26.7764 96.8333C26.7764 96.8333 26.8475 88.6356 27.1619 87.2222C27.4764 85.8089 27.853 81 28.1353 80.6578C28.4175 80.3156 29.2108 76.6689 29.2619 76.0744C29.3119 75.4989 32.6719 65.5378 32.8597 63.8422C33.0475 62.1467 37.2564 58.4767 37.2564 58.4767C37.2564 58.4767 33.1297 56.8889 28.2608 58.4689Z" fill="#0C4055"/>
<path d="M38.6977 94.8311C38.0999 94.7367 36.5021 85.55 36.6899 83.9167C36.8776 82.2833 37.0665 78.8056 36.5321 77.3856C36.1821 76.4567 33.9932 71.7311 32.5199 68.4122C32.3132 67.9433 32.1188 67.5033 31.9465 67.1056C31.4799 66.0267 31.1688 65.2611 31.1621 65.1056C31.1299 64.4778 29.0832 53.6611 37.1732 58.4711C37.1732 58.4711 37.2554 59.3267 37.3488 59.64C37.4421 59.9533 39.611 67.9611 39.8332 71.0389C40.0554 74.1167 40.6188 76.7278 40.7121 77.3856C40.8054 78.0433 40.6188 80.2422 40.4299 80.8078C40.241 81.3733 41.6521 94.1411 41.7488 94.4511C41.8454 94.7611 39.2932 94.9244 38.6977 94.8311Z" fill="#0C4055"/>
<path d="M33.9998 41.3722C33.9998 41.3722 35.531 42.0944 36.0621 42.2011C36.5932 42.3078 38.6565 44.9855 39.0187 45.9644C39.381 46.9433 39.0187 48.4089 38.2754 50.1311C37.5321 51.8533 38.2332 52.4278 37.8943 54.15C37.5554 55.8722 37.2565 59.5178 37.321 60.4744C37.3854 61.4311 28.7221 61.6144 26.7443 59.8711C26.7443 59.8711 28.7298 56.8944 28.9854 56.4689C29.241 56.0433 29.0276 53.7267 28.7932 53.1356C28.5587 52.5444 26.9043 47.6222 26.9043 47.6222C26.9043 47.6222 25.7298 43.59 26.8798 42.6967C27.8798 41.9189 30.6021 41.6433 31.091 41.4744C31.5799 41.3055 33.001 41.2222 33.9998 41.3722Z" fill="#1A7FAA"/>
<path d="M34.731 39.6056C34.731 39.6056 34.4265 42.4144 34.4898 43.3289C34.4898 43.3289 32.8998 44.9233 31.0898 41.4689C31.0898 41.4689 31.851 40.0444 31.2776 38.1044C30.7043 36.1644 34.731 39.6056 34.731 39.6056Z" fill="#FBFAF2"/>
<path d="M34.4882 43.3289L34.4893 44.7844L32.6582 43.4178L34.4882 43.3289Z" fill="#FBFAF2"/>
<path d="M31.5491 61.8544C30.8336 65.3055 25.6113 61.4667 25.6113 61.4667C25.6113 61.4667 28.9924 55.7844 27.6469 51.2444C27.6369 51.2078 27.6258 51.1722 27.6147 51.1333C27.5287 50.8467 27.4432 50.5737 27.358 50.3144C27.3424 50.2678 27.3269 50.22 27.3124 50.1744C27.018 49.2855 26.778 48.5433 26.5836 47.9356C25.9824 46.0667 25.8058 45.4511 25.8058 45.4511C25.8058 45.4511 26.068 42.5444 27.5002 42.2222C28.9324 41.9 30.4669 41.6011 30.4669 41.6011C30.4669 41.6011 32.958 44.7944 33.0613 46.23C33.1647 47.6655 32.2702 58.4033 31.5491 61.8544Z" fill="#1A7FAA"/>
<path d="M39.2314 46.6244C39.2314 46.6244 39.3925 48.6033 38.0348 51.2022C38.0348 51.2022 38.0625 54.6811 38.1059 55.8922C38.1492 57.1033 38.4392 61.6867 38.4392 61.6867L36.9437 62.5622C36.876 62.6021 36.7985 62.6222 36.72 62.6203C36.6415 62.6184 36.5651 62.5945 36.4995 62.5513C36.4339 62.5081 36.3817 62.4474 36.3489 62.3761C36.316 62.3048 36.3038 62.2257 36.3137 62.1478C36.7348 58.66 38.107 45.4311 35.1348 41.8755L36.4592 42.3333C36.4592 42.3333 39.2314 45.2411 39.2314 46.6244Z" fill="#1A7FAA"/>
<path d="M37.166 38.0978C37.2216 37.7456 37.3105 37.4056 37.3883 37.0533C37.4827 36.5569 37.524 36.0518 37.5116 35.5467C37.5119 35.4547 37.5293 35.3635 37.5627 35.2778C37.6727 34.8028 37.7447 34.3198 37.7783 33.8333C37.2527 30.8756 34.736 30.4289 33.616 30.5367C29.0916 30.9722 29.6683 34.8289 31.0605 37.2933C32.4527 39.7578 35.1716 40.1878 35.8894 40.1711C36.6071 40.1544 37.166 38.0978 37.166 38.0978Z" fill="#FBFAF2"/>
<path d="M44.2637 54.0856L50.2648 52.8956L54.7159 43.3722L48.3103 44.0444L44.2637 54.0856Z" fill="#917F50"/>
<path d="M34.7339 40.0111C34.6928 40.2333 34.6517 40.4856 34.6172 40.7556C33.7315 40.2593 32.9507 39.5955 32.3184 38.8011C33.1917 39.5178 34.7339 40.0111 34.7339 40.0111Z" fill="#EFEFD8"/>
<path d="M41.3207 52.84C41.4762 52.8738 41.6382 52.8622 41.7873 52.8067C42.1362 52.6433 42.3629 52.1078 42.8851 52.2611C43.4073 52.4144 43.3007 54.1322 43.1007 54.4189C42.9007 54.7056 42.1296 54.7067 41.0873 54.2589C40.0451 53.8111 41.3207 52.84 41.3207 52.84Z" fill="#FBFAF2"/>
<path d="M42.6994 52.2345C43.2769 52.171 43.8573 52.1369 44.4383 52.1322C45.2472 52.1322 46.1816 52.27 46.2427 52.4233C46.3038 52.5767 45.4316 52.5422 44.6283 52.5956C43.8905 52.6467 44.0405 52.7545 44.0405 52.7545C44.0405 52.7545 43.9994 52.7211 44.8105 52.8156C45.6838 52.9178 46.5649 53.1056 46.6149 53.2956C46.6405 53.3878 46.5994 53.4378 46.2738 53.4511C46.4605 53.4811 46.4772 53.5345 46.4683 53.6111C46.4227 54.0033 45.1094 54.0467 44.5883 54.0622C44.9894 54.0522 45.2827 54.0856 45.0905 54.3145C44.8683 54.5767 43.0138 54.5556 42.3461 54.61C41.6172 54.6667 42.6994 52.2345 42.6994 52.2345Z" fill="#FBFAF2"/>
<path d="M27.211 42.3333C27.211 42.3333 28.6377 42.5967 29.3433 43.6967C30.0488 44.7967 30.7699 46.3633 30.9088 46.9056C31.0477 47.4478 33.7222 52.4378 33.871 52.5722C34.0199 52.7067 35.4944 52.5945 36.6388 52.7067C38.5077 52.8889 41.4322 52.4545 41.4322 52.4545L41.461 54.6089C41.461 54.6089 34.2899 55.5578 32.7944 54.8867C30.9699 54.0667 26.5533 47.9 26.5533 47.9C26.5533 47.9 24.2666 43.5645 27.211 42.3333Z" fill="#1C7097"/>
<path d="M30.1093 52.4156L27.3148 50.1767C27.0204 49.2878 26.7804 48.5456 26.5859 47.9378C26.5859 47.9378 29.4193 51.65 30.1093 52.4156Z" fill="#1A5A8D"/>
<path d="M38.9764 51.1255C38.7753 50.9122 38.5764 50.6967 38.3809 50.4833C38.3809 50.4833 39.1386 48.47 39.1886 47.6178C39.1886 47.6178 39.3664 49.5222 38.9764 51.1255Z" fill="#1C7097"/>
<path d="M35.723 30.4922C35.2353 30.3322 34.7497 30.0478 34.2308 30.1767C33.1986 30.43 32.1119 30.51 31.1819 31.1167C30.793 31.3722 30.5086 31.7233 30.1753 32.03C29.7564 32.4989 29.6197 33.1778 29.7308 34.1089C29.6261 33.5703 29.6602 33.014 29.8297 32.4922C29.8842 32.33 30.0119 32.1822 29.953 31.9911C29.0186 31.7978 28.1942 32.2622 27.7686 33.2245C27.3311 34.1724 27.243 35.2445 27.5197 36.2511C27.933 37.7433 27.6442 39.0456 26.643 40.2078C26.5954 40.2641 26.5537 40.3252 26.5186 40.39C26.3164 40.7522 26.1742 41.1367 26.4597 41.5067C26.7286 41.8533 27.1053 41.7989 27.473 41.6767C27.8275 42.1767 27.9308 42.2178 28.5464 42.0367C28.6152 42.0143 28.6877 42.0059 28.7598 42.0118C28.8319 42.0177 28.9021 42.0379 28.9664 42.0711C29.4808 42.3089 29.9586 42.1556 30.2575 41.6756C30.3645 41.4983 30.4379 41.3028 30.4742 41.0989C30.6897 39.9878 30.7342 38.8767 30.4642 37.7656C30.2319 36.8067 29.9319 35.8622 29.8497 35.2233C29.8708 35.6133 30.2397 36.4222 30.6553 36.6856C30.8275 36.5589 30.7886 36.3356 30.8897 36.1745C31.0008 35.9889 31.1397 35.8333 31.3753 35.8489C31.6353 35.8656 31.6942 36.0711 31.7453 36.28C31.7919 36.4678 31.7897 36.6622 31.8408 36.8478C31.9075 37.0911 32.0453 37.1311 32.2108 36.9356C32.4453 36.6567 32.5442 36.3178 32.6208 35.9678C32.7397 35.4222 32.6386 34.8811 32.6208 34.3367C32.5908 33.5989 32.9164 33.0945 33.5897 32.8111C33.6822 32.7639 33.7829 32.7348 33.8864 32.7256C34.4004 32.703 34.9069 32.5933 35.3842 32.4011C36.0575 32.1545 36.8786 32.6956 37.1619 33.5C37.2475 33.7367 37.2886 33.9856 37.3564 34.2267C37.403 34.3956 37.4242 34.5789 37.5853 34.6911C37.8697 34.7045 37.8808 34.4789 37.8942 34.3C38.0053 32.8911 37.7708 31.6222 36.4108 30.8411C36.2453 30.7467 36.1164 30.5956 35.9319 30.5311C35.8636 30.5118 35.7937 30.4988 35.723 30.4922Z" fill="#917F50"/>
<path d="M35.585 37.2289C35.7124 37.1879 35.844 37.1611 35.9772 37.1489C36.0384 37.14 36.0972 37.1267 36.1061 37.0911C36.115 37.0556 36.0917 36.9989 36.0595 36.94C35.9961 36.8189 35.9306 36.6911 35.8617 36.5578C35.5872 36.0133 35.3861 35.5633 35.4172 35.5578C35.4483 35.5522 35.6884 35.9822 35.9639 36.5278C36.0295 36.6622 36.0928 36.79 36.1539 36.9122C36.174 36.9412 36.1879 36.9741 36.1946 37.0087C36.2013 37.0433 36.2007 37.079 36.1928 37.1133C36.1829 37.1329 36.1689 37.1501 36.1519 37.1639C36.1349 37.1777 36.1151 37.1877 36.0939 37.1933C36.0594 37.2029 36.0241 37.2088 35.9884 37.2111C35.8549 37.2312 35.7197 37.2372 35.585 37.2289Z" fill="#146080"/>
<path d="M34.5057 35.4811C34.5094 35.5522 34.4852 35.6219 34.4383 35.6754C34.3914 35.7289 34.3255 35.7621 34.2546 35.7678C34.2199 35.7719 34.1847 35.7692 34.1511 35.7596C34.1175 35.75 34.0861 35.7338 34.0588 35.712C34.0315 35.6902 34.0088 35.6632 33.9921 35.6325C33.9753 35.6018 33.9648 35.5681 33.9613 35.5333C33.9578 35.4621 33.9823 35.3924 34.0293 35.3389C34.0764 35.2854 34.1424 35.2524 34.2135 35.2467C34.2481 35.2423 34.2833 35.245 34.3169 35.2545C34.3505 35.2641 34.3819 35.2802 34.4092 35.3021C34.4364 35.324 34.459 35.3511 34.4756 35.3818C34.4922 35.4126 34.5024 35.4463 34.5057 35.4811Z" fill="#4797C0"/>
<path d="M36.9823 35.48C36.986 35.5514 36.9617 35.6214 36.9146 35.6751C36.8675 35.7288 36.8013 35.7621 36.7301 35.7678C36.6955 35.7719 36.6603 35.7691 36.6268 35.7596C36.5932 35.75 36.5619 35.7338 36.5347 35.712C36.5075 35.6901 36.4849 35.6631 36.4683 35.6324C36.4517 35.6017 36.4413 35.568 36.4379 35.5333C36.4342 35.4623 36.4583 35.3925 36.5052 35.339C36.5521 35.2855 36.618 35.2524 36.689 35.2467C36.7236 35.2422 36.7589 35.2447 36.7925 35.2541C36.8262 35.2635 36.8577 35.2795 36.885 35.3013C36.9124 35.323 36.9351 35.3501 36.9518 35.3808C36.9685 35.4115 36.9789 35.4452 36.9823 35.48Z" fill="#4797C0"/>
<path d="M35.477 38.1678C35.3902 38.2612 35.2802 38.3298 35.1581 38.3667C34.9782 38.4233 34.7865 38.4309 34.6026 38.3889C34.4667 38.3551 34.348 38.2725 34.2692 38.1567L34.1426 38.1844C34.1724 38.2336 34.2078 38.2791 34.2481 38.32C34.3397 38.4098 34.4556 38.4708 34.5815 38.4955C34.7854 38.5381 34.9972 38.5207 35.1915 38.4455C35.3238 38.3979 35.4383 38.3106 35.5192 38.1955C35.5726 38.1122 35.5781 38.0555 35.5726 38.0544C35.567 38.0533 35.5359 38.0989 35.477 38.1678Z" fill="#146080"/>
<path d="M59.5241 94.1111C59.3597 94.9333 58.1908 94.7967 56.8797 94.4767C55.5686 94.1567 55.8797 94.5367 54.0186 94.33C52.1575 94.1233 51.5919 93.43 51.5352 93.1533C51.4841 92.9067 52.4041 92.82 53.3919 92.7089L53.7652 92.6644C54.8763 92.5244 55.6963 91.8045 56.7086 91.2145C57.6675 90.6589 59.0997 88.3745 59.0997 88.3745L61.6552 88.5778C61.6552 88.5778 60.3141 90.6133 59.7963 91.4989C59.4908 92.0189 59.5075 92.7078 59.5452 93.24C59.5775 93.53 59.5704 93.823 59.5241 94.1111Z" fill="white"/>
<path d="M56.8797 94.4755C55.5708 94.1555 55.8797 94.5355 54.0186 94.3289C52.1575 94.1222 51.5919 93.4289 51.5352 93.1522C51.4841 92.9055 52.4041 92.8189 53.3919 92.7078L53.4008 92.7267C54.1986 93.2386 55.12 93.525 56.0675 93.5555C57.3319 93.5867 58.6697 93.2222 59.543 93.2389C59.5758 93.5296 59.5691 93.8233 59.523 94.1122C59.3597 94.9322 58.1886 94.7955 56.8797 94.4755Z" fill="#0C4055"/>
<path d="M22.2128 102.07H22.1661C22.1069 102.068 22.0485 102.055 21.9946 102.03C21.9407 102.006 21.8922 101.971 21.852 101.927C21.8118 101.883 21.7808 101.832 21.7607 101.776C21.7406 101.721 21.7319 101.661 21.735 101.602L22.3894 71.5378L24.3194 71.2989L22.6783 101.603C22.675 101.726 22.6249 101.842 22.5383 101.929C22.4518 102.016 22.3353 102.066 22.2128 102.07Z" fill="#99D1E9"/>
<path d="M89.1474 102.127H89.1786C89.2221 102.127 89.2652 102.118 89.3053 102.101C89.3454 102.085 89.3818 102.06 89.4123 102.029C89.4427 101.998 89.4666 101.961 89.4826 101.921C89.4986 101.88 89.5063 101.837 89.5052 101.793L89.0108 80.32L87.5508 80.15L88.7952 101.794C88.8006 101.884 88.84 101.969 88.9055 102.03C88.9709 102.092 89.0575 102.127 89.1474 102.127Z" fill="#D7C087"/>
<path d="M97.6514 102.127H97.6825C97.726 102.127 97.7691 102.118 97.8092 102.101C97.8494 102.085 97.8857 102.06 97.9162 102.029C97.9466 101.998 97.9706 101.961 97.9865 101.921C98.0025 101.88 98.0102 101.837 98.0091 101.793L97.5136 80.32L96.0547 80.15L97.2991 101.794C97.3042 101.884 97.3436 101.969 97.4091 102.031C97.4746 102.092 97.5613 102.127 97.6514 102.127Z" fill="#D7C087"/>
<path d="M74.186 102.127H74.1549C74.1114 102.127 74.0683 102.118 74.0281 102.101C73.988 102.085 73.9516 102.06 73.9212 102.029C73.8907 101.998 73.8668 101.961 73.8508 101.921C73.8349 101.88 73.8272 101.837 73.8282 101.793L74.3238 80.32L75.7838 80.15L74.5393 101.794C74.5339 101.884 74.4943 101.969 74.4287 102.031C74.363 102.093 74.2762 102.127 74.186 102.127Z" fill="#D7C087"/>
<path d="M98.6192 78.9889V64.2744C98.6192 63.6588 98.498 63.0493 98.2624 62.4805C98.0268 61.9118 97.6815 61.395 97.2462 60.9597C96.8109 60.5244 96.2941 60.1791 95.7254 59.9435C95.1566 59.7079 94.5471 59.5867 93.9315 59.5867H83.3303C82.7147 59.5867 82.1052 59.7079 81.5364 59.9435C80.9677 60.1791 80.4509 60.5244 80.0156 60.9597C79.5803 61.395 79.235 61.9118 78.9994 62.4805C78.7638 63.0493 78.6426 63.6588 78.6426 64.2744V79.5556L98.6192 78.9889Z" fill="#D7C087"/>
<path d="M98.2169 81.3111H76.7436V78.9889H98.6191V80.9089C98.6191 81.0156 98.5768 81.1179 98.5013 81.1933C98.4259 81.2687 98.3236 81.3111 98.2169 81.3111Z" fill="#D7C087"/>
<path d="M73.4508 81.3111H90.6153C90.7264 81.3111 90.8164 81.2211 90.8164 81.11V79.1889C90.8164 79.0778 90.7264 78.9878 90.6153 78.9878H73.4508C73.3398 78.9878 73.2497 79.0778 73.2497 79.1889V81.11C73.2497 81.2211 73.3398 81.3111 73.4508 81.3111Z" fill="#D7C087"/>
<path d="M74.8921 75.3222C76.411 77.9655 78.321 78.9889 78.321 78.9889H86.2676C86.2676 78.9889 73.7332 73.3055 74.8921 75.3222Z" fill="#092933"/>
<path d="M80.9944 95.7778C81.0896 95.8822 81.1527 96.0118 81.1759 96.1512C81.1992 96.2906 81.1817 96.4337 81.1255 96.5633C80.9366 97.0867 80.31 97.6744 79.5822 98.2556C79.49 98.3311 79.4066 98.3989 79.3355 98.4622L79.28 98.5122C79.2644 98.5244 79.2511 98.5378 79.2366 98.5511C78.5589 99.1756 78.8133 99.3189 77.5955 100.588C76.2055 102.032 75.2489 102.059 74.9766 101.928C74.7466 101.817 75.2144 101.049 75.7333 100.187C75.7578 100.146 75.7822 100.103 75.8089 100.061C75.8778 99.95 75.9455 99.83 76.0144 99.7156C76.6222 98.6778 76.4655 98.1911 76.3222 96.6478C76.2044 95.3933 74.3711 89.6411 74.3711 89.6411L77.0378 89.1822C77.0378 89.1822 77.8333 93.7633 78.7222 94.4689C79.1944 94.8444 79.7222 94.8489 80.1766 95.1278L80.2722 95.1878C80.5381 95.3514 80.781 95.5498 80.9944 95.7778Z" fill="white"/>
<path d="M80.9939 95.7778C81.0892 95.8822 81.1522 96.0118 81.1754 96.1512C81.1987 96.2906 81.1812 96.4337 81.1251 96.5633C80.8928 97.0867 80.2828 97.6678 79.5795 98.25C79.4884 98.3267 79.4073 98.3967 79.3351 98.4622L79.2795 98.5122C79.2639 98.5244 79.2506 98.5378 79.2362 98.5511C78.5584 99.1756 78.8128 99.3189 77.5951 100.588C76.2051 102.032 75.2484 102.059 74.9762 101.928C74.7462 101.817 75.2139 101.049 75.7328 100.187C76.7047 99.8074 77.5592 99.178 78.2095 98.3622C79.0462 97.2944 79.6039 95.9178 80.1728 95.1278L80.2684 95.1878C80.5355 95.3512 80.7795 95.5496 80.9939 95.7778Z" fill="#0C4055"/>
<path d="M69.3164 77.7778L71.7042 84.2044L74.822 92.5955C75.3787 92.6366 75.9385 92.5856 76.4786 92.4444C77.2242 92.2289 78.0808 91.6667 78.0808 91.6667C78.0808 91.6667 77.2142 82.6567 75.5997 77.4855C75.1853 76.1522 74.722 75.0844 74.2097 74.48C71.7064 71.5155 69.3164 77.7778 69.3164 77.7778Z" fill="#092933"/>
<path d="M71.743 67.5689C73.3075 67.0644 77.7697 67.7122 82.2531 68.59L83.1908 67.0422L92.873 66.2856C92.873 66.2856 96.0686 73.3711 94.3175 77.8855C94.0597 78.5522 93.5497 78.9744 92.6786 78.9889H92.5375H84.903C80.0875 78.9889 74.7119 75.6789 74.0142 75.5444C72.8753 75.3167 72.4197 77.5933 71.2819 79.9833C70.1442 82.3733 60.5886 90.5556 60.5886 90.5556C60.5886 90.5556 59.1186 90.57 58.5119 90.3433C57.8597 90.0978 57.623 89.78 57.623 89.78C57.623 89.78 68.2142 68.7067 71.743 67.5689Z" fill="#0C4055"/>
<path d="M83.3161 54.1178C86.3161 56.1955 92.4161 60.4989 92.4495 60.4733C92.4495 60.4733 94.7039 61.5522 96.0272 60.5667C98.2339 58.9255 99.5195 54.3844 95.6817 50.3444C93.7672 48.3311 92.3828 47.8167 92.2572 44.6778C92.1895 42.9744 90.3861 37.3144 87.1128 37.7478C86.8395 37.7833 85.1617 37.8322 84.0406 38.4889C81.185 40.1644 78.7483 53.2222 83.3161 54.1178Z" fill="#0C4055"/>
<path d="M86.1384 52.0911C86.1239 52.1011 87.835 52.6855 88.9795 52.1789C90.0562 51.7033 90.8684 49.9322 90.8562 49.9311C90.3662 49.9078 89.8284 49.48 89.4117 46.67L89.2039 46.7455L85.6973 48.0066C85.6973 48.0066 85.9506 49.1322 86.115 50.2033C86.2562 51.1033 86.3306 51.9644 86.1384 52.0911Z" fill="white"/>
<path d="M85.6992 48.0067C85.6992 48.0067 85.9526 49.1322 86.117 50.2033C88.1314 49.8411 88.9214 47.8344 89.2059 46.7455L85.6992 48.0067Z" fill="#EFEFD8"/>
<path d="M85.1973 49.07C85.1973 49.07 90.2462 48.3711 89.7751 45.13C89.3039 41.8889 89.6384 39.6167 86.3939 39.9255C83.1495 40.2344 82.7051 41.5689 82.6084 42.69C82.5117 43.8111 83.8706 49.1689 85.1973 49.07Z" fill="white"/>
<path d="M82.791 40.2078C82.791 40.2078 86.0232 42.9922 88.2221 43.2222C90.421 43.4522 91.2532 42.7411 91.2532 42.7411C90.3754 41.9556 89.6686 40.998 89.1766 39.9278C89.0646 39.6761 88.8874 39.459 88.6633 39.2988C88.4393 39.1386 88.1765 39.0412 87.9021 39.0167C86.3321 38.8767 83.3566 38.8156 82.791 40.2078Z" fill="#0C4055"/>
<path d="M84.8416 41.0289C84.8416 41.0289 83.7605 42.0744 83.4194 42.8489C83.086 43.5978 82.9927 45.3878 83.2538 46.0989C83.2538 46.0989 81.5694 42.8222 82.5227 41.2311C83.5349 39.5433 84.8416 41.0289 84.8416 41.0289Z" fill="#0C4055"/>
<path d="M82.0986 59.1589C82.2441 68.8711 82.1386 66.8411 83.2008 67.7633C83.4575 67.9856 84.1763 68.1178 85.1241 68.18C88.1019 68.3778 93.3363 67.8867 93.5364 67.3367C94.223 65.4322 93.7375 64.8411 94.3141 61.9256C94.3741 61.6156 94.4475 61.28 94.5364 60.9144C95.0141 58.9144 95.4786 58.23 93.783 55.0133C92.2463 52.1 90.6497 49.7344 90.5052 49.82C86.4497 52.2278 86.1219 50.2044 86.1219 50.2044C86.1219 50.2044 82.0275 54.4222 82.0986 59.1589Z" fill="#1A7FAA"/>
<path d="M71.7031 84.2011L74.8209 92.5922C75.3775 92.6344 75.9372 92.5845 76.4776 92.4445C77.2231 92.2289 78.0798 91.6667 78.0798 91.6667C78.0798 91.6667 77.2131 82.6567 75.5987 77.4856L71.7031 84.2011Z" fill="#0C4055"/>
<path d="M86.1162 50.2033C86.1162 50.2033 81.9428 50.9111 81.4495 52.7078C80.9562 54.5045 78.0762 65.0678 78.0762 65.0678C78.0762 65.0678 80.1973 65.4489 81.1773 64.4689C82.1573 63.4889 84.5884 55.3756 84.5884 55.3756L86.1162 50.2033Z" fill="#1A7FAA"/>
<path d="M85.123 68.18C88.1008 68.3778 93.3353 67.8867 93.5353 67.3367C94.2219 65.4322 93.7364 64.8411 94.313 61.9256L92.8764 57.8811C92.8764 57.8811 93.1142 62.3844 91.7864 63.5689C90.4586 64.7533 86.3475 65.8567 85.7019 66.8455C85.4212 67.2469 85.2243 67.7008 85.123 68.18Z" fill="#1C7097"/>
<path d="M88.536 66.2855C88.536 66.2855 85.5971 65.6311 85.1238 65.8922C84.6504 66.1533 83.4904 67.1022 83.346 67.4333C83.2015 67.7644 84.4015 67.1822 84.7904 67.0778C85.0438 67.01 85.7093 67.2411 86.0382 67.35C87.4249 67.8133 88.2749 67.5722 88.2749 67.5722L88.536 66.2855Z" fill="white"/>
<path d="M90.5004 49.8178C90.5004 49.8178 94.446 50.0611 95.8115 51.9656C97.7338 54.6467 101.547 66.0767 99.3615 67.5978C96.9004 69.3133 88.1604 68.0422 88.1604 68.0422C88.1604 68.0422 87.8693 66.6822 88.2715 66.0244C88.6738 65.3667 95.2526 64.3044 95.556 64.0011C95.8593 63.6978 91.7626 58.0822 91.7626 57.1722C91.7626 56.2622 90.5004 49.8178 90.5004 49.8178Z" fill="#1A7FAA"/>
<path d="M84.9812 66.71C84.9812 66.71 84.3656 67.5033 84.1634 67.5989C84.0614 67.654 83.9457 67.6787 83.8301 67.67L84.2456 66.9233L84.9812 66.71Z" fill="white"/>
<path d="M85.124 65.8889L83.334 66.7578C83.3695 66.8005 83.4156 66.8331 83.4676 66.8526C83.5196 66.8721 83.5758 66.8777 83.6306 66.8689C83.8529 66.8589 84.4084 66.6556 84.4084 66.6556L85.124 65.8889Z" fill="white"/>
<path d="M84.1628 68.8156H70.005L65.7461 58.2245H79.8828L84.1628 68.8156Z" fill="#917F50"/>
<path d="M69.8398 68.4022H88.5354V68.8156H70.0054L69.8398 68.4022Z" fill="#917F50"/>
<path d="M73.5795 63.52C73.4684 63.1478 73.6906 62.8456 74.0606 62.8456C74.2565 62.8566 74.4443 62.9271 74.5992 63.0476C74.754 63.168 74.8684 63.3328 74.9273 63.52C75.0384 63.8922 74.8162 64.1933 74.4462 64.1933C74.2504 64.1825 74.0625 64.1123 73.9077 63.992C73.7529 63.8717 73.6384 63.707 73.5795 63.52Z" fill="white"/>
<path d="M88.4646 102.519H88.5057C88.5651 102.517 88.6235 102.504 88.6776 102.479C88.7317 102.455 88.7803 102.42 88.8206 102.376C88.8609 102.333 88.892 102.281 88.9122 102.226C88.9323 102.17 88.9411 102.11 88.938 102.051L88.2835 71.9867L86.3535 71.7489L87.9991 102.053C88.0027 102.176 88.0529 102.292 88.1395 102.379C88.226 102.465 88.3423 102.515 88.4646 102.519Z" fill="#99D1E9"/>
<path d="M17.6317 72.5389L91.375 72.5389C91.5487 72.5389 91.6895 72.3981 91.6895 72.2244V69.2255C91.6895 69.0519 91.5487 68.9111 91.375 68.9111L17.6317 68.9111C17.458 68.9111 17.3172 69.0519 17.3172 69.2255V72.2244C17.3172 72.3981 17.458 72.5389 17.6317 72.5389Z" fill="#99D1E9"/>
<path d="M84.4453 44.1767C84.4476 44.2467 84.4771 44.3131 84.5275 44.3619C84.5779 44.4106 84.6452 44.4378 84.7153 44.4378C84.7496 44.439 84.7838 44.4333 84.8159 44.4211C84.848 44.4089 84.8773 44.3904 84.9022 44.3667C84.927 44.343 84.9469 44.3145 84.9606 44.2831C84.9743 44.2516 84.9816 44.2177 84.982 44.1833C84.98 44.1135 84.9507 44.0472 84.9005 43.9986C84.8502 43.95 84.783 43.923 84.7131 43.9233C84.6788 43.9222 84.6446 43.9278 84.6126 43.9399C84.5805 43.9521 84.5511 43.9704 84.5262 43.994C84.5013 44.0176 84.4813 44.0459 84.4674 44.0772C84.4536 44.1086 84.446 44.1424 84.4453 44.1767Z" fill="#263238"/>
<path d="M87.0391 44.1767C87.0411 44.2468 87.0705 44.3134 87.1209 44.3622C87.1714 44.411 87.2389 44.4381 87.3091 44.4378C87.3433 44.4388 87.3775 44.433 87.4095 44.4207C87.4415 44.4085 87.4708 44.39 87.4956 44.3663C87.5204 44.3426 87.5403 44.3143 87.554 44.2828C87.5678 44.2514 87.5752 44.2176 87.5757 44.1833C87.5731 44.1135 87.5436 44.0473 87.4932 43.9988C87.4428 43.9503 87.3756 43.9233 87.3057 43.9233C87.2715 43.922 87.2373 43.9275 87.2052 43.9396C87.1731 43.9517 87.1438 43.9701 87.1189 43.9937C87.0941 44.0173 87.0742 44.0457 87.0605 44.0771C87.0468 44.1085 87.0395 44.1424 87.0391 44.1767Z" fill="#263238"/>
<path d="M85.8192 46.0056C85.7012 45.9732 85.5794 45.9564 85.457 45.9556C85.4003 45.9556 85.3459 45.9434 85.3348 45.9045C85.3281 45.8463 85.339 45.7875 85.3659 45.7356C85.4137 45.5967 85.4626 45.4511 85.5148 45.2978C85.7226 44.6756 85.8692 44.1645 85.8481 44.1556C85.827 44.1467 85.6348 44.6456 85.427 45.2667C85.3781 45.42 85.3303 45.5667 85.2848 45.7111C85.2522 45.7806 85.2452 45.8592 85.2648 45.9334C85.2738 45.9529 85.2873 45.97 85.304 45.9835C85.3208 45.997 85.3404 46.0065 85.3614 46.0111C85.3931 46.0184 85.4256 46.0218 85.4581 46.0211C85.5787 46.0305 85.6999 46.0252 85.8192 46.0056Z" fill="#263238"/>
<path d="M86.7114 46.6533C86.6692 46.6533 86.6681 46.9311 86.427 47.1289C86.1859 47.3267 85.887 47.2956 85.8848 47.3345C85.8848 47.3522 85.9503 47.3889 86.077 47.3933C86.2413 47.3963 86.4015 47.3412 86.5292 47.2378C86.6525 47.1389 86.7322 46.9958 86.7514 46.8389C86.7614 46.7211 86.7303 46.6511 86.7114 46.6533Z" fill="#263238"/>
</svg>
