<svg width="80" height="26" viewBox="0 0 80 26" fill="none" xmlns="http://www.w3.org/2000/svg">
<path d="M13.1174 20.9789C13.1174 20.9789 13.5466 21.3751 13.4641 21.6062C13.2825 22.1343 12.4572 22.3654 11.9125 22.2334C11.0542 22.0023 10.2784 21.0119 10.2784 20.1371C10.2949 18.8332 11.6154 17.7768 12.7213 17.1001C13.8602 16.3903 15.2962 16.1922 16.6332 16.2252C18.0857 16.2417 19.6538 16.5223 20.8587 17.3146C21.5354 17.7603 22.0966 18.4535 22.3607 19.2293C22.5093 19.6585 22.3607 20.6158 22.3607 20.6158C22.3607 20.6158 23.5656 18.9652 23.9948 18.0409C24.5065 16.9515 25.2657 15.7961 25.1172 14.5912C25.0512 14.0465 24.688 13.5018 24.2424 13.1882C22.8064 12.1483 20.8422 11.9667 19.0761 11.9007C17.2439 11.8347 15.3787 12.2308 13.6456 12.8746C12.4737 13.3037 11.3183 13.9309 10.4105 14.7892C9.38712 15.7631 8.41327 16.935 8.06665 18.305C7.83557 19.1963 7.88508 20.2197 8.31424 21.0284C8.69387 21.7547 9.46965 22.2829 10.2289 22.5965C10.9717 22.8936 11.8795 23.0257 12.6388 22.7781C13.1505 22.613 13.8437 22.2829 13.8602 21.7382C13.9262 20.9459 13.1174 20.9789 13.1174 20.9789Z" fill="#C7E7F4"/>
<path d="M12.8201 21.7218C12.8201 21.7218 12.2094 21.6063 12.0608 21.3752C11.8298 21.0451 11.8463 20.5829 12.0774 20.2528C12.4405 19.7081 13.2328 19.4935 13.893 19.477C14.9989 19.4275 16.3689 19.6751 17.0621 20.5499C17.6398 21.2762 17.7554 22.4976 17.3427 23.3229C16.9136 24.1482 15.8242 24.4783 14.9329 24.7424C13.5299 25.155 12.0113 25.188 10.5588 24.957C9.07329 24.7259 7.62077 24.1482 6.33331 23.3559C4.91381 22.4976 3.60985 21.3587 2.636 20.0217C1.57963 18.5857 0.803853 16.9021 0.440724 15.1525C0.110607 13.5844 0.160125 11.9008 0.473736 10.3163C0.836865 8.53363 1.54662 6.83353 2.56998 5.31499C3.34575 4.15958 4.38562 3.16923 5.52453 2.36044C6.54789 1.63419 7.71981 1.12251 8.89172 0.726365C9.84906 0.396248 10.8559 0.181672 11.8793 0.115649C13.1337 0.0496252 14.4212 0.198177 15.6426 0.478777C16.666 0.709859 17.6893 1.05648 18.6302 1.55166C19.7361 2.12936 21.6507 3.74694 21.6507 3.74694C21.6507 3.74694 17.7554 3.3673 15.8572 3.71393C13.6124 4.11007 11.4006 4.91885 9.46943 6.09077C8.01691 6.96558 6.74596 8.1705 5.70609 9.50748C4.86429 10.5804 4.20406 11.8018 3.79141 13.0892C3.36226 14.3932 3.14768 15.7962 3.23021 17.1662C3.27973 18.0905 3.52732 19.0314 3.93997 19.8732C4.35261 20.6984 4.94682 21.4577 5.64007 22.0684C6.54789 22.8607 7.58776 23.4714 8.72666 23.8841C9.63449 24.2142 10.6413 24.3297 11.5987 24.3132C12.424 24.2967 13.3153 24.2637 14.0415 23.8841C14.6523 23.5705 15.329 23.0918 15.5271 22.4316C15.6921 21.8869 15.5931 21.1936 15.23 20.7645C14.8668 20.3353 14.2066 20.2363 13.6454 20.2363C13.2328 20.2363 12.7706 20.3518 12.4735 20.6324C12.3084 20.7975 12.2259 20.9956 12.2754 21.2101C12.3414 21.4247 12.8366 21.7218 12.8201 21.7218Z" fill="#135F7F"/>
<path d="M12.6881 21.4416C12.6881 21.4416 12.5726 21.095 12.6716 20.9629C12.8366 20.7648 13.1833 20.6988 13.4309 20.7979C13.7775 20.9299 14.0911 21.326 14.0911 21.7057C14.0911 22.1844 13.6784 22.6465 13.2493 22.8611C12.325 23.3398 11.1035 23.2077 10.1132 22.8611C9.27138 22.5805 8.44609 22.0028 8.01694 21.227C7.37321 20.1046 7.22465 18.6521 7.52176 17.3977C7.81886 16.1102 8.7762 15.0373 9.68403 14.113C10.6744 13.1061 11.8628 12.2478 13.1668 11.7031C14.6523 11.0759 16.3194 10.9109 17.937 10.7953C19.3234 10.6963 20.7429 10.7293 22.1129 10.9769C22.9712 11.1419 23.846 11.373 24.5888 11.8187C24.8859 12.0002 25.3481 12.5119 25.3481 12.5119C25.3481 12.5119 25.15 9.87098 24.7374 8.61654C24.3907 7.52715 24.0276 6.35524 23.2023 5.57946C22.6246 5.01826 21.7993 4.75417 21.007 4.57261C19.5215 4.25899 17.937 4.32502 16.4349 4.60562C14.6853 4.91923 12.9852 5.61247 11.4171 6.45427C9.94812 7.24655 8.56163 8.23691 7.37321 9.40882C6.39936 10.3662 5.49154 11.4555 4.93034 12.6935C4.36914 13.9479 4.07204 15.3674 4.08854 16.7374C4.08854 17.8433 4.31962 18.9822 4.8148 19.9726C5.27696 20.8969 6.00322 21.6892 6.7955 22.3494C7.48875 22.9271 8.29754 23.3728 9.13933 23.6699C9.93161 23.9505 10.8064 24.099 11.6482 24.0495C12.6386 24 13.761 23.9175 14.5202 23.2737C14.9659 22.8941 15.2795 22.2669 15.23 21.6892C15.197 21.293 14.9164 20.8804 14.5698 20.6658C14.1901 20.4347 13.6784 20.2862 13.2493 20.4017C12.8532 20.5008 12.523 20.7153 12.4735 21.0454C12.4075 21.227 12.7046 21.4416 12.6881 21.4416Z" fill="#99D2EB"/>
<path fill-rule="evenodd" clip-rule="evenodd" d="M40.4341 8.9462C39.4768 9.19379 39.0146 9.44138 38.5029 10.0356C37.8592 10.7784 37.5951 11.6036 37.6446 12.8251C37.6777 13.6834 37.7272 13.898 38.0408 14.5252C38.4039 15.2679 38.8661 15.7466 39.5428 16.0437C39.6584 16.0932 39.8069 16.1593 39.8729 16.1923C39.939 16.2253 40.0875 16.2583 40.203 16.2583C40.3186 16.2583 40.4341 16.2913 40.4506 16.3243C40.4671 16.3573 40.8138 16.3903 41.2099 16.3903C41.6226 16.3903 41.9527 16.3573 41.9692 16.3243C41.9857 16.2913 42.1342 16.2583 42.2828 16.2583C42.4313 16.2583 42.5634 16.2253 42.5964 16.1923C42.6129 16.1593 42.6789 16.1262 42.7449 16.1262C42.9595 16.1262 43.6033 15.7466 43.9334 15.4165C44.3295 15.0369 44.5606 14.6572 44.7752 14.03C45.0393 13.2872 44.9897 11.323 44.6926 10.9764C44.6596 10.9434 44.6431 10.8609 44.6266 10.8114C44.6266 10.6133 43.9334 9.788 43.5702 9.55692C42.7284 8.97921 41.3254 8.71512 40.4341 8.9462ZM75.3275 8.9462C74.4032 9.17729 73.9245 9.42487 73.4128 10.0026C72.7856 10.6958 72.538 11.4551 72.5215 12.627C72.5215 13.7824 72.8186 14.6242 73.5119 15.3505C73.809 15.6806 74.4527 16.1097 74.6343 16.1097C74.6838 16.1097 74.7498 16.1428 74.7828 16.1758C74.7993 16.2088 74.9314 16.2418 75.0634 16.2418C75.1955 16.2418 75.311 16.2748 75.344 16.3078C75.3605 16.3408 75.7071 16.3738 76.1033 16.3738C76.5159 16.3738 76.846 16.3408 76.8625 16.3078C76.8791 16.2748 77.0276 16.2418 77.1762 16.2418C77.3247 16.2418 77.4568 16.2088 77.4898 16.1758C77.5063 16.1428 77.5888 16.1097 77.6713 16.1097C78.051 16.1097 79.0413 15.3175 79.3714 14.7398C79.619 14.2941 79.8171 13.6834 79.8171 13.3698C79.8171 13.2212 79.8501 13.0562 79.8996 13.0231C80.0482 12.8746 79.7841 11.059 79.6025 10.9599C79.5695 10.9434 79.5365 10.8774 79.5365 10.8114C79.5365 10.5968 78.9258 9.85403 78.5296 9.57343C78.0675 9.24331 77.6383 9.09476 76.9121 8.9462C76.2518 8.81416 75.8722 8.81416 75.3275 8.9462ZM30.9433 9.06174C30.9268 9.11126 30.9103 10.7453 30.9268 12.6765L30.9433 16.2088L32.0822 16.2418V14.2611L32.6599 13.5843C32.9735 13.2212 33.2541 12.9076 33.2706 12.9076C33.2871 12.9076 33.4852 13.1222 33.6832 13.4028C33.8813 13.6834 34.0959 13.9475 34.1454 14.0135C34.1949 14.063 34.5746 14.5912 35.0037 15.1689L35.7795 16.2253H36.3902C36.9184 16.2253 37.0009 16.2088 36.9679 16.1097C36.9514 16.0437 36.6708 15.6476 36.3572 15.2184C36.0436 14.7893 35.6144 14.2281 35.4329 13.964C35.2348 13.6999 34.8552 13.1882 34.5911 12.8251C34.327 12.4619 34.0959 12.1483 34.0959 12.1153C34.0959 12.0823 34.3765 11.7357 34.7396 11.3065C35.0862 10.8939 35.6474 10.2337 35.961 9.83752C36.2747 9.44138 36.5718 9.12777 36.6048 9.12777C36.6378 9.12777 36.6708 9.07825 36.6708 9.02873C36.6708 8.9462 36.5553 8.9297 36.0601 8.9297H35.4494L35.1027 9.37535C34.9047 9.62294 34.6901 9.88704 34.5911 9.98607C34.5085 10.0851 34.1784 10.4647 33.8813 10.8279C33.5842 11.2075 33.1716 11.7027 32.957 11.9338C32.7589 12.1648 32.5278 12.4619 32.4453 12.5775C32.1317 13.0231 32.1152 12.9406 32.1152 10.9104C32.1152 9.24331 32.0987 9.01222 31.9996 8.96271C31.7686 8.9297 30.9763 8.96271 30.9433 9.06174ZM47.218 9.06174C47.2015 9.11126 47.1685 9.24331 47.152 9.35885C47.1355 9.47439 47.0695 9.68897 47.0365 9.83752C47.0035 9.98607 46.9374 10.2502 46.9044 10.4152C46.8714 10.5803 46.8054 10.8444 46.7724 11.0094C46.7394 11.1745 46.6733 11.4221 46.6403 11.5871C46.6073 11.7357 46.5083 12.1648 46.4258 12.528C46.3432 12.8911 46.2277 13.4028 46.1782 13.6669C46.1121 13.931 46.0461 14.2776 46.0131 14.4261C45.9306 14.8388 45.6665 15.9282 45.617 16.1097C45.5674 16.2583 45.584 16.2583 46.1286 16.2583C46.6568 16.2583 46.6898 16.2418 46.7229 16.1097C46.8219 15.6476 46.8384 15.5155 46.9044 15.2679C46.9374 15.1194 47.0035 14.8388 47.0365 14.6407C47.0695 14.4427 47.1355 14.1621 47.1685 14.0135C47.2015 13.8649 47.3171 13.3368 47.4161 12.8416C47.5977 11.9173 47.6967 11.6367 47.7957 11.7357C47.8288 11.7687 47.9278 11.9998 48.0268 12.2474C48.2744 12.8746 48.621 13.7164 48.6871 13.8815C48.7201 13.964 48.8191 14.1621 48.9016 14.3436C48.9842 14.5252 49.0502 14.6902 49.0502 14.7067C49.0502 14.7233 49.1162 14.8883 49.1822 15.0534C49.3143 15.367 49.4958 15.7466 49.6774 16.1758C49.859 16.5884 49.958 16.4894 50.2881 15.6311C50.4202 15.301 50.5357 15.0204 50.5687 14.9708C50.6017 14.9378 50.6347 14.8718 50.6347 14.8223C50.6347 14.7728 50.7173 14.5417 50.8328 14.2941C50.9484 14.063 51.0639 13.7494 51.1134 13.6174C51.1629 13.4853 51.229 13.3533 51.262 13.3037C51.295 13.2542 51.328 13.2047 51.328 13.1552C51.328 13.1057 51.394 12.9241 51.46 12.7756C51.5261 12.6105 51.6581 12.2969 51.7571 12.0823C51.8397 11.8677 51.9387 11.6862 51.9717 11.6862C52.0377 11.6862 52.1038 11.8677 52.1863 12.2804C52.2193 12.4785 52.2853 12.7425 52.3183 12.8746C52.3514 13.0066 52.4999 13.6999 52.665 14.3931C52.83 15.1029 52.9786 15.8126 53.0281 15.9612L53.1106 16.2583H53.6058C53.8864 16.2583 54.1175 16.2418 54.134 16.2253C54.1505 16.2088 54.035 15.6476 53.8699 15.0039C53.7048 14.3436 53.5398 13.6834 53.5068 13.5513C53.4738 13.4028 53.4077 13.1717 53.3747 13.0397C53.3417 12.8911 53.2757 12.6435 53.2262 12.462C53.1766 12.2969 53.1271 12.0328 53.0776 11.8677C53.0446 11.7192 52.9786 11.4716 52.9456 11.3065C52.9126 11.158 52.8465 10.9269 52.8135 10.7949C52.7475 10.5638 52.698 10.3327 52.5494 9.70547C52.4009 9.06174 52.3679 9.02873 52.1368 9.01223C51.8892 8.99572 51.9057 8.96271 51.4931 10.0686C51.4105 10.2997 51.3115 10.5473 51.2785 10.6298C51.2455 10.7123 51.1794 10.8774 51.1464 11.0094C51.0969 11.1415 51.0309 11.323 50.9979 11.4221C50.9319 11.5871 50.8493 11.7687 50.7338 12.0823C50.7008 12.1648 50.6182 12.4124 50.5357 12.6435C50.4037 13.0562 50.2221 13.5348 50.1066 13.8154C50.0735 13.898 50.024 14.0135 50.0075 14.0795C49.925 14.3601 49.7599 14.1125 49.4133 13.1882C49.3308 12.9901 49.2317 12.7425 49.0667 12.3794C48.9842 12.1979 48.9181 12.0163 48.9181 11.9668C48.9181 11.9173 48.8851 11.8512 48.8521 11.8182C48.8191 11.7852 48.5715 11.1745 48.2909 10.4647C48.0103 9.75499 47.7627 9.14427 47.7132 9.09475C47.6802 9.04524 47.5482 9.01223 47.4491 9.01223C47.3336 8.96271 47.2345 9.01223 47.218 9.06174ZM55.3719 9.01223C55.3059 9.04524 55.2894 9.83752 55.2894 12.6435V16.2418L56.4283 16.2088V8.99572L55.9496 8.97921C55.669 8.97921 55.4214 8.99572 55.3719 9.01223ZM58.6566 9.01223C58.6236 9.04524 58.6071 10.6793 58.6071 12.6435V16.2418H59.6469V13.6834C59.6469 12.2804 59.68 11.125 59.713 11.125C59.746 11.125 59.878 11.2405 60.0101 11.3891C60.7693 12.2309 60.5713 12.0163 62.5355 14.3106C64.3016 16.3738 64.3181 16.3903 64.4667 16.3738C64.5987 16.3573 64.5987 16.3078 64.5987 12.6765V9.01223H63.5588L63.4928 13.997L63.3112 13.8319C63.2122 13.7329 62.8821 13.3863 62.585 13.0397C62.2879 12.693 61.9743 12.3464 61.8917 12.2804C61.8092 12.1979 61.5946 11.9503 61.4131 11.7357C61.215 11.5046 61.0004 11.2735 60.9179 11.191C60.8354 11.1085 60.3897 10.6133 59.911 10.0686C59.4489 9.54041 59.0197 9.07825 58.9867 9.04524C58.9042 8.96271 58.7226 8.96271 58.6566 9.01223ZM66.5464 9.01223C66.5134 9.04524 66.4969 10.6793 66.4969 12.66V16.2583L67.6358 16.2253L67.6688 12.7921L70.7554 12.7591L70.8049 11.9668H67.6853V10.9764C67.6853 10.1346 67.7018 9.96957 67.8008 9.93655C67.8669 9.92005 68.8077 9.88704 69.9136 9.88704H71.9273L71.8943 9.02873L69.2534 9.01223C67.7843 8.97921 66.5794 8.99572 66.5464 9.01223ZM42.1838 9.88704C42.6789 10.0851 42.7945 10.1676 43.0421 10.3987C43.5867 10.9764 43.7518 11.5376 43.7023 12.7425C43.6693 13.7164 43.5372 14.1455 43.1246 14.6407C42.6129 15.2514 42.1177 15.4825 41.2429 15.4825C40.4671 15.4825 40.0215 15.3175 39.5923 14.8553C39.0972 14.2941 38.8661 13.6834 38.8331 12.7921C38.767 11.0755 39.4108 10.0191 40.6322 9.80451C40.9788 9.72198 41.9527 9.788 42.1838 9.88704ZM77.0936 9.88704C77.8034 10.1511 78.249 10.5968 78.4636 11.3065C78.6782 11.9833 78.6782 13.1717 78.4636 13.8154C78.1005 14.9213 77.3247 15.4825 76.1363 15.4825C75.3605 15.4825 74.9149 15.3175 74.4857 14.8553C74.3206 14.6572 74.1226 14.4096 74.0731 14.2941C73.4623 12.9571 73.6109 11.2735 74.4032 10.3822C74.6343 10.1181 75.1294 9.87053 75.5586 9.788C75.8557 9.72198 76.8295 9.80451 77.0936 9.88704Z" fill="white"/>
</svg>
