<svg width="34" height="34" viewBox="0 0 34 34" fill="none" xmlns="http://www.w3.org/2000/svg">
<rect x="1.39941" y="1" width="32" height="32" rx="16" stroke="white"/>
<path fill-rule="evenodd" clip-rule="evenodd" d="M13.5228 13.5429V22.981H10.38V13.5429H13.5228ZM13.723 10.6286C13.7294 11.0921 13.5691 11.4794 13.2421 11.7905C12.9151 12.1016 12.4849 12.2571 11.9516 12.2571H11.9326C11.4119 12.2571 10.9929 12.1016 10.6754 11.7905C10.3579 11.4794 10.1992 11.0921 10.1992 10.6286C10.1992 10.1587 10.3627 9.76984 10.6897 9.4619C11.0167 9.15397 11.4437 9 11.9706 9C12.4976 9 12.9199 9.15397 13.2373 9.4619C13.5548 9.76984 13.7167 10.1587 13.723 10.6286ZM18.3895 14.8841C18.5104 14.6934 18.6342 14.5257 18.7609 14.381C18.8942 14.2286 19.0736 14.0635 19.299 13.8857C19.5244 13.708 19.8006 13.5699 20.1276 13.4714C20.4546 13.373 20.8181 13.3238 21.2181 13.3238C22.3038 13.3238 23.1768 13.6841 23.8371 14.4048C24.4974 15.1254 24.8276 16.181 24.8276 17.5714V22.981H21.6942V17.9334C21.6942 17.2667 21.5657 16.7445 21.3085 16.3667C21.0514 15.9889 20.6498 15.8 20.1038 15.8C19.7038 15.8 19.3689 15.9095 19.099 16.1286C18.8292 16.3476 18.6276 16.6191 18.4942 16.9429C18.4244 17.1334 18.3895 17.3905 18.3895 17.7143V22.981H15.2562C15.2689 20.4476 15.2752 18.3937 15.2752 16.8191C15.2752 15.2445 15.272 14.3048 15.2657 14L15.2562 13.5429H18.3895V14.8841Z" fill="white"/>
</svg>
