<svg width="130" height="131" viewBox="0 0 130 131" fill="none" xmlns="http://www.w3.org/2000/svg">
<path opacity="0.1" d="M117.834 109.487L16.0594 109.435C16.0594 109.435 -1.14033 77.6574 8.03189 56.4C17.2041 35.1426 30.6025 50.148 31.7196 34.7887C31.7581 34.2687 31.728 33.7547 31.728 33.2516C31.728 33.1312 31.728 33.0109 31.728 32.8965C32.0723 24.0758 36.3647 18.375 42.0305 15.0949C42.2135 14.989 42.3976 14.8855 42.583 14.7844C51.6168 9.87567 63.832 10.8856 69.2402 15.107C78.4413 22.2871 78.3884 30.9309 97.3828 28.0793C116.377 25.2277 120.009 49.0695 115.065 61.216C108.048 78.4507 134.525 75.6208 117.834 109.487Z" fill="#196181"/>
<path d="M64.4001 124.585C96.2906 124.585 122.143 118.998 122.143 112.106C122.143 105.214 96.2906 99.6274 64.4001 99.6274C32.5096 99.6274 6.65723 105.214 6.65723 112.106C6.65723 118.998 32.5096 124.585 64.4001 124.585Z" fill="#E5F2FC"/>
<path d="M35.4224 52.8671C37.8276 52.8671 39.7774 50.9173 39.7774 48.5121C39.7774 46.1069 37.8276 44.1571 35.4224 44.1571C33.0172 44.1571 31.0674 46.1069 31.0674 48.5121C31.0674 50.9173 33.0172 52.8671 35.4224 52.8671Z" fill="#C6E4F1"/>
<path d="M35.571 50.5428C35.3796 50.6028 35.173 50.5926 34.9884 50.5139C34.9523 50.4995 34.9174 50.4814 34.8825 50.4633L33.5042 49.7098C33.4192 49.6661 33.3498 49.5972 33.3056 49.5124C33.278 49.4592 33.2631 49.4004 33.2618 49.3405C33.2606 49.2806 33.2731 49.2212 33.2984 49.167C33.3197 49.1147 33.3516 49.0676 33.3921 49.0284C33.4327 48.9893 33.481 48.9591 33.5339 48.9397C33.5869 48.9203 33.6433 48.9122 33.6995 48.9159C33.7557 48.9196 33.8106 48.935 33.8605 48.9611C33.9725 49.0189 34.0832 49.0815 34.1928 49.1405L35.2183 49.7026C35.3098 49.7532 35.3134 49.752 35.3483 49.6581C35.7696 48.5242 36.1905 47.3899 36.611 46.2552C36.6473 46.1471 36.7223 46.0562 36.8216 46C36.8734 45.9733 36.9303 45.9577 36.9885 45.9544C37.0466 45.9511 37.1049 45.96 37.1594 45.9807C37.2139 46.0014 37.2634 46.0333 37.3048 46.0743C37.3461 46.1154 37.3784 46.1647 37.3994 46.2191C37.4362 46.3231 37.4337 46.437 37.3922 46.5393L37.0744 47.4011C36.747 48.2838 36.42 49.1625 36.0934 50.0372C36.0213 50.2396 35.8726 50.4056 35.6793 50.4995C35.6372 50.5199 35.5927 50.5332 35.571 50.5428Z" fill="#1E7EAA"/>
<path d="M40.8164 42.2685C40.7877 42.167 40.7519 42.0677 40.7093 41.9712C40.6345 41.7945 40.5247 41.6349 40.3865 41.5019C40.2483 41.3688 40.0846 41.2652 39.9052 41.1972C39.6145 41.0863 39.2947 41.0782 38.9988 41.1743C38.8592 41.2141 38.7232 41.261 38.5823 41.2947C38.5224 41.3137 38.4591 41.3195 38.3967 41.3116C38.3343 41.3038 38.2744 41.2826 38.221 41.2495C38.1676 41.2163 38.122 41.172 38.0873 41.1195C38.0527 41.0671 38.0298 41.0078 38.0202 40.9456C37.8286 40.0831 37.5162 39.252 37.0921 38.4768C36.7865 37.9129 36.3835 37.4076 35.9017 36.9843C35.5502 36.669 35.1385 36.4282 34.6915 36.2764C34.2444 36.1245 33.7712 36.0648 33.3005 36.1007C32.5303 36.1521 31.782 36.3781 31.1121 36.7616C30.4991 37.0991 30.0002 37.611 29.6785 38.2325C29.3934 38.794 29.2294 39.4091 29.197 40.0381C29.1487 40.9476 29.2525 41.8589 29.504 42.7343C29.563 42.9534 29.634 43.1689 29.7086 43.3831C29.7337 43.4437 29.7451 43.509 29.7417 43.5745C29.7384 43.6399 29.7205 43.7038 29.6894 43.7614C29.6583 43.8191 29.6147 43.8691 29.5618 43.9078C29.5089 43.9464 29.448 43.9728 29.3836 43.985L29.2632 44.0163C28.8628 44.1075 28.5125 44.3487 28.2846 44.6904C28.1674 44.8525 28.0894 45.0396 28.0566 45.2369C28.0238 45.4343 28.0372 45.6365 28.0957 45.8279C28.2509 46.3635 28.405 46.9004 28.5615 47.4372L30.4465 53.8554C30.4649 53.9271 30.4882 53.9975 30.5163 54.066C30.6564 54.3945 30.9124 54.66 31.2356 54.8118C31.5588 54.9637 31.9266 54.9913 32.2689 54.8893L32.967 54.6859L37.239 53.4341C38.9025 52.9454 40.5684 52.4639 42.2295 51.9668C42.4802 51.8983 42.7051 51.7575 42.8763 51.5621C43.0476 51.3667 43.1575 51.1252 43.1925 50.8678C43.2286 50.6195 43.2055 50.3663 43.1251 50.1287C42.3547 47.5102 41.5852 44.8902 40.8164 42.2685ZM30.1757 41.7606C30.1028 41.3209 30.0654 40.8761 30.0637 40.4305C30.0786 39.9655 30.1597 39.5051 30.3045 39.0631C30.5103 38.3866 31.3035 38.0038 31.9451 37.7029C32.3158 37.5295 32.7456 37.5921 33.156 37.5608C33.4513 37.5349 33.7488 37.5707 34.0296 37.6658C34.3103 37.7609 34.5683 37.9133 34.787 38.1133C35.1366 38.4319 35.4279 38.8091 35.6477 39.228C35.9521 39.7884 36.1885 40.3833 36.3519 40.9998C36.3699 41.0636 36.3832 41.1286 36.4048 41.1912C36.4265 41.2538 36.4048 41.2779 36.347 41.2899C36.3201 41.2959 36.2936 41.3035 36.2676 41.3128L33.7157 42.0603L31.5118 42.7067C31.3914 42.7428 31.271 42.7801 31.1507 42.815C31.0026 42.8583 30.479 43.1364 30.4284 43.0028C30.3165 42.679 30.2467 42.094 30.1757 41.7581V41.7606ZM36.4181 52.0017C35.6722 52.2202 34.8782 52.2127 34.1366 51.98C33.3949 51.7474 32.739 51.3 32.2516 50.6946C31.7642 50.0891 31.4672 49.3527 31.3984 48.5785C31.3295 47.8043 31.4917 47.0271 31.8645 46.345C32.2373 45.663 32.804 45.1069 33.4929 44.7469C34.1818 44.3869 34.9619 44.2393 35.7347 44.3227C36.5075 44.4061 37.2382 44.7168 37.8344 45.2155C38.4306 45.7141 38.8656 46.3784 39.0843 47.1243C39.3769 48.1243 39.2604 49.1996 38.7604 50.1137C38.2604 51.0279 37.4179 51.7061 36.4181 51.9993V52.0017Z" fill="#1E7EAA"/>
<path d="M41.0906 42.165C41.0543 42.0373 41.0092 41.9122 40.9558 41.7906C40.7472 41.3046 40.3658 40.9131 39.8853 40.6919C39.4049 40.4707 38.8595 40.4354 38.3546 40.593C38.2474 40.6218 38.2462 40.623 38.2161 40.5135C38.0402 39.857 37.8016 39.2189 37.5035 38.608C37.2062 37.9915 36.8174 37.4234 36.3504 36.9229C35.8449 36.3751 35.2142 35.958 34.5123 35.7071C33.7142 35.4446 32.859 35.4075 32.0411 35.6C31.5171 35.7105 31.0103 35.8906 30.5341 36.1356C29.5369 36.6241 28.7658 37.4775 28.3807 38.519C28.117 39.2435 27.998 40.0128 28.0304 40.7831C28.0545 41.6465 28.1979 42.5025 28.4565 43.3266C28.5035 43.477 28.5022 43.4818 28.353 43.5348C27.954 43.6795 27.6056 43.9372 27.3503 44.2763C26.923 44.8252 26.7701 45.4367 26.9555 46.1143C27.1228 46.7246 27.301 47.3313 27.4779 47.9392C27.7443 48.854 28.0123 49.7684 28.282 50.6824C28.6278 51.8548 28.9737 53.0272 29.3196 54.1996C29.3473 54.3012 29.3815 54.4009 29.4219 54.4981C29.6328 54.9873 30.0157 55.3822 30.4981 55.6083C30.9805 55.8343 31.529 55.8757 32.0399 55.7247C32.2807 55.6513 32.5274 55.5827 32.7718 55.5117L37.0209 54.2658L42.009 52.8033C42.1179 52.7727 42.2238 52.7324 42.3256 52.683C42.5747 52.5627 42.7977 52.3945 42.9818 52.188C43.1658 51.9814 43.3073 51.7406 43.3981 51.4792C43.5539 51.0207 43.5564 50.5239 43.4053 50.0637C42.6349 47.4348 41.8634 44.8019 41.0906 42.165ZM42.7758 51.0002C42.7408 51.2576 42.6308 51.4991 42.4596 51.6945C42.2884 51.8899 42.0634 52.0307 41.8128 52.0992C40.1517 52.5963 38.4858 53.0778 36.8222 53.5665L32.5503 54.8183L31.8522 55.0218C31.5089 55.1257 31.1394 55.0991 30.8146 54.9471C30.4897 54.7952 30.2325 54.5285 30.0923 54.1984C30.0642 54.1299 30.0409 54.0595 30.0225 53.9878C29.3926 51.8484 28.7639 49.7074 28.1363 47.5648C27.9798 47.0292 27.8258 46.4923 27.6705 45.9567C27.6117 45.7654 27.5982 45.563 27.631 45.3656C27.6638 45.1682 27.742 44.9812 27.8595 44.8192C28.0874 44.4775 28.4376 44.2362 28.8381 44.1451L28.9585 44.1138C29.0228 44.1016 29.0837 44.0752 29.1366 44.0366C29.1895 43.9979 29.2331 43.9479 29.2642 43.8902C29.2954 43.8326 29.3133 43.7687 29.3166 43.7033C29.3199 43.6378 29.3086 43.5724 29.2835 43.5119C29.2088 43.2989 29.1378 43.0834 29.0788 42.8643C28.8273 41.9889 28.7236 41.0776 28.7719 40.168C28.8042 39.5391 28.9683 38.924 29.2534 38.3625C29.5762 37.7382 30.0778 37.2244 30.6942 36.8867C31.364 36.5033 32.1124 36.2773 32.8825 36.2259C33.3533 36.1899 33.8265 36.2497 34.2735 36.4015C34.7206 36.5534 35.1323 36.7942 35.4837 37.1094C35.9656 37.5328 36.3686 38.0381 36.6742 38.602C37.0983 39.3772 37.4107 40.2083 37.6022 41.0708C37.6112 41.1327 37.6334 41.1918 37.6673 41.2443C37.7012 41.2968 37.746 41.3415 37.7986 41.3751C37.8512 41.4088 37.9105 41.4308 37.9723 41.4395C38.0342 41.4483 38.0972 41.4437 38.1572 41.4259C38.2968 41.3898 38.434 41.3429 38.5724 41.3055C38.8686 41.2088 39.1891 41.2169 39.48 41.3284C39.6594 41.3964 39.8231 41.5 39.9613 41.633C40.0995 41.7661 40.2093 41.9257 40.2841 42.1024C40.3257 42.1993 40.3615 42.2986 40.3912 42.3997C41.1608 45.023 41.9304 47.6463 42.6999 50.2695C42.7803 50.5042 42.8046 50.7544 42.771 51.0002H42.7758Z" fill="#0A1F27"/>
<path d="M34.7366 37.9063C34.4808 37.6624 34.1784 37.4726 33.8474 37.3485C33.5164 37.2244 33.1638 37.1685 32.8107 37.1841C32.2827 37.2085 31.7663 37.3465 31.2964 37.5885C30.4213 38.0231 29.9194 38.7393 29.7388 39.6878C29.6365 40.2966 29.6365 40.9182 29.7388 41.527C29.7945 41.8898 29.8708 42.2491 29.9675 42.6031C30.0265 42.8306 30.1048 43.0521 30.1818 43.2724C30.2035 43.3532 30.2564 43.422 30.3289 43.4638C30.4013 43.5055 30.4874 43.5168 30.5682 43.4951C30.6028 43.4881 30.6369 43.4793 30.6705 43.4686L31.2194 43.3037L33.4234 42.6573L36.1666 41.852C36.2194 41.8383 36.2709 41.8202 36.3207 41.7979C36.3834 41.7738 36.4362 41.7291 36.4703 41.6712C36.5044 41.6132 36.5178 41.5455 36.5085 41.4789C36.5027 41.4091 36.4915 41.3399 36.4748 41.2719C36.3008 40.5418 36.0376 39.8359 35.6912 39.1702C35.4469 38.6979 35.1241 38.2705 34.7366 37.9063ZM35.9271 41.125C35.9439 41.1888 35.9584 41.2538 35.98 41.3164C36.0017 41.379 35.98 41.4031 35.9223 41.4151C35.8953 41.4209 35.8687 41.4285 35.8428 41.438L33.291 42.1855L31.087 42.8319C30.9666 42.8668 30.8463 42.9053 30.7259 42.9402C30.5778 42.9835 30.6055 42.9883 30.5562 42.8559C30.4469 42.5302 30.3592 42.1977 30.2938 41.8605C30.2128 41.4786 30.1665 41.0903 30.1553 40.7001C30.1359 40.2864 30.1831 39.8723 30.295 39.4735C30.3857 39.1508 30.5463 38.852 30.7653 38.5982C30.9843 38.3444 31.2565 38.1419 31.5625 38.005C31.9289 37.8278 32.3246 37.7189 32.73 37.6836C33.0267 37.6571 33.3256 37.6928 33.6077 37.7883C33.8898 37.8838 34.1488 38.0372 34.3683 38.2385C34.7181 38.5569 35.0094 38.9341 35.2289 39.3531C35.5313 39.9139 35.7657 40.5087 35.9271 41.125Z" fill="#0A1F27"/>
<path d="M34.0851 44.1944C33.2838 44.429 32.5701 44.896 32.0342 45.5362C31.4982 46.1765 31.1642 46.9612 31.0743 47.7913C30.9845 48.6214 31.1427 49.4595 31.5292 50.1996C31.9156 50.9397 32.5129 51.5486 33.2454 51.9493C33.9779 52.35 34.8127 52.5244 35.6444 52.4506C36.4761 52.3768 37.2672 52.058 37.9176 51.5346C38.5681 51.0112 39.0488 50.3066 39.2988 49.51C39.5489 48.7134 39.5571 47.8605 39.3224 47.0592C39.0075 45.9851 38.2789 45.0799 37.2968 44.5427C36.3147 44.0055 35.1595 43.8802 34.0851 44.1944ZM39.0106 48.8407C38.9045 49.5076 38.6219 50.1339 38.1921 50.6547C37.9022 51.0072 37.5521 51.3055 37.1582 51.5358C36.9796 51.6368 36.7923 51.7214 36.5984 51.7886C36.513 51.8187 36.4275 51.8524 36.3384 51.8753C36.0491 51.9643 35.75 52.0172 35.4477 52.033C34.6762 52.0626 33.9136 51.8592 33.2594 51.4492C32.7377 51.1188 32.3016 50.6696 31.987 50.1383C31.8916 49.9733 31.811 49.8001 31.7463 49.6207C31.6683 49.4152 31.6064 49.2039 31.5609 48.9888C31.4748 48.5893 31.4593 48.1779 31.5152 47.773C31.5996 47.1051 31.8601 46.4716 32.2699 45.9374C32.5418 45.5865 32.871 45.2842 33.2437 45.043C33.448 44.9126 33.666 44.8048 33.8937 44.7217C34.0333 44.6689 34.1755 44.6235 34.3198 44.5856C34.8242 44.4461 35.3531 44.4194 35.869 44.5074C36.5144 44.6081 37.123 44.8734 37.636 45.2778C37.9986 45.5687 38.3067 45.9216 38.546 46.3202C38.64 46.4793 38.7206 46.646 38.7868 46.8185C38.8447 46.9695 38.8949 47.1234 38.9372 47.2795C39.0753 47.7863 39.1004 48.3172 39.0106 48.8347V48.8407Z" fill="#0A1F27"/>
<path d="M37.5233 45.7508C37.4924 45.698 37.4515 45.6518 37.4029 45.6148C37.374 45.5919 37.3451 45.5678 37.315 45.5462C37.1799 45.444 37.0136 45.3917 36.8444 45.3981C36.6036 45.4138 36.6217 45.3981 36.387 45.5269C36.2262 45.6166 36.1035 45.7616 36.0415 45.935C35.7346 46.7511 35.4324 47.5696 35.1279 48.3869C35.0508 48.5976 34.9726 48.807 34.8944 49.0176C34.8777 49.0182 34.8615 49.0126 34.8486 49.002C34.5357 48.8311 34.2239 48.6577 33.9085 48.4904C33.7842 48.4136 33.6406 48.374 33.4945 48.3761L33.3404 48.3845C33.2761 48.3884 33.2135 48.407 33.1574 48.4387C33.1261 48.4555 33.0972 48.4748 33.0647 48.4904C32.9302 48.5575 32.8188 48.6631 32.7446 48.7938C32.6768 48.8987 32.6374 49.0194 32.6302 49.144C32.6286 49.2309 32.633 49.3178 32.6434 49.404C32.6477 49.452 32.6625 49.4984 32.6868 49.5401C32.7205 49.6002 32.7542 49.6604 32.7903 49.723C32.8102 49.7618 32.8371 49.7965 32.8697 49.8253C32.9414 49.8916 33.0201 49.9497 33.1045 49.9987L34.4033 50.7088C34.5122 50.7691 34.6262 50.8199 34.7439 50.8605C34.8595 50.9024 34.9822 50.9212 35.105 50.9159L35.2856 50.9063C35.3892 50.9016 35.4909 50.877 35.5853 50.834C35.6527 50.8027 35.7165 50.763 35.7815 50.7269C36.0214 50.5968 36.2045 50.3824 36.2955 50.1251C36.7288 48.9671 37.1605 47.8079 37.5907 46.6476C37.7014 46.3466 37.6773 46.4068 37.6641 46.1011C37.6605 46.0365 37.6415 45.9738 37.6087 45.9181C37.5846 45.8591 37.5558 45.805 37.5233 45.7508ZM37.2175 46.4189C37.1092 46.7077 37.0021 46.9978 36.8949 47.2867L35.9079 49.9349C35.8358 50.1386 35.6867 50.3058 35.4926 50.4007C35.4517 50.42 35.4083 50.4344 35.3855 50.4428C35.1931 50.5041 34.985 50.4943 34.7993 50.4151C34.7632 50.3995 34.7283 50.3814 34.6933 50.3634L33.3067 49.6111C33.2216 49.5669 33.1522 49.4976 33.1081 49.4125C33.0804 49.3589 33.0652 49.2998 33.0637 49.2395C33.0623 49.1792 33.0746 49.1194 33.0996 49.0646C33.1212 49.0122 33.1534 48.9648 33.1942 48.9255C33.2351 48.8862 33.2837 48.8559 33.3369 48.8364C33.3901 48.8169 33.4468 48.8087 33.5034 48.8124C33.5599 48.816 33.6151 48.8314 33.6654 48.8576C33.7785 48.9165 33.8893 48.9779 34 49.0381L35.0304 49.6039C35.1231 49.6544 35.1267 49.6532 35.1616 49.5581C35.5853 48.4178 36.0086 47.2775 36.4315 46.1372C36.4675 46.0276 36.5431 45.9354 36.6434 45.8784C36.6955 45.8517 36.7526 45.8362 36.8111 45.8331C36.8696 45.8299 36.9281 45.839 36.9828 45.8599C37.0375 45.8808 37.0872 45.9129 37.1287 45.9543C37.1701 45.9956 37.2025 46.0452 37.2235 46.0999C37.2601 46.2034 37.258 46.3167 37.2175 46.4189Z" fill="#0A1F27"/>
<path d="M93.299 32.2164H35.5693V111.163H93.299V32.2164Z" fill="#196181"/>
<path d="M83.8637 34.3469H45.0069C41.1538 34.3469 38.0303 37.4705 38.0303 41.3236V102.011C38.0303 105.864 41.1538 108.987 45.0069 108.987H83.8637C87.7168 108.987 90.8404 105.864 90.8404 102.011V41.3236C90.8404 37.4705 87.7168 34.3469 83.8637 34.3469Z" fill="#C6E4F1"/>
<path d="M55.0088 32.2164V34.9055C55.0086 35.2585 55.078 35.608 55.2129 35.9342C55.3479 36.2604 55.5457 36.5568 55.7952 36.8065C56.0447 37.0562 56.3409 37.2543 56.6669 37.3895C56.993 37.5247 57.3425 37.5944 57.6955 37.5946H72.1255C72.4784 37.5944 72.8279 37.5247 73.154 37.3895C73.48 37.2543 73.7762 37.0562 74.0257 36.8065C74.2752 36.5568 74.473 36.2604 74.608 35.9342C74.7429 35.608 74.8123 35.2585 74.8121 34.9055V32.2164H55.0088Z" fill="#1F80A9"/>
<path d="M81.1044 51.8585C81.0054 51.8588 80.9076 51.8374 80.8177 51.7958C80.7279 51.7542 80.6483 51.6934 80.5844 51.6177L77.639 48.0464C77.525 47.9084 77.4705 47.7309 77.4874 47.5528C77.5043 47.3747 77.5913 47.2106 77.7292 47.0966C77.8672 46.9827 78.0447 46.9281 78.2228 46.9451C78.4009 46.962 78.565 47.049 78.679 47.1869L81.0166 50.0144L85.244 42.9126C85.2889 42.8355 85.3486 42.7681 85.4197 42.7142C85.4909 42.6603 85.572 42.6211 85.6583 42.5988C85.7447 42.5764 85.8347 42.5714 85.923 42.5841C86.0113 42.5967 86.0962 42.6267 86.1729 42.6723C86.2495 42.718 86.3164 42.7784 86.3696 42.85C86.4228 42.9216 86.4612 43.0031 86.4827 43.0897C86.5043 43.1762 86.5084 43.2662 86.495 43.3544C86.4815 43.4426 86.4507 43.5273 86.4043 43.6035L81.6858 51.5227C81.6302 51.6154 81.5533 51.6936 81.4614 51.7505C81.3694 51.8075 81.2652 51.8416 81.1574 51.8501L81.1044 51.8585Z" fill="#917F50"/>
<path d="M68.7206 45.6365H47.5029V46.5681H68.7206V45.6365Z" fill="#0A1F27"/>
<path d="M67.0571 49.7988H47.5029V50.7305H67.0571V49.7988Z" fill="#0A1F27"/>
<path d="M61.3347 47.7177H47.5029V48.6493H61.3347V47.7177Z" fill="#0A1F27"/>
<path d="M42.7533 46.4695L41.8036 46.7331L41.6074 45.9796L43.0242 45.527H43.6718V50.8389H42.7533V46.4695Z" fill="#0A1F27"/>
<path d="M44.2783 50.5031C44.2783 50.4366 44.298 50.3717 44.3349 50.3165C44.3718 50.2613 44.4243 50.2182 44.4856 50.1928C44.547 50.1674 44.6145 50.1607 44.6797 50.1737C44.7448 50.1866 44.8047 50.2186 44.8516 50.2656C44.8986 50.3126 44.9306 50.3724 44.9435 50.4376C44.9565 50.5027 44.9498 50.5702 44.9244 50.6316C44.899 50.693 44.856 50.7454 44.8007 50.7823C44.7455 50.8192 44.6806 50.8389 44.6142 50.8389C44.57 50.8391 44.5263 50.8305 44.4854 50.8137C44.4446 50.7968 44.4075 50.7721 44.3763 50.7409C44.3451 50.7097 44.3204 50.6726 44.3036 50.6318C44.2867 50.591 44.2782 50.5472 44.2783 50.5031Z" fill="#0A1F27"/>
<path d="M81.1791 66.1259C81.08 66.1266 80.982 66.1054 80.8921 66.0637C80.8022 66.0221 80.7227 65.9611 80.6591 65.8851L77.7112 62.315C77.6548 62.2467 77.6124 62.1679 77.5864 62.0833C77.5604 61.9986 77.5513 61.9096 77.5597 61.8214C77.5681 61.7332 77.5937 61.6475 77.6352 61.5693C77.6767 61.491 77.7332 61.4217 77.8015 61.3652C77.8698 61.3088 77.9485 61.2664 78.0332 61.2404C78.1179 61.2144 78.2069 61.2053 78.2951 61.2137C78.3832 61.2221 78.4689 61.2477 78.5472 61.2892C78.6255 61.3307 78.6948 61.3872 78.7512 61.4555L81.0888 64.283L85.3174 57.1812C85.3608 57.1012 85.4199 57.0309 85.4912 56.9743C85.5624 56.9178 85.6444 56.8762 85.7321 56.8521C85.8198 56.828 85.9115 56.8219 86.0016 56.8341C86.0918 56.8463 86.1785 56.8767 86.2567 56.9232C86.3348 56.9698 86.4027 57.0317 86.4564 57.1052C86.51 57.1786 86.5482 57.2622 86.5688 57.3508C86.5893 57.4394 86.5917 57.5313 86.5759 57.6209C86.5601 57.7104 86.5263 57.7959 86.4766 57.8721L81.7581 65.7913C81.7029 65.8841 81.6262 65.9624 81.5345 66.0194C81.4427 66.0764 81.3386 66.1104 81.2309 66.1187L81.1791 66.1259Z" fill="#917F50"/>
<path d="M41.5664 64.3806L43.372 62.847C44.0942 62.2452 44.3518 61.9045 44.3518 61.4339C44.3518 60.9175 43.9907 60.6178 43.5092 60.6178C43.0277 60.6178 42.7015 60.8802 42.2971 61.4038L41.6459 60.8946C42.1478 60.1917 42.6413 59.7957 43.5718 59.7957C44.5961 59.7957 45.3003 60.424 45.3003 61.3737C45.3003 62.197 44.8585 62.6376 43.9377 63.4007L42.8616 64.2963H45.3521V65.104H41.5664V64.3806Z" fill="#0A1F27"/>
<path d="M45.9814 64.7777C45.9812 64.7117 46.0006 64.6471 46.0371 64.5921C46.0737 64.537 46.1257 64.4941 46.1867 64.4687C46.2477 64.4433 46.3148 64.4366 46.3796 64.4495C46.4444 64.4623 46.5039 64.4941 46.5506 64.5408C46.5973 64.5875 46.6291 64.647 46.6419 64.7118C46.6548 64.7766 46.6481 64.8437 46.6227 64.9047C46.5973 64.9657 46.5544 65.0177 46.4994 65.0543C46.4443 65.0908 46.3797 65.1102 46.3137 65.11C46.2257 65.1096 46.1413 65.0745 46.0791 65.0123C46.0169 64.9501 45.9818 64.8658 45.9814 64.7777Z" fill="#0A1F27"/>
<path d="M69.9749 59.9039H47.6787V60.8356H69.9749V59.9039Z" fill="#0A1F27"/>
<path d="M68.2271 64.0664H47.6787V64.9981H68.2271V64.0664Z" fill="#0A1F27"/>
<path d="M62.2134 61.9852H47.6787V62.9169H62.2134V61.9852Z" fill="#0A1F27"/>
<path d="M81.1791 80.4994C81.08 80.5001 80.982 80.4789 80.8921 80.4372C80.8022 80.3956 80.7227 80.3346 80.6591 80.2586L77.7112 76.6945C77.5973 76.5566 77.5427 76.379 77.5597 76.2009C77.5766 76.0228 77.6636 75.8587 77.8015 75.7448C77.9394 75.6308 78.117 75.5763 78.2951 75.5932C78.4732 75.6101 78.6373 75.6971 78.7512 75.835L81.0888 78.6625L85.3174 71.5607C85.3608 71.4807 85.4199 71.4104 85.4912 71.3538C85.5624 71.2973 85.6444 71.2557 85.7321 71.2316C85.8198 71.2075 85.9115 71.2014 86.0016 71.2136C86.0918 71.2259 86.1785 71.2562 86.2567 71.3027C86.3348 71.3493 86.4027 71.4112 86.4564 71.4847C86.51 71.5582 86.5482 71.6417 86.5688 71.7303C86.5893 71.8189 86.5917 71.9108 86.5759 72.0004C86.5601 72.09 86.5263 72.1754 86.4766 72.2516L81.7581 80.1708C81.7029 80.2637 81.6262 80.3419 81.5345 80.3989C81.4427 80.4559 81.3386 80.4899 81.2309 80.4982L81.1791 80.4994Z" fill="#917F50"/>
<path d="M69.9749 74.2773H47.6787V75.209H69.9749V74.2773Z" fill="#0A1F27"/>
<path d="M68.2271 78.4398H47.6787V79.3715H68.2271V78.4398Z" fill="#0A1F27"/>
<path d="M62.2134 76.3586H47.6787V77.2903H62.2134V76.3586Z" fill="#0A1F27"/>
<path d="M41.5 78.5301L42.1295 77.9438C42.4906 78.376 42.9059 78.6179 43.4765 78.6179C43.982 78.6179 44.3624 78.3098 44.3624 77.8271C44.3624 77.3215 43.9014 77.0363 43.184 77.0363H42.7663L42.6206 76.4729L44.0037 75.0008H41.7853V74.2184H45.1749V74.8888L43.7473 76.3538C44.5598 76.4741 45.2556 76.8882 45.2556 77.8102C45.2556 78.7539 44.5237 79.428 43.462 79.428C43.0879 79.4396 42.7162 79.3646 42.3758 79.2088C42.0355 79.0531 41.7357 78.8208 41.5 78.5301Z" fill="#0A1F27"/>
<path d="M45.5137 79.1018C45.5137 79.0373 45.5328 78.9742 45.5686 78.9206C45.6045 78.867 45.6554 78.8252 45.715 78.8005C45.7747 78.7758 45.8402 78.7693 45.9035 78.7819C45.9668 78.7945 46.0249 78.8256 46.0705 78.8712C46.1162 78.9168 46.1472 78.9749 46.1598 79.0382C46.1724 79.1015 46.1659 79.1671 46.1412 79.2267C46.1166 79.2863 46.0747 79.3372 46.0211 79.3731C45.9675 79.4089 45.9044 79.428 45.8399 79.428C45.7535 79.4277 45.6707 79.3933 45.6096 79.3321C45.5485 79.271 45.514 79.1883 45.5137 79.1018Z" fill="#0A1F27"/>
<path d="M94.0755 62.6268C94.0755 62.6268 93.8589 62.1453 93.7144 61.9045C93.57 61.6638 92.9741 60.9969 92.8718 61.151C92.7695 61.3051 92.3615 62.3355 92.5781 62.6231C92.7948 62.9108 92.5637 63.4152 93.6434 63.7185L94.0755 62.6268Z" fill="#FCFCF5"/>
<path d="M106.073 59.5477C106.073 59.5477 100.546 64.1603 98.3918 63.733C96.7067 63.3996 94.1199 62.5125 94.1199 62.5125L93.6035 63.8365C93.6035 63.8365 95.9218 66.983 98.3401 67.0035C102.12 67.036 104.912 65.3664 104.912 65.3664L106.073 59.5477Z" fill="#146C8C"/>
<path d="M115.764 108.204C115.764 108.204 115.604 110.792 115.103 110.829C115.037 110.829 112.565 110.829 112.565 110.829L109.407 110.811C109.407 110.811 109.428 110.05 110.351 109.89C111.274 109.73 112.817 109.08 113.377 107.861C113.964 106.582 115.764 108.204 115.764 108.204Z" fill="#196181"/>
<path d="M115.947 108.384C115.947 108.384 114.984 108.705 114.237 108.705C113.698 108.696 113.162 108.618 112.642 108.472C112.642 108.472 112.462 106.726 111.468 102.876C110.946 100.858 110.201 98.2636 109.143 95.0401C106.215 86.1363 105.324 80.9242 105.243 80.4259C105.243 80.3994 105.237 80.3862 105.237 80.3862H105.247L114.248 76.4332C114.248 76.4332 113.136 88.711 114.555 93.4259C114.772 94.1682 114.945 94.9227 115.074 95.6853C115.967 100.805 115.947 108.384 115.947 108.384Z" fill="#0C4055"/>
<path d="M111.463 102.881C110.941 100.862 110.196 98.2685 109.138 95.045C106.215 86.1364 105.324 80.9243 105.243 80.426C105.243 80.4103 105.243 80.3971 105.243 80.3827L114.244 76.4297C114.244 76.4297 113.132 88.7075 114.551 93.4224C114.754 94.0856 111.463 102.881 111.463 102.881Z" fill="#062933"/>
<path d="M108.733 108.204C108.733 108.204 108.573 110.792 108.072 110.829C108.006 110.829 105.533 110.829 105.533 110.829L102.376 110.811C102.376 110.811 102.396 110.05 103.32 109.89C104.243 109.73 105.786 109.08 106.346 107.861C106.933 106.582 108.733 108.204 108.733 108.204Z" fill="#196181"/>
<path d="M103.63 76.7245C103.63 76.7245 103.509 84.681 104.89 94.4502C106.271 104.219 105.806 108.367 105.806 108.367C105.806 108.367 106.752 108.673 107.13 108.704C107.794 108.736 108.459 108.658 109.097 108.472C109.097 108.472 111.067 98.7041 110.5 93.8135C109.933 88.9228 113.199 77.0338 113.199 77.0338L103.63 76.7245Z" fill="#0C4055"/>
<path d="M110.019 58.1033L108.261 59.2564L106.662 58.8038C106.369 58.3861 106.291 57.5809 106.287 56.8839C106.285 56.4574 106.306 56.0311 106.35 55.6068L108.72 54.5608L109.605 54.1708C109.605 54.184 109.536 54.893 109.526 55.0013C109.356 56.8478 110.019 58.1033 110.019 58.1033Z" fill="#FCFCF5"/>
<path d="M103.589 78.9358C105.776 81.0483 114.053 80.692 114.563 78.3664C115.074 76.0408 114.007 58.5607 110.271 57.4617C109.496 57.2342 105.351 58.5739 105.351 58.5739C104.893 59.8337 104.53 61.1266 104.268 62.4414C104.185 62.8627 103.944 67.3296 103.764 71.5089C103.678 73.4625 103.607 75.3608 103.571 76.7402C103.543 78.0378 103.542 78.89 103.589 78.9358Z" fill="#1A7FAA"/>
<path d="M109.344 55.0338C108.862 55.8463 107.177 56.5577 106.281 56.8839C106.279 56.4574 106.3 56.031 106.344 55.6068L108.714 54.5607C109.239 54.5535 109.558 54.6667 109.344 55.0338Z" fill="#EFEFD8"/>
<path d="M105.444 55.4623C105.444 55.4623 109.263 56.654 109.969 54.2586C110.674 51.8632 111.643 50.4128 109.233 49.5509C106.823 48.6891 106.08 49.4606 105.65 50.2009C105.22 50.9412 104.474 55.0904 105.444 55.4623Z" fill="#FCFCF5"/>
<path d="M105.805 49.9722C105.805 49.9722 106.046 52.7527 106.624 52.6324C107.202 52.512 107.828 52.2532 107.748 53.0922C107.669 53.9312 108.308 55.3672 109.137 55.3648C110.916 55.3563 112.848 50.7907 112.362 49.9264C110.956 47.4324 103.775 46.9292 105.805 49.9722Z" fill="#0C4055"/>
<path d="M106.367 57.523C106.417 57.5013 109.211 56.2483 109.538 56.3566C109.865 56.4649 110.271 57.4616 110.271 57.4616L105.352 58.575C105.352 58.575 105.739 57.7866 106.367 57.523Z" fill="#1A7FAA"/>
<path d="M103.577 76.7402C112.208 70.5893 111.49 62.3837 111.49 62.3837C108.333 64.1627 105.203 68.0964 103.77 71.5089C103.684 73.4626 103.613 75.3548 103.577 76.7402Z" fill="#13546B"/>
<path d="M95.0593 73.9391C94.4502 73.7983 94.0422 73.3373 93.9567 73.2578C93.9567 73.2578 93.6979 73.2759 94 73.8296C94.0253 73.8765 94.0807 73.9945 94.1204 74.0787C94.1245 74.0866 94.1264 74.0954 94.1262 74.1042C94.126 74.1131 94.1236 74.1217 94.1191 74.1294C94.1147 74.137 94.1084 74.1435 94.1009 74.1481C94.0933 74.1527 94.0847 74.1553 94.0759 74.1558C93.7244 74.1835 93.3717 74.0438 92.6952 74.1847C92.6013 74.2051 92.5749 74.4254 92.5749 74.5241C92.5619 74.7361 92.627 74.9455 92.7578 75.1127C92.8662 75.2572 93.1707 75.4112 93.8484 75.6845C94.106 75.788 94.8438 75.7098 95.5336 75.4726L96.0861 75.2162L95.9139 74.1895L95.7755 74.2184C95.5625 74.2653 95.2892 73.9957 95.0593 73.9391Z" fill="#FCFCF5"/>
<path d="M108.814 58.5751C108.814 58.5751 116.566 60.0508 106.527 71.2778C104.923 73.0737 96.2501 75.4125 96.2501 75.4125C96.2501 75.4125 95.3702 74.6638 95.8131 74.0583C95.8131 74.0583 101.785 69.725 103.099 69.0328C103.69 68.7223 105.392 62.1116 106.356 60.5203C106.905 59.5883 107.781 58.8947 108.814 58.5751Z" fill="#146C8C"/>
<path d="M93.8649 62.7639C93.7394 62.5276 93.6381 62.2792 93.5628 62.0225C93.5122 61.7673 93.1932 61.021 93.062 60.8898C93.0091 60.838 92.8357 60.9054 92.8213 61.1305C92.8287 61.3002 92.8696 61.4667 92.9417 61.6204C93.0801 61.9683 93.062 62.4389 93.1066 62.5954C93.2233 62.9878 93.8649 62.7639 93.8649 62.7639Z" fill="#FCFCF5"/>
<path d="M73.3753 91.6577C75.8076 91.6577 78.2407 91.6577 80.6746 91.6577C80.8888 91.6577 80.9731 91.6902 80.9707 91.9346C80.9587 93.4657 80.9587 94.9972 80.9707 96.5291C80.9707 96.7482 80.9093 96.8108 80.6938 96.8023C80.2882 96.7855 79.8801 96.7819 79.4745 96.8023C79.2217 96.8156 79.1338 96.759 79.1399 96.4834C79.1615 95.6179 79.1519 94.7524 79.1399 93.887C79.1399 93.4633 79.235 93.4813 78.745 93.4813H69.2358C68.7688 93.4813 68.3005 93.4922 67.8335 93.4813C67.6325 93.4813 67.5927 93.5439 67.5927 93.7329C67.6012 94.6766 67.5927 95.6203 67.6012 96.5628C67.6012 96.7602 67.5458 96.8132 67.3532 96.8035C66.8862 96.7903 66.4179 96.7939 65.9509 96.8035C65.7956 96.8035 65.7402 96.7626 65.7402 96.6001C65.7402 95.0257 65.7487 93.45 65.7402 91.8756C65.7402 91.6348 65.875 91.6649 66.0219 91.6649L73.3753 91.6577Z" fill="#3AABE1"/>
<path d="M77.1037 97.8977C77.7115 97.8977 78.3074 97.8977 78.9092 97.8977C79.0416 97.8977 79.0886 97.9723 79.15 98.059C79.4268 98.4755 79.7037 98.8896 79.9926 99.3301C80.2863 98.8968 80.5679 98.4947 80.8352 98.0819C80.8698 98.0183 80.9228 97.9667 80.9872 97.9337C81.0516 97.9006 81.1244 97.8877 81.1963 97.8965C81.7584 97.9073 82.3217 97.8965 82.8815 97.8965C82.9164 97.9964 82.8429 98.0482 82.802 98.1084C82.2447 98.9413 81.6898 99.7755 81.1168 100.601C81.0719 100.651 81.047 100.715 81.047 100.782C81.047 100.849 81.0719 100.913 81.1168 100.962C81.6934 101.824 82.2603 102.691 82.8297 103.558C82.8526 103.591 82.8706 103.629 82.9127 103.706C82.4313 103.706 81.9751 103.678 81.5249 103.713C81.1108 103.745 80.8315 103.641 80.6353 103.247C80.468 102.911 80.2225 102.614 79.995 102.277C79.7073 102.704 79.4268 103.107 79.1632 103.521C79.1289 103.585 79.076 103.638 79.0116 103.671C78.9472 103.705 78.8742 103.718 78.8021 103.709C78.2327 103.698 77.6622 103.709 77.0459 103.709C77.3396 103.27 77.6153 102.858 77.8885 102.448C78.2159 101.966 78.5385 101.468 78.8803 100.991C78.9294 100.939 78.9568 100.871 78.9568 100.799C78.9568 100.728 78.9294 100.659 78.8803 100.607C78.317 99.7887 77.7657 98.9618 77.212 98.1385C77.1498 98.0727 77.1117 97.9879 77.1037 97.8977Z" fill="#333333"/>
<path d="M67.6061 98.7415C67.8116 98.3914 68.1249 98.1172 68.4992 97.9599C68.8735 97.8026 69.2886 97.7706 69.6825 97.8688C69.7921 97.9013 69.7848 97.9615 69.7848 98.0386C69.7848 98.496 69.7848 98.9546 69.7848 99.4132C69.7848 99.554 69.7283 99.5685 69.6151 99.5444C69.4198 99.5021 69.2189 99.4927 69.0205 99.5167C68.1249 99.6238 67.6146 100.208 67.6037 101.16C67.5953 101.937 67.6037 102.716 67.6037 103.494C67.6037 103.66 67.5664 103.714 67.3931 103.709C66.926 103.697 66.4578 103.7 65.992 103.709C65.8439 103.709 65.8006 103.668 65.8018 103.521C65.8018 101.715 65.8018 99.9095 65.8018 98.1048C65.8018 97.9483 65.8451 97.8953 66.0064 97.8989C66.4735 97.9098 66.9405 97.911 67.4075 97.8989C67.5797 97.8989 67.611 97.9591 67.6025 98.1084C67.5977 98.2913 67.6061 98.4815 67.6061 98.7415Z" fill="#343333"/>
<path d="M70.7773 100.797C70.7773 99.9066 70.7773 99.0147 70.7773 98.1239C70.7773 97.9458 70.8171 97.8832 71.0036 97.8916C71.4707 97.9061 71.9389 97.9 72.406 97.8916C72.5372 97.8916 72.6082 97.9024 72.6082 98.0674C72.6026 99.8922 72.6026 101.718 72.6082 103.544C72.6082 103.665 72.5757 103.707 72.4493 103.706C71.9473 103.698 71.4442 103.693 70.9423 103.706C70.7557 103.706 70.7834 103.604 70.7834 103.494L70.7773 100.797Z" fill="#333333"/>
<path d="M76.0195 100.825C76.0195 101.716 76.0195 102.605 76.0195 103.495C76.0195 103.661 75.9822 103.714 75.8089 103.709C75.3419 103.697 74.8748 103.7 74.409 103.709C74.2513 103.709 74.1863 103.685 74.1875 103.503C74.1947 101.706 74.1947 99.9087 74.1875 98.1119C74.1875 97.9446 74.2272 97.8892 74.4018 97.8929C74.8592 97.9061 75.3178 97.9073 75.7764 97.8929C75.9654 97.8868 76.0171 97.9314 76.0171 98.1336C76.0135 99.0279 76.0195 99.9259 76.0195 100.825Z" fill="#343333"/>
<path d="M71.701 94.6128C71.9756 94.6193 72.2369 94.7321 72.43 94.9274C72.6231 95.1228 72.7329 95.3854 72.7362 95.66C72.724 95.9328 72.6061 96.1902 72.4075 96.3775C72.2088 96.5649 71.945 96.6676 71.672 96.6638C71.3989 96.6601 71.1381 96.5502 70.9446 96.3574C70.7512 96.1646 70.6404 95.9042 70.6357 95.6311C70.6481 95.3569 70.7658 95.098 70.9642 94.9084C71.1626 94.7187 71.4265 94.6128 71.701 94.6128Z" fill="#3AABE1"/>
<path d="M76.1335 95.6348C76.1377 95.9099 76.0326 96.1754 75.8412 96.3731C75.6498 96.5708 75.3878 96.6845 75.1127 96.6892C74.834 96.6828 74.5684 96.5691 74.3713 96.3718C74.1742 96.1745 74.0608 95.9088 74.0547 95.63C74.0619 95.3591 74.1739 95.1017 74.3673 94.9119C74.5607 94.7222 74.8202 94.6149 75.0911 94.6128C75.2271 94.6096 75.3624 94.6337 75.489 94.6837C75.6156 94.7336 75.7309 94.8084 75.8281 94.9037C75.9252 94.999 76.0023 95.1128 76.0548 95.2383C76.1072 95.3639 76.134 95.4987 76.1335 95.6348Z" fill="#3AABE1"/>
<path d="M63.4354 99.8176C63.2837 99.7357 63.1296 99.6587 62.9539 99.5696L63.1043 99.4914C64.2238 98.9485 64.3899 97.1128 63.3776 96.3425C62.9404 96.0272 62.422 95.8438 61.8838 95.814C60.6921 95.7081 59.4968 95.7936 58.3028 95.7659C58.1415 95.7659 58.1475 95.8489 58.1475 95.9609C58.1475 98.4782 58.1475 100.995 58.1475 103.512C58.1475 103.677 58.1956 103.71 58.3509 103.709C59.3211 103.702 60.2901 103.709 61.2591 103.702C61.9717 103.693 62.6758 103.624 63.3234 103.288C64.0167 102.927 64.3381 102.331 64.3875 101.57C64.4344 100.788 64.1359 100.192 63.4354 99.8176ZM59.9747 97.6112C59.9747 97.4908 59.9976 97.4234 60.1432 97.4258C60.6103 97.4342 61.0773 97.4198 61.5443 97.4258C61.9741 97.4378 62.216 97.6978 62.2136 98.1167C62.2167 98.2078 62.2013 98.2986 62.1681 98.3835C62.135 98.4683 62.0849 98.5456 62.0209 98.6105C61.9569 98.6754 61.8804 98.7265 61.796 98.7609C61.7115 98.7952 61.621 98.8119 61.5299 98.8101C61.2964 98.8185 61.0629 98.8101 60.8293 98.8101C60.5958 98.8101 60.3804 98.8101 60.1553 98.8101C60.0253 98.8101 59.9699 98.78 59.9735 98.6379C59.9807 98.3021 59.9783 97.9566 59.9723 97.6112H59.9747ZM62.4146 101.564C62.2943 101.925 61.9885 102.017 61.6563 102.038C61.4059 102.055 61.1543 102.038 60.904 102.038C60.6536 102.038 60.402 102.032 60.1517 102.038C60.0217 102.038 59.9699 102.009 59.9735 101.867C59.9819 101.462 59.9819 101.055 59.9735 100.649C59.9735 100.511 60.0156 100.474 60.1493 100.476C60.6596 100.484 61.17 100.466 61.6792 100.488C62.3063 100.528 62.6168 100.988 62.4122 101.564H62.4146Z" fill="#343333"/>
<path d="M35.8923 108.679C40.3331 108.679 43.933 105.079 43.933 100.639C43.933 96.1977 40.3331 92.5978 35.8923 92.5978C31.4515 92.5978 27.8516 96.1977 27.8516 100.639C27.8516 105.079 31.4515 108.679 35.8923 108.679Z" fill="#C6E4F1"/>
<path d="M35.9364 104.396C35.5767 104.485 35.1972 104.442 34.8663 104.276C34.8013 104.244 34.7387 104.209 34.6773 104.17L32.2205 102.627C32.0692 102.537 31.9496 102.403 31.8787 102.242C31.8339 102.142 31.8124 102.033 31.8158 101.924C31.8191 101.815 31.8472 101.708 31.8979 101.611C31.9434 101.517 32.0078 101.434 32.0872 101.367C32.1665 101.3 32.2591 101.25 32.3589 101.22C32.4586 101.19 32.5635 101.182 32.6667 101.195C32.77 101.209 32.8693 101.243 32.9584 101.297C33.157 101.417 33.3532 101.538 33.5494 101.658L35.3802 102.815C35.5439 102.918 35.5512 102.916 35.621 102.745C36.5246 100.703 37.4277 98.6612 38.3305 96.6181C38.4085 96.4218 38.5564 96.2614 38.7458 96.1679C38.8442 96.1245 38.9507 96.1023 39.0582 96.1027C39.1658 96.1031 39.2721 96.1261 39.3702 96.1703C39.4683 96.2144 39.5559 96.2787 39.6276 96.359C39.6992 96.4393 39.7531 96.5337 39.7858 96.6362C39.8424 96.8315 39.8257 97.0409 39.7389 97.2248C39.5077 97.7436 39.2802 98.2624 39.0503 98.78C38.349 100.362 37.6476 101.945 36.9463 103.529C36.7912 103.893 36.4989 104.183 36.1326 104.334C36.0603 104.362 35.9785 104.38 35.9364 104.396Z" fill="#1E7EAA"/>
<path d="M46.5343 89.7329C46.4919 89.543 46.4372 89.3561 46.3706 89.1732C46.2527 88.839 46.0683 88.5323 45.8286 88.2714C45.5888 88.0105 45.2986 87.8009 44.9755 87.6553C44.4516 87.4187 43.8628 87.3678 43.306 87.5109C43.046 87.5699 42.7884 87.6409 42.526 87.6914C42.0096 87.7889 41.6148 87.5025 41.5281 86.9849C41.2723 85.3738 40.7896 83.8071 40.0945 82.3314C39.5967 81.2557 38.9111 80.2774 38.0699 79.4425C36.7627 78.1726 35.2051 77.5093 33.3754 77.5165C31.9491 77.528 30.5441 77.8643 29.2672 78.5C28.0995 79.0528 27.1225 79.9402 26.4602 81.0494C25.873 82.0547 25.5039 83.1722 25.3768 84.3295C25.1857 86.0004 25.2744 87.6915 25.6392 89.3333C25.7247 89.7426 25.8306 90.147 25.9438 90.5502C26.0954 91.0871 25.8234 91.5132 25.2781 91.6336C25.1999 91.6504 25.1217 91.6637 25.0446 91.6781C24.296 91.8011 23.6228 92.2059 23.1632 92.8096C22.9291 93.0953 22.7644 93.4313 22.6821 93.7914C22.5998 94.1515 22.6022 94.5258 22.689 94.8848C22.9141 95.8899 23.1367 96.8974 23.3667 97.9025C24.2823 101.915 25.1995 105.927 26.1183 109.939C26.145 110.074 26.1804 110.206 26.2242 110.336C26.4456 110.957 26.8879 111.474 27.4666 111.79C28.0454 112.106 28.7202 112.198 29.3623 112.048C29.798 111.952 30.2342 111.854 30.6707 111.753L38.6838 109.925C41.805 109.212 44.9298 108.512 48.0462 107.781C49.0549 107.541 49.7001 106.881 49.9505 105.864C50.0453 105.411 50.0313 104.942 49.9095 104.495C48.7813 99.5744 47.6562 94.6537 46.5343 89.7329ZM26.9814 87.6012C26.8767 86.8862 26.8971 85.8606 26.9236 85.1384C26.9525 84.3728 27.2474 83.3689 27.517 82.6455C27.972 81.4214 29.4754 80.8051 30.6936 80.3236C31.3966 80.0443 32.1802 80.2032 32.9397 80.196C33.4892 80.1802 34.036 80.2791 34.5452 80.4863C35.0544 80.6936 35.5149 81.0046 35.8972 81.3997C36.5058 82.028 37.0003 82.7575 37.3585 83.5555C37.8512 84.6231 38.2149 85.7457 38.4418 86.8994C38.4671 87.0198 38.4852 87.1402 38.5189 87.2605C38.5526 87.3809 38.5056 87.4194 38.3985 87.4338C38.3479 87.4411 38.2998 87.4567 38.2504 87.4676L33.4633 88.5569L29.3298 89.5006C29.1047 89.5512 28.8808 89.6077 28.6557 89.6595C28.3777 89.7221 27.381 90.1747 27.31 89.9255C27.1367 89.314 27.0729 88.2295 26.9814 87.6012ZM37.3332 107.177C35.9338 107.496 34.4713 107.392 33.1305 106.88C31.7898 106.368 30.631 105.47 29.8007 104.299C28.9704 103.128 28.5059 101.737 28.4658 100.303C28.4256 98.868 28.8118 97.4536 29.5754 96.2383C30.339 95.0231 31.4457 94.0614 32.7558 93.475C34.0658 92.8886 35.5203 92.7038 36.9353 92.9438C38.3504 93.1839 39.6625 93.8381 40.7058 94.8238C41.7491 95.8095 42.4768 97.0823 42.7968 98.4814C43.0095 99.411 43.037 100.373 42.8776 101.314C42.7182 102.254 42.3752 103.153 41.868 103.961C41.3608 104.768 40.6995 105.468 39.9218 106.02C39.1441 106.572 38.2653 106.965 37.3356 107.177H37.3332Z" fill="#1E7EAA"/>
<path d="M47.0506 89.574C46.9975 89.3347 46.9287 89.0991 46.8448 88.8687C46.6641 88.365 46.3829 87.9033 46.0183 87.5116C45.6537 87.1199 45.2133 86.8064 44.7239 86.5901C43.9066 86.2133 43.0531 86.1856 42.1853 86.3686C41.9842 86.4119 41.983 86.4119 41.9445 86.2061C41.6946 84.9761 41.3262 83.7732 40.8443 82.6142C40.3655 81.4462 39.7134 80.3571 38.91 79.3835C38.012 78.3206 36.9516 77.472 35.66 76.9364C34.1927 76.3345 32.6724 76.231 31.1172 76.4609C30.1395 76.6064 29.1854 76.8812 28.2801 77.2782C26.3421 78.1208 24.9169 79.4954 24.0442 81.4286C23.4508 82.743 23.2017 84.1309 23.1451 85.5621C23.0897 87.1553 23.255 88.7484 23.6362 90.2963C23.706 90.5803 23.7048 90.5876 23.4231 90.6694C22.6715 90.8915 22.0004 91.3267 21.4912 91.9225C20.6486 92.8854 20.2875 93.9953 20.5583 95.2664C20.7991 96.4087 21.0579 97.5474 21.3155 98.6873C21.703 100.403 22.0942 102.118 22.4891 103.833C22.993 106.033 23.4994 108.233 24.0081 110.431C24.0472 110.622 24.0986 110.81 24.1622 110.994C24.4962 111.919 25.1575 112.69 26.0212 113.16C26.8849 113.631 27.8911 113.768 28.8494 113.547C29.3044 113.44 29.763 113.341 30.2205 113.238L38.1926 111.418L47.5574 109.281C47.7634 109.238 47.9649 109.175 48.1592 109.095C49.1318 108.67 49.8553 107.988 50.2717 107.005C50.6329 106.162 50.6461 105.29 50.4415 104.399C49.306 99.4613 48.1757 94.5197 47.0506 89.574ZM49.1547 106.044C48.9043 107.061 48.2592 107.723 47.2505 107.961C44.1341 108.691 41.0092 109.392 37.888 110.104L29.875 111.933C29.4392 112.033 29.0031 112.131 28.5666 112.228C27.9249 112.378 27.2503 112.287 26.6716 111.972C26.0928 111.656 25.6504 111.139 25.4285 110.518C25.3848 110.388 25.3494 110.256 25.3226 110.121C24.4054 106.109 23.4881 102.097 22.5709 98.0842C22.3422 97.0795 22.1163 96.0736 21.8932 95.0666C21.8064 94.7075 21.8041 94.3333 21.8864 93.9732C21.9686 93.6131 22.1333 93.277 22.3675 92.9914C22.8271 92.3877 23.5002 91.9829 24.2489 91.8599C24.3271 91.8454 24.4054 91.8322 24.4824 91.8153C25.0277 91.695 25.2997 91.2737 25.148 90.732C25.0349 90.3288 24.9302 89.9243 24.8435 89.5151C24.4795 87.8728 24.3912 86.1813 24.5823 84.5101C24.7091 83.3532 25.0783 82.2359 25.6656 81.2312C26.3271 80.1213 27.3044 79.2337 28.4727 78.6817C29.7504 78.0494 31.1553 77.7164 32.5809 77.7079C34.4105 77.6971 35.9681 78.3591 37.2754 79.6339C38.1165 80.4689 38.8021 81.4472 39.3 82.5228C39.9957 83.9952 40.4796 85.5586 40.7372 87.1666C40.8239 87.6854 41.2187 87.9707 41.7351 87.8732C41.9975 87.8239 42.2551 87.7528 42.5151 87.6939C43.0716 87.5494 43.6608 87.6 44.1846 87.8371C44.5077 87.9827 44.7978 88.1923 45.0376 88.4532C45.2774 88.714 45.4618 89.0208 45.5797 89.355C45.6461 89.5379 45.7008 89.7248 45.7434 89.9147C46.8669 94.8354 47.9903 99.7562 49.1138 104.677C49.2357 105.124 49.2497 105.594 49.1547 106.048V106.044Z" fill="#0A1F27"/>
<path d="M35.8182 81.0145C34.8697 80.0419 33.7226 79.5063 32.3576 79.4714C31.3807 79.4564 30.4119 79.6514 29.5168 80.0431C27.8557 80.7461 26.8518 82.0088 26.4113 83.7361C26.1272 84.8519 26.1068 85.987 26.2006 87.1281C26.2629 87.8026 26.3634 88.4729 26.5016 89.1359C26.5846 89.5608 26.7038 89.9785 26.8205 90.3938C26.9156 90.732 27.1588 90.8837 27.5079 90.8452C27.5724 90.8373 27.6363 90.8253 27.6993 90.8091C28.0435 90.7284 28.3866 90.6454 28.7308 90.5683L32.8607 89.6234L38.0066 88.4486C38.1049 88.4272 38.2018 88.3994 38.2967 88.3656C38.415 88.3281 38.5171 88.2517 38.5864 88.1487C38.6557 88.0457 38.6881 87.9223 38.6782 87.7986C38.6755 87.6674 38.6622 87.5365 38.6385 87.4074C38.3713 86.046 38.021 84.7099 37.4348 83.4472C37.0379 82.5504 36.4913 81.7278 35.8182 81.0145ZM37.6503 87.08C37.6755 87.2004 37.6936 87.3207 37.7273 87.4411C37.761 87.5615 37.7141 87.6012 37.6069 87.6156C37.5576 87.6156 37.5082 87.6373 37.4589 87.6481L32.6717 88.7411L28.5382 89.6848C28.3131 89.7354 28.0893 89.7919 27.8642 89.8437C27.5861 89.9063 27.633 89.9195 27.562 89.6704C27.3973 89.0577 27.2731 88.4348 27.1901 87.8058C27.0825 87.093 27.0401 86.3718 27.0637 85.6512C27.0752 84.8862 27.2089 84.1279 27.4597 83.4051C27.6632 82.8207 27.9928 82.2882 28.4251 81.8453C28.8573 81.4024 29.3817 81.06 29.961 80.8424C30.6554 80.5566 31.3962 80.3999 32.1469 80.3802C32.6965 80.3643 33.2433 80.4632 33.7525 80.6704C34.2617 80.8777 34.7222 81.1888 35.1044 81.5839C35.7127 82.2116 36.2079 82.9397 36.5681 83.7361C37.0605 84.8038 37.4238 85.9263 37.6503 87.08Z" fill="#0A1F27"/>
<path d="M33.912 92.5183C32.4089 92.8608 31.041 93.6414 29.9814 94.7613C28.9218 95.8812 28.2181 97.2901 27.9593 98.81C27.7004 100.33 27.8981 101.892 28.5272 103.3C29.1564 104.707 30.1887 105.897 31.4938 106.717C32.7989 107.538 34.318 107.954 35.8591 107.911C37.4003 107.868 38.8942 107.37 40.1519 106.478C41.4097 105.587 42.3748 104.342 42.9252 102.902C43.4757 101.462 43.5867 99.8908 43.2444 98.3876C42.7849 96.3718 41.5437 94.6211 39.7936 93.5205C38.0435 92.4198 35.9279 92.0593 33.912 92.5183ZM42.468 101.634C42.1981 102.851 41.6071 103.973 40.7563 104.884C40.1824 105.501 39.5034 106.012 38.7509 106.392C38.4113 106.56 38.0567 106.695 37.6917 106.795C37.5304 106.842 37.3691 106.893 37.2042 106.925C36.6607 107.059 36.1026 107.123 35.5431 107.117C34.1181 107.083 32.7361 106.622 31.5769 105.793C30.6527 105.125 29.8996 104.248 29.3789 103.234C29.2217 102.919 29.0932 102.591 28.9949 102.253C28.8757 101.865 28.7852 101.468 28.7241 101.067C28.6114 100.321 28.6297 99.5616 28.7782 98.8221C29.0079 97.6005 29.5589 96.4621 30.3744 95.524C30.9137 94.9068 31.5545 94.3861 32.269 93.9844C32.6599 93.7671 33.0732 93.5928 33.5016 93.4644C33.7652 93.3802 34.0336 93.3188 34.3032 93.261C35.2489 93.0613 36.227 93.072 37.1681 93.2923C38.3467 93.5551 39.4371 94.1191 40.3326 94.9293C40.9711 95.5048 41.5011 96.1901 41.8974 96.9528C42.0505 97.2565 42.1778 97.5726 42.2778 97.8977C42.3679 98.1823 42.4426 98.4716 42.5017 98.7643C42.7013 99.7117 42.6898 100.692 42.468 101.634Z" fill="#0A1F27"/>
<path d="M40.0728 95.7852C40.0247 95.6851 39.9572 95.5955 39.8742 95.5216C39.8225 95.4759 39.7731 95.4277 39.719 95.3856C39.482 95.182 39.1815 95.0671 38.8691 95.0606C38.4286 95.0606 38.4575 95.0269 38.0109 95.2448C37.705 95.3923 37.4626 95.6454 37.3284 95.9574C36.6728 97.4283 36.02 98.9008 35.37 100.375L34.868 101.511C34.8376 101.509 34.8088 101.497 34.7862 101.476C34.2277 101.126 33.6727 100.772 33.1106 100.429C32.8908 100.274 32.631 100.184 32.3619 100.172C32.2656 100.172 32.1705 100.172 32.0754 100.172C31.9562 100.171 31.8383 100.197 31.7312 100.25C31.6722 100.277 31.6108 100.31 31.5554 100.334C31.3001 100.443 31.083 100.625 30.9319 100.858C30.7944 101.043 30.7081 101.261 30.6815 101.491C30.6713 101.651 30.6713 101.812 30.6815 101.972C30.6846 102.061 30.7067 102.148 30.7465 102.227C30.8031 102.348 30.8585 102.461 30.9163 102.578C30.9503 102.651 30.9963 102.717 31.0523 102.775C31.1772 102.905 31.3156 103.02 31.4652 103.121C32.2363 103.602 33.0075 104.087 33.7787 104.575C33.9724 104.698 34.1766 104.805 34.389 104.892C34.6001 104.984 34.8271 105.032 35.057 105.036H35.3892C35.5811 105.038 35.7717 105.004 35.9514 104.937C36.079 104.885 36.1993 104.817 36.3245 104.761C36.7827 104.545 37.1443 104.166 37.3392 103.698C38.2685 101.612 39.1941 99.5255 40.1162 97.4391C40.3569 96.8975 40.304 97.0094 40.3136 96.4412C40.3141 96.322 40.286 96.2044 40.2317 96.0982C40.1752 95.9911 40.1234 95.8887 40.0728 95.7852ZM39.4337 96.9805C39.2026 97.5021 38.9723 98.0237 38.7427 98.5453L36.6266 103.319C36.471 103.686 36.1769 103.977 35.8081 104.129C35.7425 104.156 35.6753 104.178 35.6071 104.197C35.2451 104.286 34.8631 104.244 34.5298 104.076C34.4648 104.044 34.401 104.008 34.3396 103.969L31.8696 102.418C31.717 102.328 31.5965 102.192 31.5253 102.03C31.4796 101.928 31.458 101.818 31.4622 101.706C31.4663 101.595 31.4962 101.486 31.5494 101.388C31.595 101.294 31.6597 101.21 31.7395 101.143C31.8192 101.075 31.9122 101.024 32.0126 100.994C32.1129 100.965 32.2184 100.956 32.3223 100.969C32.4262 100.982 32.5262 101.017 32.6159 101.071C32.8157 101.191 33.0131 101.311 33.2105 101.441C33.8236 101.827 34.4355 102.213 35.0462 102.599C35.2111 102.703 35.2183 102.702 35.2941 102.53C36.2025 100.476 37.1105 98.4221 38.0181 96.3678C38.0967 96.1701 38.246 96.0088 38.437 95.9152C38.5359 95.8714 38.643 95.849 38.7512 95.8494C38.8594 95.8498 38.9663 95.8731 39.0649 95.9176C39.1635 95.9621 39.2516 96.0269 39.3235 96.1079C39.3953 96.1888 39.4493 96.2839 39.4818 96.3871C39.5398 96.584 39.5226 96.7955 39.4337 96.9805Z" fill="#0A1F27"/>
<path d="M17.1407 73.5011C20.2419 73.5011 22.7559 70.987 22.7559 67.8858C22.7559 64.7846 20.2419 62.2705 17.1407 62.2705C14.0394 62.2705 11.5254 64.7846 11.5254 67.8858C11.5254 70.987 14.0394 73.5011 17.1407 73.5011Z" fill="#C6E4F1"/>
<path d="M15.9411 70.2197C15.6901 70.1571 15.4695 70.0074 15.3188 69.7972C15.2892 69.7562 15.2619 69.7136 15.2369 69.6696C14.8983 69.0846 14.5608 68.4996 14.2246 67.9146C14.1605 67.8096 14.1306 67.6871 14.1391 67.5643C14.1444 67.4873 14.1673 67.4124 14.2061 67.3456C14.2449 67.2788 14.2986 67.2219 14.363 67.1792C14.4216 67.1361 14.4885 67.1058 14.5594 67.09C14.6304 67.0743 14.7038 67.0736 14.7751 67.0878C14.8463 67.1021 14.9138 67.1311 14.9732 67.1729C15.0327 67.2148 15.0827 67.2686 15.1201 67.3308C15.2044 67.4693 15.2838 67.6101 15.3609 67.7509L16.1108 69.0581C16.1782 69.1785 16.183 69.1785 16.2853 69.0967L19.9602 66.1993C20.0727 66.1042 20.2162 66.0537 20.3635 66.0573C20.4385 66.0627 20.5115 66.0838 20.5777 66.1193C20.644 66.1547 20.7021 66.2037 20.7482 66.2631C20.7943 66.3225 20.8274 66.3909 20.8453 66.4639C20.8632 66.5369 20.8655 66.6129 20.8522 66.6868C20.823 66.8258 20.7443 66.9495 20.6307 67.0347L19.6978 67.769L16.8523 70.0127C16.6373 70.1871 16.3623 70.2701 16.0867 70.2438C16.0289 70.239 15.9712 70.2245 15.9411 70.2197Z" fill="#1E7EAA"/>
<path d="M27.2724 64.6309C27.3086 64.5001 27.336 64.367 27.3542 64.2325C27.391 63.988 27.3779 63.7386 27.3159 63.4992C27.2538 63.2599 27.144 63.0356 26.9931 62.8398C26.7477 62.5219 26.4005 62.2979 26.0097 62.2054C25.8303 62.1561 25.6486 62.1163 25.4692 62.061C25.3904 62.0417 25.3168 62.0055 25.2533 61.9551C25.1898 61.9046 25.1379 61.841 25.1013 61.7686C25.0647 61.6962 25.0442 61.6168 25.0413 61.5357C25.0383 61.4547 25.0529 61.3739 25.084 61.299C25.4532 60.2214 25.6672 59.0967 25.7196 57.9588C25.763 57.1329 25.6591 56.3059 25.4126 55.5164C25.2372 54.9335 24.9456 54.3921 24.5555 53.9248C24.1654 53.4575 23.6847 53.074 23.1424 52.7973C22.2602 52.3366 21.2846 52.083 20.2897 52.0558C19.3881 52.015 18.4948 52.2434 17.7234 52.7118C17.0316 53.1398 16.4378 53.7087 15.9804 54.3813C15.3151 55.35 14.8159 56.4227 14.5035 57.5555C14.4228 57.836 14.3554 58.12 14.294 58.4065C14.211 58.7869 13.904 58.9626 13.5297 58.8555L13.3708 58.8062C12.8689 58.6369 12.3211 58.6671 11.8409 58.8904C11.603 58.9901 11.3914 59.1437 11.2229 59.339C11.0543 59.5342 10.9334 59.766 10.8695 60.0159C10.6793 60.71 10.4899 61.4046 10.3013 62.0995C9.55504 64.8768 8.80955 67.6554 8.06485 70.4351C8.03723 70.5271 8.01552 70.6208 7.99985 70.7156C7.93382 71.1714 8.0378 71.6355 8.29197 72.0196C8.54615 72.4036 8.93275 72.6807 9.37809 72.798L10.2821 73.0387L15.8191 74.5277C17.9786 75.1079 20.1356 75.6965 22.2986 76.2635C22.9992 76.4476 23.6131 76.249 24.1042 75.7025C24.3108 75.454 24.4552 75.1598 24.5255 74.8443C25.4419 71.4394 26.3575 68.035 27.2724 64.6309ZM15.901 56.9272C16.1158 56.3946 16.373 55.8802 16.6701 55.3888C16.9374 54.9254 17.4477 54.403 17.8498 54.0443C18.5311 53.4425 19.6613 53.5484 20.5701 53.6483C21.0949 53.7061 21.5247 54.0636 21.9977 54.3043C22.3421 54.4742 22.6473 54.7141 22.8937 55.0086C23.1401 55.3031 23.3224 55.6458 23.4289 56.0148C23.5998 56.6005 23.6674 57.2114 23.6287 57.8203C23.5838 58.6404 23.4411 59.4523 23.2038 60.2386C23.181 60.3204 23.1521 60.4011 23.134 60.4853C23.116 60.5696 23.0738 60.5792 23.004 60.5539C22.9703 60.5419 22.9354 60.5347 22.9017 60.5262L19.5903 59.6355L16.7315 58.8663C16.5762 58.8242 16.4198 58.7857 16.2633 58.746C16.0719 58.6942 15.3087 58.6473 15.3461 58.4703C15.4363 58.037 15.7517 57.3437 15.901 56.926V56.9272ZM15.901 72.3936C14.9329 72.1333 14.0637 71.5918 13.4033 70.8376C12.7429 70.0834 12.321 69.1502 12.1909 68.1562C12.0609 67.1622 12.2285 66.152 12.6725 65.2532C13.1166 64.3545 13.8172 63.6076 14.6858 63.107C15.5543 62.6064 16.5518 62.3746 17.5521 62.4409C18.5524 62.5072 19.5105 62.8686 20.3054 63.4794C21.1003 64.0902 21.6962 64.9231 22.0178 65.8726C22.3394 66.8221 22.3722 67.8456 22.1121 68.8138C21.9393 69.4572 21.6413 70.0603 21.2352 70.5885C20.8291 71.1166 20.3228 71.5596 19.7454 71.892C19.168 72.2243 18.5307 72.4396 17.87 72.5255C17.2093 72.6113 16.5381 72.5661 15.8949 72.3924L15.901 72.3936Z" fill="#1E7EAA"/>
<path d="M27.6421 64.7044C27.6881 64.5396 27.7227 64.3719 27.7456 64.2024C27.8431 63.527 27.6864 62.8395 27.3059 62.2731C26.9254 61.7067 26.3481 61.3017 25.686 61.1366C25.5488 61.0969 25.5476 61.0969 25.5873 60.9548C25.835 60.1142 26.0007 59.2515 26.0821 58.3789C26.1682 57.5006 26.1215 56.6144 25.9436 55.75C25.7568 54.8077 25.3437 53.9249 24.7399 53.1777C24.0334 52.3231 23.1258 51.7657 22.0918 51.3998C21.4407 51.1698 20.7618 51.0277 20.0732 50.9773C18.6471 50.8451 17.2247 51.2666 16.101 52.1545C15.3241 52.7753 14.6767 53.5425 14.1955 54.4127C13.6418 55.3788 13.2249 56.417 12.9569 57.4978C12.9063 57.6952 12.9027 57.7 12.7029 57.6579C12.1663 57.5494 11.6096 57.5991 11.1008 57.8011C10.2582 58.1177 9.6828 58.6882 9.43243 59.5597C9.20734 60.3433 8.99549 61.1306 8.78123 61.919C8.45944 63.1026 8.14046 64.2899 7.82429 65.4808C7.41663 67.0054 7.01018 68.5301 6.60493 70.0548C6.56682 70.1851 6.53746 70.3178 6.51706 70.452C6.42065 71.1322 6.57687 71.8241 6.95618 72.3968C7.33548 72.9695 7.91155 73.3834 8.5754 73.56C8.89197 73.6419 9.20734 73.7309 9.52271 73.8164L15.0381 75.2982L21.5164 77.0387C21.6567 77.0794 21.8006 77.1065 21.9461 77.1194C22.3005 77.1544 22.6583 77.1193 22.9991 77.016C23.3399 76.9128 23.657 76.7434 23.9323 76.5175C24.4105 76.1168 24.7463 75.5721 24.8892 74.9647C25.8032 71.5438 26.7208 68.1237 27.6421 64.7044ZM23.5603 75.5582C23.0788 76.1034 22.4577 76.302 21.7547 76.1179C19.5881 75.5509 17.4347 74.9623 15.2752 74.3821L9.73456 72.8932C9.43364 72.8129 9.13271 72.7327 8.83179 72.6524C8.38631 72.5353 7.99954 72.2583 7.74532 71.8742C7.4911 71.4901 7.38724 71.0258 7.45354 70.57C7.46921 70.4756 7.49092 70.3823 7.51854 70.2907C8.26243 67.5142 9.00753 64.7373 9.75382 61.9599C9.9404 61.2642 10.1318 60.5696 10.322 59.8751C10.3856 59.6252 10.5063 59.3935 10.6746 59.1982C10.843 59.0029 11.0544 58.8494 11.2922 58.7496C11.773 58.527 12.3209 58.4968 12.8233 58.6654L12.9822 58.7147C13.3565 58.8219 13.6635 58.6473 13.7465 58.2657C13.8079 57.9805 13.8753 57.6964 13.956 57.4147C14.2673 56.2822 14.7652 55.2094 15.4293 54.2406C15.887 53.5682 16.4808 52.9994 17.1722 52.571C17.944 52.1009 18.8381 51.8709 19.741 51.9102C20.7362 51.9374 21.7123 52.191 22.5949 52.6517C23.1373 52.9284 23.6181 53.3121 24.0083 53.7797C24.3984 54.2472 24.6899 54.7889 24.8651 55.372C25.1117 56.1615 25.2156 56.9885 25.1721 57.8144C25.1195 58.9523 24.9055 60.0769 24.5365 61.1546C24.5053 61.2295 24.4908 61.3103 24.4937 61.3913C24.4967 61.4724 24.5172 61.5518 24.5538 61.6242C24.5904 61.6966 24.6422 61.7602 24.7057 61.8107C24.7692 61.8611 24.8429 61.8973 24.9217 61.9166C25.0998 61.9707 25.2828 62.0117 25.4622 62.0598C25.8525 62.1533 26.1994 62.3771 26.4456 62.6942C26.5965 62.89 26.7063 63.1143 26.7684 63.3536C26.8304 63.593 26.8435 63.8424 26.8067 64.0869C26.788 64.2217 26.7607 64.3552 26.7248 64.4865C25.81 67.8906 24.8956 71.2946 23.9816 74.6987C23.9111 75.0145 23.7667 75.309 23.5603 75.5582Z" fill="#0A1F27"/>
<path d="M23.5074 55.75C23.389 55.3111 23.1835 54.9005 22.9031 54.5427C22.6227 54.185 22.2731 53.8873 21.8752 53.6675C21.2778 53.3383 20.6163 53.1421 19.936 53.0922C18.6805 52.9826 17.649 53.434 16.8064 54.3561C16.2837 54.9573 15.865 55.6416 15.5677 56.3807C15.3862 56.8178 15.2291 57.2647 15.0971 57.7192C15.0092 58.0081 14.9466 58.3042 14.8828 58.5991C14.8533 58.7027 14.8659 58.8137 14.9177 58.9082C14.9695 59.0026 15.0565 59.0727 15.1597 59.1035C15.2023 59.1187 15.2457 59.1315 15.2897 59.142C15.5304 59.2058 15.7712 59.2624 16.0119 59.3298L18.8719 60.0989L22.4325 61.0547C22.5 61.074 22.5688 61.0884 22.6383 61.098C22.7235 61.1137 22.8115 61.1 22.8878 61.0591C22.9642 61.0182 23.0243 60.9525 23.0584 60.8729C23.0997 60.7922 23.1339 60.708 23.1607 60.6213C23.4605 59.701 23.6461 58.7474 23.7132 57.7818C23.7599 57.0978 23.6903 56.4107 23.5074 55.75ZM22.6564 60.0929C22.6323 60.1748 22.6046 60.2566 22.5865 60.3397C22.5685 60.4227 22.5264 60.4336 22.4565 60.4083C22.4228 60.3963 22.3879 60.389 22.3542 60.3806L19.0428 59.4911L16.1828 58.7219C16.0264 58.681 15.8699 58.6425 15.7146 58.6015C15.522 58.5498 15.5473 58.5726 15.5846 58.3957C15.6824 57.9635 15.8095 57.5384 15.965 57.1234C16.131 56.6481 16.3405 56.1891 16.5909 55.7524C16.8488 55.2825 17.1809 54.8573 17.5743 54.4933C17.8908 54.1989 18.2681 53.9779 18.6796 53.8458C19.0911 53.7137 19.5266 53.6738 19.9552 53.7289C20.4775 53.779 20.9863 53.9242 21.4563 54.1575C21.7995 54.3287 22.1035 54.5693 22.3488 54.8642C22.5941 55.159 22.7755 55.5017 22.8815 55.8703C23.0523 56.456 23.1199 57.067 23.0813 57.6759C23.0362 58.4952 22.8936 59.3062 22.6564 60.0917V60.0929Z" fill="#0A1F27"/>
<path d="M18.5719 62.2271C17.5323 61.9475 16.4332 61.9824 15.4134 62.3274C14.3937 62.6725 13.4992 63.3121 12.843 64.1655C12.1868 65.0189 11.7984 66.0477 11.7269 67.1219C11.6554 68.196 11.904 69.2673 12.4413 70.2001C12.9786 71.133 13.7804 71.8855 14.7454 72.3627C15.7104 72.8399 16.7952 73.0201 17.8627 72.8808C18.9301 72.7414 19.9323 72.2886 20.7424 71.5797C21.5526 70.8708 22.1343 69.9376 22.4141 68.898C22.5999 68.2077 22.6479 67.4876 22.5553 66.7788C22.4628 66.0699 22.2315 65.3862 21.8747 64.7668C21.5179 64.1473 21.0426 63.6042 20.4759 63.1684C19.9092 62.7327 19.2622 62.4128 18.5719 62.2271ZM20.8734 70.6531C20.3091 71.3153 19.5775 71.8142 18.7548 72.0975C18.1991 72.2911 17.6135 72.3844 17.0251 72.3731C16.7606 72.3654 16.4975 72.3328 16.2391 72.2756C16.1187 72.2516 16.008 72.2311 15.8948 72.1962C15.5175 72.1005 15.1536 71.9582 14.8115 71.7725C13.9432 71.2865 13.2408 70.551 12.7953 69.6612C12.4441 68.9463 12.2667 68.1586 12.2777 67.3621C12.2825 67.1165 12.3103 66.8719 12.3608 66.6315C12.4137 66.3527 12.4873 66.0783 12.5811 65.8106C12.755 65.3132 13.0145 64.85 13.3478 64.4419C13.8882 63.7641 14.599 63.2419 15.4073 62.9289C15.9422 62.7242 16.508 62.6118 17.0805 62.5967C17.3927 62.5912 17.7046 62.619 18.011 62.6797C18.2001 62.7154 18.3874 62.7608 18.5719 62.8157C19.2211 63.0015 19.8214 63.3278 20.3305 63.7715C20.9727 64.3193 21.4617 65.0243 21.7497 65.8178C21.9538 66.3814 22.0561 66.9769 22.0518 67.5764C22.0462 67.8139 22.0212 68.0507 21.9772 68.2842C21.9399 68.4874 21.8913 68.6883 21.8315 68.886C21.6464 69.5371 21.3192 70.139 20.8734 70.6482V70.6531Z" fill="#0A1F27"/>
<path d="M21.3059 66.2559C21.3091 66.1784 21.2968 66.1011 21.2698 66.0284C21.253 65.9827 21.2373 65.9369 21.2181 65.8936C21.1391 65.6893 20.9914 65.5191 20.8004 65.4121C20.5271 65.2701 20.5596 65.2568 20.2094 65.246C19.9726 65.2375 19.7406 65.3144 19.5557 65.4627C18.673 66.1568 17.7903 66.8525 16.9076 67.5499L16.2263 68.0867C16.2081 68.0755 16.1942 68.0586 16.1866 68.0386C15.9567 67.6402 15.7304 67.2405 15.4956 66.8445C15.4107 66.6764 15.279 66.5364 15.1165 66.4413C15.0575 66.41 14.9961 66.3787 14.9407 66.3462C14.8664 66.3068 14.7841 66.285 14.7 66.2824C14.6555 66.2824 14.6097 66.2824 14.564 66.2824C14.3707 66.266 14.177 66.308 14.0079 66.4028C13.8627 66.4722 13.7382 66.5784 13.6468 66.7109C13.5869 66.8062 13.533 66.9051 13.4855 67.007C13.4588 67.0623 13.4444 67.1226 13.4433 67.184C13.4433 67.2754 13.4361 67.3657 13.4337 67.456C13.4298 67.5125 13.4364 67.5692 13.453 67.6233C13.4877 67.744 13.5353 67.8607 13.595 67.9712C13.9128 68.5213 14.2318 69.0726 14.5471 69.6251C14.6271 69.764 14.7185 69.8961 14.8204 70.0199C14.9197 70.1446 15.0424 70.2489 15.1815 70.3268L15.3849 70.4364C15.5028 70.4995 15.6313 70.5404 15.7641 70.5567C15.8604 70.5664 15.9555 70.5652 16.0518 70.57C16.4053 70.5868 16.7525 70.4714 17.0256 70.2462C18.2814 69.2615 19.5349 68.2749 20.7859 67.2863C21.1109 67.0311 21.0435 67.0828 21.2349 66.7362C21.2735 66.6617 21.2945 66.5793 21.2963 66.4954C21.3059 66.416 21.3059 66.3353 21.3059 66.2559ZM20.5211 66.7855L19.5834 67.5246L16.7174 69.7803C16.501 69.9557 16.2243 70.0392 15.947 70.0127C15.8881 70.0127 15.8267 69.9934 15.8014 69.9886C15.5487 69.9263 15.3266 69.7755 15.1755 69.5637C15.1456 69.5226 15.1178 69.48 15.0924 69.4361C14.753 68.8471 14.4139 68.2585 14.0753 67.6703C14.0103 67.5651 13.9799 67.4421 13.9886 67.3188C13.9939 67.2412 14.0169 67.1659 14.056 67.0987C14.095 67.0315 14.149 66.9742 14.2137 66.9312C14.2726 66.8879 14.3398 66.8573 14.4112 66.8414C14.4826 66.8255 14.5564 66.8247 14.6281 66.839C14.6998 66.8532 14.7677 66.8823 14.8276 66.9243C14.8874 66.9663 14.9378 67.0203 14.9756 67.0828C15.0599 67.2225 15.1406 67.3645 15.2164 67.5065C15.4692 67.9447 15.7211 68.3828 15.9723 68.821C16.0397 68.9414 16.0445 68.9414 16.1469 68.8583C17.3794 67.8881 18.6112 66.9171 19.8422 65.9453C19.9549 65.849 20.0997 65.7983 20.2479 65.8033C20.3232 65.8085 20.3966 65.8296 20.4633 65.8651C20.53 65.9006 20.5884 65.9498 20.6347 66.0095C20.6811 66.0691 20.7143 66.1379 20.7323 66.2112C20.7503 66.2846 20.7525 66.3609 20.739 66.4353C20.7118 66.5745 20.6348 66.699 20.5223 66.7855H20.5211Z" fill="#0A1F27"/>
</svg>
