<svg width="130" height="130" viewBox="0 0 130 130" fill="none" xmlns="http://www.w3.org/2000/svg">
<path opacity="0.15" d="M117.834 108.987L16.0594 108.935C16.0594 108.935 -1.14033 77.1574 8.03189 55.9C17.2041 34.6426 30.6025 49.648 31.7196 34.2887C31.7581 33.7687 31.728 33.2547 31.728 32.7516C31.728 32.6312 31.728 32.5109 31.728 32.3965C32.0723 23.5758 36.3647 17.875 42.0305 14.5949C42.2135 14.489 42.3976 14.3855 42.583 14.2844C51.6168 9.37567 63.832 10.3856 69.2402 14.607C78.4413 21.7871 78.3884 30.4309 97.3828 27.5793C116.377 24.7277 120.009 48.5695 115.065 60.716C108.048 77.9507 134.525 75.1208 117.834 108.987Z" fill="#196181"/>
<path d="M64.4001 124.085C96.2906 124.085 122.143 118.498 122.143 111.606C122.143 104.714 96.2906 99.1274 64.4001 99.1274C32.5096 99.1274 6.65723 104.714 6.65723 111.606C6.65723 118.498 32.5096 124.085 64.4001 124.085Z" fill="#E5F2FC"/>
<path d="M40.3076 65.9051C39.9695 64.5917 39.4484 63.3324 38.7596 62.164L40.3389 59.7879L38.1482 57.596L35.9562 55.404L33.5801 56.9845C32.4112 56.2948 31.1516 55.7721 29.8378 55.4317L29.2757 52.6367H23.0718L22.5096 55.4317C21.1958 55.7721 19.9362 56.2948 18.7673 56.9845L16.3912 55.404L14.2041 57.596L12.0085 59.7879L13.5878 62.164C12.8982 63.3322 12.3763 64.5916 12.0374 65.9051L9.24121 66.4685V72.6676L12.0374 73.2297C12.3764 74.5437 12.8987 75.8036 13.589 76.972L12.0085 79.3481L14.2041 81.54L16.3948 83.732L18.7709 82.1515C19.9387 82.8409 21.1971 83.3636 22.5096 83.7043L23.0718 86.4993H29.272L29.8342 83.7043C31.148 83.3639 32.4076 82.8412 33.5765 82.1515L35.9526 83.732L38.1445 81.54L40.3353 79.3481L38.7596 76.972C39.4499 75.8036 39.9722 74.5437 40.3112 73.2297L43.1062 72.6676V66.4685L40.3076 65.9051ZM26.1713 80.4302C24.0227 80.4302 21.9224 79.793 20.136 78.5992C18.3495 77.4054 16.9573 75.7086 16.1353 73.7234C15.3134 71.7383 15.0986 69.5539 15.5182 67.4467C15.9378 65.3395 16.973 63.404 18.4927 61.8851C20.0124 60.3663 21.9484 59.3322 24.0559 58.9138C26.1633 58.4953 28.3476 58.7113 30.3323 59.5344C32.317 60.3574 34.013 61.7506 35.2058 63.5377C36.3987 65.3247 37.0347 67.4254 37.0335 69.574C37.0319 72.4538 35.8868 75.2151 33.8499 77.2509C31.813 79.2866 29.0511 80.4302 26.1713 80.4302Z" fill="#9BD2EA"/>
<path d="M45.123 32.9948C44.844 31.9167 44.4154 30.8831 43.8495 29.9241L45.1459 27.9741L43.3475 26.1686L41.548 24.3702L39.6016 25.6726C38.6423 25.1065 37.6082 24.6779 36.5297 24.3991L36.0687 22.1049H30.9759L30.5148 24.3991C29.4369 24.6782 28.4033 25.1068 27.4442 25.6726L25.4942 24.3762L23.6959 26.1746L21.8963 27.9801L23.1927 29.9301C22.6273 30.8894 22.1987 31.9229 21.9192 33.0008L19.6201 33.463V38.5511L21.9144 39.0133C22.1936 40.0912 22.6223 41.1248 23.1879 42.0839L21.8915 44.0339L23.691 45.8395L25.4894 47.6378L27.4442 46.3294C28.4036 46.8953 29.4376 47.324 30.516 47.6029L30.9771 49.8972H36.0663L36.5273 47.6029C37.6066 47.3244 38.6415 46.8957 39.6016 46.3294L41.5516 47.6258L43.3511 45.8275L45.1495 44.0219L43.8531 42.0719C44.4192 41.113 44.8479 40.0793 45.1266 39.0012L47.4209 38.539V33.463L45.123 32.9948ZM33.5205 44.9114C31.757 44.9117 30.033 44.3889 28.5667 43.4093C27.1003 42.4298 25.9573 41.0373 25.2824 39.4081C24.6074 37.7789 24.4307 35.9861 24.7747 34.2565C25.1187 32.5269 25.9679 30.9381 27.2148 29.6912C28.4618 28.4442 30.0506 27.595 31.7802 27.251C33.5098 26.907 35.3026 27.0837 36.9318 27.7587C38.561 28.4336 39.9534 29.5766 40.933 31.043C41.9126 32.5094 42.4354 34.2333 42.4351 35.9968C42.4357 37.1679 42.2056 38.3276 41.7579 39.4098C41.3102 40.4919 40.6536 41.4752 39.8258 42.3035C38.9979 43.1318 38.015 43.7889 36.9331 44.2372C35.8512 44.6855 34.6916 44.9162 33.5205 44.9162V44.9114Z" fill="#9BD2EA"/>
<path d="M89.2062 33.5569H31.4766V112.503H89.2062V33.5569Z" fill="#196181"/>
<path d="M79.769 35.6874H40.9122C37.0591 35.6874 33.9355 38.8109 33.9355 42.664V103.351C33.9355 107.204 37.0591 110.328 40.9122 110.328H79.769C83.6221 110.328 86.7456 107.204 86.7456 103.351V42.664C86.7456 38.8109 83.6221 35.6874 79.769 35.6874Z" fill="#C6E4F1"/>
<path d="M50.917 33.5569V36.246C50.9168 36.5989 50.9862 36.9485 51.1211 37.2747C51.2561 37.6008 51.4539 37.8972 51.7034 38.1469C51.9529 38.3966 52.2491 38.5947 52.5751 38.73C52.9012 38.8652 53.2507 38.9349 53.6037 38.935H68.0325C68.3854 38.9349 68.7349 38.8652 69.061 38.73C69.387 38.5947 69.6832 38.3966 69.9327 38.1469C70.1822 37.8972 70.3801 37.6008 70.515 37.2747C70.6499 36.9485 70.7193 36.5989 70.7191 36.246V33.5569H50.917Z" fill="#1F80A9"/>
<path d="M77.0105 75.4723C76.9114 75.4726 76.8135 75.4513 76.7237 75.4097C76.6338 75.3681 76.5542 75.3072 76.4905 75.2315L73.5462 71.6565C73.4322 71.5186 73.3777 71.3411 73.3946 71.163C73.4116 70.9848 73.4986 70.8208 73.6365 70.7068C73.7744 70.5928 73.9519 70.5383 74.13 70.5552C74.3081 70.5722 74.4722 70.6592 74.5862 70.7971L76.9166 73.6246L81.1452 66.5227C81.1886 66.4428 81.2477 66.3724 81.3189 66.3159C81.3902 66.2593 81.4721 66.2178 81.5598 66.1937C81.6476 66.1696 81.7392 66.1635 81.8294 66.1757C81.9195 66.1879 82.0063 66.2182 82.0844 66.2648C82.1625 66.3114 82.2305 66.3732 82.2841 66.4467C82.3377 66.5202 82.376 66.6037 82.3965 66.6924C82.417 66.781 82.4195 66.8728 82.4036 66.9624C82.3878 67.052 82.354 67.1374 82.3043 67.2136L77.5858 75.1328C77.5303 75.2257 77.4534 75.3038 77.3614 75.3608C77.2695 75.4178 77.1652 75.4519 77.0574 75.4602L77.0105 75.4723Z" fill="#917F50"/>
<path d="M64.6269 69.2455H43.4092V70.1771H64.6269V69.2455Z" fill="#0A1F27"/>
<path d="M62.9633 73.4066H43.4092V74.3383H62.9633V73.4066Z" fill="#0A1F27"/>
<path d="M57.2409 71.3254H43.4092V72.2571H57.2409V71.3254Z" fill="#0A1F27"/>
<path d="M38.6596 70.0785L37.7099 70.3421L37.5137 69.5886L38.9304 69.136H39.578V74.4479H38.6596V70.0785Z" fill="#0A1F27"/>
<path d="M40.1855 74.1121C40.1855 74.0456 40.2053 73.9806 40.2422 73.9254C40.2792 73.8701 40.3317 73.8271 40.3931 73.8017C40.4546 73.7763 40.5222 73.7697 40.5873 73.7828C40.6525 73.7958 40.7124 73.8279 40.7593 73.875C40.8062 73.9221 40.8381 73.9821 40.8509 74.0473C40.8637 74.1125 40.8569 74.1801 40.8313 74.2414C40.8057 74.3028 40.7625 74.3551 40.7071 74.3919C40.6517 74.4287 40.5867 74.4481 40.5202 74.4479C40.4761 74.4479 40.4325 74.4392 40.3918 74.4223C40.3512 74.4054 40.3142 74.3807 40.2831 74.3495C40.252 74.3183 40.2274 74.2812 40.2107 74.2405C40.1939 74.1998 40.1854 74.1561 40.1855 74.1121Z" fill="#0A1F27"/>
<path d="M77.0853 89.735C76.9863 89.7357 76.8883 89.7144 76.7984 89.6728C76.7085 89.6312 76.6289 89.5702 76.5653 89.4942L73.6175 85.9289C73.561 85.8606 73.5186 85.7818 73.4926 85.6971C73.4666 85.6125 73.4575 85.5235 73.4659 85.4353C73.4743 85.3471 73.5 85.2614 73.5415 85.1832C73.583 85.1049 73.6395 85.0356 73.7078 84.9791C73.776 84.9227 73.8548 84.8803 73.9395 84.8543C74.0241 84.8283 74.1131 84.8192 74.2013 84.8276C74.2895 84.836 74.3752 84.8616 74.4534 84.9031C74.5317 84.9446 74.601 85.0011 74.6575 85.0694L76.9951 87.8969L81.2237 80.7951C81.2671 80.7151 81.3262 80.6447 81.3974 80.5882C81.4687 80.5317 81.5506 80.4901 81.6383 80.466C81.7261 80.4419 81.8177 80.4358 81.9079 80.448C81.998 80.4602 82.0848 80.4905 82.1629 80.5371C82.2411 80.5837 82.309 80.6456 82.3626 80.7191C82.4162 80.7925 82.4545 80.8761 82.475 80.9647C82.4956 81.0533 82.498 81.1452 82.4821 81.2348C82.4663 81.3243 82.4325 81.4098 82.3828 81.486L77.6643 89.4051C77.6093 89.4981 77.5326 89.5764 77.4408 89.6334C77.349 89.6904 77.2448 89.7244 77.1371 89.7326L77.0853 89.735Z" fill="#917F50"/>
<path d="M37.4736 87.9908L39.2792 86.4573C40.0014 85.8554 40.259 85.5148 40.259 85.0441C40.259 84.5277 39.8979 84.228 39.4164 84.228C38.9349 84.228 38.6087 84.4904 38.2043 85.014L37.5543 84.5049C38.055 83.8019 38.5485 83.4059 39.4802 83.4059C40.5058 83.4059 41.2087 84.0342 41.2087 84.9839C41.2087 85.8073 40.767 86.2478 39.8473 87.011L38.77 87.9089H41.2605V88.713H37.4736V87.9908Z" fill="#0A1F27"/>
<path d="M41.8818 88.382C41.8818 88.3161 41.9014 88.2516 41.938 88.1968C41.9747 88.1419 42.0267 88.0992 42.0877 88.074C42.1486 88.0487 42.2156 88.0421 42.2803 88.055C42.345 88.0679 42.4044 88.0996 42.451 88.1462C42.4977 88.1929 42.5294 88.2523 42.5423 88.317C42.5551 88.3816 42.5485 88.4487 42.5233 88.5096C42.4981 88.5705 42.4553 88.6226 42.4005 88.6592C42.3457 88.6959 42.2812 88.7154 42.2153 88.7154C42.1268 88.7154 42.042 88.6803 41.9795 88.6178C41.917 88.5552 41.8818 88.4704 41.8818 88.382Z" fill="#0A1F27"/>
<path d="M65.8812 83.5129H43.585V84.4446H65.8812V83.5129Z" fill="#0A1F27"/>
<path d="M64.1334 87.6754H43.585V88.6071H64.1334V87.6754Z" fill="#0A1F27"/>
<path d="M58.1197 85.5941H43.585V86.5258H58.1197V85.5941Z" fill="#0A1F27"/>
<path d="M77.0853 104.107C76.9863 104.108 76.8884 104.086 76.7985 104.045C76.7086 104.003 76.629 103.942 76.5653 103.866L73.6175 100.301C73.561 100.233 73.5186 100.154 73.4926 100.069C73.4666 99.9846 73.4575 99.8957 73.4659 99.8075C73.4743 99.7193 73.5 99.6336 73.5415 99.5553C73.583 99.4771 73.6395 99.4078 73.7078 99.3513C73.776 99.2949 73.8548 99.2525 73.9395 99.2265C74.0241 99.2004 74.1131 99.1914 74.2013 99.1998C74.2895 99.2081 74.3752 99.2338 74.4534 99.2753C74.5317 99.3168 74.601 99.3733 74.6575 99.4416L76.9951 102.269L81.2237 95.1672C81.2671 95.0873 81.3262 95.0169 81.3974 94.9604C81.4687 94.9038 81.5506 94.8623 81.6383 94.8382C81.7261 94.8141 81.8177 94.808 81.9079 94.8202C81.998 94.8324 82.0848 94.8627 82.1629 94.9093C82.2411 94.9559 82.309 95.0178 82.3626 95.0912C82.4162 95.1647 82.4545 95.2483 82.475 95.3369C82.4956 95.4255 82.498 95.5174 82.4821 95.6069C82.4663 95.6965 82.4325 95.782 82.3828 95.8582L77.6643 103.777C77.6091 103.87 77.5324 103.948 77.4406 104.005C77.3489 104.062 77.2448 104.096 77.1371 104.105L77.0853 104.107Z" fill="#917F50"/>
<path d="M65.8812 97.8864H43.585V98.818H65.8812V97.8864Z" fill="#0A1F27"/>
<path d="M64.1334 102.048H43.585V102.979H64.1334V102.048Z" fill="#0A1F27"/>
<path d="M58.1197 99.9675H43.585V100.899H58.1197V99.9675Z" fill="#0A1F27"/>
<path d="M37.4062 102.139L38.0358 101.553C38.3969 101.985 38.8122 102.227 39.3827 102.227C39.8883 102.227 40.2687 101.919 40.2687 101.436C40.2687 100.931 39.8076 100.645 39.0902 100.645H38.6725L38.5269 100.082L39.91 98.6098H37.6927V97.8274H41.0812V98.5003L39.6536 99.964C40.4661 100.084 41.1618 100.498 41.1618 101.422C41.1618 102.365 40.43 103.039 39.3683 103.039C38.994 103.051 38.6221 102.975 38.2817 102.819C37.9414 102.663 37.6418 102.43 37.4062 102.139Z" fill="#0A1F27"/>
<path d="M41.4209 102.713C41.4209 102.649 41.4401 102.586 41.476 102.532C41.5119 102.478 41.5629 102.436 41.6226 102.412C41.6822 102.387 41.7479 102.381 41.8112 102.393C41.8745 102.406 41.9326 102.437 41.9782 102.483C42.0238 102.529 42.0547 102.587 42.0672 102.65C42.0796 102.714 42.073 102.779 42.0481 102.839C42.0233 102.899 41.9813 102.949 41.9275 102.985C41.8737 103.021 41.8105 103.04 41.7459 103.039C41.7031 103.039 41.6608 103.031 41.6213 103.015C41.5817 102.998 41.5459 102.974 41.5157 102.944C41.4855 102.914 41.4616 102.878 41.4453 102.838C41.429 102.798 41.4207 102.756 41.4209 102.713Z" fill="#0A1F27"/>
<path d="M62.7959 40.8694C64.8927 40.8694 66.9896 40.8694 69.0864 40.8694C69.2706 40.8694 69.344 40.8983 69.3416 41.1101C69.3308 42.4342 69.3332 43.7498 69.3416 45.0691C69.3416 45.2581 69.2887 45.3098 69.1009 45.3098C68.7506 45.2954 68.3991 45.293 68.0488 45.3098C67.8322 45.3207 67.7563 45.2725 67.7624 45.0342C67.7804 44.2891 67.772 43.5428 67.7624 42.7977C67.7624 42.4366 67.843 42.4474 67.4217 42.4474H59.2341C58.8309 42.4474 58.4276 42.4571 58.0244 42.4474C57.8523 42.4474 57.8137 42.5016 57.815 42.6641C57.8222 43.4778 57.815 44.2903 57.8222 45.1028C57.8222 45.2725 57.7752 45.3183 57.6079 45.3135C57.2059 45.3026 56.8026 45.305 56.4042 45.3135C56.2706 45.3135 56.2225 45.2786 56.2237 45.1389C56.2237 43.7811 56.2297 42.4234 56.2237 41.0668C56.2237 40.8598 56.344 40.885 56.4644 40.885L62.7959 40.8694Z" fill="#3AABE1"/>
<path d="M66.0091 46.2474C66.5327 46.2474 67.0467 46.2474 67.5607 46.2474C67.681 46.2474 67.7159 46.3124 67.7653 46.3871L68.4971 47.4824C68.7499 47.1081 68.9931 46.7602 69.2194 46.4063C69.2493 46.352 69.2946 46.3078 69.3497 46.2793C69.4048 46.2508 69.4671 46.2393 69.5287 46.2462C70.0102 46.2559 70.4989 46.2462 70.9828 46.2462C71.0129 46.3317 70.9491 46.3762 70.9142 46.4292C70.4327 47.1514 69.9512 47.8652 69.4697 48.5766C69.4314 48.6193 69.4102 48.6746 69.4102 48.7319C69.4102 48.7892 69.4314 48.8445 69.4697 48.8872C69.9669 49.6299 70.4556 50.3774 70.9467 51.1237C70.9659 51.1525 70.9816 51.185 71.0177 51.2512C70.6024 51.2512 70.21 51.2272 69.8224 51.2585C69.4613 51.2862 69.2206 51.1947 69.0557 50.8564C68.8897 50.5662 68.7056 50.2868 68.5044 50.0199C68.2564 50.3882 68.0145 50.7361 67.7821 51.0924C67.753 51.1469 67.7082 51.1916 67.6535 51.2205C67.5988 51.2495 67.5367 51.2614 67.4752 51.2549C66.9841 51.2452 66.4918 51.2549 65.9609 51.2549C66.2149 50.8769 66.452 50.5218 66.6904 50.1715C66.9733 49.7514 67.2501 49.3289 67.545 48.9161C67.5873 48.8713 67.6109 48.8121 67.6109 48.7505C67.6109 48.689 67.5873 48.6298 67.545 48.585C67.0635 47.8797 66.5821 47.1671 66.1078 46.4569C66.0519 46.4005 66.017 46.3265 66.0091 46.2474Z" fill="#333333"/>
<path d="M57.8238 46.9745C58.0009 46.6726 58.2709 46.4361 58.5936 46.3005C58.9162 46.1649 59.2741 46.1374 59.6137 46.2222C59.7076 46.2499 59.7016 46.3016 59.7016 46.3678C59.7016 46.7626 59.7016 47.1574 59.7016 47.5523C59.7016 47.6726 59.6534 47.6871 59.5559 47.6654C59.3878 47.6296 59.215 47.6218 59.0444 47.6425C58.2716 47.734 57.831 48.2384 57.8226 49.0581C57.8142 49.7286 57.8166 50.4002 57.8226 51.0707C57.8226 51.2127 57.7913 51.2597 57.6408 51.2561C57.2388 51.2452 56.8368 51.2476 56.4371 51.2561C56.3095 51.2561 56.2734 51.22 56.2734 51.0936C56.2734 49.5368 56.2734 47.9796 56.2734 46.422C56.2734 46.2872 56.3108 46.2426 56.4504 46.245C56.8524 46.2547 57.2557 46.2559 57.6541 46.245C57.8021 46.245 57.8298 46.2968 57.8226 46.4256C57.8166 46.5833 57.8238 46.7494 57.8238 46.9745Z" fill="#343333"/>
<path d="M60.5548 48.75C60.5548 47.982 60.5548 47.214 60.5548 46.4461C60.5548 46.2932 60.5885 46.2402 60.7498 46.245C61.1519 46.2571 61.5551 46.2523 61.9535 46.245C62.0667 46.245 62.1281 46.2547 62.1281 46.3967C62.1233 47.9696 62.1233 49.5428 62.1281 51.1164C62.1281 51.2224 62.0992 51.2573 61.9909 51.2561C61.5575 51.25 61.1254 51.2464 60.6921 51.2561C60.532 51.2561 60.5548 51.1694 60.5548 51.0731V48.75Z" fill="#333333"/>
<path d="M65.0754 48.7704C65.0754 49.5372 65.0754 50.3039 65.0754 51.0707C65.0754 51.2139 65.0441 51.2597 64.8949 51.2561C64.4928 51.2452 64.0896 51.2476 63.6912 51.2561C63.5552 51.2561 63.4998 51.2356 63.501 51.0779C63.5074 49.53 63.5074 47.9812 63.501 46.4316C63.501 46.2884 63.5347 46.2402 63.6852 46.2438C64.08 46.2547 64.4748 46.2559 64.8696 46.2438C65.0333 46.2438 65.0827 46.2775 65.0803 46.4497C65.0694 47.2212 65.0754 47.9964 65.0754 48.7704Z" fill="#343333"/>
<path d="M61.353 43.4151C61.5896 43.421 61.8146 43.5184 61.981 43.6867C62.1473 43.8551 62.2419 44.0813 62.2449 44.3179C62.2454 44.4976 62.1924 44.6734 62.0926 44.8228C61.9928 44.9723 61.8508 45.0886 61.6847 45.1571C61.5186 45.2256 61.3358 45.2431 61.1597 45.2073C60.9836 45.1716 60.8221 45.0842 60.6958 44.9564C60.5695 44.8286 60.4842 44.6661 60.4505 44.4895C60.4169 44.313 60.4366 44.1305 60.5071 43.9652C60.5776 43.7999 60.6957 43.6593 60.8463 43.5614C60.9969 43.4634 61.1733 43.4125 61.353 43.4151Z" fill="#3AABE1"/>
<path d="M65.1732 44.2962C65.1767 44.5335 65.0861 44.7624 64.9212 44.933C64.7563 45.1036 64.5305 45.2018 64.2933 45.2062C64.0524 45.2019 63.8227 45.1042 63.6525 44.9338C63.4823 44.7633 63.3849 44.5335 63.3809 44.2926C63.3874 44.0593 63.4841 43.8375 63.6506 43.6739C63.8171 43.5103 64.0406 43.4175 64.274 43.4151C64.3913 43.4126 64.5079 43.4335 64.6169 43.4766C64.726 43.5198 64.8253 43.5843 64.9091 43.6664C64.9929 43.7485 65.0594 43.8465 65.1048 43.9546C65.1501 44.0628 65.1734 44.1789 65.1732 44.2962Z" fill="#3AABE1"/>
<path d="M54.2266 47.9075C54.0953 47.8376 53.9629 47.7714 53.8137 47.6944C53.8654 47.6679 53.904 47.6463 53.9437 47.627C54.9066 47.1588 55.0511 45.5807 54.1844 44.9126C53.8079 44.6409 53.3613 44.483 52.8977 44.4576C51.8709 44.3662 50.8405 44.4408 49.8114 44.4167C49.6729 44.4167 49.6778 44.4877 49.6778 44.584C49.6778 46.7507 49.6778 48.9198 49.6778 51.0913C49.6778 51.2333 49.7199 51.2622 49.8535 51.261C50.6889 51.255 51.5242 51.261 52.3596 51.261C52.9735 51.2538 53.5802 51.1936 54.1387 50.8999C54.7405 50.5881 55.0126 50.0753 55.0547 49.4193C55.0896 48.738 54.832 48.2252 54.2266 47.9075ZM51.2438 46.0056C51.2438 45.8973 51.2642 45.8443 51.3894 45.8467C51.7915 45.8539 52.1947 45.8407 52.5931 45.8467C52.9639 45.8576 53.1721 46.0814 53.1697 46.4426C53.173 46.5214 53.1601 46.6 53.1319 46.6736C53.1037 46.7473 53.0606 46.8143 53.0055 46.8707C52.9504 46.9271 52.8843 46.9716 52.8113 47.0015C52.7383 47.0313 52.6599 47.046 52.5811 47.0444C52.3801 47.0516 52.1791 47.0444 51.9792 47.0444C51.7794 47.0444 51.5916 47.0444 51.3991 47.0444C51.2871 47.0444 51.239 47.0179 51.2414 46.8964C51.251 46.5954 51.2486 46.2981 51.2438 45.9996V46.0056ZM53.3466 49.4133C53.2371 49.7214 52.9795 49.8033 52.693 49.8226C52.4776 49.837 52.2609 49.8226 52.0454 49.8226C51.8288 49.8226 51.6133 49.8226 51.3966 49.8226C51.2847 49.8226 51.2402 49.7973 51.2426 49.6745C51.2506 49.3254 51.2506 48.9755 51.2426 48.6249C51.2426 48.5045 51.2787 48.4732 51.3942 48.4756C51.8336 48.4828 52.2741 48.4672 52.7183 48.4864C53.2552 48.5093 53.5224 48.9101 53.3466 49.4073V49.4133Z" fill="#343333"/>
<path d="M87.9258 65.3611C87.9258 65.3611 94.5618 67.5037 96.0929 67.1257C96.903 66.9259 98.1693 65.7776 99.3429 64.5401C99.5367 64.3343 99.7293 64.1261 99.9171 63.9214C101.213 62.4938 102.274 61.1337 102.274 61.1337C102.274 61.1337 105.488 57.3661 102.909 55.6881C102.147 55.7977 101.444 56.1596 100.911 56.7161C100.051 57.6381 99.2442 59.1066 99.0191 59.5977C98.794 60.0888 95.6367 64.6425 95.473 64.7448C95.3093 64.8471 93.9298 64.4848 92.8248 64.3921C91.0193 64.2428 88.3218 63.3232 88.3218 63.3232L87.9258 65.3611Z" fill="#1A7FAA"/>
<path d="M97.0478 106.245C97.0478 106.245 96.2052 107.756 95.7009 108.062C95.0762 108.443 93.864 109.667 93.4391 109.724C93.0142 109.78 91.4927 110.05 91.7876 110.909C92.0284 111.615 95.6612 111.511 96.0704 111.16C96.4797 110.808 97.7051 109.537 98.1998 109.568C98.6945 109.6 98.5115 111.396 98.5115 111.396H99.0472C99.0472 111.396 99.235 109.644 99.2578 109.343C99.324 108.452 98.6897 107.796 98.656 107.288C98.6223 106.781 98.5982 106.4 98.5982 106.4L97.0478 106.245Z" fill="#1E7FAA"/>
<path d="M93.5615 109.683C93.5615 109.683 94.758 110.096 95.68 109.562C96.6021 109.029 98.3703 108.229 98.9962 108.223C98.9962 108.223 98.6544 107.179 98.6472 107.062C98.6399 106.945 98.6026 106.397 98.6026 106.397L97.0571 106.149C97.0571 106.149 96.0544 107.621 95.6126 107.969C95.1709 108.316 94.037 109.183 93.5615 109.683Z" fill="#FBFAF2"/>
<path d="M111.649 107.666C111.649 107.666 111.498 108.711 111.336 108.991C111.173 109.27 110.724 110.729 110.521 110.999C110.317 111.27 109.87 113.308 110.521 113.553C111.172 113.797 112.707 114.204 113.223 113.39C113.653 112.722 113.83 111.924 113.725 111.137C113.643 110.512 113.024 107.646 113.033 107.362C113.041 107.078 111.649 107.666 111.649 107.666Z" fill="#FBFAF2"/>
<path d="M110.781 110.442C110.781 110.442 110.711 112.024 111.906 112.024C113.101 112.024 113.63 110.579 113.63 110.579C113.63 110.579 114.037 111.286 113.63 112.793C113.223 114.3 111.526 113.988 111.145 113.934C110.765 113.88 108.963 113.408 110.781 110.442Z" fill="#1E7FAA"/>
<path d="M109.677 71.6203C109.677 71.6203 111.221 73.5884 111.766 74.8896C112.312 76.1908 113.219 79.046 113.099 81.2572C112.978 83.4684 112.25 87.6164 112.462 88.5553C112.674 89.4941 112.886 91.4309 113.113 92.0978C113.341 92.7646 114.249 94.7026 114.34 96.7007C114.43 98.6989 113.693 107.467 113.754 108.284C113.814 109.101 111.105 108.602 111.105 108.602C111.105 108.602 111.037 100.698 110.733 99.3332C110.43 97.9682 110.068 93.3364 109.795 93.0041C109.521 92.6719 108.758 89.1523 108.711 88.5841C108.664 88.016 105.424 78.4249 105.242 76.7878C105.06 75.1508 101.004 71.6119 101.004 71.6119C101.004 71.6119 104.983 70.0977 109.677 71.6203Z" fill="#0C4055"/>
<path d="M99.615 106.678C100.19 106.588 101.731 97.7299 101.551 96.1554C101.37 94.581 101.189 91.2202 101.702 89.8588C102.039 88.9633 104.151 84.4061 105.57 81.2066C105.771 80.7552 105.957 80.3315 106.123 79.9475C106.574 78.9063 106.872 78.1685 106.879 78.0216C106.911 77.4198 108.885 66.9837 101.084 71.6251C101.05 72.0038 100.994 72.3801 100.915 72.7518C100.822 73.0551 98.7339 80.7769 98.5221 83.7452C98.3102 86.7136 97.7649 89.2293 97.6795 89.8637C97.594 90.498 97.7697 92.6177 97.9515 93.163C98.1333 93.7083 96.7695 106.014 96.6792 106.317C96.5889 106.62 99.0397 106.768 99.615 106.678Z" fill="#0C4055"/>
<path d="M104.144 55.1368C104.144 55.1368 102.668 55.8326 102.155 55.9361C101.642 56.0396 99.6538 58.6204 99.3059 59.5629C98.958 60.5054 99.3059 61.9209 100.028 63.5808C100.75 65.2407 100.068 65.7956 100.389 67.4556C100.711 69.1155 101.003 72.6315 100.942 73.5535C100.88 74.4756 109.233 74.6525 111.139 72.9721C111.139 72.9721 109.224 70.1025 108.979 69.692C108.733 69.2816 108.938 67.0439 109.164 66.4733C109.391 65.9028 110.988 61.159 110.988 61.159C110.988 61.159 112.119 57.271 111.011 56.4092C110.048 55.6605 107.421 55.3932 106.951 55.2295C106.48 55.0658 105.108 54.9936 104.144 55.1368Z" fill="#1A7FAA"/>
<path d="M103.439 53.4324C103.439 53.4324 103.733 56.1407 103.673 57.0218C103.673 57.0218 105.205 58.5602 106.951 55.2295C106.951 55.2295 106.218 53.8561 106.769 51.9855C107.32 50.115 103.439 53.4324 103.439 53.4324Z" fill="#FBFAF2"/>
<path d="M103.673 57.0231L103.672 58.4266L105.438 57.1085L103.673 57.0231Z" fill="#FBFAF2"/>
<path d="M106.508 74.8849C107.202 78.2119 112.23 74.5105 112.23 74.5105C112.23 74.5105 108.97 69.0312 110.267 64.6534L110.298 64.5499C110.381 64.273 110.463 64.0094 110.546 63.7602C110.561 63.7145 110.576 63.6688 110.591 63.6254C110.873 62.7648 111.105 62.0522 111.292 61.4672C111.871 59.6616 112.04 59.0718 112.04 59.0718C112.04 59.0718 111.792 56.2672 110.406 55.959C109.021 55.6509 107.546 55.3572 107.546 55.3572C107.546 55.3572 105.139 58.4375 105.045 59.8217C104.951 61.206 105.812 71.5566 106.508 74.8849Z" fill="#1A7FAA"/>
<path d="M99.0984 60.2008C99.0984 60.2008 98.9443 62.1111 100.253 64.6136C100.253 64.6136 100.225 67.9683 100.184 69.1359C100.143 70.3035 99.8651 74.7223 99.8651 74.7223L101.31 75.5649C101.375 75.6015 101.449 75.6194 101.523 75.6167C101.598 75.6139 101.671 75.5906 101.733 75.5492C101.795 75.5079 101.845 75.4502 101.876 75.3824C101.908 75.3147 101.92 75.2395 101.911 75.1653C101.505 71.8033 100.182 59.0477 103.048 55.6207L101.771 56.0613C101.771 56.0613 99.0984 58.8611 99.0984 60.2008Z" fill="#1A7FAA"/>
<path d="M101.087 51.9783C101.033 51.6389 100.946 51.3115 100.87 50.9732C100.778 50.4946 100.738 50.0075 100.75 49.5203C100.749 49.4314 100.733 49.3432 100.7 49.2603C100.594 48.8035 100.525 48.3391 100.492 47.8713C100.999 45.0197 103.426 44.59 104.505 44.6935C108.868 45.1136 108.311 48.8318 106.971 51.2079C105.63 53.584 102.998 53.9993 102.315 53.9825C101.631 53.9656 101.088 51.9795 101.088 51.9795L101.087 51.9783Z" fill="#FBFAF2"/>
<path d="M94.2463 67.3942L88.4602 66.247L84.1689 57.0652L90.3451 57.7128L94.2463 67.3942Z" fill="#917F50"/>
<path d="M103.436 53.8248C103.475 54.0354 103.515 54.281 103.547 54.547C104.402 54.0685 105.154 53.4283 105.764 52.662C104.923 53.3481 103.436 53.8248 103.436 53.8248Z" fill="#EFEFD8"/>
<path d="M97.0856 66.1928C96.9359 66.2254 96.78 66.2142 96.6366 66.1603C96.2995 66.0038 96.0805 65.4875 95.5773 65.6355C95.0742 65.7836 95.1765 67.4411 95.3703 67.7155C95.5641 67.99 96.3056 67.9924 97.3106 67.5602C98.3157 67.1281 97.0856 66.1928 97.0856 66.1928Z" fill="#FBFAF2"/>
<path d="M95.7555 65.6091C95.1986 65.5475 94.639 65.5145 94.0787 65.5104C93.2987 65.5104 92.3935 65.644 92.3382 65.7908C92.2828 65.9377 93.1206 65.9052 93.8945 65.9582C94.6071 66.0063 94.4627 66.111 94.4627 66.111C94.4627 66.111 94.5024 66.0785 93.7188 66.17C92.8762 66.2675 92.0336 66.4493 91.9794 66.6322C91.9554 66.7213 91.9951 66.7694 92.3093 66.7815C92.1287 66.8116 92.1131 66.8633 92.1215 66.9356C92.1648 67.3147 93.4311 67.3557 93.9343 67.3713C93.5479 67.3617 93.2638 67.3942 93.4528 67.612C93.6658 67.8648 95.4557 67.8456 96.1009 67.8973C96.7979 67.9551 95.7555 65.6091 95.7555 65.6091Z" fill="#FBFAF2"/>
<path d="M110.689 56.0625C110.689 56.0625 109.313 56.3153 108.633 57.3769C107.953 58.4386 107.257 59.9444 107.13 60.4705C107.002 60.9965 104.418 65.8041 104.275 65.9341C104.131 66.0641 102.71 65.9557 101.606 66.0641C99.8004 66.2398 96.9849 65.8233 96.9849 65.8233L96.9561 67.8997C96.9561 67.8997 103.87 68.8145 105.309 68.1669C107.068 67.3773 111.327 61.4262 111.327 61.4262C111.327 61.4262 113.529 57.2506 110.689 56.0625Z" fill="#1C7097"/>
<path d="M107.896 65.7836L110.591 63.6254C110.873 62.7648 111.105 62.0522 111.292 61.4672C111.292 61.4672 108.561 65.0458 107.896 65.7836Z" fill="#1A5A8D"/>
<path d="M99.347 64.5402C99.5408 64.3343 99.7333 64.1261 99.9211 63.9215C99.9211 63.9215 99.1905 61.9799 99.1423 61.153C99.1423 61.1578 98.9714 62.9934 99.347 64.5402Z" fill="#1C7097"/>
<path d="M102.487 44.6466C102.956 44.4913 103.425 44.2193 103.931 44.3421C104.926 44.5828 105.978 44.6599 106.871 45.2485C107.246 45.4892 107.52 45.8335 107.841 46.1284C108.245 46.5822 108.38 47.2358 108.265 48.1325C108.366 47.6138 108.334 47.0777 108.171 46.575C108.118 46.4185 107.995 46.2764 108.05 46.0935C108.951 45.9069 109.746 46.3559 110.156 47.2827C110.578 48.1965 110.663 49.23 110.396 50.2005C109.999 51.645 110.276 52.8956 111.239 54.0162C111.285 54.0706 111.325 54.1295 111.359 54.192C111.553 54.5411 111.692 54.9142 111.415 55.2681C111.156 55.6027 110.794 55.5498 110.439 55.433C110.097 55.9145 109.997 55.953 109.403 55.7797C109.337 55.7582 109.267 55.7501 109.198 55.7558C109.128 55.7616 109.061 55.7812 108.999 55.8134C108.502 56.0421 108.036 55.894 107.754 55.4318C107.651 55.2608 107.58 55.0723 107.545 54.8757C107.337 53.8032 107.294 52.7343 107.554 51.6594C107.778 50.7362 108.067 49.8262 108.147 49.2099C108.126 49.5842 107.771 50.3642 107.37 50.6194C107.204 50.499 107.242 50.2812 107.145 50.1259C107.034 49.9477 106.904 49.7973 106.676 49.8129C106.425 49.8286 106.369 50.0272 106.315 50.2282C106.27 50.4087 106.271 50.5965 106.223 50.7747C106.159 51.0094 106.026 51.0491 105.862 50.8601C105.636 50.5917 105.541 50.2655 105.466 49.9273C105.346 49.4012 105.449 48.8788 105.466 48.354C105.495 47.6438 105.181 47.1575 104.532 46.8831C104.443 46.838 104.346 46.8103 104.247 46.8012C103.751 46.7801 103.262 46.6743 102.802 46.4883C102.153 46.2475 101.358 46.7724 101.083 47.5475C101.002 47.775 100.963 48.0158 100.897 48.2481C100.851 48.4106 100.832 48.5875 100.675 48.6959C100.402 48.7091 100.391 48.4913 100.378 48.3191C100.273 46.9601 100.498 45.7372 101.808 44.9849C101.968 44.8934 102.092 44.7441 102.27 44.6851C102.341 44.665 102.414 44.6521 102.487 44.6466Z" fill="#917F50"/>
<path d="M102.615 51.1418C102.493 51.102 102.366 51.0758 102.237 51.0636C102.178 51.0563 102.117 51.0431 102.117 51.0082C102.117 50.9733 102.13 50.9203 102.161 50.8638C102.223 50.7434 102.282 50.623 102.352 50.4942C102.618 49.9694 102.81 49.5312 102.785 49.5312C102.76 49.5312 102.524 49.9405 102.259 50.4653C102.194 50.5953 102.139 50.7193 102.075 50.8373C102.055 50.865 102.042 50.8964 102.036 50.9296C102.029 50.9628 102.03 50.9969 102.037 51.0299C102.047 51.049 102.06 51.0658 102.077 51.0793C102.093 51.0928 102.112 51.1026 102.133 51.1081C102.166 51.1176 102.199 51.1233 102.234 51.125C102.36 51.144 102.488 51.1496 102.615 51.1418Z" fill="#146080"/>
<path d="M103.656 49.4553C103.652 49.5238 103.675 49.5911 103.72 49.6428C103.765 49.6945 103.828 49.7266 103.896 49.7322C103.93 49.7364 103.964 49.7338 103.996 49.7247C104.028 49.7156 104.059 49.7001 104.085 49.6791C104.111 49.6581 104.133 49.6321 104.149 49.6025C104.165 49.573 104.175 49.5405 104.178 49.5071C104.182 49.4387 104.159 49.3716 104.114 49.3199C104.069 49.2682 104.006 49.2361 103.937 49.2302C103.904 49.226 103.87 49.2286 103.838 49.2377C103.805 49.2468 103.775 49.2623 103.749 49.2833C103.723 49.3043 103.701 49.3303 103.685 49.3599C103.669 49.3894 103.659 49.4219 103.656 49.4553Z" fill="#4797C0"/>
<path d="M101.269 49.4553C101.265 49.5238 101.288 49.5911 101.333 49.6428C101.378 49.6945 101.441 49.7266 101.51 49.7322C101.543 49.7364 101.577 49.7338 101.609 49.7247C101.642 49.7156 101.672 49.7001 101.698 49.6791C101.724 49.6581 101.746 49.6321 101.762 49.6025C101.778 49.573 101.788 49.5405 101.791 49.5071C101.795 49.4386 101.772 49.3713 101.727 49.3196C101.682 49.2678 101.619 49.2358 101.551 49.2302C101.517 49.226 101.483 49.2286 101.451 49.2377C101.419 49.2468 101.389 49.2623 101.362 49.2833C101.336 49.3043 101.314 49.3303 101.298 49.3599C101.282 49.3894 101.272 49.4219 101.269 49.4553Z" fill="#4797C0"/>
<path d="M102.72 52.047C102.803 52.1369 102.909 52.203 103.027 52.2383C103.2 52.2935 103.386 52.301 103.563 52.26C103.695 52.2284 103.81 52.1485 103.886 52.0361L104.006 52.0626C103.978 52.1104 103.944 52.1544 103.905 52.1938C103.817 52.2798 103.706 52.3387 103.585 52.3635C103.388 52.4033 103.184 52.3866 102.996 52.3154C102.869 52.2687 102.76 52.1848 102.681 52.0746C102.63 51.994 102.624 51.9398 102.629 51.9386C102.634 51.9374 102.662 51.9808 102.72 52.047Z" fill="#146080"/>
<path d="M82.5247 54.8251H37.6338V63.6952H82.5247V54.8251Z" fill="#FCFCF5"/>
<path d="M40.697 59.7832V61.6297H39.6787V56.8269H41.0786C41.731 56.8269 42.2125 56.9473 42.5231 57.188C42.8336 57.4288 42.9901 57.7899 42.9925 58.2713C42.9966 58.5408 42.9152 58.8045 42.7602 59.0249C42.5917 59.2549 42.3631 59.434 42.0994 59.5425C42.8216 60.6226 43.2922 61.3199 43.5113 61.6345H42.3822L41.2351 59.7916L40.697 59.7832ZM40.697 58.9551H41.0257C41.347 58.9551 41.5854 58.9021 41.7382 58.795C41.8164 58.7369 41.8785 58.6599 41.9187 58.5713C41.9589 58.4826 41.9759 58.3852 41.9682 58.2882C41.9754 58.1937 41.9568 58.099 41.9144 58.0142C41.872 57.9294 41.8074 57.8577 41.7274 57.8067C41.5036 57.6957 41.2545 57.6454 41.0052 57.6611H40.697V58.9551Z" fill="#0A1F27"/>
<path d="M46.7177 61.6297H43.9492V56.8269H46.7177V57.6575H44.97V58.7119H46.5962V59.5473H44.97V60.7871H46.7177V61.6297Z" fill="#0A1F27"/>
<path d="M49.3746 58.9297H51.2777V61.4189C50.9936 61.5137 50.7021 61.5846 50.4062 61.6308C50.1292 61.672 49.8496 61.6925 49.5696 61.6922C48.8474 61.6922 48.2941 61.4791 47.9097 61.053C47.5253 60.6269 47.3347 60.0166 47.3379 59.2222C47.3379 58.447 47.5594 57.8423 48.0024 57.4082C48.4453 56.974 49.0604 56.7574 49.8477 56.7582C50.3397 56.7574 50.8266 56.8587 51.2777 57.0555L50.9394 57.8692C50.6003 57.6971 50.2255 57.6072 49.8452 57.6068C49.6473 57.5987 49.45 57.6343 49.2673 57.7111C49.0847 57.7878 48.9211 57.9039 48.7884 58.051C48.5228 58.3455 48.39 58.7427 48.39 59.2426C48.39 59.7642 48.4967 60.1623 48.7102 60.4367C48.8213 60.5748 48.9639 60.6843 49.1259 60.7561C49.288 60.8279 49.4649 60.86 49.6418 60.8496C49.8593 60.8486 50.0762 60.8265 50.2894 60.7834V59.7819H49.3794L49.3746 58.9297Z" fill="#0A1F27"/>
<path d="M56.1633 56.8232V59.9312C56.1698 60.2583 56.0865 60.581 55.9225 60.8641C55.7606 61.1338 55.5205 61.3479 55.234 61.478C54.8997 61.6276 54.5362 61.7008 54.17 61.6922C53.5529 61.6922 53.0734 61.5337 52.7315 61.2168C52.3897 60.8998 52.2188 60.4669 52.2188 59.918V56.8232H53.2335V59.7639C53.2335 60.1334 53.3081 60.4055 53.4574 60.5776C53.6066 60.7497 53.8522 60.8376 54.1964 60.8376C54.5407 60.8376 54.7706 60.7509 54.9187 60.5764C55.0667 60.4019 55.1425 60.1298 55.1425 59.7567V56.8232H56.1633Z" fill="#0A1F27"/>
<path d="M57.1758 61.6297V56.8269H58.1941V60.7871H60.1369V61.6297H57.1758Z" fill="#0A1F27"/>
<path d="M63.7432 61.6297L63.3941 60.4861H61.6439L61.296 61.6297H60.1982L61.8931 56.8076H63.1389L64.8397 61.6297H63.7432ZM63.1521 59.6327C62.8311 58.5959 62.6498 58.0101 62.6081 57.8753C62.5671 57.7393 62.5382 57.6346 62.5214 57.5527C62.4492 57.8336 62.2421 58.5269 61.9003 59.6327H63.1521Z" fill="#0A1F27"/>
<path d="M67.1298 61.6296H66.1115V57.6706H64.8066V56.828H68.4334V57.6706H67.1298V61.6296Z" fill="#0A1F27"/>
<path d="M69.0039 61.6297V56.8269H70.0222V61.6297H69.0039Z" fill="#0A1F27"/>
<path d="M75.4215 59.2222C75.4215 60.0166 75.2245 60.6273 74.8305 61.0542C74.4365 61.4811 73.8715 61.695 73.1357 61.6958C72.399 61.6958 71.8341 61.4819 71.4409 61.0542C71.0476 60.6265 70.8502 60.0134 70.8486 59.215C70.8486 58.4125 71.0464 57.8022 71.4421 57.3841C71.8377 56.9661 72.4042 56.7554 73.1417 56.7522C73.88 56.7522 74.4445 56.9644 74.8353 57.389C75.2261 57.8135 75.4215 58.4245 75.4215 59.2222ZM71.9163 59.2222C71.9163 59.7574 72.0182 60.1615 72.2221 60.4343C72.4259 60.7072 72.7304 60.8428 73.1357 60.8412C73.9486 60.8412 74.3546 60.3015 74.3538 59.2222C74.353 58.1429 73.949 57.602 73.1417 57.5996C72.7405 57.5996 72.4351 57.7356 72.2257 58.0077C72.0162 58.2797 71.9131 58.6845 71.9163 59.2222Z" fill="#0A1F27"/>
<path d="M80.5089 61.6296H79.215L77.1265 57.9969H77.0964C77.139 58.6388 77.1598 59.0966 77.159 59.3703V61.6296H76.249V56.8269H77.5334L79.6194 60.4259H79.6423C79.6102 59.8008 79.5937 59.3594 79.5929 59.1019V56.8232H80.5089V61.6296Z" fill="#0A1F27"/>
</svg>
