<svg width="130" height="130" viewBox="0 0 130 130" fill="none" xmlns="http://www.w3.org/2000/svg">
<path opacity="0.15" d="M118.045 103.575L16.2707 103.531C16.2707 103.531 -0.929011 74.3335 8.24442 54.8022C17.4178 35.2709 30.8151 49.0569 31.9321 34.9411C31.9694 34.4596 31.9393 33.9902 31.9393 33.5292C31.9393 33.4196 31.9393 33.3113 31.9453 33.203C32.2884 25.1032 36.5808 19.8611 42.2502 16.8518C42.4332 16.7543 42.6114 16.6605 42.8027 16.5678C51.8365 12.0575 64.0529 12.9855 69.46 16.8627C78.6611 23.4602 78.6081 31.401 97.6038 28.7793C116.599 26.1577 120.223 48.0663 115.277 59.2222C108.26 75.0605 134.737 72.4629 118.045 103.575Z" fill="#196181"/>
<path d="M65.5718 124.099C98.8165 124.099 125.767 118.275 125.767 111.091C125.767 103.907 98.8165 98.0826 65.5718 98.0826C32.3271 98.0826 5.37695 103.907 5.37695 111.091C5.37695 118.275 32.3271 124.099 65.5718 124.099Z" fill="#E5F2FC"/>
<path d="M77.8298 58.7744C77.1387 59.6385 76.6238 60.6299 76.3143 61.6922L77.2063 61.9522C76.927 62.9169 76.8407 63.9272 76.9523 64.9254L76.0303 65.0289C76.1545 66.1266 76.4914 67.1896 77.0221 68.1585L77.2051 68.0598L77.837 67.7119C78.321 68.5924 78.9758 69.3674 79.763 69.9917L79.1828 70.714C80.0471 71.4048 81.0395 71.9178 82.103 72.2234L82.363 71.3315C83.3263 71.6138 84.3362 71.7014 85.3337 71.5891L85.4384 72.5099C86.5364 72.3853 87.5995 72.0475 88.568 71.5156V71.5156L88.4405 71.2749L88.1239 70.6983C89.0044 70.2149 89.7792 69.5601 90.4025 68.7724L91.1247 69.3514C91.8172 68.4917 92.3334 67.5038 92.6438 66.4444L91.7518 66.1844C92.0338 65.2219 92.121 64.2127 92.0082 63.2161L92.9291 63.1114C92.8039 62.0135 92.4662 60.9505 91.9348 59.9817L91.1199 60.4259C90.636 59.5461 89.9812 58.7718 89.194 58.1485L89.7742 57.4263C88.9089 56.7347 87.9157 56.2206 86.8516 55.9132L86.5916 56.8064C85.629 56.5244 84.6199 56.4373 83.6232 56.55L83.5197 55.6292C82.4215 55.7528 81.3583 56.0906 80.3901 56.6234V56.6306L80.6838 57.1663L80.833 57.4383C79.9533 57.9223 79.179 58.5771 78.5556 59.3642L77.8298 58.7744ZM81.2676 61.5092C81.7745 60.8737 82.4585 60.4028 83.2331 60.156C84.0077 59.9092 84.8381 59.8976 85.6192 60.1227C86.4004 60.3478 87.0973 60.7995 87.6218 61.4206C88.1463 62.0417 88.4748 62.8044 88.5658 63.6123C88.6569 64.4201 88.5064 65.2368 88.1333 65.9591C87.7602 66.6814 87.1814 67.2768 86.4699 67.6701C85.7584 68.0635 84.9463 68.237 84.1362 68.1688C83.3262 68.1006 82.5545 67.7938 81.9188 67.287C81.4963 66.9507 81.1443 66.5343 80.8829 66.0618C80.6215 65.5892 80.4558 65.0698 80.3953 64.5331C80.3348 63.9965 80.3807 63.4532 80.5304 62.9344C80.6801 62.4155 80.9306 61.9312 81.2676 61.5092V61.5092Z" stroke="#1F7EAB" stroke-width="3.83" stroke-miterlimit="10"/>
<path d="M41.0523 98.7987C40.6024 99.3616 40.2674 100.007 40.0665 100.699L40.6478 100.869C40.4659 101.498 40.4094 102.156 40.4817 102.806L39.8799 102.874C39.959 103.592 40.1787 104.288 40.5263 104.921L40.6466 104.857L41.0595 104.631C41.3738 105.205 41.7998 105.71 42.3126 106.116L41.9346 106.59C42.4981 107.04 43.1448 107.375 43.8377 107.575L44.0062 106.994C44.6343 107.177 45.2926 107.234 45.9429 107.161L46.0103 107.763C46.7282 107.682 47.4234 107.462 48.0566 107.114L47.9736 106.96L47.7678 106.584C48.3398 106.267 48.8428 105.838 49.2471 105.324L49.7214 105.701C50.1719 105.138 50.5065 104.491 50.706 103.798L50.1246 103.628C50.3081 103.001 50.365 102.343 50.2919 101.694L50.8938 101.625C50.8137 100.907 50.5937 100.212 50.2462 99.5787L49.7129 99.8749C49.3991 99.3014 48.9734 98.7967 48.4611 98.3907L48.839 97.9164C48.2753 97.4657 47.6282 97.1307 46.9348 96.9306L46.7651 97.512C46.1377 97.3288 45.4801 97.2723 44.8307 97.3459L44.7633 96.744C44.0453 96.824 43.3499 97.0444 42.717 97.3928V97.3928L42.9084 97.7431L43.0047 97.92C42.4342 98.2368 41.9322 98.6635 41.5278 99.1755L41.0523 98.7987ZM43.2924 100.583C43.6226 100.168 44.0682 99.8615 44.5728 99.7006C45.0775 99.5396 45.6185 99.532 46.1275 99.6785C46.6365 99.825 47.0907 100.119 47.4325 100.524C47.7743 100.929 47.9885 101.425 48.0479 101.952C48.1073 102.478 48.0093 103.01 47.7663 103.481C47.5233 103.952 47.1462 104.34 46.6826 104.596C46.2191 104.852 45.69 104.965 45.1622 104.921C44.6343 104.877 44.1315 104.677 43.7173 104.347C43.4421 104.127 43.2128 103.856 43.0425 103.548C42.8721 103.241 42.7642 102.902 42.7247 102.553C42.6853 102.203 42.7151 101.849 42.8125 101.511C42.9099 101.173 43.073 100.858 43.2924 100.583V100.583Z" stroke="#1F7EAB" stroke-width="3.83" stroke-miterlimit="10"/>
<path d="M89.0508 44.1904C88.7365 44.9164 88.5676 45.6971 88.5537 46.4882L89.2182 46.5015C89.2064 47.2199 89.336 47.9336 89.5997 48.6019L88.9834 48.8427C89.275 49.5783 89.7071 50.2501 90.2557 50.8204L90.3629 50.718L90.7348 50.3569C91.2336 50.8745 91.8307 51.2874 92.491 51.5715L92.2274 52.1829C92.9541 52.4978 93.7358 52.666 94.5277 52.6777L94.5397 52.0132C95.2578 52.0292 95.9718 51.9019 96.6402 51.6389L96.8809 52.2552C97.6173 51.9633 98.2895 51.5302 98.8598 50.9804V50.9804L98.7274 50.8408L98.4012 50.5026C98.9184 50.0048 99.3312 49.409 99.6158 48.75L100.227 49.0136C100.543 48.2863 100.712 47.5037 100.724 46.7109L100.059 46.6989C100.073 45.9812 99.9433 45.2679 99.6783 44.6008L100.296 44.3601C100.003 43.6239 99.5705 42.9518 99.0211 42.3812L98.5396 42.841C98.0417 42.3241 97.4454 41.9119 96.7858 41.6289L97.0507 41.0174C96.3233 40.7016 95.5408 40.5327 94.748 40.5203L94.7359 41.1859C94.0182 41.1719 93.305 41.3012 92.6379 41.5663L92.3971 40.9488C91.6603 41.2404 90.988 41.6739 90.4182 42.2247V42.2247L90.7228 42.5401L90.8757 42.7002C90.359 43.1986 89.9466 43.7947 89.6623 44.454L89.0508 44.1904ZM91.9397 45.4362C92.1705 44.9021 92.5546 44.4484 93.0432 44.1326C93.5318 43.8167 94.1032 43.6528 94.6849 43.6617C95.2667 43.6705 95.8328 43.8517 96.3116 44.1823C96.7904 44.5128 97.1605 44.978 97.3749 45.5188C97.5894 46.0597 97.6386 46.652 97.5165 47.2209C97.3943 47.7898 97.1062 48.3096 96.6886 48.7148C96.2709 49.1199 95.7426 49.3921 95.1702 49.4969C94.5979 49.6017 94.0074 49.5345 93.4732 49.3037C93.1184 49.1507 92.7972 48.9292 92.528 48.652C92.2589 48.3747 92.047 48.0471 91.9046 47.6879C91.7621 47.3287 91.6919 46.9449 91.698 46.5585C91.704 46.1722 91.7861 45.7908 91.9397 45.4362Z" stroke="#F7F8F9" stroke-width="3.83" stroke-miterlimit="10"/>
<path d="M28.4308 77.0804C27.8123 78.5077 27.4798 80.0425 27.4521 81.5979L28.7594 81.6219C28.735 83.0341 28.9898 84.4372 29.5093 85.7506L28.2971 86.2321C28.8698 87.6782 29.7195 88.9986 30.7984 90.1189L31.0091 89.9179L31.7397 89.2125C32.719 90.2313 33.8924 91.0438 35.1908 91.6018L34.6671 92.8055C36.0967 93.4219 37.6341 93.7491 39.1907 93.7685L39.2147 92.4613C40.626 92.4914 42.0291 92.2401 43.3422 91.7222L43.8237 92.9343C45.2702 92.3601 46.5909 91.5093 47.7117 90.4294L47.4481 90.1574L46.8065 89.4917C47.8219 88.5127 48.6321 87.3412 49.1898 86.0455L50.3935 86.5631C51.014 85.1345 51.3454 83.597 51.3685 82.0396L50.0625 82.0155C50.0899 80.6053 49.8358 79.2037 49.315 77.8929L50.5272 77.4114C49.9528 75.9646 49.1019 74.6436 48.0222 73.5222L47.0797 74.4274C46.1012 73.4114 44.9295 72.6011 43.6335 72.0441L44.1523 70.8404C42.7232 70.2212 41.1861 69.8899 39.6288 69.8654L39.6047 71.1714C38.1945 71.1446 36.7931 71.3987 35.4821 71.9189L35.0006 70.7067C33.5529 71.2793 32.2319 72.1308 31.1126 73.2129L31.1198 73.2213L31.7157 73.84L32.019 74.1481C31.0034 75.127 30.1931 76.2986 29.6357 77.5943L28.4308 77.0804ZM34.105 79.5299C34.5592 78.4815 35.314 77.5913 36.274 76.9718C37.234 76.3523 38.3561 76.0313 39.4985 76.0495C40.6409 76.0677 41.7523 76.4241 42.6921 77.0738C43.632 77.7235 44.3581 78.6372 44.7787 79.6995C45.1993 80.7618 45.2956 81.925 45.0552 83.042C44.8149 84.1589 44.2488 85.1796 43.4284 85.9749C42.6081 86.7702 41.5704 87.3044 40.4465 87.51C39.3227 87.7156 38.163 87.5834 37.1143 87.1301C36.4175 86.8289 35.7868 86.3933 35.2584 85.8483C34.73 85.3032 34.3142 84.6594 34.0347 83.9536C33.7552 83.2478 33.6176 82.4938 33.6297 81.7347C33.6417 80.9757 33.8033 80.2265 34.105 79.5299Z" stroke="#FDFEFE" stroke-width="3.83" stroke-miterlimit="10"/>
<path d="M50.6628 107.412L78.3203 107.234C80.0464 107.223 81.4427 105.653 81.4391 103.727L81.3356 39.8871C81.3356 38.0298 79.9585 36.5167 78.2661 36.5167L51.1455 36.4289C49.4398 36.4228 48.0447 37.9287 48.0303 39.7992L47.5392 103.934C47.5235 105.863 48.9235 107.424 50.6628 107.412Z" fill="white"/>
<path d="M35.5914 57.6983L24.291 65.8968L14.541 72.9131L15.5786 74.4105C19.8951 73.2357 22.8225 71.6878 26.3542 69.4754C30.5744 68.1055 35.6118 65.5465 39.2663 63.2354C42.432 61.1313 38.7523 55.5967 35.5914 57.6983Z" fill="white"/>
<path d="M30.3711 61.0482C31.7024 60.0286 35.3857 56.6667 38.0904 55.1284C41.0239 54.3965 43.3566 58.7395 42.7789 60.1129C42.8631 60.2224 39.388 64.6605 34.0075 66.6129C32.7689 66.324 30.2038 62.3698 30.3711 61.0482Z" fill="#0C4055"/>
<path d="M33.5239 67.2112C34.4086 66.9452 35.185 66.619 35.5293 66.0545C35.8314 65.8534 31.8255 59.729 31.5234 59.93L29.6179 61.1963C29.0088 61.5983 32.9197 67.6133 33.5239 67.2112Z" fill="#1A7FAA"/>
<path d="M15.6829 72.1175C14.2384 70.844 12.1332 69.0746 11.4759 69.5115C11.3339 69.6054 11.3784 69.7089 11.6818 70.1074C13.9796 72.5677 13.7895 73.8388 14.7007 74.3348C15.6299 74.7886 16.6832 73.9905 16.6832 73.9905C17.0828 73.2851 16.3979 72.2524 15.6829 72.1175Z" fill="white"/>
<path d="M14.6855 72.3487L12.5839 70.8813C12.5839 70.8813 12.2071 71.275 12.679 71.7239C13.1508 72.1729 13.6696 72.6484 13.6696 72.6484C13.6696 72.6484 13.9754 74.1494 14.7289 74.3095C15.4824 74.4696 15.8592 73.4946 14.6855 72.3487Z" fill="white"/>
<path d="M14.5753 74.295L14.6138 74.2421C13.8687 73.7016 13.7026 72.6556 13.7014 72.6448V72.6339L13.6917 72.6255C13.6917 72.6255 13.1669 72.144 12.7023 71.7011C12.5157 71.5229 12.4435 71.34 12.4868 71.1413C12.5059 71.0627 12.5411 70.9889 12.5904 70.9247L14.6667 72.3763L14.7041 72.3222L12.5795 70.838L12.5591 70.8585C12.4922 70.9355 12.4451 71.0276 12.4218 71.1269C12.3881 71.2762 12.4002 71.5049 12.6554 71.748C13.0887 72.1621 13.5702 72.6038 13.6388 72.6664C13.6592 72.7856 13.8518 73.7702 14.5753 74.295Z" fill="white"/>
<path d="M14.2895 71.2027L14.3316 71.1522C14.2389 71.0763 12.0711 69.2973 11.4668 69.4802L11.4861 69.5428C12.0566 69.3707 14.2678 71.1847 14.2895 71.2027Z" fill="white"/>
<path d="M44.0559 77.4065L57.5555 68.9722C51.549 61.0506 51.0964 52.8618 48.8274 51.3536C45.7086 49.2832 38.1578 54.8082 36.0994 58.0245C35.2821 59.3028 35.2942 63.2004 37.4235 66.5551C38.4551 68.085 39.1894 69.1142 40.2077 70.1951C41.226 71.2761 44.0559 77.4065 44.0559 77.4065Z" fill="#0C4055"/>
<path d="M40.8228 57.0074C41.0696 56.0974 42.9052 53.6238 43.1556 52.644L39.985 48.6296L37.4873 50.1186C36.8652 50.6616 36.3248 51.2916 35.8828 51.9892L37.3513 55.0851L37.6679 55.758C37.8304 56.5332 38.8668 56.8461 40.8228 57.0074Z" fill="white"/>
<path opacity="0.1" d="M39.8862 50.1415C39.9343 50.9732 39.4637 53.5419 37.3512 55.0875L36.0801 52.4093L39.8862 50.1415Z" fill="#196181"/>
<path d="M30.7368 48.5165C31.1497 49.4614 32.0838 51.5185 32.7482 52.2937C33.7605 53.4734 35.9452 53.9994 37.096 53.4336C38.3611 52.6873 39.69 51.1695 40.0065 49.7948C40.0727 48.88 40.0198 46.865 39.5889 45.3833C38.6885 42.2946 35.3988 41.4255 32.8541 42.5377C30.3095 43.6499 29.4465 45.5686 30.7368 48.5165Z" fill="white"/>
<path d="M40.0402 47.5295C39.9065 46.3932 39.0627 46.5136 38.8581 47.6234C38.5271 46.9361 37.9132 44.6587 36.8708 44.5202C35.6803 44.3457 32.8661 46.8735 29.9868 46.3739C29.9868 46.3739 29.2417 42.8182 34.3852 41.458C40.6432 40.5324 40.0402 47.5295 40.0402 47.5295Z" fill="#917F50"/>
<path d="M40.8104 47.2868C40.8501 46.6146 40.4583 46.0446 39.9354 46.0137C39.4124 45.9828 38.9563 46.5027 38.9166 47.175C38.8769 47.8472 39.2687 48.4172 39.7916 48.4481C40.3145 48.479 40.7707 47.9591 40.8104 47.2868Z" fill="white"/>
<path d="M30.03 46.5123C30.4224 45.9839 38.2152 43.9424 38.3898 44.507C38.3898 44.507 34.0372 47.7413 30.0276 48.5839C27.8393 49.0437 30.03 46.5123 30.03 46.5123Z" fill="#0C4055"/>
<path d="M39.5823 44.2241L29.9827 46.5268L29.4688 45.305L39.5883 42.7953C39.6978 43.2659 39.7219 43.8473 39.5823 44.2241Z" fill="#1A7FAA"/>
<path d="M39.9709 42.8712C40.9965 42.5871 41.0663 41.7818 39.5713 41.4448C37.265 40.9272 33.7069 37.8782 31.362 38.5775C29.7455 39.059 29.8791 41.2666 28.8668 43.4453C28.4069 44.4336 28.301 45.1907 28.9703 45.4916C30.3329 45.5085 38.896 43.1685 39.9709 42.8712Z" fill="#0C4055"/>
<path d="M40.0391 55.829L40.2473 56.9207L39.5576 56.1058L40.0523 57.8681C40.0138 57.5443 40.3063 57.0182 40.3063 57.0182C40.7388 56.9499 41.1818 57.0274 41.5654 57.2385L40.0391 55.829Z" fill="#1A7FAA"/>
<path d="M42.3995 51.6738C42.3694 52.8402 40.872 54.7252 40.0391 55.829L41.5654 57.2385C42.5283 55.8627 43.8259 54.151 43.4407 52.0698C43.3011 51.5294 42.9304 51.4451 42.3995 51.6738Z" fill="#1A7FAA"/>
<path d="M37.2955 55.0298C37.5519 55.2573 38.3788 56.2852 39.5572 56.1059L40.0519 57.8681C38.3824 58.0595 37.8636 57.4829 37.3256 56.3731C37.1137 55.9302 36.9368 55.4186 37.2955 55.0298Z" fill="#1A7FAA"/>
<path d="M49.8732 74.2541C49.886 74.2444 49.895 74.2304 49.8983 74.2147C49.9016 74.199 49.8991 74.1826 49.8912 74.1686C49.1245 72.8517 48.1603 71.3182 47.1396 69.6944C44.359 65.2708 41.2065 60.2574 40.3699 57.0026C40.3654 56.9857 40.3544 56.9713 40.3393 56.9625C40.3242 56.9537 40.3062 56.9512 40.2893 56.9556C40.281 56.9577 40.2732 56.9615 40.2663 56.9666C40.2594 56.9717 40.2536 56.9782 40.2493 56.9856C40.2449 56.993 40.2421 57.0011 40.2409 57.0096C40.2397 57.0181 40.2402 57.0268 40.2423 57.0351C41.0849 60.3104 44.2423 65.3322 47.0288 69.7642C48.0484 71.3868 49.0125 72.9191 49.7769 74.2348C49.7812 74.2423 49.787 74.2489 49.794 74.2541C49.8009 74.2593 49.8088 74.2632 49.8172 74.2653C49.8256 74.2674 49.8344 74.2678 49.8429 74.2665C49.8515 74.2652 49.8598 74.2622 49.8672 74.2577L49.8732 74.2541Z" fill="#231F20"/>
<path d="M56.5884 67.6638C54.5818 70.1723 44.5911 77.1273 43.982 77.1153C43.2875 77.4198 44.7295 79.6623 45.4565 79.9247C46.5664 80.3255 59.0584 70.9366 59.0439 70.0748C59.0295 69.2129 57.1553 66.9548 56.5884 67.6638Z" fill="#231F20"/>
<path d="M55.5458 56.2443C55.5458 56.2443 60.6856 61.1457 61.1322 63.8781C61.5944 66.702 52.2405 74.2685 52.2405 74.2685L49.75 71.6107L55.1751 65.0096L50.5517 61.7596L55.5458 56.2443Z" fill="white"/>
<path d="M47.706 50.8469C47.706 50.8469 53.042 52.2083 56.7723 57.04C55.0726 62.4085 51.2413 62.2604 51.2413 62.2604C51.2413 62.2604 45.7692 58.7155 44.4223 56.0228C43.0753 53.3301 46.2363 50.5905 47.706 50.8469Z" fill="#0C4055"/>
<path d="M55.5646 55.6593C55.5128 56.6283 50.6836 61.998 50.0781 61.4214C50.3851 62.1713 50.8738 62.7636 51.8091 62.9646C52.6312 63.7795 58.0936 58.2701 57.2703 57.4516C57.2077 56.6179 56.6391 56.0204 55.5646 55.6593Z" fill="#1A7FAA"/>
<path d="M50.1164 61.4743C50.1261 61.4674 50.1336 61.4578 50.1381 61.4466C50.1414 61.4387 50.1432 61.4303 50.1433 61.4217C50.1433 61.4131 50.1417 61.4046 50.1384 61.3966C50.1352 61.3887 50.1304 61.3815 50.1243 61.3754C50.1183 61.3693 50.1111 61.3645 50.1032 61.3612C49.0599 60.8886 48.0992 60.2518 47.2576 59.475C47.2452 59.4628 47.2286 59.4561 47.2113 59.4561C47.1939 59.4561 47.1773 59.4628 47.1649 59.475C47.1588 59.481 47.1539 59.4882 47.1506 59.4962C47.1472 59.5042 47.1455 59.5127 47.1455 59.5213C47.1455 59.5299 47.1472 59.5385 47.1506 59.5464C47.1539 59.5544 47.1588 59.5616 47.1649 59.5677C48.0174 60.3538 48.9903 60.9983 50.0466 61.4767C50.0573 61.4829 50.0695 61.4859 50.0818 61.4855C50.0942 61.4851 50.1062 61.4812 50.1164 61.4743Z" fill="#231F20"/>
<path d="M35.0676 50.6375C34.8968 50.6499 34.7278 50.6802 34.5633 50.7277C34.485 50.747 34.4092 50.7578 34.3815 50.7205C34.3521 50.6576 34.3465 50.5862 34.3659 50.5195C34.3839 50.345 34.4008 50.1584 34.42 49.9706C34.4886 49.1918 34.5151 48.5623 34.479 48.5635C34.4429 48.5647 34.3586 49.1966 34.2876 49.9742C34.2732 50.1656 34.2575 50.3486 34.2443 50.5231C34.2337 50.567 34.2325 50.6127 34.2408 50.6571C34.2491 50.7015 34.2667 50.7436 34.2924 50.7807C34.3136 50.7995 34.3385 50.8135 34.3655 50.8218C34.3924 50.8301 34.4209 50.8325 34.4489 50.8288C34.4939 50.824 34.5382 50.8147 34.5813 50.8012C34.7486 50.7633 34.9115 50.7085 35.0676 50.6375Z" fill="#146080"/>
<path d="M35.5216 48.047C35.5508 48.1337 35.6127 48.2055 35.6941 48.2471C35.7755 48.2887 35.87 48.2968 35.9573 48.2697C36.0009 48.259 36.0419 48.2396 36.0779 48.2126C36.1138 48.1856 36.1439 48.1517 36.1664 48.1128C36.1889 48.0739 36.2033 48.0308 36.2087 47.9862C36.2142 47.9416 36.2105 47.8964 36.198 47.8532C36.1691 47.7667 36.1074 47.6949 36.0262 47.6533C35.945 47.6117 35.8507 47.6035 35.7635 47.6306C35.7198 47.6413 35.6788 47.6607 35.6428 47.6877C35.6068 47.7146 35.5767 47.7485 35.5541 47.7874C35.5315 47.8263 35.517 47.8693 35.5114 47.9139C35.5058 47.9585 35.5093 48.0038 35.5216 48.047Z" fill="#4797C0"/>
<path d="M32.5766 49.2195C32.6058 49.3058 32.6676 49.3774 32.7487 49.419C32.8299 49.4606 32.924 49.4689 33.0112 49.4421C33.0548 49.4311 33.0957 49.4115 33.1316 49.3844C33.1674 49.3572 33.1975 49.3232 33.2199 49.2842C33.2424 49.2453 33.2568 49.2022 33.2623 49.1576C33.2678 49.113 33.2642 49.0677 33.2519 49.0245C33.2227 48.9381 33.161 48.8665 33.0798 48.8249C32.9987 48.7833 32.9045 48.775 32.8174 48.8018C32.7737 48.8126 32.7327 48.8322 32.6967 48.8593C32.6608 48.8864 32.6307 48.9204 32.6082 48.9594C32.5857 48.9984 32.5713 49.0415 32.5659 49.0862C32.5605 49.1309 32.5641 49.1762 32.5766 49.2195Z" fill="#4797C0"/>
<path d="M35.6393 51.7039C35.7866 51.7739 35.9499 51.8033 36.1124 51.7894C36.3541 51.7705 36.5864 51.6874 36.7852 51.5486C36.9323 51.4449 37.0353 51.2899 37.0741 51.1141L37.2378 51.0864C37.2257 51.1591 37.2055 51.2301 37.1776 51.2983C37.11 51.4457 37.0019 51.571 36.8659 51.6594C36.643 51.8062 36.3828 51.886 36.116 51.8893C35.936 51.8946 35.7587 51.8447 35.608 51.7461C35.5057 51.6714 35.4732 51.6076 35.478 51.604C35.4828 51.6004 35.5358 51.651 35.6393 51.7039Z" fill="#146080"/>
<path d="M48.5807 110.557C48.7115 110.575 48.8434 110.583 48.9755 110.582L80.2441 110.341C81.9221 110.329 83.2919 108.77 83.2895 106.871L83.1763 34.7557C83.1763 32.9225 81.8246 31.4275 80.1791 31.4202L49.5111 31.2866H49.3667C48.9791 31.3073 48.5995 31.4056 48.2505 31.5755C47.9015 31.7455 47.5902 31.9837 47.3348 32.2761C46.7766 32.9108 46.4692 33.7274 46.4706 34.5727L45.9229 107.177C45.9145 108.899 47.0508 110.352 48.5807 110.557Z" fill="#156080"/>
<path d="M47.5507 34.9399L47.0234 107.291L82.2486 107.08L82.1583 34.9399H47.5507Z" fill="#C6E4F1"/>
<path d="M64.718 95.0625C68.2713 95.0625 71.1518 92.182 71.1518 88.6287C71.1518 85.0755 68.2713 82.1949 64.718 82.1949C61.1647 82.1949 58.2842 85.0755 58.2842 88.6287C58.2842 92.182 61.1647 95.0625 64.718 95.0625Z" fill="#C6E4F1"/>
<path d="M64.1114 91.5742C63.8148 91.5826 63.525 91.4848 63.2941 91.2985C63.2495 91.2624 63.2062 91.2239 63.1653 91.1782L61.509 89.5556C61.4062 89.4589 61.336 89.3327 61.308 89.1945C61.29 89.1077 61.2921 89.018 61.3142 88.9323C61.3364 88.8465 61.3779 88.767 61.4356 88.6997C61.4873 88.6345 61.552 88.5807 61.6256 88.5417C61.6992 88.5028 61.78 88.4795 61.8631 88.4734C61.9461 88.4673 62.0295 88.4784 62.108 88.5062C62.1865 88.534 62.2584 88.5778 62.3191 88.6347C62.4539 88.7551 62.5863 88.8923 62.7187 89.0223L63.9489 90.2345C64.0584 90.344 64.0693 90.344 64.1523 90.2224L67.3181 85.8963C67.4121 85.7562 67.555 85.6562 67.7189 85.6159C67.8033 85.5986 67.8904 85.5993 67.9745 85.6179C68.0586 85.6366 68.1378 85.6727 68.207 85.7241C68.2762 85.7754 68.3337 85.8408 68.3759 85.9159C68.4182 85.991 68.4441 86.0741 68.4519 86.1599C68.4634 86.3224 68.4141 86.4832 68.3135 86.6113C68.0451 86.9724 67.7791 87.3444 67.5107 87.7103L65.0539 91.0614C64.8708 91.3208 64.5926 91.4973 64.2799 91.5525C64.2137 91.5682 64.1463 91.5706 64.1114 91.5742Z" fill="#1E7EAA"/>
<path d="M74.9006 81.9228C74.9 81.7674 74.8891 81.6122 74.8681 81.4582C74.8333 81.1768 74.7417 80.9054 74.5989 80.6605C74.4562 80.4155 74.2652 80.202 74.0375 80.033C73.6688 79.7576 73.2167 79.617 72.7568 79.6346C72.5437 79.6346 72.3307 79.6478 72.1176 79.6418C71.6963 79.631 71.4375 79.3397 71.458 78.9196C71.5332 77.6168 71.4238 76.3099 71.133 75.0377C70.9264 74.1129 70.5571 73.2321 70.0424 72.4365C69.2384 71.2195 68.1334 70.4359 66.7022 70.1326C65.5864 69.8956 64.4314 69.9158 63.3246 70.1915C62.3166 70.4232 61.4005 70.95 60.6933 71.7046C60.0617 72.3893 59.5815 73.1993 59.2837 74.0819C58.8485 75.3555 58.6284 76.6926 58.6325 78.0385C58.6325 78.3731 58.6434 78.7078 58.6626 79.0412C58.6891 79.4878 58.4038 79.7754 57.9573 79.7718C57.8947 79.7718 57.8309 79.7718 57.7671 79.7718C57.1609 79.74 56.5656 79.9416 56.1036 80.3352C55.8725 80.5186 55.6871 80.7531 55.5618 81.0202C55.4365 81.2873 55.3747 81.5797 55.3813 81.8747C55.3813 82.7004 55.3886 83.525 55.3958 84.3495C55.4263 87.6444 55.4572 90.9386 55.4885 94.2319C55.4864 94.3417 55.4917 94.4515 55.5041 94.5605C55.5719 95.0819 55.8285 95.5602 56.2254 95.905C56.6223 96.2498 57.1319 96.4369 57.6575 96.4311C58.0187 96.4311 58.3798 96.4311 58.7312 96.4239L65.3071 96.3637C67.8686 96.3408 70.43 96.3276 72.9915 96.2878C73.8209 96.2758 74.436 95.8678 74.8079 95.1154C74.9605 94.7755 75.0298 94.4042 75.0101 94.0321C74.9732 89.9981 74.9367 85.9617 74.9006 81.9228ZM59.9819 76.9166C60.0216 76.3413 60.213 75.542 60.3574 74.9823C60.5115 74.3889 60.9124 73.6582 61.247 73.1346C61.8115 72.2559 63.0935 72.0308 64.1274 71.8623C64.7293 71.766 65.3095 72.0272 65.9053 72.1476C66.3372 72.2291 66.7475 72.3997 67.1099 72.6483C67.4723 72.897 67.7791 73.2184 68.0106 73.592C68.3778 74.1846 68.6401 74.8362 68.7858 75.5179C68.9877 76.4371 69.0798 77.3769 69.0602 78.3178C69.0602 78.4153 69.053 78.514 69.0602 78.6115C69.0674 78.709 69.0229 78.7318 68.9399 78.7318C68.8989 78.7318 68.8592 78.7318 68.8195 78.7318L64.8906 78.7667L61.4986 78.798L60.9449 78.8077C60.7162 78.8077 59.8615 78.993 59.8471 78.786C59.8098 78.2804 59.9446 77.421 59.9819 76.9166ZM64.7293 93.9888C63.5806 93.9992 62.4547 93.6688 61.4938 93.0393C60.5329 92.4097 59.7803 91.5094 59.3311 90.4522C58.8819 89.3949 58.7564 88.2282 58.9703 87.0996C59.1842 85.9709 59.728 84.9311 60.5329 84.1115C61.3378 83.292 62.3677 82.7295 63.4923 82.4953C64.6169 82.2611 65.7857 82.3656 66.8508 82.7956C67.916 83.2257 68.8298 83.9619 69.4765 84.9113C70.1232 85.8606 70.4739 86.9805 70.4842 88.1291C70.4974 89.6689 69.8985 91.1508 68.8194 92.2492C67.7402 93.3475 66.269 93.9724 64.7293 93.9864V93.9888Z" fill="#1E7EAA"/>
<path d="M75.331 81.8904C75.3306 81.6943 75.3169 81.4984 75.2901 81.3042C75.2357 80.8798 75.0957 80.4709 74.8786 80.1022C74.6616 79.7335 74.372 79.4127 74.0274 79.1592C73.4532 78.7258 72.7912 78.5573 72.081 78.5573C71.9173 78.5573 71.9161 78.5573 71.9173 78.3876C71.9329 77.3839 71.8523 76.3811 71.6765 75.3928C71.5014 74.3975 71.1767 73.4345 70.7136 72.5364C70.2165 71.5534 69.4878 70.7061 68.5903 70.0676C67.5478 69.3454 66.3766 69.0059 65.1212 68.9193C64.3322 68.8657 63.5396 68.9175 62.7643 69.0733C61.1496 69.3646 59.7088 70.2658 58.7403 71.5903C58.0735 72.5136 57.5946 73.559 57.3308 74.6669C57.0169 75.9038 56.8755 77.1782 56.9107 78.4538C56.9167 78.6873 56.9107 78.6945 56.6808 78.709C56.0555 78.7534 55.4565 78.9788 54.9571 79.3578C54.1277 79.9668 53.6643 80.7733 53.6559 81.8121C53.6475 82.7462 53.6559 83.6815 53.6619 84.6156C53.6731 86.0239 53.686 87.4318 53.7004 88.8393C53.7189 90.6449 53.7386 92.4505 53.7594 94.256C53.7576 94.4117 53.766 94.5673 53.7847 94.7218C53.8876 95.502 54.2728 96.2174 54.8675 96.7329C55.4621 97.2483 56.2249 97.5281 57.0118 97.5192C57.3862 97.512 57.7617 97.5193 58.1361 97.5108L64.6794 97.4518L72.3639 97.382C72.531 97.3833 72.6978 97.3687 72.8622 97.3387C73.6736 97.1975 74.3958 96.7399 74.87 96.0664C75.2961 95.4645 75.4562 94.7893 75.449 94.0574C75.4032 90.0025 75.3639 85.9468 75.331 81.8904ZM74.161 95.1239C73.7902 95.8762 73.174 96.2843 72.3446 96.2963C69.7831 96.3348 67.2216 96.3493 64.6602 96.3721L58.0831 96.4323H57.0106C56.4831 96.4398 55.9714 96.253 55.5729 95.9073C55.1744 95.5616 54.917 95.0814 54.85 94.5581C54.8385 94.449 54.8337 94.3393 54.8355 94.2295C54.8042 90.9354 54.7733 87.6413 54.7428 84.3471C54.7344 83.5226 54.732 82.698 54.7284 81.8723C54.7216 81.5772 54.7833 81.2845 54.9086 81.0171C55.0339 80.7498 55.2194 80.5152 55.4506 80.3316C55.9129 79.9383 56.5081 79.7368 57.1141 79.7682C57.1779 79.7682 57.2405 79.7682 57.3043 79.7682C57.7509 79.7682 58.0362 79.4842 58.0097 79.0376C57.9892 78.703 57.976 78.3695 57.9796 78.0349C57.975 76.6891 58.1947 75.3519 58.6296 74.0783C58.928 73.1954 59.4087 72.3851 60.0403 71.6998C60.7479 70.9462 61.6633 70.4197 62.6704 70.1868C63.7773 69.9114 64.9324 69.8916 66.048 70.129C67.4804 70.4323 68.5842 71.2123 69.3895 72.4329C69.9022 73.2288 70.269 74.1096 70.4728 75.0341C70.7642 76.3062 70.8736 77.6132 70.7978 78.916C70.7865 79.0082 70.7953 79.1018 70.8235 79.1904C70.8518 79.2789 70.8988 79.3603 70.9615 79.4289C71.0242 79.4975 71.101 79.5517 71.1866 79.5879C71.2722 79.624 71.3646 79.6412 71.4575 79.6382C71.6705 79.6382 71.8848 79.6322 72.0978 79.631C72.5575 79.6139 73.0093 79.754 73.3786 80.0282C73.6061 80.1973 73.797 80.4108 73.9398 80.6558C74.0825 80.9007 74.1742 81.1721 74.2091 81.4534C74.2301 81.6078 74.241 81.7634 74.2416 81.9193C74.2778 85.9581 74.3147 89.9965 74.3524 94.0345C74.3764 94.4077 74.3108 94.7812 74.161 95.1239Z" fill="#0A1F27"/>
<path d="M68.0157 73.2779C67.7501 72.8296 67.3969 72.4394 66.9774 72.1304C66.5578 71.8215 66.0803 71.6001 65.5734 71.4796C64.8127 71.3008 64.0224 71.2876 63.2562 71.441C61.8383 71.7058 60.8368 72.5244 60.1976 73.7967C59.7847 74.62 59.5753 75.5035 59.4525 76.4111C59.3864 76.9496 59.3502 77.4913 59.3442 78.0337C59.337 78.3792 59.3586 78.7246 59.3791 79.0701C59.3785 79.1313 59.3899 79.192 59.4127 79.2487C59.4355 79.3055 59.4693 79.3572 59.5121 79.4009C59.5549 79.4446 59.6059 79.4795 59.6622 79.5035C59.7185 79.5275 59.7789 79.5401 59.8401 79.5407C59.8918 79.5438 59.9437 79.5438 59.9954 79.5407C60.2783 79.5407 60.5599 79.5299 60.838 79.5275L64.2312 79.4962L68.4538 79.4577C68.5343 79.4579 68.6148 79.4527 68.6946 79.442C68.7933 79.4332 68.8861 79.3911 68.9578 79.3226C69.0295 79.2542 69.0759 79.1635 69.0894 79.0653C69.1098 78.9633 69.1219 78.8599 69.1255 78.7559C69.1496 77.6461 69.1038 76.5423 68.8583 75.453C68.7023 74.6856 68.4174 73.9501 68.0157 73.2779ZM68.4105 78.3334C68.4105 78.4309 68.4033 78.5296 68.4105 78.6271C68.4177 78.7246 68.3732 78.7475 68.2901 78.7475C68.2504 78.7475 68.2095 78.7475 68.1698 78.7475L64.2409 78.7836L60.8476 78.8149C60.6635 78.8149 60.4793 78.8221 60.2939 78.8245C60.0664 78.8245 60.1001 78.8438 60.0869 78.6368C60.0634 78.1295 60.0731 77.6213 60.1158 77.1153C60.153 76.5401 60.2432 75.9695 60.3854 75.4108C60.5247 74.8156 60.7588 74.2466 61.0787 73.7257C61.3377 73.3037 61.6863 72.9438 62.0999 72.6715C62.5134 72.3992 62.9817 72.2212 63.4717 72.15C64.0633 72.0457 64.669 72.0497 65.2592 72.162C65.6911 72.2435 66.1014 72.414 66.4638 72.6627C66.8263 72.9114 67.133 73.2328 67.3645 73.6065C67.7325 74.1987 67.9948 74.8504 68.1397 75.5324C68.3416 76.4515 68.4325 77.3915 68.4105 78.3322V78.3334Z" fill="#0A1F27"/>
<path d="M64.5587 81.9433C63.3254 81.9543 62.123 82.3308 61.1036 83.0251C60.0843 83.7194 59.2936 84.7004 58.8318 85.844C58.3699 86.9876 58.2575 88.2425 58.5087 89.45C58.76 90.6575 59.3637 91.7634 60.2434 92.6278C61.1232 93.4923 62.2395 94.0764 63.4512 94.3064C64.6629 94.5365 65.9157 94.402 67.051 93.9201C68.1863 93.4382 69.1533 92.6305 69.8296 91.5991C70.5059 90.5677 70.8611 89.3589 70.8505 88.1256C70.8355 86.4715 70.1644 84.8911 68.9845 83.7318C67.8047 82.5725 66.2127 81.9292 64.5587 81.9433ZM69.6949 90.5318C69.2759 91.4369 68.6221 92.2133 67.8015 92.7803C67.2475 93.1645 66.6296 93.4474 65.9767 93.6157C65.6822 93.6883 65.3816 93.7334 65.0787 93.7505C64.9451 93.7589 64.8103 93.7709 64.6755 93.7685C64.2302 93.7793 63.7854 93.734 63.3514 93.6337C62.2432 93.3651 61.2413 92.7696 60.4758 91.9245C59.8682 91.2442 59.4298 90.43 59.1962 89.5483C59.1269 89.2753 59.0825 88.9965 59.0638 88.7154C59.0359 88.3919 59.0327 88.0668 59.0542 87.7428C59.0881 87.1412 59.2266 86.5502 59.4634 85.9962C59.8504 85.0818 60.4736 84.2867 61.269 83.6923C61.7998 83.3028 62.3928 83.0061 63.0228 82.8148C63.366 82.7127 63.719 82.6473 64.076 82.6198C64.2963 82.5994 64.5166 82.597 64.7369 82.5982C65.5102 82.6039 66.2728 82.7794 66.9709 83.1121C67.8477 83.5185 68.6038 84.1457 69.1653 84.9321C69.5647 85.4913 69.8607 86.1175 70.0392 86.781C70.1076 87.0435 70.1535 87.3113 70.1764 87.5815C70.1989 87.8191 70.2081 88.0578 70.2041 88.2965C70.1999 89.0698 70.0261 89.8329 69.6949 90.5318Z" fill="#0A1F27"/>
<path d="M68.8161 85.5496C68.7961 85.4626 68.7584 85.3806 68.7053 85.3088C68.674 85.2643 68.6427 85.2186 68.6078 85.1752C68.457 84.9757 68.2418 84.8345 67.9987 84.7756C67.6545 84.7022 67.6834 84.6793 67.297 84.7756C67.0323 84.8377 66.7992 84.9939 66.641 85.215C65.877 86.2525 65.1147 87.2921 64.3539 88.3338L63.7677 89.1366C63.7442 89.1297 63.7237 89.1148 63.71 89.0945C63.3332 88.7262 62.96 88.3542 62.5797 87.9895C62.4341 87.8303 62.2462 87.7159 62.038 87.6597L61.8141 87.6103C61.7211 87.5887 61.6243 87.5887 61.5312 87.6103C61.4807 87.6212 61.4313 87.638 61.3808 87.6464C61.1623 87.6872 60.9611 87.7924 60.803 87.9486C60.6638 88.0703 60.5588 88.2263 60.4985 88.4012C60.4617 88.524 60.4327 88.649 60.4118 88.7755C60.3998 88.8451 60.4022 88.9164 60.419 88.985C60.4443 89.0861 60.4672 89.1884 60.4925 89.2883C60.5066 89.3512 60.531 89.4114 60.5647 89.4664C60.6404 89.5889 60.7288 89.7031 60.8283 89.8071C61.3499 90.3175 61.8715 90.8282 62.3931 91.3394C62.5238 91.4686 62.6651 91.5866 62.8156 91.6921C62.9652 91.7993 63.1346 91.8758 63.3139 91.9172C63.4006 91.9364 63.4861 91.9581 63.5727 91.9762C63.7223 92.0108 63.877 92.0174 64.0289 91.9954C64.1373 91.9762 64.2432 91.9461 64.3503 91.922C64.7455 91.8313 65.093 91.5971 65.3253 91.2648C66.4087 89.7922 67.4892 88.3181 68.5669 86.8424C68.8462 86.4608 68.7872 86.539 68.8919 86.0973C68.9147 86.0044 68.9147 85.9073 68.8919 85.8144C68.8606 85.7277 68.8377 85.6387 68.8161 85.5496ZM68.1119 86.3753C67.8423 86.7364 67.5738 87.112 67.3042 87.4791L64.8342 90.8495C64.6499 91.1097 64.3706 91.287 64.0566 91.343C64.0004 91.3522 63.9438 91.3582 63.8869 91.3611C63.589 91.3696 63.2978 91.2715 63.066 91.0842C63.0203 91.0467 62.9769 91.0065 62.936 90.9638C62.3799 90.4262 61.8241 89.8829 61.2688 89.334C61.1653 89.2376 61.0942 89.1114 61.0654 88.9729C61.0471 88.885 61.0495 88.794 61.0722 88.7071C61.095 88.6203 61.1376 88.5398 61.1966 88.4722C61.2483 88.4063 61.3131 88.3519 61.3869 88.3124C61.4608 88.273 61.5421 88.2494 61.6256 88.2432C61.7091 88.237 61.7929 88.2482 61.8718 88.2763C61.9507 88.3043 62.0229 88.3485 62.0838 88.406C62.2198 88.5348 62.3522 88.666 62.4858 88.7972L63.722 90.0165C63.8339 90.1261 63.8424 90.1249 63.9278 90.0045L67.1104 85.6531C67.2054 85.5121 67.3497 85.4117 67.5149 85.3714C67.5997 85.3543 67.6873 85.3553 67.7717 85.3743C67.8562 85.3933 67.9357 85.4299 68.0051 85.4817C68.0745 85.5335 68.1322 85.5993 68.1745 85.6749C68.2167 85.7505 68.2426 85.8341 68.2503 85.9203C68.2612 86.0838 68.212 86.2456 68.1119 86.3753Z" fill="#0A1F27"/>
<path d="M67.5603 47.0757C69.9304 47.0757 72.2993 47.0757 74.6694 47.0757C74.8776 47.0757 74.9606 47.1082 74.9582 47.3465C74.9462 48.8379 74.9486 50.3293 74.9582 51.8207C74.9582 52.0337 74.8981 52.0951 74.6886 52.0867C74.2938 52.0711 73.8954 52.0674 73.5006 52.0867C73.2598 52.0999 73.1683 52.0458 73.1756 51.7761C73.196 50.9336 73.1864 50.091 73.1816 49.2484C73.1816 48.8355 73.2731 48.8524 72.7964 48.8524H63.5351C63.0801 48.8524 62.6239 48.862 62.1689 48.8524C61.9739 48.8524 61.9281 48.9125 61.9281 49.0931C61.9378 50.0115 61.9281 50.9311 61.9366 51.8496C61.9366 52.041 61.8824 52.0903 61.6958 52.0903C61.2408 52.0771 60.7858 52.0807 60.3308 52.0903C60.1792 52.0903 60.125 52.0506 60.125 51.8929C60.131 50.3582 60.1334 48.8247 60.125 47.2911C60.125 47.0576 60.255 47.0865 60.3994 47.0865L67.5603 47.0757Z" fill="#3AABE1"/>
<path d="M71.1922 53.1531C71.7844 53.1531 72.3646 53.1531 72.946 53.1531C73.0735 53.1531 73.1205 53.2265 73.1771 53.3108C73.4455 53.7164 73.7163 54.1197 74.0028 54.5494C74.2893 54.1269 74.5637 53.7345 74.8213 53.3325C74.8552 53.2713 74.9065 53.2217 74.9686 53.1897C75.0308 53.1578 75.101 53.1451 75.1704 53.1531C75.7181 53.1627 76.267 53.1531 76.8135 53.1531C76.8472 53.2494 76.7761 53.3 76.7364 53.3589C76.1935 54.1702 75.6531 54.9815 75.1006 55.7868C75.0572 55.8348 75.0332 55.8972 75.0332 55.9619C75.0332 56.0267 75.0572 56.0891 75.1006 56.1371C75.6627 56.9797 76.2152 57.8223 76.7701 58.6649C76.7918 58.6974 76.8086 58.7347 76.8508 58.8081C76.3813 58.8081 75.9372 58.7816 75.499 58.8165C75.0958 58.8478 74.8237 58.7455 74.6323 58.3627C74.4698 58.0353 74.2303 57.7452 74.0088 57.4166C73.7296 57.8331 73.4551 58.2267 73.1987 58.63C73.1658 58.6915 73.1152 58.7419 73.0534 58.7745C72.9916 58.8071 72.9215 58.8205 72.8521 58.8129C72.2972 58.8021 71.741 58.8129 71.1416 58.8129C71.4281 58.3868 71.6953 57.9848 71.9649 57.5851C72.2851 57.1097 72.5981 56.6318 72.9279 56.166C72.9755 56.1155 73.002 56.0488 73.002 55.9794C73.002 55.91 72.9755 55.8433 72.9279 55.7928C72.3802 54.9948 71.8446 54.1907 71.3029 53.3854C71.2407 53.3228 71.2016 53.2409 71.1922 53.1531Z" fill="#333333"/>
<path d="M61.941 53.974C62.1413 53.6331 62.4464 53.3662 62.8109 53.213C63.1753 53.0599 63.5796 53.0287 63.9632 53.1242C64.0704 53.1555 64.0631 53.2145 64.0631 53.2891C64.0631 53.7357 64.0631 54.1823 64.0631 54.6276C64.0631 54.7661 64.0078 54.7793 63.897 54.7552C63.7071 54.715 63.5119 54.7064 63.3192 54.73C62.4454 54.8335 61.9482 55.4028 61.9386 56.3297C61.9302 57.0868 61.9326 57.8451 61.9386 58.6035C61.9386 58.7636 61.9025 58.8177 61.7328 58.8129C61.279 58.8009 60.8228 58.8033 60.3678 58.8129C60.2245 58.8129 60.1836 58.772 60.1836 58.63C60.1836 56.8701 60.1836 55.1103 60.1836 53.3505C60.1836 53.1976 60.2257 53.1471 60.3834 53.1507C60.8372 53.1603 61.2934 53.1615 61.7472 53.1507C61.9145 53.1507 61.9458 53.2097 61.9374 53.3553C61.9326 53.5359 61.941 53.72 61.941 53.974Z" fill="#343333"/>
<path d="M65.0273 55.9722C65.0273 55.1043 65.0273 54.2352 65.0273 53.3674C65.0273 53.1952 65.0647 53.1362 65.2476 53.1423C65.7026 53.1555 66.1588 53.1495 66.6138 53.1423C66.7342 53.1423 66.81 53.1531 66.81 53.312C66.8044 55.0911 66.8044 56.8693 66.81 58.6468C66.81 58.7672 66.7775 58.8057 66.6548 58.8033C66.166 58.7973 65.6761 58.7924 65.1874 58.8033C65.0069 58.8033 65.0322 58.7046 65.0322 58.5962C65.0306 57.7296 65.0289 56.8549 65.0273 55.9722Z" fill="#333333"/>
<path d="M70.1366 56.0035C70.1366 56.8702 70.1366 57.7369 70.1366 58.6035C70.1366 58.766 70.0993 58.8178 69.932 58.813C69.477 58.8009 69.022 58.8034 68.567 58.813C68.4142 58.813 68.3516 58.7889 68.3516 58.612C68.3588 56.8618 68.3588 55.1116 68.3516 53.3614C68.3516 53.1989 68.3901 53.1435 68.5598 53.1484C69.0052 53.1604 69.4517 53.1616 69.8983 53.1484C70.0825 53.1484 70.1391 53.1857 70.1391 53.3795C70.1306 54.2534 70.1366 55.1297 70.1366 56.0035Z" fill="#343333"/>
<path d="M65.9305 49.9537C66.1978 49.9606 66.4521 50.0707 66.64 50.261C66.8279 50.4514 66.9347 50.7071 66.938 50.9745C66.9342 51.2458 66.8227 51.5046 66.6281 51.6937C66.5318 51.7874 66.4179 51.8612 66.2931 51.9108C66.1682 51.9605 66.0348 51.9851 65.9004 51.9832C65.6291 51.9793 65.3703 51.8679 65.1812 51.6733C64.992 51.4787 64.8879 51.2169 64.8917 50.9456C64.9041 50.6784 65.0189 50.4263 65.2124 50.2415C65.4058 50.0568 65.663 49.9538 65.9305 49.9537Z" fill="#3AABE1"/>
<path d="M70.2473 50.948C70.2515 51.2161 70.1491 51.4749 69.9627 51.6676C69.7763 51.8603 69.5211 51.9712 69.253 51.976C68.9811 51.971 68.7217 51.8607 68.5295 51.6683C68.3373 51.4758 68.2273 51.2163 68.2227 50.9444C68.2298 50.6807 68.3389 50.43 68.527 50.2451C68.7151 50.0601 68.9676 49.9552 69.2314 49.9525C69.3639 49.9495 69.4957 49.973 69.619 50.0217C69.7423 50.0704 69.8546 50.1432 69.9492 50.236C70.0439 50.3288 70.1191 50.4396 70.1703 50.5619C70.2215 50.6842 70.2476 50.8154 70.2473 50.948Z" fill="#3AABE1"/>
<path d="M57.8775 55.0225C57.7294 54.9431 57.579 54.8685 57.4104 54.7818C57.4682 54.7517 57.5127 54.7276 57.5573 54.706C58.6466 54.1775 58.8079 52.3888 57.8233 51.6389C57.3974 51.3319 56.8923 51.1535 56.368 51.1249C55.2077 51.0214 54.0425 51.1045 52.8773 51.078C52.7196 51.078 52.7256 51.1574 52.7256 51.267C52.7256 53.7177 52.7256 56.1693 52.7256 58.6216C52.7256 58.7817 52.7726 58.8142 52.9242 58.813C53.8679 58.813 54.8128 58.813 55.7565 58.813C56.4499 58.8046 57.136 58.7372 57.7667 58.4098C58.442 58.0571 58.755 57.4769 58.8019 56.7366C58.8525 55.9723 58.5612 55.3872 57.8775 55.0225ZM54.5071 52.8727C54.5071 52.7523 54.53 52.691 54.672 52.6934C55.127 52.7006 55.582 52.6873 56.0358 52.6994C56.4559 52.7102 56.6894 52.9642 56.6882 53.3723C56.6912 53.4609 56.676 53.5491 56.6438 53.6317C56.6115 53.7143 56.5627 53.7894 56.5004 53.8525C56.4381 53.9156 56.3636 53.9653 56.2814 53.9986C56.1993 54.0319 56.1112 54.0482 56.0226 54.0463C55.7951 54.0548 55.5676 54.0463 55.3401 54.0463C55.1126 54.0463 54.9019 54.0463 54.684 54.0463C54.5564 54.0463 54.5035 54.0174 54.5071 53.879C54.5143 53.5468 54.5119 53.2098 54.5059 52.8727H54.5071ZM56.8832 56.7246C56.7628 57.0724 56.4691 57.1663 56.1453 57.1868C55.9046 57.2024 55.6566 57.1868 55.4123 57.1868C55.1715 57.1868 54.9308 57.1808 54.6804 57.1868C54.5528 57.1868 54.5035 57.1579 54.5059 57.0195C54.5155 56.6247 54.5143 56.2286 54.5059 55.8338C54.5059 55.699 54.5468 55.6629 54.678 55.6641C55.1739 55.6725 55.6723 55.6557 56.167 55.6761C56.7785 55.7086 57.0818 56.1612 56.882 56.7234L56.8832 56.7246Z" fill="#343333"/>
<path d="M86.3994 79.8284C86.4066 79.779 86.4102 79.7562 86.4102 79.7513L86.3994 79.8284Z" fill="#DEF2F6"/>
<path d="M86.3994 79.8284C86.4066 79.779 86.4102 79.7562 86.4102 79.7513L86.3994 79.8284Z" fill="#DEF2F6"/>
<path d="M115.917 83.9644L115.927 83.8873L115.917 83.9644Z" fill="#DEF2F6"/>
<path d="M115.917 83.9644L115.927 83.8873L115.917 83.9644Z" fill="#DEF2F6"/>
<path d="M102.162 74.8969C98.4183 77.9567 92.8127 80.1185 87.0638 80.5844C87.012 80.9575 86.7231 83.0219 85.3894 92.5371C83.6104 105.23 94.8517 113.075 96.6043 114.282C98.5363 113.692 111.616 109.154 113.395 96.4672C114.727 86.958 115.017 84.8876 115.069 84.5157C109.671 82.4814 104.922 78.8679 102.162 74.8969Z" fill="white"/>
<path d="M101.946 76.2703C98.1568 78.9052 93.159 80.7023 87.8434 81.3258L86.2569 92.6527C85.5347 97.8286 86.9551 102.801 90.4892 107.42C92.2643 109.723 94.3702 111.751 96.7388 113.438L96.9482 113.364L101.971 76.3064L101.946 76.2703Z" fill="#8DC1D2"/>
<path d="M101.971 76.3015L96.9482 113.359C99.6105 112.393 102.12 111.049 104.4 109.37C109.067 105.899 111.802 101.514 112.528 96.3335L114.111 85.0115C109.191 82.9532 104.89 79.8633 101.971 76.3015Z" fill="#C6E4F1"/>
<path d="M99.5671 102.588C104.133 102.588 107.835 98.8862 107.835 94.3198C107.835 89.7533 104.133 86.0515 99.5671 86.0515C95.0006 86.0515 91.2988 89.7533 91.2988 94.3198C91.2988 98.8862 95.0006 102.588 99.5671 102.588Z" fill="white"/>
<path d="M97.389 99.5715C97.2767 99.5568 97.1691 99.5175 97.0736 99.4566C96.9781 99.3956 96.8972 99.3145 96.8365 99.2188L94.0247 94.7651C93.9709 94.6798 93.9344 94.5847 93.9173 94.4852C93.9003 94.3857 93.9029 94.2839 93.9252 94.1855C93.9475 94.0871 93.989 93.994 94.0473 93.9116C94.1055 93.8292 94.1795 93.7591 94.2648 93.7053C94.3502 93.6515 94.4453 93.615 94.5448 93.5979C94.6442 93.5808 94.7461 93.5835 94.8445 93.6058C94.9429 93.6281 95.036 93.6696 95.1184 93.7279C95.2007 93.7861 95.2709 93.8601 95.3247 93.9454L97.5551 97.4783L103.363 90.0743C103.495 89.9341 103.674 89.8484 103.866 89.834C104.058 89.8197 104.248 89.8778 104.4 89.9969C104.551 90.116 104.652 90.2875 104.683 90.4774C104.714 90.6673 104.672 90.8619 104.567 91.0228L98.086 99.2851C98.01 99.382 97.9118 99.4593 97.7998 99.5104C97.6877 99.5615 97.565 99.5849 97.442 99.5788L97.389 99.5715Z" fill="#917F50"/>
</svg>
