<svg width="70" height="70" viewBox="0 0 70 70" fill="none" xmlns="http://www.w3.org/2000/svg">
<path d="M17.5 28.7112V12.6853C17.5 12.1058 17.7011 11.5499 18.0592 11.1401C18.4172 10.7302 18.9028 10.5 19.4091 10.5H57.5909C58.0972 10.5 58.5828 10.7302 58.9408 11.1401C59.2989 11.5499 59.5 12.1058 59.5 12.6853V28.7112C59.5 51.6614 42.4838 59.265 39.0861 60.5544C35.6885 61.8439 35.9632 61.3996 35.5833 61.25C32.1857 59.9605 17.5 51.6614 17.5 28.7112Z" fill="#1F9ED3"/>
<path fill-rule="evenodd" clip-rule="evenodd" d="M13.1247 12.1041C12.8539 12.1041 12.5943 12.2117 12.4028 12.4031C12.2114 12.5946 12.1038 12.8542 12.1038 13.125V29.1666C12.1038 51.3067 30.8642 58.6639 34.6952 59.934L34.7078 59.9382L34.7077 59.9383C34.8969 60.0034 35.1024 60.0034 35.2916 59.9383L35.3041 59.9339L35.3041 59.934C39.1352 58.6639 57.8955 51.3067 57.8955 29.1666V13.125C57.8955 12.8542 57.788 12.5946 57.5965 12.4031C57.4051 12.2117 57.1454 12.1041 56.8747 12.1041H13.1247ZM10.7529 10.7532C11.3819 10.1242 12.2351 9.77081 13.1247 9.77081H56.8747C57.7643 9.77081 58.6174 10.1242 59.2464 10.7532C59.8755 11.3823 60.2288 12.2354 60.2288 13.125V29.1666C60.2288 52.9614 40.0125 60.8302 36.0439 62.147C35.367 62.3782 34.6324 62.3782 33.9554 62.147C29.9869 60.8302 9.77051 52.9614 9.77051 29.1666V13.125C9.77051 12.2354 10.1239 11.3823 10.7529 10.7532Z" fill="#262626"/>
<path fill-rule="evenodd" clip-rule="evenodd" d="M45.1845 27.2021C45.6252 27.6721 45.6013 28.4104 45.1313 28.8511L32.6868 40.5178C32.238 40.9385 31.5397 40.9385 31.0909 40.5178L24.8687 34.6844C24.3987 34.2438 24.3749 33.5054 24.8155 33.0354C25.2562 32.5653 25.9945 32.5415 26.4646 32.9822L31.8888 38.0675L43.5354 27.1489C44.0055 26.7082 44.7438 26.732 45.1845 27.2021Z" fill="#262626"/>
</svg>
