<svg width="131" height="130" viewBox="0 0 131 130" fill="none" xmlns="http://www.w3.org/2000/svg">
<path opacity="0.15" d="M118.841 107.191L17.0666 107.144C17.0666 107.144 -0.133144 75.9537 9.0463 55.0778C18.2257 34.202 31.6157 48.9389 32.7328 33.8614C32.7713 33.351 32.7412 32.8466 32.7412 32.3531C32.7412 32.2327 32.7412 32.1196 32.7472 32.004C33.0903 23.3446 37.3827 17.7486 43.0485 14.5287C43.2315 14.4235 43.4157 14.322 43.601 14.2241C52.6348 9.40932 64.8512 10.3976 70.2582 14.5407C79.4594 21.5896 79.4064 30.0745 98.4008 27.2759C117.395 24.4773 121.03 47.8809 116.078 59.8048C109.055 76.724 135.533 73.9447 118.841 107.191Z" fill="#196181"/>
<path d="M64.5704 125.06C96.8478 125.06 123.014 119.111 123.014 111.774C123.014 104.436 96.8478 98.4871 64.5704 98.4871C32.293 98.4871 6.12695 104.436 6.12695 111.774C6.12695 119.111 32.293 125.06 64.5704 125.06Z" fill="#E5F2FC"/>
<path d="M102.235 88.5264H80.4873V93.1847H102.235V88.5264Z" fill="#C3AA6D"/>
<path d="M82.6176 93.216C82.5683 93.216 82.5273 92.182 82.5273 90.9061C82.5273 89.6301 82.5683 88.595 82.6176 88.595C82.667 88.595 82.7091 89.6289 82.7091 90.9061C82.7091 92.1832 82.6682 93.216 82.6176 93.216Z" fill="#D8BE76"/>
<path d="M81.4282 93.216C81.3788 93.216 81.3379 92.182 81.3379 90.9061C81.3379 89.6301 81.3788 88.595 81.4282 88.595C81.4775 88.595 81.5184 89.6289 81.5184 90.9061C81.5184 92.1832 81.4787 93.216 81.4282 93.216Z" fill="#D8BE76"/>
<path d="M85.2309 93.216C85.1816 93.216 85.1406 92.182 85.1406 90.9061C85.1406 89.6301 85.1816 88.595 85.2309 88.595C85.2803 88.595 85.3212 89.6289 85.3212 90.9061C85.3212 92.1832 85.2815 93.216 85.2309 93.216Z" fill="#D8BE76"/>
<path d="M84.0366 93.216C83.986 93.216 83.9463 92.182 83.9463 90.9061C83.9463 89.6301 83.986 88.595 84.0366 88.595C84.0871 88.595 84.1268 89.6289 84.1268 90.9061C84.1268 92.1832 84.0919 93.216 84.0366 93.216Z" fill="#D8BE76"/>
<path d="M87.8442 93.216C87.7948 93.216 87.7539 92.182 87.7539 90.9061C87.7539 89.6301 87.7948 88.595 87.8442 88.595C87.8935 88.595 87.9345 89.6289 87.9345 90.9061C87.9345 92.1832 87.8947 93.216 87.8442 93.216Z" fill="#D8BE76"/>
<path d="M86.6547 93.216C86.6042 93.216 86.5645 92.182 86.5645 90.9061C86.5645 89.6301 86.6042 88.595 86.6547 88.595C86.7053 88.595 86.745 89.6289 86.745 90.9061C86.745 92.1832 86.7041 93.216 86.6547 93.216Z" fill="#D8BE76"/>
<path d="M90.4575 93.216C90.4069 93.216 90.3672 92.182 90.3672 90.9061C90.3672 89.6301 90.4069 88.595 90.4575 88.595C90.508 88.595 90.5477 89.6289 90.5477 90.9061C90.5477 92.1832 90.5068 93.216 90.4575 93.216Z" fill="#D8BE76"/>
<path d="M89.268 93.216C89.2175 93.216 89.1777 92.182 89.1777 90.9061C89.1777 89.6301 89.2175 88.595 89.268 88.595C89.3186 88.595 89.3583 89.6289 89.3583 90.9061C89.3583 92.1832 89.3174 93.216 89.268 93.216Z" fill="#D8BE76"/>
<path d="M93.0707 93.216C93.0202 93.216 92.9805 92.182 92.9805 90.9061C92.9805 89.6301 93.0202 88.595 93.0707 88.595C93.1213 88.595 93.161 89.6289 93.161 90.9061C93.161 92.1832 93.1201 93.216 93.0707 93.216Z" fill="#D8BE76"/>
<path d="M91.8815 93.216C91.831 93.216 91.79 92.182 91.79 90.9061C91.79 89.6301 91.831 88.595 91.8815 88.595C91.9321 88.595 91.9718 89.6289 91.9718 90.9061C91.9718 92.1832 91.9309 93.216 91.8815 93.216Z" fill="#D8BE76"/>
<path d="M95.6843 93.216C95.6337 93.216 95.5928 92.182 95.5928 90.9061C95.5928 89.6301 95.6337 88.595 95.6843 88.595C95.7348 88.595 95.7745 89.6289 95.7745 90.9061C95.7745 92.1832 95.7336 93.216 95.6843 93.216Z" fill="#D8BE76"/>
<path d="M94.4936 93.216C94.4442 93.216 94.4033 92.182 94.4033 90.9061C94.4033 89.6301 94.4442 88.595 94.4936 88.595C94.5429 88.595 94.5851 89.6289 94.5851 90.9061C94.5851 92.1832 94.5442 93.216 94.4936 93.216Z" fill="#D8BE76"/>
<path d="M98.2963 93.216C98.247 93.216 98.2061 92.182 98.2061 90.9061C98.2061 89.6301 98.247 88.595 98.2963 88.595C98.3457 88.595 98.3878 89.6289 98.3878 90.9061C98.3878 92.1832 98.3469 93.216 98.2963 93.216Z" fill="#D8BE76"/>
<path d="M97.1069 93.216C97.0575 93.216 97.0166 92.182 97.0166 90.9061C97.0166 89.6301 97.0575 88.595 97.1069 88.595C97.1562 88.595 97.1972 89.6289 97.1972 90.9061C97.1972 92.1832 97.1574 93.216 97.1069 93.216Z" fill="#D8BE76"/>
<path d="M100.91 93.216C100.86 93.216 100.819 92.182 100.819 90.9061C100.819 89.6301 100.86 88.595 100.91 88.595C100.959 88.595 101 89.6289 101 90.9061C101 92.1832 100.96 93.216 100.91 93.216Z" fill="#D8BE76"/>
<path d="M99.7202 93.216C99.6696 93.216 99.6299 92.182 99.6299 90.9061C99.6299 89.6301 99.6696 88.595 99.7202 88.595C99.7707 88.595 99.8104 89.6289 99.8104 90.9061C99.8104 92.1832 99.7707 93.216 99.7202 93.216Z" fill="#D8BE76"/>
<path d="M102.234 88.5263C102.234 88.5853 97.3423 88.6322 91.3106 88.6322C85.2788 88.6322 80.3857 88.5853 80.3857 88.5263C80.3857 88.4673 85.2764 88.4192 91.3106 88.4192C97.3447 88.4192 102.234 88.4722 102.234 88.5263Z" fill="#D8BE76"/>
<path d="M100.811 93.257H79.0635V97.9153H100.811V93.257Z" fill="#C3AA6D"/>
<path d="M81.1948 97.9478C81.1442 97.9478 81.1045 96.9126 81.1045 95.6367C81.1045 94.3608 81.1442 93.3268 81.1948 93.3268C81.2453 93.3268 81.285 94.3608 81.285 95.6367C81.285 96.9126 81.2441 97.9478 81.1948 97.9478Z" fill="#D8BE76"/>
<path d="M80.0055 97.9478C79.955 97.9478 79.9141 96.9126 79.9141 95.6367C79.9141 94.3608 79.955 93.3268 80.0055 93.3268C80.0561 93.3268 80.0958 94.3608 80.0958 95.6367C80.0958 96.9126 80.0549 97.9478 80.0055 97.9478Z" fill="#D8BE76"/>
<path d="M83.8083 97.9478C83.7577 97.9478 83.7168 96.9126 83.7168 95.6367C83.7168 94.3608 83.7577 93.3268 83.8083 93.3268C83.8588 93.3268 83.8985 94.3608 83.8985 95.6367C83.8985 96.9126 83.8576 97.9478 83.8083 97.9478Z" fill="#D8BE76"/>
<path d="M82.6176 97.9478C82.5683 97.9478 82.5273 96.9126 82.5273 95.6367C82.5273 94.3608 82.5683 93.3268 82.6176 93.3268C82.667 93.3268 82.7091 94.3608 82.7091 95.6367C82.7091 96.9126 82.6682 97.9478 82.6176 97.9478Z" fill="#D8BE76"/>
<path d="M86.4204 97.9478C86.371 97.9478 86.3301 96.9126 86.3301 95.6367C86.3301 94.3608 86.371 93.3268 86.4204 93.3268C86.4697 93.3268 86.5118 94.3608 86.5118 95.6367C86.5118 96.9126 86.4709 97.9478 86.4204 97.9478Z" fill="#D8BE76"/>
<path d="M85.2309 97.9478C85.1816 97.9478 85.1406 96.9126 85.1406 95.6367C85.1406 94.3608 85.1816 93.3268 85.2309 93.3268C85.2803 93.3268 85.3212 94.3608 85.3212 95.6367C85.3212 96.9126 85.2815 97.9478 85.2309 97.9478Z" fill="#D8BE76"/>
<path d="M89.0336 97.9478C88.9843 97.9478 88.9434 96.9126 88.9434 95.6367C88.9434 94.3608 88.9843 93.3268 89.0336 93.3268C89.083 93.3268 89.1239 94.3608 89.1239 95.6367C89.1239 96.9126 89.0842 97.9478 89.0336 97.9478Z" fill="#D8BE76"/>
<path d="M87.8442 97.9478C87.7948 97.9478 87.7539 96.9126 87.7539 95.6367C87.7539 94.3608 87.7948 93.3268 87.8442 93.3268C87.8935 93.3268 87.9345 94.3608 87.9345 95.6367C87.9345 96.9126 87.8947 97.9478 87.8442 97.9478Z" fill="#D8BE76"/>
<path d="M91.6469 97.9478C91.5976 97.9478 91.5566 96.9126 91.5566 95.6367C91.5566 94.3608 91.5976 93.3268 91.6469 93.3268C91.6963 93.3268 91.7372 94.3608 91.7372 95.6367C91.7372 96.9126 91.6975 97.9478 91.6469 97.9478Z" fill="#D8BE76"/>
<path d="M90.4575 97.9478C90.4069 97.9478 90.3672 96.9126 90.3672 95.6367C90.3672 94.3608 90.4069 93.3268 90.4575 93.3268C90.508 93.3268 90.5477 94.3608 90.5477 95.6367C90.5477 96.9126 90.5068 97.9478 90.4575 97.9478Z" fill="#D8BE76"/>
<path d="M94.2602 97.9478C94.2096 97.9478 94.1699 96.9126 94.1699 95.6367C94.1699 94.3608 94.2096 93.3268 94.2602 93.3268C94.3108 93.3268 94.3505 94.3608 94.3505 95.6367C94.3505 96.9126 94.3108 97.9478 94.2602 97.9478Z" fill="#D8BE76"/>
<path d="M93.0707 97.9478C93.0202 97.9478 92.9805 96.9126 92.9805 95.6367C92.9805 94.3608 93.0202 93.3268 93.0707 93.3268C93.1213 93.3268 93.161 94.3608 93.161 95.6367C93.161 96.9126 93.1201 97.9478 93.0707 97.9478Z" fill="#D8BE76"/>
<path d="M96.8735 97.9478C96.8229 97.9478 96.7832 96.9126 96.7832 95.6367C96.7832 94.3608 96.8229 93.3268 96.8735 93.3268C96.924 93.3268 96.9638 94.3608 96.9638 95.6367C96.9638 96.9126 96.9228 97.9478 96.8735 97.9478Z" fill="#D8BE76"/>
<path d="M95.6843 97.9478C95.6337 97.9478 95.5928 96.9126 95.5928 95.6367C95.5928 94.3608 95.6337 93.3268 95.6843 93.3268C95.7348 93.3268 95.7745 94.3608 95.7745 95.6367C95.7745 96.9126 95.7336 97.9478 95.6843 97.9478Z" fill="#D8BE76"/>
<path d="M99.487 97.9478C99.4364 97.9478 99.3955 96.9126 99.3955 95.6367C99.3955 94.3608 99.4364 93.3268 99.487 93.3268C99.5375 93.3268 99.5773 94.3608 99.5773 95.6367C99.5773 96.9126 99.5363 97.9478 99.487 97.9478Z" fill="#D8BE76"/>
<path d="M98.2963 97.9478C98.247 97.9478 98.2061 96.9126 98.2061 95.6367C98.2061 94.3608 98.247 93.3268 98.2963 93.3268C98.3457 93.3268 98.3878 94.3608 98.3878 95.6367C98.3878 96.9126 98.3469 97.9478 98.2963 97.9478Z" fill="#D8BE76"/>
<path d="M100.81 93.2569C100.81 93.3159 95.9197 93.3641 89.8867 93.3641C83.8538 93.3641 78.9619 93.3159 78.9619 93.2569C78.9619 93.1979 83.8526 93.151 89.8867 93.151C95.9209 93.151 100.81 93.1979 100.81 93.2569Z" fill="#D8BE76"/>
<path d="M102.588 97.9478H80.8408V102.606H102.588V97.9478Z" fill="#C3AA6D"/>
<path d="M82.9721 102.637C82.9228 102.637 82.8818 101.603 82.8818 100.327C82.8818 99.0515 82.9228 98.0164 82.9721 98.0164C83.0215 98.0164 83.0624 99.0515 83.0624 100.327C83.0624 101.603 83.0227 102.637 82.9721 102.637Z" fill="#D8BE76"/>
<path d="M81.7827 102.637C81.7321 102.637 81.6924 101.603 81.6924 100.327C81.6924 99.0515 81.7321 98.0164 81.7827 98.0164C81.8332 98.0164 81.8729 99.0515 81.8729 100.327C81.8729 101.603 81.8332 102.637 81.7827 102.637Z" fill="#D8BE76"/>
<path d="M85.5854 102.637C85.5348 102.637 85.4951 101.603 85.4951 100.327C85.4951 99.0515 85.5348 98.0164 85.5854 98.0164C85.636 98.0164 85.6757 99.0515 85.6757 100.327C85.6757 101.603 85.636 102.637 85.5854 102.637Z" fill="#D8BE76"/>
<path d="M84.3979 102.637C84.3473 102.637 84.3076 101.603 84.3076 100.327C84.3076 99.0515 84.3473 98.0164 84.3979 98.0164C84.4485 98.0164 84.4882 99.0515 84.4882 100.327C84.4882 101.603 84.4448 102.637 84.3979 102.637Z" fill="#D8BE76"/>
<path d="M88.1987 102.637C88.1481 102.637 88.1084 101.603 88.1084 100.327C88.1084 99.0515 88.1481 98.0164 88.1987 98.0164C88.2492 98.0164 88.289 99.0515 88.289 100.327C88.289 101.603 88.2504 102.637 88.1987 102.637Z" fill="#D8BE76"/>
<path d="M87.0095 102.637C86.9589 102.637 86.918 101.603 86.918 100.327C86.918 99.0515 86.9589 98.0164 87.0095 98.0164C87.06 98.0164 87.0997 99.0515 87.0997 100.327C87.0997 101.603 87.0588 102.637 87.0095 102.637Z" fill="#D8BE76"/>
<path d="M90.811 102.637C90.7604 102.637 90.7207 101.603 90.7207 100.327C90.7207 99.0515 90.7604 98.0164 90.811 98.0164C90.8615 98.0164 90.9013 99.0515 90.9013 100.327C90.9013 101.603 90.8603 102.637 90.811 102.637Z" fill="#D8BE76"/>
<path d="M89.6206 102.637C89.5712 102.637 89.5303 101.603 89.5303 100.327C89.5303 99.0515 89.5712 98.0164 89.6206 98.0164C89.6699 98.0164 89.712 99.0515 89.712 100.327C89.712 101.603 89.6711 102.637 89.6206 102.637Z" fill="#D8BE76"/>
<path d="M93.4255 102.637C93.3749 102.637 93.334 101.603 93.334 100.327C93.334 99.0515 93.3749 98.0164 93.4255 98.0164C93.476 98.0164 93.5157 99.0515 93.5157 100.327C93.5157 101.603 93.4736 102.637 93.4255 102.637Z" fill="#D8BE76"/>
<path d="M92.2338 102.637C92.1845 102.637 92.1436 101.603 92.1436 100.327C92.1436 99.0515 92.1845 98.0164 92.2338 98.0164C92.2832 98.0164 92.3253 99.0515 92.3253 100.327C92.3253 101.603 92.2844 102.637 92.2338 102.637Z" fill="#D8BE76"/>
<path d="M96.0366 102.637C95.9872 102.637 95.9463 101.603 95.9463 100.327C95.9463 99.0515 95.9872 98.0164 96.0366 98.0164C96.0859 98.0164 96.128 99.0515 96.128 100.327C96.128 101.603 96.0871 102.637 96.0366 102.637Z" fill="#D8BE76"/>
<path d="M94.8471 102.637C94.7978 102.637 94.7568 101.603 94.7568 100.327C94.7568 99.0515 94.7978 98.0164 94.8471 98.0164C94.8965 98.0164 94.9374 99.0515 94.9374 100.327C94.9374 101.603 94.8977 102.637 94.8471 102.637Z" fill="#D8BE76"/>
<path d="M98.6498 102.637C98.6005 102.637 98.5596 101.603 98.5596 100.327C98.5596 99.0515 98.6005 98.0164 98.6498 98.0164C98.6992 98.0164 98.7401 99.0515 98.7401 100.327C98.7401 101.603 98.7004 102.637 98.6498 102.637Z" fill="#D8BE76"/>
<path d="M97.4604 102.637C97.4098 102.637 97.3701 101.603 97.3701 100.327C97.3701 99.0515 97.4098 98.0164 97.4604 98.0164C97.511 98.0164 97.5507 99.0515 97.5507 100.327C97.5507 101.603 97.511 102.637 97.4604 102.637Z" fill="#D8BE76"/>
<path d="M101.263 102.637C101.214 102.637 101.173 101.603 101.173 100.327C101.173 99.0515 101.214 98.0164 101.263 98.0164C101.312 98.0164 101.353 99.0515 101.353 100.327C101.353 101.603 101.314 102.637 101.263 102.637Z" fill="#D8BE76"/>
<path d="M100.074 102.637C100.023 102.637 99.9834 101.603 99.9834 100.327C99.9834 99.0515 100.023 98.0164 100.074 98.0164C100.124 98.0164 100.164 99.0515 100.164 100.327C100.164 101.603 100.123 102.637 100.074 102.637Z" fill="#D8BE76"/>
<path d="M102.588 97.9478C102.588 98.0068 97.6842 98.055 91.6344 98.055C85.5846 98.055 80.6807 98.0068 80.6807 97.9478C80.6807 97.8888 85.5833 97.8407 91.6344 97.8407C97.6854 97.8407 102.588 97.8888 102.588 97.9478Z" fill="#D8BE76"/>
<path d="M100.884 102.569H79.1367V107.227H100.884V102.569Z" fill="#C3AA6D"/>
<path d="M81.269 107.258C81.2184 107.258 81.1787 106.224 81.1787 104.949C81.1787 103.673 81.2184 102.637 81.269 102.637C81.3195 102.637 81.3593 103.673 81.3593 104.949C81.3593 106.224 81.3171 107.258 81.269 107.258Z" fill="#D8BE76"/>
<path d="M80.0776 107.258C80.027 107.258 79.9873 106.224 79.9873 104.949C79.9873 103.673 80.027 102.637 80.0776 102.637C80.1281 102.637 80.1679 103.673 80.1679 104.949C80.1679 106.224 80.1269 107.258 80.0776 107.258Z" fill="#D8BE76"/>
<path d="M83.8803 107.258C83.8298 107.258 83.79 106.224 83.79 104.949C83.79 103.673 83.8298 102.637 83.8803 102.637C83.9309 102.637 83.9706 103.673 83.9706 104.949C83.9706 106.224 83.9297 107.258 83.8803 107.258Z" fill="#D8BE76"/>
<path d="M82.6911 107.258C82.6405 107.258 82.5996 106.224 82.5996 104.949C82.5996 103.673 82.6405 102.637 82.6911 102.637C82.7416 102.637 82.7814 103.673 82.7814 104.949C82.7814 106.224 82.7404 107.258 82.6911 107.258Z" fill="#D8BE76"/>
<path d="M86.4938 107.258C86.4433 107.258 86.4023 106.224 86.4023 104.949C86.4023 103.673 86.4433 102.637 86.4938 102.637C86.5444 102.637 86.5841 103.673 86.5841 104.949C86.5841 106.224 86.5432 107.258 86.4938 107.258Z" fill="#D8BE76"/>
<path d="M85.3032 107.258C85.2538 107.258 85.2129 106.224 85.2129 104.949C85.2129 103.673 85.2538 102.637 85.3032 102.637C85.3525 102.637 85.3947 103.673 85.3947 104.949C85.3947 106.224 85.3537 107.258 85.3032 107.258Z" fill="#D8BE76"/>
<path d="M89.1059 107.258C89.0566 107.258 89.0156 106.224 89.0156 104.949C89.0156 103.673 89.0566 102.637 89.1059 102.637C89.1553 102.637 89.1974 103.673 89.1974 104.949C89.1974 106.224 89.1565 107.258 89.1059 107.258Z" fill="#D8BE76"/>
<path d="M87.9164 107.258C87.8671 107.258 87.8262 106.224 87.8262 104.949C87.8262 103.673 87.8671 102.637 87.9164 102.637C87.9658 102.637 88.0067 103.673 88.0067 104.949C88.0067 106.224 87.967 107.258 87.9164 107.258Z" fill="#D8BE76"/>
<path d="M91.7192 107.258C91.6698 107.258 91.6289 106.224 91.6289 104.949C91.6289 103.673 91.6698 102.637 91.7192 102.637C91.7685 102.637 91.8107 103.673 91.8107 104.949C91.8107 106.224 91.7697 107.258 91.7192 107.258Z" fill="#D8BE76"/>
<path d="M90.5297 107.258C90.4804 107.258 90.4395 106.224 90.4395 104.949C90.4395 103.673 90.4804 102.637 90.5297 102.637C90.5791 102.637 90.62 103.673 90.62 104.949C90.62 106.224 90.5803 107.258 90.5297 107.258Z" fill="#D8BE76"/>
<path d="M94.3325 107.258C94.2831 107.258 94.2422 106.224 94.2422 104.949C94.2422 103.673 94.2831 102.637 94.3325 102.637C94.3818 102.637 94.4227 103.673 94.4227 104.949C94.4227 106.224 94.389 107.258 94.3325 107.258Z" fill="#D8BE76"/>
<path d="M93.143 107.258C93.0925 107.258 93.0527 106.224 93.0527 104.949C93.0527 103.673 93.0925 102.637 93.143 102.637C93.1936 102.637 93.2333 103.673 93.2333 104.949C93.2333 106.224 93.1924 107.258 93.143 107.258Z" fill="#D8BE76"/>
<path d="M96.9457 107.258C96.8952 107.258 96.8555 106.224 96.8555 104.949C96.8555 103.673 96.8952 102.637 96.9457 102.637C96.9963 102.637 97.036 103.673 97.036 104.949C97.036 106.224 96.9963 107.258 96.9457 107.258Z" fill="#D8BE76"/>
<path d="M95.7563 107.258C95.7057 107.258 95.666 106.224 95.666 104.949C95.666 103.673 95.7057 102.637 95.7563 102.637C95.8068 102.637 95.8466 103.673 95.8466 104.949C95.8466 106.224 95.8056 107.258 95.7563 107.258Z" fill="#D8BE76"/>
<path d="M99.5649 107.258C99.5143 107.258 99.4746 106.224 99.4746 104.949C99.4746 103.673 99.5143 102.637 99.5649 102.637C99.6154 102.637 99.6552 103.673 99.6552 104.949C99.6552 106.224 99.6082 107.258 99.5649 107.258Z" fill="#D8BE76"/>
<path d="M98.3698 107.258C98.3192 107.258 98.2783 106.224 98.2783 104.949C98.2783 103.673 98.3192 102.637 98.3698 102.637C98.4204 102.637 98.4601 103.673 98.4601 104.949C98.4601 106.224 98.4192 107.258 98.3698 107.258Z" fill="#D8BE76"/>
<path d="M100.889 102.569C100.889 102.628 95.9986 102.675 89.9656 102.675C83.9326 102.675 79.042 102.628 79.042 102.569C79.042 102.51 83.9314 102.462 89.9656 102.462C95.9998 102.462 100.889 102.51 100.889 102.569Z" fill="#D8BE76"/>
<path d="M103.063 107.293H81.3154V111.952H103.063V107.293Z" fill="#C3AA6D"/>
<path d="M83.4469 111.983C83.3964 111.983 83.3555 110.949 83.3555 109.673C83.3555 108.397 83.3964 107.362 83.4469 107.362C83.4975 107.362 83.5372 108.397 83.5372 109.673C83.5372 110.949 83.4963 111.983 83.4469 111.983Z" fill="#D8BE76"/>
<path d="M82.2563 111.983C82.2069 111.983 82.166 110.949 82.166 109.673C82.166 108.397 82.2069 107.362 82.2563 107.362C82.3056 107.362 82.3478 108.397 82.3478 109.673C82.3478 110.949 82.3068 111.983 82.2563 111.983Z" fill="#D8BE76"/>
<path d="M86.059 111.983C86.0097 111.983 85.9688 110.949 85.9688 109.673C85.9688 108.397 86.0097 107.362 86.059 107.362C86.1084 107.362 86.1505 108.397 86.1505 109.673C86.1505 110.949 86.1096 111.983 86.059 111.983Z" fill="#D8BE76"/>
<path d="M84.8696 111.983C84.8202 111.983 84.7793 110.949 84.7793 109.673C84.7793 108.397 84.8202 107.362 84.8696 107.362C84.9189 107.362 84.9599 108.397 84.9599 109.673C84.9599 110.949 84.9201 111.983 84.8696 111.983Z" fill="#D8BE76"/>
<path d="M88.6723 111.983C88.623 111.983 88.582 110.949 88.582 109.673C88.582 108.397 88.623 107.362 88.6723 107.362C88.7217 107.362 88.7626 108.397 88.7626 109.673C88.7626 110.949 88.7229 111.983 88.6723 111.983Z" fill="#D8BE76"/>
<path d="M87.4829 111.983C87.4323 111.983 87.3926 110.949 87.3926 109.673C87.3926 108.397 87.4323 107.362 87.4829 107.362C87.5334 107.362 87.5731 108.397 87.5731 109.673C87.5731 110.949 87.5334 111.983 87.4829 111.983Z" fill="#D8BE76"/>
<path d="M91.2856 111.983C91.2362 111.983 91.1953 110.949 91.1953 109.673C91.1953 108.397 91.2362 107.362 91.2856 107.362C91.3349 107.362 91.3759 108.397 91.3759 109.673C91.3759 110.949 91.3361 111.983 91.2856 111.983Z" fill="#D8BE76"/>
<path d="M90.0961 111.983C90.0456 111.983 90.0059 110.949 90.0059 109.673C90.0059 108.397 90.0456 107.362 90.0961 107.362C90.1467 107.362 90.1864 108.397 90.1864 109.673C90.1864 110.949 90.1455 111.983 90.0961 111.983Z" fill="#D8BE76"/>
<path d="M93.8989 111.983C93.8483 111.983 93.8086 110.949 93.8086 109.673C93.8086 108.397 93.8483 107.362 93.8989 107.362C93.9494 107.362 93.9891 108.397 93.9891 109.673C93.9891 110.949 93.9482 111.983 93.8989 111.983Z" fill="#D8BE76"/>
<path d="M92.7096 111.983C92.6591 111.983 92.6182 110.949 92.6182 109.673C92.6182 108.397 92.6591 107.362 92.7096 107.362C92.7602 107.362 92.7999 108.397 92.7999 109.673C92.7999 110.949 92.759 111.983 92.7096 111.983Z" fill="#D8BE76"/>
<path d="M96.5122 111.983C96.4616 111.983 96.4219 110.949 96.4219 109.673C96.4219 108.397 96.4616 107.362 96.5122 107.362C96.5627 107.362 96.6024 108.397 96.6024 109.673C96.6024 110.949 96.5615 111.983 96.5122 111.983Z" fill="#D8BE76"/>
<path d="M95.3229 111.983C95.2724 111.983 95.2314 110.949 95.2314 109.673C95.2314 108.397 95.2724 107.362 95.3229 107.362C95.3735 107.362 95.4132 108.397 95.4132 109.673C95.4132 110.949 95.3723 111.983 95.3229 111.983Z" fill="#D8BE76"/>
<path d="M99.1257 111.983C99.0751 111.983 99.0342 110.949 99.0342 109.673C99.0342 108.397 99.0751 107.362 99.1257 107.362C99.1762 107.362 99.2159 108.397 99.2159 109.673C99.2159 110.949 99.175 111.983 99.1257 111.983Z" fill="#D8BE76"/>
<path d="M97.935 111.983C97.8857 111.983 97.8447 110.949 97.8447 109.673C97.8447 108.397 97.8857 107.362 97.935 107.362C97.9844 107.362 98.0265 108.397 98.0265 109.673C98.0265 110.949 97.9856 111.983 97.935 111.983Z" fill="#D8BE76"/>
<path d="M101.738 111.983C101.688 111.983 101.647 110.949 101.647 109.673C101.647 108.397 101.688 107.362 101.738 107.362C101.787 107.362 101.829 108.397 101.829 109.673C101.829 110.949 101.788 111.983 101.738 111.983Z" fill="#D8BE76"/>
<path d="M100.548 111.983C100.499 111.983 100.458 110.949 100.458 109.673C100.458 108.397 100.499 107.362 100.548 107.362C100.598 107.362 100.639 108.397 100.639 109.673C100.639 110.949 100.599 111.983 100.548 111.983Z" fill="#D8BE76"/>
<path d="M103.063 107.293C103.063 107.352 98.1726 107.4 92.1397 107.4C86.1067 107.4 81.2148 107.352 81.2148 107.293C81.2148 107.234 86.1055 107.186 92.1397 107.186C98.1738 107.186 103.063 107.234 103.063 107.293Z" fill="#D8BE76"/>
<path d="M80.8862 91.7114C80.8368 91.7114 80.7959 91.1409 80.7959 90.4367C80.7959 89.7325 80.8368 89.1608 80.8862 89.1608C80.9355 89.1608 80.9777 89.7325 80.9777 90.4367C80.9777 91.1409 80.9367 91.7114 80.8862 91.7114Z" fill="white"/>
<path d="M79.5151 96.6886C79.4657 96.6886 79.4248 96.076 79.4248 95.32C79.4248 94.5641 79.4657 93.9514 79.5151 93.9514C79.5644 93.9514 79.6054 94.5641 79.6054 95.32C79.6054 96.076 79.5656 96.6886 79.5151 96.6886Z" fill="white"/>
<path d="M81.4663 101.479C81.4169 101.479 81.376 100.937 81.376 100.266C81.376 99.5956 81.4169 99.0527 81.4663 99.0527C81.5156 99.0527 81.5577 99.5956 81.5577 100.266C81.5577 100.937 81.5168 101.479 81.4663 101.479Z" fill="white"/>
<path d="M79.4633 105.896C79.414 105.896 79.373 105.414 79.373 104.812C79.373 104.211 79.414 103.723 79.4633 103.723C79.5127 103.723 79.5536 104.211 79.5536 104.812C79.5536 105.414 79.5127 105.896 79.4633 105.896Z" fill="white"/>
<path d="M87.4268 93.6409C87.4268 93.6999 85.821 93.7469 83.8397 93.7469C81.8584 93.7469 80.2539 93.6999 80.2539 93.6409C80.2539 93.582 81.8584 93.5338 83.8397 93.5338C85.821 93.5338 87.4268 93.582 87.4268 93.6409Z" fill="white"/>
<path d="M89.7476 89.1607C89.7476 89.2197 88.1298 89.2679 86.1365 89.2679C84.1432 89.2679 82.5254 89.2197 82.5254 89.1607C82.5254 89.1017 84.142 89.0548 86.1365 89.0548C88.131 89.0548 89.7476 89.103 89.7476 89.1607Z" fill="white"/>
<path d="M93.2282 89.2233C93.2282 89.2823 92.6974 89.3305 92.0413 89.3305C91.3853 89.3305 90.8545 89.2823 90.8545 89.2233C90.8545 89.1644 91.3853 89.1162 92.0413 89.1162C92.6974 89.1162 93.2282 89.1644 93.2282 89.2233Z" fill="white"/>
<path d="M81.6297 111.783C81.5936 111.783 81.5635 110.986 81.5635 110.003C81.5635 109.019 81.5936 108.221 81.6297 108.221C81.6658 108.221 81.6959 109.018 81.6959 110.003C81.6959 110.988 81.6622 111.783 81.6297 111.783Z" fill="white"/>
<path d="M112.938 110.665C116.815 106.789 116.815 100.504 112.938 96.6281C109.062 92.7518 102.778 92.7518 98.9014 96.6281C95.0251 100.504 95.0251 106.789 98.9014 110.665C102.778 114.541 109.062 114.541 112.938 110.665Z" fill="#F2D386"/>
<path d="M107.323 111.405C111.529 110.663 114.337 106.651 113.595 102.445C112.853 98.2386 108.841 95.4306 104.635 96.173C100.428 96.9155 97.6204 100.927 98.3628 105.133C99.1053 109.34 103.117 112.148 107.323 111.405Z" fill="#F6E6B5"/>
<path d="M101.451 101.918L103.522 101.419C104.003 101.311 104.605 101.178 105.139 101.528C105.45 101.754 105.667 102.086 105.75 102.462C105.972 103.386 105.396 103.766 105.11 103.959L106.614 105.54L105.343 105.845L104.037 104.424L103.315 104.597L103.709 106.238L102.557 106.516L101.451 101.918ZM102.815 102.5L103.115 103.744L104.066 103.515C104.227 103.469 104.751 103.33 104.604 102.718C104.463 102.132 104.034 102.214 103.792 102.265L102.815 102.5Z" fill="#D7C087"/>
<path d="M107.305 102.129C107.329 102.082 107.352 102.034 107.376 101.995C107.564 101.735 107.843 101.555 108.157 101.49C108.991 101.289 109.787 101.766 110.06 102.899C110.228 103.595 110.181 104.751 109.017 105.032C108.639 105.122 108.415 105.045 108.107 104.946L108.444 106.347L107.434 106.588L106.336 102.023L107.229 101.808L107.305 102.129ZM108.172 102.237C108.07 102.262 107.977 102.311 107.899 102.38C107.821 102.449 107.761 102.536 107.724 102.634C107.63 102.909 107.624 103.207 107.707 103.486C107.81 103.916 107.985 104.156 108.15 104.267C108.223 104.314 108.304 104.347 108.39 104.362C108.475 104.377 108.563 104.374 108.647 104.355C109.136 104.235 109.224 103.658 109.095 103.125C108.986 102.675 108.748 102.229 108.314 102.223C108.266 102.222 108.218 102.226 108.172 102.237Z" fill="#D7C087"/>
<path d="M96.093 87.6434C101.24 85.7577 103.884 80.0564 101.999 74.9091C100.113 69.7618 94.4117 67.1177 89.2644 69.0034C84.1171 70.8891 81.473 76.5904 83.3587 81.7377C85.2444 86.885 90.9457 89.5291 96.093 87.6434Z" fill="#F2D386"/>
<path d="M100.247 80.0448C101.111 75.8618 98.4208 71.7704 94.2378 70.9065C90.0548 70.0425 85.9635 72.7331 85.0995 76.9161C84.2355 81.099 86.9261 85.1904 91.1091 86.0543C95.2921 86.9183 99.3834 84.2277 100.247 80.0448Z" fill="#F6E6B5"/>
<path d="M89.1668 75.0569L91.2745 75.359C91.7644 75.4361 92.3735 75.5299 92.7382 76.056C92.9424 76.3817 93.0216 76.7705 92.9609 77.1501C92.826 78.0914 92.1496 78.2335 91.8137 78.3057L92.6274 80.3291L91.3335 80.1437L90.6449 78.3382L89.9095 78.2323L89.6687 79.9042L88.4951 79.7357L89.1668 75.0569ZM90.2152 76.1005L90.0335 77.3668L90.9964 77.5052C91.1637 77.5221 91.703 77.5859 91.7921 76.9623C91.8775 76.3605 91.449 76.2847 91.2047 76.2401L90.2152 76.1005Z" fill="#D7C087"/>
<path d="M94.5295 77.415C94.568 77.3801 94.6065 77.3451 94.6498 77.3163C94.9207 77.1442 95.2462 77.0798 95.5622 77.1357C96.4048 77.2561 96.9742 77.9939 96.8093 79.1483C96.7082 79.8573 96.2387 80.9141 95.0519 80.7432C94.6679 80.689 94.4861 80.5338 94.2382 80.3291L94.0275 81.7555L93.002 81.6111L93.6664 76.96L94.574 77.09L94.5295 77.415ZM95.2938 77.8351C95.1905 77.821 95.0853 77.8322 94.9872 77.8676C94.8891 77.903 94.801 77.9616 94.7305 78.0385C94.5421 78.2601 94.4272 78.5348 94.4019 78.8245C94.3393 79.2614 94.4127 79.5467 94.5222 79.7152C94.5725 79.7855 94.6363 79.8451 94.7098 79.8904C94.7834 79.9356 94.8653 79.9657 94.9507 79.9789C95.4491 80.0511 95.744 79.5443 95.8222 79.0014C95.8872 78.5428 95.8307 78.0385 95.4286 77.8748C95.3855 77.8559 95.3402 77.8426 95.2938 77.8351Z" fill="#D7C087"/>
<path d="M40.1768 46.7218L33.6022 47.1563C33.474 47.1699 33.3452 47.1369 33.2393 47.0633C33.1334 46.9898 33.0576 46.8805 33.0256 46.7557C32.9936 46.6308 33.0076 46.4986 33.0651 46.3832C33.1225 46.2678 33.2196 46.1769 33.3385 46.1272L39.3125 43.3394C39.4955 43.2395 39.6544 43.0421 39.6038 42.8459L39.1693 36.2676C39.1573 36.1402 39.1912 36.0126 39.2648 35.9079C39.3384 35.8031 39.4469 35.7281 39.5709 35.6962C39.6949 35.6643 39.8262 35.6776 39.9412 35.7338C40.0562 35.79 40.1474 35.8854 40.1984 36.0028L42.9874 41.978C43.0861 42.161 43.2835 42.3198 43.4797 42.2693L50.058 41.8348C50.1854 41.8228 50.313 41.8566 50.4177 41.9302C50.5225 42.0038 50.5975 42.1124 50.6294 42.2364C50.6613 42.3603 50.648 42.4916 50.5918 42.6067C50.5356 42.7217 50.4402 42.8129 50.3228 42.8639L44.3488 45.6517C44.1647 45.7516 44.007 45.949 44.0563 46.1452L44.4872 52.7223C44.4992 52.8497 44.4654 52.9773 44.3918 53.082C44.3182 53.1867 44.2096 53.2618 44.0856 53.2937C43.9617 53.3256 43.8304 53.3123 43.7153 53.2561C43.6003 53.1999 43.5091 53.1045 43.4581 52.9871L40.6703 47.0131C40.6226 46.924 40.5514 46.8496 40.4644 46.7983C40.3773 46.7469 40.2778 46.7204 40.1768 46.7218Z" fill="#219ED2"/>
<path d="M84.3804 60.2743C84.2691 60.6859 84.0108 61.0423 83.6543 61.2762C83.2978 61.51 82.8679 61.6049 82.4461 61.543L71.4996 59.7519C71.3011 59.7232 71.111 59.6525 70.942 59.5445C70.773 59.4366 70.6289 59.2939 70.5193 59.1259C70.4098 58.9579 70.3373 58.7685 70.3066 58.5703C70.276 58.3721 70.2879 58.1697 70.3416 57.9764L70.7581 56.343L84.7897 58.6397L84.3804 60.2743Z" fill="#219ED2"/>
<path d="M68.0376 54.8889L87.9529 58.1474C88.5444 58.234 89.1107 58.4455 89.6141 58.7679C90.1176 59.0902 90.5466 59.516 90.8728 60.017C91.199 60.518 91.4149 61.0826 91.506 61.6734C91.5972 62.2642 91.5616 62.8677 91.4015 63.4437L79.385 110.593C79.0538 111.819 78.2849 112.882 77.2235 113.581C76.1621 114.28 74.8817 114.565 73.624 114.384L53.7039 111.124C53.1124 111.037 52.5462 110.825 52.0427 110.503C51.5393 110.181 51.1102 109.755 50.784 109.254C50.4578 108.753 50.242 108.188 50.1508 107.597C50.0597 107.007 50.0953 106.403 50.2553 105.827L62.2924 58.6686C62.6264 57.4475 63.3941 56.3901 64.4516 55.6944C65.5092 54.9987 66.7841 54.7123 68.0376 54.8889Z" fill="#0F3F54"/>
<path d="M84.3804 60.2743C84.2691 60.6859 84.0108 61.0423 83.6543 61.2762C83.2978 61.51 82.8679 61.6049 82.4461 61.543L71.4996 59.7519C71.3011 59.7232 71.111 59.6525 70.942 59.5445C70.773 59.4366 70.6289 59.2939 70.5193 59.1259C70.4098 58.9579 70.3373 58.7685 70.3066 58.5703C70.276 58.3721 70.2879 58.1697 70.3416 57.9764L70.7581 56.343L84.7897 58.6397L84.3804 60.2743Z" fill="white"/>
<path d="M66.5612 55.6544L86.4765 58.9128C86.9445 58.9809 87.3926 59.148 87.791 59.4028C88.1893 59.6577 88.5288 59.9945 88.7868 60.3909C89.0448 60.7872 89.2153 61.234 89.287 61.7014C89.3588 62.1689 89.3301 62.6462 89.2029 63.1017L77.1899 110.259C76.928 111.23 76.3196 112.071 75.4796 112.623C74.6396 113.175 73.6264 113.401 72.6315 113.256L52.7162 109.992C52.2477 109.925 51.7988 109.759 51.3995 109.505C51.0003 109.251 50.6599 108.914 50.401 108.518C50.1422 108.122 49.9708 107.675 49.8985 107.207C49.8261 106.739 49.8544 106.261 49.9814 105.806L62.0016 58.6528C62.264 57.6825 62.8729 56.8419 63.713 56.2901C64.5532 55.7382 65.5665 55.5134 66.5612 55.658V55.6544Z" fill="#99D1E9"/>
<path d="M66.8003 54.718L86.7156 57.9776C87.3071 58.0643 87.8734 58.2758 88.3768 58.5981C88.8803 58.9205 89.3093 59.3463 89.6355 59.8473C89.9617 60.3482 90.1776 60.9129 90.2687 61.5037C90.3599 62.0945 90.3243 62.6979 90.1642 63.2739L78.1525 110.412C77.82 111.638 77.0504 112.7 75.9889 113.397C74.9273 114.094 73.6473 114.378 72.3903 114.197L52.4751 110.938C51.8838 110.851 51.3178 110.639 50.8146 110.317C50.3115 109.995 49.8827 109.569 49.5567 109.068C49.2308 108.567 49.0152 108.002 48.9241 107.412C48.8331 106.821 48.8688 106.218 49.0289 105.642L61.0466 58.4928C61.3814 57.2698 62.1514 56.2112 63.2118 55.5161C64.2723 54.821 65.5501 54.5371 66.8052 54.718H66.8003ZM49.9822 105.806C49.8546 106.261 49.8257 106.739 49.8974 107.207C49.9691 107.674 50.1398 108.121 50.3981 108.518C50.6564 108.914 50.9963 109.251 51.3952 109.506C51.794 109.76 52.2426 109.927 52.711 109.994L72.6263 113.25C73.6202 113.395 74.6328 113.171 75.4725 112.62C76.3122 112.068 76.9209 111.229 77.1835 110.259L89.2037 63.1066C89.3309 62.6511 89.3596 62.1738 89.2878 61.7063C89.2161 61.2389 89.0455 60.7921 88.7876 60.3957C88.5296 59.9994 88.1901 59.6626 87.7917 59.4077C87.3934 59.1528 86.9453 58.9858 86.4773 58.9177L66.562 55.6545C65.5673 55.5098 64.554 55.7347 63.7138 56.2865C62.8736 56.8384 62.2648 57.6789 62.0024 58.6493L49.9822 105.806Z" fill="#156080"/>
<path d="M83.5554 58.4615C83.3753 59.1276 82.9575 59.7048 82.3808 60.0838C81.8042 60.4629 81.1087 60.6175 80.4257 60.5186L71.3979 59.0404C71.0767 58.9935 70.7692 58.8788 70.4957 58.7038C70.2223 58.5288 69.9892 58.2976 69.812 58.0256C69.6349 57.7536 69.5176 57.4469 69.4681 57.1261C69.4186 56.8053 69.438 56.4776 69.525 56.1648L83.5554 58.4615Z" fill="#156080"/>
<path fill-rule="evenodd" clip-rule="evenodd" d="M76.4331 88.2039L74.979 89.2089L73.5346 90.1972L74.8033 90.4969L71.8867 102.74L73.8403 103.202L76.7509 90.9591L78.1195 91.2829L77.2661 89.7494L76.4331 88.2039Z" fill="#87CAE6"/>
<path fill-rule="evenodd" clip-rule="evenodd" d="M69.0185 63.7614L65.3472 66.3951L61.6831 68.9878L64.9403 69.698L58.0371 101.126L63.0505 102.22L69.9538 70.7922L73.4674 71.5577L71.2165 67.6758L69.0185 63.7614Z" fill="#87CAE6"/>
<path fill-rule="evenodd" clip-rule="evenodd" d="M72.158 73.0757L66.3874 77.1574L60.6289 81.1754L65.9372 82.1853L61.8182 100.269L69.9901 101.821L74.1092 83.7417L79.8364 84.825L75.9569 78.9738L72.158 73.0757Z" fill="#6EC0E2"/>
<path fill-rule="evenodd" clip-rule="evenodd" d="M75.225 96.9535L65.1391 95.3032L62.6475 89.2101L72.7345 90.8616L75.225 96.9535Z" fill="#0C7DAF"/>
<path fill-rule="evenodd" clip-rule="evenodd" d="M58.3407 94.191L57.1719 101.331L63.968 102.444L65.1392 95.3032L62.6475 89.2101L58.3407 94.191Z" fill="#156080"/>
<path fill-rule="evenodd" clip-rule="evenodd" d="M75.963 104.407C75.9655 104.391 75.9615 104.375 75.9521 104.362C75.9426 104.348 75.9284 104.34 75.9125 104.337L54.5588 100.846C54.5509 100.845 54.543 100.845 54.5353 100.847C54.5276 100.849 54.5203 100.853 54.514 100.857C54.5076 100.862 54.5022 100.868 54.4981 100.875C54.494 100.881 54.4913 100.889 54.4902 100.897C54.4888 100.905 54.489 100.913 54.4907 100.92C54.4925 100.928 54.4958 100.935 54.5004 100.942C54.505 100.948 54.5108 100.953 54.5175 100.957C54.5242 100.962 54.5317 100.964 54.5395 100.965L75.8932 104.456C75.909 104.459 75.9251 104.455 75.9381 104.446C75.9512 104.436 75.9601 104.423 75.963 104.407Z" fill="#1B7EA9"/>
<path fill-rule="evenodd" clip-rule="evenodd" d="M75.2244 96.9535L65.1385 95.3032L63.9697 102.444L74.058 104.095L75.2244 96.9535Z" fill="#FBF9F0"/>
<path fill-rule="evenodd" clip-rule="evenodd" d="M69.8515 97.8876L68.4865 97.6637L67.9268 101.087L69.2918 101.311L69.8515 97.8876Z" fill="#FBF9F0"/>
<path fill-rule="evenodd" clip-rule="evenodd" d="M69.9365 97.9009C69.9384 97.8897 69.938 97.8783 69.9355 97.8673C69.9329 97.8563 69.9282 97.8459 69.9216 97.8367C69.915 97.8275 69.9066 97.8197 69.897 97.8138C69.8874 97.8079 69.8767 97.8039 69.8655 97.8022L68.5005 97.5795C68.4894 97.5776 68.4781 97.5779 68.4671 97.5804C68.4562 97.5828 68.4458 97.5875 68.4367 97.5939C68.4275 97.6004 68.4197 97.6086 68.4137 97.6181C68.4077 97.6276 68.4037 97.6382 68.4018 97.6493L67.8421 101.074C67.8402 101.085 67.8404 101.096 67.8429 101.107C67.8454 101.118 67.85 101.128 67.8565 101.138C67.863 101.147 67.8712 101.155 67.8807 101.161C67.8902 101.167 67.9008 101.171 67.9119 101.173L69.2769 101.395C69.288 101.397 69.2994 101.397 69.3105 101.394C69.3215 101.392 69.3319 101.387 69.3411 101.38C69.3502 101.374 69.358 101.365 69.3639 101.356C69.3699 101.346 69.3738 101.335 69.3756 101.324L69.9365 97.9009ZM69.7523 97.9586L69.2203 101.209L68.0274 101.016L68.5595 97.7661L69.7523 97.9586Z" fill="#219ED2"/>
<path fill-rule="evenodd" clip-rule="evenodd" d="M67.7644 97.5457L66.4271 97.3267L65.8613 100.75L67.1998 100.969L67.7644 97.5457Z" fill="#FBF9F0"/>
<path fill-rule="evenodd" clip-rule="evenodd" d="M67.8494 97.559C67.8526 97.5366 67.847 97.5138 67.8338 97.4954C67.8205 97.477 67.8007 97.4644 67.7784 97.4603L66.4399 97.2412C66.4175 97.238 66.3947 97.2437 66.3763 97.2569C66.3579 97.2701 66.3453 97.29 66.3412 97.3122L65.7815 100.736C65.7796 100.747 65.7799 100.758 65.7825 100.769C65.785 100.78 65.7898 100.791 65.7964 100.8C65.803 100.809 65.8113 100.817 65.821 100.823C65.8306 100.829 65.8413 100.833 65.8525 100.834L67.185 101.053C67.1961 101.055 67.2076 101.055 67.2186 101.052C67.2296 101.05 67.24 101.045 67.2492 101.038C67.2584 101.032 67.2661 101.023 67.2721 101.014C67.278 101.004 67.2819 100.994 67.2837 100.982L67.8494 97.559ZM67.6665 97.6204L67.1344 100.87L65.9656 100.679L66.4989 97.429L67.6665 97.6204Z" fill="#219ED2"/>
<path fill-rule="evenodd" clip-rule="evenodd" d="M73.7046 98.5183L71.1094 98.0934L70.2295 103.469L72.8259 103.894L73.7046 98.5183Z" fill="#F3DB9F"/>
<path fill-rule="evenodd" clip-rule="evenodd" d="M106.162 61.5598H86.0606C86.0362 61.5597 86.0122 61.5659 85.9908 61.5778L76.5646 66.8344C76.5399 66.8484 76.5116 66.8546 76.4833 66.8523C76.455 66.8501 76.428 66.8393 76.4059 66.8216C76.3837 66.8039 76.3674 66.7799 76.359 66.7528C76.3506 66.7256 76.3505 66.6966 76.3588 66.6695L77.8032 61.7415C77.8094 61.7203 77.8105 61.6979 77.8066 61.6761C77.8026 61.6544 77.7935 61.6339 77.7802 61.6162C77.7669 61.5986 77.7496 61.5843 77.7298 61.5745C77.71 61.5647 77.6881 61.5596 77.666 61.5598H69.3893C69.3705 61.5598 69.3519 61.5561 69.3345 61.5489C69.3171 61.5417 69.3014 61.5311 69.2881 61.5178C69.2748 61.5045 69.2642 61.4887 69.257 61.4713C69.2498 61.454 69.2461 61.4353 69.2461 61.4165V36.7189C69.2461 36.7001 69.2498 36.6815 69.257 36.6641C69.2642 36.6467 69.2748 36.6309 69.2881 36.6176C69.3014 36.6043 69.3171 36.5938 69.3345 36.5866C69.3519 36.5794 69.3705 36.5757 69.3893 36.5757H106.162C106.2 36.5757 106.237 36.5908 106.264 36.6176C106.291 36.6445 106.306 36.6809 106.306 36.7189V61.4165C106.306 61.4545 106.291 61.4909 106.264 61.5178C106.237 61.5447 106.2 61.5598 106.162 61.5598Z" fill="#156080"/>
<path d="M77.1583 53.4444H78.6028C79.1878 53.4444 79.4803 53.1941 79.4803 52.7005C79.4803 52.207 79.1878 51.9783 78.6028 51.9879H77.1583V53.4444ZM78.5534 49.0726H77.1583V50.3148H78.5534C78.6497 50.3148 78.7797 50.3389 79.0193 50.1318C79.0963 50.0516 79.1508 49.9525 79.1772 49.8444C79.2036 49.7364 79.2011 49.6233 79.1698 49.5166C79.1386 49.4099 79.0797 49.3133 78.9991 49.2366C78.9186 49.1599 78.8193 49.1058 78.7111 49.0798L78.5534 49.0726ZM75.2842 55.1128V47.4091H78.5582C78.6293 47.4091 78.7135 47.4151 78.8231 47.4223C79.0195 47.4465 79.2141 47.4835 79.4057 47.533C79.6673 47.5935 79.9199 47.6883 80.1568 47.8147C80.394 47.9605 80.5952 48.158 80.7454 48.3925C80.9257 48.6732 81.0179 49.0014 81.0102 49.335C81.0042 50.1992 80.6346 50.6735 80.3048 50.8817C80.0725 51.0503 79.9365 51.096 79.8907 51.096C80.0048 51.1282 80.1152 51.1718 80.2206 51.226C80.3765 51.3112 80.528 51.4044 80.6744 51.5053C81.0812 51.7725 81.3388 52.26 81.3388 52.8642C81.3388 54.3649 80.3032 55.1144 78.232 55.1128H75.2842Z" fill="white"/>
<path d="M89.4425 49.4843H87.5684V55.1055H89.4425V49.4843Z" fill="white"/>
<path d="M82.5713 43.2383V48.2349H84.4455V45.1124H95.688V48.2349H97.3528V43.2383H82.5713Z" fill="white"/>
<path d="M92.7726 49.4843H90.8984V55.1055H92.7726V49.4843Z" fill="white"/>
<path d="M97.4781 49.4843L96.556 50.8637L95.634 49.4843H93.7129L95.6027 52.2817L93.7129 55.1055H95.628L96.556 53.7261L97.4841 55.1055H99.3992L97.5359 52.2817L99.3992 49.4843H97.4781Z" fill="white"/>
<path d="M87.4912 47.2225C87.4909 47.0902 87.5175 46.9592 87.5694 46.8375C87.6214 46.7158 87.6976 46.606 87.7934 46.5147C87.8843 46.4194 87.9938 46.3437 88.1151 46.2923C88.2364 46.241 88.367 46.2151 88.4987 46.2162C88.6314 46.215 88.7629 46.2408 88.8852 46.2921C89.0075 46.3435 89.1181 46.4192 89.2101 46.5147C89.3045 46.6076 89.3795 46.7183 89.4307 46.8405C89.4819 46.9626 89.5082 47.0937 89.5082 47.2261C89.5082 47.3586 89.4819 47.4897 89.4307 47.6118C89.3795 47.7339 89.3045 47.8447 89.2101 47.9375C89.092 48.0522 88.9478 48.1364 88.7899 48.183C88.632 48.2297 88.4651 48.2373 88.3036 48.2052C88.1421 48.1731 87.9909 48.1023 87.8628 47.9989C87.7347 47.8954 87.6336 47.7624 87.5683 47.6113C87.5164 47.4883 87.4901 47.356 87.4912 47.2225Z" fill="white"/>
<path d="M90.802 47.2225C90.801 47.0902 90.8272 46.9591 90.8791 46.8373C90.9313 46.7159 91.0074 46.6062 91.1029 46.5148C91.1938 46.4194 91.3033 46.3437 91.4247 46.2923C91.546 46.241 91.6766 46.2151 91.8083 46.2162C91.9409 46.2148 92.0724 46.2406 92.1947 46.2921C92.317 46.3429 92.4273 46.4188 92.5185 46.5148C92.6131 46.6071 92.6881 46.7177 92.7388 46.8398C92.7904 46.962 92.817 47.0934 92.817 47.2261C92.817 47.3589 92.7904 47.4903 92.7388 47.6125C92.6881 47.7346 92.6131 47.8452 92.5185 47.9375C92.427 48.0338 92.3163 48.1097 92.1935 48.1602C91.9471 48.2613 91.6708 48.2613 91.4243 48.1602C91.3029 48.1092 91.1934 48.0333 91.1029 47.9375C91.0064 47.8453 90.9298 47.7343 90.8779 47.6113C90.8259 47.4883 90.7997 47.356 90.8008 47.2225" fill="white"/>
<path d="M84.4455 50.3702V49.4843H82.5713V55.1056H84.4455V52.7812C84.4455 51.9795 84.7524 50.7578 86.5267 51.096V49.4409C84.608 49.1821 84.4455 50.3702 84.4455 50.3702Z" fill="white"/>
<path d="M31.4054 57.8656C30.6603 57.9463 30.0308 58.4362 29.7274 59.623C28.9198 62.7864 30.2535 67.9286 31.0214 70.1013C24.454 69.5355 11.3673 69.8882 11.5648 75.8237C11.513 77.0996 12.0631 79.696 14.6655 79.8874C13.6472 81.2114 12.435 84.0847 15.7296 84.9899C15.3336 86.5547 15.2673 89.8552 18.1683 90.4691C17.5159 91.6403 16.8249 94.1525 19.2673 94.8362C22.3211 95.6896 26.782 96.1831 30.2306 92.8838C31.0587 92.5636 31.9808 93.8046 33.1917 94.1392C36.3057 94.9987 37.052 94.4823 41.4395 93.5265L45.9931 73.6967C44.5125 72.9288 38.955 70.2914 36.2575 63.5519C35.2524 61.0422 34.0945 57.5731 31.4054 57.8656Z" fill="white"/>
<path fill-rule="evenodd" clip-rule="evenodd" d="M19.7078 84.896H19.7138H19.7342L19.8185 84.9044C19.8931 84.9104 20.0051 84.9189 20.1495 84.9273C20.4408 84.9417 20.8657 84.9538 21.3978 84.9369C22.8331 84.8894 24.2587 84.6819 25.648 84.3182C25.7149 84.3008 25.786 84.3107 25.8456 84.3457C25.9052 84.3807 25.9484 84.4379 25.9658 84.5048C25.9832 84.5717 25.9733 84.6427 25.9383 84.7023C25.9033 84.7619 25.8461 84.8052 25.7792 84.8226C24.3523 85.1979 22.888 85.4127 21.4134 85.4629C20.8657 85.4798 20.4264 85.4629 20.123 85.4509C19.9702 85.4437 19.8522 85.434 19.7716 85.4268L19.6789 85.4184H19.6548H19.6452L19.6765 85.1596L19.6452 85.4184C19.5799 85.4063 19.5216 85.3697 19.4823 85.3162C19.443 85.2627 19.4256 85.1962 19.4335 85.1302C19.4415 85.0643 19.4743 85.0039 19.5252 84.9612C19.5762 84.9186 19.6414 84.897 19.7078 84.9008V84.896Z" fill="#1E7EAA"/>
<path fill-rule="evenodd" clip-rule="evenodd" d="M16.6653 79.9019H16.6845L16.7688 79.9103C16.8434 79.9163 16.9554 79.9247 17.101 79.9332C17.3923 79.9476 17.8172 79.9596 18.348 79.9428C19.7854 79.8958 21.2131 79.6883 22.6043 79.3241C22.6696 79.3111 22.7373 79.3236 22.7937 79.3589C22.8501 79.3941 22.8909 79.4496 22.9078 79.514C22.9247 79.5783 22.9164 79.6467 22.8846 79.7051C22.8528 79.7636 22.7999 79.8077 22.7367 79.8284C21.3096 80.2021 19.8453 80.4152 18.3709 80.464C17.8232 80.4808 17.3839 80.464 17.0793 80.452C16.9277 80.4447 16.8097 80.4351 16.7291 80.4279L16.6364 80.4195H16.6111H16.6027L16.6292 80.1667L16.5979 80.4255C16.5622 80.4234 16.5274 80.4141 16.4955 80.3981C16.4636 80.3821 16.4353 80.3597 16.4124 80.3323C16.3895 80.3049 16.3725 80.2732 16.3623 80.2389C16.3522 80.2047 16.3492 80.1688 16.3535 80.1333C16.3577 80.0979 16.3692 80.0637 16.3872 80.0329C16.4053 80.0021 16.4294 79.9753 16.4582 79.9542C16.4869 79.933 16.5197 79.918 16.5545 79.9101C16.5893 79.9021 16.6254 79.9014 16.6604 79.9079L16.6653 79.9019Z" fill="#1E7EAA"/>
<path fill-rule="evenodd" clip-rule="evenodd" d="M21.2654 90.3139H21.2907H21.3749C21.4496 90.3139 21.5603 90.3235 21.706 90.3259C21.9948 90.3259 22.4186 90.3259 22.9494 90.3043C24.3842 90.2262 25.8081 90.0089 27.2009 89.6555C27.2662 89.6432 27.3338 89.6563 27.3898 89.6922C27.4458 89.728 27.486 89.7838 27.5023 89.8483C27.5185 89.9127 27.5096 89.981 27.4773 90.0391C27.445 90.0972 27.3918 90.1408 27.3285 90.161C25.9025 90.5226 24.4448 90.7447 22.9759 90.8243C22.4318 90.852 21.9961 90.8532 21.6939 90.8471C21.5435 90.8471 21.4267 90.8387 21.3473 90.8339H21.2558H21.2317H21.2221L21.2437 90.5739L21.2221 90.8339C21.1877 90.8313 21.1542 90.822 21.1235 90.8064C21.0928 90.7908 21.0655 90.7693 21.0431 90.7431C21.0207 90.717 21.0038 90.6866 20.9932 90.6539C20.9826 90.6211 20.9785 90.5866 20.9813 90.5522M21.263 90.3115C21.2286 90.3085 21.194 90.3124 21.1612 90.323C21.1284 90.3335 21.098 90.3505 21.0718 90.3729C21.0455 90.3953 21.0241 90.4227 21.0085 90.4535C20.993 90.4843 20.9838 90.5178 20.9813 90.5522L21.263 90.3115Z" fill="#1E7EAA"/>
<path fill-rule="evenodd" clip-rule="evenodd" d="M16.6539 73.1539C18.1838 72.9974 20.2181 73.2032 21.8888 73.7666C22.7242 74.0494 23.4849 74.4262 24.0483 74.9065C24.6116 75.3868 24.9932 75.9898 25.0173 76.712C25.0401 77.3644 24.9571 77.87 24.7898 78.2696C24.6441 78.6262 24.4014 78.9348 24.0892 79.1604C23.9617 79.2522 23.8263 79.3328 23.6848 79.4011C24.1388 79.4464 24.5865 79.5416 25.0197 79.6852C25.9309 79.9933 26.7915 80.5711 26.9889 81.5401C27.2646 82.9015 26.8361 83.8969 26.1836 84.4651C26.6394 84.5419 27.0819 84.683 27.4981 84.884C28.1854 85.2331 28.7752 85.8217 28.9341 86.8099C29.1147 87.939 28.7981 88.7587 28.3455 89.316C28.2277 89.4618 28.0963 89.596 27.9531 89.7169C28.4351 89.7527 28.905 89.8849 29.3349 90.1056C29.7495 90.3207 30.0835 90.664 30.2871 91.0843C30.5001 91.5344 30.5699 92.0954 30.4544 92.7815C30.439 92.8459 30.3997 92.9021 30.3445 92.9387C30.2893 92.9753 30.2222 92.9895 30.1569 92.9785C30.0915 92.9675 30.0328 92.932 29.9926 92.8794C29.9525 92.8267 29.9338 92.7607 29.9404 92.6948C30.0427 92.093 29.9741 91.6404 29.82 91.3069C29.6641 90.9867 29.408 90.7259 29.0906 90.5643C28.4478 90.2164 27.5884 90.1719 26.9841 90.2501L26.8794 89.7409C27.2987 89.5963 27.6682 89.3354 27.9447 88.9886C28.3058 88.5432 28.5802 87.8716 28.4261 86.8918C28.2986 86.0997 27.8411 85.6351 27.2694 85.345C26.6976 85.0549 25.9874 84.9393 25.4181 84.8756L25.3495 84.376C26.0717 84.0823 26.7939 83.1868 26.4846 81.64C26.3437 80.9479 25.7094 80.4628 24.8596 80.1751C24.0629 79.9131 23.2182 79.8309 22.386 79.9344L22.2186 79.4444C22.431 79.3381 22.6501 79.246 22.8747 79.1688L23.036 79.1086C23.3004 79.0185 23.5515 78.893 23.7823 78.7355C24.0179 78.5659 24.2008 78.333 24.3095 78.0638C24.4395 77.752 24.5189 77.3259 24.4973 76.7253C24.4792 76.1944 24.2011 75.7178 23.7088 75.2977C23.2165 74.8776 22.522 74.5249 21.7227 74.2553C20.123 73.7148 18.1622 73.5186 16.7069 73.6679C16.6403 73.6707 16.5752 73.648 16.5249 73.6044C16.4745 73.5609 16.4427 73.4997 16.4359 73.4334C16.4292 73.3672 16.448 73.3008 16.4885 73.248C16.529 73.1951 16.5882 73.1597 16.6539 73.1491V73.1539Z" fill="#1E7EAA"/>
<path fill-rule="evenodd" clip-rule="evenodd" d="M30.239 58.943C29.3591 60.1768 28.8583 62.6552 31.3572 69.7679L31.4054 69.9039L31.3151 70.0158C30.3437 71.2292 29.1316 73.5415 28.7343 76.2486C28.3371 78.9558 28.7536 82.0264 31.0142 84.807C31.0357 84.8334 31.0519 84.8639 31.0617 84.8966C31.0715 84.9293 31.0748 84.9637 31.0713 84.9977C31.0678 85.0316 31.0577 85.0646 31.0415 85.0947C31.0253 85.1247 31.0033 85.1513 30.9768 85.1729C30.9504 85.1945 30.9199 85.2106 30.8872 85.2204C30.8545 85.2302 30.8201 85.2335 30.7862 85.23C30.7522 85.2265 30.7192 85.2164 30.6891 85.2002C30.6591 85.184 30.6325 85.162 30.6109 85.1356C28.2396 82.2178 27.8063 78.9846 28.2192 76.1728C28.6188 73.45 29.8117 71.1112 30.8192 69.8052C28.3732 62.796 28.7729 60.0997 29.8153 58.6396C29.8555 58.5835 29.9164 58.5455 29.9846 58.5343C30.0527 58.523 30.1226 58.5392 30.1788 58.5795C30.235 58.6197 30.2729 58.6806 30.2842 58.7487C30.2955 58.8169 30.2792 58.8868 30.239 58.943Z" fill="#1E7EAA"/>
<path d="M46.9145 72.2584C46.6588 72.1681 46.3871 72.1325 46.1168 72.1539C45.8465 72.1752 45.5838 72.2531 45.3455 72.3825C45.1072 72.5118 44.8988 72.6897 44.7336 72.9047C44.5684 73.1197 44.4503 73.367 44.3867 73.6306L39.7476 92.8899C39.635 93.3552 39.699 93.8457 39.9271 94.2666C40.1552 94.6875 40.5313 95.0088 40.9826 95.1685L47.5645 97.5085C47.8164 97.5978 48.0841 97.6341 48.3507 97.6149C48.6173 97.5958 48.8771 97.5218 49.1137 97.3974C49.3503 97.2731 49.5587 97.1011 49.7256 96.8923C49.8926 96.6836 50.0145 96.4426 50.0838 96.1844L55.2188 77.0864C55.3456 76.6152 55.2897 76.1136 55.0625 75.6817C54.8354 75.2499 54.4536 74.9198 53.9935 74.7573L46.9145 72.2584Z" fill="#186080"/>
<path d="M20.0546 58.2592L21.4991 61.3816C21.6772 61.6585 22.0805 61.555 22.054 61.2396L21.8133 57.8066C21.8036 57.7534 21.8135 57.6985 21.8412 57.6521C21.8688 57.6056 21.9123 57.5707 21.9637 57.5539L25.0861 56.1094C25.363 55.9313 25.2595 55.5268 24.9441 55.5545L21.5111 55.7953C21.4579 55.8053 21.4028 55.7957 21.3561 55.7683C21.3094 55.7408 21.2743 55.6974 21.2571 55.646L19.8127 52.5236C19.6346 52.2467 19.2313 52.3503 19.259 52.6656L19.4997 56.0986C19.5095 56.1519 19.4996 56.207 19.472 56.2537C19.4443 56.3004 19.4007 56.3355 19.3493 56.3526L16.2269 57.797C15.9512 57.9764 16.0547 58.3796 16.3701 58.3519L19.8031 58.1112C19.8558 58.1014 19.9103 58.111 19.9565 58.1382C20.0027 58.1654 20.0376 58.2084 20.0546 58.2592Z" fill="#239ED4"/>
</svg>
