<svg width="131" height="131" viewBox="0 0 131 131" fill="none" xmlns="http://www.w3.org/2000/svg">
<path opacity="0.1" d="M118.841 107.691L17.0666 107.644C17.0666 107.644 -0.133143 76.4537 9.0463 55.5778C18.2257 34.702 31.6157 49.4389 32.7328 34.3614C32.7713 33.851 32.7412 33.3466 32.7412 32.8531C32.7412 32.7327 32.7412 32.6196 32.7472 32.504C33.0903 23.8446 37.3827 18.2486 43.0485 15.0287C43.2315 14.9235 43.4157 14.822 43.601 14.7241C52.6348 9.90932 64.8512 10.8976 70.2582 15.0407C79.4594 22.0896 79.4064 30.5745 98.4008 27.7759C117.395 24.9773 121.03 48.3809 116.078 60.3048C109.055 77.224 135.533 74.4447 118.841 107.691Z" fill="#196181"/>
<path d="M64.5704 125.56C96.8478 125.56 123.014 119.611 123.014 112.274C123.014 104.936 96.8478 98.9871 64.5704 98.9871C32.293 98.9871 6.12695 104.936 6.12695 112.274C6.12695 119.611 32.293 125.56 64.5704 125.56Z" fill="#E5F2FC"/>
<path d="M51.2056 20.3323C53.8217 20.3323 56.4377 20.3323 59.0538 20.3323C59.2837 20.3323 59.3752 20.3684 59.3728 20.6308C59.3591 22.2775 59.3591 23.9225 59.3728 25.566C59.3728 25.8007 59.3066 25.8681 59.0755 25.8585C58.6385 25.8416 58.1992 25.838 57.7634 25.8585C57.4926 25.8717 57.3963 25.8127 57.4023 25.5154C57.4252 24.585 57.4156 23.6545 57.4095 22.724C57.4095 22.269 57.5107 22.2871 56.9846 22.2871H46.7616C46.2584 22.2871 45.7565 22.2967 45.2533 22.2871C45.0379 22.2811 44.9897 22.3545 44.9921 22.5579C45.0018 23.5726 44.9921 24.5862 45.0018 25.6009C45.0018 25.8115 44.9416 25.8693 44.7345 25.8633C44.2314 25.8489 43.7282 25.8537 43.2263 25.8633C43.059 25.8633 43 25.8188 43 25.6442C43.006 23.9506 43.0084 22.2582 43 20.5646C43 20.3058 43.1444 20.3383 43.3033 20.3383L51.2056 20.3323Z" fill="#3AABE1"/>
<path d="M55.2145 27.0417C55.8682 27.0417 56.5097 27.0417 57.1513 27.0417C57.2921 27.0417 57.3439 27.1236 57.4053 27.2162C57.7026 27.6628 58.0011 28.1094 58.3177 28.5825C58.6343 28.1166 58.9364 27.6845 59.2205 27.2403C59.2581 27.1727 59.3148 27.1177 59.3836 27.0822C59.4523 27.0467 59.53 27.0322 59.6069 27.0405C60.2087 27.0525 60.8106 27.0405 61.4208 27.0405C61.4582 27.1476 61.3787 27.203 61.3354 27.268C60.7335 28.1636 60.1389 29.0603 59.5298 29.9487C59.4819 30.0016 59.4553 30.0704 59.4553 30.1419C59.4553 30.2133 59.4819 30.2821 59.5298 30.335C60.1497 31.2619 60.76 32.1948 61.3715 33.1252C61.3968 33.1613 61.416 33.2023 61.4618 33.2841C60.943 33.2841 60.4531 33.2552 59.9692 33.2925C59.5238 33.3275 59.2241 33.2143 59.0134 32.7918C58.8329 32.4307 58.5681 32.1105 58.3249 31.7482C58.0156 32.208 57.7134 32.6413 57.4294 33.0867C57.393 33.1545 57.3373 33.2099 57.2693 33.2459C57.2014 33.2819 57.1243 33.2969 57.0478 33.2889C56.4339 33.2769 55.82 33.2889 55.1592 33.2889C55.4746 32.8171 55.7707 32.3741 56.068 31.9324C56.4207 31.4088 56.7673 30.8803 57.1345 30.3675C57.187 30.3119 57.2163 30.2383 57.2163 30.1617C57.2163 30.0852 57.187 30.0115 57.1345 29.9559C56.5326 29.0748 55.9368 28.1864 55.3409 27.3005C55.2703 27.2313 55.2257 27.1399 55.2145 27.0417Z" fill="#333333"/>
<path d="M45.0017 27.9444C45.4326 27.1656 46.4377 26.7744 47.2346 27.0067C47.3549 27.0416 47.3453 27.1054 47.3453 27.1885C47.3453 27.6808 47.3453 28.1743 47.3453 28.6666C47.3453 28.8195 47.2839 28.8339 47.1623 28.8075C46.9528 28.7624 46.7372 28.7526 46.5244 28.7786C45.5614 28.8929 45.0113 29.5213 44.9993 30.5444C44.9909 31.381 44.9933 32.2175 44.9993 33.0541C44.9993 33.2323 44.9608 33.2949 44.773 33.2864C44.271 33.2732 43.7691 33.2756 43.2659 33.2864C43.1071 33.2864 43.0613 33.2419 43.0625 33.0842C43.0673 31.1414 43.0673 29.1987 43.0625 27.2559C43.0625 27.0874 43.1095 27.032 43.2828 27.0356C43.7847 27.0464 44.2879 27.0476 44.7898 27.0356C44.974 27.0356 45.0077 27.1006 44.9981 27.2607C44.9933 27.4629 45.0017 27.6675 45.0017 27.9444Z" fill="#343333"/>
<path d="M48.4075 30.1592C48.4075 29.1963 48.4135 28.243 48.4075 27.2848C48.4075 27.0934 48.4484 27.0284 48.6482 27.0344C49.1501 27.0501 49.6533 27.0429 50.1552 27.0344C50.2961 27.0344 50.3731 27.0465 50.3719 27.2234C50.3663 29.1871 50.3663 31.1499 50.3719 33.1119C50.3719 33.2443 50.3358 33.2877 50.1998 33.2853C49.6605 33.278 49.1164 33.2732 48.5808 33.2853C48.3798 33.2853 48.4087 33.1769 48.4087 33.0566C48.4079 32.092 48.4075 31.1262 48.4075 30.1592Z" fill="#333333"/>
<path d="M54.05 30.1894C54.05 31.1464 54.05 32.1033 54.05 33.059C54.05 33.2384 54.0103 33.2998 53.8237 33.2901C53.323 33.2769 52.8198 33.2793 52.3179 33.2901C52.1494 33.2901 52.0771 33.2637 52.0771 33.0687C52.0844 31.1355 52.0844 29.2032 52.0771 27.2716C52.0771 27.0911 52.1193 27.0309 52.3071 27.0309C52.7994 27.0441 53.2929 27.0453 53.7852 27.0309C53.9886 27.0249 54.0512 27.0718 54.0476 27.2873C54.0416 28.2563 54.05 29.2228 54.05 30.1894Z" fill="#343333"/>
<path d="M49.4055 23.5088C49.7006 23.5159 49.9815 23.6371 50.1891 23.847C50.3967 24.0569 50.5149 24.3391 50.5189 24.6342C50.5196 24.8584 50.4536 25.0776 50.3292 25.2641C50.2049 25.4506 50.0279 25.5958 49.8207 25.6814C49.6135 25.7669 49.3856 25.7888 49.1659 25.7444C48.9463 25.7 48.7448 25.5911 48.5872 25.4318C48.4295 25.2725 48.3229 25.0698 48.2808 24.8497C48.2387 24.6296 48.2631 24.4019 48.3509 24.1957C48.4386 23.9894 48.5858 23.814 48.7736 23.6917C48.9614 23.5693 49.1814 23.5057 49.4055 23.5088Z" fill="#3AABE1"/>
<path d="M54.1718 24.6078C54.176 24.9037 54.0629 25.1892 53.8572 25.4019C53.6514 25.6146 53.3699 25.7372 53.074 25.7429C52.7737 25.7373 52.4872 25.6154 52.275 25.4027C52.0628 25.1901 51.9415 24.9034 51.9365 24.603C51.944 24.3118 52.0643 24.035 52.272 23.8308C52.4798 23.6267 52.7587 23.5112 53.0499 23.5088C53.1963 23.5055 53.3418 23.5314 53.4779 23.5852C53.614 23.6389 53.738 23.7194 53.8426 23.8218C53.9471 23.9242 54.0301 24.0465 54.0867 24.1815C54.1432 24.3165 54.1722 24.4615 54.1718 24.6078Z" fill="#3AABE1"/>
<path d="M40.5162 29.1048C40.3525 29.0181 40.1876 28.935 40.001 28.8387C40.0648 28.805 40.1129 28.7786 40.1623 28.7545C41.366 28.1707 41.5441 26.1966 40.456 25.3685C39.986 25.0298 39.4287 24.833 38.8502 24.8015C37.5695 24.6872 36.284 24.7787 34.9984 24.7498C34.8251 24.7498 34.8311 24.8376 34.8311 24.958C34.8311 27.6639 34.8311 30.3703 34.8311 33.077C34.8311 33.2551 34.8816 33.29 35.049 33.2888C36.0914 33.2816 37.1338 33.2949 38.1786 33.2888C38.9441 33.2792 39.7013 33.2046 40.397 32.8423C41.1433 32.4547 41.4888 31.8131 41.5417 30.9958C41.5923 30.1484 41.2709 29.5092 40.5162 29.1048ZM36.7943 26.7323C36.7943 26.5974 36.8196 26.5312 36.9761 26.5337C37.478 26.5421 37.9812 26.5264 38.4819 26.5409C38.9453 26.5529 39.2041 26.8322 39.2041 27.2836C39.2072 27.3813 39.1905 27.4787 39.1548 27.5698C39.1191 27.6609 39.0654 27.7438 38.9967 27.8135C38.928 27.8831 38.8459 27.9381 38.7554 27.9751C38.6648 28.0121 38.5677 28.0303 38.4699 28.0287C38.2195 28.0383 37.9679 28.0287 37.7164 28.0287C37.4648 28.0287 37.2349 28.0226 36.9941 28.0287C36.8545 28.0287 36.7943 27.9962 36.7991 27.8433C36.8027 27.4762 36.8015 27.1018 36.7943 26.7323ZM39.4184 30.9825C39.2824 31.3677 38.9598 31.47 38.6023 31.4941C38.3339 31.511 38.0642 31.4941 37.7946 31.4941C37.525 31.4941 37.2553 31.4869 36.9857 31.4941C36.8449 31.4941 36.7895 31.4628 36.7931 31.3099C36.8027 30.8742 36.8027 30.4377 36.7931 30.0003C36.7931 29.8523 36.8389 29.8113 36.9833 29.8137C37.531 29.8234 38.0799 29.8041 38.6276 29.827C39.304 29.8631 39.6375 30.3626 39.4184 30.9825Z" fill="#343333"/>
<path d="M93.7545 37.012H34.832V66.6363H93.7545V37.012Z" fill="#1E7EAA"/>
<path d="M92.6088 38.3011H35.9541V65.7215H92.6088V38.3011Z" fill="#99D1E9"/>
<path d="M70.0908 59.4478H57.6758V43.9453L59.7811 42.0482H70.0908V59.4478Z" fill="white"/>
<path d="M57.6758 43.9453H59.7137L59.7811 42.0482L57.6758 43.9453Z" fill="#0C4055"/>
<path d="M68.8534 47.7719H59.1455V48.015H68.8534V47.7719Z" fill="#0C4055"/>
<path d="M68.8534 48.511H59.1455V48.7541H68.8534V48.511Z" fill="#0C4055"/>
<path d="M68.8534 49.25H59.1455V49.4931H68.8534V49.25Z" fill="#0C4055"/>
<path d="M68.8534 49.989H59.1455V50.2322H68.8534V49.989Z" fill="#0C4055"/>
<path d="M68.8534 52.2628H59.1455V52.506H68.8534V52.2628Z" fill="#0C4055"/>
<path d="M68.8534 53.0032H59.1455V53.2463H68.8534V53.0032Z" fill="#0C4055"/>
<path d="M68.8534 53.8602H59.1455V54.1034H68.8534V53.8602Z" fill="#0C4055"/>
<path d="M54.0943 50.7515L47.2559 51.2285L47.6764 57.2577L54.5149 56.7807L54.0943 50.7515Z" fill="white"/>
<path d="M50.4539 52.0991C50.4495 52.0397 50.4629 51.9803 50.4923 51.9284C50.5217 51.8766 50.5659 51.8346 50.6192 51.8079C50.6725 51.7812 50.7325 51.7709 50.7916 51.7784C50.8508 51.7858 50.9064 51.8106 50.9514 51.8497C50.9964 51.8888 51.0288 51.9404 51.0444 51.9979C51.0601 52.0554 51.0583 52.1163 51.0393 52.1728C51.0203 52.2293 50.985 52.2789 50.9378 52.3153C50.8906 52.3517 50.8336 52.3732 50.7741 52.3772C50.6949 52.3825 50.6167 52.3562 50.5567 52.3041C50.4968 52.252 50.4598 52.1784 50.4539 52.0991Z" fill="#0C4055"/>
<path d="M45.4963 55.0837L38.6416 55.1543L38.7038 61.1978L45.5586 61.1272L45.4963 55.0837Z" fill="white"/>
<path d="M41.7774 56.2182C41.7767 56.159 41.7935 56.1008 41.8259 56.0511C41.8582 56.0014 41.9046 55.9625 41.959 55.9391C42.0135 55.9158 42.0737 55.9091 42.132 55.92C42.1903 55.9309 42.244 55.9588 42.2864 56.0002C42.3288 56.0416 42.358 56.0946 42.3703 56.1526C42.3826 56.2106 42.3774 56.2709 42.3553 56.326C42.3333 56.381 42.2955 56.4283 42.2466 56.4618C42.1977 56.4953 42.14 56.5136 42.0807 56.5143C42.0413 56.515 42.0022 56.5078 41.9655 56.4932C41.9289 56.4787 41.8955 56.457 41.8673 56.4295C41.8391 56.4019 41.8167 56.3691 41.8012 56.3328C41.7858 56.2966 41.7777 56.2576 41.7774 56.2182Z" fill="#0C4055"/>
<path d="M48.4055 42.6467L41.7012 44.0767L42.9619 49.9875L49.6662 48.5576L48.4055 42.6467Z" fill="#917F50"/>
<path d="M45.0801 44.3811C45.0368 44.353 45.0027 44.3127 44.9823 44.2652C44.9618 44.2178 44.9559 44.1653 44.9653 44.1145C44.9746 44.0637 44.9989 44.0168 45.0349 43.9797C45.0709 43.9427 45.1171 43.9172 45.1676 43.9064C45.2182 43.8956 45.2708 43.9001 45.3188 43.9192C45.3668 43.9383 45.408 43.9712 45.4373 44.0138C45.4666 44.0563 45.4826 44.1066 45.4833 44.1583C45.484 44.21 45.4694 44.2607 45.4412 44.304C45.4036 44.3621 45.3444 44.4029 45.2766 44.4173C45.2089 44.4317 45.1382 44.4187 45.0801 44.3811Z" fill="#FCFCF5"/>
<path d="M85.442 62.4703H78.918V58.0864L80.7235 56.4265H85.442V62.4703Z" fill="white"/>
<path d="M78.8828 58.0864H80.6643L80.7233 56.4265L78.8828 58.0864Z" fill="#0C4055"/>
<path d="M82.2041 56.985C82.2041 56.9426 82.2167 56.9012 82.2402 56.866C82.2638 56.8307 82.2972 56.8033 82.3364 56.7871C82.3755 56.7708 82.4186 56.7666 82.4602 56.7749C82.5017 56.7831 82.5399 56.8035 82.5699 56.8335C82.5998 56.8635 82.6202 56.9017 82.6285 56.9432C82.6368 56.9848 82.6325 57.0279 82.6163 57.067C82.6001 57.1062 82.5726 57.1396 82.5374 57.1632C82.5022 57.1867 82.4607 57.1993 82.4184 57.1993C82.3615 57.1993 82.307 57.1767 82.2669 57.1365C82.2267 57.0963 82.2041 57.0418 82.2041 56.985Z" fill="#0C4055"/>
<path d="M88.4188 53.7699H81.8936V49.386L83.7003 47.7261H88.4188V53.7699Z" fill="white"/>
<path d="M81.8584 49.386H83.6411L83.7001 47.7261L81.8584 49.386Z" fill="#0C4055"/>
<path d="M85.3949 48.4988C85.5133 48.4988 85.6092 48.4029 85.6092 48.2846C85.6092 48.1662 85.5133 48.0703 85.3949 48.0703C85.2766 48.0703 85.1807 48.1662 85.1807 48.2846C85.1807 48.4029 85.2766 48.4988 85.3949 48.4988Z" fill="#0C4055"/>
<path d="M79.8085 53.7699H73.2832V49.386L75.09 47.7261H79.8085V53.7699Z" fill="#917F50"/>
<path d="M73.248 49.386H75.0307L75.0897 47.7261L73.248 49.386Z" fill="#D7C087"/>
<path d="M76.5742 48.287C76.5742 48.2443 76.5869 48.2026 76.6106 48.1672C76.6343 48.1317 76.6681 48.1041 76.7075 48.0878C76.7469 48.0715 76.7903 48.0674 76.8322 48.0758C76.874 48.0842 76.9124 48.1048 76.9425 48.1351C76.9726 48.1653 76.993 48.2038 77.0012 48.2457C77.0093 48.2876 77.0049 48.3309 76.9884 48.3703C76.9719 48.4096 76.9441 48.4432 76.9085 48.4667C76.8729 48.4903 76.8311 48.5027 76.7885 48.5025C76.7602 48.5025 76.7323 48.4969 76.7062 48.486C76.6801 48.4752 76.6565 48.4593 76.6366 48.4393C76.6166 48.4193 76.6009 48.3955 76.5902 48.3694C76.5795 48.3432 76.5741 48.3152 76.5742 48.287Z" fill="#FCFCF5"/>
<path d="M25.0299 111.2H24.9998C24.9579 111.2 24.9163 111.191 24.8776 111.175C24.8389 111.159 24.8039 111.135 24.7746 111.105C24.7454 111.075 24.7224 111.039 24.7071 111C24.6918 110.961 24.6845 110.919 24.6857 110.877L25.1671 90.1735L26.5731 90.0098L25.3706 110.88C25.3651 110.966 25.3268 111.048 25.2635 111.107C25.2003 111.166 25.1167 111.2 25.0299 111.2Z" fill="#D7C087"/>
<path d="M16.8319 111.2H16.8018C16.7598 111.2 16.7181 111.191 16.6794 111.175C16.6407 111.159 16.6056 111.135 16.5762 111.105C16.5468 111.075 16.5237 111.039 16.5083 111C16.4929 110.961 16.4854 110.919 16.4864 110.877L16.9679 90.1735L18.375 90.0098L17.1713 110.88C17.1661 110.966 17.1281 111.047 17.065 111.107C17.002 111.166 16.9186 111.2 16.8319 111.2Z" fill="#D7C087"/>
<path d="M39.4562 111.2H39.4863C39.5284 111.2 39.57 111.191 39.6087 111.175C39.6474 111.159 39.6825 111.135 39.7119 111.105C39.7413 111.075 39.7644 111.039 39.7798 111C39.7952 110.961 39.8027 110.919 39.8017 110.877L39.3202 90.1735L37.9131 90.0098L39.1168 110.877C39.1211 110.964 39.1588 111.046 39.222 111.106C39.2852 111.166 39.3691 111.2 39.4562 111.2Z" fill="#D7C087"/>
<path d="M15.8994 88.8904V74.7035C15.8997 73.505 16.3761 72.3556 17.2237 71.5082C18.0713 70.6609 19.2208 70.1848 20.4193 70.1848H30.64C31.8385 70.1848 32.988 70.6609 33.8356 71.5082C34.6832 72.3556 35.1596 73.505 35.1599 74.7035V89.4332L15.8994 88.8904Z" fill="#D7C087"/>
<path d="M15.8994 88.8904H36.9919V91.1305H16.3364C16.2208 91.1305 16.11 91.0846 16.0282 91.0028C15.9465 90.9211 15.9006 90.8103 15.9006 90.6947V88.8892L15.8994 88.8904Z" fill="#D7C087"/>
<path d="M40.1413 88.8904H23.6397C23.5194 88.8904 23.4219 88.9879 23.4219 89.1083V90.9126C23.4219 91.0329 23.5194 91.1305 23.6397 91.1305H40.1413C40.2616 91.1305 40.3592 91.0329 40.3592 90.9126V89.1083C40.3592 88.9879 40.2616 88.8904 40.1413 88.8904Z" fill="#D7C087"/>
<path d="M38.7779 85.3611C37.313 87.9094 35.4714 88.8928 35.4714 88.8928H27.8086C27.8086 88.8928 39.8938 83.4111 38.7779 85.3611Z" fill="#092933"/>
<path d="M32.8914 105.074C32.7998 105.175 32.7391 105.3 32.7167 105.434C32.6943 105.568 32.7111 105.706 32.765 105.831C32.948 106.337 33.5511 106.9 34.2528 107.463C34.3419 107.536 34.4226 107.602 34.4936 107.662L34.5477 107.71L34.5887 107.748C35.2423 108.349 34.9967 108.489 36.1715 109.712C37.5113 111.106 38.4333 111.131 38.6993 111.004C38.9208 110.895 38.4706 110.161 37.9711 109.326L37.8976 109.205L37.6942 108.874C37.1092 107.874 37.2585 107.404 37.3981 105.917C37.5113 104.713 39.2795 99.1603 39.2795 99.1603L36.7132 98.7222C36.7132 98.7222 35.9404 103.139 35.0882 103.819C34.6332 104.18 34.1252 104.186 33.6847 104.455C33.6546 104.473 33.6233 104.493 33.5944 104.513C33.3361 104.668 33.0997 104.857 32.8914 105.074Z" fill="white"/>
<path d="M32.8914 105.074C32.7998 105.175 32.7391 105.3 32.7167 105.434C32.6943 105.568 32.7111 105.706 32.765 105.831C32.9889 106.336 33.5775 106.897 34.2552 107.459C34.3431 107.532 34.4213 107.6 34.496 107.662L34.5501 107.71L34.5911 107.748C35.2447 108.349 34.9991 108.489 36.1739 109.712C37.5137 111.106 38.4357 111.131 38.7017 111.004C38.9232 110.895 38.473 110.161 37.9735 109.326C37.0363 108.96 36.2125 108.353 35.5853 107.566C34.7788 106.537 34.2408 105.214 33.6907 104.448C33.6606 104.466 33.6293 104.486 33.6004 104.506C33.3395 104.663 33.101 104.854 32.8914 105.074Z" fill="#0C4055"/>
<path d="M53.5918 103.47C53.7507 104.263 54.8798 104.13 56.1425 103.822C57.4052 103.514 57.1054 103.88 58.9002 103.681C60.6949 103.483 61.2402 102.812 61.2955 102.546C61.3449 102.306 60.4529 102.225 59.5044 102.115L59.1433 102.072C58.0684 101.937 57.2824 101.244 56.3062 100.675C55.3805 100.135 54.0011 97.9374 54.0011 97.9374L51.5371 98.1324C51.5371 98.1324 52.8287 100.096 53.3294 100.949C53.6231 101.451 53.6075 102.115 53.5702 102.634C53.5406 102.912 53.5479 103.193 53.5918 103.47Z" fill="white"/>
<path d="M56.1422 103.822C57.4037 103.514 57.1051 103.88 58.8999 103.681C60.6946 103.483 61.2399 102.812 61.2952 102.546C61.3446 102.306 60.4526 102.225 59.5041 102.115L59.4957 102.134C58.7264 102.628 57.8375 102.905 56.9234 102.935C55.7052 102.964 54.4149 102.615 53.5735 102.629C53.5421 102.91 53.5481 103.193 53.5915 103.472C53.7504 104.259 54.8795 104.13 56.1422 103.822Z" fill="#0C4055"/>
<path d="M44.1526 87.7203L41.8511 93.9158L38.8419 102.007C38.305 102.047 37.7652 101.997 37.2445 101.86C36.5223 101.652 35.7002 101.109 35.7002 101.109C35.7002 101.109 36.5356 92.422 38.092 87.4363C38.4916 86.1555 38.9345 85.1203 39.4317 84.5377C41.8487 81.685 44.1526 87.7203 44.1526 87.7203Z" fill="#092933"/>
<path d="M41.8123 77.8801C40.3029 77.3986 36.0009 78.0185 31.6784 78.8647L30.7744 77.3721L21.4445 76.6427C21.4445 76.6427 18.3642 83.4749 20.0506 87.8275C20.2986 88.4667 20.7909 88.8771 21.6311 88.8904H21.7671H29.1277C33.7704 88.8904 38.9523 85.6982 39.6228 85.5646C40.7206 85.3455 41.1599 87.5398 42.2565 89.8437C43.3531 92.1476 52.5662 100.046 52.5662 100.046C52.5662 100.046 53.983 100.061 54.568 99.8405C55.1975 99.5997 55.4274 99.2988 55.4274 99.2988C55.4274 99.2988 45.214 78.9815 41.8123 77.8801Z" fill="#0C4055"/>
<path d="M29.9544 49.8519C28.8711 49.2187 27.2557 49.1718 26.9921 49.1369C23.8372 48.7192 22.0978 54.1768 22.0328 55.8186C21.9125 58.8447 20.5764 59.3407 18.7311 61.2822C15.0309 65.175 16.2707 69.5529 18.3977 71.1357C19.6736 72.0855 21.8475 71.0443 21.8475 71.0443C21.8788 71.0695 27.7553 66.9204 30.6538 64.9174C35.0569 64.0556 32.7073 51.4576 29.9544 49.8519Z" fill="#0C4055"/>
<path d="M27.932 62.9578C27.9465 62.9675 26.2962 63.5308 25.1936 63.0421C24.1548 62.5835 23.3688 60.8754 23.388 60.8754C23.8599 60.8537 24.3787 60.4409 24.7783 57.7325L24.9793 57.8048L28.3593 59.0205C28.3593 59.0205 28.1186 60.1038 27.9561 61.139C27.8237 62.0093 27.7479 62.835 27.932 62.9578Z" fill="white"/>
<path d="M28.3566 59.0192C28.3566 59.0192 28.1158 60.1025 27.9533 61.1377C26.0117 60.7874 25.2498 58.8507 24.9766 57.8035L28.3566 59.0192Z" fill="#EFEFD8"/>
<path d="M28.8413 60.0448C28.8413 60.0448 23.9735 59.3707 24.4273 56.2459C24.8811 53.1211 24.5585 50.9303 27.687 51.2289C30.8154 51.5274 31.2427 52.8117 31.3366 53.8927C31.4305 54.9736 30.1196 60.1399 28.8413 60.0448Z" fill="white"/>
<path d="M31.1609 51.4997C31.1609 51.4997 28.0433 54.1851 25.9236 54.4018C23.8038 54.6185 23.001 53.9444 23.001 53.9444C23.8474 53.1875 24.5289 52.2643 25.0027 51.2324C25.1106 50.9897 25.2814 50.7802 25.4975 50.6256C25.7136 50.4711 25.9671 50.3773 26.2317 50.3537C27.746 50.2129 30.6144 50.1575 31.1609 51.4997Z" fill="#0C4055"/>
<path d="M29.1826 52.2918C29.1826 52.2918 30.225 53.2993 30.5536 54.0468C30.8702 54.769 30.9653 56.4939 30.7137 57.1764C30.7137 57.1764 32.3375 54.0179 31.4179 52.482C30.4429 50.8594 29.1826 52.2918 29.1826 52.2918Z" fill="#0C4055"/>
<path d="M31.8274 69.7719C31.6878 79.1355 31.7889 77.1795 30.7645 78.0678C30.5178 78.2809 29.8244 78.4085 28.9108 78.4699C26.04 78.66 20.9929 78.187 20.8003 77.6562C20.1382 75.8205 20.6065 75.2487 20.054 72.4393C19.9962 72.1396 19.9252 71.817 19.8409 71.4643C19.3799 69.5384 18.9321 68.8763 20.5631 65.7756C22.0461 62.9649 23.588 60.6851 23.7313 60.7682C27.6421 63.0889 27.9575 61.1377 27.9575 61.1377C27.9575 61.1377 31.896 65.205 31.8274 69.7719Z" fill="#1A7FAA"/>
<path d="M41.8511 93.9158L38.8419 102.007C38.305 102.047 37.7652 101.997 37.2445 101.86C36.5223 101.652 35.7002 101.109 35.7002 101.109C35.7002 101.109 36.5356 92.422 38.092 87.4363L41.8511 93.9158Z" fill="#0C4055"/>
<path d="M27.9531 61.1378C27.9531 61.1378 31.9771 61.8191 32.4502 63.5524C32.9232 65.2858 35.7002 75.4691 35.7002 75.4691C35.7002 75.4691 33.6539 75.8374 32.7102 74.8913C31.7665 73.9452 29.4216 66.1248 29.4216 66.1248L27.9531 61.1378Z" fill="#1A7FAA"/>
<path d="M28.9076 78.4699C26.0368 78.66 20.9897 78.187 20.7971 77.6562C20.135 75.8205 20.6033 75.2488 20.0508 72.4393L21.435 68.5393C21.435 68.5393 21.2063 72.8823 22.4871 74.0246C23.7678 75.1669 27.7304 76.2286 28.3527 77.1831C28.6228 77.5701 28.8115 78.0078 28.9076 78.4699Z" fill="#1C7097"/>
<path d="M25.6211 76.6427C25.6211 76.6427 28.4546 76.0119 28.9108 76.2635C29.367 76.5151 30.4853 77.4299 30.6249 77.7489C30.7645 78.0678 29.6078 77.5081 29.231 77.4058C28.9903 77.3408 28.3451 77.5635 28.0273 77.6694C26.69 78.116 25.8703 77.8861 25.8703 77.8861L25.6211 76.6427Z" fill="#F59191"/>
<path d="M23.7245 60.7659C23.7245 60.7659 19.922 60.9994 18.6051 62.8362C16.7514 65.4218 13.0741 76.4381 15.1818 77.9078C17.5543 79.5629 25.9814 78.3411 25.9814 78.3411C25.9814 78.3411 26.2619 77.0303 25.8719 76.396C25.4819 75.7616 19.1408 74.7373 18.8483 74.4448C18.5558 74.1523 22.5063 68.738 22.5063 67.8605C22.5063 66.983 23.7245 60.7659 23.7245 60.7659Z" fill="#1A7FAA"/>
<path d="M29.0479 77.0555C29.0479 77.0555 29.6413 77.8211 29.8363 77.9126C29.9342 77.9657 30.0454 77.9895 30.1565 77.9812L29.7568 77.259L29.0479 77.0555Z" fill="#F59191"/>
<path d="M28.9072 76.2635L30.6333 77.1061C30.5994 77.148 30.5551 77.1803 30.5049 77.1997C30.4546 77.2192 30.4001 77.2251 30.3469 77.2169C30.0918 77.172 29.8415 77.1031 29.5994 77.0111L28.9072 76.2635Z" fill="#F59191"/>
<path d="M29.8369 79.0814H43.4869L47.5927 68.8704H33.9644L29.8369 79.0814Z" fill="#917F50"/>
<path d="M43.6466 78.6842H25.6211V79.0814H43.4865L43.6466 78.6842Z" fill="#917F50"/>
<path d="M40.0403 73.9765C40.1438 73.6154 39.9356 73.3265 39.5769 73.3265C39.3881 73.3372 39.207 73.4051 39.0578 73.5212C38.9085 73.6373 38.7982 73.7961 38.7415 73.9765C38.638 74.3376 38.845 74.6265 39.2049 74.6265C39.3937 74.6159 39.5748 74.548 39.724 74.4319C39.8733 74.3158 39.9836 74.1569 40.0403 73.9765Z" fill="white"/>
<path d="M54.9818 111.144H55.0276C55.0847 111.143 55.1409 111.129 55.1929 111.106C55.2448 111.082 55.2916 111.048 55.3303 111.006C55.3691 110.964 55.3991 110.915 55.4186 110.861C55.4381 110.807 55.4468 110.75 55.444 110.693L54.8121 81.7067L52.9512 81.4768L54.5377 110.696C54.5412 110.813 54.589 110.924 54.6714 111.007C54.7538 111.091 54.8647 111.14 54.9818 111.144Z" fill="#99D1E9"/>
<path d="M25.6902 111.578H25.6505C25.5933 111.576 25.5369 111.563 25.4848 111.54C25.4327 111.516 25.3858 111.482 25.347 111.44C25.3082 111.398 25.2782 111.349 25.2588 111.295C25.2394 111.241 25.2309 111.184 25.234 111.126L25.8648 82.1401L27.7257 81.9102L26.1392 111.129C26.1359 111.247 26.0875 111.359 26.004 111.443C25.9205 111.526 25.8082 111.575 25.6902 111.578Z" fill="#99D1E9"/>
<path d="M57.8231 79.1753H22.9217C22.7336 79.1753 22.5811 79.3278 22.5811 79.5159V82.3326C22.5811 82.5207 22.7336 82.6733 22.9217 82.6733H57.8231C58.0112 82.6733 58.1637 82.5207 58.1637 82.3326V79.5159C58.1637 79.3278 58.0112 79.1753 57.8231 79.1753Z" fill="#99D1E9"/>
<path d="M29.5645 55.3275C29.562 55.395 29.5333 55.4588 29.4846 55.5056C29.4358 55.5523 29.3708 55.5782 29.3033 55.5779C29.2704 55.58 29.2374 55.5754 29.2063 55.5642C29.1753 55.5531 29.1469 55.5357 29.1228 55.5131C29.0988 55.4905 29.0796 55.4633 29.0666 55.433C29.0535 55.4027 29.0468 55.3701 29.0469 55.3371C29.0488 55.2696 29.0771 55.2056 29.1257 55.1588C29.1743 55.1119 29.2394 55.0861 29.3069 55.0867C29.3396 55.0855 29.3723 55.0907 29.4031 55.1021C29.4338 55.1135 29.462 55.131 29.4859 55.1533C29.5099 55.1757 29.5291 55.2027 29.5426 55.2325C29.5561 55.2624 29.5635 55.2947 29.5645 55.3275Z" fill="#263238"/>
<path d="M27.0645 55.3275C27.0626 55.395 27.0343 55.459 26.9857 55.5059C26.937 55.5527 26.872 55.5786 26.8045 55.5779C26.7717 55.5792 26.739 55.574 26.7083 55.5625C26.6775 55.5511 26.6494 55.5337 26.6254 55.5113C26.6015 55.4889 26.5822 55.462 26.5687 55.4321C26.5552 55.4022 26.5478 55.3699 26.5469 55.3372C26.5491 55.2698 26.5775 55.2059 26.626 55.1592C26.6746 55.1124 26.7395 55.0864 26.8069 55.0868C26.8397 55.0853 26.8724 55.0905 26.9032 55.1018C26.9341 55.1132 26.9623 55.1306 26.9863 55.153C27.0103 55.1754 27.0295 55.2024 27.043 55.2324C27.0564 55.2624 27.0637 55.2947 27.0645 55.3275Z" fill="#263238"/>
<path d="M28.2401 57.0898C28.354 57.0591 28.4713 57.0429 28.5892 57.0416C28.6446 57.0416 28.6964 57.0296 28.7096 56.9923C28.7165 56.9363 28.706 56.8796 28.6795 56.8298C28.6338 56.695 28.5856 56.5553 28.5363 56.4073C28.3364 55.8054 28.1944 55.3143 28.2185 55.3071C28.2426 55.2999 28.4243 55.7789 28.6241 56.3796C28.6711 56.5276 28.7168 56.6685 28.7613 56.8033C28.7929 56.8706 28.7997 56.9469 28.7806 57.0188C28.7719 57.0376 28.759 57.0542 28.743 57.0673C28.7269 57.0804 28.7081 57.0898 28.6879 57.0946C28.6571 57.1016 28.6256 57.1048 28.594 57.1042C28.4759 57.1144 28.357 57.1096 28.2401 57.0898Z" fill="#263238"/>
<path d="M27.3795 57.7144C27.4204 57.7144 27.4216 57.9816 27.6551 58.173C27.8886 58.3644 28.1751 58.3331 28.1775 58.3716C28.1775 58.3885 28.1137 58.4234 27.9921 58.4282C27.8334 58.4305 27.6789 58.3773 27.5552 58.2778C27.4367 58.182 27.3603 58.0438 27.3421 57.8926C27.3313 57.7794 27.3614 57.712 27.3795 57.7144Z" fill="#263238"/>
<path d="M91.6019 86.1087C91.6405 84.5727 91.7693 83.044 91.8872 81.5141C92.0148 79.859 92.1954 78.2136 92.3928 76.5669C92.4038 76.3053 92.4554 76.0471 92.5457 75.8014C92.7467 75.4956 92.9429 75.7075 93.1102 75.829C93.9354 76.4081 94.8388 76.8669 95.7932 77.1916C98.2368 77.9764 100.601 77.6731 102.932 76.7102C103.541 76.4586 104.076 76.0373 104.738 75.9217C105.016 76.0301 105.075 76.2961 105.171 76.5332C105.538 77.4646 105.802 78.4333 105.959 79.4221C106.448 82.2291 106.576 85.0687 106.713 87.9082C106.723 88.0864 106.641 88.2477 106.655 88.4222L106.631 88.4402C106.647 88.454 106.659 88.4709 106.668 88.4898C106.676 88.5086 106.68 88.5291 106.68 88.5498C106.68 88.5705 106.676 88.5909 106.668 88.6098C106.659 88.6287 106.647 88.6455 106.631 88.6593C106.613 89.7234 106.776 90.773 106.89 91.8263C106.914 92.0502 107.074 92.1549 107.218 92.2728C109.334 94.011 110.551 96.298 111.289 98.8836C111.372 99.2396 111.375 99.6097 111.297 99.9669C111.226 101.118 109.996 101.931 108.977 101.499C108.108 101.526 107.64 101.056 107.226 100.317C105.95 98.041 104.594 95.8093 103.268 93.5596C102.754 92.6869 102.426 91.7288 102.002 90.8139C101.871 90.5299 101.734 90.2494 101.599 89.9714C101.542 89.8377 101.394 89.7703 101.347 89.6295C101.106 89.0854 100.854 88.5462 100.618 87.9997C100.574 87.913 100.532 87.8239 100.497 87.7349C100.464 87.6675 100.435 87.5977 100.407 87.5278C99.7173 85.9859 99.0553 84.4307 98.327 82.8334C98.0526 84.3115 97.8311 85.7307 97.4844 87.1246C97.4676 87.198 97.4748 87.2739 97.4652 87.3485C97.4483 87.4689 97.4086 87.5892 97.3954 87.718C97.3665 87.895 97.3532 88.0791 97.328 88.2525C97.3207 88.3319 97.3099 88.4102 97.2991 88.4932C97.2546 88.7318 97.1898 88.9662 97.1053 89.1938C97.0666 89.2955 97.0122 89.3906 96.944 89.4754C96.7406 90.5383 96.5407 91.6 96.3337 92.6616C96.286 92.8826 96.3123 93.1131 96.4083 93.3176C97.4483 95.6215 97.7107 98.0675 97.7119 100.56C97.7119 100.856 97.6831 101.154 97.6963 101.449C97.718 101.93 97.5856 102.333 97.1631 102.607C96.6009 103.367 95.2444 103.731 94.1719 103.408C94.0888 103.383 94.0118 103.34 93.9311 103.311C93.2474 103.101 92.9561 102.649 92.902 101.925C92.7744 100.24 92.5156 98.573 92.3507 96.8926C92.3463 96.7248 92.3274 96.5577 92.2941 96.3931C92.1292 95.1641 92.0232 93.9279 91.8535 92.6989C91.7476 91.8961 91.6381 91.0932 91.5947 90.2843" fill="#0C4055"/>
<path d="M108.98 101.508C110.137 101.579 110.934 101.103 111.3 99.9752L112.278 103.153C112.361 103.217 112.43 103.297 112.48 103.389C112.53 103.481 112.56 103.582 112.568 103.686C112.809 105.119 112.904 106.555 112.708 108.002C112.542 109.233 111.852 109.955 110.724 110.071C110.202 110.125 109.693 110.1 109.348 109.642C108.987 109.161 109.348 108.756 109.543 108.342C109.664 108.186 109.697 107.981 109.807 107.815C109.989 106.744 110.043 105.656 109.968 104.572C109.944 104.257 109.728 103.999 109.59 103.721C109.31 103.165 109.047 102.598 108.739 102.056C108.548 101.721 108.573 101.547 108.98 101.508Z" fill="#FBFAF2"/>
<path d="M109.656 108.339C109.604 108.467 109.559 108.599 109.5 108.723C109.166 109.435 109.477 109.926 110.286 109.949C111.554 109.99 112.395 109.321 112.565 108.014C112.768 106.39 112.671 104.742 112.278 103.153C113.121 103.237 113.887 104.088 113.642 104.909C113.274 106.149 113.439 107.395 113.333 108.634C113.232 109.802 112.851 110.839 111.958 111.643C111.197 112.33 109.12 112.39 108.319 111.752C108.147 111.614 108.009 111.438 107.915 111.238C107.822 111.038 107.775 110.819 107.78 110.598C107.784 110.377 107.839 110.16 107.94 109.964C108.041 109.767 108.186 109.597 108.364 109.465C108.872 109.104 109.207 108.593 109.575 108.108C109.778 108.124 109.694 108.24 109.656 108.339Z" fill="#1E7FAA"/>
<path d="M90.3261 109.796C90.367 109.745 90.4091 109.693 90.4549 109.641C90.46 109.635 90.4649 109.629 90.4693 109.622C90.5808 109.517 90.688 109.407 90.7907 109.293C90.9518 109.204 91.0918 109.081 91.2012 108.932C91.2272 108.908 91.2517 108.881 91.2746 108.854L93.7566 107.042C93.8565 107.031 93.8878 107.094 93.8986 107.177C93.7783 107.545 93.4412 107.734 93.221 108.02C93.0645 108.223 92.8177 108.407 92.9465 108.701C93.0753 108.995 93.3847 109.01 93.6687 109.003C95 108.971 96.5432 107.823 96.9597 106.563C96.9681 106.512 96.9873 106.463 97.0159 106.419C97.0445 106.376 97.0819 106.339 97.1258 106.31C97.5134 106.496 97.6843 106.971 97.5663 107.547C97.405 108.335 97.1005 108.96 96.2988 109.374C95.0169 110.037 93.8192 110.866 92.4686 111.406C92.1621 111.53 91.8476 111.633 91.5274 111.715C90.9448 111.86 90.4789 111.715 90.1323 111.176C89.8109 110.681 89.9878 110.289 90.2839 109.888C90.3023 109.86 90.3165 109.829 90.3261 109.796Z" fill="#1E7FAA"/>
<path d="M97.1247 106.306C97.1487 107.071 96.6612 107.557 96.1617 108.015C95.4618 108.652 94.5757 109.048 93.6339 109.144C93.3125 109.18 92.9935 109.151 92.819 108.817C92.6445 108.482 92.8587 108.222 93.073 107.986C93.3294 107.703 93.5918 107.425 93.8518 107.143C93.9529 106.886 94.1876 106.758 94.385 106.592C94.6474 106.448 94.639 106.231 94.5836 105.971C94.3862 105.044 94.0877 104.138 93.9902 103.188C95.1638 103.621 96.1918 103.266 97.162 102.602C97.218 102.642 97.2618 102.697 97.2886 102.761C97.3154 102.825 97.324 102.895 97.3136 102.963C97.2438 104.076 97.1848 105.191 97.1247 106.306Z" fill="#FBFAF2"/>
<path d="M80.6795 53.1284C80.6795 53.1284 80.5591 52.5265 80.3027 52.2112C80.0463 51.8958 79.6659 51.5058 79.6358 51.3914C79.6058 51.2771 79.619 50.9377 79.3674 50.9461C79.1158 50.9545 78.6982 51.3132 78.9822 51.9981L79.2471 52.4796C79.2471 52.4796 78.7656 52.8094 78.4959 52.8527C78.2263 52.8961 75.0377 53.0802 75.0377 53.0802C74.9629 53.0678 74.886 53.0816 74.8202 53.1193C74.7544 53.157 74.7036 53.2164 74.6766 53.2873C74.5707 53.5437 74.9571 53.7314 74.9571 53.7314C74.8523 53.9589 74.9101 54.1672 75.1569 54.3538C75.1569 54.5837 75.3976 54.8136 75.9405 54.816C75.9405 54.816 75.8923 55.0977 76.4966 55.2264C77.1008 55.3552 79.9428 55.1879 79.9428 55.1879L81.1706 53.5906L80.6795 53.1284Z" fill="#FCFCF5"/>
<path d="M82.6428 54.0395L80.6796 53.1283L79.9453 55.1866L81.9073 56.9031C81.9073 56.9031 83.9091 55.5694 82.6428 54.0395Z" fill="#FCFCF5"/>
<path d="M77.857 54.7269C77.857 54.6956 77.4189 54.7389 76.882 54.763C76.3452 54.7871 75.9094 54.7847 75.9082 54.816C75.907 54.8473 76.3439 54.8978 76.8868 54.8725C77.4297 54.8473 77.8618 54.7546 77.857 54.7269Z" fill="#EFEFD8"/>
<path d="M77.8685 54.1575C77.8685 54.125 77.2438 54.1178 76.483 54.1973C75.7223 54.2767 75.1096 54.3176 75.1084 54.3453C75.1072 54.373 75.7331 54.3863 76.4939 54.3068C77.2546 54.2274 77.8673 54.1852 77.8685 54.1575Z" fill="#EFEFD8"/>
<path d="M74.9277 53.7121C75.0528 53.7565 75.1851 53.7773 75.3177 53.7735C75.6338 53.7844 75.9502 53.7748 76.265 53.7446C77.0017 53.6796 77.5891 53.5665 77.5891 53.5388C77.5891 53.5111 76.9873 53.5713 76.265 53.6363C75.9039 53.6688 75.5681 53.6892 75.3274 53.6965C75.194 53.6898 75.0602 53.695 74.9277 53.7121Z" fill="#EFEFD8"/>
<path d="M102.122 49.9012C102.199 49.4895 102.317 49.0862 101.912 48.9743L97.8641 47.2037C96.54 46.8353 95.3568 48.352 95.045 49.6953C94.6984 51.1891 94.3349 53.026 94.3228 54.1827C94.3111 54.8408 94.4858 55.4888 94.8265 56.0519C95.1673 56.6151 95.6603 57.0704 96.2487 57.3653L96.0297 58.7496C96.0754 59.8413 96.2006 61.0775 96.5834 61.5578C98.1036 61.4591 100.279 58.8314 100.279 58.8314L102.122 49.9012Z" fill="#FCFCF5"/>
<path d="M96.7349 54.0046C96.6002 53.9442 96.4599 53.8975 96.316 53.865C96.2486 53.8482 96.186 53.8253 96.1812 53.7856C96.1764 53.7458 96.2088 53.6857 96.2522 53.6267L96.5194 53.2331C96.8926 52.6709 97.173 52.2051 97.1441 52.1907C97.1152 52.1762 96.7902 52.6192 96.4219 53.1813L96.1583 53.5833C96.1322 53.6123 96.1125 53.6465 96.1005 53.6836C96.0884 53.7208 96.0843 53.76 96.0885 53.7988C96.0968 53.8217 96.1099 53.8426 96.1269 53.86C96.1439 53.8775 96.1645 53.8911 96.1872 53.8999C96.223 53.9155 96.2606 53.9268 96.2991 53.9336C96.4413 53.9733 96.5874 53.9971 96.7349 54.0046Z" fill="#146080"/>
<path d="M96.2544 57.3642C96.2544 57.3642 97.5027 57.434 99.1626 56.778C99.1626 56.778 98.462 58.1514 96.1533 58.0515L96.2544 57.3642Z" fill="#EFEFD8"/>
<path d="M101.242 52.9563C101.334 52.4748 101.944 52.4507 102.333 52.7528C102.546 52.9177 102.687 53.2126 102.594 53.7266C102.353 55.0976 101.022 54.5692 101.029 54.5283C101.037 54.4874 101.135 53.5232 101.242 52.9563Z" fill="#FCFCF5"/>
<path d="M98.1481 52.2291C98.1344 52.3071 98.152 52.3874 98.197 52.4525C98.2421 52.5176 98.311 52.5624 98.3888 52.577C98.4262 52.5863 98.4651 52.588 98.5032 52.582C98.5413 52.576 98.5777 52.5624 98.6105 52.5421C98.6433 52.5218 98.6716 52.4952 98.6939 52.4638C98.7162 52.4323 98.732 52.3968 98.7403 52.3591C98.7534 52.2812 98.7356 52.2013 98.6906 52.1363C98.6456 52.0714 98.5771 52.0265 98.4996 52.0113C98.4622 52.002 98.4233 52.0003 98.3852 52.0063C98.3472 52.0123 98.3107 52.0259 98.2779 52.0462C98.2452 52.0665 98.2168 52.0931 98.1945 52.1245C98.1722 52.156 98.1564 52.1915 98.1481 52.2291Z" fill="#4797C0"/>
<path d="M95.4321 51.8981C95.4187 51.9761 95.4364 52.0562 95.4814 52.1212C95.5264 52.1863 95.5952 52.2311 95.6728 52.246C95.7102 52.2553 95.7491 52.2569 95.7872 52.251C95.8253 52.245 95.8617 52.2314 95.8945 52.2111C95.9272 52.1908 95.9556 52.1642 95.9779 52.1327C96.0002 52.1013 96.016 52.0657 96.0243 52.0281C96.0374 51.9501 96.0196 51.87 95.9747 51.8048C95.9298 51.7396 95.8612 51.6945 95.7836 51.679C95.7461 51.67 95.7072 51.6685 95.6691 51.6746C95.631 51.6807 95.5946 51.6944 95.5619 51.7148C95.5291 51.7352 95.5008 51.7619 95.4785 51.7934C95.4562 51.8249 95.4405 51.8605 95.4321 51.8981Z" fill="#4797C0"/>
<path d="M96.7288 55.0494C96.8111 55.1634 96.9225 55.2533 97.0514 55.3094C97.2399 55.3945 97.4476 55.4282 97.6533 55.4069C97.8075 55.389 97.9495 55.3144 98.0517 55.1975L98.1877 55.2432C98.1488 55.2937 98.104 55.3394 98.0541 55.3792C97.9421 55.4655 97.8075 55.5173 97.6665 55.5285C97.4374 55.5473 97.2077 55.5001 97.0045 55.3925C96.8654 55.3229 96.7515 55.2119 96.6783 55.0747C96.6478 55.0267 96.6334 54.9701 96.6374 54.9134C96.6554 54.9074 96.6759 54.9663 96.7288 55.0494Z" fill="#146080"/>
<path d="M105.079 75.9723C104.861 74.9672 101.912 70.7121 101.912 70.7121C101.912 70.7121 101.96 68.472 101.968 67.4946C101.968 66.8313 102.209 64.1531 102.37 62.0779C102.51 60.2723 100.26 58.3994 100.26 58.3994L97.0005 58.0082L98.1236 58.4535L95.2672 59.9377C95.2672 59.9377 91.2685 63.0794 91.4755 65.9285C91.7367 69.5144 92.1725 78.4892 92.1725 78.4892L97.1992 78.3159C98.2054 78.1798 99.0276 78.1618 100.743 77.8163L105.516 77.4985C105.328 77.0028 105.182 76.4922 105.079 75.9723Z" fill="#1A7FAA"/>
<path d="M101.593 60.0123L98.7609 58.3692L90.1821 56.4433L81.7863 53.2053L80.2588 55.9317L87.2956 60.265C88.243 61.228 88.9122 61.2352 89.3901 61.435L98.2867 64.0074L101.593 60.0123Z" fill="#1A7FAA"/>
<g opacity="0.3">
<path d="M94.1797 62.7965C95.5531 64.7224 96.9614 64.501 99.3195 64.3035C97.2407 63.414 94.1797 62.7965 94.1797 62.7965Z" fill="black"/>
</g>
<path d="M91.7134 68.6393C91.7008 68.735 91.6956 68.8316 91.6977 68.9282C91.6977 69.1135 91.6977 69.382 91.6977 69.7142C91.6977 70.3786 91.729 71.2983 91.7868 72.3118C91.8446 73.3253 91.9216 74.2377 91.9842 74.907C92.0155 75.238 92.0444 75.5088 92.0661 75.6918C92.0719 75.7888 92.0864 75.885 92.1094 75.9795C92.1149 75.8831 92.1125 75.7865 92.1022 75.6906C92.0889 75.4896 92.0709 75.2247 92.0492 74.9034C92.0035 74.2401 91.9373 73.3229 91.8795 72.3094C91.8217 71.2959 91.7844 70.3834 91.7591 69.7154C91.7483 69.394 91.7399 69.1292 91.7338 68.9282C91.7355 68.8315 91.7287 68.7348 91.7134 68.6393Z" fill="#263238"/>
<path d="M100.213 63.2599C100.27 63.2286 100.322 63.188 100.367 63.1396C100.495 63.0148 100.611 62.8773 100.712 62.7291C101.056 62.2363 101.244 61.6519 101.252 61.0513C101.261 60.4506 101.09 59.8611 100.76 59.3587C100.664 59.2074 100.552 59.0666 100.426 58.9386C100.337 58.8484 100.281 58.8062 100.276 58.811C100.272 58.8159 100.468 59.0169 100.695 59.3997C100.995 59.8968 101.149 60.4679 101.141 61.0482C101.132 61.6285 100.962 62.1949 100.648 62.6834C100.408 63.0601 100.198 63.2455 100.213 63.2599Z" fill="#263238"/>
<path d="M88.5195 61.1871C88.5493 61.2049 88.5813 61.2187 88.6146 61.2281L88.8963 61.3231C89.137 61.4038 89.4981 61.5157 89.9363 61.6506C90.8162 61.919 92.0392 62.2705 93.3945 62.64C94.7499 63.0095 95.9801 63.3321 96.8708 63.5644L97.9277 63.8329L98.2154 63.9015C98.2489 63.9118 98.2838 63.9175 98.3189 63.9183C98.2882 63.9013 98.2554 63.8883 98.2214 63.8798L97.9385 63.7919L96.8913 63.4898L93.4258 62.5341L89.9604 61.5711L88.9083 61.287L88.6219 61.2112C88.5889 61.1987 88.5545 61.1906 88.5195 61.1871Z" fill="#1C7097"/>
<path d="M97.5762 45.7147C98.1696 45.5943 98.7799 45.3307 99.3709 45.5534C100.547 46 101.812 46.2407 102.815 47.0833C103.235 47.4444 103.519 47.891 103.867 48.2979C104.292 48.9081 104.36 49.7242 104.089 50.7992C104.289 50.1823 104.328 49.5249 104.203 48.8889C104.16 48.6903 104.033 48.4989 104.128 48.287C105.252 48.1907 106.155 48.854 106.517 50.042C106.897 51.2161 106.85 52.4868 106.383 53.6291C105.687 55.3227 105.841 56.8923 106.852 58.3969C106.9 58.4701 106.94 58.5479 106.972 58.6293C107.158 59.083 107.271 59.5537 106.883 59.9473C106.522 60.3156 106.085 60.1989 105.669 60.0051C105.187 60.5407 105.056 60.5744 104.359 60.2747C104.281 60.239 104.197 60.2191 104.112 60.216C104.026 60.2129 103.941 60.2267 103.861 60.2567C103.224 60.4637 102.685 60.2157 102.402 59.6103C102.302 59.3868 102.244 59.1469 102.23 58.9025C102.133 57.5664 102.238 56.2543 102.711 54.9892C103.119 53.8987 103.604 52.8322 103.795 52.0931C103.715 52.5481 103.17 53.4449 102.644 53.6965C102.46 53.5231 102.537 53.2668 102.442 53.0621C102.333 52.8298 102.201 52.6276 101.917 52.6119C101.61 52.5951 101.511 52.8298 101.422 53.0669C101.341 53.28 101.315 53.5087 101.229 53.7181C101.118 53.995 100.95 54.0227 100.783 53.7687C100.542 53.4076 100.478 52.9983 100.437 52.5758C100.376 51.9186 100.571 51.2975 100.678 50.6619C100.818 49.8013 100.507 49.1633 99.7561 48.736C99.6547 48.6676 99.5411 48.6194 99.4215 48.594C98.8208 48.4956 98.2414 48.2949 97.7086 48.0005C96.9539 47.6178 95.9127 48.1366 95.4613 49.0393C95.3289 49.3054 95.2446 49.5918 95.1315 49.8651C95.0521 50.0565 95.0027 50.2683 94.7969 50.3779C94.4622 50.3538 94.4803 50.0878 94.4887 49.8747C94.5622 48.2064 95.0123 46.7451 96.7192 46.0229C96.9262 45.935 97.0996 45.7761 97.321 45.7268C97.4055 45.7144 97.491 45.7104 97.5762 45.7147Z" fill="#917F50"/>
<path d="M101.456 54.3056C101.664 53.9982 101.835 53.6668 101.965 53.3185L101.834 53.3619L101.553 53.4558C101.498 53.4738 101.474 53.3859 101.529 53.3679L101.87 53.2547L102.032 53.2006C102.05 53.19 102.071 53.1844 102.092 53.1844C102.113 53.1844 102.134 53.19 102.153 53.2006C102.182 53.2321 102.2 53.2722 102.204 53.3149C102.219 53.3703 102.23 53.4266 102.237 53.4834C102.251 53.595 102.251 53.7078 102.237 53.8193C102.237 53.8771 102.14 53.8771 102.147 53.8193C102.156 53.7284 102.156 53.6369 102.147 53.546C102.147 53.4991 102.134 53.4521 102.126 53.4052C102.126 53.3835 102.115 53.3607 102.11 53.339C102.106 53.3173 102.101 53.2812 102.088 53.2752C102.074 53.2692 102.051 53.2812 102.035 53.2884C102.04 53.2936 102.044 53.3004 102.046 53.308C102.048 53.3155 102.047 53.3234 102.044 53.3306C101.912 53.6901 101.737 54.0321 101.522 54.3489C101.5 54.4043 101.422 54.3585 101.456 54.3056Z" fill="#146080"/>
</svg>
