 <svg width="357" height="322" viewBox="0 0 357 322" fill="none" xmlns="http://www.w3.org/2000/svg">
                <rect y="7.56238" width="9.6406" height="9.6406" rx="1.34409" fill="white" fill-opacity="0.5"/>
                <rect x="38.5625" y="7.56238" width="9.6406" height="9.6406" rx="1.34409" fill="white" fill-opacity="0.5"/>
                <rect x="77.1251" y="7.56238" width="9.6406" height="9.6406" rx="1.34409" fill="white" fill-opacity="0.5"/>
                <rect x="115.687" y="7.56238" width="9.6406" height="9.6406" rx="1.34409" fill="white" fill-opacity="0.5"/>
                <rect x="154.25" y="7.56238" width="9.6406" height="9.6406" rx="1.34409" fill="white" fill-opacity="0.5"/>
                <rect x="192.812" y="7.56238" width="9.6406" height="9.6406" rx="1.34409" fill="white" fill-opacity="0.5"/>
                <rect x="231.375" y="7.56238" width="9.6406" height="9.6406" rx="1.34409" fill="white" fill-opacity="0.5"/>
                <rect x="269.937" y="7.56238" width="9.6406" height="9.6406" rx="1.34409" fill="white" fill-opacity="0.5"/>
                <rect x="308.499" y="7.56238" width="9.6406" height="9.6406" rx="1.34409" fill="white" fill-opacity="0.5"/>
                <rect x="347.061" y="7.56238" width="9.6406" height="9.6406" rx="1.34409" fill="white" fill-opacity="0.5"/>
                <rect y="46.1245" width="9.6406" height="9.6406" rx="1.34409" fill="white" fill-opacity="0.5"/>
                <rect x="38.5625" y="46.1245" width="9.6406" height="9.6406" rx="1.34409" fill="white" fill-opacity="0.5"/>
                <rect x="77.1251" y="46.1245" width="9.6406" height="9.6406" rx="1.34409" fill="white" fill-opacity="0.5"/>
                <rect x="115.687" y="46.1245" width="9.6406" height="9.6406" rx="1.34409" fill="white" fill-opacity="0.5"/>
                <rect x="154.25" y="46.1245" width="9.6406" height="9.6406" rx="1.34409" fill="white" fill-opacity="0.5"/>
                <rect x="192.812" y="46.1245" width="9.6406" height="9.6406" rx="1.34409" fill="white" fill-opacity="0.5"/>
                <rect x="231.375" y="46.1245" width="9.6406" height="9.6406" rx="1.34409" fill="white" fill-opacity="0.5"/>
                <rect x="269.937" y="46.1245" width="9.6406" height="9.6406" rx="1.34409" fill="white" fill-opacity="0.5"/>
                <rect x="308.499" y="46.1245" width="9.6406" height="9.6406" rx="1.34409" fill="white" fill-opacity="0.5"/>
                <rect x="347.061" y="46.1245" width="9.6406" height="9.6406" rx="1.34409" fill="white" fill-opacity="0.5"/>
                <rect y="84.6868" width="9.6406" height="9.6406" rx="1.34409" fill="white" fill-opacity="0.5"/>
                <rect x="38.5625" y="84.6868" width="9.6406" height="9.6406" rx="1.34409" fill="white" fill-opacity="0.5"/>
                <rect x="77.1251" y="84.6868" width="9.6406" height="9.6406" rx="1.34409" fill="white" fill-opacity="0.5"/>
                <rect x="115.687" y="84.6868" width="9.6406" height="9.6406" rx="1.34409" fill="white" fill-opacity="0.5"/>
                <rect x="154.25" y="84.6868" width="9.6406" height="9.6406" rx="1.34409" fill="white" fill-opacity="0.5"/>
                <rect x="192.812" y="84.6868" width="9.6406" height="9.6406" rx="1.34409" fill="white" fill-opacity="0.5"/>
                <rect x="231.375" y="84.6868" width="9.6406" height="9.6406" rx="1.34409" fill="white" fill-opacity="0.5"/>
                <rect x="269.937" y="84.6868" width="9.6406" height="9.6406" rx="1.34409" fill="white" fill-opacity="0.5"/>
                <rect x="308.499" y="84.6868" width="9.6406" height="9.6406" rx="1.34409" fill="white" fill-opacity="0.5"/>
                <rect x="347.061" y="84.6868" width="9.6406" height="9.6406" rx="1.34409" fill="white" fill-opacity="0.5"/>
                <rect y="123.25" width="9.6406" height="9.6406" rx="1.34409" fill="white" fill-opacity="0.5"/>
                <rect x="38.5625" y="123.25" width="9.6406" height="9.6406" rx="1.34409" fill="white" fill-opacity="0.5"/>
                <rect x="77.1251" y="123.25" width="9.6406" height="9.6406" rx="1.34409" fill="white" fill-opacity="0.5"/>
                <rect x="115.687" y="123.25" width="9.6406" height="9.6406" rx="1.34409" fill="white" fill-opacity="0.5"/>
                <rect x="154.25" y="123.25" width="9.6406" height="9.6406" rx="1.34409" fill="white" fill-opacity="0.5"/>
                <rect x="192.812" y="123.25" width="9.6406" height="9.6406" rx="1.34409" fill="white" fill-opacity="0.5"/>
                <rect x="231.375" y="123.25" width="9.6406" height="9.6406" rx="1.34409" fill="white" fill-opacity="0.5"/>
                <rect x="269.937" y="123.25" width="9.6406" height="9.6406" rx="1.34409" fill="white" fill-opacity="0.5"/>
                <rect x="308.499" y="123.25" width="9.6406" height="9.6406" rx="1.34409" fill="white" fill-opacity="0.5"/>
                <rect x="347.061" y="123.25" width="9.6406" height="9.6406" rx="1.34409" fill="white" fill-opacity="0.5"/>
                <rect y="161.812" width="9.6406" height="9.6406" rx="1.34409" fill="white" fill-opacity="0.5"/>
                <rect x="38.5625" y="161.812" width="9.6406" height="9.6406" rx="1.34409" fill="white" fill-opacity="0.5"/>
                <rect x="77.1251" y="161.812" width="9.6406" height="9.6406" rx="1.34409" fill="white" fill-opacity="0.5"/>
                <rect x="115.687" y="161.812" width="9.6406" height="9.6406" rx="1.34409" fill="white" fill-opacity="0.5"/>
                <rect x="154.25" y="161.812" width="9.6406" height="9.6406" rx="1.34409" fill="white" fill-opacity="0.5"/>
                <rect x="192.812" y="161.812" width="9.6406" height="9.6406" rx="1.34409" fill="white" fill-opacity="0.5"/>
                <rect x="231.375" y="161.812" width="9.6406" height="9.6406" rx="1.34409" fill="white" fill-opacity="0.5"/>
                <rect x="269.937" y="161.812" width="9.6406" height="9.6406" rx="1.34409" fill="white" fill-opacity="0.5"/>
                <rect x="308.499" y="161.812" width="9.6406" height="9.6406" rx="1.34409" fill="white" fill-opacity="0.5"/>
                <rect x="347.061" y="161.812" width="9.6406" height="9.6406" rx="1.34409" fill="white" fill-opacity="0.5"/>
                <rect y="200.375" width="9.6406" height="9.6406" rx="1.34409" fill="white" fill-opacity="0.5"/>
                <rect y="237.566" width="9.6406" height="9.6406" rx="1.34409" fill="white" fill-opacity="0.5"/>
                <rect y="274.759" width="9.6406" height="9.6406" rx="1.34409" fill="white" fill-opacity="0.5"/>
                <rect y="311.95" width="9.6406" height="9.6406" rx="1.34409" fill="white" fill-opacity="0.5"/>
                <rect x="38.5625" y="200.375" width="9.6406" height="9.6406" rx="1.34409" fill="white" fill-opacity="0.5"/>
                <rect x="38.5625" y="237.566" width="9.6406" height="9.6406" rx="1.34409" fill="white" fill-opacity="0.5"/>
                <rect x="38.5625" y="274.759" width="9.6406" height="9.6406" rx="1.34409" fill="white" fill-opacity="0.5"/>
                <rect x="38.5625" y="311.95" width="9.6406" height="9.6406" rx="1.34409" fill="white" fill-opacity="0.5"/>
                <rect x="77.1251" y="200.375" width="9.6406" height="9.6406" rx="1.34409" fill="white" fill-opacity="0.5"/>
                <rect x="77.1251" y="237.566" width="9.6406" height="9.6406" rx="1.34409" fill="white" fill-opacity="0.5"/>
                <rect x="77.1251" y="274.759" width="9.6406" height="9.6406" rx="1.34409" fill="white" fill-opacity="0.5"/>
                <rect x="77.1251" y="311.95" width="9.6406" height="9.6406" rx="1.34409" fill="white" fill-opacity="0.5"/>
                <rect x="115.687" y="200.375" width="9.6406" height="9.6406" rx="1.34409" fill="white" fill-opacity="0.5"/>
                <rect x="115.687" y="237.566" width="9.6406" height="9.6406" rx="1.34409" fill="white" fill-opacity="0.5"/>
                <rect x="115.687" y="274.759" width="9.6406" height="9.6406" rx="1.34409" fill="white" fill-opacity="0.5"/>
                <rect x="115.687" y="311.95" width="9.6406" height="9.6406" rx="1.34409" fill="white" fill-opacity="0.5"/>
                <rect x="154.25" y="200.375" width="9.6406" height="9.6406" rx="1.34409" fill="white" fill-opacity="0.5"/>
                <rect x="154.25" y="237.566" width="9.6406" height="9.6406" rx="1.34409" fill="white" fill-opacity="0.5"/>
                <rect x="154.25" y="274.759" width="9.6406" height="9.6406" rx="1.34409" fill="white" fill-opacity="0.5"/>
                <rect x="154.25" y="311.95" width="9.6406" height="9.6406" rx="1.34409" fill="white" fill-opacity="0.5"/>
                <rect x="192.812" y="200.375" width="9.6406" height="9.6406" rx="1.34409" fill="white" fill-opacity="0.5"/>
                <rect x="192.812" y="237.566" width="9.6406" height="9.6406" rx="1.34409" fill="white" fill-opacity="0.5"/>
                <rect x="192.812" y="274.759" width="9.6406" height="9.6406" rx="1.34409" fill="white" fill-opacity="0.5"/>
                <rect x="192.812" y="311.95" width="9.6406" height="9.6406" rx="1.34409" fill="white" fill-opacity="0.5"/>
                <rect x="231.375" y="200.375" width="9.6406" height="9.6406" rx="1.34409" fill="white" fill-opacity="0.5"/>
                <rect x="231.375" y="237.566" width="9.6406" height="9.6406" rx="1.34409" fill="white" fill-opacity="0.5"/>
                <rect x="231.375" y="274.759" width="9.6406" height="9.6406" rx="1.34409" fill="white" fill-opacity="0.5"/>
                <rect x="231.375" y="311.95" width="9.6406" height="9.6406" rx="1.34409" fill="white" fill-opacity="0.5"/>
                <rect x="269.937" y="200.375" width="9.6406" height="9.6406" rx="1.34409" fill="white" fill-opacity="0.5"/>
                <rect x="269.937" y="237.566" width="9.6406" height="9.6406" rx="1.34409" fill="white" fill-opacity="0.5"/>
                <rect x="269.937" y="274.759" width="9.6406" height="9.6406" rx="1.34409" fill="white" fill-opacity="0.5"/>
                <rect x="269.937" y="311.95" width="9.6406" height="9.6406" rx="1.34409" fill="white" fill-opacity="0.5"/>
                <rect x="308.499" y="200.375" width="9.6406" height="9.6406" rx="1.34409" fill="white" fill-opacity="0.5"/>
                <rect x="308.499" y="237.566" width="9.6406" height="9.6406" rx="1.34409" fill="white" fill-opacity="0.5"/>
                <rect x="308.499" y="274.759" width="9.6406" height="9.6406" rx="1.34409" fill="white" fill-opacity="0.5"/>
                <rect x="308.499" y="311.95" width="9.6406" height="9.6406" rx="1.34409" fill="white" fill-opacity="0.5"/>
                <rect x="347.061" y="200.375" width="9.6406" height="9.6406" rx="1.34409" fill="white" fill-opacity="0.5"/>
                <rect x="347.061" y="237.566" width="9.6406" height="9.6406" rx="1.34409" fill="white" fill-opacity="0.5"/>
                <rect x="347.061" y="274.759" width="9.6406" height="9.6406" rx="1.34409" fill="white" fill-opacity="0.5"/>
                <rect x="347.061" y="311.95" width="9.6406" height="9.6406" rx="1.34409" fill="white" fill-opacity="0.5"/>
                </svg>