<svg width="258" height="400" viewBox="0 0 258 400" fill="none" xmlns="http://www.w3.org/2000/svg">
<rect x="0.0380859" width="10.9369" height="10.9369" rx="5.46844" fill="#EAF6FB"/>
<rect x="43.7861" width="10.9369" height="10.9369" rx="5.46844" fill="#EAF6FB"/>
<rect x="87.5332" width="10.9369" height="10.9369" rx="5.46844" fill="#EAF6FB"/>
<rect x="131.28" width="10.9369" height="10.9369" rx="5.46844" fill="#EAF6FB"/>
<rect x="175.028" width="10.9369" height="10.9369" rx="5.46844" fill="#EAF6FB"/>
<rect x="218.776" width="10.9369" height="10.9369" rx="5.46844" fill="#EAF6FB"/>
<rect x="0.0380859" y="43.7476" width="10.9369" height="10.9369" rx="5.46844" fill="#EAF6FB"/>
<rect x="43.7861" y="43.7476" width="10.9369" height="10.9369" rx="5.46844" fill="#EAF6FB"/>
<rect x="87.5332" y="43.7476" width="10.9369" height="10.9369" rx="5.46844" fill="#EAF6FB"/>
<rect x="131.28" y="43.7476" width="10.9369" height="10.9369" rx="5.46844" fill="#EAF6FB"/>
<rect x="175.028" y="43.7476" width="10.9369" height="10.9369" rx="5.46844" fill="#EAF6FB"/>
<rect x="218.776" y="43.7476" width="10.9369" height="10.9369" rx="5.46844" fill="#EAF6FB"/>
<rect x="0.0380859" y="87.4946" width="10.9369" height="10.9369" rx="5.46844" fill="#EAF6FB"/>
<rect x="43.7861" y="87.4946" width="10.9369" height="10.9369" rx="5.46844" fill="#EAF6FB"/>
<rect x="87.5332" y="87.4946" width="10.9369" height="10.9369" rx="5.46844" fill="#EAF6FB"/>
<rect x="131.28" y="87.4946" width="10.9369" height="10.9369" rx="5.46844" fill="#EAF6FB"/>
<rect x="175.028" y="87.4946" width="10.9369" height="10.9369" rx="5.46844" fill="#EAF6FB"/>
<rect x="218.776" y="87.4946" width="10.9369" height="10.9369" rx="5.46844" fill="#EAF6FB"/>
<rect x="0.0380859" y="131.242" width="10.9369" height="10.9369" rx="5.46844" fill="#EAF6FB"/>
<rect x="43.7861" y="131.242" width="10.9369" height="10.9369" rx="5.46844" fill="#EAF6FB"/>
<rect x="87.5332" y="131.242" width="10.9369" height="10.9369" rx="5.46844" fill="#EAF6FB"/>
<rect x="131.28" y="131.242" width="10.9369" height="10.9369" rx="5.46844" fill="#EAF6FB"/>
<rect x="175.028" y="131.242" width="10.9369" height="10.9369" rx="5.46844" fill="#EAF6FB"/>
<rect x="218.776" y="131.242" width="10.9369" height="10.9369" rx="5.46844" fill="#EAF6FB"/>
<rect x="0.0380859" y="174.99" width="10.9369" height="10.9369" rx="5.46844" fill="#EAF6FB"/>
<rect x="43.7861" y="174.99" width="10.9369" height="10.9369" rx="5.46844" fill="#EAF6FB"/>
<rect x="87.5332" y="174.99" width="10.9369" height="10.9369" rx="5.46844" fill="#EAF6FB"/>
<rect x="131.28" y="174.99" width="10.9369" height="10.9369" rx="5.46844" fill="#EAF6FB"/>
<rect x="175.028" y="174.99" width="10.9369" height="10.9369" rx="5.46844" fill="#EAF6FB"/>
<rect x="218.776" y="174.99" width="10.9369" height="10.9369" rx="5.46844" fill="#EAF6FB"/>
<rect x="0.0380859" y="218.738" width="10.9369" height="10.9369" rx="5.46844" fill="#EAF6FB"/>
<rect x="43.7861" y="218.738" width="10.9369" height="10.9369" rx="5.46844" fill="#EAF6FB"/>
<rect x="87.5332" y="218.738" width="10.9369" height="10.9369" rx="5.46844" fill="#EAF6FB"/>
<rect x="131.28" y="218.738" width="10.9369" height="10.9369" rx="5.46844" fill="#EAF6FB"/>
<rect x="175.028" y="218.738" width="10.9369" height="10.9369" rx="5.46844" fill="#EAF6FB"/>
<rect x="218.776" y="218.738" width="10.9369" height="10.9369" rx="5.46844" fill="#EAF6FB"/>
<rect x="0.0380859" y="262.485" width="10.9369" height="10.9369" rx="5.46844" fill="#EAF6FB"/>
<rect x="0.0380859" y="304.678" width="10.9369" height="10.9369" rx="5.46844" fill="#EAF6FB"/>
<rect x="0.0380859" y="346.871" width="10.9369" height="10.9369" rx="5.46844" fill="#EAF6FB"/>
<rect x="0.0380859" y="389.063" width="10.9369" height="10.9369" rx="5.46844" fill="#EAF6FB"/>
<rect x="43.7861" y="262.485" width="10.9369" height="10.9369" rx="5.46844" fill="#EAF6FB"/>
<rect x="43.7861" y="304.678" width="10.9369" height="10.9369" rx="5.46844" fill="#EAF6FB"/>
<rect x="43.7861" y="346.871" width="10.9369" height="10.9369" rx="5.46844" fill="#EAF6FB"/>
<rect x="43.7861" y="389.063" width="10.9369" height="10.9369" rx="5.46844" fill="#EAF6FB"/>
<rect x="87.5332" y="262.485" width="10.9369" height="10.9369" rx="5.46844" fill="#EAF6FB"/>
<rect x="87.5332" y="304.678" width="10.9369" height="10.9369" rx="5.46844" fill="#EAF6FB"/>
<rect x="87.5332" y="346.871" width="10.9369" height="10.9369" rx="5.46844" fill="#EAF6FB"/>
<rect x="87.5332" y="389.063" width="10.9369" height="10.9369" rx="5.46844" fill="#EAF6FB"/>
<rect x="131.28" y="262.485" width="10.9369" height="10.9369" rx="5.46844" fill="#EAF6FB"/>
<rect x="131.28" y="304.678" width="10.9369" height="10.9369" rx="5.46844" fill="#EAF6FB"/>
<rect x="131.28" y="346.871" width="10.9369" height="10.9369" rx="5.46844" fill="#EAF6FB"/>
<rect x="131.28" y="389.063" width="10.9369" height="10.9369" rx="5.46844" fill="#EAF6FB"/>
<rect x="175.028" y="262.485" width="10.9369" height="10.9369" rx="5.46844" fill="#EAF6FB"/>
<rect x="175.028" y="304.678" width="10.9369" height="10.9369" rx="5.46844" fill="#EAF6FB"/>
<rect x="175.028" y="346.871" width="10.9369" height="10.9369" rx="5.46844" fill="#EAF6FB"/>
<rect x="175.028" y="389.063" width="10.9369" height="10.9369" rx="5.46844" fill="#EAF6FB"/>
<rect x="218.776" y="262.485" width="10.9369" height="10.9369" rx="5.46844" fill="#EAF6FB"/>
<rect x="218.776" y="304.678" width="10.9369" height="10.9369" rx="5.46844" fill="#EAF6FB"/>
<rect x="218.776" y="346.871" width="10.9369" height="10.9369" rx="5.46844" fill="#EAF6FB"/>
<rect x="218.776" y="389.063" width="10.9369" height="10.9369" rx="5.46844" fill="#EAF6FB"/>
</svg>
