<svg width="16" height="16" viewBox="0 0 16 16" fill="none" xmlns="http://www.w3.org/2000/svg">
<rect width="16" height="16" rx="8" fill="white"/>
<mask id="mask0_4637_13939" style="mask-type:alpha" maskUnits="userSpaceOnUse" x="0" y="0" width="16" height="16">
<rect width="16" height="16" rx="8" fill="white"/>
</mask>
<g mask="url(#mask0_4637_13939)">
<path fill-rule="evenodd" clip-rule="evenodd" d="M22.4 0H0V1.06667H22.4V0ZM22.4 2.13333H0V3.2H22.4V2.13333ZM0 4.26667H22.4V5.33333H0V4.26667ZM22.4 6.4H0V7.46667H22.4V6.4ZM0 8.53333H22.4V9.6H0V8.53333ZM22.4 10.6667H0V11.7333H22.4V10.6667ZM0 12.8H22.4V13.8667H0V12.8ZM22.4 14.9333H0V16H22.4V14.9333Z" fill="#D02F44"/>
<rect width="9.6" height="7.46667" fill="#46467F"/>
<g filter="url(#filter0_d_4637_13939)">
<path fill-rule="evenodd" clip-rule="evenodd" d="M2.13307 1.59998C2.13307 1.89454 1.89429 2.13332 1.59974 2.13332C1.30519 2.13332 1.06641 1.89454 1.06641 1.59998C1.06641 1.30543 1.30519 1.06665 1.59974 1.06665C1.89429 1.06665 2.13307 1.30543 2.13307 1.59998ZM4.26641 1.59998C4.26641 1.89454 4.02762 2.13332 3.73307 2.13332C3.43852 2.13332 3.19974 1.89454 3.19974 1.59998C3.19974 1.30543 3.43852 1.06665 3.73307 1.06665C4.02762 1.06665 4.26641 1.30543 4.26641 1.59998ZM5.86641 2.13332C6.16096 2.13332 6.39974 1.89454 6.39974 1.59998C6.39974 1.30543 6.16096 1.06665 5.86641 1.06665C5.57185 1.06665 5.33307 1.30543 5.33307 1.59998C5.33307 1.89454 5.57185 2.13332 5.86641 2.13332ZM8.53307 1.59998C8.53307 1.89454 8.29429 2.13332 7.99974 2.13332C7.70519 2.13332 7.46641 1.89454 7.46641 1.59998C7.46641 1.30543 7.70519 1.06665 7.99974 1.06665C8.29429 1.06665 8.53307 1.30543 8.53307 1.59998ZM2.66641 3.19998C2.96096 3.19998 3.19974 2.9612 3.19974 2.66665C3.19974 2.3721 2.96096 2.13332 2.66641 2.13332C2.37185 2.13332 2.13307 2.3721 2.13307 2.66665C2.13307 2.9612 2.37185 3.19998 2.66641 3.19998ZM5.33307 2.66665C5.33307 2.9612 5.09429 3.19998 4.79974 3.19998C4.50519 3.19998 4.26641 2.9612 4.26641 2.66665C4.26641 2.3721 4.50519 2.13332 4.79974 2.13332C5.09429 2.13332 5.33307 2.3721 5.33307 2.66665ZM6.93307 3.19998C7.22762 3.19998 7.46641 2.9612 7.46641 2.66665C7.46641 2.3721 7.22762 2.13332 6.93307 2.13332C6.63852 2.13332 6.39974 2.3721 6.39974 2.66665C6.39974 2.9612 6.63852 3.19998 6.93307 3.19998ZM8.53307 3.73332C8.53307 4.02787 8.29429 4.26665 7.99974 4.26665C7.70519 4.26665 7.46641 4.02787 7.46641 3.73332C7.46641 3.43877 7.70519 3.19998 7.99974 3.19998C8.29429 3.19998 8.53307 3.43877 8.53307 3.73332ZM5.86641 4.26665C6.16096 4.26665 6.39974 4.02787 6.39974 3.73332C6.39974 3.43877 6.16096 3.19998 5.86641 3.19998C5.57185 3.19998 5.33307 3.43877 5.33307 3.73332C5.33307 4.02787 5.57185 4.26665 5.86641 4.26665ZM4.26641 3.73332C4.26641 4.02787 4.02762 4.26665 3.73307 4.26665C3.43852 4.26665 3.19974 4.02787 3.19974 3.73332C3.19974 3.43877 3.43852 3.19998 3.73307 3.19998C4.02762 3.19998 4.26641 3.43877 4.26641 3.73332ZM1.59974 4.26665C1.89429 4.26665 2.13307 4.02787 2.13307 3.73332C2.13307 3.43877 1.89429 3.19998 1.59974 3.19998C1.30519 3.19998 1.06641 3.43877 1.06641 3.73332C1.06641 4.02787 1.30519 4.26665 1.59974 4.26665ZM3.19974 4.79998C3.19974 5.09454 2.96096 5.33332 2.66641 5.33332C2.37185 5.33332 2.13307 5.09454 2.13307 4.79998C2.13307 4.50543 2.37185 4.26665 2.66641 4.26665C2.96096 4.26665 3.19974 4.50543 3.19974 4.79998ZM4.79974 5.33332C5.09429 5.33332 5.33307 5.09454 5.33307 4.79998C5.33307 4.50543 5.09429 4.26665 4.79974 4.26665C4.50519 4.26665 4.26641 4.50543 4.26641 4.79998C4.26641 5.09454 4.50519 5.33332 4.79974 5.33332ZM7.46641 4.79998C7.46641 5.09454 7.22762 5.33332 6.93307 5.33332C6.63852 5.33332 6.39974 5.09454 6.39974 4.79998C6.39974 4.50543 6.63852 4.26665 6.93307 4.26665C7.22762 4.26665 7.46641 4.50543 7.46641 4.79998ZM7.99974 6.39998C8.29429 6.39998 8.53307 6.1612 8.53307 5.86665C8.53307 5.5721 8.29429 5.33332 7.99974 5.33332C7.70519 5.33332 7.46641 5.5721 7.46641 5.86665C7.46641 6.1612 7.70519 6.39998 7.99974 6.39998ZM6.39974 5.86665C6.39974 6.1612 6.16096 6.39998 5.86641 6.39998C5.57185 6.39998 5.33307 6.1612 5.33307 5.86665C5.33307 5.5721 5.57185 5.33332 5.86641 5.33332C6.16096 5.33332 6.39974 5.5721 6.39974 5.86665ZM3.73307 6.39998C4.02762 6.39998 4.26641 6.1612 4.26641 5.86665C4.26641 5.5721 4.02762 5.33332 3.73307 5.33332C3.43852 5.33332 3.19974 5.5721 3.19974 5.86665C3.19974 6.1612 3.43852 6.39998 3.73307 6.39998ZM2.13307 5.86665C2.13307 6.1612 1.89429 6.39998 1.59974 6.39998C1.30519 6.39998 1.06641 6.1612 1.06641 5.86665C1.06641 5.5721 1.30519 5.33332 1.59974 5.33332C1.89429 5.33332 2.13307 5.5721 2.13307 5.86665Z" fill="url(#paint0_linear_4637_13939)"/>
</g>
</g>
<defs>
<filter id="filter0_d_4637_13939" x="1.06641" y="1.06665" width="7.4668" height="6.33337" filterUnits="userSpaceOnUse" color-interpolation-filters="sRGB">
<feFlood flood-opacity="0" result="BackgroundImageFix"/>
<feColorMatrix in="SourceAlpha" type="matrix" values="0 0 0 0 0 0 0 0 0 0 0 0 0 0 0 0 0 0 127 0" result="hardAlpha"/>
<feOffset dy="1"/>
<feColorMatrix type="matrix" values="0 0 0 0 0 0 0 0 0 0 0 0 0 0 0 0 0 0 0.06 0"/>
<feBlend mode="normal" in2="BackgroundImageFix" result="effect1_dropShadow_4637_13939"/>
<feBlend mode="normal" in="SourceGraphic" in2="effect1_dropShadow_4637_13939" result="shape"/>
</filter>
<linearGradient id="paint0_linear_4637_13939" x1="1.06641" y1="1.06665" x2="1.06641" y2="6.39998" gradientUnits="userSpaceOnUse">
<stop stop-color="white"/>
<stop offset="1" stop-color="#F0F0F0"/>
</linearGradient>
</defs>
</svg>
