<svg width="30" height="31" viewBox="0 0 30 31" fill="none" xmlns="http://www.w3.org/2000/svg">
<path d="M21.25 25.0303H27.5V22.5303C27.4999 21.7509 27.2571 20.991 26.8052 20.3561C26.3533 19.7211 25.7148 19.2428 24.9784 18.9875C24.2421 18.7322 23.4445 18.7126 22.6966 18.9315C21.9486 19.1505 21.2875 19.597 20.805 20.209M21.25 25.0303H8.75M21.25 25.0303V22.5303C21.25 21.7103 21.0925 20.9265 20.805 20.209M8.75 25.0303H2.5V22.5303C2.50006 21.7509 2.74292 20.991 3.19483 20.3561C3.64673 19.7211 4.28523 19.2428 5.02156 18.9875C5.75789 18.7322 6.55547 18.7126 7.30342 18.9315C8.05137 19.1505 8.71254 19.597 9.195 20.209M8.75 25.0303V22.5303C8.75 21.7103 8.9075 20.9265 9.195 20.209M9.195 20.209C9.65919 19.049 10.4603 18.0546 11.495 17.3542C12.5297 16.6538 13.7505 16.2794 15 16.2794C16.2495 16.2794 17.4703 16.6538 18.505 17.3542C19.5397 18.0546 20.3408 19.049 20.805 20.209M18.75 8.78027C18.75 9.77484 18.3549 10.7287 17.6517 11.4319C16.9484 12.1352 15.9946 12.5303 15 12.5303C14.0054 12.5303 13.0516 12.1352 12.3483 11.4319C11.6451 10.7287 11.25 9.77484 11.25 8.78027C11.25 7.78571 11.6451 6.83188 12.3483 6.12862C13.0516 5.42536 14.0054 5.03027 15 5.03027C15.9946 5.03027 16.9484 5.42536 17.6517 6.12862C18.3549 6.83188 18.75 7.78571 18.75 8.78027V8.78027ZM26.25 12.5303C26.25 13.1933 25.9866 13.8292 25.5178 14.298C25.0489 14.7669 24.413 15.0303 23.75 15.0303C23.087 15.0303 22.4511 14.7669 21.9822 14.298C21.5134 13.8292 21.25 13.1933 21.25 12.5303C21.25 11.8672 21.5134 11.2313 21.9822 10.7625C22.4511 10.2937 23.087 10.0303 23.75 10.0303C24.413 10.0303 25.0489 10.2937 25.5178 10.7625C25.9866 11.2313 26.25 11.8672 26.25 12.5303ZM8.75 12.5303C8.75 13.1933 8.48661 13.8292 8.01777 14.298C7.54893 14.7669 6.91304 15.0303 6.25 15.0303C5.58696 15.0303 4.95107 14.7669 4.48223 14.298C4.01339 13.8292 3.75 13.1933 3.75 12.5303C3.75 11.8672 4.01339 11.2313 4.48223 10.7625C4.95107 10.2937 5.58696 10.0303 6.25 10.0303C6.91304 10.0303 7.54893 10.2937 8.01777 10.7625C8.48661 11.2313 8.75 11.8672 8.75 12.5303Z" stroke="#1F9ED3" stroke-width="2" stroke-linecap="round" stroke-linejoin="round"/>
</svg>
